G04 #@! TF.GenerationSoftware,KiCad,Pcbnew,5.0.1*
G04 #@! TF.CreationDate,2018-12-06T20:50:16-08:00*
G04 #@! TF.ProjectId,pmod-samd21,706D6F642D73616D6432312E6B696361,rev?*
G04 #@! TF.SameCoordinates,PX8822960PY9c3a754*
G04 #@! TF.FileFunction,Soldermask,Top*
G04 #@! TF.FilePolarity,Negative*
%FSLAX46Y46*%
G04 Gerber Fmt 4.6, Leading zero omitted, Abs format (unit mm)*
G04 Created by KiCad (PCBNEW 5.0.1) date Thu 06 Dec 2018 08:50:16 PM PST*
%MOMM*%
%LPD*%
G01*
G04 APERTURE LIST*
%ADD10C,0.100000*%
G04 APERTURE END LIST*
D10*
G36*
X10731000Y1206300D02*
X9613000Y1206300D01*
X9613000Y3848300D01*
X10731000Y3848300D01*
X10731000Y1206300D01*
X10731000Y1206300D01*
G37*
G36*
X8191000Y1206300D02*
X7073000Y1206300D01*
X7073000Y3848300D01*
X8191000Y3848300D01*
X8191000Y1206300D01*
X8191000Y1206300D01*
G37*
G36*
X5651000Y1206300D02*
X4533000Y1206300D01*
X4533000Y3848300D01*
X5651000Y3848300D01*
X5651000Y1206300D01*
X5651000Y1206300D01*
G37*
G36*
X3111000Y1206300D02*
X1993000Y1206300D01*
X1993000Y3848300D01*
X3111000Y3848300D01*
X3111000Y1206300D01*
X3111000Y1206300D01*
G37*
G36*
X15811000Y1206300D02*
X14693000Y1206300D01*
X14693000Y3848300D01*
X15811000Y3848300D01*
X15811000Y1206300D01*
X15811000Y1206300D01*
G37*
G36*
X13271000Y1206300D02*
X12153000Y1206300D01*
X12153000Y3848300D01*
X13271000Y3848300D01*
X13271000Y1206300D01*
X13271000Y1206300D01*
G37*
G36*
X1113000Y2334300D02*
X411000Y2334300D01*
X411000Y2836300D01*
X1113000Y2836300D01*
X1113000Y2334300D01*
X1113000Y2334300D01*
G37*
G36*
X1113000Y3234300D02*
X411000Y3234300D01*
X411000Y3736300D01*
X1113000Y3736300D01*
X1113000Y3234300D01*
X1113000Y3234300D01*
G37*
G36*
X1163000Y4674300D02*
X361000Y4674300D01*
X361000Y5376300D01*
X1163000Y5376300D01*
X1163000Y4674300D01*
X1163000Y4674300D01*
G37*
G36*
X1163000Y5774300D02*
X361000Y5774300D01*
X361000Y6476300D01*
X1163000Y6476300D01*
X1163000Y5774300D01*
X1163000Y5774300D01*
G37*
G36*
X8191000Y6286300D02*
X7073000Y6286300D01*
X7073000Y8928300D01*
X8191000Y8928300D01*
X8191000Y6286300D01*
X8191000Y6286300D01*
G37*
G36*
X13271000Y6286300D02*
X12153000Y6286300D01*
X12153000Y8928300D01*
X13271000Y8928300D01*
X13271000Y6286300D01*
X13271000Y6286300D01*
G37*
G36*
X15811000Y6286300D02*
X14693000Y6286300D01*
X14693000Y8928300D01*
X15811000Y8928300D01*
X15811000Y6286300D01*
X15811000Y6286300D01*
G37*
G36*
X10731000Y6286300D02*
X9613000Y6286300D01*
X9613000Y8928300D01*
X10731000Y8928300D01*
X10731000Y6286300D01*
X10731000Y6286300D01*
G37*
G36*
X3111000Y6286300D02*
X1993000Y6286300D01*
X1993000Y8928300D01*
X3111000Y8928300D01*
X3111000Y6286300D01*
X3111000Y6286300D01*
G37*
G36*
X5651000Y6286300D02*
X4533000Y6286300D01*
X4533000Y8928300D01*
X5651000Y8928300D01*
X5651000Y6286300D01*
X5651000Y6286300D01*
G37*
G36*
X13485855Y19560160D02*
X13549618Y19553880D01*
X13631427Y19529063D01*
X13672333Y19516655D01*
X13772491Y19463119D01*
X13785426Y19456205D01*
X13884553Y19374853D01*
X13965905Y19275726D01*
X13965906Y19275724D01*
X14026355Y19162633D01*
X14026355Y19162632D01*
X14063580Y19039918D01*
X14076149Y18912300D01*
X14063580Y18784682D01*
X14038763Y18702873D01*
X14026355Y18661967D01*
X13972819Y18561809D01*
X13965905Y18548874D01*
X13884553Y18449747D01*
X13785426Y18368395D01*
X13785424Y18368394D01*
X13672333Y18307945D01*
X13631427Y18295537D01*
X13549618Y18270720D01*
X13485855Y18264440D01*
X13453974Y18261300D01*
X13033000Y18261300D01*
X13008614Y18258898D01*
X12985165Y18251785D01*
X12963554Y18240234D01*
X12944612Y18224688D01*
X12929066Y18205746D01*
X12917515Y18184135D01*
X12910402Y18160686D01*
X12908000Y18136300D01*
X12908000Y17891744D01*
X12910402Y17867358D01*
X12917515Y17843909D01*
X12929066Y17822298D01*
X12944612Y17803356D01*
X12963554Y17787810D01*
X12985165Y17776259D01*
X13008614Y17769146D01*
X13033000Y17766744D01*
X13057386Y17769146D01*
X13080835Y17776259D01*
X13102445Y17787810D01*
X13143894Y17815505D01*
X13143896Y17815506D01*
X13143897Y17815507D01*
X13212325Y17843850D01*
X13212326Y17843850D01*
X13212328Y17843851D01*
X13284966Y17858300D01*
X13359034Y17858300D01*
X13431672Y17843851D01*
X13431674Y17843850D01*
X13431675Y17843850D01*
X13500103Y17815507D01*
X13558841Y17776259D01*
X13561689Y17774356D01*
X13614056Y17721989D01*
X13614058Y17721986D01*
X13655207Y17660403D01*
X13683550Y17591975D01*
X13698000Y17519333D01*
X13698000Y17445267D01*
X13683550Y17372625D01*
X13655207Y17304197D01*
X13614243Y17242891D01*
X13614056Y17242611D01*
X13561689Y17190244D01*
X13561686Y17190242D01*
X13500103Y17149093D01*
X13431675Y17120750D01*
X13431674Y17120750D01*
X13431672Y17120749D01*
X13359034Y17106300D01*
X13284966Y17106300D01*
X13212328Y17120749D01*
X13212326Y17120750D01*
X13212325Y17120750D01*
X13143897Y17149093D01*
X13125713Y17161243D01*
X13102445Y17176790D01*
X13080834Y17188341D01*
X13057385Y17195454D01*
X13032999Y17197856D01*
X13008612Y17195454D01*
X12985163Y17188340D01*
X12963553Y17176789D01*
X12944611Y17161243D01*
X12929066Y17142301D01*
X12917515Y17120690D01*
X12910402Y17097241D01*
X12908000Y17072856D01*
X12908000Y12111744D01*
X12910402Y12087358D01*
X12917515Y12063909D01*
X12929066Y12042298D01*
X12944612Y12023356D01*
X12963554Y12007810D01*
X12985165Y11996259D01*
X13008614Y11989146D01*
X13033000Y11986744D01*
X13057386Y11989146D01*
X13080835Y11996259D01*
X13102445Y12007810D01*
X13143894Y12035505D01*
X13143896Y12035506D01*
X13143897Y12035507D01*
X13212325Y12063850D01*
X13212326Y12063850D01*
X13212328Y12063851D01*
X13284966Y12078300D01*
X13359034Y12078300D01*
X13431672Y12063851D01*
X13431674Y12063850D01*
X13431675Y12063850D01*
X13500103Y12035507D01*
X13558841Y11996259D01*
X13561689Y11994356D01*
X13614056Y11941989D01*
X13614058Y11941986D01*
X13655207Y11880403D01*
X13683550Y11811975D01*
X13698000Y11739333D01*
X13698000Y11665267D01*
X13683550Y11592625D01*
X13655207Y11524197D01*
X13614243Y11462891D01*
X13614056Y11462611D01*
X13561689Y11410244D01*
X13561686Y11410242D01*
X13500103Y11369093D01*
X13431675Y11340750D01*
X13431674Y11340750D01*
X13431672Y11340749D01*
X13359034Y11326300D01*
X13284966Y11326300D01*
X13212328Y11340749D01*
X13212326Y11340750D01*
X13212325Y11340750D01*
X13143897Y11369093D01*
X13125713Y11381243D01*
X13102445Y11396790D01*
X13080834Y11408341D01*
X13057385Y11415454D01*
X13032999Y11417856D01*
X13008612Y11415454D01*
X12985163Y11408340D01*
X12963553Y11396789D01*
X12944611Y11381243D01*
X12929066Y11362301D01*
X12917515Y11340690D01*
X12910402Y11317241D01*
X12908000Y11292856D01*
X12908000Y11048300D01*
X12910402Y11023914D01*
X12917515Y11000465D01*
X12929066Y10978854D01*
X12944612Y10959912D01*
X12963554Y10944366D01*
X12985165Y10932815D01*
X13008614Y10925702D01*
X13033000Y10923300D01*
X13453974Y10923300D01*
X13485855Y10920160D01*
X13549618Y10913880D01*
X13631427Y10889063D01*
X13672333Y10876655D01*
X13772491Y10823119D01*
X13785426Y10816205D01*
X13884553Y10734853D01*
X13965905Y10635726D01*
X13965906Y10635724D01*
X14026355Y10522633D01*
X14026355Y10522632D01*
X14063580Y10399918D01*
X14076149Y10272300D01*
X14063580Y10144682D01*
X14038763Y10062873D01*
X14026355Y10021967D01*
X13972819Y9921809D01*
X13965905Y9908874D01*
X13884553Y9809747D01*
X13785426Y9728395D01*
X13785424Y9728394D01*
X13672333Y9667945D01*
X13631427Y9655537D01*
X13549618Y9630720D01*
X13485855Y9624440D01*
X13453974Y9621300D01*
X12190026Y9621300D01*
X12158145Y9624440D01*
X12094382Y9630720D01*
X12012573Y9655537D01*
X11971667Y9667945D01*
X11858576Y9728394D01*
X11858574Y9728395D01*
X11759447Y9809747D01*
X11678095Y9908874D01*
X11671181Y9921809D01*
X11617645Y10021967D01*
X11605237Y10062873D01*
X11580420Y10144682D01*
X11567851Y10272300D01*
X11580420Y10399918D01*
X11617645Y10522632D01*
X11617645Y10522633D01*
X11678094Y10635724D01*
X11678095Y10635726D01*
X11759447Y10734853D01*
X11858574Y10816205D01*
X11862801Y10819674D01*
X11880128Y10837001D01*
X11893741Y10857376D01*
X11903119Y10880015D01*
X11907899Y10904049D01*
X11907899Y10928553D01*
X11903118Y10952586D01*
X11893741Y10975225D01*
X11880127Y10995600D01*
X11862800Y11012927D01*
X11842425Y11026540D01*
X11819786Y11035918D01*
X11783501Y11041300D01*
X11056000Y11041300D01*
X11056000Y18143300D01*
X11783501Y18143300D01*
X11807887Y18145702D01*
X11831336Y18152815D01*
X11852947Y18164366D01*
X11871889Y18179912D01*
X11887435Y18198854D01*
X11898986Y18220465D01*
X11906099Y18243914D01*
X11908501Y18268300D01*
X11906099Y18292686D01*
X11898986Y18316135D01*
X11887435Y18337746D01*
X11862801Y18364926D01*
X11759447Y18449747D01*
X11732731Y18482300D01*
X11678095Y18548874D01*
X11671181Y18561809D01*
X11617645Y18661967D01*
X11605237Y18702873D01*
X11580420Y18784682D01*
X11567851Y18912300D01*
X11580420Y19039918D01*
X11617645Y19162632D01*
X11617645Y19162633D01*
X11678094Y19275724D01*
X11678095Y19275726D01*
X11759447Y19374853D01*
X11858574Y19456205D01*
X11871509Y19463119D01*
X11971667Y19516655D01*
X12012573Y19529063D01*
X12094382Y19553880D01*
X12158145Y19560160D01*
X12190026Y19563300D01*
X13453974Y19563300D01*
X13485855Y19560160D01*
X13485855Y19560160D01*
G37*
G36*
X17365855Y10920160D02*
X17429618Y10913880D01*
X17511427Y10889063D01*
X17552333Y10876655D01*
X17652491Y10823119D01*
X17665426Y10816205D01*
X17764553Y10734853D01*
X17845905Y10635726D01*
X17845906Y10635724D01*
X17906355Y10522633D01*
X17906355Y10522632D01*
X17943580Y10399918D01*
X17956149Y10272300D01*
X17943580Y10144682D01*
X17918763Y10062873D01*
X17906355Y10021967D01*
X17852819Y9921809D01*
X17845905Y9908874D01*
X17764553Y9809747D01*
X17665426Y9728395D01*
X17665424Y9728394D01*
X17552333Y9667945D01*
X17511427Y9655537D01*
X17429618Y9630720D01*
X17365855Y9624440D01*
X17333974Y9621300D01*
X16670026Y9621300D01*
X16638145Y9624440D01*
X16574382Y9630720D01*
X16492573Y9655537D01*
X16451667Y9667945D01*
X16338576Y9728394D01*
X16338574Y9728395D01*
X16239447Y9809747D01*
X16158095Y9908874D01*
X16151181Y9921809D01*
X16097645Y10021967D01*
X16085237Y10062873D01*
X16060420Y10144682D01*
X16047851Y10272300D01*
X16060420Y10399918D01*
X16097645Y10522632D01*
X16097645Y10522633D01*
X16158094Y10635724D01*
X16158095Y10635726D01*
X16239447Y10734853D01*
X16338574Y10816205D01*
X16351509Y10823119D01*
X16451667Y10876655D01*
X16492573Y10889063D01*
X16574382Y10913880D01*
X16638145Y10920160D01*
X16670026Y10923300D01*
X17333974Y10923300D01*
X17365855Y10920160D01*
X17365855Y10920160D01*
G37*
G36*
X8563000Y9846300D02*
X7861000Y9846300D01*
X7861000Y10448300D01*
X8563000Y10448300D01*
X8563000Y9846300D01*
X8563000Y9846300D01*
G37*
G36*
X7463000Y9846300D02*
X6761000Y9846300D01*
X6761000Y10448300D01*
X7463000Y10448300D01*
X7463000Y9846300D01*
X7463000Y9846300D01*
G37*
G36*
X10703000Y10816300D02*
X10001000Y10816300D01*
X10001000Y11318300D01*
X10703000Y11318300D01*
X10703000Y10816300D01*
X10703000Y10816300D01*
G37*
G36*
X8413000Y11551300D02*
X5811000Y11551300D01*
X5811000Y12553300D01*
X8413000Y12553300D01*
X8413000Y11551300D01*
X8413000Y11551300D01*
G37*
G36*
X4603000Y11551300D02*
X2001000Y11551300D01*
X2001000Y12553300D01*
X4603000Y12553300D01*
X4603000Y11551300D01*
X4603000Y11551300D01*
G37*
G36*
X10703000Y11716300D02*
X10001000Y11716300D01*
X10001000Y12218300D01*
X10703000Y12218300D01*
X10703000Y11716300D01*
X10703000Y11716300D01*
G37*
G36*
X4603000Y12821300D02*
X2001000Y12821300D01*
X2001000Y13823300D01*
X4603000Y13823300D01*
X4603000Y12821300D01*
X4603000Y12821300D01*
G37*
G36*
X8413000Y12821300D02*
X5811000Y12821300D01*
X5811000Y13823300D01*
X8413000Y13823300D01*
X8413000Y12821300D01*
X8413000Y12821300D01*
G37*
G36*
X4603000Y14091300D02*
X2001000Y14091300D01*
X2001000Y15093300D01*
X4603000Y15093300D01*
X4603000Y14091300D01*
X4603000Y14091300D01*
G37*
G36*
X8413000Y14091300D02*
X5811000Y14091300D01*
X5811000Y15093300D01*
X8413000Y15093300D01*
X8413000Y14091300D01*
X8413000Y14091300D01*
G37*
G36*
X4603000Y15361300D02*
X2001000Y15361300D01*
X2001000Y16363300D01*
X4603000Y16363300D01*
X4603000Y15361300D01*
X4603000Y15361300D01*
G37*
G36*
X8413000Y15361300D02*
X5811000Y15361300D01*
X5811000Y16363300D01*
X8413000Y16363300D01*
X8413000Y15361300D01*
X8413000Y15361300D01*
G37*
G36*
X4603000Y16631300D02*
X2001000Y16631300D01*
X2001000Y17633300D01*
X4603000Y17633300D01*
X4603000Y16631300D01*
X4603000Y16631300D01*
G37*
G36*
X8413000Y16631300D02*
X5811000Y16631300D01*
X5811000Y17633300D01*
X8413000Y17633300D01*
X8413000Y16631300D01*
X8413000Y16631300D01*
G37*
G36*
X10257000Y17320300D02*
X9555000Y17320300D01*
X9555000Y17822300D01*
X10257000Y17822300D01*
X10257000Y17320300D01*
X10257000Y17320300D01*
G37*
G36*
X10257000Y18220300D02*
X9555000Y18220300D01*
X9555000Y18722300D01*
X10257000Y18722300D01*
X10257000Y18220300D01*
X10257000Y18220300D01*
G37*
G36*
X17365855Y19560160D02*
X17429618Y19553880D01*
X17511427Y19529063D01*
X17552333Y19516655D01*
X17652491Y19463119D01*
X17665426Y19456205D01*
X17764553Y19374853D01*
X17845905Y19275726D01*
X17845906Y19275724D01*
X17906355Y19162633D01*
X17906355Y19162632D01*
X17943580Y19039918D01*
X17956149Y18912300D01*
X17943580Y18784682D01*
X17918763Y18702873D01*
X17906355Y18661967D01*
X17852819Y18561809D01*
X17845905Y18548874D01*
X17764553Y18449747D01*
X17665426Y18368395D01*
X17665424Y18368394D01*
X17552333Y18307945D01*
X17511427Y18295537D01*
X17429618Y18270720D01*
X17365855Y18264440D01*
X17333974Y18261300D01*
X16670026Y18261300D01*
X16638145Y18264440D01*
X16574382Y18270720D01*
X16492573Y18295537D01*
X16451667Y18307945D01*
X16338576Y18368394D01*
X16338574Y18368395D01*
X16239447Y18449747D01*
X16158095Y18548874D01*
X16151181Y18561809D01*
X16097645Y18661967D01*
X16085237Y18702873D01*
X16060420Y18784682D01*
X16047851Y18912300D01*
X16060420Y19039918D01*
X16097645Y19162632D01*
X16097645Y19162633D01*
X16158094Y19275724D01*
X16158095Y19275726D01*
X16239447Y19374853D01*
X16338574Y19456205D01*
X16351509Y19463119D01*
X16451667Y19516655D01*
X16492573Y19529063D01*
X16574382Y19553880D01*
X16638145Y19560160D01*
X16670026Y19563300D01*
X17333974Y19563300D01*
X17365855Y19560160D01*
X17365855Y19560160D01*
G37*
G36*
X4119000Y18482300D02*
X3417000Y18482300D01*
X3417000Y19084300D01*
X4119000Y19084300D01*
X4119000Y18482300D01*
X4119000Y18482300D01*
G37*
G36*
X5219000Y18482300D02*
X4517000Y18482300D01*
X4517000Y19084300D01*
X5219000Y19084300D01*
X5219000Y18482300D01*
X5219000Y18482300D01*
G37*
G36*
X9038305Y19205692D02*
X8336305Y19205692D01*
X8336305Y19807692D01*
X9038305Y19807692D01*
X9038305Y19205692D01*
X9038305Y19205692D01*
G37*
G36*
X7938305Y19205692D02*
X7236305Y19205692D01*
X7236305Y19807692D01*
X7938305Y19807692D01*
X7938305Y19205692D01*
X7938305Y19205692D01*
G37*
G36*
X8191000Y20256300D02*
X7073000Y20256300D01*
X7073000Y22898300D01*
X8191000Y22898300D01*
X8191000Y20256300D01*
X8191000Y20256300D01*
G37*
G36*
X10731000Y20256300D02*
X9613000Y20256300D01*
X9613000Y22898300D01*
X10731000Y22898300D01*
X10731000Y20256300D01*
X10731000Y20256300D01*
G37*
G36*
X15811000Y20256300D02*
X14693000Y20256300D01*
X14693000Y22898300D01*
X15811000Y22898300D01*
X15811000Y20256300D01*
X15811000Y20256300D01*
G37*
G36*
X13271000Y20256300D02*
X12153000Y20256300D01*
X12153000Y22898300D01*
X13271000Y22898300D01*
X13271000Y20256300D01*
X13271000Y20256300D01*
G37*
G36*
X3111000Y20256300D02*
X1993000Y20256300D01*
X1993000Y22898300D01*
X3111000Y22898300D01*
X3111000Y20256300D01*
X3111000Y20256300D01*
G37*
G36*
X5651000Y20256300D02*
X4533000Y20256300D01*
X4533000Y22898300D01*
X5651000Y22898300D01*
X5651000Y20256300D01*
X5651000Y20256300D01*
G37*
G36*
X13271000Y25336300D02*
X12153000Y25336300D01*
X12153000Y27978300D01*
X13271000Y27978300D01*
X13271000Y25336300D01*
X13271000Y25336300D01*
G37*
G36*
X3111000Y25336300D02*
X1993000Y25336300D01*
X1993000Y27978300D01*
X3111000Y27978300D01*
X3111000Y25336300D01*
X3111000Y25336300D01*
G37*
G36*
X5651000Y25336300D02*
X4533000Y25336300D01*
X4533000Y27978300D01*
X5651000Y27978300D01*
X5651000Y25336300D01*
X5651000Y25336300D01*
G37*
G36*
X8191000Y25336300D02*
X7073000Y25336300D01*
X7073000Y27978300D01*
X8191000Y27978300D01*
X8191000Y25336300D01*
X8191000Y25336300D01*
G37*
G36*
X15811000Y25336300D02*
X14693000Y25336300D01*
X14693000Y27978300D01*
X15811000Y27978300D01*
X15811000Y25336300D01*
X15811000Y25336300D01*
G37*
G36*
X10731000Y25336300D02*
X9613000Y25336300D01*
X9613000Y27978300D01*
X10731000Y27978300D01*
X10731000Y25336300D01*
X10731000Y25336300D01*
G37*
M02*
