G04 #@! TF.GenerationSoftware,KiCad,Pcbnew,5.0.1*
G04 #@! TF.CreationDate,2018-12-09T07:22:16-08:00*
G04 #@! TF.ProjectId,pmod-samd21-usbu,706D6F642D73616D6432312D75736275,rev?*
G04 #@! TF.SameCoordinates,PX8822960PY9c3a754*
G04 #@! TF.FileFunction,Profile,NP*
%FSLAX46Y46*%
G04 Gerber Fmt 4.6, Leading zero omitted, Abs format (unit mm)*
G04 Created by KiCad (PCBNEW 5.0.1) date Sun 09 Dec 2018 07:22:16 AM PST*
%MOMM*%
%LPD*%
G01*
G04 APERTURE LIST*
%ADD10C,0.150000*%
G04 #@! TA.AperFunction,NonConductor*
%ADD11C,0.200000*%
G04 #@! TD*
G04 APERTURE END LIST*
D10*
X0Y0D02*
X12700Y-12700D01*
X0Y28943300D02*
X0Y0D01*
X18161000Y28943300D02*
X0Y28943300D01*
X18161000Y-12700D02*
X18161000Y28943300D01*
X12700Y-12700D02*
X18161000Y-12700D01*
D11*
G04 #@! TO.C,J3*
X15793560Y18599920D02*
X16553560Y18599920D01*
X12323560Y17799920D02*
G75*
G02X12323560Y18599920I0J400000D01*
G01*
X12323560Y18599920D02*
X13083560Y18599920D01*
X12323560Y17799920D02*
X13083560Y17799920D01*
X13083560Y17799920D02*
G75*
G03X13083560Y18599920I0J400000D01*
G01*
X15793560Y17799920D02*
G75*
G02X15793560Y18599920I0J400000D01*
G01*
X16553560Y17799920D02*
G75*
G03X16553560Y18599920I0J400000D01*
G01*
X15793560Y17799920D02*
X16553560Y17799920D01*
X15793560Y10599920D02*
G75*
G02X15793560Y11399920I0J400000D01*
G01*
X15793560Y11399920D02*
X16553560Y11399920D01*
X15793560Y10599920D02*
X16553560Y10599920D01*
X16553560Y10599920D02*
G75*
G03X16553560Y11399920I0J400000D01*
G01*
X12323560Y10599920D02*
X13083560Y10599920D01*
X12323560Y11399920D02*
X13083560Y11399920D01*
X13083560Y10599920D02*
G75*
G03X13083560Y11399920I0J400000D01*
G01*
X12323560Y10599920D02*
G75*
G02X12323560Y11399920I0J400000D01*
G01*
G04 #@! TD*
M02*
