G04 #@! TF.GenerationSoftware,KiCad,Pcbnew,5.0.1*
G04 #@! TF.CreationDate,2018-12-06T20:50:16-08:00*
G04 #@! TF.ProjectId,pmod-samd21,706D6F642D73616D6432312E6B696361,rev?*
G04 #@! TF.SameCoordinates,PX8822960PY9c3a754*
G04 #@! TF.FileFunction,Soldermask,Bot*
G04 #@! TF.FilePolarity,Negative*
%FSLAX46Y46*%
G04 Gerber Fmt 4.6, Leading zero omitted, Abs format (unit mm)*
G04 Created by KiCad (PCBNEW 5.0.1) date Thu 06 Dec 2018 08:50:16 PM PST*
%MOMM*%
%LPD*%
G01*
G04 APERTURE LIST*
%ADD10C,0.100000*%
G04 APERTURE END LIST*
D10*
G36*
X5273000Y2176300D02*
X4771000Y2176300D01*
X4771000Y2878300D01*
X5273000Y2878300D01*
X5273000Y2176300D01*
X5273000Y2176300D01*
G37*
G36*
X4373000Y2176300D02*
X3871000Y2176300D01*
X3871000Y2878300D01*
X4373000Y2878300D01*
X4373000Y2176300D01*
X4373000Y2176300D01*
G37*
G36*
X2562000Y2936300D02*
X2010000Y2936300D01*
X2010000Y4538300D01*
X2562000Y4538300D01*
X2562000Y2936300D01*
X2562000Y2936300D01*
G37*
G36*
X6203000Y4216300D02*
X3921000Y4216300D01*
X3921000Y5918300D01*
X6203000Y5918300D01*
X6203000Y4216300D01*
X6203000Y4216300D01*
G37*
G36*
X15383000Y4216300D02*
X13101000Y4216300D01*
X13101000Y5918300D01*
X15383000Y5918300D01*
X15383000Y4216300D01*
X15383000Y4216300D01*
G37*
G36*
X3212000Y5596300D02*
X2660000Y5596300D01*
X2660000Y7198300D01*
X3212000Y7198300D01*
X3212000Y5596300D01*
X3212000Y5596300D01*
G37*
G36*
X1912000Y5596300D02*
X1360000Y5596300D01*
X1360000Y7198300D01*
X1912000Y7198300D01*
X1912000Y5596300D01*
X1912000Y5596300D01*
G37*
G36*
X6777539Y10084494D02*
X5680109Y8987064D01*
X1506764Y13160409D01*
X2604194Y14257839D01*
X6777539Y10084494D01*
X6777539Y10084494D01*
G37*
G36*
X12696023Y13181622D02*
X12430858Y12916457D01*
X12415312Y12897515D01*
X12403761Y12875904D01*
X12396648Y12852455D01*
X12395268Y12838441D01*
X8543891Y8987064D01*
X7446461Y10084494D01*
X11247160Y13885193D01*
X11262706Y13904135D01*
X11274257Y13925746D01*
X11281370Y13949195D01*
X11282750Y13963209D01*
X11598593Y14279052D01*
X12696023Y13181622D01*
X12696023Y13181622D01*
G37*
G36*
X2881943Y9469036D02*
X2456264Y9043357D01*
X1959875Y9539746D01*
X2385554Y9965425D01*
X2881943Y9469036D01*
X2881943Y9469036D01*
G37*
G36*
X4151943Y9723036D02*
X3726264Y9297357D01*
X3229875Y9793746D01*
X3655554Y10219425D01*
X4151943Y9723036D01*
X4151943Y9723036D01*
G37*
G36*
X17365855Y10920160D02*
X17429618Y10913880D01*
X17511427Y10889063D01*
X17552333Y10876655D01*
X17652491Y10823119D01*
X17665426Y10816205D01*
X17764553Y10734853D01*
X17845905Y10635726D01*
X17845906Y10635724D01*
X17906355Y10522633D01*
X17906355Y10522632D01*
X17943580Y10399918D01*
X17956149Y10272300D01*
X17943580Y10144682D01*
X17925322Y10084494D01*
X17906355Y10021967D01*
X17883083Y9978429D01*
X17845905Y9908874D01*
X17764553Y9809747D01*
X17665426Y9728395D01*
X17665424Y9728394D01*
X17552333Y9667945D01*
X17511427Y9655537D01*
X17429618Y9630720D01*
X17370271Y9624875D01*
X17333974Y9621300D01*
X16670026Y9621300D01*
X16633729Y9624875D01*
X16574382Y9630720D01*
X16492573Y9655537D01*
X16451667Y9667945D01*
X16338576Y9728394D01*
X16338574Y9728395D01*
X16239447Y9809747D01*
X16158095Y9908874D01*
X16120917Y9978429D01*
X16097645Y10021967D01*
X16078678Y10084494D01*
X16060420Y10144682D01*
X16047851Y10272300D01*
X16060420Y10399918D01*
X16097645Y10522632D01*
X16097645Y10522633D01*
X16158094Y10635724D01*
X16158095Y10635726D01*
X16239447Y10734853D01*
X16338574Y10816205D01*
X16351509Y10823119D01*
X16451667Y10876655D01*
X16492573Y10889063D01*
X16574382Y10913880D01*
X16638145Y10920160D01*
X16670026Y10923300D01*
X17333974Y10923300D01*
X17365855Y10920160D01*
X17365855Y10920160D01*
G37*
G36*
X13485855Y10920160D02*
X13549618Y10913880D01*
X13631427Y10889063D01*
X13672333Y10876655D01*
X13772491Y10823119D01*
X13785426Y10816205D01*
X13884553Y10734853D01*
X13965905Y10635726D01*
X13965906Y10635724D01*
X14026355Y10522633D01*
X14026355Y10522632D01*
X14063580Y10399918D01*
X14076149Y10272300D01*
X14063580Y10144682D01*
X14045322Y10084494D01*
X14026355Y10021967D01*
X14003083Y9978429D01*
X13965905Y9908874D01*
X13884553Y9809747D01*
X13785426Y9728395D01*
X13785424Y9728394D01*
X13672333Y9667945D01*
X13631427Y9655537D01*
X13549618Y9630720D01*
X13490271Y9624875D01*
X13453974Y9621300D01*
X12190026Y9621300D01*
X12153729Y9624875D01*
X12094382Y9630720D01*
X12012573Y9655537D01*
X11971667Y9667945D01*
X11858576Y9728394D01*
X11858574Y9728395D01*
X11759447Y9809747D01*
X11678095Y9908874D01*
X11640917Y9978429D01*
X11617645Y10021967D01*
X11598678Y10084494D01*
X11580420Y10144682D01*
X11567851Y10272300D01*
X11580420Y10399918D01*
X11617645Y10522632D01*
X11617645Y10522633D01*
X11678094Y10635724D01*
X11678095Y10635726D01*
X11759447Y10734853D01*
X11858574Y10816205D01*
X11871509Y10823119D01*
X11971667Y10876655D01*
X12012573Y10889063D01*
X12094382Y10913880D01*
X12158145Y10920160D01*
X12190026Y10923300D01*
X13453974Y10923300D01*
X13485855Y10920160D01*
X13485855Y10920160D01*
G37*
G36*
X2104125Y10246854D02*
X1678446Y9821175D01*
X1182057Y10317564D01*
X1607736Y10743243D01*
X2104125Y10246854D01*
X2104125Y10246854D01*
G37*
G36*
X3374125Y10500854D02*
X2948446Y10075175D01*
X2452057Y10571564D01*
X2877736Y10997243D01*
X3374125Y10500854D01*
X3374125Y10500854D01*
G37*
G36*
X13431672Y12063851D02*
X13431674Y12063850D01*
X13431675Y12063850D01*
X13500103Y12035507D01*
X13561409Y11994543D01*
X13561689Y11994356D01*
X13614056Y11941989D01*
X13614058Y11941986D01*
X13655207Y11880403D01*
X13683550Y11811975D01*
X13698000Y11739333D01*
X13698000Y11665267D01*
X13683550Y11592625D01*
X13655207Y11524197D01*
X13614243Y11462891D01*
X13614056Y11462611D01*
X13561689Y11410244D01*
X13561686Y11410242D01*
X13500103Y11369093D01*
X13431675Y11340750D01*
X13431674Y11340750D01*
X13431672Y11340749D01*
X13359034Y11326300D01*
X13284966Y11326300D01*
X13212328Y11340749D01*
X13212326Y11340750D01*
X13212325Y11340750D01*
X13143897Y11369093D01*
X13082314Y11410242D01*
X13082311Y11410244D01*
X13029944Y11462611D01*
X13029757Y11462891D01*
X12988793Y11524197D01*
X12960450Y11592625D01*
X12946000Y11665267D01*
X12946000Y11739333D01*
X12960450Y11811975D01*
X12988793Y11880403D01*
X13029942Y11941986D01*
X13029944Y11941989D01*
X13082311Y11994356D01*
X13082591Y11994543D01*
X13143897Y12035507D01*
X13212325Y12063850D01*
X13212326Y12063850D01*
X13212328Y12063851D01*
X13284966Y12078300D01*
X13359034Y12078300D01*
X13431672Y12063851D01*
X13431672Y12063851D01*
G37*
G36*
X16743643Y15489519D02*
X16889415Y15429138D01*
X17020611Y15341476D01*
X17132176Y15229911D01*
X17219838Y15098715D01*
X17280219Y14952943D01*
X17311000Y14798193D01*
X17311000Y14640407D01*
X17280219Y14485657D01*
X17219838Y14339885D01*
X17132176Y14208689D01*
X17020611Y14097124D01*
X16889415Y14009462D01*
X16743643Y13949081D01*
X16588893Y13918300D01*
X16431107Y13918300D01*
X16276357Y13949081D01*
X16130585Y14009462D01*
X15999389Y14097124D01*
X15887824Y14208689D01*
X15800162Y14339885D01*
X15739781Y14485657D01*
X15709000Y14640407D01*
X15709000Y14798193D01*
X15739781Y14952943D01*
X15800162Y15098715D01*
X15887824Y15229911D01*
X15999389Y15341476D01*
X16130585Y15429138D01*
X16276357Y15489519D01*
X16431107Y15520300D01*
X16588893Y15520300D01*
X16743643Y15489519D01*
X16743643Y15489519D01*
G37*
G36*
X6777539Y19100106D02*
X2604194Y14926761D01*
X1506764Y16024191D01*
X5680109Y20197536D01*
X6777539Y19100106D01*
X6777539Y19100106D01*
G37*
G36*
X12717236Y16024191D02*
X11619806Y14926761D01*
X7446461Y19100106D01*
X8543891Y20197536D01*
X12717236Y16024191D01*
X12717236Y16024191D01*
G37*
G36*
X1063000Y16358300D02*
X461000Y16358300D01*
X461000Y17060300D01*
X1063000Y17060300D01*
X1063000Y16358300D01*
X1063000Y16358300D01*
G37*
G36*
X13431672Y17843851D02*
X13431674Y17843850D01*
X13431675Y17843850D01*
X13500103Y17815507D01*
X13561409Y17774543D01*
X13561689Y17774356D01*
X13614056Y17721989D01*
X13614058Y17721986D01*
X13655207Y17660403D01*
X13683550Y17591975D01*
X13698000Y17519333D01*
X13698000Y17445267D01*
X13683550Y17372625D01*
X13655207Y17304197D01*
X13614243Y17242891D01*
X13614056Y17242611D01*
X13561689Y17190244D01*
X13561686Y17190242D01*
X13500103Y17149093D01*
X13431675Y17120750D01*
X13431674Y17120750D01*
X13431672Y17120749D01*
X13359034Y17106300D01*
X13284966Y17106300D01*
X13212328Y17120749D01*
X13212326Y17120750D01*
X13212325Y17120750D01*
X13143897Y17149093D01*
X13082314Y17190242D01*
X13082311Y17190244D01*
X13029944Y17242611D01*
X13029757Y17242891D01*
X12988793Y17304197D01*
X12960450Y17372625D01*
X12946000Y17445267D01*
X12946000Y17519333D01*
X12960450Y17591975D01*
X12988793Y17660403D01*
X13029942Y17721986D01*
X13029944Y17721989D01*
X13082311Y17774356D01*
X13082591Y17774543D01*
X13143897Y17815507D01*
X13212325Y17843850D01*
X13212326Y17843850D01*
X13212328Y17843851D01*
X13284966Y17858300D01*
X13359034Y17858300D01*
X13431672Y17843851D01*
X13431672Y17843851D01*
G37*
G36*
X1063000Y17458300D02*
X461000Y17458300D01*
X461000Y18160300D01*
X1063000Y18160300D01*
X1063000Y17458300D01*
X1063000Y17458300D01*
G37*
G36*
X17365855Y19560160D02*
X17429618Y19553880D01*
X17511427Y19529063D01*
X17552333Y19516655D01*
X17652491Y19463119D01*
X17665426Y19456205D01*
X17764553Y19374853D01*
X17845905Y19275726D01*
X17845906Y19275724D01*
X17906355Y19162633D01*
X17906355Y19162632D01*
X17943580Y19039918D01*
X17956149Y18912300D01*
X17943580Y18784682D01*
X17918763Y18702873D01*
X17906355Y18661967D01*
X17852819Y18561809D01*
X17845905Y18548874D01*
X17764553Y18449747D01*
X17665426Y18368395D01*
X17665424Y18368394D01*
X17552333Y18307945D01*
X17511427Y18295537D01*
X17429618Y18270720D01*
X17365855Y18264440D01*
X17333974Y18261300D01*
X16670026Y18261300D01*
X16638145Y18264440D01*
X16574382Y18270720D01*
X16492573Y18295537D01*
X16451667Y18307945D01*
X16338576Y18368394D01*
X16338574Y18368395D01*
X16239447Y18449747D01*
X16158095Y18548874D01*
X16151181Y18561809D01*
X16097645Y18661967D01*
X16085237Y18702873D01*
X16060420Y18784682D01*
X16047851Y18912300D01*
X16060420Y19039918D01*
X16097645Y19162632D01*
X16097645Y19162633D01*
X16158094Y19275724D01*
X16158095Y19275726D01*
X16239447Y19374853D01*
X16338574Y19456205D01*
X16351509Y19463119D01*
X16451667Y19516655D01*
X16492573Y19529063D01*
X16574382Y19553880D01*
X16638145Y19560160D01*
X16670026Y19563300D01*
X17333974Y19563300D01*
X17365855Y19560160D01*
X17365855Y19560160D01*
G37*
G36*
X13485855Y19560160D02*
X13549618Y19553880D01*
X13631427Y19529063D01*
X13672333Y19516655D01*
X13772491Y19463119D01*
X13785426Y19456205D01*
X13884553Y19374853D01*
X13965905Y19275726D01*
X13965906Y19275724D01*
X14026355Y19162633D01*
X14026355Y19162632D01*
X14063580Y19039918D01*
X14076149Y18912300D01*
X14063580Y18784682D01*
X14038763Y18702873D01*
X14026355Y18661967D01*
X13972819Y18561809D01*
X13965905Y18548874D01*
X13884553Y18449747D01*
X13785426Y18368395D01*
X13785424Y18368394D01*
X13672333Y18307945D01*
X13631427Y18295537D01*
X13549618Y18270720D01*
X13485855Y18264440D01*
X13453974Y18261300D01*
X12190026Y18261300D01*
X12158145Y18264440D01*
X12094382Y18270720D01*
X12012573Y18295537D01*
X11971667Y18307945D01*
X11858576Y18368394D01*
X11858574Y18368395D01*
X11759447Y18449747D01*
X11678095Y18548874D01*
X11671181Y18561809D01*
X11617645Y18661967D01*
X11605237Y18702873D01*
X11580420Y18784682D01*
X11567851Y18912300D01*
X11580420Y19039918D01*
X11617645Y19162632D01*
X11617645Y19162633D01*
X11678094Y19275724D01*
X11678095Y19275726D01*
X11759447Y19374853D01*
X11858574Y19456205D01*
X11871509Y19463119D01*
X11971667Y19516655D01*
X12012573Y19529063D01*
X12094382Y19553880D01*
X12158145Y19560160D01*
X12190026Y19563300D01*
X13453974Y19563300D01*
X13485855Y19560160D01*
X13485855Y19560160D01*
G37*
G36*
X2221000Y18760300D02*
X319000Y18760300D01*
X319000Y19862300D01*
X2221000Y19862300D01*
X2221000Y18760300D01*
X2221000Y18760300D01*
G37*
G36*
X2221000Y21260300D02*
X319000Y21260300D01*
X319000Y22362300D01*
X2221000Y22362300D01*
X2221000Y21260300D01*
X2221000Y21260300D01*
G37*
G36*
X1571000Y22962300D02*
X969000Y22962300D01*
X969000Y23664300D01*
X1571000Y23664300D01*
X1571000Y22962300D01*
X1571000Y22962300D01*
G37*
G36*
X1571000Y24062300D02*
X969000Y24062300D01*
X969000Y24764300D01*
X1571000Y24764300D01*
X1571000Y24062300D01*
X1571000Y24062300D01*
G37*
M02*
