G04 #@! TF.GenerationSoftware,KiCad,Pcbnew,5.0.1*
G04 #@! TF.CreationDate,2018-12-09T07:22:16-08:00*
G04 #@! TF.ProjectId,pmod-samd21-usbu,706D6F642D73616D6432312D75736275,rev?*
G04 #@! TF.SameCoordinates,PX8822960PY9c3a754*
G04 #@! TF.FileFunction,Soldermask,Bot*
G04 #@! TF.FilePolarity,Negative*
%FSLAX46Y46*%
G04 Gerber Fmt 4.6, Leading zero omitted, Abs format (unit mm)*
G04 Created by KiCad (PCBNEW 5.0.1) date Sun 09 Dec 2018 07:22:16 AM PST*
%MOMM*%
%LPD*%
G01*
G04 APERTURE LIST*
%ADD10C,0.100000*%
G04 APERTURE END LIST*
D10*
G36*
X5273000Y2176300D02*
X4771000Y2176300D01*
X4771000Y2878300D01*
X5273000Y2878300D01*
X5273000Y2176300D01*
X5273000Y2176300D01*
G37*
G36*
X4373000Y2176300D02*
X3871000Y2176300D01*
X3871000Y2878300D01*
X4373000Y2878300D01*
X4373000Y2176300D01*
X4373000Y2176300D01*
G37*
G36*
X2562000Y2936300D02*
X2010000Y2936300D01*
X2010000Y4538300D01*
X2562000Y4538300D01*
X2562000Y2936300D01*
X2562000Y2936300D01*
G37*
G36*
X6203000Y4216300D02*
X3921000Y4216300D01*
X3921000Y5918300D01*
X6203000Y5918300D01*
X6203000Y4216300D01*
X6203000Y4216300D01*
G37*
G36*
X15383000Y4216300D02*
X13101000Y4216300D01*
X13101000Y5918300D01*
X15383000Y5918300D01*
X15383000Y4216300D01*
X15383000Y4216300D01*
G37*
G36*
X1912000Y5596300D02*
X1360000Y5596300D01*
X1360000Y7198300D01*
X1912000Y7198300D01*
X1912000Y5596300D01*
X1912000Y5596300D01*
G37*
G36*
X3212000Y5596300D02*
X2660000Y5596300D01*
X2660000Y7198300D01*
X3212000Y7198300D01*
X3212000Y5596300D01*
X3212000Y5596300D01*
G37*
G36*
X12696023Y13181622D02*
X12430858Y12916457D01*
X12415312Y12897515D01*
X12403761Y12875904D01*
X12396648Y12852455D01*
X12395268Y12838441D01*
X8543891Y8987064D01*
X7446461Y10084494D01*
X11247160Y13885193D01*
X11262706Y13904135D01*
X11274257Y13925746D01*
X11281370Y13949195D01*
X11282750Y13963209D01*
X11598593Y14279052D01*
X12696023Y13181622D01*
X12696023Y13181622D01*
G37*
G36*
X6777539Y10084494D02*
X5680109Y8987064D01*
X1506764Y13160409D01*
X2604194Y14257839D01*
X6777539Y10084494D01*
X6777539Y10084494D01*
G37*
G36*
X2881943Y9469036D02*
X2456264Y9043357D01*
X1959875Y9539746D01*
X2385554Y9965425D01*
X2881943Y9469036D01*
X2881943Y9469036D01*
G37*
G36*
X4151943Y9723036D02*
X3726264Y9297357D01*
X3229875Y9793746D01*
X3655554Y10219425D01*
X4151943Y9723036D01*
X4151943Y9723036D01*
G37*
G36*
X2104125Y10246854D02*
X1678446Y9821175D01*
X1182057Y10317564D01*
X1607736Y10743243D01*
X2104125Y10246854D01*
X2104125Y10246854D01*
G37*
G36*
X3374125Y10500854D02*
X2948446Y10075175D01*
X2452057Y10571564D01*
X2877736Y10997243D01*
X3374125Y10500854D01*
X3374125Y10500854D01*
G37*
G36*
X16680585Y11789330D02*
X16831572Y11743528D01*
X16970725Y11669150D01*
X17092693Y11569053D01*
X17192790Y11447085D01*
X17267168Y11307932D01*
X17312970Y11156945D01*
X17328435Y10999920D01*
X17312970Y10842895D01*
X17267168Y10691908D01*
X17192790Y10552755D01*
X17092693Y10430787D01*
X16970725Y10330690D01*
X16831572Y10256312D01*
X16680585Y10210510D01*
X16562906Y10198920D01*
X15784214Y10198920D01*
X15666535Y10210510D01*
X15515548Y10256312D01*
X15376395Y10330690D01*
X15254427Y10430787D01*
X15154330Y10552755D01*
X15079952Y10691908D01*
X15034150Y10842895D01*
X15018685Y10999920D01*
X15034150Y11156945D01*
X15079952Y11307932D01*
X15154330Y11447085D01*
X15254427Y11569053D01*
X15376395Y11669150D01*
X15515548Y11743528D01*
X15666535Y11789330D01*
X15784214Y11800920D01*
X16562906Y11800920D01*
X16680585Y11789330D01*
X16680585Y11789330D01*
G37*
G36*
X13210585Y11789330D02*
X13361572Y11743528D01*
X13500725Y11669150D01*
X13622693Y11569053D01*
X13722790Y11447085D01*
X13797168Y11307932D01*
X13842970Y11156945D01*
X13858435Y10999920D01*
X13842970Y10842895D01*
X13797168Y10691908D01*
X13722790Y10552755D01*
X13622693Y10430787D01*
X13500725Y10330690D01*
X13361572Y10256312D01*
X13210585Y10210510D01*
X13092906Y10198920D01*
X12314214Y10198920D01*
X12196535Y10210510D01*
X12045548Y10256312D01*
X11906395Y10330690D01*
X11784427Y10430787D01*
X11684330Y10552755D01*
X11609952Y10691908D01*
X11564150Y10842895D01*
X11548685Y10999920D01*
X11564150Y11156945D01*
X11609952Y11307932D01*
X11684330Y11447085D01*
X11784427Y11569053D01*
X11906395Y11669150D01*
X12045548Y11743528D01*
X12196535Y11789330D01*
X12314214Y11800920D01*
X13092906Y11800920D01*
X13210585Y11789330D01*
X13210585Y11789330D01*
G37*
G36*
X14118651Y12913392D02*
X14177980Y12888817D01*
X14231374Y12853140D01*
X14276780Y12807734D01*
X14312457Y12754340D01*
X14337032Y12695011D01*
X14349560Y12632028D01*
X14349560Y12567812D01*
X14337032Y12504829D01*
X14312457Y12445500D01*
X14276780Y12392106D01*
X14231374Y12346700D01*
X14177980Y12311023D01*
X14118651Y12286448D01*
X14055668Y12273920D01*
X13991452Y12273920D01*
X13928469Y12286448D01*
X13869140Y12311023D01*
X13815746Y12346700D01*
X13770340Y12392106D01*
X13734663Y12445500D01*
X13710088Y12504829D01*
X13697560Y12567812D01*
X13697560Y12632028D01*
X13710088Y12695011D01*
X13734663Y12754340D01*
X13770340Y12807734D01*
X13815746Y12853140D01*
X13869140Y12888817D01*
X13928469Y12913392D01*
X13991452Y12925920D01*
X14055668Y12925920D01*
X14118651Y12913392D01*
X14118651Y12913392D01*
G37*
G36*
X16743643Y15489519D02*
X16889415Y15429138D01*
X17020611Y15341476D01*
X17132176Y15229911D01*
X17219838Y15098715D01*
X17280219Y14952943D01*
X17311000Y14798193D01*
X17311000Y14640407D01*
X17280219Y14485657D01*
X17219838Y14339885D01*
X17132176Y14208689D01*
X17020611Y14097124D01*
X16889415Y14009462D01*
X16743643Y13949081D01*
X16588893Y13918300D01*
X16431107Y13918300D01*
X16276357Y13949081D01*
X16130585Y14009462D01*
X15999389Y14097124D01*
X15887824Y14208689D01*
X15800162Y14339885D01*
X15739781Y14485657D01*
X15709000Y14640407D01*
X15709000Y14798193D01*
X15739781Y14952943D01*
X15800162Y15098715D01*
X15887824Y15229911D01*
X15999389Y15341476D01*
X16130585Y15429138D01*
X16276357Y15489519D01*
X16431107Y15520300D01*
X16588893Y15520300D01*
X16743643Y15489519D01*
X16743643Y15489519D01*
G37*
G36*
X6777539Y19100106D02*
X2604194Y14926761D01*
X1506764Y16024191D01*
X5680109Y20197536D01*
X6777539Y19100106D01*
X6777539Y19100106D01*
G37*
G36*
X12717236Y16024191D02*
X11619806Y14926761D01*
X7446461Y19100106D01*
X8543891Y20197536D01*
X12717236Y16024191D01*
X12717236Y16024191D01*
G37*
G36*
X14118651Y16913392D02*
X14177980Y16888817D01*
X14231374Y16853140D01*
X14276780Y16807734D01*
X14312457Y16754340D01*
X14337032Y16695011D01*
X14349560Y16632028D01*
X14349560Y16567812D01*
X14337032Y16504829D01*
X14312457Y16445500D01*
X14276780Y16392106D01*
X14231374Y16346700D01*
X14177980Y16311023D01*
X14118651Y16286448D01*
X14055668Y16273920D01*
X13991452Y16273920D01*
X13928469Y16286448D01*
X13869140Y16311023D01*
X13815746Y16346700D01*
X13770340Y16392106D01*
X13734663Y16445500D01*
X13710088Y16504829D01*
X13697560Y16567812D01*
X13697560Y16632028D01*
X13710088Y16695011D01*
X13734663Y16754340D01*
X13770340Y16807734D01*
X13815746Y16853140D01*
X13869140Y16888817D01*
X13928469Y16913392D01*
X13991452Y16925920D01*
X14055668Y16925920D01*
X14118651Y16913392D01*
X14118651Y16913392D01*
G37*
G36*
X1063000Y16358300D02*
X461000Y16358300D01*
X461000Y17060300D01*
X1063000Y17060300D01*
X1063000Y16358300D01*
X1063000Y16358300D01*
G37*
G36*
X16680585Y18989330D02*
X16831572Y18943528D01*
X16970725Y18869150D01*
X17092693Y18769053D01*
X17192790Y18647085D01*
X17267168Y18507932D01*
X17312970Y18356945D01*
X17328435Y18199920D01*
X17312970Y18042895D01*
X17267168Y17891908D01*
X17192790Y17752755D01*
X17092693Y17630787D01*
X16970725Y17530690D01*
X16831572Y17456312D01*
X16680585Y17410510D01*
X16562906Y17398920D01*
X15784214Y17398920D01*
X15666535Y17410510D01*
X15515548Y17456312D01*
X15376395Y17530690D01*
X15254427Y17630787D01*
X15154330Y17752755D01*
X15079952Y17891908D01*
X15034150Y18042895D01*
X15018685Y18199920D01*
X15034150Y18356945D01*
X15079952Y18507932D01*
X15154330Y18647085D01*
X15254427Y18769053D01*
X15376395Y18869150D01*
X15515548Y18943528D01*
X15666535Y18989330D01*
X15784214Y19000920D01*
X16562906Y19000920D01*
X16680585Y18989330D01*
X16680585Y18989330D01*
G37*
G36*
X13210585Y18989330D02*
X13361572Y18943528D01*
X13500725Y18869150D01*
X13622693Y18769053D01*
X13722790Y18647085D01*
X13797168Y18507932D01*
X13842970Y18356945D01*
X13858435Y18199920D01*
X13842970Y18042895D01*
X13797168Y17891908D01*
X13722790Y17752755D01*
X13622693Y17630787D01*
X13500725Y17530690D01*
X13361572Y17456312D01*
X13210585Y17410510D01*
X13092906Y17398920D01*
X12314214Y17398920D01*
X12196535Y17410510D01*
X12045548Y17456312D01*
X11906395Y17530690D01*
X11784427Y17630787D01*
X11684330Y17752755D01*
X11609952Y17891908D01*
X11564150Y18042895D01*
X11548685Y18199920D01*
X11564150Y18356945D01*
X11609952Y18507932D01*
X11684330Y18647085D01*
X11784427Y18769053D01*
X11906395Y18869150D01*
X12045548Y18943528D01*
X12196535Y18989330D01*
X12314214Y19000920D01*
X13092906Y19000920D01*
X13210585Y18989330D01*
X13210585Y18989330D01*
G37*
G36*
X1063000Y17458300D02*
X461000Y17458300D01*
X461000Y18160300D01*
X1063000Y18160300D01*
X1063000Y17458300D01*
X1063000Y17458300D01*
G37*
G36*
X2221000Y18760300D02*
X319000Y18760300D01*
X319000Y19862300D01*
X2221000Y19862300D01*
X2221000Y18760300D01*
X2221000Y18760300D01*
G37*
G36*
X2221000Y21260300D02*
X319000Y21260300D01*
X319000Y22362300D01*
X2221000Y22362300D01*
X2221000Y21260300D01*
X2221000Y21260300D01*
G37*
G36*
X1571000Y22962300D02*
X969000Y22962300D01*
X969000Y23664300D01*
X1571000Y23664300D01*
X1571000Y22962300D01*
X1571000Y22962300D01*
G37*
G36*
X1571000Y24062300D02*
X969000Y24062300D01*
X969000Y24764300D01*
X1571000Y24764300D01*
X1571000Y24062300D01*
X1571000Y24062300D01*
G37*
M02*
