G04 #@! TF.GenerationSoftware,KiCad,Pcbnew,5.0.1*
G04 #@! TF.CreationDate,2018-12-05T07:05:07-08:00*
G04 #@! TF.ProjectId,pmod-samd21,706D6F642D73616D6432312E6B696361,rev?*
G04 #@! TF.SameCoordinates,Original*
G04 #@! TF.FileFunction,Legend,Top*
G04 #@! TF.FilePolarity,Positive*
%FSLAX46Y46*%
G04 Gerber Fmt 4.6, Leading zero omitted, Abs format (unit mm)*
G04 Created by KiCad (PCBNEW 5.0.1) date Wed 05 Dec 2018 07:05:07 AM PST*
%MOMM*%
%LPD*%
G01*
G04 APERTURE LIST*
%ADD10C,0.120000*%
%ADD11C,0.150000*%
%ADD12C,1.000000*%
%ADD13C,0.254000*%
%ADD14O,1.902000X1.302000*%
%ADD15O,2.502000X1.302000*%
%ADD16C,0.752000*%
%ADD17R,1.852000X0.402000*%
%ADD18R,2.602000X1.002000*%
%ADD19R,1.118000X2.642000*%
%ADD20R,0.702000X0.602000*%
%ADD21R,0.702000X0.502000*%
%ADD22R,0.802000X0.702000*%
G04 APERTURE END LIST*
D10*
G04 #@! TO.C,J3*
X154455000Y-153695000D02*
X154455000Y-144755000D01*
X154455000Y-144755000D02*
X162405000Y-144755000D01*
X162405000Y-144755000D02*
X162405000Y-153695000D01*
X154455000Y-153695000D02*
X162405000Y-153695000D01*
D11*
X162530000Y-144625000D02*
X162530000Y-153825000D01*
X162530000Y-153825000D02*
X160580000Y-153825000D01*
X158930000Y-153825000D02*
X156630000Y-153825000D01*
X162530000Y-144625000D02*
X160580000Y-144625000D01*
X158930000Y-144625000D02*
X156630000Y-144625000D01*
D12*
G04 #@! TO.C,JP2*
X150060000Y-145425000D02*
G75*
G03X150060000Y-145425000I-200000J0D01*
G01*
G04 #@! TO.C,J2*
X159450000Y-156150000D02*
G75*
G03X159450000Y-156150000I-200000J0D01*
G01*
D13*
X151650000Y-165100000D02*
X150380000Y-163830000D01*
X152920000Y-163830000D02*
X151650000Y-165100000D01*
X151650000Y-165100000D02*
X142760000Y-165100000D01*
X160540000Y-165100000D02*
X151650000Y-165100000D01*
G04 #@! TO.C,J1*
X142760000Y-133350000D02*
X151650000Y-133350000D01*
X151650000Y-133350000D02*
X160540000Y-133350000D01*
X150380000Y-134620000D02*
X151650000Y-133350000D01*
X151650000Y-133350000D02*
X152920000Y-134620000D01*
D12*
X159450000Y-142300000D02*
G75*
G03X159450000Y-142300000I-200000J0D01*
G01*
D10*
G04 #@! TO.C,C3*
X147316000Y-144564000D02*
X146816000Y-144564000D01*
X146816000Y-145504000D02*
X147316000Y-145504000D01*
G04 #@! TO.C,C4*
X150635305Y-144780608D02*
X151135305Y-144780608D01*
X151135305Y-143840608D02*
X150635305Y-143840608D01*
G04 #@! TO.C,C9*
X150160000Y-154140000D02*
X150660000Y-154140000D01*
X150660000Y-153200000D02*
X150160000Y-153200000D01*
G04 #@! TO.C,R3*
X144040000Y-161032000D02*
X144040000Y-160532000D01*
X142980000Y-160532000D02*
X142980000Y-161032000D01*
G04 #@! TO.C,D1*
X143960000Y-157292000D02*
X143060000Y-157292000D01*
X143060000Y-157292000D02*
X143060000Y-158742000D01*
X143960000Y-157292000D02*
X143960000Y-158742000D01*
G04 #@! TO.C,J3*
D11*
X151982380Y-149558333D02*
X152696666Y-149558333D01*
X152839523Y-149605952D01*
X152934761Y-149701190D01*
X152982380Y-149844047D01*
X152982380Y-149939285D01*
X151982380Y-149177380D02*
X151982380Y-148558333D01*
X152363333Y-148891666D01*
X152363333Y-148748809D01*
X152410952Y-148653571D01*
X152458571Y-148605952D01*
X152553809Y-148558333D01*
X152791904Y-148558333D01*
X152887142Y-148605952D01*
X152934761Y-148653571D01*
X152982380Y-148748809D01*
X152982380Y-149034523D01*
X152934761Y-149129761D01*
X152887142Y-149177380D01*
G04 #@! TO.C,JP2*
X142962380Y-150058333D02*
X143676666Y-150058333D01*
X143819523Y-150105952D01*
X143914761Y-150201190D01*
X143962380Y-150344047D01*
X143962380Y-150439285D01*
X143962380Y-149582142D02*
X142962380Y-149582142D01*
X142962380Y-149201190D01*
X143010000Y-149105952D01*
X143057619Y-149058333D01*
X143152857Y-149010714D01*
X143295714Y-149010714D01*
X143390952Y-149058333D01*
X143438571Y-149105952D01*
X143486190Y-149201190D01*
X143486190Y-149582142D01*
X143057619Y-148629761D02*
X143010000Y-148582142D01*
X142962380Y-148486904D01*
X142962380Y-148248809D01*
X143010000Y-148153571D01*
X143057619Y-148105952D01*
X143152857Y-148058333D01*
X143248095Y-148058333D01*
X143390952Y-148105952D01*
X143962380Y-148677380D01*
X143962380Y-148058333D01*
G04 #@! TO.C,J2*
X151316666Y-158202380D02*
X151316666Y-158916666D01*
X151269047Y-159059523D01*
X151173809Y-159154761D01*
X151030952Y-159202380D01*
X150935714Y-159202380D01*
X151745238Y-158297619D02*
X151792857Y-158250000D01*
X151888095Y-158202380D01*
X152126190Y-158202380D01*
X152221428Y-158250000D01*
X152269047Y-158297619D01*
X152316666Y-158392857D01*
X152316666Y-158488095D01*
X152269047Y-158630952D01*
X151697619Y-159202380D01*
X152316666Y-159202380D01*
G04 #@! TO.C,J1*
X151316666Y-139152380D02*
X151316666Y-139866666D01*
X151269047Y-140009523D01*
X151173809Y-140104761D01*
X151030952Y-140152380D01*
X150935714Y-140152380D01*
X152316666Y-140152380D02*
X151745238Y-140152380D01*
X152030952Y-140152380D02*
X152030952Y-139152380D01*
X151935714Y-139295238D01*
X151840476Y-139390476D01*
X151745238Y-139438095D01*
G04 #@! TO.C,C3*
X144867333Y-145518142D02*
X144819714Y-145565761D01*
X144676857Y-145613380D01*
X144581619Y-145613380D01*
X144438761Y-145565761D01*
X144343523Y-145470523D01*
X144295904Y-145375285D01*
X144248285Y-145184809D01*
X144248285Y-145041952D01*
X144295904Y-144851476D01*
X144343523Y-144756238D01*
X144438761Y-144661000D01*
X144581619Y-144613380D01*
X144676857Y-144613380D01*
X144819714Y-144661000D01*
X144867333Y-144708619D01*
X145200666Y-144613380D02*
X145819714Y-144613380D01*
X145486380Y-144994333D01*
X145629238Y-144994333D01*
X145724476Y-145041952D01*
X145772095Y-145089571D01*
X145819714Y-145184809D01*
X145819714Y-145422904D01*
X145772095Y-145518142D01*
X145724476Y-145565761D01*
X145629238Y-145613380D01*
X145343523Y-145613380D01*
X145248285Y-145565761D01*
X145200666Y-145518142D01*
G04 #@! TO.C,C4*
X151852333Y-145772142D02*
X151804714Y-145819761D01*
X151661857Y-145867380D01*
X151566619Y-145867380D01*
X151423761Y-145819761D01*
X151328523Y-145724523D01*
X151280904Y-145629285D01*
X151233285Y-145438809D01*
X151233285Y-145295952D01*
X151280904Y-145105476D01*
X151328523Y-145010238D01*
X151423761Y-144915000D01*
X151566619Y-144867380D01*
X151661857Y-144867380D01*
X151804714Y-144915000D01*
X151852333Y-144962619D01*
X152709476Y-145200714D02*
X152709476Y-145867380D01*
X152471380Y-144819761D02*
X152233285Y-145534047D01*
X152852333Y-145534047D01*
G04 #@! TO.C,C9*
X148169333Y-154027142D02*
X148121714Y-154074761D01*
X147978857Y-154122380D01*
X147883619Y-154122380D01*
X147740761Y-154074761D01*
X147645523Y-153979523D01*
X147597904Y-153884285D01*
X147550285Y-153693809D01*
X147550285Y-153550952D01*
X147597904Y-153360476D01*
X147645523Y-153265238D01*
X147740761Y-153170000D01*
X147883619Y-153122380D01*
X147978857Y-153122380D01*
X148121714Y-153170000D01*
X148169333Y-153217619D01*
X148645523Y-154122380D02*
X148836000Y-154122380D01*
X148931238Y-154074761D01*
X148978857Y-154027142D01*
X149074095Y-153884285D01*
X149121714Y-153693809D01*
X149121714Y-153312857D01*
X149074095Y-153217619D01*
X149026476Y-153170000D01*
X148931238Y-153122380D01*
X148740761Y-153122380D01*
X148645523Y-153170000D01*
X148597904Y-153217619D01*
X148550285Y-153312857D01*
X148550285Y-153550952D01*
X148597904Y-153646190D01*
X148645523Y-153693809D01*
X148740761Y-153741428D01*
X148931238Y-153741428D01*
X149026476Y-153693809D01*
X149074095Y-153646190D01*
X149121714Y-153550952D01*
G04 #@! TO.C,R3*
X144216380Y-162980666D02*
X143740190Y-163314000D01*
X144216380Y-163552095D02*
X143216380Y-163552095D01*
X143216380Y-163171142D01*
X143264000Y-163075904D01*
X143311619Y-163028285D01*
X143406857Y-162980666D01*
X143549714Y-162980666D01*
X143644952Y-163028285D01*
X143692571Y-163075904D01*
X143740190Y-163171142D01*
X143740190Y-163552095D01*
X143216380Y-162647333D02*
X143216380Y-162028285D01*
X143597333Y-162361619D01*
X143597333Y-162218761D01*
X143644952Y-162123523D01*
X143692571Y-162075904D01*
X143787809Y-162028285D01*
X144025904Y-162028285D01*
X144121142Y-162075904D01*
X144168761Y-162123523D01*
X144216380Y-162218761D01*
X144216380Y-162504476D01*
X144168761Y-162599714D01*
X144121142Y-162647333D01*
G04 #@! TO.C,D1*
X143962380Y-156440095D02*
X142962380Y-156440095D01*
X142962380Y-156202000D01*
X143010000Y-156059142D01*
X143105238Y-155963904D01*
X143200476Y-155916285D01*
X143390952Y-155868666D01*
X143533809Y-155868666D01*
X143724285Y-155916285D01*
X143819523Y-155963904D01*
X143914761Y-156059142D01*
X143962380Y-156202000D01*
X143962380Y-156440095D01*
X143962380Y-154916285D02*
X143962380Y-155487714D01*
X143962380Y-155202000D02*
X142962380Y-155202000D01*
X143105238Y-155297238D01*
X143200476Y-155392476D01*
X143248095Y-155487714D01*
G04 #@! TD*
%LPC*%
D14*
G04 #@! TO.C,J3*
X159750000Y-153545000D03*
X159750000Y-144905000D03*
D15*
X155570000Y-153545000D03*
X155570000Y-144905000D03*
D16*
X156070000Y-152115000D03*
X156070000Y-146335000D03*
D17*
X154730000Y-148975000D03*
X154730000Y-148475000D03*
X154730000Y-147975000D03*
X154730000Y-147475000D03*
X154730000Y-149975000D03*
X154730000Y-150975000D03*
X154730000Y-150475000D03*
X154730000Y-149475000D03*
X154730000Y-152575000D03*
X154730000Y-152275000D03*
X154730000Y-151775000D03*
X154730000Y-151475000D03*
X154730000Y-146675000D03*
X154730000Y-146975000D03*
X154730000Y-146175000D03*
X154730000Y-145875000D03*
G04 #@! TD*
D18*
G04 #@! TO.C,JP2*
X146050000Y-151765000D03*
X149860000Y-151765000D03*
X146050000Y-150495000D03*
X149860000Y-150495000D03*
X146050000Y-149225000D03*
X149860000Y-149225000D03*
X146050000Y-147955000D03*
X149860000Y-147955000D03*
X146050000Y-146685000D03*
X149860000Y-146685000D03*
G04 #@! TD*
D19*
G04 #@! TO.C,J2*
X145300000Y-161290000D03*
X145300000Y-156210000D03*
X147840000Y-161290000D03*
X147840000Y-156210000D03*
X150380000Y-161290000D03*
X150380000Y-156210000D03*
X152920000Y-161290000D03*
X152920000Y-156210000D03*
X155460000Y-161290000D03*
X155460000Y-156210000D03*
X158000000Y-161290000D03*
X158000000Y-156210000D03*
G04 #@! TD*
G04 #@! TO.C,J1*
X145300000Y-142240000D03*
X145300000Y-137160000D03*
X147840000Y-142240000D03*
X147840000Y-137160000D03*
X150380000Y-142240000D03*
X150380000Y-137160000D03*
X152920000Y-142240000D03*
X152920000Y-137160000D03*
X155460000Y-142240000D03*
X155460000Y-137160000D03*
X158000000Y-142240000D03*
X158000000Y-137160000D03*
G04 #@! TD*
D20*
G04 #@! TO.C,C3*
X146516000Y-145034000D03*
X147616000Y-145034000D03*
G04 #@! TD*
G04 #@! TO.C,C4*
X151435305Y-144310608D03*
X150335305Y-144310608D03*
G04 #@! TD*
G04 #@! TO.C,C9*
X150960000Y-153670000D03*
X149860000Y-153670000D03*
G04 #@! TD*
D21*
G04 #@! TO.C,R3*
X143510000Y-160332000D03*
X143510000Y-161232000D03*
G04 #@! TD*
D22*
G04 #@! TO.C,D1*
X143510000Y-158792000D03*
X143510000Y-157692000D03*
G04 #@! TD*
M02*
