G04 #@! TF.GenerationSoftware,KiCad,Pcbnew,5.0.1*
G04 #@! TF.CreationDate,2018-12-09T07:22:16-08:00*
G04 #@! TF.ProjectId,pmod-samd21-usbu,706D6F642D73616D6432312D75736275,rev?*
G04 #@! TF.SameCoordinates,PX8822960PY9c3a754*
G04 #@! TF.FileFunction,Legend,Bot*
G04 #@! TF.FilePolarity,Positive*
%FSLAX46Y46*%
G04 Gerber Fmt 4.6, Leading zero omitted, Abs format (unit mm)*
G04 Created by KiCad (PCBNEW 5.0.1) date Sun 09 Dec 2018 07:22:16 AM PST*
%MOMM*%
%LPD*%
G01*
G04 APERTURE LIST*
%ADD10C,0.300000*%
%ADD11C,0.170000*%
%ADD12C,0.400000*%
%ADD13C,0.120000*%
%ADD14C,0.150000*%
%ADD15C,0.652000*%
%ADD16O,2.302000X1.602000*%
%ADD17C,0.402000*%
%ADD18C,0.100000*%
%ADD19R,1.902000X1.102000*%
%ADD20C,0.602000*%
%ADD21R,0.602000X0.702000*%
%ADD22R,0.552000X1.602000*%
%ADD23R,0.502000X0.702000*%
%ADD24R,2.282000X1.702000*%
%ADD25C,1.602000*%
G04 APERTURE END LIST*
D10*
X16626042Y21965529D02*
X16626042Y23465529D01*
X16268900Y23465529D01*
X16054614Y23394100D01*
X15911757Y23251243D01*
X15840328Y23108386D01*
X15768900Y22822672D01*
X15768900Y22608386D01*
X15840328Y22322672D01*
X15911757Y22179815D01*
X16054614Y22036958D01*
X16268900Y21965529D01*
X16626042Y21965529D01*
X14554614Y22036958D02*
X14697471Y21965529D01*
X14983185Y21965529D01*
X15126042Y22036958D01*
X15197471Y22179815D01*
X15197471Y22751243D01*
X15126042Y22894100D01*
X14983185Y22965529D01*
X14697471Y22965529D01*
X14554614Y22894100D01*
X14483185Y22751243D01*
X14483185Y22608386D01*
X15197471Y22465529D01*
X13197471Y22036958D02*
X13340328Y21965529D01*
X13626042Y21965529D01*
X13768900Y22036958D01*
X13840328Y22108386D01*
X13911757Y22251243D01*
X13911757Y22679815D01*
X13840328Y22822672D01*
X13768900Y22894100D01*
X13626042Y22965529D01*
X13340328Y22965529D01*
X13197471Y22894100D01*
X11483185Y23322672D02*
X11411757Y23394100D01*
X11268900Y23465529D01*
X10911757Y23465529D01*
X10768900Y23394100D01*
X10697471Y23322672D01*
X10626042Y23179815D01*
X10626042Y23036958D01*
X10697471Y22822672D01*
X11554614Y21965529D01*
X10626042Y21965529D01*
X9697471Y23465529D02*
X9554614Y23465529D01*
X9411757Y23394100D01*
X9340328Y23322672D01*
X9268900Y23179815D01*
X9197471Y22894100D01*
X9197471Y22536958D01*
X9268900Y22251243D01*
X9340328Y22108386D01*
X9411757Y22036958D01*
X9554614Y21965529D01*
X9697471Y21965529D01*
X9840328Y22036958D01*
X9911757Y22108386D01*
X9983185Y22251243D01*
X10054614Y22536958D01*
X10054614Y22894100D01*
X9983185Y23179815D01*
X9911757Y23322672D01*
X9840328Y23394100D01*
X9697471Y23465529D01*
X7768900Y21965529D02*
X8626042Y21965529D01*
X8197471Y21965529D02*
X8197471Y23465529D01*
X8340328Y23251243D01*
X8483185Y23108386D01*
X8626042Y23036958D01*
X6911757Y22822672D02*
X7054614Y22894100D01*
X7126042Y22965529D01*
X7197471Y23108386D01*
X7197471Y23179815D01*
X7126042Y23322672D01*
X7054614Y23394100D01*
X6911757Y23465529D01*
X6626042Y23465529D01*
X6483185Y23394100D01*
X6411757Y23322672D01*
X6340328Y23179815D01*
X6340328Y23108386D01*
X6411757Y22965529D01*
X6483185Y22894100D01*
X6626042Y22822672D01*
X6911757Y22822672D01*
X7054614Y22751243D01*
X7126042Y22679815D01*
X7197471Y22536958D01*
X7197471Y22251243D01*
X7126042Y22108386D01*
X7054614Y22036958D01*
X6911757Y21965529D01*
X6626042Y21965529D01*
X6483185Y22036958D01*
X6411757Y22108386D01*
X6340328Y22251243D01*
X6340328Y22536958D01*
X6411757Y22679815D01*
X6483185Y22751243D01*
X6626042Y22822672D01*
X16470900Y27905829D02*
X16470900Y26405829D01*
X16470900Y27834400D02*
X16328042Y27905829D01*
X16042328Y27905829D01*
X15899471Y27834400D01*
X15828042Y27762972D01*
X15756614Y27620115D01*
X15756614Y27191543D01*
X15828042Y27048686D01*
X15899471Y26977258D01*
X16042328Y26905829D01*
X16328042Y26905829D01*
X16470900Y26977258D01*
X15113757Y26905829D02*
X15113757Y27905829D01*
X15113757Y27762972D02*
X15042328Y27834400D01*
X14899471Y27905829D01*
X14685185Y27905829D01*
X14542328Y27834400D01*
X14470900Y27691543D01*
X14470900Y26905829D01*
X14470900Y27691543D02*
X14399471Y27834400D01*
X14256614Y27905829D01*
X14042328Y27905829D01*
X13899471Y27834400D01*
X13828042Y27691543D01*
X13828042Y26905829D01*
X12899471Y26905829D02*
X13042328Y26977258D01*
X13113757Y27048686D01*
X13185185Y27191543D01*
X13185185Y27620115D01*
X13113757Y27762972D01*
X13042328Y27834400D01*
X12899471Y27905829D01*
X12685185Y27905829D01*
X12542328Y27834400D01*
X12470900Y27762972D01*
X12399471Y27620115D01*
X12399471Y27191543D01*
X12470900Y27048686D01*
X12542328Y26977258D01*
X12685185Y26905829D01*
X12899471Y26905829D01*
X11113757Y26905829D02*
X11113757Y28405829D01*
X11113757Y26977258D02*
X11256614Y26905829D01*
X11542328Y26905829D01*
X11685185Y26977258D01*
X11756614Y27048686D01*
X11828042Y27191543D01*
X11828042Y27620115D01*
X11756614Y27762972D01*
X11685185Y27834400D01*
X11542328Y27905829D01*
X11256614Y27905829D01*
X11113757Y27834400D01*
X10399471Y27477258D02*
X9256614Y27477258D01*
X8613757Y26977258D02*
X8470900Y26905829D01*
X8185185Y26905829D01*
X8042328Y26977258D01*
X7970900Y27120115D01*
X7970900Y27191543D01*
X8042328Y27334400D01*
X8185185Y27405829D01*
X8399471Y27405829D01*
X8542328Y27477258D01*
X8613757Y27620115D01*
X8613757Y27691543D01*
X8542328Y27834400D01*
X8399471Y27905829D01*
X8185185Y27905829D01*
X8042328Y27834400D01*
X6685185Y26905829D02*
X6685185Y27691543D01*
X6756614Y27834400D01*
X6899471Y27905829D01*
X7185185Y27905829D01*
X7328042Y27834400D01*
X6685185Y26977258D02*
X6828042Y26905829D01*
X7185185Y26905829D01*
X7328042Y26977258D01*
X7399471Y27120115D01*
X7399471Y27262972D01*
X7328042Y27405829D01*
X7185185Y27477258D01*
X6828042Y27477258D01*
X6685185Y27548686D01*
X5970900Y26905829D02*
X5970900Y27905829D01*
X5970900Y27762972D02*
X5899471Y27834400D01*
X5756614Y27905829D01*
X5542328Y27905829D01*
X5399471Y27834400D01*
X5328042Y27691543D01*
X5328042Y26905829D01*
X5328042Y27691543D02*
X5256614Y27834400D01*
X5113757Y27905829D01*
X4899471Y27905829D01*
X4756614Y27834400D01*
X4685185Y27691543D01*
X4685185Y26905829D01*
X3328042Y26905829D02*
X3328042Y28405829D01*
X3328042Y26977258D02*
X3470900Y26905829D01*
X3756614Y26905829D01*
X3899471Y26977258D01*
X3970900Y27048686D01*
X4042328Y27191543D01*
X4042328Y27620115D01*
X3970900Y27762972D01*
X3899471Y27834400D01*
X3756614Y27905829D01*
X3470900Y27905829D01*
X3328042Y27834400D01*
X2685185Y28262972D02*
X2613757Y28334400D01*
X2470900Y28405829D01*
X2113757Y28405829D01*
X1970900Y28334400D01*
X1899471Y28262972D01*
X1828042Y28120115D01*
X1828042Y27977258D01*
X1899471Y27762972D01*
X2756614Y26905829D01*
X1828042Y26905829D01*
X399471Y26905829D02*
X1256614Y26905829D01*
X828042Y26905829D02*
X828042Y28405829D01*
X970900Y28191543D01*
X1113757Y28048686D01*
X1256614Y27977258D01*
X14528714Y26026229D02*
X13957285Y26026229D01*
X14314428Y26526229D02*
X14314428Y25240515D01*
X14243000Y25097658D01*
X14100142Y25026229D01*
X13957285Y25026229D01*
X13243000Y25026229D02*
X13385857Y25097658D01*
X13457285Y25169086D01*
X13528714Y25311943D01*
X13528714Y25740515D01*
X13457285Y25883372D01*
X13385857Y25954800D01*
X13243000Y26026229D01*
X13028714Y26026229D01*
X12885857Y25954800D01*
X12814428Y25883372D01*
X12743000Y25740515D01*
X12743000Y25311943D01*
X12814428Y25169086D01*
X12885857Y25097658D01*
X13028714Y25026229D01*
X13243000Y25026229D01*
X12100142Y25026229D02*
X12100142Y26026229D01*
X12100142Y25883372D02*
X12028714Y25954800D01*
X11885857Y26026229D01*
X11671571Y26026229D01*
X11528714Y25954800D01*
X11457285Y25811943D01*
X11457285Y25026229D01*
X11457285Y25811943D02*
X11385857Y25954800D01*
X11243000Y26026229D01*
X11028714Y26026229D01*
X10885857Y25954800D01*
X10814428Y25811943D01*
X10814428Y25026229D01*
X9171571Y25740515D02*
X9243000Y25811943D01*
X9385857Y25883372D01*
X9528714Y25883372D01*
X9671571Y25811943D01*
X9743000Y25740515D01*
X9814428Y25597658D01*
X9814428Y25454800D01*
X9743000Y25311943D01*
X9671571Y25240515D01*
X9528714Y25169086D01*
X9385857Y25169086D01*
X9243000Y25240515D01*
X9171571Y25311943D01*
X9171571Y25883372D02*
X9171571Y25311943D01*
X9100142Y25240515D01*
X9028714Y25240515D01*
X8885857Y25311943D01*
X8814428Y25454800D01*
X8814428Y25811943D01*
X8957285Y26026229D01*
X9171571Y26169086D01*
X9457285Y26240515D01*
X9743000Y26169086D01*
X9957285Y26026229D01*
X10100142Y25811943D01*
X10171571Y25526229D01*
X10100142Y25240515D01*
X9957285Y25026229D01*
X9743000Y24883372D01*
X9457285Y24811943D01*
X9171571Y24883372D01*
X8957285Y25026229D01*
X8385857Y26026229D02*
X7814428Y26026229D01*
X8171571Y26526229D02*
X8171571Y25240515D01*
X8100142Y25097658D01*
X7957285Y25026229D01*
X7814428Y25026229D01*
X7100142Y25026229D02*
X7243000Y25097658D01*
X7314428Y25169086D01*
X7385857Y25311943D01*
X7385857Y25740515D01*
X7314428Y25883372D01*
X7243000Y25954800D01*
X7100142Y26026229D01*
X6885857Y26026229D01*
X6743000Y25954800D01*
X6671571Y25883372D01*
X6600142Y25740515D01*
X6600142Y25311943D01*
X6671571Y25169086D01*
X6743000Y25097658D01*
X6885857Y25026229D01*
X7100142Y25026229D01*
X5957285Y25026229D02*
X5957285Y26026229D01*
X5957285Y25883372D02*
X5885857Y25954800D01*
X5743000Y26026229D01*
X5528714Y26026229D01*
X5385857Y25954800D01*
X5314428Y25811943D01*
X5314428Y25026229D01*
X5314428Y25811943D02*
X5243000Y25954800D01*
X5100142Y26026229D01*
X4885857Y26026229D01*
X4743000Y25954800D01*
X4671571Y25811943D01*
X4671571Y25026229D01*
X3957285Y25026229D02*
X3957285Y26526229D01*
X3814428Y25597658D02*
X3385857Y25026229D01*
X3385857Y26026229D02*
X3957285Y25454800D01*
X2743000Y25169086D02*
X2671571Y25097658D01*
X2743000Y25026229D01*
X2814428Y25097658D01*
X2743000Y25169086D01*
X2743000Y25026229D01*
X2028714Y25026229D02*
X2028714Y26026229D01*
X2028714Y26526229D02*
X2100142Y26454800D01*
X2028714Y26383372D01*
X1957285Y26454800D01*
X2028714Y26526229D01*
X2028714Y26383372D01*
X1314428Y26026229D02*
X1314428Y25026229D01*
X1314428Y25883372D02*
X1243000Y25954800D01*
X1100142Y26026229D01*
X885857Y26026229D01*
X743000Y25954800D01*
X671571Y25811943D01*
X671571Y25026229D01*
D11*
G04 #@! TO.C,U1*
X1941933Y15219504D02*
G75*
G03X1941933Y15219504I-100000J0D01*
G01*
D12*
X3773469Y14581693D02*
G75*
G03X3773469Y14581693I-126999J0D01*
G01*
D13*
G04 #@! TO.C,Y1*
X395000Y19886300D02*
X395000Y21236300D01*
X2145000Y19886300D02*
X2145000Y21236300D01*
G04 #@! TO.C,C1*
X1876437Y9384183D02*
X1522883Y9737737D01*
X2187563Y10402417D02*
X2541117Y10048863D01*
G04 #@! TO.C,C2*
X3146437Y9638183D02*
X2792883Y9991737D01*
X3457563Y10656417D02*
X3811117Y10302863D01*
G04 #@! TO.C,C5*
X1232000Y17509300D02*
X1232000Y17009300D01*
X292000Y17009300D02*
X292000Y17509300D01*
G04 #@! TO.C,C6*
X1740000Y24113300D02*
X1740000Y23613300D01*
X800000Y23613300D02*
X800000Y24113300D01*
G04 #@! TO.C,Q1*
X2786000Y4332300D02*
X3446000Y4332300D01*
X1116000Y4332300D02*
X1786000Y4332300D01*
X1126000Y4332300D02*
X1126000Y7067300D01*
X3446000Y5742300D02*
X3446000Y4332300D01*
G04 #@! TO.C,R1*
X4322000Y3057300D02*
X4822000Y3057300D01*
X4822000Y1997300D02*
X4322000Y1997300D01*
G04 #@! TO.C,S1*
X6592000Y3257300D02*
X12712000Y3257300D01*
X12712000Y3257300D02*
X12712000Y6877300D01*
X12712000Y6877300D02*
X6592000Y6877300D01*
X6592000Y6877300D02*
X6592000Y3257300D01*
G04 #@! TO.C,Y1*
D14*
X3024190Y20910491D02*
X3500380Y20910491D01*
X2500380Y21243824D02*
X3024190Y20910491D01*
X2500380Y20577158D01*
X3500380Y19720015D02*
X3500380Y20291443D01*
X3500380Y20005729D02*
X2500380Y20005729D01*
X2643238Y20100967D01*
X2738476Y20196205D01*
X2786095Y20291443D01*
G04 #@! TO.C,C1*
X1386389Y11409613D02*
X1453732Y11409613D01*
X1588419Y11476957D01*
X1655763Y11544300D01*
X1723106Y11678988D01*
X1723106Y11813675D01*
X1689435Y11914690D01*
X1588419Y12083049D01*
X1487404Y12184064D01*
X1319045Y12285079D01*
X1218030Y12318751D01*
X1083343Y12318751D01*
X948656Y12251407D01*
X881312Y12184064D01*
X813969Y12049377D01*
X813969Y11982033D01*
X780297Y10668835D02*
X1184358Y11072896D01*
X982328Y10870865D02*
X275221Y11577972D01*
X443580Y11544300D01*
X578267Y11544300D01*
X679282Y11577972D01*
G04 #@! TO.C,C2*
X3672389Y8361613D02*
X3739732Y8361613D01*
X3874419Y8428957D01*
X3941763Y8496300D01*
X4009106Y8630988D01*
X4009106Y8765675D01*
X3975435Y8866690D01*
X3874419Y9035049D01*
X3773404Y9136064D01*
X3605045Y9237079D01*
X3504030Y9270751D01*
X3369343Y9270751D01*
X3234656Y9203407D01*
X3167312Y9136064D01*
X3099969Y9001377D01*
X3099969Y8934033D01*
X2830595Y8664659D02*
X2763251Y8664659D01*
X2662236Y8630988D01*
X2493877Y8462629D01*
X2460206Y8361613D01*
X2460206Y8294270D01*
X2493877Y8193255D01*
X2561221Y8125911D01*
X2695908Y8058568D01*
X3504030Y8058568D01*
X3066297Y7620835D01*
G04 #@! TO.C,C5*
X1398542Y15139967D02*
X1446161Y15187586D01*
X1493780Y15330443D01*
X1493780Y15425681D01*
X1446161Y15568539D01*
X1350923Y15663777D01*
X1255685Y15711396D01*
X1065209Y15759015D01*
X922352Y15759015D01*
X731876Y15711396D01*
X636638Y15663777D01*
X541400Y15568539D01*
X493780Y15425681D01*
X493780Y15330443D01*
X541400Y15187586D01*
X589019Y15139967D01*
X493780Y14235205D02*
X493780Y14711396D01*
X969971Y14759015D01*
X922352Y14711396D01*
X874733Y14616158D01*
X874733Y14378062D01*
X922352Y14282824D01*
X969971Y14235205D01*
X1065209Y14187586D01*
X1303304Y14187586D01*
X1398542Y14235205D01*
X1446161Y14282824D01*
X1493780Y14378062D01*
X1493780Y14616158D01*
X1446161Y14711396D01*
X1398542Y14759015D01*
G04 #@! TO.C,C6*
X2897142Y24029967D02*
X2944761Y24077586D01*
X2992380Y24220443D01*
X2992380Y24315681D01*
X2944761Y24458539D01*
X2849523Y24553777D01*
X2754285Y24601396D01*
X2563809Y24649015D01*
X2420952Y24649015D01*
X2230476Y24601396D01*
X2135238Y24553777D01*
X2040000Y24458539D01*
X1992380Y24315681D01*
X1992380Y24220443D01*
X2040000Y24077586D01*
X2087619Y24029967D01*
X1992380Y23172824D02*
X1992380Y23363300D01*
X2040000Y23458539D01*
X2087619Y23506158D01*
X2230476Y23601396D01*
X2420952Y23649015D01*
X2801904Y23649015D01*
X2897142Y23601396D01*
X2944761Y23553777D01*
X2992380Y23458539D01*
X2992380Y23268062D01*
X2944761Y23172824D01*
X2897142Y23125205D01*
X2801904Y23077586D01*
X2563809Y23077586D01*
X2468571Y23125205D01*
X2420952Y23172824D01*
X2373333Y23268062D01*
X2373333Y23458539D01*
X2420952Y23553777D01*
X2468571Y23601396D01*
X2563809Y23649015D01*
G04 #@! TO.C,Q1*
X2833619Y1733539D02*
X2786000Y1828777D01*
X2690761Y1924015D01*
X2547904Y2066872D01*
X2500285Y2162110D01*
X2500285Y2257348D01*
X2738380Y2209729D02*
X2690761Y2304967D01*
X2595523Y2400205D01*
X2405047Y2447824D01*
X2071714Y2447824D01*
X1881238Y2400205D01*
X1786000Y2304967D01*
X1738380Y2209729D01*
X1738380Y2019253D01*
X1786000Y1924015D01*
X1881238Y1828777D01*
X2071714Y1781158D01*
X2405047Y1781158D01*
X2595523Y1828777D01*
X2690761Y1924015D01*
X2738380Y2019253D01*
X2738380Y2209729D01*
X2738380Y828777D02*
X2738380Y1400205D01*
X2738380Y1114491D02*
X1738380Y1114491D01*
X1881238Y1209729D01*
X1976476Y1304967D01*
X2024095Y1400205D01*
G04 #@! TO.C,R1*
X6516666Y2074920D02*
X6850000Y2551110D01*
X7088095Y2074920D02*
X7088095Y3074920D01*
X6707142Y3074920D01*
X6611904Y3027300D01*
X6564285Y2979681D01*
X6516666Y2884443D01*
X6516666Y2741586D01*
X6564285Y2646348D01*
X6611904Y2598729D01*
X6707142Y2551110D01*
X7088095Y2551110D01*
X5564285Y2074920D02*
X6135714Y2074920D01*
X5850000Y2074920D02*
X5850000Y3074920D01*
X5945238Y2932062D01*
X6040476Y2836824D01*
X6135714Y2789205D01*
G04 #@! TO.C,S1*
X11310524Y2104759D02*
X11167667Y2057140D01*
X10929572Y2057140D01*
X10834334Y2104759D01*
X10786715Y2152378D01*
X10739096Y2247616D01*
X10739096Y2342854D01*
X10786715Y2438092D01*
X10834334Y2485711D01*
X10929572Y2533330D01*
X11120048Y2580949D01*
X11215286Y2628568D01*
X11262905Y2676187D01*
X11310524Y2771425D01*
X11310524Y2866663D01*
X11262905Y2961901D01*
X11215286Y3009520D01*
X11120048Y3057140D01*
X10881953Y3057140D01*
X10739096Y3009520D01*
X9786715Y2057140D02*
X10358143Y2057140D01*
X10072429Y2057140D02*
X10072429Y3057140D01*
X10167667Y2914282D01*
X10262905Y2819044D01*
X10358143Y2771425D01*
G04 #@! TO.C,TP1*
X18089333Y12970760D02*
X17756000Y11970760D01*
X17422666Y12970760D01*
X16756000Y12494569D02*
X16613142Y12446950D01*
X16565523Y12399331D01*
X16517904Y12304093D01*
X16517904Y12161236D01*
X16565523Y12065998D01*
X16613142Y12018379D01*
X16708380Y11970760D01*
X17089333Y11970760D01*
X17089333Y12970760D01*
X16756000Y12970760D01*
X16660761Y12923140D01*
X16613142Y12875521D01*
X16565523Y12780283D01*
X16565523Y12685045D01*
X16613142Y12589807D01*
X16660761Y12542188D01*
X16756000Y12494569D01*
X17089333Y12494569D01*
X16089333Y12970760D02*
X16089333Y12161236D01*
X16041714Y12065998D01*
X15994095Y12018379D01*
X15898857Y11970760D01*
X15708380Y11970760D01*
X15613142Y12018379D01*
X15565523Y12065998D01*
X15517904Y12161236D01*
X15517904Y12970760D01*
X15089333Y12018379D02*
X14946476Y11970760D01*
X14708380Y11970760D01*
X14613142Y12018379D01*
X14565523Y12065998D01*
X14517904Y12161236D01*
X14517904Y12256474D01*
X14565523Y12351712D01*
X14613142Y12399331D01*
X14708380Y12446950D01*
X14898857Y12494569D01*
X14994095Y12542188D01*
X15041714Y12589807D01*
X15089333Y12685045D01*
X15089333Y12780283D01*
X15041714Y12875521D01*
X14994095Y12923140D01*
X14898857Y12970760D01*
X14660761Y12970760D01*
X14517904Y12923140D01*
G04 #@! TD*
%LPC*%
D15*
G04 #@! TO.C,J3*
X14023560Y12599920D03*
X14023560Y16599920D03*
D16*
X12703560Y10999920D03*
X16173560Y10999920D03*
X12703560Y18199920D03*
X16173560Y18199920D03*
G04 #@! TD*
D17*
G04 #@! TO.C,U1*
X2197608Y15617605D03*
D18*
G36*
X2888451Y15211019D02*
X2604194Y14926762D01*
X1506765Y16024191D01*
X1791022Y16308448D01*
X2888451Y15211019D01*
X2888451Y15211019D01*
G37*
D17*
X2551161Y15971158D03*
D18*
G36*
X3242004Y15564572D02*
X2957747Y15280315D01*
X1860318Y16377744D01*
X2144575Y16662001D01*
X3242004Y15564572D01*
X3242004Y15564572D01*
G37*
D17*
X2904715Y16324712D03*
D18*
G36*
X3595558Y15918126D02*
X3311301Y15633869D01*
X2213872Y16731298D01*
X2498129Y17015555D01*
X3595558Y15918126D01*
X3595558Y15918126D01*
G37*
D17*
X3258268Y16678265D03*
D18*
G36*
X3949111Y16271679D02*
X3664854Y15987422D01*
X2567425Y17084851D01*
X2851682Y17369108D01*
X3949111Y16271679D01*
X3949111Y16271679D01*
G37*
D17*
X3611821Y17031818D03*
D18*
G36*
X4302664Y16625232D02*
X4018407Y16340975D01*
X2920978Y17438404D01*
X3205235Y17722661D01*
X4302664Y16625232D01*
X4302664Y16625232D01*
G37*
D17*
X3965375Y17385372D03*
D18*
G36*
X4656218Y16978786D02*
X4371961Y16694529D01*
X3274532Y17791958D01*
X3558789Y18076215D01*
X4656218Y16978786D01*
X4656218Y16978786D01*
G37*
D17*
X4318928Y17738925D03*
D18*
G36*
X5009771Y17332339D02*
X4725514Y17048082D01*
X3628085Y18145511D01*
X3912342Y18429768D01*
X5009771Y17332339D01*
X5009771Y17332339D01*
G37*
D17*
X4672482Y18092479D03*
D18*
G36*
X5363325Y17685893D02*
X5079068Y17401636D01*
X3981639Y18499065D01*
X4265896Y18783322D01*
X5363325Y17685893D01*
X5363325Y17685893D01*
G37*
D17*
X5026035Y18446032D03*
D18*
G36*
X5716878Y18039446D02*
X5432621Y17755189D01*
X4335192Y18852618D01*
X4619449Y19136875D01*
X5716878Y18039446D01*
X5716878Y18039446D01*
G37*
D17*
X5733142Y19153139D03*
D18*
G36*
X6423985Y18746553D02*
X6139728Y18462296D01*
X5042299Y19559725D01*
X5326556Y19843982D01*
X6423985Y18746553D01*
X6423985Y18746553D01*
G37*
D17*
X6086695Y19506692D03*
D18*
G36*
X6777538Y19100106D02*
X6493281Y18815849D01*
X5395852Y19913278D01*
X5680109Y20197535D01*
X6777538Y19100106D01*
X6777538Y19100106D01*
G37*
D17*
X8137305Y19506692D03*
D18*
G36*
X7730719Y18815849D02*
X7446462Y19100106D01*
X8543891Y20197535D01*
X8828148Y19913278D01*
X7730719Y18815849D01*
X7730719Y18815849D01*
G37*
D17*
X8490858Y19153139D03*
D18*
G36*
X8084272Y18462296D02*
X7800015Y18746553D01*
X8897444Y19843982D01*
X9181701Y19559725D01*
X8084272Y18462296D01*
X8084272Y18462296D01*
G37*
D17*
X8844412Y18799585D03*
D18*
G36*
X8437826Y18108742D02*
X8153569Y18392999D01*
X9250998Y19490428D01*
X9535255Y19206171D01*
X8437826Y18108742D01*
X8437826Y18108742D01*
G37*
D17*
X9197965Y18446032D03*
D18*
G36*
X8791379Y17755189D02*
X8507122Y18039446D01*
X9604551Y19136875D01*
X9888808Y18852618D01*
X8791379Y17755189D01*
X8791379Y17755189D01*
G37*
D17*
X9551518Y18092479D03*
D18*
G36*
X9958104Y18783322D02*
X10242361Y18499065D01*
X9144932Y17401636D01*
X8860675Y17685893D01*
X9958104Y18783322D01*
X9958104Y18783322D01*
G37*
D17*
X9905072Y17738925D03*
D18*
G36*
X9498486Y17048082D02*
X9214229Y17332339D01*
X10311658Y18429768D01*
X10595915Y18145511D01*
X9498486Y17048082D01*
X9498486Y17048082D01*
G37*
D17*
X10258625Y17385372D03*
D18*
G36*
X10665211Y18076215D02*
X10949468Y17791958D01*
X9852039Y16694529D01*
X9567782Y16978786D01*
X10665211Y18076215D01*
X10665211Y18076215D01*
G37*
D17*
X10612179Y17031818D03*
D18*
G36*
X11018765Y17722661D02*
X11303022Y17438404D01*
X10205593Y16340975D01*
X9921336Y16625232D01*
X11018765Y17722661D01*
X11018765Y17722661D01*
G37*
D17*
X10965732Y16678265D03*
D18*
G36*
X11372318Y17369108D02*
X11656575Y17084851D01*
X10559146Y15987422D01*
X10274889Y16271679D01*
X11372318Y17369108D01*
X11372318Y17369108D01*
G37*
D17*
X11319285Y16324712D03*
D18*
G36*
X11725871Y17015555D02*
X12010128Y16731298D01*
X10912699Y15633869D01*
X10628442Y15918126D01*
X11725871Y17015555D01*
X11725871Y17015555D01*
G37*
D17*
X11672839Y15971158D03*
D18*
G36*
X12079425Y16662001D02*
X12363682Y16377744D01*
X11266253Y15280315D01*
X10981996Y15564572D01*
X12079425Y16662001D01*
X12079425Y16662001D01*
G37*
D17*
X12026392Y15617605D03*
D18*
G36*
X12432978Y16308448D02*
X12717235Y16024191D01*
X11619806Y14926762D01*
X11335549Y15211019D01*
X12432978Y16308448D01*
X12432978Y16308448D01*
G37*
D17*
X5379588Y18799585D03*
D18*
G36*
X6070431Y18392999D02*
X5786174Y18108742D01*
X4688745Y19206171D01*
X4973002Y19490428D01*
X6070431Y18392999D01*
X6070431Y18392999D01*
G37*
D17*
X12005179Y13588208D03*
D18*
G36*
X11314336Y13994794D02*
X11598593Y14279051D01*
X12696022Y13181622D01*
X12411765Y12897365D01*
X11314336Y13994794D01*
X11314336Y13994794D01*
G37*
D17*
X11672839Y13213442D03*
D18*
G36*
X10981996Y13620028D02*
X11266253Y13904285D01*
X12363682Y12806856D01*
X12079425Y12522599D01*
X10981996Y13620028D01*
X10981996Y13620028D01*
G37*
D17*
X11319285Y12859888D03*
D18*
G36*
X10628442Y13266474D02*
X10912699Y13550731D01*
X12010128Y12453302D01*
X11725871Y12169045D01*
X10628442Y13266474D01*
X10628442Y13266474D01*
G37*
D17*
X10965732Y12506335D03*
D18*
G36*
X10274889Y12912921D02*
X10559146Y13197178D01*
X11656575Y12099749D01*
X11372318Y11815492D01*
X10274889Y12912921D01*
X10274889Y12912921D01*
G37*
D17*
X10612179Y12152782D03*
D18*
G36*
X9921336Y12559368D02*
X10205593Y12843625D01*
X11303022Y11746196D01*
X11018765Y11461939D01*
X9921336Y12559368D01*
X9921336Y12559368D01*
G37*
D17*
X10258625Y11799228D03*
D18*
G36*
X9567782Y12205814D02*
X9852039Y12490071D01*
X10949468Y11392642D01*
X10665211Y11108385D01*
X9567782Y12205814D01*
X9567782Y12205814D01*
G37*
D17*
X9905072Y11445675D03*
D18*
G36*
X9214229Y11852261D02*
X9498486Y12136518D01*
X10595915Y11039089D01*
X10311658Y10754832D01*
X9214229Y11852261D01*
X9214229Y11852261D01*
G37*
D17*
X9551518Y11092121D03*
D18*
G36*
X8860675Y11498707D02*
X9144932Y11782964D01*
X10242361Y10685535D01*
X9958104Y10401278D01*
X8860675Y11498707D01*
X8860675Y11498707D01*
G37*
D17*
X9197965Y10738568D03*
D18*
G36*
X8507122Y11145154D02*
X8791379Y11429411D01*
X9888808Y10331982D01*
X9604551Y10047725D01*
X8507122Y11145154D01*
X8507122Y11145154D01*
G37*
D17*
X8490858Y10031461D03*
D18*
G36*
X7800015Y10438047D02*
X8084272Y10722304D01*
X9181701Y9624875D01*
X8897444Y9340618D01*
X7800015Y10438047D01*
X7800015Y10438047D01*
G37*
D17*
X8137305Y9677908D03*
D18*
G36*
X7446462Y10084494D02*
X7730719Y10368751D01*
X8828148Y9271322D01*
X8543891Y8987065D01*
X7446462Y10084494D01*
X7446462Y10084494D01*
G37*
D17*
X8844412Y10385015D03*
D18*
G36*
X8153569Y10791601D02*
X8437826Y11075858D01*
X9535255Y9978429D01*
X9250998Y9694172D01*
X8153569Y10791601D01*
X8153569Y10791601D01*
G37*
D17*
X6086695Y9677908D03*
D18*
G36*
X6493281Y10368751D02*
X6777538Y10084494D01*
X5680109Y8987065D01*
X5395852Y9271322D01*
X6493281Y10368751D01*
X6493281Y10368751D01*
G37*
D17*
X5733142Y10031461D03*
D18*
G36*
X6139728Y10722304D02*
X6423985Y10438047D01*
X5326556Y9340618D01*
X5042299Y9624875D01*
X6139728Y10722304D01*
X6139728Y10722304D01*
G37*
D17*
X5379588Y10385015D03*
D18*
G36*
X5786174Y11075858D02*
X6070431Y10791601D01*
X4973002Y9694172D01*
X4688745Y9978429D01*
X5786174Y11075858D01*
X5786174Y11075858D01*
G37*
D17*
X5026035Y10738568D03*
D18*
G36*
X5432621Y11429411D02*
X5716878Y11145154D01*
X4619449Y10047725D01*
X4335192Y10331982D01*
X5432621Y11429411D01*
X5432621Y11429411D01*
G37*
D17*
X4672482Y11092121D03*
D18*
G36*
X5079068Y11782964D02*
X5363325Y11498707D01*
X4265896Y10401278D01*
X3981639Y10685535D01*
X5079068Y11782964D01*
X5079068Y11782964D01*
G37*
D17*
X4318928Y11445675D03*
D18*
G36*
X4725514Y12136518D02*
X5009771Y11852261D01*
X3912342Y10754832D01*
X3628085Y11039089D01*
X4725514Y12136518D01*
X4725514Y12136518D01*
G37*
D17*
X3965375Y11799228D03*
D18*
G36*
X3558789Y11108385D02*
X3274532Y11392642D01*
X4371961Y12490071D01*
X4656218Y12205814D01*
X3558789Y11108385D01*
X3558789Y11108385D01*
G37*
D17*
X3611821Y12152782D03*
D18*
G36*
X3205235Y11461939D02*
X2920978Y11746196D01*
X4018407Y12843625D01*
X4302664Y12559368D01*
X3205235Y11461939D01*
X3205235Y11461939D01*
G37*
D17*
X3258268Y12506335D03*
D18*
G36*
X2851682Y11815492D02*
X2567425Y12099749D01*
X3664854Y13197178D01*
X3949111Y12912921D01*
X2851682Y11815492D01*
X2851682Y11815492D01*
G37*
D17*
X2904715Y12859888D03*
D18*
G36*
X2498129Y12169045D02*
X2213872Y12453302D01*
X3311301Y13550731D01*
X3595558Y13266474D01*
X2498129Y12169045D01*
X2498129Y12169045D01*
G37*
D17*
X2551161Y13213442D03*
D18*
G36*
X2144575Y12522599D02*
X1860318Y12806856D01*
X2957747Y13904285D01*
X3242004Y13620028D01*
X2144575Y12522599D01*
X2144575Y12522599D01*
G37*
D17*
X2197608Y13566995D03*
D18*
G36*
X1791022Y12876152D02*
X1506765Y13160409D01*
X2604194Y14257838D01*
X2888451Y13973581D01*
X1791022Y12876152D01*
X1791022Y12876152D01*
G37*
G04 #@! TD*
D19*
G04 #@! TO.C,Y1*
X1270000Y21811300D03*
X1270000Y19311300D03*
G04 #@! TD*
D20*
G04 #@! TO.C,C1*
X1643091Y10282209D03*
D18*
G36*
X1182057Y10317564D02*
X1607736Y10743243D01*
X2104125Y10246854D01*
X1678446Y9821175D01*
X1182057Y10317564D01*
X1182057Y10317564D01*
G37*
D20*
X2420909Y9504391D03*
D18*
G36*
X1959875Y9539746D02*
X2385554Y9965425D01*
X2881943Y9469036D01*
X2456264Y9043357D01*
X1959875Y9539746D01*
X1959875Y9539746D01*
G37*
G04 #@! TD*
D20*
G04 #@! TO.C,C2*
X2913091Y10536209D03*
D18*
G36*
X2452057Y10571564D02*
X2877736Y10997243D01*
X3374125Y10500854D01*
X2948446Y10075175D01*
X2452057Y10571564D01*
X2452057Y10571564D01*
G37*
D20*
X3690909Y9758391D03*
D18*
G36*
X3229875Y9793746D02*
X3655554Y10219425D01*
X4151943Y9723036D01*
X3726264Y9297357D01*
X3229875Y9793746D01*
X3229875Y9793746D01*
G37*
G04 #@! TD*
D21*
G04 #@! TO.C,C5*
X762000Y16709300D03*
X762000Y17809300D03*
G04 #@! TD*
G04 #@! TO.C,C6*
X1270000Y23313300D03*
X1270000Y24413300D03*
G04 #@! TD*
D22*
G04 #@! TO.C,Q1*
X1636000Y6397300D03*
X2936000Y6397300D03*
X2286000Y3737300D03*
G04 #@! TD*
D23*
G04 #@! TO.C,R1*
X5022000Y2527300D03*
X4122000Y2527300D03*
G04 #@! TD*
D24*
G04 #@! TO.C,S1*
X5062000Y5067300D03*
X14242000Y5067300D03*
G04 #@! TD*
D25*
G04 #@! TO.C,TP1*
X16510000Y14719300D03*
G04 #@! TD*
M02*
