M48
;DRILL file {KiCad 5.0.1} date Thu 06 Dec 2018 08:50:24 PM PST
;FORMAT={-:-/ absolute / inch / decimal}
FMAT,2
INCH,TZ
T1C0.0157
T2C0.0256
%
G90
G05
M72
T1
X0.0671Y0.3551
X0.0786Y0.1993
X0.14Y0.0995
X0.1545Y0.7786
X0.165Y0.3795
X0.165Y0.2995
X0.205Y0.4995
X0.2068Y0.5813
X0.207Y0.6365
X0.21Y0.5395
X0.25Y1.0495
X0.2569Y0.3314
X0.2687Y0.2012
X0.27Y0.7145
X0.3Y0.9295
X0.35Y0.0995
X0.3535Y0.537
X0.361Y0.6046
X0.3695Y0.6435
X0.3706Y0.501
X0.4055Y0.7759
X0.409Y0.1941
X0.412Y0.3705
X0.4357Y0.8401
X0.4899Y0.9295
X0.5Y0.0261
X0.5465Y0.2995
X0.5635Y0.598
X0.5647Y0.9424
X0.5748Y0.6357
X0.5812Y0.5606
X0.591Y0.5171
X0.6Y0.9935
X0.6Y0.0261
X0.6015Y0.6705
X0.64Y0.9795
X0.66Y0.4995
X0.66Y0.3295
X0.6635Y0.6586
T2
X0.5245Y0.6883
X0.5245Y0.4607
T0
M30
