G04 #@! TF.GenerationSoftware,KiCad,Pcbnew,5.0.1*
G04 #@! TF.CreationDate,2018-12-09T07:22:16-08:00*
G04 #@! TF.ProjectId,pmod-samd21-usbu,706D6F642D73616D6432312D75736275,rev?*
G04 #@! TF.SameCoordinates,PX8822960PY9c3a754*
G04 #@! TF.FileFunction,Legend,Top*
G04 #@! TF.FilePolarity,Positive*
%FSLAX46Y46*%
G04 Gerber Fmt 4.6, Leading zero omitted, Abs format (unit mm)*
G04 Created by KiCad (PCBNEW 5.0.1) date Sun 09 Dec 2018 07:22:16 AM PST*
%MOMM*%
%LPD*%
G01*
G04 APERTURE LIST*
%ADD10C,0.150000*%
%ADD11C,1.000000*%
%ADD12C,0.254000*%
%ADD13C,0.120000*%
%ADD14R,1.202000X1.202000*%
%ADD15R,2.752000X0.502000*%
%ADD16C,0.652000*%
%ADD17O,2.302000X1.602000*%
%ADD18R,2.602000X1.002000*%
%ADD19R,1.118000X2.642000*%
%ADD20R,0.702000X0.602000*%
%ADD21R,0.702000X0.502000*%
%ADD22R,0.802000X0.702000*%
G04 APERTURE END LIST*
D10*
G04 #@! TO.C,J3*
X18323560Y10999920D02*
X18323560Y18199920D01*
X18323560Y10999920D02*
X12673560Y10999920D01*
X12673560Y10999920D02*
X12673560Y18199920D01*
X12673560Y18199920D02*
X18323560Y18199920D01*
D11*
G04 #@! TO.C,JP2*
X7312000Y18392300D02*
G75*
G03X7312000Y18392300I-200000J0D01*
G01*
G04 #@! TO.C,J2*
X16702000Y7667300D02*
G75*
G03X16702000Y7667300I-200000J0D01*
G01*
D12*
X8902000Y-1282700D02*
X7632000Y-12700D01*
X10172000Y-12700D02*
X8902000Y-1282700D01*
X8902000Y-1282700D02*
X12000Y-1282700D01*
X17792000Y-1282700D02*
X8902000Y-1282700D01*
G04 #@! TO.C,J1*
X12000Y30467300D02*
X8902000Y30467300D01*
X8902000Y30467300D02*
X17792000Y30467300D01*
X7632000Y29197300D02*
X8902000Y30467300D01*
X8902000Y30467300D02*
X10172000Y29197300D01*
D11*
X16702000Y21517300D02*
G75*
G03X16702000Y21517300I-200000J0D01*
G01*
D13*
G04 #@! TO.C,C3*
X4568000Y19253300D02*
X4068000Y19253300D01*
X4068000Y18313300D02*
X4568000Y18313300D01*
G04 #@! TO.C,C4*
X7887305Y19036692D02*
X8387305Y19036692D01*
X8387305Y19976692D02*
X7887305Y19976692D01*
G04 #@! TO.C,C9*
X7412000Y9677300D02*
X7912000Y9677300D01*
X7912000Y10617300D02*
X7412000Y10617300D01*
G04 #@! TO.C,R3*
X1292000Y2785300D02*
X1292000Y3285300D01*
X232000Y3285300D02*
X232000Y2785300D01*
G04 #@! TO.C,D1*
X1212000Y6525300D02*
X312000Y6525300D01*
X312000Y6525300D02*
X312000Y5075300D01*
X1212000Y6525300D02*
X1212000Y5075300D01*
G04 #@! TO.C,J3*
D10*
X14875940Y14266587D02*
X15590226Y14266587D01*
X15733083Y14218968D01*
X15828321Y14123730D01*
X15875940Y13980873D01*
X15875940Y13885635D01*
X14875940Y14647540D02*
X14875940Y15266587D01*
X15256893Y14933254D01*
X15256893Y15076111D01*
X15304512Y15171349D01*
X15352131Y15218968D01*
X15447369Y15266587D01*
X15685464Y15266587D01*
X15780702Y15218968D01*
X15828321Y15171349D01*
X15875940Y15076111D01*
X15875940Y14790397D01*
X15828321Y14695159D01*
X15780702Y14647540D01*
G04 #@! TO.C,JP2*
X214380Y13758967D02*
X928666Y13758967D01*
X1071523Y13711348D01*
X1166761Y13616110D01*
X1214380Y13473253D01*
X1214380Y13378015D01*
X1214380Y14235158D02*
X214380Y14235158D01*
X214380Y14616110D01*
X262000Y14711348D01*
X309619Y14758967D01*
X404857Y14806586D01*
X547714Y14806586D01*
X642952Y14758967D01*
X690571Y14711348D01*
X738190Y14616110D01*
X738190Y14235158D01*
X309619Y15187539D02*
X262000Y15235158D01*
X214380Y15330396D01*
X214380Y15568491D01*
X262000Y15663729D01*
X309619Y15711348D01*
X404857Y15758967D01*
X500095Y15758967D01*
X642952Y15711348D01*
X1214380Y15139920D01*
X1214380Y15758967D01*
G04 #@! TO.C,J2*
X8568666Y5614920D02*
X8568666Y4900634D01*
X8521047Y4757777D01*
X8425809Y4662539D01*
X8282952Y4614920D01*
X8187714Y4614920D01*
X8997238Y5519681D02*
X9044857Y5567300D01*
X9140095Y5614920D01*
X9378190Y5614920D01*
X9473428Y5567300D01*
X9521047Y5519681D01*
X9568666Y5424443D01*
X9568666Y5329205D01*
X9521047Y5186348D01*
X8949619Y4614920D01*
X9568666Y4614920D01*
G04 #@! TO.C,J1*
X8568666Y24664920D02*
X8568666Y23950634D01*
X8521047Y23807777D01*
X8425809Y23712539D01*
X8282952Y23664920D01*
X8187714Y23664920D01*
X9568666Y23664920D02*
X8997238Y23664920D01*
X9282952Y23664920D02*
X9282952Y24664920D01*
X9187714Y24522062D01*
X9092476Y24426824D01*
X8997238Y24379205D01*
G04 #@! TO.C,C3*
X2119333Y18299158D02*
X2071714Y18251539D01*
X1928857Y18203920D01*
X1833619Y18203920D01*
X1690761Y18251539D01*
X1595523Y18346777D01*
X1547904Y18442015D01*
X1500285Y18632491D01*
X1500285Y18775348D01*
X1547904Y18965824D01*
X1595523Y19061062D01*
X1690761Y19156300D01*
X1833619Y19203920D01*
X1928857Y19203920D01*
X2071714Y19156300D01*
X2119333Y19108681D01*
X2452666Y19203920D02*
X3071714Y19203920D01*
X2738380Y18822967D01*
X2881238Y18822967D01*
X2976476Y18775348D01*
X3024095Y18727729D01*
X3071714Y18632491D01*
X3071714Y18394396D01*
X3024095Y18299158D01*
X2976476Y18251539D01*
X2881238Y18203920D01*
X2595523Y18203920D01*
X2500285Y18251539D01*
X2452666Y18299158D01*
G04 #@! TO.C,C4*
X9104333Y18045158D02*
X9056714Y17997539D01*
X8913857Y17949920D01*
X8818619Y17949920D01*
X8675761Y17997539D01*
X8580523Y18092777D01*
X8532904Y18188015D01*
X8485285Y18378491D01*
X8485285Y18521348D01*
X8532904Y18711824D01*
X8580523Y18807062D01*
X8675761Y18902300D01*
X8818619Y18949920D01*
X8913857Y18949920D01*
X9056714Y18902300D01*
X9104333Y18854681D01*
X9961476Y18616586D02*
X9961476Y17949920D01*
X9723380Y18997539D02*
X9485285Y18283253D01*
X10104333Y18283253D01*
G04 #@! TO.C,C9*
X5421333Y9790158D02*
X5373714Y9742539D01*
X5230857Y9694920D01*
X5135619Y9694920D01*
X4992761Y9742539D01*
X4897523Y9837777D01*
X4849904Y9933015D01*
X4802285Y10123491D01*
X4802285Y10266348D01*
X4849904Y10456824D01*
X4897523Y10552062D01*
X4992761Y10647300D01*
X5135619Y10694920D01*
X5230857Y10694920D01*
X5373714Y10647300D01*
X5421333Y10599681D01*
X5897523Y9694920D02*
X6088000Y9694920D01*
X6183238Y9742539D01*
X6230857Y9790158D01*
X6326095Y9933015D01*
X6373714Y10123491D01*
X6373714Y10504443D01*
X6326095Y10599681D01*
X6278476Y10647300D01*
X6183238Y10694920D01*
X5992761Y10694920D01*
X5897523Y10647300D01*
X5849904Y10599681D01*
X5802285Y10504443D01*
X5802285Y10266348D01*
X5849904Y10171110D01*
X5897523Y10123491D01*
X5992761Y10075872D01*
X6183238Y10075872D01*
X6278476Y10123491D01*
X6326095Y10171110D01*
X6373714Y10266348D01*
G04 #@! TO.C,R3*
X1468380Y836634D02*
X992190Y503300D01*
X1468380Y265205D02*
X468380Y265205D01*
X468380Y646158D01*
X516000Y741396D01*
X563619Y789015D01*
X658857Y836634D01*
X801714Y836634D01*
X896952Y789015D01*
X944571Y741396D01*
X992190Y646158D01*
X992190Y265205D01*
X468380Y1169967D02*
X468380Y1789015D01*
X849333Y1455681D01*
X849333Y1598539D01*
X896952Y1693777D01*
X944571Y1741396D01*
X1039809Y1789015D01*
X1277904Y1789015D01*
X1373142Y1741396D01*
X1420761Y1693777D01*
X1468380Y1598539D01*
X1468380Y1312824D01*
X1420761Y1217586D01*
X1373142Y1169967D01*
G04 #@! TO.C,D1*
X1214380Y7377205D02*
X214380Y7377205D01*
X214380Y7615300D01*
X262000Y7758158D01*
X357238Y7853396D01*
X452476Y7901015D01*
X642952Y7948634D01*
X785809Y7948634D01*
X976285Y7901015D01*
X1071523Y7853396D01*
X1166761Y7758158D01*
X1214380Y7615300D01*
X1214380Y7377205D01*
X1214380Y8901015D02*
X1214380Y8329586D01*
X1214380Y8615300D02*
X214380Y8615300D01*
X357238Y8520062D01*
X452476Y8424824D01*
X500095Y8329586D01*
G04 #@! TD*
%LPC*%
D14*
G04 #@! TO.C,J3*
X17323560Y13099920D03*
X17323560Y16099920D03*
D15*
X12763560Y14599920D03*
D16*
X14023560Y12599920D03*
X14023560Y16599920D03*
D15*
X12763560Y13949920D03*
X12763560Y13299920D03*
X12763560Y15249920D03*
X12763560Y15899920D03*
D17*
X16173560Y10999920D03*
X16173560Y18199920D03*
X12703560Y18199920D03*
X12703560Y10999920D03*
G04 #@! TD*
D18*
G04 #@! TO.C,JP2*
X3302000Y12052300D03*
X7112000Y12052300D03*
X3302000Y13322300D03*
X7112000Y13322300D03*
X3302000Y14592300D03*
X7112000Y14592300D03*
X3302000Y15862300D03*
X7112000Y15862300D03*
X3302000Y17132300D03*
X7112000Y17132300D03*
G04 #@! TD*
D19*
G04 #@! TO.C,J2*
X2552000Y2527300D03*
X2552000Y7607300D03*
X5092000Y2527300D03*
X5092000Y7607300D03*
X7632000Y2527300D03*
X7632000Y7607300D03*
X10172000Y2527300D03*
X10172000Y7607300D03*
X12712000Y2527300D03*
X12712000Y7607300D03*
X15252000Y2527300D03*
X15252000Y7607300D03*
G04 #@! TD*
G04 #@! TO.C,J1*
X2552000Y21577300D03*
X2552000Y26657300D03*
X5092000Y21577300D03*
X5092000Y26657300D03*
X7632000Y21577300D03*
X7632000Y26657300D03*
X10172000Y21577300D03*
X10172000Y26657300D03*
X12712000Y21577300D03*
X12712000Y26657300D03*
X15252000Y21577300D03*
X15252000Y26657300D03*
G04 #@! TD*
D20*
G04 #@! TO.C,C3*
X3768000Y18783300D03*
X4868000Y18783300D03*
G04 #@! TD*
G04 #@! TO.C,C4*
X8687305Y19506692D03*
X7587305Y19506692D03*
G04 #@! TD*
G04 #@! TO.C,C9*
X8212000Y10147300D03*
X7112000Y10147300D03*
G04 #@! TD*
D21*
G04 #@! TO.C,R3*
X762000Y3485300D03*
X762000Y2585300D03*
G04 #@! TD*
D22*
G04 #@! TO.C,D1*
X762000Y5025300D03*
X762000Y6125300D03*
G04 #@! TD*
M02*
