G04 #@! TF.GenerationSoftware,KiCad,Pcbnew,5.0.1*
G04 #@! TF.CreationDate,2018-12-05T07:05:07-08:00*
G04 #@! TF.ProjectId,pmod-samd21,706D6F642D73616D6432312E6B696361,rev?*
G04 #@! TF.SameCoordinates,Original*
G04 #@! TF.FileFunction,Soldermask,Top*
G04 #@! TF.FilePolarity,Negative*
%FSLAX46Y46*%
G04 Gerber Fmt 4.6, Leading zero omitted, Abs format (unit mm)*
G04 Created by KiCad (PCBNEW 5.0.1) date Wed 05 Dec 2018 07:05:07 AM PST*
%MOMM*%
%LPD*%
G01*
G04 APERTURE LIST*
%ADD10C,0.100000*%
G04 APERTURE END LIST*
D10*
G36*
X145859000Y-162611000D02*
X144741000Y-162611000D01*
X144741000Y-159969000D01*
X145859000Y-159969000D01*
X145859000Y-162611000D01*
X145859000Y-162611000D01*
G37*
G36*
X148399000Y-162611000D02*
X147281000Y-162611000D01*
X147281000Y-159969000D01*
X148399000Y-159969000D01*
X148399000Y-162611000D01*
X148399000Y-162611000D01*
G37*
G36*
X150939000Y-162611000D02*
X149821000Y-162611000D01*
X149821000Y-159969000D01*
X150939000Y-159969000D01*
X150939000Y-162611000D01*
X150939000Y-162611000D01*
G37*
G36*
X153479000Y-162611000D02*
X152361000Y-162611000D01*
X152361000Y-159969000D01*
X153479000Y-159969000D01*
X153479000Y-162611000D01*
X153479000Y-162611000D01*
G37*
G36*
X156019000Y-162611000D02*
X154901000Y-162611000D01*
X154901000Y-159969000D01*
X156019000Y-159969000D01*
X156019000Y-162611000D01*
X156019000Y-162611000D01*
G37*
G36*
X158559000Y-162611000D02*
X157441000Y-162611000D01*
X157441000Y-159969000D01*
X158559000Y-159969000D01*
X158559000Y-162611000D01*
X158559000Y-162611000D01*
G37*
G36*
X143861000Y-161483000D02*
X143159000Y-161483000D01*
X143159000Y-160981000D01*
X143861000Y-160981000D01*
X143861000Y-161483000D01*
X143861000Y-161483000D01*
G37*
G36*
X143861000Y-160583000D02*
X143159000Y-160583000D01*
X143159000Y-160081000D01*
X143861000Y-160081000D01*
X143861000Y-160583000D01*
X143861000Y-160583000D01*
G37*
G36*
X143911000Y-159143000D02*
X143109000Y-159143000D01*
X143109000Y-158441000D01*
X143911000Y-158441000D01*
X143911000Y-159143000D01*
X143911000Y-159143000D01*
G37*
G36*
X143911000Y-158043000D02*
X143109000Y-158043000D01*
X143109000Y-157341000D01*
X143911000Y-157341000D01*
X143911000Y-158043000D01*
X143911000Y-158043000D01*
G37*
G36*
X145859000Y-157531000D02*
X144741000Y-157531000D01*
X144741000Y-154889000D01*
X145859000Y-154889000D01*
X145859000Y-157531000D01*
X145859000Y-157531000D01*
G37*
G36*
X158559000Y-157531000D02*
X157441000Y-157531000D01*
X157441000Y-154889000D01*
X158559000Y-154889000D01*
X158559000Y-157531000D01*
X158559000Y-157531000D01*
G37*
G36*
X153479000Y-157531000D02*
X152361000Y-157531000D01*
X152361000Y-154889000D01*
X153479000Y-154889000D01*
X153479000Y-157531000D01*
X153479000Y-157531000D01*
G37*
G36*
X150939000Y-157531000D02*
X149821000Y-157531000D01*
X149821000Y-154889000D01*
X150939000Y-154889000D01*
X150939000Y-157531000D01*
X150939000Y-157531000D01*
G37*
G36*
X148399000Y-157531000D02*
X147281000Y-157531000D01*
X147281000Y-154889000D01*
X148399000Y-154889000D01*
X148399000Y-157531000D01*
X148399000Y-157531000D01*
G37*
G36*
X156019000Y-157531000D02*
X154901000Y-157531000D01*
X154901000Y-154889000D01*
X156019000Y-154889000D01*
X156019000Y-157531000D01*
X156019000Y-157531000D01*
G37*
G36*
X160113855Y-152897140D02*
X160177618Y-152903420D01*
X160259427Y-152928237D01*
X160300333Y-152940645D01*
X160400491Y-152994181D01*
X160413426Y-153001095D01*
X160512553Y-153082447D01*
X160593905Y-153181574D01*
X160593906Y-153181576D01*
X160654355Y-153294667D01*
X160654355Y-153294668D01*
X160691580Y-153417382D01*
X160704149Y-153545000D01*
X160691580Y-153672618D01*
X160666763Y-153754427D01*
X160654355Y-153795333D01*
X160600819Y-153895491D01*
X160593905Y-153908426D01*
X160512553Y-154007553D01*
X160413426Y-154088905D01*
X160413424Y-154088906D01*
X160300333Y-154149355D01*
X160259427Y-154161763D01*
X160177618Y-154186580D01*
X160113855Y-154192860D01*
X160081974Y-154196000D01*
X159418026Y-154196000D01*
X159386145Y-154192860D01*
X159322382Y-154186580D01*
X159240573Y-154161763D01*
X159199667Y-154149355D01*
X159086576Y-154088906D01*
X159086574Y-154088905D01*
X158987447Y-154007553D01*
X158906095Y-153908426D01*
X158899181Y-153895491D01*
X158845645Y-153795333D01*
X158833237Y-153754427D01*
X158808420Y-153672618D01*
X158795851Y-153545000D01*
X158808420Y-153417382D01*
X158845645Y-153294668D01*
X158845645Y-153294667D01*
X158906094Y-153181576D01*
X158906095Y-153181574D01*
X158987447Y-153082447D01*
X159086574Y-153001095D01*
X159099509Y-152994181D01*
X159199667Y-152940645D01*
X159240573Y-152928237D01*
X159322382Y-152903420D01*
X159386145Y-152897140D01*
X159418026Y-152894000D01*
X160081974Y-152894000D01*
X160113855Y-152897140D01*
X160113855Y-152897140D01*
G37*
G36*
X156233855Y-144257140D02*
X156297618Y-144263420D01*
X156379427Y-144288237D01*
X156420333Y-144300645D01*
X156520491Y-144354181D01*
X156533426Y-144361095D01*
X156632553Y-144442447D01*
X156713905Y-144541574D01*
X156713906Y-144541576D01*
X156774355Y-144654667D01*
X156774355Y-144654668D01*
X156811580Y-144777382D01*
X156824149Y-144905000D01*
X156811580Y-145032618D01*
X156786763Y-145114427D01*
X156774355Y-145155333D01*
X156720819Y-145255491D01*
X156713905Y-145268426D01*
X156632553Y-145367553D01*
X156533426Y-145448905D01*
X156533424Y-145448906D01*
X156420333Y-145509355D01*
X156379427Y-145521763D01*
X156297618Y-145546580D01*
X156233855Y-145552860D01*
X156201974Y-145556000D01*
X155781000Y-145556000D01*
X155756614Y-145558402D01*
X155733165Y-145565515D01*
X155711554Y-145577066D01*
X155692612Y-145592612D01*
X155677066Y-145611554D01*
X155665515Y-145633165D01*
X155658402Y-145656614D01*
X155656000Y-145681000D01*
X155656000Y-145925556D01*
X155658402Y-145949942D01*
X155665515Y-145973391D01*
X155677066Y-145995002D01*
X155692612Y-146013944D01*
X155711554Y-146029490D01*
X155733165Y-146041041D01*
X155756614Y-146048154D01*
X155781000Y-146050556D01*
X155805386Y-146048154D01*
X155828835Y-146041041D01*
X155850445Y-146029490D01*
X155891894Y-146001795D01*
X155891896Y-146001794D01*
X155891897Y-146001793D01*
X155960325Y-145973450D01*
X155960326Y-145973450D01*
X155960328Y-145973449D01*
X156032966Y-145959000D01*
X156107034Y-145959000D01*
X156179672Y-145973449D01*
X156179674Y-145973450D01*
X156179675Y-145973450D01*
X156248103Y-146001793D01*
X156306841Y-146041041D01*
X156309689Y-146042944D01*
X156362056Y-146095311D01*
X156362058Y-146095314D01*
X156403207Y-146156897D01*
X156431550Y-146225325D01*
X156446000Y-146297967D01*
X156446000Y-146372033D01*
X156431550Y-146444675D01*
X156403207Y-146513103D01*
X156362243Y-146574409D01*
X156362056Y-146574689D01*
X156309689Y-146627056D01*
X156309686Y-146627058D01*
X156248103Y-146668207D01*
X156179675Y-146696550D01*
X156179674Y-146696550D01*
X156179672Y-146696551D01*
X156107034Y-146711000D01*
X156032966Y-146711000D01*
X155960328Y-146696551D01*
X155960326Y-146696550D01*
X155960325Y-146696550D01*
X155891897Y-146668207D01*
X155873713Y-146656057D01*
X155850445Y-146640510D01*
X155828834Y-146628959D01*
X155805385Y-146621846D01*
X155780999Y-146619444D01*
X155756612Y-146621846D01*
X155733163Y-146628960D01*
X155711553Y-146640511D01*
X155692611Y-146656057D01*
X155677066Y-146674999D01*
X155665515Y-146696610D01*
X155658402Y-146720059D01*
X155656000Y-146744444D01*
X155656000Y-151705556D01*
X155658402Y-151729942D01*
X155665515Y-151753391D01*
X155677066Y-151775002D01*
X155692612Y-151793944D01*
X155711554Y-151809490D01*
X155733165Y-151821041D01*
X155756614Y-151828154D01*
X155781000Y-151830556D01*
X155805386Y-151828154D01*
X155828835Y-151821041D01*
X155850445Y-151809490D01*
X155891894Y-151781795D01*
X155891896Y-151781794D01*
X155891897Y-151781793D01*
X155960325Y-151753450D01*
X155960326Y-151753450D01*
X155960328Y-151753449D01*
X156032966Y-151739000D01*
X156107034Y-151739000D01*
X156179672Y-151753449D01*
X156179674Y-151753450D01*
X156179675Y-151753450D01*
X156248103Y-151781793D01*
X156306841Y-151821041D01*
X156309689Y-151822944D01*
X156362056Y-151875311D01*
X156362058Y-151875314D01*
X156403207Y-151936897D01*
X156431550Y-152005325D01*
X156446000Y-152077967D01*
X156446000Y-152152033D01*
X156431550Y-152224675D01*
X156403207Y-152293103D01*
X156362243Y-152354409D01*
X156362056Y-152354689D01*
X156309689Y-152407056D01*
X156309686Y-152407058D01*
X156248103Y-152448207D01*
X156179675Y-152476550D01*
X156179674Y-152476550D01*
X156179672Y-152476551D01*
X156107034Y-152491000D01*
X156032966Y-152491000D01*
X155960328Y-152476551D01*
X155960326Y-152476550D01*
X155960325Y-152476550D01*
X155891897Y-152448207D01*
X155873713Y-152436057D01*
X155850445Y-152420510D01*
X155828834Y-152408959D01*
X155805385Y-152401846D01*
X155780999Y-152399444D01*
X155756612Y-152401846D01*
X155733163Y-152408960D01*
X155711553Y-152420511D01*
X155692611Y-152436057D01*
X155677066Y-152454999D01*
X155665515Y-152476610D01*
X155658402Y-152500059D01*
X155656000Y-152524444D01*
X155656000Y-152769000D01*
X155658402Y-152793386D01*
X155665515Y-152816835D01*
X155677066Y-152838446D01*
X155692612Y-152857388D01*
X155711554Y-152872934D01*
X155733165Y-152884485D01*
X155756614Y-152891598D01*
X155781000Y-152894000D01*
X156201974Y-152894000D01*
X156233855Y-152897140D01*
X156297618Y-152903420D01*
X156379427Y-152928237D01*
X156420333Y-152940645D01*
X156520491Y-152994181D01*
X156533426Y-153001095D01*
X156632553Y-153082447D01*
X156713905Y-153181574D01*
X156713906Y-153181576D01*
X156774355Y-153294667D01*
X156774355Y-153294668D01*
X156811580Y-153417382D01*
X156824149Y-153545000D01*
X156811580Y-153672618D01*
X156786763Y-153754427D01*
X156774355Y-153795333D01*
X156720819Y-153895491D01*
X156713905Y-153908426D01*
X156632553Y-154007553D01*
X156533426Y-154088905D01*
X156533424Y-154088906D01*
X156420333Y-154149355D01*
X156379427Y-154161763D01*
X156297618Y-154186580D01*
X156233855Y-154192860D01*
X156201974Y-154196000D01*
X154938026Y-154196000D01*
X154906145Y-154192860D01*
X154842382Y-154186580D01*
X154760573Y-154161763D01*
X154719667Y-154149355D01*
X154606576Y-154088906D01*
X154606574Y-154088905D01*
X154507447Y-154007553D01*
X154426095Y-153908426D01*
X154419181Y-153895491D01*
X154365645Y-153795333D01*
X154353237Y-153754427D01*
X154328420Y-153672618D01*
X154315851Y-153545000D01*
X154328420Y-153417382D01*
X154365645Y-153294668D01*
X154365645Y-153294667D01*
X154426094Y-153181576D01*
X154426095Y-153181574D01*
X154507447Y-153082447D01*
X154606574Y-153001095D01*
X154610801Y-152997626D01*
X154628128Y-152980299D01*
X154641741Y-152959924D01*
X154651119Y-152937285D01*
X154655899Y-152913251D01*
X154655899Y-152888747D01*
X154651118Y-152864714D01*
X154641741Y-152842075D01*
X154628127Y-152821700D01*
X154610800Y-152804373D01*
X154590425Y-152790760D01*
X154567786Y-152781382D01*
X154531501Y-152776000D01*
X153804000Y-152776000D01*
X153804000Y-145674000D01*
X154531501Y-145674000D01*
X154555887Y-145671598D01*
X154579336Y-145664485D01*
X154600947Y-145652934D01*
X154619889Y-145637388D01*
X154635435Y-145618446D01*
X154646986Y-145596835D01*
X154654099Y-145573386D01*
X154656501Y-145549000D01*
X154654099Y-145524614D01*
X154646986Y-145501165D01*
X154635435Y-145479554D01*
X154610801Y-145452374D01*
X154507447Y-145367553D01*
X154480731Y-145335000D01*
X154426095Y-145268426D01*
X154419181Y-145255491D01*
X154365645Y-145155333D01*
X154353237Y-145114427D01*
X154328420Y-145032618D01*
X154315851Y-144905000D01*
X154328420Y-144777382D01*
X154365645Y-144654668D01*
X154365645Y-144654667D01*
X154426094Y-144541576D01*
X154426095Y-144541574D01*
X154507447Y-144442447D01*
X154606574Y-144361095D01*
X154619509Y-144354181D01*
X154719667Y-144300645D01*
X154760573Y-144288237D01*
X154842382Y-144263420D01*
X154906145Y-144257140D01*
X154938026Y-144254000D01*
X156201974Y-144254000D01*
X156233855Y-144257140D01*
X156233855Y-144257140D01*
G37*
G36*
X150211000Y-153971000D02*
X149509000Y-153971000D01*
X149509000Y-153369000D01*
X150211000Y-153369000D01*
X150211000Y-153971000D01*
X150211000Y-153971000D01*
G37*
G36*
X151311000Y-153971000D02*
X150609000Y-153971000D01*
X150609000Y-153369000D01*
X151311000Y-153369000D01*
X151311000Y-153971000D01*
X151311000Y-153971000D01*
G37*
G36*
X147351000Y-152266000D02*
X144749000Y-152266000D01*
X144749000Y-151264000D01*
X147351000Y-151264000D01*
X147351000Y-152266000D01*
X147351000Y-152266000D01*
G37*
G36*
X151161000Y-152266000D02*
X148559000Y-152266000D01*
X148559000Y-151264000D01*
X151161000Y-151264000D01*
X151161000Y-152266000D01*
X151161000Y-152266000D01*
G37*
G36*
X151161000Y-150996000D02*
X148559000Y-150996000D01*
X148559000Y-149994000D01*
X151161000Y-149994000D01*
X151161000Y-150996000D01*
X151161000Y-150996000D01*
G37*
G36*
X147351000Y-150996000D02*
X144749000Y-150996000D01*
X144749000Y-149994000D01*
X147351000Y-149994000D01*
X147351000Y-150996000D01*
X147351000Y-150996000D01*
G37*
G36*
X151161000Y-149726000D02*
X148559000Y-149726000D01*
X148559000Y-148724000D01*
X151161000Y-148724000D01*
X151161000Y-149726000D01*
X151161000Y-149726000D01*
G37*
G36*
X147351000Y-149726000D02*
X144749000Y-149726000D01*
X144749000Y-148724000D01*
X147351000Y-148724000D01*
X147351000Y-149726000D01*
X147351000Y-149726000D01*
G37*
G36*
X151161000Y-148456000D02*
X148559000Y-148456000D01*
X148559000Y-147454000D01*
X151161000Y-147454000D01*
X151161000Y-148456000D01*
X151161000Y-148456000D01*
G37*
G36*
X147351000Y-148456000D02*
X144749000Y-148456000D01*
X144749000Y-147454000D01*
X147351000Y-147454000D01*
X147351000Y-148456000D01*
X147351000Y-148456000D01*
G37*
G36*
X151161000Y-147186000D02*
X148559000Y-147186000D01*
X148559000Y-146184000D01*
X151161000Y-146184000D01*
X151161000Y-147186000D01*
X151161000Y-147186000D01*
G37*
G36*
X147351000Y-147186000D02*
X144749000Y-147186000D01*
X144749000Y-146184000D01*
X147351000Y-146184000D01*
X147351000Y-147186000D01*
X147351000Y-147186000D01*
G37*
G36*
X160113855Y-144257140D02*
X160177618Y-144263420D01*
X160259427Y-144288237D01*
X160300333Y-144300645D01*
X160400491Y-144354181D01*
X160413426Y-144361095D01*
X160512553Y-144442447D01*
X160593905Y-144541574D01*
X160593906Y-144541576D01*
X160654355Y-144654667D01*
X160654355Y-144654668D01*
X160691580Y-144777382D01*
X160704149Y-144905000D01*
X160691580Y-145032618D01*
X160666763Y-145114427D01*
X160654355Y-145155333D01*
X160600819Y-145255491D01*
X160593905Y-145268426D01*
X160512553Y-145367553D01*
X160413426Y-145448905D01*
X160413424Y-145448906D01*
X160300333Y-145509355D01*
X160259427Y-145521763D01*
X160177618Y-145546580D01*
X160113855Y-145552860D01*
X160081974Y-145556000D01*
X159418026Y-145556000D01*
X159386145Y-145552860D01*
X159322382Y-145546580D01*
X159240573Y-145521763D01*
X159199667Y-145509355D01*
X159086576Y-145448906D01*
X159086574Y-145448905D01*
X158987447Y-145367553D01*
X158906095Y-145268426D01*
X158899181Y-145255491D01*
X158845645Y-145155333D01*
X158833237Y-145114427D01*
X158808420Y-145032618D01*
X158795851Y-144905000D01*
X158808420Y-144777382D01*
X158845645Y-144654668D01*
X158845645Y-144654667D01*
X158906094Y-144541576D01*
X158906095Y-144541574D01*
X158987447Y-144442447D01*
X159086574Y-144361095D01*
X159099509Y-144354181D01*
X159199667Y-144300645D01*
X159240573Y-144288237D01*
X159322382Y-144263420D01*
X159386145Y-144257140D01*
X159418026Y-144254000D01*
X160081974Y-144254000D01*
X160113855Y-144257140D01*
X160113855Y-144257140D01*
G37*
G36*
X147967000Y-145335000D02*
X147265000Y-145335000D01*
X147265000Y-144733000D01*
X147967000Y-144733000D01*
X147967000Y-145335000D01*
X147967000Y-145335000D01*
G37*
G36*
X146867000Y-145335000D02*
X146165000Y-145335000D01*
X146165000Y-144733000D01*
X146867000Y-144733000D01*
X146867000Y-145335000D01*
X146867000Y-145335000D01*
G37*
G36*
X151786305Y-144611608D02*
X151084305Y-144611608D01*
X151084305Y-144009608D01*
X151786305Y-144009608D01*
X151786305Y-144611608D01*
X151786305Y-144611608D01*
G37*
G36*
X150686305Y-144611608D02*
X149984305Y-144611608D01*
X149984305Y-144009608D01*
X150686305Y-144009608D01*
X150686305Y-144611608D01*
X150686305Y-144611608D01*
G37*
G36*
X145859000Y-143561000D02*
X144741000Y-143561000D01*
X144741000Y-140919000D01*
X145859000Y-140919000D01*
X145859000Y-143561000D01*
X145859000Y-143561000D01*
G37*
G36*
X158559000Y-143561000D02*
X157441000Y-143561000D01*
X157441000Y-140919000D01*
X158559000Y-140919000D01*
X158559000Y-143561000D01*
X158559000Y-143561000D01*
G37*
G36*
X156019000Y-143561000D02*
X154901000Y-143561000D01*
X154901000Y-140919000D01*
X156019000Y-140919000D01*
X156019000Y-143561000D01*
X156019000Y-143561000D01*
G37*
G36*
X153479000Y-143561000D02*
X152361000Y-143561000D01*
X152361000Y-140919000D01*
X153479000Y-140919000D01*
X153479000Y-143561000D01*
X153479000Y-143561000D01*
G37*
G36*
X150939000Y-143561000D02*
X149821000Y-143561000D01*
X149821000Y-140919000D01*
X150939000Y-140919000D01*
X150939000Y-143561000D01*
X150939000Y-143561000D01*
G37*
G36*
X148399000Y-143561000D02*
X147281000Y-143561000D01*
X147281000Y-140919000D01*
X148399000Y-140919000D01*
X148399000Y-143561000D01*
X148399000Y-143561000D01*
G37*
G36*
X156019000Y-138481000D02*
X154901000Y-138481000D01*
X154901000Y-135839000D01*
X156019000Y-135839000D01*
X156019000Y-138481000D01*
X156019000Y-138481000D01*
G37*
G36*
X145859000Y-138481000D02*
X144741000Y-138481000D01*
X144741000Y-135839000D01*
X145859000Y-135839000D01*
X145859000Y-138481000D01*
X145859000Y-138481000D01*
G37*
G36*
X158559000Y-138481000D02*
X157441000Y-138481000D01*
X157441000Y-135839000D01*
X158559000Y-135839000D01*
X158559000Y-138481000D01*
X158559000Y-138481000D01*
G37*
G36*
X148399000Y-138481000D02*
X147281000Y-138481000D01*
X147281000Y-135839000D01*
X148399000Y-135839000D01*
X148399000Y-138481000D01*
X148399000Y-138481000D01*
G37*
G36*
X153479000Y-138481000D02*
X152361000Y-138481000D01*
X152361000Y-135839000D01*
X153479000Y-135839000D01*
X153479000Y-138481000D01*
X153479000Y-138481000D01*
G37*
G36*
X150939000Y-138481000D02*
X149821000Y-138481000D01*
X149821000Y-135839000D01*
X150939000Y-135839000D01*
X150939000Y-138481000D01*
X150939000Y-138481000D01*
G37*
M02*
