G04 #@! TF.GenerationSoftware,KiCad,Pcbnew,6.0.8-f2edbf62ab~116~ubuntu22.04.1*
G04 #@! TF.CreationDate,2022-11-21T14:05:37-08:00*
G04 #@! TF.ProjectId,pmod-button,706d6f64-2d62-4757-9474-6f6e2e6b6963,rev?*
G04 #@! TF.SameCoordinates,Original*
G04 #@! TF.FileFunction,Legend,Top*
G04 #@! TF.FilePolarity,Positive*
%FSLAX46Y46*%
G04 Gerber Fmt 4.6, Leading zero omitted, Abs format (unit mm)*
G04 Created by KiCad (PCBNEW 6.0.8-f2edbf62ab~116~ubuntu22.04.1) date 2022-11-21 14:05:37*
%MOMM*%
%LPD*%
G01*
G04 APERTURE LIST*
%ADD10C,0.350000*%
%ADD11C,0.150000*%
%ADD12C,0.200000*%
%ADD13C,0.120000*%
%ADD14C,1.000000*%
G04 APERTURE END LIST*
D10*
X196365714Y-120455428D02*
X196222857Y-120455428D01*
X196080000Y-120384000D01*
X196008571Y-120312571D01*
X195937142Y-120169714D01*
X195865714Y-119884000D01*
X195865714Y-119526857D01*
X195937142Y-119241142D01*
X196008571Y-119098285D01*
X196080000Y-119026857D01*
X196222857Y-118955428D01*
X196365714Y-118955428D01*
X196508571Y-119026857D01*
X196580000Y-119098285D01*
X196651428Y-119241142D01*
X196722857Y-119526857D01*
X196722857Y-119884000D01*
X196651428Y-120169714D01*
X196580000Y-120312571D01*
X196508571Y-120384000D01*
X196365714Y-120455428D01*
X194437142Y-118955428D02*
X195294285Y-118955428D01*
X194865714Y-118955428D02*
X194865714Y-120455428D01*
X195008571Y-120241142D01*
X195151428Y-120098285D01*
X195294285Y-120026857D01*
X183665714Y-120455428D02*
X183522857Y-120455428D01*
X183380000Y-120384000D01*
X183308571Y-120312571D01*
X183237142Y-120169714D01*
X183165714Y-119884000D01*
X183165714Y-119526857D01*
X183237142Y-119241142D01*
X183308571Y-119098285D01*
X183380000Y-119026857D01*
X183522857Y-118955428D01*
X183665714Y-118955428D01*
X183808571Y-119026857D01*
X183880000Y-119098285D01*
X183951428Y-119241142D01*
X184022857Y-119526857D01*
X184022857Y-119884000D01*
X183951428Y-120169714D01*
X183880000Y-120312571D01*
X183808571Y-120384000D01*
X183665714Y-120455428D01*
X182594285Y-120312571D02*
X182522857Y-120384000D01*
X182380000Y-120455428D01*
X182022857Y-120455428D01*
X181880000Y-120384000D01*
X181808571Y-120312571D01*
X181737142Y-120169714D01*
X181737142Y-120026857D01*
X181808571Y-119812571D01*
X182665714Y-118955428D01*
X181737142Y-118955428D01*
X170965714Y-120455428D02*
X170822857Y-120455428D01*
X170680000Y-120384000D01*
X170608571Y-120312571D01*
X170537142Y-120169714D01*
X170465714Y-119884000D01*
X170465714Y-119526857D01*
X170537142Y-119241142D01*
X170608571Y-119098285D01*
X170680000Y-119026857D01*
X170822857Y-118955428D01*
X170965714Y-118955428D01*
X171108571Y-119026857D01*
X171180000Y-119098285D01*
X171251428Y-119241142D01*
X171322857Y-119526857D01*
X171322857Y-119884000D01*
X171251428Y-120169714D01*
X171180000Y-120312571D01*
X171108571Y-120384000D01*
X170965714Y-120455428D01*
X169180000Y-119955428D02*
X169180000Y-118955428D01*
X169537142Y-120526857D02*
X169894285Y-119455428D01*
X168965714Y-119455428D01*
X158265714Y-120455428D02*
X158122857Y-120455428D01*
X157980000Y-120384000D01*
X157908571Y-120312571D01*
X157837142Y-120169714D01*
X157765714Y-119884000D01*
X157765714Y-119526857D01*
X157837142Y-119241142D01*
X157908571Y-119098285D01*
X157980000Y-119026857D01*
X158122857Y-118955428D01*
X158265714Y-118955428D01*
X158408571Y-119026857D01*
X158480000Y-119098285D01*
X158551428Y-119241142D01*
X158622857Y-119526857D01*
X158622857Y-119884000D01*
X158551428Y-120169714D01*
X158480000Y-120312571D01*
X158408571Y-120384000D01*
X158265714Y-120455428D01*
X156908571Y-119812571D02*
X157051428Y-119884000D01*
X157122857Y-119955428D01*
X157194285Y-120098285D01*
X157194285Y-120169714D01*
X157122857Y-120312571D01*
X157051428Y-120384000D01*
X156908571Y-120455428D01*
X156622857Y-120455428D01*
X156480000Y-120384000D01*
X156408571Y-120312571D01*
X156337142Y-120169714D01*
X156337142Y-120098285D01*
X156408571Y-119955428D01*
X156480000Y-119884000D01*
X156622857Y-119812571D01*
X156908571Y-119812571D01*
X157051428Y-119741142D01*
X157122857Y-119669714D01*
X157194285Y-119526857D01*
X157194285Y-119241142D01*
X157122857Y-119098285D01*
X157051428Y-119026857D01*
X156908571Y-118955428D01*
X156622857Y-118955428D01*
X156480000Y-119026857D01*
X156408571Y-119098285D01*
X156337142Y-119241142D01*
X156337142Y-119526857D01*
X156408571Y-119669714D01*
X156480000Y-119741142D01*
X156622857Y-119812571D01*
X145065714Y-118955428D02*
X145922857Y-118955428D01*
X145494285Y-118955428D02*
X145494285Y-120455428D01*
X145637142Y-120241142D01*
X145780000Y-120098285D01*
X145922857Y-120026857D01*
X144137142Y-120455428D02*
X143994285Y-120455428D01*
X143851428Y-120384000D01*
X143780000Y-120312571D01*
X143708571Y-120169714D01*
X143637142Y-119884000D01*
X143637142Y-119526857D01*
X143708571Y-119241142D01*
X143780000Y-119098285D01*
X143851428Y-119026857D01*
X143994285Y-118955428D01*
X144137142Y-118955428D01*
X144280000Y-119026857D01*
X144351428Y-119098285D01*
X144422857Y-119241142D01*
X144494285Y-119526857D01*
X144494285Y-119884000D01*
X144422857Y-120169714D01*
X144351428Y-120312571D01*
X144280000Y-120384000D01*
X144137142Y-120455428D01*
X133222857Y-120312571D02*
X133151428Y-120384000D01*
X133008571Y-120455428D01*
X132651428Y-120455428D01*
X132508571Y-120384000D01*
X132437142Y-120312571D01*
X132365714Y-120169714D01*
X132365714Y-120026857D01*
X132437142Y-119812571D01*
X133294285Y-118955428D01*
X132365714Y-118955428D01*
X131437142Y-120455428D02*
X131294285Y-120455428D01*
X131151428Y-120384000D01*
X131080000Y-120312571D01*
X131008571Y-120169714D01*
X130937142Y-119884000D01*
X130937142Y-119526857D01*
X131008571Y-119241142D01*
X131080000Y-119098285D01*
X131151428Y-119026857D01*
X131294285Y-118955428D01*
X131437142Y-118955428D01*
X131580000Y-119026857D01*
X131651428Y-119098285D01*
X131722857Y-119241142D01*
X131794285Y-119526857D01*
X131794285Y-119884000D01*
X131722857Y-120169714D01*
X131651428Y-120312571D01*
X131580000Y-120384000D01*
X131437142Y-120455428D01*
X119808571Y-119955428D02*
X119808571Y-118955428D01*
X120165714Y-120526857D02*
X120522857Y-119455428D01*
X119594285Y-119455428D01*
X118737142Y-120455428D02*
X118594285Y-120455428D01*
X118451428Y-120384000D01*
X118380000Y-120312571D01*
X118308571Y-120169714D01*
X118237142Y-119884000D01*
X118237142Y-119526857D01*
X118308571Y-119241142D01*
X118380000Y-119098285D01*
X118451428Y-119026857D01*
X118594285Y-118955428D01*
X118737142Y-118955428D01*
X118880000Y-119026857D01*
X118951428Y-119098285D01*
X119022857Y-119241142D01*
X119094285Y-119526857D01*
X119094285Y-119884000D01*
X119022857Y-120169714D01*
X118951428Y-120312571D01*
X118880000Y-120384000D01*
X118737142Y-120455428D01*
X107537142Y-119812571D02*
X107680000Y-119884000D01*
X107751428Y-119955428D01*
X107822857Y-120098285D01*
X107822857Y-120169714D01*
X107751428Y-120312571D01*
X107680000Y-120384000D01*
X107537142Y-120455428D01*
X107251428Y-120455428D01*
X107108571Y-120384000D01*
X107037142Y-120312571D01*
X106965714Y-120169714D01*
X106965714Y-120098285D01*
X107037142Y-119955428D01*
X107108571Y-119884000D01*
X107251428Y-119812571D01*
X107537142Y-119812571D01*
X107680000Y-119741142D01*
X107751428Y-119669714D01*
X107822857Y-119526857D01*
X107822857Y-119241142D01*
X107751428Y-119098285D01*
X107680000Y-119026857D01*
X107537142Y-118955428D01*
X107251428Y-118955428D01*
X107108571Y-119026857D01*
X107037142Y-119098285D01*
X106965714Y-119241142D01*
X106965714Y-119526857D01*
X107037142Y-119669714D01*
X107108571Y-119741142D01*
X107251428Y-119812571D01*
X106037142Y-120455428D02*
X105894285Y-120455428D01*
X105751428Y-120384000D01*
X105680000Y-120312571D01*
X105608571Y-120169714D01*
X105537142Y-119884000D01*
X105537142Y-119526857D01*
X105608571Y-119241142D01*
X105680000Y-119098285D01*
X105751428Y-119026857D01*
X105894285Y-118955428D01*
X106037142Y-118955428D01*
X106180000Y-119026857D01*
X106251428Y-119098285D01*
X106322857Y-119241142D01*
X106394285Y-119526857D01*
X106394285Y-119884000D01*
X106322857Y-120169714D01*
X106251428Y-120312571D01*
X106180000Y-120384000D01*
X106037142Y-120455428D01*
X105822857Y-134187428D02*
X105680000Y-134116000D01*
X105608571Y-134044571D01*
X105537142Y-133901714D01*
X105537142Y-133830285D01*
X105608571Y-133687428D01*
X105680000Y-133616000D01*
X105822857Y-133544571D01*
X106108571Y-133544571D01*
X106251428Y-133616000D01*
X106322857Y-133687428D01*
X106394285Y-133830285D01*
X106394285Y-133901714D01*
X106322857Y-134044571D01*
X106251428Y-134116000D01*
X106108571Y-134187428D01*
X105822857Y-134187428D01*
X105680000Y-134258857D01*
X105608571Y-134330285D01*
X105537142Y-134473142D01*
X105537142Y-134758857D01*
X105608571Y-134901714D01*
X105680000Y-134973142D01*
X105822857Y-135044571D01*
X106108571Y-135044571D01*
X106251428Y-134973142D01*
X106322857Y-134901714D01*
X106394285Y-134758857D01*
X106394285Y-134473142D01*
X106322857Y-134330285D01*
X106251428Y-134258857D01*
X106108571Y-134187428D01*
X107322857Y-133544571D02*
X107465714Y-133544571D01*
X107608571Y-133616000D01*
X107680000Y-133687428D01*
X107751428Y-133830285D01*
X107822857Y-134116000D01*
X107822857Y-134473142D01*
X107751428Y-134758857D01*
X107680000Y-134901714D01*
X107608571Y-134973142D01*
X107465714Y-135044571D01*
X107322857Y-135044571D01*
X107180000Y-134973142D01*
X107108571Y-134901714D01*
X107037142Y-134758857D01*
X106965714Y-134473142D01*
X106965714Y-134116000D01*
X107037142Y-133830285D01*
X107108571Y-133687428D01*
X107180000Y-133616000D01*
X107322857Y-133544571D01*
X118951428Y-134044571D02*
X118951428Y-135044571D01*
X118594285Y-133473142D02*
X118237142Y-134544571D01*
X119165714Y-134544571D01*
X120022857Y-133544571D02*
X120165714Y-133544571D01*
X120308571Y-133616000D01*
X120380000Y-133687428D01*
X120451428Y-133830285D01*
X120522857Y-134116000D01*
X120522857Y-134473142D01*
X120451428Y-134758857D01*
X120380000Y-134901714D01*
X120308571Y-134973142D01*
X120165714Y-135044571D01*
X120022857Y-135044571D01*
X119880000Y-134973142D01*
X119808571Y-134901714D01*
X119737142Y-134758857D01*
X119665714Y-134473142D01*
X119665714Y-134116000D01*
X119737142Y-133830285D01*
X119808571Y-133687428D01*
X119880000Y-133616000D01*
X120022857Y-133544571D01*
X130937142Y-133687428D02*
X131008571Y-133616000D01*
X131151428Y-133544571D01*
X131508571Y-133544571D01*
X131651428Y-133616000D01*
X131722857Y-133687428D01*
X131794285Y-133830285D01*
X131794285Y-133973142D01*
X131722857Y-134187428D01*
X130865714Y-135044571D01*
X131794285Y-135044571D01*
X132722857Y-133544571D02*
X132865714Y-133544571D01*
X133008571Y-133616000D01*
X133080000Y-133687428D01*
X133151428Y-133830285D01*
X133222857Y-134116000D01*
X133222857Y-134473142D01*
X133151428Y-134758857D01*
X133080000Y-134901714D01*
X133008571Y-134973142D01*
X132865714Y-135044571D01*
X132722857Y-135044571D01*
X132580000Y-134973142D01*
X132508571Y-134901714D01*
X132437142Y-134758857D01*
X132365714Y-134473142D01*
X132365714Y-134116000D01*
X132437142Y-133830285D01*
X132508571Y-133687428D01*
X132580000Y-133616000D01*
X132722857Y-133544571D01*
X144494285Y-135044571D02*
X143637142Y-135044571D01*
X144065714Y-135044571D02*
X144065714Y-133544571D01*
X143922857Y-133758857D01*
X143780000Y-133901714D01*
X143637142Y-133973142D01*
X145422857Y-133544571D02*
X145565714Y-133544571D01*
X145708571Y-133616000D01*
X145780000Y-133687428D01*
X145851428Y-133830285D01*
X145922857Y-134116000D01*
X145922857Y-134473142D01*
X145851428Y-134758857D01*
X145780000Y-134901714D01*
X145708571Y-134973142D01*
X145565714Y-135044571D01*
X145422857Y-135044571D01*
X145280000Y-134973142D01*
X145208571Y-134901714D01*
X145137142Y-134758857D01*
X145065714Y-134473142D01*
X145065714Y-134116000D01*
X145137142Y-133830285D01*
X145208571Y-133687428D01*
X145280000Y-133616000D01*
X145422857Y-133544571D01*
X156694285Y-133544571D02*
X156837142Y-133544571D01*
X156980000Y-133616000D01*
X157051428Y-133687428D01*
X157122857Y-133830285D01*
X157194285Y-134116000D01*
X157194285Y-134473142D01*
X157122857Y-134758857D01*
X157051428Y-134901714D01*
X156980000Y-134973142D01*
X156837142Y-135044571D01*
X156694285Y-135044571D01*
X156551428Y-134973142D01*
X156480000Y-134901714D01*
X156408571Y-134758857D01*
X156337142Y-134473142D01*
X156337142Y-134116000D01*
X156408571Y-133830285D01*
X156480000Y-133687428D01*
X156551428Y-133616000D01*
X156694285Y-133544571D01*
X158051428Y-134187428D02*
X157908571Y-134116000D01*
X157837142Y-134044571D01*
X157765714Y-133901714D01*
X157765714Y-133830285D01*
X157837142Y-133687428D01*
X157908571Y-133616000D01*
X158051428Y-133544571D01*
X158337142Y-133544571D01*
X158480000Y-133616000D01*
X158551428Y-133687428D01*
X158622857Y-133830285D01*
X158622857Y-133901714D01*
X158551428Y-134044571D01*
X158480000Y-134116000D01*
X158337142Y-134187428D01*
X158051428Y-134187428D01*
X157908571Y-134258857D01*
X157837142Y-134330285D01*
X157765714Y-134473142D01*
X157765714Y-134758857D01*
X157837142Y-134901714D01*
X157908571Y-134973142D01*
X158051428Y-135044571D01*
X158337142Y-135044571D01*
X158480000Y-134973142D01*
X158551428Y-134901714D01*
X158622857Y-134758857D01*
X158622857Y-134473142D01*
X158551428Y-134330285D01*
X158480000Y-134258857D01*
X158337142Y-134187428D01*
X169394285Y-133544571D02*
X169537142Y-133544571D01*
X169680000Y-133616000D01*
X169751428Y-133687428D01*
X169822857Y-133830285D01*
X169894285Y-134116000D01*
X169894285Y-134473142D01*
X169822857Y-134758857D01*
X169751428Y-134901714D01*
X169680000Y-134973142D01*
X169537142Y-135044571D01*
X169394285Y-135044571D01*
X169251428Y-134973142D01*
X169180000Y-134901714D01*
X169108571Y-134758857D01*
X169037142Y-134473142D01*
X169037142Y-134116000D01*
X169108571Y-133830285D01*
X169180000Y-133687428D01*
X169251428Y-133616000D01*
X169394285Y-133544571D01*
X171180000Y-134044571D02*
X171180000Y-135044571D01*
X170822857Y-133473142D02*
X170465714Y-134544571D01*
X171394285Y-134544571D01*
X182094285Y-133544571D02*
X182237142Y-133544571D01*
X182380000Y-133616000D01*
X182451428Y-133687428D01*
X182522857Y-133830285D01*
X182594285Y-134116000D01*
X182594285Y-134473142D01*
X182522857Y-134758857D01*
X182451428Y-134901714D01*
X182380000Y-134973142D01*
X182237142Y-135044571D01*
X182094285Y-135044571D01*
X181951428Y-134973142D01*
X181880000Y-134901714D01*
X181808571Y-134758857D01*
X181737142Y-134473142D01*
X181737142Y-134116000D01*
X181808571Y-133830285D01*
X181880000Y-133687428D01*
X181951428Y-133616000D01*
X182094285Y-133544571D01*
X183165714Y-133687428D02*
X183237142Y-133616000D01*
X183380000Y-133544571D01*
X183737142Y-133544571D01*
X183880000Y-133616000D01*
X183951428Y-133687428D01*
X184022857Y-133830285D01*
X184022857Y-133973142D01*
X183951428Y-134187428D01*
X183094285Y-135044571D01*
X184022857Y-135044571D01*
X194794285Y-133544571D02*
X194937142Y-133544571D01*
X195080000Y-133616000D01*
X195151428Y-133687428D01*
X195222857Y-133830285D01*
X195294285Y-134116000D01*
X195294285Y-134473142D01*
X195222857Y-134758857D01*
X195151428Y-134901714D01*
X195080000Y-134973142D01*
X194937142Y-135044571D01*
X194794285Y-135044571D01*
X194651428Y-134973142D01*
X194580000Y-134901714D01*
X194508571Y-134758857D01*
X194437142Y-134473142D01*
X194437142Y-134116000D01*
X194508571Y-133830285D01*
X194580000Y-133687428D01*
X194651428Y-133616000D01*
X194794285Y-133544571D01*
X196722857Y-135044571D02*
X195865714Y-135044571D01*
X196294285Y-135044571D02*
X196294285Y-133544571D01*
X196151428Y-133758857D01*
X196008571Y-133901714D01*
X195865714Y-133973142D01*
D11*
G04 #@! TO.C,D1*
X99512380Y-124690095D02*
X98512380Y-124690095D01*
X98512380Y-124452000D01*
X98560000Y-124309142D01*
X98655238Y-124213904D01*
X98750476Y-124166285D01*
X98940952Y-124118666D01*
X99083809Y-124118666D01*
X99274285Y-124166285D01*
X99369523Y-124213904D01*
X99464761Y-124309142D01*
X99512380Y-124452000D01*
X99512380Y-124690095D01*
X99512380Y-123166285D02*
X99512380Y-123737714D01*
X99512380Y-123452000D02*
X98512380Y-123452000D01*
X98655238Y-123547238D01*
X98750476Y-123642476D01*
X98798095Y-123737714D01*
G04 #@! TO.C,SW6*
X132484761Y-128333333D02*
X132532380Y-128190476D01*
X132532380Y-127952380D01*
X132484761Y-127857142D01*
X132437142Y-127809523D01*
X132341904Y-127761904D01*
X132246666Y-127761904D01*
X132151428Y-127809523D01*
X132103809Y-127857142D01*
X132056190Y-127952380D01*
X132008571Y-128142857D01*
X131960952Y-128238095D01*
X131913333Y-128285714D01*
X131818095Y-128333333D01*
X131722857Y-128333333D01*
X131627619Y-128285714D01*
X131580000Y-128238095D01*
X131532380Y-128142857D01*
X131532380Y-127904761D01*
X131580000Y-127761904D01*
X131532380Y-127428571D02*
X132532380Y-127190476D01*
X131818095Y-127000000D01*
X132532380Y-126809523D01*
X131532380Y-126571428D01*
X131532380Y-125761904D02*
X131532380Y-125952380D01*
X131580000Y-126047619D01*
X131627619Y-126095238D01*
X131770476Y-126190476D01*
X131960952Y-126238095D01*
X132341904Y-126238095D01*
X132437142Y-126190476D01*
X132484761Y-126142857D01*
X132532380Y-126047619D01*
X132532380Y-125857142D01*
X132484761Y-125761904D01*
X132437142Y-125714285D01*
X132341904Y-125666666D01*
X132103809Y-125666666D01*
X132008571Y-125714285D01*
X131960952Y-125761904D01*
X131913333Y-125857142D01*
X131913333Y-126047619D01*
X131960952Y-126142857D01*
X132008571Y-126190476D01*
X132103809Y-126238095D01*
G04 #@! TO.C,SW5*
X145184761Y-128333333D02*
X145232380Y-128190476D01*
X145232380Y-127952380D01*
X145184761Y-127857142D01*
X145137142Y-127809523D01*
X145041904Y-127761904D01*
X144946666Y-127761904D01*
X144851428Y-127809523D01*
X144803809Y-127857142D01*
X144756190Y-127952380D01*
X144708571Y-128142857D01*
X144660952Y-128238095D01*
X144613333Y-128285714D01*
X144518095Y-128333333D01*
X144422857Y-128333333D01*
X144327619Y-128285714D01*
X144280000Y-128238095D01*
X144232380Y-128142857D01*
X144232380Y-127904761D01*
X144280000Y-127761904D01*
X144232380Y-127428571D02*
X145232380Y-127190476D01*
X144518095Y-127000000D01*
X145232380Y-126809523D01*
X144232380Y-126571428D01*
X144232380Y-125714285D02*
X144232380Y-126190476D01*
X144708571Y-126238095D01*
X144660952Y-126190476D01*
X144613333Y-126095238D01*
X144613333Y-125857142D01*
X144660952Y-125761904D01*
X144708571Y-125714285D01*
X144803809Y-125666666D01*
X145041904Y-125666666D01*
X145137142Y-125714285D01*
X145184761Y-125761904D01*
X145232380Y-125857142D01*
X145232380Y-126095238D01*
X145184761Y-126190476D01*
X145137142Y-126238095D01*
G04 #@! TO.C,SW1*
X195984761Y-128333333D02*
X196032380Y-128190476D01*
X196032380Y-127952380D01*
X195984761Y-127857142D01*
X195937142Y-127809523D01*
X195841904Y-127761904D01*
X195746666Y-127761904D01*
X195651428Y-127809523D01*
X195603809Y-127857142D01*
X195556190Y-127952380D01*
X195508571Y-128142857D01*
X195460952Y-128238095D01*
X195413333Y-128285714D01*
X195318095Y-128333333D01*
X195222857Y-128333333D01*
X195127619Y-128285714D01*
X195080000Y-128238095D01*
X195032380Y-128142857D01*
X195032380Y-127904761D01*
X195080000Y-127761904D01*
X195032380Y-127428571D02*
X196032380Y-127190476D01*
X195318095Y-127000000D01*
X196032380Y-126809523D01*
X195032380Y-126571428D01*
X196032380Y-125666666D02*
X196032380Y-126238095D01*
X196032380Y-125952380D02*
X195032380Y-125952380D01*
X195175238Y-126047619D01*
X195270476Y-126142857D01*
X195318095Y-126238095D01*
G04 #@! TO.C,SW4*
X157884761Y-128333333D02*
X157932380Y-128190476D01*
X157932380Y-127952380D01*
X157884761Y-127857142D01*
X157837142Y-127809523D01*
X157741904Y-127761904D01*
X157646666Y-127761904D01*
X157551428Y-127809523D01*
X157503809Y-127857142D01*
X157456190Y-127952380D01*
X157408571Y-128142857D01*
X157360952Y-128238095D01*
X157313333Y-128285714D01*
X157218095Y-128333333D01*
X157122857Y-128333333D01*
X157027619Y-128285714D01*
X156980000Y-128238095D01*
X156932380Y-128142857D01*
X156932380Y-127904761D01*
X156980000Y-127761904D01*
X156932380Y-127428571D02*
X157932380Y-127190476D01*
X157218095Y-127000000D01*
X157932380Y-126809523D01*
X156932380Y-126571428D01*
X157265714Y-125761904D02*
X157932380Y-125761904D01*
X156884761Y-126000000D02*
X157599047Y-126238095D01*
X157599047Y-125619047D01*
G04 #@! TO.C,SW7*
X119784761Y-128333333D02*
X119832380Y-128190476D01*
X119832380Y-127952380D01*
X119784761Y-127857142D01*
X119737142Y-127809523D01*
X119641904Y-127761904D01*
X119546666Y-127761904D01*
X119451428Y-127809523D01*
X119403809Y-127857142D01*
X119356190Y-127952380D01*
X119308571Y-128142857D01*
X119260952Y-128238095D01*
X119213333Y-128285714D01*
X119118095Y-128333333D01*
X119022857Y-128333333D01*
X118927619Y-128285714D01*
X118880000Y-128238095D01*
X118832380Y-128142857D01*
X118832380Y-127904761D01*
X118880000Y-127761904D01*
X118832380Y-127428571D02*
X119832380Y-127190476D01*
X119118095Y-127000000D01*
X119832380Y-126809523D01*
X118832380Y-126571428D01*
X118832380Y-126285714D02*
X118832380Y-125619047D01*
X119832380Y-126047619D01*
G04 #@! TO.C,SW2*
X183284761Y-128333333D02*
X183332380Y-128190476D01*
X183332380Y-127952380D01*
X183284761Y-127857142D01*
X183237142Y-127809523D01*
X183141904Y-127761904D01*
X183046666Y-127761904D01*
X182951428Y-127809523D01*
X182903809Y-127857142D01*
X182856190Y-127952380D01*
X182808571Y-128142857D01*
X182760952Y-128238095D01*
X182713333Y-128285714D01*
X182618095Y-128333333D01*
X182522857Y-128333333D01*
X182427619Y-128285714D01*
X182380000Y-128238095D01*
X182332380Y-128142857D01*
X182332380Y-127904761D01*
X182380000Y-127761904D01*
X182332380Y-127428571D02*
X183332380Y-127190476D01*
X182618095Y-127000000D01*
X183332380Y-126809523D01*
X182332380Y-126571428D01*
X182427619Y-126238095D02*
X182380000Y-126190476D01*
X182332380Y-126095238D01*
X182332380Y-125857142D01*
X182380000Y-125761904D01*
X182427619Y-125714285D01*
X182522857Y-125666666D01*
X182618095Y-125666666D01*
X182760952Y-125714285D01*
X183332380Y-126285714D01*
X183332380Y-125666666D01*
G04 #@! TO.C,SW3*
X170584761Y-128333333D02*
X170632380Y-128190476D01*
X170632380Y-127952380D01*
X170584761Y-127857142D01*
X170537142Y-127809523D01*
X170441904Y-127761904D01*
X170346666Y-127761904D01*
X170251428Y-127809523D01*
X170203809Y-127857142D01*
X170156190Y-127952380D01*
X170108571Y-128142857D01*
X170060952Y-128238095D01*
X170013333Y-128285714D01*
X169918095Y-128333333D01*
X169822857Y-128333333D01*
X169727619Y-128285714D01*
X169680000Y-128238095D01*
X169632380Y-128142857D01*
X169632380Y-127904761D01*
X169680000Y-127761904D01*
X169632380Y-127428571D02*
X170632380Y-127190476D01*
X169918095Y-127000000D01*
X170632380Y-126809523D01*
X169632380Y-126571428D01*
X169632380Y-126285714D02*
X169632380Y-125666666D01*
X170013333Y-126000000D01*
X170013333Y-125857142D01*
X170060952Y-125761904D01*
X170108571Y-125714285D01*
X170203809Y-125666666D01*
X170441904Y-125666666D01*
X170537142Y-125714285D01*
X170584761Y-125761904D01*
X170632380Y-125857142D01*
X170632380Y-126142857D01*
X170584761Y-126238095D01*
X170537142Y-126285714D01*
G04 #@! TO.C,SW8*
X107084761Y-128333333D02*
X107132380Y-128190476D01*
X107132380Y-127952380D01*
X107084761Y-127857142D01*
X107037142Y-127809523D01*
X106941904Y-127761904D01*
X106846666Y-127761904D01*
X106751428Y-127809523D01*
X106703809Y-127857142D01*
X106656190Y-127952380D01*
X106608571Y-128142857D01*
X106560952Y-128238095D01*
X106513333Y-128285714D01*
X106418095Y-128333333D01*
X106322857Y-128333333D01*
X106227619Y-128285714D01*
X106180000Y-128238095D01*
X106132380Y-128142857D01*
X106132380Y-127904761D01*
X106180000Y-127761904D01*
X106132380Y-127428571D02*
X107132380Y-127190476D01*
X106418095Y-127000000D01*
X107132380Y-126809523D01*
X106132380Y-126571428D01*
X106560952Y-126047619D02*
X106513333Y-126142857D01*
X106465714Y-126190476D01*
X106370476Y-126238095D01*
X106322857Y-126238095D01*
X106227619Y-126190476D01*
X106180000Y-126142857D01*
X106132380Y-126047619D01*
X106132380Y-125857142D01*
X106180000Y-125761904D01*
X106227619Y-125714285D01*
X106322857Y-125666666D01*
X106370476Y-125666666D01*
X106465714Y-125714285D01*
X106513333Y-125761904D01*
X106560952Y-125857142D01*
X106560952Y-126047619D01*
X106608571Y-126142857D01*
X106656190Y-126190476D01*
X106751428Y-126238095D01*
X106941904Y-126238095D01*
X107037142Y-126190476D01*
X107084761Y-126142857D01*
X107132380Y-126047619D01*
X107132380Y-125857142D01*
X107084761Y-125761904D01*
X107037142Y-125714285D01*
X106941904Y-125666666D01*
X106751428Y-125666666D01*
X106656190Y-125714285D01*
X106608571Y-125761904D01*
X106560952Y-125857142D01*
G04 #@! TO.C,R9*
X97862380Y-132246666D02*
X97386190Y-132580000D01*
X97862380Y-132818095D02*
X96862380Y-132818095D01*
X96862380Y-132437142D01*
X96910000Y-132341904D01*
X96957619Y-132294285D01*
X97052857Y-132246666D01*
X97195714Y-132246666D01*
X97290952Y-132294285D01*
X97338571Y-132341904D01*
X97386190Y-132437142D01*
X97386190Y-132818095D01*
X97862380Y-131770476D02*
X97862380Y-131580000D01*
X97814761Y-131484761D01*
X97767142Y-131437142D01*
X97624285Y-131341904D01*
X97433809Y-131294285D01*
X97052857Y-131294285D01*
X96957619Y-131341904D01*
X96910000Y-131389523D01*
X96862380Y-131484761D01*
X96862380Y-131675238D01*
X96910000Y-131770476D01*
X96957619Y-131818095D01*
X97052857Y-131865714D01*
X97290952Y-131865714D01*
X97386190Y-131818095D01*
X97433809Y-131770476D01*
X97481428Y-131675238D01*
X97481428Y-131484761D01*
X97433809Y-131389523D01*
X97386190Y-131341904D01*
X97290952Y-131294285D01*
G04 #@! TO.C,J1*
X93432380Y-127333333D02*
X94146666Y-127333333D01*
X94289523Y-127380952D01*
X94384761Y-127476190D01*
X94432380Y-127619047D01*
X94432380Y-127714285D01*
X94432380Y-126333333D02*
X94432380Y-126904761D01*
X94432380Y-126619047D02*
X93432380Y-126619047D01*
X93575238Y-126714285D01*
X93670476Y-126809523D01*
X93718095Y-126904761D01*
D12*
G04 #@! TO.C,D1*
X100060000Y-130500000D02*
X98060000Y-130500000D01*
D13*
X98100000Y-125140000D02*
X98100000Y-128000000D01*
X100020000Y-128000000D02*
X100020000Y-125140000D01*
D12*
X99060000Y-129000000D02*
X99060000Y-130500000D01*
D13*
X100020000Y-125140000D02*
X98100000Y-125140000D01*
G04 #@! TO.C,SW6*
X125930000Y-122400000D02*
X125930000Y-131600000D01*
X133630000Y-133200000D02*
X130530000Y-133200000D01*
X127480000Y-120800000D02*
X125930000Y-122400000D01*
X133630000Y-120800000D02*
X130530000Y-120800000D01*
X138230000Y-131600000D02*
X136680000Y-133200000D01*
X135530000Y-120800000D02*
X136680000Y-120800000D01*
X136680000Y-120800000D02*
X138230000Y-122400000D01*
X138230000Y-122400000D02*
X138230000Y-131600000D01*
X135530000Y-133200000D02*
X136680000Y-133200000D01*
X125930000Y-131600000D02*
X127480000Y-133200000D01*
X128630000Y-133200000D02*
X127480000Y-133200000D01*
X128630000Y-120800000D02*
X127480000Y-120800000D01*
G04 #@! TO.C,SW5*
X141330000Y-120800000D02*
X140180000Y-120800000D01*
X140180000Y-120800000D02*
X138630000Y-122400000D01*
X148230000Y-133200000D02*
X149380000Y-133200000D01*
X146330000Y-133200000D02*
X143230000Y-133200000D01*
X146330000Y-120800000D02*
X143230000Y-120800000D01*
X150930000Y-131600000D02*
X149380000Y-133200000D01*
X138630000Y-122400000D02*
X138630000Y-131600000D01*
X150930000Y-122400000D02*
X150930000Y-131600000D01*
X149380000Y-120800000D02*
X150930000Y-122400000D01*
X138630000Y-131600000D02*
X140180000Y-133200000D01*
X148230000Y-120800000D02*
X149380000Y-120800000D01*
X141330000Y-133200000D02*
X140180000Y-133200000D01*
G04 #@! TO.C,SW1*
X189430000Y-131600000D02*
X190980000Y-133200000D01*
X197130000Y-133200000D02*
X194030000Y-133200000D01*
X197130000Y-120800000D02*
X194030000Y-120800000D01*
X201730000Y-131600000D02*
X200180000Y-133200000D01*
X200180000Y-120800000D02*
X201730000Y-122400000D01*
X199030000Y-133200000D02*
X200180000Y-133200000D01*
X192130000Y-133200000D02*
X190980000Y-133200000D01*
X189430000Y-122400000D02*
X189430000Y-131600000D01*
X199030000Y-120800000D02*
X200180000Y-120800000D01*
X192130000Y-120800000D02*
X190980000Y-120800000D01*
X190980000Y-120800000D02*
X189430000Y-122400000D01*
X201730000Y-122400000D02*
X201730000Y-131600000D01*
G04 #@! TO.C,SW4*
X151330000Y-122400000D02*
X151330000Y-131600000D01*
X163630000Y-131600000D02*
X162080000Y-133200000D01*
X154030000Y-133200000D02*
X152880000Y-133200000D01*
X163630000Y-122400000D02*
X163630000Y-131600000D01*
X159030000Y-133200000D02*
X155930000Y-133200000D01*
X160930000Y-120800000D02*
X162080000Y-120800000D01*
X159030000Y-120800000D02*
X155930000Y-120800000D01*
X154030000Y-120800000D02*
X152880000Y-120800000D01*
X152880000Y-120800000D02*
X151330000Y-122400000D01*
X151330000Y-131600000D02*
X152880000Y-133200000D01*
X160930000Y-133200000D02*
X162080000Y-133200000D01*
X162080000Y-120800000D02*
X163630000Y-122400000D01*
G04 #@! TO.C,SW7*
X123980000Y-120800000D02*
X125530000Y-122400000D01*
X115930000Y-133200000D02*
X114780000Y-133200000D01*
X120930000Y-120800000D02*
X117830000Y-120800000D01*
X122830000Y-120800000D02*
X123980000Y-120800000D01*
X125530000Y-122400000D02*
X125530000Y-131600000D01*
X120930000Y-133200000D02*
X117830000Y-133200000D01*
X115930000Y-120800000D02*
X114780000Y-120800000D01*
X114780000Y-120800000D02*
X113230000Y-122400000D01*
X122830000Y-133200000D02*
X123980000Y-133200000D01*
X113230000Y-122400000D02*
X113230000Y-131600000D01*
X113230000Y-131600000D02*
X114780000Y-133200000D01*
X125530000Y-131600000D02*
X123980000Y-133200000D01*
G04 #@! TO.C,SW2*
X184430000Y-120800000D02*
X181330000Y-120800000D01*
X178280000Y-120800000D02*
X176730000Y-122400000D01*
X187480000Y-120800000D02*
X189030000Y-122400000D01*
X186330000Y-120800000D02*
X187480000Y-120800000D01*
X184430000Y-133200000D02*
X181330000Y-133200000D01*
X176730000Y-131600000D02*
X178280000Y-133200000D01*
X179430000Y-120800000D02*
X178280000Y-120800000D01*
X189030000Y-122400000D02*
X189030000Y-131600000D01*
X176730000Y-122400000D02*
X176730000Y-131600000D01*
X186330000Y-133200000D02*
X187480000Y-133200000D01*
X179430000Y-133200000D02*
X178280000Y-133200000D01*
X189030000Y-131600000D02*
X187480000Y-133200000D01*
G04 #@! TO.C,SW3*
X166730000Y-120800000D02*
X165580000Y-120800000D01*
X165580000Y-120800000D02*
X164030000Y-122400000D01*
X164030000Y-122400000D02*
X164030000Y-131600000D01*
X176330000Y-131600000D02*
X174780000Y-133200000D01*
X164030000Y-131600000D02*
X165580000Y-133200000D01*
X173630000Y-120800000D02*
X174780000Y-120800000D01*
X166730000Y-133200000D02*
X165580000Y-133200000D01*
X171730000Y-120800000D02*
X168630000Y-120800000D01*
X174780000Y-120800000D02*
X176330000Y-122400000D01*
X176330000Y-122400000D02*
X176330000Y-131600000D01*
X173630000Y-133200000D02*
X174780000Y-133200000D01*
X171730000Y-133200000D02*
X168630000Y-133200000D01*
G04 #@! TO.C,SW8*
X110130000Y-120800000D02*
X111280000Y-120800000D01*
X112830000Y-122400000D02*
X112830000Y-131600000D01*
X111280000Y-120800000D02*
X112830000Y-122400000D01*
X112830000Y-131600000D02*
X111280000Y-133200000D01*
X102080000Y-120800000D02*
X100530000Y-122400000D01*
X110130000Y-133200000D02*
X111280000Y-133200000D01*
X100530000Y-122400000D02*
X100530000Y-131600000D01*
X103230000Y-120800000D02*
X102080000Y-120800000D01*
X108230000Y-120800000D02*
X105130000Y-120800000D01*
X103230000Y-133200000D02*
X102080000Y-133200000D01*
X100530000Y-131600000D02*
X102080000Y-133200000D01*
X108230000Y-133200000D02*
X105130000Y-133200000D01*
G04 #@! TO.C,R9*
X98350000Y-132341252D02*
X98350000Y-131818748D01*
X99770000Y-132341252D02*
X99770000Y-131818748D01*
D14*
G04 #@! TO.C,J1*
X95730000Y-119030000D02*
G75*
G03*
X95730000Y-119030000I-200000J0D01*
G01*
G04 #@! TD*
M02*
