M48
; DRILL file {KiCad 6.0.8-f2edbf62ab~116~ubuntu22.04.1} date Mon 21 Nov 2022 02:05:35 PM
; FORMAT={-:-/ absolute / metric / decimal}
; #@! TF.CreationDate,2022-11-21T14:05:35-08:00
; #@! TF.GenerationSoftware,Kicad,Pcbnew,6.0.8-f2edbf62ab~116~ubuntu22.04.1
; #@! TF.FileFunction,MixedPlating,1,2
FMAT,2
METRIC
; #@! TA.AperFunction,Plated,PTH,ViaDrill
T1C0.400
; #@! TA.AperFunction,Plated,PTH,ComponentDrill
T2C1.000
; #@! TA.AperFunction,NonPlated,NPTH,ComponentDrill
T3C2.000
%
G90
G05
T1
X104.14Y-127.254
X104.14Y-130.048
X109.474Y-127.0
X111.252Y-134.112
X116.84Y-127.0
X121.92Y-127.0
X123.952Y-134.112
X129.54Y-124.206
X129.54Y-127.0
X134.62Y-127.0
X136.906Y-134.112
X142.24Y-121.92
X142.24Y-127.0
X147.32Y-127.0
X149.352Y-134.112
X154.94Y-127.0
X158.242Y-131.064
X162.052Y-134.112
X167.64Y-124.968
X170.942Y-131.064
X174.752Y-134.112
X180.34Y-121.666
X183.896Y-131.064
X187.452Y-134.112
X191.516Y-119.888
X196.596Y-131.064
X199.898Y-134.112
T2
X92.71Y-120.65
X92.71Y-123.19
X92.71Y-125.73
X92.71Y-128.27
X92.71Y-130.81
X92.71Y-133.35
X95.25Y-120.65
X95.25Y-123.19
X95.25Y-125.73
X95.25Y-128.27
X95.25Y-130.81
X95.25Y-133.35
T3
X102.18Y-127.0
X111.18Y-127.0
X114.88Y-127.0
X123.88Y-127.0
X127.58Y-127.0
X136.58Y-127.0
X140.28Y-127.0
X149.28Y-127.0
X152.98Y-127.0
X161.98Y-127.0
X165.68Y-127.0
X174.68Y-127.0
X178.38Y-127.0
X187.38Y-127.0
X191.08Y-127.0
X200.08Y-127.0
T0
M30
