G04 #@! TF.GenerationSoftware,KiCad,Pcbnew,6.0.8-f2edbf62ab~116~ubuntu22.04.1*
G04 #@! TF.CreationDate,2022-11-21T14:05:37-08:00*
G04 #@! TF.ProjectId,pmod-button,706d6f64-2d62-4757-9474-6f6e2e6b6963,rev?*
G04 #@! TF.SameCoordinates,Original*
G04 #@! TF.FileFunction,Copper,L1,Top*
G04 #@! TF.FilePolarity,Positive*
%FSLAX46Y46*%
G04 Gerber Fmt 4.6, Leading zero omitted, Abs format (unit mm)*
G04 Created by KiCad (PCBNEW 6.0.8-f2edbf62ab~116~ubuntu22.04.1) date 2022-11-21 14:05:37*
%MOMM*%
%LPD*%
G01*
G04 APERTURE LIST*
G04 Aperture macros list*
%AMRoundRect*
0 Rectangle with rounded corners*
0 $1 Rounding radius*
0 $2 $3 $4 $5 $6 $7 $8 $9 X,Y pos of 4 corners*
0 Add a 4 corners polygon primitive as box body*
4,1,4,$2,$3,$4,$5,$6,$7,$8,$9,$2,$3,0*
0 Add four circle primitives for the rounded corners*
1,1,$1+$1,$2,$3*
1,1,$1+$1,$4,$5*
1,1,$1+$1,$6,$7*
1,1,$1+$1,$8,$9*
0 Add four rect primitives between the rounded corners*
20,1,$1+$1,$2,$3,$4,$5,0*
20,1,$1+$1,$4,$5,$6,$7,0*
20,1,$1+$1,$6,$7,$8,$9,0*
20,1,$1+$1,$8,$9,$2,$3,0*%
G04 Aperture macros list end*
G04 #@! TA.AperFunction,SMDPad,CuDef*
%ADD10RoundRect,0.250000X-0.450000X0.325000X-0.450000X-0.325000X0.450000X-0.325000X0.450000X0.325000X0*%
G04 #@! TD*
G04 #@! TA.AperFunction,SMDPad,CuDef*
%ADD11R,1.500000X2.000000*%
G04 #@! TD*
G04 #@! TA.AperFunction,SMDPad,CuDef*
%ADD12RoundRect,0.250000X0.450000X-0.325000X0.450000X0.325000X-0.450000X0.325000X-0.450000X-0.325000X0*%
G04 #@! TD*
G04 #@! TA.AperFunction,ComponentPad*
%ADD13O,2.540000X1.700000*%
G04 #@! TD*
G04 #@! TA.AperFunction,ViaPad*
%ADD14C,0.800000*%
G04 #@! TD*
G04 #@! TA.AperFunction,Conductor*
%ADD15C,0.500000*%
G04 #@! TD*
G04 APERTURE END LIST*
D10*
G04 #@! TO.P,D1,1,K*
G04 #@! TO.N,GND*
X99060000Y-125975000D03*
G04 #@! TO.P,D1,2,A*
G04 #@! TO.N,Net-(D1-Pad2)*
X99060000Y-128025000D03*
G04 #@! TD*
D11*
G04 #@! TO.P,SW6,1,1*
G04 #@! TO.N,GND*
X134580000Y-119850000D03*
X134580000Y-134150000D03*
G04 #@! TO.P,SW6,2,2*
G04 #@! TO.N,/D5*
X129580000Y-119850000D03*
X129580000Y-134150000D03*
G04 #@! TD*
G04 #@! TO.P,SW5,1,1*
G04 #@! TO.N,GND*
X147280000Y-119850000D03*
X147280000Y-134150000D03*
G04 #@! TO.P,SW5,2,2*
G04 #@! TO.N,/D4*
X142280000Y-119850000D03*
X142280000Y-134150000D03*
G04 #@! TD*
G04 #@! TO.P,SW1,1,1*
G04 #@! TO.N,GND*
X198080000Y-134150000D03*
X198080000Y-119850000D03*
G04 #@! TO.P,SW1,2,2*
G04 #@! TO.N,/D0*
X193080000Y-119850000D03*
X193080000Y-134150000D03*
G04 #@! TD*
G04 #@! TO.P,SW4,1,1*
G04 #@! TO.N,GND*
X159980000Y-119850000D03*
X159980000Y-134150000D03*
G04 #@! TO.P,SW4,2,2*
G04 #@! TO.N,/D3*
X154980000Y-119850000D03*
X154980000Y-134150000D03*
G04 #@! TD*
G04 #@! TO.P,SW7,1,1*
G04 #@! TO.N,GND*
X121880000Y-119850000D03*
X121880000Y-134150000D03*
G04 #@! TO.P,SW7,2,2*
G04 #@! TO.N,/D6*
X116880000Y-119850000D03*
X116880000Y-134150000D03*
G04 #@! TD*
G04 #@! TO.P,SW2,1,1*
G04 #@! TO.N,GND*
X185380000Y-134150000D03*
X185380000Y-119850000D03*
G04 #@! TO.P,SW2,2,2*
G04 #@! TO.N,/D1*
X180380000Y-119850000D03*
X180380000Y-134150000D03*
G04 #@! TD*
G04 #@! TO.P,SW3,1,1*
G04 #@! TO.N,GND*
X172680000Y-134150000D03*
X172680000Y-119850000D03*
G04 #@! TO.P,SW3,2,2*
G04 #@! TO.N,/D2*
X167680000Y-119850000D03*
X167680000Y-134150000D03*
G04 #@! TD*
G04 #@! TO.P,SW8,1,1*
G04 #@! TO.N,GND*
X109180000Y-134150000D03*
X109180000Y-119850000D03*
G04 #@! TO.P,SW8,2,2*
G04 #@! TO.N,/D7*
X104180000Y-134150000D03*
X104180000Y-119850000D03*
G04 #@! TD*
D12*
G04 #@! TO.P,R9,1*
G04 #@! TO.N,+3V3*
X99060000Y-133105000D03*
G04 #@! TO.P,R9,2*
G04 #@! TO.N,Net-(D1-Pad2)*
X99060000Y-131055000D03*
G04 #@! TD*
D13*
G04 #@! TO.P,J1,1,D0*
G04 #@! TO.N,/D0*
X95650000Y-120650000D03*
G04 #@! TO.P,J1,2,D1*
G04 #@! TO.N,/D1*
X95650000Y-123190000D03*
G04 #@! TO.P,J1,3,D2*
G04 #@! TO.N,/D2*
X95650000Y-125730000D03*
G04 #@! TO.P,J1,4,D3*
G04 #@! TO.N,/D3*
X95650000Y-128270000D03*
G04 #@! TO.P,J1,5,GND1*
G04 #@! TO.N,GND*
X95650000Y-130810000D03*
G04 #@! TO.P,J1,6,VCC1*
G04 #@! TO.N,+3V3*
X95650000Y-133350000D03*
G04 #@! TO.P,J1,7,D4*
G04 #@! TO.N,/D4*
X92310000Y-120650000D03*
G04 #@! TO.P,J1,8,D5*
G04 #@! TO.N,/D5*
X92310000Y-123190000D03*
G04 #@! TO.P,J1,9,D6*
G04 #@! TO.N,/D6*
X92310000Y-125730000D03*
G04 #@! TO.P,J1,10,D7*
G04 #@! TO.N,/D7*
X92310000Y-128270000D03*
G04 #@! TO.P,J1,11,GND2*
G04 #@! TO.N,GND*
X92310000Y-130810000D03*
G04 #@! TO.P,J1,12,VCC2*
G04 #@! TO.N,+3V3*
X92310000Y-133350000D03*
G04 #@! TD*
D14*
G04 #@! TO.N,GND*
X199898000Y-134112000D03*
X187452000Y-134112000D03*
X174752000Y-134112000D03*
X162052000Y-134112000D03*
X149352000Y-134112000D03*
X136906000Y-134112000D03*
X123952000Y-134112000D03*
X111252000Y-134112000D03*
G04 #@! TO.N,+3V3*
X170942000Y-131064000D03*
X109474000Y-127000000D03*
X121920000Y-127000000D03*
X134620000Y-127000000D03*
X147320000Y-127000000D03*
X158242000Y-131064000D03*
X183896000Y-131064000D03*
X196596000Y-131064000D03*
G04 #@! TO.N,/D4*
X142240000Y-127000000D03*
G04 #@! TO.N,/D5*
X129540000Y-127000000D03*
G04 #@! TO.N,/D7*
X104140000Y-127254000D03*
X104140000Y-130048000D03*
G04 #@! TO.N,/D3*
X154940000Y-127000000D03*
G04 #@! TO.N,/D6*
X116840000Y-127000000D03*
G04 #@! TO.N,/D4*
X142240000Y-121920000D03*
G04 #@! TO.N,/D0*
X191516000Y-119888000D03*
G04 #@! TO.N,/D5*
X129540000Y-124206000D03*
G04 #@! TO.N,/D1*
X180340000Y-121666000D03*
G04 #@! TO.N,/D2*
X167640000Y-124968000D03*
G04 #@! TD*
D15*
G04 #@! TO.N,+3V3*
X158242000Y-131064000D02*
X170942000Y-131064000D01*
X170942000Y-131064000D02*
X183896000Y-131064000D01*
G04 #@! TO.N,Net-(D1-Pad2)*
X99060000Y-131055000D02*
X99060000Y-128025000D01*
G04 #@! TO.N,+3V3*
X101101000Y-131064000D02*
X109474000Y-131064000D01*
X109474000Y-131064000D02*
X121920000Y-131064000D01*
X109474000Y-127000000D02*
X109474000Y-131064000D01*
X121920000Y-127000000D02*
X121920000Y-131064000D01*
X121920000Y-131064000D02*
X134366000Y-131064000D01*
X134366000Y-131064000D02*
X147320000Y-131064000D01*
X134620000Y-127000000D02*
X134620000Y-130810000D01*
X134620000Y-130810000D02*
X134366000Y-131064000D01*
X147320000Y-131064000D02*
X158242000Y-131064000D01*
X147320000Y-127000000D02*
X147320000Y-131064000D01*
X183896000Y-131064000D02*
X196596000Y-131064000D01*
X99060000Y-133105000D02*
X101101000Y-131064000D01*
G04 #@! TO.N,/D7*
X104140000Y-127254000D02*
X104180000Y-127214000D01*
X104180000Y-127214000D02*
X104180000Y-119850000D01*
G04 #@! TO.N,+3V3*
X95250000Y-133350000D02*
X98815000Y-133350000D01*
X98815000Y-133350000D02*
X99060000Y-133105000D01*
X92710000Y-133350000D02*
X95250000Y-133350000D01*
G04 #@! TO.N,/D4*
X142240000Y-121920000D02*
X142240000Y-127000000D01*
G04 #@! TO.N,/D5*
X129540000Y-124206000D02*
X129540000Y-127000000D01*
G04 #@! TO.N,/D7*
X104140000Y-130048000D02*
X104140000Y-127254000D01*
G04 #@! TO.N,/D3*
X154940000Y-127000000D02*
X154980000Y-126960000D01*
X154980000Y-126960000D02*
X154980000Y-119850000D01*
G04 #@! TO.N,/D6*
X116840000Y-127000000D02*
X116880000Y-126960000D01*
X116880000Y-126960000D02*
X116880000Y-119850000D01*
G04 #@! TO.N,/D4*
X142240000Y-119890000D02*
X142280000Y-119850000D01*
X142240000Y-121920000D02*
X142240000Y-119890000D01*
G04 #@! TO.N,/D0*
X191516000Y-119888000D02*
X193042000Y-119888000D01*
X193042000Y-119888000D02*
X193080000Y-119850000D01*
G04 #@! TO.N,/D5*
X129540000Y-119890000D02*
X129580000Y-119850000D01*
X129540000Y-124206000D02*
X129540000Y-119890000D01*
G04 #@! TO.N,/D1*
X180340000Y-121666000D02*
X180340000Y-119890000D01*
X180340000Y-119890000D02*
X180380000Y-119850000D01*
G04 #@! TO.N,/D2*
X167680000Y-119850000D02*
X167680000Y-124928000D01*
X167680000Y-124928000D02*
X167640000Y-124968000D01*
G04 #@! TD*
G04 #@! TA.AperFunction,Conductor*
G04 #@! TO.N,GND*
G36*
X108118121Y-118892502D02*
G01*
X108164614Y-118946158D01*
X108176000Y-118998500D01*
X108176000Y-119704885D01*
X108180475Y-119720124D01*
X108181865Y-119721329D01*
X108189548Y-119723000D01*
X110165884Y-119723000D01*
X110181123Y-119718525D01*
X110182328Y-119717135D01*
X110183999Y-119709452D01*
X110183999Y-118998500D01*
X110204001Y-118930379D01*
X110257657Y-118883886D01*
X110309999Y-118872500D01*
X115749500Y-118872500D01*
X115817621Y-118892502D01*
X115864114Y-118946158D01*
X115875500Y-118998500D01*
X115875501Y-119977000D01*
X115875501Y-120875066D01*
X115881821Y-120906842D01*
X115887806Y-120936931D01*
X115890266Y-120949301D01*
X115946516Y-121033484D01*
X116030699Y-121089734D01*
X116104933Y-121104500D01*
X116249500Y-121104500D01*
X116317621Y-121124502D01*
X116364114Y-121178158D01*
X116375500Y-121230500D01*
X116375500Y-126483557D01*
X116355498Y-126551678D01*
X116350034Y-126558834D01*
X116350039Y-126558838D01*
X116294033Y-126638526D01*
X116238498Y-126682757D01*
X116167866Y-126689943D01*
X116104562Y-126657802D01*
X116070516Y-126603124D01*
X116060122Y-126569338D01*
X116046200Y-126524083D01*
X116023693Y-126480475D01*
X115946063Y-126330071D01*
X115946063Y-126330070D01*
X115943491Y-126325088D01*
X115807167Y-126147427D01*
X115803021Y-126143654D01*
X115803016Y-126143649D01*
X115645689Y-126000493D01*
X115641536Y-125996714D01*
X115451833Y-125877714D01*
X115244056Y-125794188D01*
X115238564Y-125793051D01*
X115238562Y-125793050D01*
X115087754Y-125761819D01*
X115024772Y-125748776D01*
X115020161Y-125748510D01*
X115020160Y-125748510D01*
X114969775Y-125745605D01*
X114969771Y-125745605D01*
X114967952Y-125745500D01*
X114823181Y-125745500D01*
X114820394Y-125745749D01*
X114820388Y-125745749D01*
X114751038Y-125751939D01*
X114656949Y-125760336D01*
X114440949Y-125819427D01*
X114435891Y-125821839D01*
X114435887Y-125821841D01*
X114288464Y-125892158D01*
X114238826Y-125915834D01*
X114234265Y-125919111D01*
X114234264Y-125919112D01*
X114121011Y-126000493D01*
X114056970Y-126046511D01*
X114053065Y-126050541D01*
X113911068Y-126197070D01*
X113901129Y-126207326D01*
X113898001Y-126211981D01*
X113785881Y-126378835D01*
X113776230Y-126393197D01*
X113686218Y-126598248D01*
X113684908Y-126603705D01*
X113638230Y-126798135D01*
X113633941Y-126815998D01*
X113633446Y-126824583D01*
X113622301Y-127017891D01*
X113621051Y-127039564D01*
X113647954Y-127261880D01*
X113713800Y-127475917D01*
X113716370Y-127480897D01*
X113716372Y-127480901D01*
X113801010Y-127644884D01*
X113816509Y-127674912D01*
X113952833Y-127852573D01*
X113956979Y-127856346D01*
X113956984Y-127856351D01*
X114021007Y-127914607D01*
X114118464Y-128003286D01*
X114308167Y-128122286D01*
X114515944Y-128205812D01*
X114521436Y-128206949D01*
X114521438Y-128206950D01*
X114662059Y-128236071D01*
X114735228Y-128251224D01*
X114739839Y-128251490D01*
X114739840Y-128251490D01*
X114790225Y-128254395D01*
X114790229Y-128254395D01*
X114792048Y-128254500D01*
X114936819Y-128254500D01*
X114939606Y-128254251D01*
X114939612Y-128254251D01*
X115008962Y-128248061D01*
X115103051Y-128239664D01*
X115319051Y-128180573D01*
X115324109Y-128178161D01*
X115324113Y-128178159D01*
X115516107Y-128086583D01*
X115516109Y-128086582D01*
X115521174Y-128084166D01*
X115629578Y-128006270D01*
X115698470Y-127956766D01*
X115698472Y-127956764D01*
X115703030Y-127953489D01*
X115805138Y-127848122D01*
X115854969Y-127796701D01*
X115854971Y-127796698D01*
X115858871Y-127792674D01*
X115910958Y-127715160D01*
X115980641Y-127611460D01*
X115980643Y-127611457D01*
X115983770Y-127606803D01*
X116073782Y-127401752D01*
X116074793Y-127397540D01*
X116115251Y-127339688D01*
X116180935Y-127312740D01*
X116250760Y-127325582D01*
X116298562Y-127367788D01*
X116336668Y-127424497D01*
X116336673Y-127424503D01*
X116340908Y-127430805D01*
X116346527Y-127435918D01*
X116346528Y-127435919D01*
X116452317Y-127532179D01*
X116458076Y-127537419D01*
X116597293Y-127613008D01*
X116750522Y-127653207D01*
X116834477Y-127654526D01*
X116901319Y-127655576D01*
X116901322Y-127655576D01*
X116908916Y-127655695D01*
X117063332Y-127620329D01*
X117160172Y-127571624D01*
X117198072Y-127552563D01*
X117198075Y-127552561D01*
X117204855Y-127549151D01*
X117210626Y-127544222D01*
X117210629Y-127544220D01*
X117319536Y-127451204D01*
X117319536Y-127451203D01*
X117325314Y-127446269D01*
X117417755Y-127317624D01*
X117476842Y-127170641D01*
X117494703Y-127045141D01*
X117498581Y-127017891D01*
X117498581Y-127017888D01*
X117499162Y-127013807D01*
X117499307Y-127000000D01*
X117480276Y-126842733D01*
X117424280Y-126694546D01*
X117406659Y-126668908D01*
X117384500Y-126597542D01*
X117384500Y-121230499D01*
X117404502Y-121162378D01*
X117458158Y-121115885D01*
X117510500Y-121104499D01*
X117655066Y-121104499D01*
X117690818Y-121097388D01*
X117717126Y-121092156D01*
X117717128Y-121092155D01*
X117729301Y-121089734D01*
X117739621Y-121082839D01*
X117739622Y-121082838D01*
X117803168Y-121040377D01*
X117813484Y-121033484D01*
X117869734Y-120949301D01*
X117884500Y-120875067D01*
X117884500Y-120868828D01*
X120876001Y-120868828D01*
X120877209Y-120881088D01*
X120888315Y-120936931D01*
X120897633Y-120959427D01*
X120939983Y-121022808D01*
X120957192Y-121040017D01*
X121020575Y-121082368D01*
X121043066Y-121091684D01*
X121098915Y-121102793D01*
X121111170Y-121104000D01*
X121734885Y-121104000D01*
X121750124Y-121099525D01*
X121751329Y-121098135D01*
X121753000Y-121090452D01*
X121753000Y-121085884D01*
X122007000Y-121085884D01*
X122011475Y-121101123D01*
X122012865Y-121102328D01*
X122020548Y-121103999D01*
X122648828Y-121103999D01*
X122661088Y-121102791D01*
X122716931Y-121091685D01*
X122739427Y-121082367D01*
X122802808Y-121040017D01*
X122820017Y-121022808D01*
X122862368Y-120959425D01*
X122871684Y-120936934D01*
X122882793Y-120881085D01*
X122884000Y-120868830D01*
X122884000Y-119995115D01*
X122879525Y-119979876D01*
X122878135Y-119978671D01*
X122870452Y-119977000D01*
X122025115Y-119977000D01*
X122009876Y-119981475D01*
X122008671Y-119982865D01*
X122007000Y-119990548D01*
X122007000Y-121085884D01*
X121753000Y-121085884D01*
X121753000Y-119995115D01*
X121748525Y-119979876D01*
X121747135Y-119978671D01*
X121739452Y-119977000D01*
X120894116Y-119977000D01*
X120878877Y-119981475D01*
X120877672Y-119982865D01*
X120876001Y-119990548D01*
X120876001Y-120868828D01*
X117884500Y-120868828D01*
X117884499Y-118998500D01*
X117904501Y-118930379D01*
X117958157Y-118883886D01*
X118010499Y-118872500D01*
X120750000Y-118872500D01*
X120818121Y-118892502D01*
X120864614Y-118946158D01*
X120876000Y-118998500D01*
X120876000Y-119704885D01*
X120880475Y-119720124D01*
X120881865Y-119721329D01*
X120889548Y-119723000D01*
X122865884Y-119723000D01*
X122881123Y-119718525D01*
X122882328Y-119717135D01*
X122883999Y-119709452D01*
X122883999Y-118998500D01*
X122904001Y-118930379D01*
X122957657Y-118883886D01*
X123009999Y-118872500D01*
X128449500Y-118872500D01*
X128517621Y-118892502D01*
X128564114Y-118946158D01*
X128575500Y-118998500D01*
X128575501Y-119977000D01*
X128575501Y-120875066D01*
X128581821Y-120906842D01*
X128587806Y-120936931D01*
X128590266Y-120949301D01*
X128646516Y-121033484D01*
X128730699Y-121089734D01*
X128804933Y-121104500D01*
X128909500Y-121104500D01*
X128977621Y-121124502D01*
X129024114Y-121178158D01*
X129035500Y-121230500D01*
X129035500Y-123745676D01*
X129012587Y-123818126D01*
X128958950Y-123894444D01*
X128901406Y-124042037D01*
X128900414Y-124049570D01*
X128900414Y-124049571D01*
X128884323Y-124171800D01*
X128880729Y-124199096D01*
X128886525Y-124251592D01*
X128891231Y-124294215D01*
X128898113Y-124356553D01*
X128952553Y-124505319D01*
X128956789Y-124511622D01*
X128956789Y-124511623D01*
X129014082Y-124596884D01*
X129035500Y-124667160D01*
X129035500Y-126539676D01*
X129012586Y-126612128D01*
X128994032Y-126638527D01*
X128938497Y-126682758D01*
X128867865Y-126689943D01*
X128804561Y-126657801D01*
X128770516Y-126603124D01*
X128760122Y-126569338D01*
X128746200Y-126524083D01*
X128723693Y-126480475D01*
X128646063Y-126330071D01*
X128646063Y-126330070D01*
X128643491Y-126325088D01*
X128507167Y-126147427D01*
X128503021Y-126143654D01*
X128503016Y-126143649D01*
X128345689Y-126000493D01*
X128341536Y-125996714D01*
X128151833Y-125877714D01*
X127944056Y-125794188D01*
X127938564Y-125793051D01*
X127938562Y-125793050D01*
X127787754Y-125761819D01*
X127724772Y-125748776D01*
X127720161Y-125748510D01*
X127720160Y-125748510D01*
X127669775Y-125745605D01*
X127669771Y-125745605D01*
X127667952Y-125745500D01*
X127523181Y-125745500D01*
X127520394Y-125745749D01*
X127520388Y-125745749D01*
X127451038Y-125751939D01*
X127356949Y-125760336D01*
X127140949Y-125819427D01*
X127135891Y-125821839D01*
X127135887Y-125821841D01*
X126988464Y-125892158D01*
X126938826Y-125915834D01*
X126934265Y-125919111D01*
X126934264Y-125919112D01*
X126821011Y-126000493D01*
X126756970Y-126046511D01*
X126753065Y-126050541D01*
X126611068Y-126197070D01*
X126601129Y-126207326D01*
X126598001Y-126211981D01*
X126485881Y-126378835D01*
X126476230Y-126393197D01*
X126386218Y-126598248D01*
X126384908Y-126603705D01*
X126338230Y-126798135D01*
X126333941Y-126815998D01*
X126333446Y-126824583D01*
X126322301Y-127017891D01*
X126321051Y-127039564D01*
X126347954Y-127261880D01*
X126413800Y-127475917D01*
X126416370Y-127480897D01*
X126416372Y-127480901D01*
X126501010Y-127644884D01*
X126516509Y-127674912D01*
X126652833Y-127852573D01*
X126656979Y-127856346D01*
X126656984Y-127856351D01*
X126721007Y-127914607D01*
X126818464Y-128003286D01*
X127008167Y-128122286D01*
X127215944Y-128205812D01*
X127221436Y-128206949D01*
X127221438Y-128206950D01*
X127362059Y-128236071D01*
X127435228Y-128251224D01*
X127439839Y-128251490D01*
X127439840Y-128251490D01*
X127490225Y-128254395D01*
X127490229Y-128254395D01*
X127492048Y-128254500D01*
X127636819Y-128254500D01*
X127639606Y-128254251D01*
X127639612Y-128254251D01*
X127708962Y-128248061D01*
X127803051Y-128239664D01*
X128019051Y-128180573D01*
X128024109Y-128178161D01*
X128024113Y-128178159D01*
X128216107Y-128086583D01*
X128216109Y-128086582D01*
X128221174Y-128084166D01*
X128329578Y-128006270D01*
X128398470Y-127956766D01*
X128398472Y-127956764D01*
X128403030Y-127953489D01*
X128505138Y-127848122D01*
X128554969Y-127796701D01*
X128554971Y-127796698D01*
X128558871Y-127792674D01*
X128610958Y-127715160D01*
X128680641Y-127611460D01*
X128680643Y-127611457D01*
X128683770Y-127606803D01*
X128773782Y-127401752D01*
X128774793Y-127397540D01*
X128815251Y-127339688D01*
X128880935Y-127312740D01*
X128950760Y-127325582D01*
X128998562Y-127367788D01*
X129036668Y-127424497D01*
X129036673Y-127424503D01*
X129040908Y-127430805D01*
X129046527Y-127435918D01*
X129046528Y-127435919D01*
X129152317Y-127532179D01*
X129158076Y-127537419D01*
X129297293Y-127613008D01*
X129450522Y-127653207D01*
X129534477Y-127654526D01*
X129601319Y-127655576D01*
X129601322Y-127655576D01*
X129608916Y-127655695D01*
X129763332Y-127620329D01*
X129860172Y-127571624D01*
X129898072Y-127552563D01*
X129898075Y-127552561D01*
X129904855Y-127549151D01*
X129910626Y-127544222D01*
X129910629Y-127544220D01*
X130019536Y-127451204D01*
X130019536Y-127451203D01*
X130025314Y-127446269D01*
X130117755Y-127317624D01*
X130176842Y-127170641D01*
X130194703Y-127045141D01*
X130198581Y-127017891D01*
X130198581Y-127017888D01*
X130199162Y-127013807D01*
X130199307Y-127000000D01*
X130180276Y-126842733D01*
X130124280Y-126694546D01*
X130084500Y-126636666D01*
X130066660Y-126610708D01*
X130044500Y-126539341D01*
X130044500Y-124666144D01*
X130068176Y-124592620D01*
X130117755Y-124523624D01*
X130176842Y-124376641D01*
X130194156Y-124254983D01*
X130198581Y-124223891D01*
X130198581Y-124223888D01*
X130199162Y-124219807D01*
X130199307Y-124206000D01*
X130180276Y-124048733D01*
X130124280Y-123900546D01*
X130066660Y-123816708D01*
X130044500Y-123745341D01*
X130044500Y-121230499D01*
X130064502Y-121162378D01*
X130118158Y-121115885D01*
X130170500Y-121104499D01*
X130355066Y-121104499D01*
X130390818Y-121097388D01*
X130417126Y-121092156D01*
X130417128Y-121092155D01*
X130429301Y-121089734D01*
X130439621Y-121082839D01*
X130439622Y-121082838D01*
X130503168Y-121040377D01*
X130513484Y-121033484D01*
X130569734Y-120949301D01*
X130584500Y-120875067D01*
X130584500Y-120868828D01*
X133576001Y-120868828D01*
X133577209Y-120881088D01*
X133588315Y-120936931D01*
X133597633Y-120959427D01*
X133639983Y-121022808D01*
X133657192Y-121040017D01*
X133720575Y-121082368D01*
X133743066Y-121091684D01*
X133798915Y-121102793D01*
X133811170Y-121104000D01*
X134434885Y-121104000D01*
X134450124Y-121099525D01*
X134451329Y-121098135D01*
X134453000Y-121090452D01*
X134453000Y-121085884D01*
X134707000Y-121085884D01*
X134711475Y-121101123D01*
X134712865Y-121102328D01*
X134720548Y-121103999D01*
X135348828Y-121103999D01*
X135361088Y-121102791D01*
X135416931Y-121091685D01*
X135439427Y-121082367D01*
X135502808Y-121040017D01*
X135520017Y-121022808D01*
X135562368Y-120959425D01*
X135571684Y-120936934D01*
X135582793Y-120881085D01*
X135584000Y-120868830D01*
X135584000Y-119995115D01*
X135579525Y-119979876D01*
X135578135Y-119978671D01*
X135570452Y-119977000D01*
X134725115Y-119977000D01*
X134709876Y-119981475D01*
X134708671Y-119982865D01*
X134707000Y-119990548D01*
X134707000Y-121085884D01*
X134453000Y-121085884D01*
X134453000Y-119995115D01*
X134448525Y-119979876D01*
X134447135Y-119978671D01*
X134439452Y-119977000D01*
X133594116Y-119977000D01*
X133578877Y-119981475D01*
X133577672Y-119982865D01*
X133576001Y-119990548D01*
X133576001Y-120868828D01*
X130584500Y-120868828D01*
X130584499Y-118998500D01*
X130604501Y-118930379D01*
X130658157Y-118883886D01*
X130710499Y-118872500D01*
X133450000Y-118872500D01*
X133518121Y-118892502D01*
X133564614Y-118946158D01*
X133576000Y-118998500D01*
X133576000Y-119704885D01*
X133580475Y-119720124D01*
X133581865Y-119721329D01*
X133589548Y-119723000D01*
X135565884Y-119723000D01*
X135581123Y-119718525D01*
X135582328Y-119717135D01*
X135583999Y-119709452D01*
X135583999Y-118998500D01*
X135604001Y-118930379D01*
X135657657Y-118883886D01*
X135709999Y-118872500D01*
X141149500Y-118872500D01*
X141217621Y-118892502D01*
X141264114Y-118946158D01*
X141275500Y-118998500D01*
X141275501Y-119977000D01*
X141275501Y-120875066D01*
X141281821Y-120906842D01*
X141287806Y-120936931D01*
X141290266Y-120949301D01*
X141346516Y-121033484D01*
X141430699Y-121089734D01*
X141504933Y-121104500D01*
X141609500Y-121104500D01*
X141677621Y-121124502D01*
X141724114Y-121178158D01*
X141735500Y-121230500D01*
X141735500Y-121459676D01*
X141712587Y-121532126D01*
X141658950Y-121608444D01*
X141656190Y-121615524D01*
X141607629Y-121740077D01*
X141601406Y-121756037D01*
X141600414Y-121763570D01*
X141600414Y-121763571D01*
X141589866Y-121843695D01*
X141580729Y-121913096D01*
X141598113Y-122070553D01*
X141600723Y-122077684D01*
X141600723Y-122077686D01*
X141646474Y-122202706D01*
X141652553Y-122219319D01*
X141656789Y-122225622D01*
X141656789Y-122225623D01*
X141714082Y-122310884D01*
X141735500Y-122381160D01*
X141735500Y-126539676D01*
X141712586Y-126612128D01*
X141694032Y-126638527D01*
X141638497Y-126682758D01*
X141567865Y-126689943D01*
X141504561Y-126657801D01*
X141470516Y-126603124D01*
X141460122Y-126569338D01*
X141446200Y-126524083D01*
X141423693Y-126480475D01*
X141346063Y-126330071D01*
X141346063Y-126330070D01*
X141343491Y-126325088D01*
X141207167Y-126147427D01*
X141203021Y-126143654D01*
X141203016Y-126143649D01*
X141045689Y-126000493D01*
X141041536Y-125996714D01*
X140851833Y-125877714D01*
X140644056Y-125794188D01*
X140638564Y-125793051D01*
X140638562Y-125793050D01*
X140487754Y-125761819D01*
X140424772Y-125748776D01*
X140420161Y-125748510D01*
X140420160Y-125748510D01*
X140369775Y-125745605D01*
X140369771Y-125745605D01*
X140367952Y-125745500D01*
X140223181Y-125745500D01*
X140220394Y-125745749D01*
X140220388Y-125745749D01*
X140151038Y-125751939D01*
X140056949Y-125760336D01*
X139840949Y-125819427D01*
X139835891Y-125821839D01*
X139835887Y-125821841D01*
X139688464Y-125892158D01*
X139638826Y-125915834D01*
X139634265Y-125919111D01*
X139634264Y-125919112D01*
X139521011Y-126000493D01*
X139456970Y-126046511D01*
X139453065Y-126050541D01*
X139311068Y-126197070D01*
X139301129Y-126207326D01*
X139298001Y-126211981D01*
X139185881Y-126378835D01*
X139176230Y-126393197D01*
X139086218Y-126598248D01*
X139084908Y-126603705D01*
X139038230Y-126798135D01*
X139033941Y-126815998D01*
X139033446Y-126824583D01*
X139022301Y-127017891D01*
X139021051Y-127039564D01*
X139047954Y-127261880D01*
X139113800Y-127475917D01*
X139116370Y-127480897D01*
X139116372Y-127480901D01*
X139201010Y-127644884D01*
X139216509Y-127674912D01*
X139352833Y-127852573D01*
X139356979Y-127856346D01*
X139356984Y-127856351D01*
X139421007Y-127914607D01*
X139518464Y-128003286D01*
X139708167Y-128122286D01*
X139915944Y-128205812D01*
X139921436Y-128206949D01*
X139921438Y-128206950D01*
X140062059Y-128236071D01*
X140135228Y-128251224D01*
X140139839Y-128251490D01*
X140139840Y-128251490D01*
X140190225Y-128254395D01*
X140190229Y-128254395D01*
X140192048Y-128254500D01*
X140336819Y-128254500D01*
X140339606Y-128254251D01*
X140339612Y-128254251D01*
X140408962Y-128248061D01*
X140503051Y-128239664D01*
X140719051Y-128180573D01*
X140724109Y-128178161D01*
X140724113Y-128178159D01*
X140916107Y-128086583D01*
X140916109Y-128086582D01*
X140921174Y-128084166D01*
X141029578Y-128006270D01*
X141098470Y-127956766D01*
X141098472Y-127956764D01*
X141103030Y-127953489D01*
X141205138Y-127848122D01*
X141254969Y-127796701D01*
X141254971Y-127796698D01*
X141258871Y-127792674D01*
X141310958Y-127715160D01*
X141380641Y-127611460D01*
X141380643Y-127611457D01*
X141383770Y-127606803D01*
X141473782Y-127401752D01*
X141474793Y-127397540D01*
X141515251Y-127339688D01*
X141580935Y-127312740D01*
X141650760Y-127325582D01*
X141698562Y-127367788D01*
X141736668Y-127424497D01*
X141736673Y-127424503D01*
X141740908Y-127430805D01*
X141746527Y-127435918D01*
X141746528Y-127435919D01*
X141852317Y-127532179D01*
X141858076Y-127537419D01*
X141997293Y-127613008D01*
X142150522Y-127653207D01*
X142234477Y-127654526D01*
X142301319Y-127655576D01*
X142301322Y-127655576D01*
X142308916Y-127655695D01*
X142463332Y-127620329D01*
X142560172Y-127571624D01*
X142598072Y-127552563D01*
X142598075Y-127552561D01*
X142604855Y-127549151D01*
X142610626Y-127544222D01*
X142610629Y-127544220D01*
X142719536Y-127451204D01*
X142719536Y-127451203D01*
X142725314Y-127446269D01*
X142817755Y-127317624D01*
X142876842Y-127170641D01*
X142894703Y-127045141D01*
X142898581Y-127017891D01*
X142898581Y-127017888D01*
X142899162Y-127013807D01*
X142899307Y-127000000D01*
X142880276Y-126842733D01*
X142824280Y-126694546D01*
X142784500Y-126636666D01*
X142766660Y-126610708D01*
X142744500Y-126539341D01*
X142744500Y-122380144D01*
X142768176Y-122306620D01*
X142817755Y-122237624D01*
X142876842Y-122090641D01*
X142899162Y-121933807D01*
X142899307Y-121920000D01*
X142880276Y-121762733D01*
X142824280Y-121614546D01*
X142766660Y-121530708D01*
X142744500Y-121459341D01*
X142744500Y-121230499D01*
X142764502Y-121162378D01*
X142818158Y-121115885D01*
X142870500Y-121104499D01*
X143055066Y-121104499D01*
X143090818Y-121097388D01*
X143117126Y-121092156D01*
X143117128Y-121092155D01*
X143129301Y-121089734D01*
X143139621Y-121082839D01*
X143139622Y-121082838D01*
X143203168Y-121040377D01*
X143213484Y-121033484D01*
X143269734Y-120949301D01*
X143284500Y-120875067D01*
X143284500Y-120868828D01*
X146276001Y-120868828D01*
X146277209Y-120881088D01*
X146288315Y-120936931D01*
X146297633Y-120959427D01*
X146339983Y-121022808D01*
X146357192Y-121040017D01*
X146420575Y-121082368D01*
X146443066Y-121091684D01*
X146498915Y-121102793D01*
X146511170Y-121104000D01*
X147134885Y-121104000D01*
X147150124Y-121099525D01*
X147151329Y-121098135D01*
X147153000Y-121090452D01*
X147153000Y-121085884D01*
X147407000Y-121085884D01*
X147411475Y-121101123D01*
X147412865Y-121102328D01*
X147420548Y-121103999D01*
X148048828Y-121103999D01*
X148061088Y-121102791D01*
X148116931Y-121091685D01*
X148139427Y-121082367D01*
X148202808Y-121040017D01*
X148220017Y-121022808D01*
X148262368Y-120959425D01*
X148271684Y-120936934D01*
X148282793Y-120881085D01*
X148284000Y-120868830D01*
X148284000Y-119995115D01*
X148279525Y-119979876D01*
X148278135Y-119978671D01*
X148270452Y-119977000D01*
X147425115Y-119977000D01*
X147409876Y-119981475D01*
X147408671Y-119982865D01*
X147407000Y-119990548D01*
X147407000Y-121085884D01*
X147153000Y-121085884D01*
X147153000Y-119995115D01*
X147148525Y-119979876D01*
X147147135Y-119978671D01*
X147139452Y-119977000D01*
X146294116Y-119977000D01*
X146278877Y-119981475D01*
X146277672Y-119982865D01*
X146276001Y-119990548D01*
X146276001Y-120868828D01*
X143284500Y-120868828D01*
X143284499Y-118998500D01*
X143304501Y-118930379D01*
X143358157Y-118883886D01*
X143410499Y-118872500D01*
X146150000Y-118872500D01*
X146218121Y-118892502D01*
X146264614Y-118946158D01*
X146276000Y-118998500D01*
X146276000Y-119704885D01*
X146280475Y-119720124D01*
X146281865Y-119721329D01*
X146289548Y-119723000D01*
X148265884Y-119723000D01*
X148281123Y-119718525D01*
X148282328Y-119717135D01*
X148283999Y-119709452D01*
X148283999Y-118998500D01*
X148304001Y-118930379D01*
X148357657Y-118883886D01*
X148409999Y-118872500D01*
X153849500Y-118872500D01*
X153917621Y-118892502D01*
X153964114Y-118946158D01*
X153975500Y-118998500D01*
X153975501Y-119977000D01*
X153975501Y-120875066D01*
X153981821Y-120906842D01*
X153987806Y-120936931D01*
X153990266Y-120949301D01*
X154046516Y-121033484D01*
X154130699Y-121089734D01*
X154204933Y-121104500D01*
X154349500Y-121104500D01*
X154417621Y-121124502D01*
X154464114Y-121178158D01*
X154475500Y-121230500D01*
X154475500Y-126483557D01*
X154455498Y-126551678D01*
X154450034Y-126558834D01*
X154450039Y-126558838D01*
X154394033Y-126638526D01*
X154338498Y-126682757D01*
X154267866Y-126689943D01*
X154204562Y-126657802D01*
X154170516Y-126603124D01*
X154160122Y-126569338D01*
X154146200Y-126524083D01*
X154123693Y-126480475D01*
X154046063Y-126330071D01*
X154046063Y-126330070D01*
X154043491Y-126325088D01*
X153907167Y-126147427D01*
X153903021Y-126143654D01*
X153903016Y-126143649D01*
X153745689Y-126000493D01*
X153741536Y-125996714D01*
X153551833Y-125877714D01*
X153344056Y-125794188D01*
X153338564Y-125793051D01*
X153338562Y-125793050D01*
X153187754Y-125761819D01*
X153124772Y-125748776D01*
X153120161Y-125748510D01*
X153120160Y-125748510D01*
X153069775Y-125745605D01*
X153069771Y-125745605D01*
X153067952Y-125745500D01*
X152923181Y-125745500D01*
X152920394Y-125745749D01*
X152920388Y-125745749D01*
X152851038Y-125751939D01*
X152756949Y-125760336D01*
X152540949Y-125819427D01*
X152535891Y-125821839D01*
X152535887Y-125821841D01*
X152388464Y-125892158D01*
X152338826Y-125915834D01*
X152334265Y-125919111D01*
X152334264Y-125919112D01*
X152221011Y-126000493D01*
X152156970Y-126046511D01*
X152153065Y-126050541D01*
X152011068Y-126197070D01*
X152001129Y-126207326D01*
X151998001Y-126211981D01*
X151885881Y-126378835D01*
X151876230Y-126393197D01*
X151786218Y-126598248D01*
X151784908Y-126603705D01*
X151738230Y-126798135D01*
X151733941Y-126815998D01*
X151733446Y-126824583D01*
X151722301Y-127017891D01*
X151721051Y-127039564D01*
X151747954Y-127261880D01*
X151813800Y-127475917D01*
X151816370Y-127480897D01*
X151816372Y-127480901D01*
X151901010Y-127644884D01*
X151916509Y-127674912D01*
X152052833Y-127852573D01*
X152056979Y-127856346D01*
X152056984Y-127856351D01*
X152121007Y-127914607D01*
X152218464Y-128003286D01*
X152408167Y-128122286D01*
X152615944Y-128205812D01*
X152621436Y-128206949D01*
X152621438Y-128206950D01*
X152762059Y-128236071D01*
X152835228Y-128251224D01*
X152839839Y-128251490D01*
X152839840Y-128251490D01*
X152890225Y-128254395D01*
X152890229Y-128254395D01*
X152892048Y-128254500D01*
X153036819Y-128254500D01*
X153039606Y-128254251D01*
X153039612Y-128254251D01*
X153108962Y-128248061D01*
X153203051Y-128239664D01*
X153419051Y-128180573D01*
X153424109Y-128178161D01*
X153424113Y-128178159D01*
X153616107Y-128086583D01*
X153616109Y-128086582D01*
X153621174Y-128084166D01*
X153729578Y-128006270D01*
X153798470Y-127956766D01*
X153798472Y-127956764D01*
X153803030Y-127953489D01*
X153905138Y-127848122D01*
X153954969Y-127796701D01*
X153954971Y-127796698D01*
X153958871Y-127792674D01*
X154010958Y-127715160D01*
X154080641Y-127611460D01*
X154080643Y-127611457D01*
X154083770Y-127606803D01*
X154173782Y-127401752D01*
X154174793Y-127397540D01*
X154215251Y-127339688D01*
X154280935Y-127312740D01*
X154350760Y-127325582D01*
X154398562Y-127367788D01*
X154436668Y-127424497D01*
X154436673Y-127424503D01*
X154440908Y-127430805D01*
X154446527Y-127435918D01*
X154446528Y-127435919D01*
X154552317Y-127532179D01*
X154558076Y-127537419D01*
X154697293Y-127613008D01*
X154850522Y-127653207D01*
X154934477Y-127654526D01*
X155001319Y-127655576D01*
X155001322Y-127655576D01*
X155008916Y-127655695D01*
X155163332Y-127620329D01*
X155260172Y-127571624D01*
X155298072Y-127552563D01*
X155298075Y-127552561D01*
X155304855Y-127549151D01*
X155310626Y-127544222D01*
X155310629Y-127544220D01*
X155419536Y-127451204D01*
X155419536Y-127451203D01*
X155425314Y-127446269D01*
X155517755Y-127317624D01*
X155576842Y-127170641D01*
X155594703Y-127045141D01*
X155595497Y-127039564D01*
X160721051Y-127039564D01*
X160747954Y-127261880D01*
X160813800Y-127475917D01*
X160816370Y-127480897D01*
X160816372Y-127480901D01*
X160901010Y-127644884D01*
X160916509Y-127674912D01*
X161052833Y-127852573D01*
X161056979Y-127856346D01*
X161056984Y-127856351D01*
X161121007Y-127914607D01*
X161218464Y-128003286D01*
X161408167Y-128122286D01*
X161615944Y-128205812D01*
X161621436Y-128206949D01*
X161621438Y-128206950D01*
X161762059Y-128236071D01*
X161835228Y-128251224D01*
X161839839Y-128251490D01*
X161839840Y-128251490D01*
X161890225Y-128254395D01*
X161890229Y-128254395D01*
X161892048Y-128254500D01*
X162036819Y-128254500D01*
X162039606Y-128254251D01*
X162039612Y-128254251D01*
X162108962Y-128248061D01*
X162203051Y-128239664D01*
X162419051Y-128180573D01*
X162424109Y-128178161D01*
X162424113Y-128178159D01*
X162616107Y-128086583D01*
X162616109Y-128086582D01*
X162621174Y-128084166D01*
X162729578Y-128006270D01*
X162798470Y-127956766D01*
X162798472Y-127956764D01*
X162803030Y-127953489D01*
X162905138Y-127848122D01*
X162954969Y-127796701D01*
X162954971Y-127796698D01*
X162958871Y-127792674D01*
X163010958Y-127715160D01*
X163080641Y-127611460D01*
X163080643Y-127611457D01*
X163083770Y-127606803D01*
X163154240Y-127446269D01*
X163171525Y-127406894D01*
X163171527Y-127406889D01*
X163173782Y-127401752D01*
X163226059Y-127184002D01*
X163234387Y-127039564D01*
X164421051Y-127039564D01*
X164447954Y-127261880D01*
X164513800Y-127475917D01*
X164516370Y-127480897D01*
X164516372Y-127480901D01*
X164601010Y-127644884D01*
X164616509Y-127674912D01*
X164752833Y-127852573D01*
X164756979Y-127856346D01*
X164756984Y-127856351D01*
X164821007Y-127914607D01*
X164918464Y-128003286D01*
X165108167Y-128122286D01*
X165315944Y-128205812D01*
X165321436Y-128206949D01*
X165321438Y-128206950D01*
X165462059Y-128236071D01*
X165535228Y-128251224D01*
X165539839Y-128251490D01*
X165539840Y-128251490D01*
X165590225Y-128254395D01*
X165590229Y-128254395D01*
X165592048Y-128254500D01*
X165736819Y-128254500D01*
X165739606Y-128254251D01*
X165739612Y-128254251D01*
X165808962Y-128248061D01*
X165903051Y-128239664D01*
X166119051Y-128180573D01*
X166124109Y-128178161D01*
X166124113Y-128178159D01*
X166316107Y-128086583D01*
X166316109Y-128086582D01*
X166321174Y-128084166D01*
X166429578Y-128006270D01*
X166498470Y-127956766D01*
X166498472Y-127956764D01*
X166503030Y-127953489D01*
X166605138Y-127848122D01*
X166654969Y-127796701D01*
X166654971Y-127796698D01*
X166658871Y-127792674D01*
X166710958Y-127715160D01*
X166780641Y-127611460D01*
X166780643Y-127611457D01*
X166783770Y-127606803D01*
X166854240Y-127446269D01*
X166871525Y-127406894D01*
X166871527Y-127406889D01*
X166873782Y-127401752D01*
X166926059Y-127184002D01*
X166934387Y-127039564D01*
X173421051Y-127039564D01*
X173447954Y-127261880D01*
X173513800Y-127475917D01*
X173516370Y-127480897D01*
X173516372Y-127480901D01*
X173601010Y-127644884D01*
X173616509Y-127674912D01*
X173752833Y-127852573D01*
X173756979Y-127856346D01*
X173756984Y-127856351D01*
X173821007Y-127914607D01*
X173918464Y-128003286D01*
X174108167Y-128122286D01*
X174315944Y-128205812D01*
X174321436Y-128206949D01*
X174321438Y-128206950D01*
X174462059Y-128236071D01*
X174535228Y-128251224D01*
X174539839Y-128251490D01*
X174539840Y-128251490D01*
X174590225Y-128254395D01*
X174590229Y-128254395D01*
X174592048Y-128254500D01*
X174736819Y-128254500D01*
X174739606Y-128254251D01*
X174739612Y-128254251D01*
X174808962Y-128248061D01*
X174903051Y-128239664D01*
X175119051Y-128180573D01*
X175124109Y-128178161D01*
X175124113Y-128178159D01*
X175316107Y-128086583D01*
X175316109Y-128086582D01*
X175321174Y-128084166D01*
X175429578Y-128006270D01*
X175498470Y-127956766D01*
X175498472Y-127956764D01*
X175503030Y-127953489D01*
X175605138Y-127848122D01*
X175654969Y-127796701D01*
X175654971Y-127796698D01*
X175658871Y-127792674D01*
X175710958Y-127715160D01*
X175780641Y-127611460D01*
X175780643Y-127611457D01*
X175783770Y-127606803D01*
X175854240Y-127446269D01*
X175871525Y-127406894D01*
X175871527Y-127406889D01*
X175873782Y-127401752D01*
X175926059Y-127184002D01*
X175934387Y-127039564D01*
X177121051Y-127039564D01*
X177147954Y-127261880D01*
X177213800Y-127475917D01*
X177216370Y-127480897D01*
X177216372Y-127480901D01*
X177301010Y-127644884D01*
X177316509Y-127674912D01*
X177452833Y-127852573D01*
X177456979Y-127856346D01*
X177456984Y-127856351D01*
X177521007Y-127914607D01*
X177618464Y-128003286D01*
X177808167Y-128122286D01*
X178015944Y-128205812D01*
X178021436Y-128206949D01*
X178021438Y-128206950D01*
X178162059Y-128236071D01*
X178235228Y-128251224D01*
X178239839Y-128251490D01*
X178239840Y-128251490D01*
X178290225Y-128254395D01*
X178290229Y-128254395D01*
X178292048Y-128254500D01*
X178436819Y-128254500D01*
X178439606Y-128254251D01*
X178439612Y-128254251D01*
X178508962Y-128248061D01*
X178603051Y-128239664D01*
X178819051Y-128180573D01*
X178824109Y-128178161D01*
X178824113Y-128178159D01*
X179016107Y-128086583D01*
X179016109Y-128086582D01*
X179021174Y-128084166D01*
X179129578Y-128006270D01*
X179198470Y-127956766D01*
X179198472Y-127956764D01*
X179203030Y-127953489D01*
X179305138Y-127848122D01*
X179354969Y-127796701D01*
X179354971Y-127796698D01*
X179358871Y-127792674D01*
X179410958Y-127715160D01*
X179480641Y-127611460D01*
X179480643Y-127611457D01*
X179483770Y-127606803D01*
X179554240Y-127446269D01*
X179571525Y-127406894D01*
X179571527Y-127406889D01*
X179573782Y-127401752D01*
X179626059Y-127184002D01*
X179634387Y-127039564D01*
X186121051Y-127039564D01*
X186147954Y-127261880D01*
X186213800Y-127475917D01*
X186216370Y-127480897D01*
X186216372Y-127480901D01*
X186301010Y-127644884D01*
X186316509Y-127674912D01*
X186452833Y-127852573D01*
X186456979Y-127856346D01*
X186456984Y-127856351D01*
X186521007Y-127914607D01*
X186618464Y-128003286D01*
X186808167Y-128122286D01*
X187015944Y-128205812D01*
X187021436Y-128206949D01*
X187021438Y-128206950D01*
X187162059Y-128236071D01*
X187235228Y-128251224D01*
X187239839Y-128251490D01*
X187239840Y-128251490D01*
X187290225Y-128254395D01*
X187290229Y-128254395D01*
X187292048Y-128254500D01*
X187436819Y-128254500D01*
X187439606Y-128254251D01*
X187439612Y-128254251D01*
X187508962Y-128248061D01*
X187603051Y-128239664D01*
X187819051Y-128180573D01*
X187824109Y-128178161D01*
X187824113Y-128178159D01*
X188016107Y-128086583D01*
X188016109Y-128086582D01*
X188021174Y-128084166D01*
X188129578Y-128006270D01*
X188198470Y-127956766D01*
X188198472Y-127956764D01*
X188203030Y-127953489D01*
X188305138Y-127848122D01*
X188354969Y-127796701D01*
X188354971Y-127796698D01*
X188358871Y-127792674D01*
X188410958Y-127715160D01*
X188480641Y-127611460D01*
X188480643Y-127611457D01*
X188483770Y-127606803D01*
X188554240Y-127446269D01*
X188571525Y-127406894D01*
X188571527Y-127406889D01*
X188573782Y-127401752D01*
X188626059Y-127184002D01*
X188634387Y-127039564D01*
X189821051Y-127039564D01*
X189847954Y-127261880D01*
X189913800Y-127475917D01*
X189916370Y-127480897D01*
X189916372Y-127480901D01*
X190001010Y-127644884D01*
X190016509Y-127674912D01*
X190152833Y-127852573D01*
X190156979Y-127856346D01*
X190156984Y-127856351D01*
X190221007Y-127914607D01*
X190318464Y-128003286D01*
X190508167Y-128122286D01*
X190715944Y-128205812D01*
X190721436Y-128206949D01*
X190721438Y-128206950D01*
X190862059Y-128236071D01*
X190935228Y-128251224D01*
X190939839Y-128251490D01*
X190939840Y-128251490D01*
X190990225Y-128254395D01*
X190990229Y-128254395D01*
X190992048Y-128254500D01*
X191136819Y-128254500D01*
X191139606Y-128254251D01*
X191139612Y-128254251D01*
X191208962Y-128248061D01*
X191303051Y-128239664D01*
X191519051Y-128180573D01*
X191524109Y-128178161D01*
X191524113Y-128178159D01*
X191716107Y-128086583D01*
X191716109Y-128086582D01*
X191721174Y-128084166D01*
X191829578Y-128006270D01*
X191898470Y-127956766D01*
X191898472Y-127956764D01*
X191903030Y-127953489D01*
X192005138Y-127848122D01*
X192054969Y-127796701D01*
X192054971Y-127796698D01*
X192058871Y-127792674D01*
X192110958Y-127715160D01*
X192180641Y-127611460D01*
X192180643Y-127611457D01*
X192183770Y-127606803D01*
X192254240Y-127446269D01*
X192271525Y-127406894D01*
X192271527Y-127406889D01*
X192273782Y-127401752D01*
X192326059Y-127184002D01*
X192334387Y-127039564D01*
X198821051Y-127039564D01*
X198847954Y-127261880D01*
X198913800Y-127475917D01*
X198916370Y-127480897D01*
X198916372Y-127480901D01*
X199001010Y-127644884D01*
X199016509Y-127674912D01*
X199152833Y-127852573D01*
X199156979Y-127856346D01*
X199156984Y-127856351D01*
X199221007Y-127914607D01*
X199318464Y-128003286D01*
X199508167Y-128122286D01*
X199715944Y-128205812D01*
X199721436Y-128206949D01*
X199721438Y-128206950D01*
X199862059Y-128236071D01*
X199935228Y-128251224D01*
X199939839Y-128251490D01*
X199939840Y-128251490D01*
X199990225Y-128254395D01*
X199990229Y-128254395D01*
X199992048Y-128254500D01*
X200136819Y-128254500D01*
X200139606Y-128254251D01*
X200139612Y-128254251D01*
X200208962Y-128248061D01*
X200303051Y-128239664D01*
X200519051Y-128180573D01*
X200524109Y-128178161D01*
X200524113Y-128178159D01*
X200716107Y-128086583D01*
X200716109Y-128086582D01*
X200721174Y-128084166D01*
X200829578Y-128006270D01*
X200898470Y-127956766D01*
X200898472Y-127956764D01*
X200903030Y-127953489D01*
X201005138Y-127848122D01*
X201054969Y-127796701D01*
X201054971Y-127796698D01*
X201058871Y-127792674D01*
X201110958Y-127715160D01*
X201180641Y-127611460D01*
X201180643Y-127611457D01*
X201183770Y-127606803D01*
X201254240Y-127446269D01*
X201271525Y-127406894D01*
X201271527Y-127406889D01*
X201273782Y-127401752D01*
X201326059Y-127184002D01*
X201334710Y-127033957D01*
X201338626Y-126966043D01*
X201338626Y-126966040D01*
X201338949Y-126960436D01*
X201312046Y-126738120D01*
X201246200Y-126524083D01*
X201223693Y-126480475D01*
X201146063Y-126330071D01*
X201146063Y-126330070D01*
X201143491Y-126325088D01*
X201007167Y-126147427D01*
X201003021Y-126143654D01*
X201003016Y-126143649D01*
X200845689Y-126000493D01*
X200841536Y-125996714D01*
X200651833Y-125877714D01*
X200444056Y-125794188D01*
X200438564Y-125793051D01*
X200438562Y-125793050D01*
X200287754Y-125761819D01*
X200224772Y-125748776D01*
X200220161Y-125748510D01*
X200220160Y-125748510D01*
X200169775Y-125745605D01*
X200169771Y-125745605D01*
X200167952Y-125745500D01*
X200023181Y-125745500D01*
X200020394Y-125745749D01*
X200020388Y-125745749D01*
X199951038Y-125751939D01*
X199856949Y-125760336D01*
X199640949Y-125819427D01*
X199635891Y-125821839D01*
X199635887Y-125821841D01*
X199488464Y-125892158D01*
X199438826Y-125915834D01*
X199434265Y-125919111D01*
X199434264Y-125919112D01*
X199321011Y-126000493D01*
X199256970Y-126046511D01*
X199253065Y-126050541D01*
X199111068Y-126197070D01*
X199101129Y-126207326D01*
X199098001Y-126211981D01*
X198985881Y-126378835D01*
X198976230Y-126393197D01*
X198886218Y-126598248D01*
X198884908Y-126603705D01*
X198838230Y-126798135D01*
X198833941Y-126815998D01*
X198833446Y-126824583D01*
X198822301Y-127017891D01*
X198821051Y-127039564D01*
X192334387Y-127039564D01*
X192334710Y-127033957D01*
X192338626Y-126966043D01*
X192338626Y-126966040D01*
X192338949Y-126960436D01*
X192312046Y-126738120D01*
X192246200Y-126524083D01*
X192223693Y-126480475D01*
X192146063Y-126330071D01*
X192146063Y-126330070D01*
X192143491Y-126325088D01*
X192007167Y-126147427D01*
X192003021Y-126143654D01*
X192003016Y-126143649D01*
X191845689Y-126000493D01*
X191841536Y-125996714D01*
X191651833Y-125877714D01*
X191444056Y-125794188D01*
X191438564Y-125793051D01*
X191438562Y-125793050D01*
X191287754Y-125761819D01*
X191224772Y-125748776D01*
X191220161Y-125748510D01*
X191220160Y-125748510D01*
X191169775Y-125745605D01*
X191169771Y-125745605D01*
X191167952Y-125745500D01*
X191023181Y-125745500D01*
X191020394Y-125745749D01*
X191020388Y-125745749D01*
X190951038Y-125751939D01*
X190856949Y-125760336D01*
X190640949Y-125819427D01*
X190635891Y-125821839D01*
X190635887Y-125821841D01*
X190488464Y-125892158D01*
X190438826Y-125915834D01*
X190434265Y-125919111D01*
X190434264Y-125919112D01*
X190321011Y-126000493D01*
X190256970Y-126046511D01*
X190253065Y-126050541D01*
X190111068Y-126197070D01*
X190101129Y-126207326D01*
X190098001Y-126211981D01*
X189985881Y-126378835D01*
X189976230Y-126393197D01*
X189886218Y-126598248D01*
X189884908Y-126603705D01*
X189838230Y-126798135D01*
X189833941Y-126815998D01*
X189833446Y-126824583D01*
X189822301Y-127017891D01*
X189821051Y-127039564D01*
X188634387Y-127039564D01*
X188634710Y-127033957D01*
X188638626Y-126966043D01*
X188638626Y-126966040D01*
X188638949Y-126960436D01*
X188612046Y-126738120D01*
X188546200Y-126524083D01*
X188523693Y-126480475D01*
X188446063Y-126330071D01*
X188446063Y-126330070D01*
X188443491Y-126325088D01*
X188307167Y-126147427D01*
X188303021Y-126143654D01*
X188303016Y-126143649D01*
X188145689Y-126000493D01*
X188141536Y-125996714D01*
X187951833Y-125877714D01*
X187744056Y-125794188D01*
X187738564Y-125793051D01*
X187738562Y-125793050D01*
X187587754Y-125761819D01*
X187524772Y-125748776D01*
X187520161Y-125748510D01*
X187520160Y-125748510D01*
X187469775Y-125745605D01*
X187469771Y-125745605D01*
X187467952Y-125745500D01*
X187323181Y-125745500D01*
X187320394Y-125745749D01*
X187320388Y-125745749D01*
X187251038Y-125751939D01*
X187156949Y-125760336D01*
X186940949Y-125819427D01*
X186935891Y-125821839D01*
X186935887Y-125821841D01*
X186788464Y-125892158D01*
X186738826Y-125915834D01*
X186734265Y-125919111D01*
X186734264Y-125919112D01*
X186621011Y-126000493D01*
X186556970Y-126046511D01*
X186553065Y-126050541D01*
X186411068Y-126197070D01*
X186401129Y-126207326D01*
X186398001Y-126211981D01*
X186285881Y-126378835D01*
X186276230Y-126393197D01*
X186186218Y-126598248D01*
X186184908Y-126603705D01*
X186138230Y-126798135D01*
X186133941Y-126815998D01*
X186133446Y-126824583D01*
X186122301Y-127017891D01*
X186121051Y-127039564D01*
X179634387Y-127039564D01*
X179634710Y-127033957D01*
X179638626Y-126966043D01*
X179638626Y-126966040D01*
X179638949Y-126960436D01*
X179612046Y-126738120D01*
X179546200Y-126524083D01*
X179523693Y-126480475D01*
X179446063Y-126330071D01*
X179446063Y-126330070D01*
X179443491Y-126325088D01*
X179307167Y-126147427D01*
X179303021Y-126143654D01*
X179303016Y-126143649D01*
X179145689Y-126000493D01*
X179141536Y-125996714D01*
X178951833Y-125877714D01*
X178744056Y-125794188D01*
X178738564Y-125793051D01*
X178738562Y-125793050D01*
X178587754Y-125761819D01*
X178524772Y-125748776D01*
X178520161Y-125748510D01*
X178520160Y-125748510D01*
X178469775Y-125745605D01*
X178469771Y-125745605D01*
X178467952Y-125745500D01*
X178323181Y-125745500D01*
X178320394Y-125745749D01*
X178320388Y-125745749D01*
X178251038Y-125751939D01*
X178156949Y-125760336D01*
X177940949Y-125819427D01*
X177935891Y-125821839D01*
X177935887Y-125821841D01*
X177788464Y-125892158D01*
X177738826Y-125915834D01*
X177734265Y-125919111D01*
X177734264Y-125919112D01*
X177621011Y-126000493D01*
X177556970Y-126046511D01*
X177553065Y-126050541D01*
X177411068Y-126197070D01*
X177401129Y-126207326D01*
X177398001Y-126211981D01*
X177285881Y-126378835D01*
X177276230Y-126393197D01*
X177186218Y-126598248D01*
X177184908Y-126603705D01*
X177138230Y-126798135D01*
X177133941Y-126815998D01*
X177133446Y-126824583D01*
X177122301Y-127017891D01*
X177121051Y-127039564D01*
X175934387Y-127039564D01*
X175934710Y-127033957D01*
X175938626Y-126966043D01*
X175938626Y-126966040D01*
X175938949Y-126960436D01*
X175912046Y-126738120D01*
X175846200Y-126524083D01*
X175823693Y-126480475D01*
X175746063Y-126330071D01*
X175746063Y-126330070D01*
X175743491Y-126325088D01*
X175607167Y-126147427D01*
X175603021Y-126143654D01*
X175603016Y-126143649D01*
X175445689Y-126000493D01*
X175441536Y-125996714D01*
X175251833Y-125877714D01*
X175044056Y-125794188D01*
X175038564Y-125793051D01*
X175038562Y-125793050D01*
X174887754Y-125761819D01*
X174824772Y-125748776D01*
X174820161Y-125748510D01*
X174820160Y-125748510D01*
X174769775Y-125745605D01*
X174769771Y-125745605D01*
X174767952Y-125745500D01*
X174623181Y-125745500D01*
X174620394Y-125745749D01*
X174620388Y-125745749D01*
X174551038Y-125751939D01*
X174456949Y-125760336D01*
X174240949Y-125819427D01*
X174235891Y-125821839D01*
X174235887Y-125821841D01*
X174088464Y-125892158D01*
X174038826Y-125915834D01*
X174034265Y-125919111D01*
X174034264Y-125919112D01*
X173921011Y-126000493D01*
X173856970Y-126046511D01*
X173853065Y-126050541D01*
X173711068Y-126197070D01*
X173701129Y-126207326D01*
X173698001Y-126211981D01*
X173585881Y-126378835D01*
X173576230Y-126393197D01*
X173486218Y-126598248D01*
X173484908Y-126603705D01*
X173438230Y-126798135D01*
X173433941Y-126815998D01*
X173433446Y-126824583D01*
X173422301Y-127017891D01*
X173421051Y-127039564D01*
X166934387Y-127039564D01*
X166934710Y-127033957D01*
X166938626Y-126966043D01*
X166938626Y-126966040D01*
X166938949Y-126960436D01*
X166912046Y-126738120D01*
X166846200Y-126524083D01*
X166823693Y-126480475D01*
X166746063Y-126330071D01*
X166746063Y-126330070D01*
X166743491Y-126325088D01*
X166607167Y-126147427D01*
X166603021Y-126143654D01*
X166603016Y-126143649D01*
X166445689Y-126000493D01*
X166441536Y-125996714D01*
X166251833Y-125877714D01*
X166044056Y-125794188D01*
X166038564Y-125793051D01*
X166038562Y-125793050D01*
X165887754Y-125761819D01*
X165824772Y-125748776D01*
X165820161Y-125748510D01*
X165820160Y-125748510D01*
X165769775Y-125745605D01*
X165769771Y-125745605D01*
X165767952Y-125745500D01*
X165623181Y-125745500D01*
X165620394Y-125745749D01*
X165620388Y-125745749D01*
X165551038Y-125751939D01*
X165456949Y-125760336D01*
X165240949Y-125819427D01*
X165235891Y-125821839D01*
X165235887Y-125821841D01*
X165088464Y-125892158D01*
X165038826Y-125915834D01*
X165034265Y-125919111D01*
X165034264Y-125919112D01*
X164921011Y-126000493D01*
X164856970Y-126046511D01*
X164853065Y-126050541D01*
X164711068Y-126197070D01*
X164701129Y-126207326D01*
X164698001Y-126211981D01*
X164585881Y-126378835D01*
X164576230Y-126393197D01*
X164486218Y-126598248D01*
X164484908Y-126603705D01*
X164438230Y-126798135D01*
X164433941Y-126815998D01*
X164433446Y-126824583D01*
X164422301Y-127017891D01*
X164421051Y-127039564D01*
X163234387Y-127039564D01*
X163234710Y-127033957D01*
X163238626Y-126966043D01*
X163238626Y-126966040D01*
X163238949Y-126960436D01*
X163212046Y-126738120D01*
X163146200Y-126524083D01*
X163123693Y-126480475D01*
X163046063Y-126330071D01*
X163046063Y-126330070D01*
X163043491Y-126325088D01*
X162907167Y-126147427D01*
X162903021Y-126143654D01*
X162903016Y-126143649D01*
X162745689Y-126000493D01*
X162741536Y-125996714D01*
X162551833Y-125877714D01*
X162344056Y-125794188D01*
X162338564Y-125793051D01*
X162338562Y-125793050D01*
X162187754Y-125761819D01*
X162124772Y-125748776D01*
X162120161Y-125748510D01*
X162120160Y-125748510D01*
X162069775Y-125745605D01*
X162069771Y-125745605D01*
X162067952Y-125745500D01*
X161923181Y-125745500D01*
X161920394Y-125745749D01*
X161920388Y-125745749D01*
X161851038Y-125751939D01*
X161756949Y-125760336D01*
X161540949Y-125819427D01*
X161535891Y-125821839D01*
X161535887Y-125821841D01*
X161388464Y-125892158D01*
X161338826Y-125915834D01*
X161334265Y-125919111D01*
X161334264Y-125919112D01*
X161221011Y-126000493D01*
X161156970Y-126046511D01*
X161153065Y-126050541D01*
X161011068Y-126197070D01*
X161001129Y-126207326D01*
X160998001Y-126211981D01*
X160885881Y-126378835D01*
X160876230Y-126393197D01*
X160786218Y-126598248D01*
X160784908Y-126603705D01*
X160738230Y-126798135D01*
X160733941Y-126815998D01*
X160733446Y-126824583D01*
X160722301Y-127017891D01*
X160721051Y-127039564D01*
X155595497Y-127039564D01*
X155598581Y-127017891D01*
X155598581Y-127017888D01*
X155599162Y-127013807D01*
X155599307Y-127000000D01*
X155580276Y-126842733D01*
X155524280Y-126694546D01*
X155506659Y-126668908D01*
X155484500Y-126597542D01*
X155484500Y-121230499D01*
X155504502Y-121162378D01*
X155558158Y-121115885D01*
X155610500Y-121104499D01*
X155755066Y-121104499D01*
X155790818Y-121097388D01*
X155817126Y-121092156D01*
X155817128Y-121092155D01*
X155829301Y-121089734D01*
X155839621Y-121082839D01*
X155839622Y-121082838D01*
X155903168Y-121040377D01*
X155913484Y-121033484D01*
X155969734Y-120949301D01*
X155984500Y-120875067D01*
X155984500Y-120868828D01*
X158976001Y-120868828D01*
X158977209Y-120881088D01*
X158988315Y-120936931D01*
X158997633Y-120959427D01*
X159039983Y-121022808D01*
X159057192Y-121040017D01*
X159120575Y-121082368D01*
X159143066Y-121091684D01*
X159198915Y-121102793D01*
X159211170Y-121104000D01*
X159834885Y-121104000D01*
X159850124Y-121099525D01*
X159851329Y-121098135D01*
X159853000Y-121090452D01*
X159853000Y-121085884D01*
X160107000Y-121085884D01*
X160111475Y-121101123D01*
X160112865Y-121102328D01*
X160120548Y-121103999D01*
X160748828Y-121103999D01*
X160761088Y-121102791D01*
X160816931Y-121091685D01*
X160839427Y-121082367D01*
X160902808Y-121040017D01*
X160920017Y-121022808D01*
X160962368Y-120959425D01*
X160971684Y-120936934D01*
X160982793Y-120881085D01*
X160984000Y-120868830D01*
X160984000Y-119995115D01*
X160979525Y-119979876D01*
X160978135Y-119978671D01*
X160970452Y-119977000D01*
X160125115Y-119977000D01*
X160109876Y-119981475D01*
X160108671Y-119982865D01*
X160107000Y-119990548D01*
X160107000Y-121085884D01*
X159853000Y-121085884D01*
X159853000Y-119995115D01*
X159848525Y-119979876D01*
X159847135Y-119978671D01*
X159839452Y-119977000D01*
X158994116Y-119977000D01*
X158978877Y-119981475D01*
X158977672Y-119982865D01*
X158976001Y-119990548D01*
X158976001Y-120868828D01*
X155984500Y-120868828D01*
X155984499Y-118998500D01*
X156004501Y-118930379D01*
X156058157Y-118883886D01*
X156110499Y-118872500D01*
X158850000Y-118872500D01*
X158918121Y-118892502D01*
X158964614Y-118946158D01*
X158976000Y-118998500D01*
X158976000Y-119704885D01*
X158980475Y-119720124D01*
X158981865Y-119721329D01*
X158989548Y-119723000D01*
X160965884Y-119723000D01*
X160981123Y-119718525D01*
X160982328Y-119717135D01*
X160983999Y-119709452D01*
X160983999Y-118998500D01*
X161004001Y-118930379D01*
X161057657Y-118883886D01*
X161109999Y-118872500D01*
X166549500Y-118872500D01*
X166617621Y-118892502D01*
X166664114Y-118946158D01*
X166675500Y-118998500D01*
X166675501Y-119977000D01*
X166675501Y-120875066D01*
X166681821Y-120906842D01*
X166687806Y-120936931D01*
X166690266Y-120949301D01*
X166746516Y-121033484D01*
X166830699Y-121089734D01*
X166904933Y-121104500D01*
X167049500Y-121104500D01*
X167117621Y-121124502D01*
X167164114Y-121178158D01*
X167175500Y-121230500D01*
X167175500Y-124451557D01*
X167155498Y-124519678D01*
X167150034Y-124526834D01*
X167150039Y-124526838D01*
X167058950Y-124656444D01*
X167053802Y-124669649D01*
X167005484Y-124793578D01*
X167001406Y-124804037D01*
X167000414Y-124811570D01*
X167000414Y-124811571D01*
X166985282Y-124926514D01*
X166980729Y-124961096D01*
X166985578Y-125005014D01*
X166995059Y-125090889D01*
X166998113Y-125118553D01*
X167000723Y-125125684D01*
X167000723Y-125125686D01*
X167021467Y-125182371D01*
X167052553Y-125267319D01*
X167056789Y-125273622D01*
X167056789Y-125273623D01*
X167124648Y-125374607D01*
X167140908Y-125398805D01*
X167146527Y-125403918D01*
X167146528Y-125403919D01*
X167157903Y-125414269D01*
X167258076Y-125505419D01*
X167397293Y-125581008D01*
X167550522Y-125621207D01*
X167634477Y-125622526D01*
X167701319Y-125623576D01*
X167701322Y-125623576D01*
X167708916Y-125623695D01*
X167863332Y-125588329D01*
X167972828Y-125533259D01*
X167998072Y-125520563D01*
X167998075Y-125520561D01*
X168004855Y-125517151D01*
X168010626Y-125512222D01*
X168010629Y-125512220D01*
X168119536Y-125419204D01*
X168119536Y-125419203D01*
X168125314Y-125414269D01*
X168217755Y-125285624D01*
X168276842Y-125138641D01*
X168299162Y-124981807D01*
X168299307Y-124968000D01*
X168280276Y-124810733D01*
X168224280Y-124662546D01*
X168206659Y-124636908D01*
X168184500Y-124565542D01*
X168184500Y-121230499D01*
X168204502Y-121162378D01*
X168258158Y-121115885D01*
X168310500Y-121104499D01*
X168455066Y-121104499D01*
X168490818Y-121097388D01*
X168517126Y-121092156D01*
X168517128Y-121092155D01*
X168529301Y-121089734D01*
X168539621Y-121082839D01*
X168539622Y-121082838D01*
X168603168Y-121040377D01*
X168613484Y-121033484D01*
X168669734Y-120949301D01*
X168684500Y-120875067D01*
X168684500Y-120868828D01*
X171676001Y-120868828D01*
X171677209Y-120881088D01*
X171688315Y-120936931D01*
X171697633Y-120959427D01*
X171739983Y-121022808D01*
X171757192Y-121040017D01*
X171820575Y-121082368D01*
X171843066Y-121091684D01*
X171898915Y-121102793D01*
X171911170Y-121104000D01*
X172534885Y-121104000D01*
X172550124Y-121099525D01*
X172551329Y-121098135D01*
X172553000Y-121090452D01*
X172553000Y-121085884D01*
X172807000Y-121085884D01*
X172811475Y-121101123D01*
X172812865Y-121102328D01*
X172820548Y-121103999D01*
X173448828Y-121103999D01*
X173461088Y-121102791D01*
X173516931Y-121091685D01*
X173539427Y-121082367D01*
X173602808Y-121040017D01*
X173620017Y-121022808D01*
X173662368Y-120959425D01*
X173671684Y-120936934D01*
X173682793Y-120881085D01*
X173684000Y-120868830D01*
X173684000Y-119995115D01*
X173679525Y-119979876D01*
X173678135Y-119978671D01*
X173670452Y-119977000D01*
X172825115Y-119977000D01*
X172809876Y-119981475D01*
X172808671Y-119982865D01*
X172807000Y-119990548D01*
X172807000Y-121085884D01*
X172553000Y-121085884D01*
X172553000Y-119995115D01*
X172548525Y-119979876D01*
X172547135Y-119978671D01*
X172539452Y-119977000D01*
X171694116Y-119977000D01*
X171678877Y-119981475D01*
X171677672Y-119982865D01*
X171676001Y-119990548D01*
X171676001Y-120868828D01*
X168684500Y-120868828D01*
X168684499Y-118998500D01*
X168704501Y-118930379D01*
X168758157Y-118883886D01*
X168810499Y-118872500D01*
X171550000Y-118872500D01*
X171618121Y-118892502D01*
X171664614Y-118946158D01*
X171676000Y-118998500D01*
X171676000Y-119704885D01*
X171680475Y-119720124D01*
X171681865Y-119721329D01*
X171689548Y-119723000D01*
X173665884Y-119723000D01*
X173681123Y-119718525D01*
X173682328Y-119717135D01*
X173683999Y-119709452D01*
X173683999Y-118998500D01*
X173704001Y-118930379D01*
X173757657Y-118883886D01*
X173809999Y-118872500D01*
X179249500Y-118872500D01*
X179317621Y-118892502D01*
X179364114Y-118946158D01*
X179375500Y-118998500D01*
X179375501Y-119977000D01*
X179375501Y-120875066D01*
X179381821Y-120906842D01*
X179387806Y-120936931D01*
X179390266Y-120949301D01*
X179446516Y-121033484D01*
X179530699Y-121089734D01*
X179604933Y-121104500D01*
X179692053Y-121104500D01*
X179760174Y-121124502D01*
X179806667Y-121178158D01*
X179816771Y-121248432D01*
X179795140Y-121302951D01*
X179758950Y-121354444D01*
X179701406Y-121502037D01*
X179700414Y-121509570D01*
X179700414Y-121509571D01*
X179684323Y-121631800D01*
X179680729Y-121659096D01*
X179686525Y-121711592D01*
X179692264Y-121763571D01*
X179698113Y-121816553D01*
X179700723Y-121823684D01*
X179700723Y-121823686D01*
X179737482Y-121924134D01*
X179752553Y-121965319D01*
X179756789Y-121971622D01*
X179756789Y-121971623D01*
X179833356Y-122085566D01*
X179840908Y-122096805D01*
X179846527Y-122101918D01*
X179846528Y-122101919D01*
X179952460Y-122198309D01*
X179958076Y-122203419D01*
X180097293Y-122279008D01*
X180250522Y-122319207D01*
X180334477Y-122320526D01*
X180401319Y-122321576D01*
X180401322Y-122321576D01*
X180408916Y-122321695D01*
X180563332Y-122286329D01*
X180660172Y-122237624D01*
X180698072Y-122218563D01*
X180698075Y-122218561D01*
X180704855Y-122215151D01*
X180710626Y-122210222D01*
X180710629Y-122210220D01*
X180819536Y-122117204D01*
X180819536Y-122117203D01*
X180825314Y-122112269D01*
X180917755Y-121983624D01*
X180976842Y-121836641D01*
X180994156Y-121714983D01*
X180998581Y-121683891D01*
X180998581Y-121683888D01*
X180999162Y-121679807D01*
X180999307Y-121666000D01*
X180980276Y-121508733D01*
X180924280Y-121360546D01*
X180883949Y-121301864D01*
X180861850Y-121234397D01*
X180879735Y-121165690D01*
X180931927Y-121117560D01*
X180987790Y-121104499D01*
X181155066Y-121104499D01*
X181190818Y-121097388D01*
X181217126Y-121092156D01*
X181217128Y-121092155D01*
X181229301Y-121089734D01*
X181239621Y-121082839D01*
X181239622Y-121082838D01*
X181303168Y-121040377D01*
X181313484Y-121033484D01*
X181369734Y-120949301D01*
X181384500Y-120875067D01*
X181384500Y-120868828D01*
X184376001Y-120868828D01*
X184377209Y-120881088D01*
X184388315Y-120936931D01*
X184397633Y-120959427D01*
X184439983Y-121022808D01*
X184457192Y-121040017D01*
X184520575Y-121082368D01*
X184543066Y-121091684D01*
X184598915Y-121102793D01*
X184611170Y-121104000D01*
X185234885Y-121104000D01*
X185250124Y-121099525D01*
X185251329Y-121098135D01*
X185253000Y-121090452D01*
X185253000Y-121085884D01*
X185507000Y-121085884D01*
X185511475Y-121101123D01*
X185512865Y-121102328D01*
X185520548Y-121103999D01*
X186148828Y-121103999D01*
X186161088Y-121102791D01*
X186216931Y-121091685D01*
X186239427Y-121082367D01*
X186302808Y-121040017D01*
X186320017Y-121022808D01*
X186362368Y-120959425D01*
X186371684Y-120936934D01*
X186382793Y-120881085D01*
X186384000Y-120868830D01*
X186384000Y-119995115D01*
X186379525Y-119979876D01*
X186378135Y-119978671D01*
X186370452Y-119977000D01*
X185525115Y-119977000D01*
X185509876Y-119981475D01*
X185508671Y-119982865D01*
X185507000Y-119990548D01*
X185507000Y-121085884D01*
X185253000Y-121085884D01*
X185253000Y-119995115D01*
X185248525Y-119979876D01*
X185247135Y-119978671D01*
X185239452Y-119977000D01*
X184394116Y-119977000D01*
X184378877Y-119981475D01*
X184377672Y-119982865D01*
X184376001Y-119990548D01*
X184376001Y-120868828D01*
X181384500Y-120868828D01*
X181384499Y-118998500D01*
X181404501Y-118930379D01*
X181458157Y-118883886D01*
X181510499Y-118872500D01*
X184250000Y-118872500D01*
X184318121Y-118892502D01*
X184364614Y-118946158D01*
X184376000Y-118998500D01*
X184376000Y-119704885D01*
X184380475Y-119720124D01*
X184381865Y-119721329D01*
X184389548Y-119723000D01*
X186365884Y-119723000D01*
X186381123Y-119718525D01*
X186382328Y-119717135D01*
X186383999Y-119709452D01*
X186383999Y-118998500D01*
X186404001Y-118930379D01*
X186457657Y-118883886D01*
X186509999Y-118872500D01*
X191949500Y-118872500D01*
X192017621Y-118892502D01*
X192064114Y-118946158D01*
X192075500Y-118998500D01*
X192075500Y-119234339D01*
X192055498Y-119302460D01*
X192001842Y-119348953D01*
X191931568Y-119359057D01*
X191890541Y-119345693D01*
X191808889Y-119302460D01*
X191752274Y-119272484D01*
X191598633Y-119233892D01*
X191591034Y-119233852D01*
X191591033Y-119233852D01*
X191525181Y-119233507D01*
X191440221Y-119233062D01*
X191432841Y-119234834D01*
X191432839Y-119234834D01*
X191293563Y-119268271D01*
X191293560Y-119268272D01*
X191286184Y-119270043D01*
X191145414Y-119342700D01*
X191026039Y-119446838D01*
X190934950Y-119576444D01*
X190918697Y-119618132D01*
X190881484Y-119713578D01*
X190877406Y-119724037D01*
X190876414Y-119731570D01*
X190876414Y-119731571D01*
X190861282Y-119846514D01*
X190856729Y-119881096D01*
X190861578Y-119925014D01*
X190871059Y-120010889D01*
X190874113Y-120038553D01*
X190876723Y-120045684D01*
X190876723Y-120045686D01*
X190897467Y-120102371D01*
X190928553Y-120187319D01*
X190932789Y-120193622D01*
X190932789Y-120193623D01*
X191000648Y-120294607D01*
X191016908Y-120318805D01*
X191022527Y-120323918D01*
X191022528Y-120323919D01*
X191128460Y-120420309D01*
X191134076Y-120425419D01*
X191273293Y-120501008D01*
X191426522Y-120541207D01*
X191510477Y-120542526D01*
X191577319Y-120543576D01*
X191577322Y-120543576D01*
X191584916Y-120543695D01*
X191739332Y-120508329D01*
X191880855Y-120437151D01*
X191882165Y-120436032D01*
X191947582Y-120415737D01*
X192016000Y-120434699D01*
X192063304Y-120487640D01*
X192075501Y-120541722D01*
X192075501Y-120875066D01*
X192081821Y-120906842D01*
X192087806Y-120936931D01*
X192090266Y-120949301D01*
X192146516Y-121033484D01*
X192230699Y-121089734D01*
X192304933Y-121104500D01*
X193079874Y-121104500D01*
X193855066Y-121104499D01*
X193890818Y-121097388D01*
X193917126Y-121092156D01*
X193917128Y-121092155D01*
X193929301Y-121089734D01*
X193939621Y-121082839D01*
X193939622Y-121082838D01*
X194003168Y-121040377D01*
X194013484Y-121033484D01*
X194069734Y-120949301D01*
X194084500Y-120875067D01*
X194084500Y-120868828D01*
X197076001Y-120868828D01*
X197077209Y-120881088D01*
X197088315Y-120936931D01*
X197097633Y-120959427D01*
X197139983Y-121022808D01*
X197157192Y-121040017D01*
X197220575Y-121082368D01*
X197243066Y-121091684D01*
X197298915Y-121102793D01*
X197311170Y-121104000D01*
X197934885Y-121104000D01*
X197950124Y-121099525D01*
X197951329Y-121098135D01*
X197953000Y-121090452D01*
X197953000Y-121085884D01*
X198207000Y-121085884D01*
X198211475Y-121101123D01*
X198212865Y-121102328D01*
X198220548Y-121103999D01*
X198848828Y-121103999D01*
X198861088Y-121102791D01*
X198916931Y-121091685D01*
X198939427Y-121082367D01*
X199002808Y-121040017D01*
X199020017Y-121022808D01*
X199062368Y-120959425D01*
X199071684Y-120936934D01*
X199082793Y-120881085D01*
X199084000Y-120868830D01*
X199084000Y-119995115D01*
X199079525Y-119979876D01*
X199078135Y-119978671D01*
X199070452Y-119977000D01*
X198225115Y-119977000D01*
X198209876Y-119981475D01*
X198208671Y-119982865D01*
X198207000Y-119990548D01*
X198207000Y-121085884D01*
X197953000Y-121085884D01*
X197953000Y-119995115D01*
X197948525Y-119979876D01*
X197947135Y-119978671D01*
X197939452Y-119977000D01*
X197094116Y-119977000D01*
X197078877Y-119981475D01*
X197077672Y-119982865D01*
X197076001Y-119990548D01*
X197076001Y-120868828D01*
X194084500Y-120868828D01*
X194084499Y-118998500D01*
X194104501Y-118930379D01*
X194158157Y-118883886D01*
X194210499Y-118872500D01*
X196950000Y-118872500D01*
X197018121Y-118892502D01*
X197064614Y-118946158D01*
X197076000Y-118998500D01*
X197076000Y-119704885D01*
X197080475Y-119720124D01*
X197081865Y-119721329D01*
X197089548Y-119723000D01*
X199065884Y-119723000D01*
X199081123Y-119718525D01*
X199082328Y-119717135D01*
X199083999Y-119709452D01*
X199083999Y-118998500D01*
X199104001Y-118930379D01*
X199157657Y-118883886D01*
X199209999Y-118872500D01*
X201549500Y-118872500D01*
X201617621Y-118892502D01*
X201664114Y-118946158D01*
X201675500Y-118998500D01*
X201675500Y-135001500D01*
X201655498Y-135069621D01*
X201601842Y-135116114D01*
X201549500Y-135127500D01*
X199210000Y-135127500D01*
X199141879Y-135107498D01*
X199095386Y-135053842D01*
X199084000Y-135001500D01*
X199084000Y-134295115D01*
X199079525Y-134279876D01*
X199078135Y-134278671D01*
X199070452Y-134277000D01*
X197094116Y-134277000D01*
X197078877Y-134281475D01*
X197077672Y-134282865D01*
X197076001Y-134290548D01*
X197076001Y-135001500D01*
X197055999Y-135069621D01*
X197002343Y-135116114D01*
X196950001Y-135127500D01*
X194210500Y-135127500D01*
X194142379Y-135107498D01*
X194095886Y-135053842D01*
X194084500Y-135001500D01*
X194084499Y-134004885D01*
X197076000Y-134004885D01*
X197080475Y-134020124D01*
X197081865Y-134021329D01*
X197089548Y-134023000D01*
X197934885Y-134023000D01*
X197950124Y-134018525D01*
X197951329Y-134017135D01*
X197953000Y-134009452D01*
X197953000Y-134004885D01*
X198207000Y-134004885D01*
X198211475Y-134020124D01*
X198212865Y-134021329D01*
X198220548Y-134023000D01*
X199065884Y-134023000D01*
X199081123Y-134018525D01*
X199082328Y-134017135D01*
X199083999Y-134009452D01*
X199083999Y-133131172D01*
X199082791Y-133118912D01*
X199071685Y-133063069D01*
X199062367Y-133040573D01*
X199020017Y-132977192D01*
X199002808Y-132959983D01*
X198939425Y-132917632D01*
X198916934Y-132908316D01*
X198861085Y-132897207D01*
X198848830Y-132896000D01*
X198225115Y-132896000D01*
X198209876Y-132900475D01*
X198208671Y-132901865D01*
X198207000Y-132909548D01*
X198207000Y-134004885D01*
X197953000Y-134004885D01*
X197953000Y-132914116D01*
X197948525Y-132898877D01*
X197947135Y-132897672D01*
X197939452Y-132896001D01*
X197311172Y-132896001D01*
X197298912Y-132897209D01*
X197243069Y-132908315D01*
X197220573Y-132917633D01*
X197157192Y-132959983D01*
X197139983Y-132977192D01*
X197097632Y-133040575D01*
X197088316Y-133063066D01*
X197077207Y-133118915D01*
X197076000Y-133131170D01*
X197076000Y-134004885D01*
X194084499Y-134004885D01*
X194084499Y-133131123D01*
X194084499Y-133124934D01*
X194077388Y-133089182D01*
X194072156Y-133062874D01*
X194072155Y-133062872D01*
X194069734Y-133050699D01*
X194013484Y-132966516D01*
X193929301Y-132910266D01*
X193855067Y-132895500D01*
X193080126Y-132895500D01*
X192304934Y-132895501D01*
X192269182Y-132902612D01*
X192242874Y-132907844D01*
X192242872Y-132907845D01*
X192230699Y-132910266D01*
X192220379Y-132917161D01*
X192220378Y-132917162D01*
X192159985Y-132957516D01*
X192146516Y-132966516D01*
X192090266Y-133050699D01*
X192075500Y-133124933D01*
X192075501Y-134079128D01*
X192075501Y-135001500D01*
X192055499Y-135069621D01*
X192001843Y-135116114D01*
X191949501Y-135127500D01*
X186510000Y-135127500D01*
X186441879Y-135107498D01*
X186395386Y-135053842D01*
X186384000Y-135001500D01*
X186384000Y-134295115D01*
X186379525Y-134279876D01*
X186378135Y-134278671D01*
X186370452Y-134277000D01*
X184394116Y-134277000D01*
X184378877Y-134281475D01*
X184377672Y-134282865D01*
X184376001Y-134290548D01*
X184376001Y-135001500D01*
X184355999Y-135069621D01*
X184302343Y-135116114D01*
X184250001Y-135127500D01*
X181510500Y-135127500D01*
X181442379Y-135107498D01*
X181395886Y-135053842D01*
X181384500Y-135001500D01*
X181384499Y-134004885D01*
X184376000Y-134004885D01*
X184380475Y-134020124D01*
X184381865Y-134021329D01*
X184389548Y-134023000D01*
X185234885Y-134023000D01*
X185250124Y-134018525D01*
X185251329Y-134017135D01*
X185253000Y-134009452D01*
X185253000Y-134004885D01*
X185507000Y-134004885D01*
X185511475Y-134020124D01*
X185512865Y-134021329D01*
X185520548Y-134023000D01*
X186365884Y-134023000D01*
X186381123Y-134018525D01*
X186382328Y-134017135D01*
X186383999Y-134009452D01*
X186383999Y-133131172D01*
X186382791Y-133118912D01*
X186371685Y-133063069D01*
X186362367Y-133040573D01*
X186320017Y-132977192D01*
X186302808Y-132959983D01*
X186239425Y-132917632D01*
X186216934Y-132908316D01*
X186161085Y-132897207D01*
X186148830Y-132896000D01*
X185525115Y-132896000D01*
X185509876Y-132900475D01*
X185508671Y-132901865D01*
X185507000Y-132909548D01*
X185507000Y-134004885D01*
X185253000Y-134004885D01*
X185253000Y-132914116D01*
X185248525Y-132898877D01*
X185247135Y-132897672D01*
X185239452Y-132896001D01*
X184611172Y-132896001D01*
X184598912Y-132897209D01*
X184543069Y-132908315D01*
X184520573Y-132917633D01*
X184457192Y-132959983D01*
X184439983Y-132977192D01*
X184397632Y-133040575D01*
X184388316Y-133063066D01*
X184377207Y-133118915D01*
X184376000Y-133131170D01*
X184376000Y-134004885D01*
X181384499Y-134004885D01*
X181384499Y-133131123D01*
X181384499Y-133124934D01*
X181377388Y-133089182D01*
X181372156Y-133062874D01*
X181372155Y-133062872D01*
X181369734Y-133050699D01*
X181313484Y-132966516D01*
X181229301Y-132910266D01*
X181155067Y-132895500D01*
X180380126Y-132895500D01*
X179604934Y-132895501D01*
X179569182Y-132902612D01*
X179542874Y-132907844D01*
X179542872Y-132907845D01*
X179530699Y-132910266D01*
X179520379Y-132917161D01*
X179520378Y-132917162D01*
X179459985Y-132957516D01*
X179446516Y-132966516D01*
X179390266Y-133050699D01*
X179375500Y-133124933D01*
X179375501Y-134079128D01*
X179375501Y-135001500D01*
X179355499Y-135069621D01*
X179301843Y-135116114D01*
X179249501Y-135127500D01*
X173810000Y-135127500D01*
X173741879Y-135107498D01*
X173695386Y-135053842D01*
X173684000Y-135001500D01*
X173684000Y-134295115D01*
X173679525Y-134279876D01*
X173678135Y-134278671D01*
X173670452Y-134277000D01*
X171694116Y-134277000D01*
X171678877Y-134281475D01*
X171677672Y-134282865D01*
X171676001Y-134290548D01*
X171676001Y-135001500D01*
X171655999Y-135069621D01*
X171602343Y-135116114D01*
X171550001Y-135127500D01*
X168810500Y-135127500D01*
X168742379Y-135107498D01*
X168695886Y-135053842D01*
X168684500Y-135001500D01*
X168684499Y-134004885D01*
X171676000Y-134004885D01*
X171680475Y-134020124D01*
X171681865Y-134021329D01*
X171689548Y-134023000D01*
X172534885Y-134023000D01*
X172550124Y-134018525D01*
X172551329Y-134017135D01*
X172553000Y-134009452D01*
X172553000Y-134004885D01*
X172807000Y-134004885D01*
X172811475Y-134020124D01*
X172812865Y-134021329D01*
X172820548Y-134023000D01*
X173665884Y-134023000D01*
X173681123Y-134018525D01*
X173682328Y-134017135D01*
X173683999Y-134009452D01*
X173683999Y-133131172D01*
X173682791Y-133118912D01*
X173671685Y-133063069D01*
X173662367Y-133040573D01*
X173620017Y-132977192D01*
X173602808Y-132959983D01*
X173539425Y-132917632D01*
X173516934Y-132908316D01*
X173461085Y-132897207D01*
X173448830Y-132896000D01*
X172825115Y-132896000D01*
X172809876Y-132900475D01*
X172808671Y-132901865D01*
X172807000Y-132909548D01*
X172807000Y-134004885D01*
X172553000Y-134004885D01*
X172553000Y-132914116D01*
X172548525Y-132898877D01*
X172547135Y-132897672D01*
X172539452Y-132896001D01*
X171911172Y-132896001D01*
X171898912Y-132897209D01*
X171843069Y-132908315D01*
X171820573Y-132917633D01*
X171757192Y-132959983D01*
X171739983Y-132977192D01*
X171697632Y-133040575D01*
X171688316Y-133063066D01*
X171677207Y-133118915D01*
X171676000Y-133131170D01*
X171676000Y-134004885D01*
X168684499Y-134004885D01*
X168684499Y-133131123D01*
X168684499Y-133124934D01*
X168677388Y-133089182D01*
X168672156Y-133062874D01*
X168672155Y-133062872D01*
X168669734Y-133050699D01*
X168613484Y-132966516D01*
X168529301Y-132910266D01*
X168455067Y-132895500D01*
X167680126Y-132895500D01*
X166904934Y-132895501D01*
X166869182Y-132902612D01*
X166842874Y-132907844D01*
X166842872Y-132907845D01*
X166830699Y-132910266D01*
X166820379Y-132917161D01*
X166820378Y-132917162D01*
X166759985Y-132957516D01*
X166746516Y-132966516D01*
X166690266Y-133050699D01*
X166675500Y-133124933D01*
X166675501Y-134079128D01*
X166675501Y-135001500D01*
X166655499Y-135069621D01*
X166601843Y-135116114D01*
X166549501Y-135127500D01*
X161110000Y-135127500D01*
X161041879Y-135107498D01*
X160995386Y-135053842D01*
X160984000Y-135001500D01*
X160984000Y-134295115D01*
X160979525Y-134279876D01*
X160978135Y-134278671D01*
X160970452Y-134277000D01*
X158994116Y-134277000D01*
X158978877Y-134281475D01*
X158977672Y-134282865D01*
X158976001Y-134290548D01*
X158976001Y-135001500D01*
X158955999Y-135069621D01*
X158902343Y-135116114D01*
X158850001Y-135127500D01*
X156110500Y-135127500D01*
X156042379Y-135107498D01*
X155995886Y-135053842D01*
X155984500Y-135001500D01*
X155984499Y-134004885D01*
X158976000Y-134004885D01*
X158980475Y-134020124D01*
X158981865Y-134021329D01*
X158989548Y-134023000D01*
X159834885Y-134023000D01*
X159850124Y-134018525D01*
X159851329Y-134017135D01*
X159853000Y-134009452D01*
X159853000Y-134004885D01*
X160107000Y-134004885D01*
X160111475Y-134020124D01*
X160112865Y-134021329D01*
X160120548Y-134023000D01*
X160965884Y-134023000D01*
X160981123Y-134018525D01*
X160982328Y-134017135D01*
X160983999Y-134009452D01*
X160983999Y-133131172D01*
X160982791Y-133118912D01*
X160971685Y-133063069D01*
X160962367Y-133040573D01*
X160920017Y-132977192D01*
X160902808Y-132959983D01*
X160839425Y-132917632D01*
X160816934Y-132908316D01*
X160761085Y-132897207D01*
X160748830Y-132896000D01*
X160125115Y-132896000D01*
X160109876Y-132900475D01*
X160108671Y-132901865D01*
X160107000Y-132909548D01*
X160107000Y-134004885D01*
X159853000Y-134004885D01*
X159853000Y-132914116D01*
X159848525Y-132898877D01*
X159847135Y-132897672D01*
X159839452Y-132896001D01*
X159211172Y-132896001D01*
X159198912Y-132897209D01*
X159143069Y-132908315D01*
X159120573Y-132917633D01*
X159057192Y-132959983D01*
X159039983Y-132977192D01*
X158997632Y-133040575D01*
X158988316Y-133063066D01*
X158977207Y-133118915D01*
X158976000Y-133131170D01*
X158976000Y-134004885D01*
X155984499Y-134004885D01*
X155984499Y-133131123D01*
X155984499Y-133124934D01*
X155977388Y-133089182D01*
X155972156Y-133062874D01*
X155972155Y-133062872D01*
X155969734Y-133050699D01*
X155913484Y-132966516D01*
X155829301Y-132910266D01*
X155755067Y-132895500D01*
X154980126Y-132895500D01*
X154204934Y-132895501D01*
X154169182Y-132902612D01*
X154142874Y-132907844D01*
X154142872Y-132907845D01*
X154130699Y-132910266D01*
X154120379Y-132917161D01*
X154120378Y-132917162D01*
X154059985Y-132957516D01*
X154046516Y-132966516D01*
X153990266Y-133050699D01*
X153975500Y-133124933D01*
X153975501Y-134079128D01*
X153975501Y-135001500D01*
X153955499Y-135069621D01*
X153901843Y-135116114D01*
X153849501Y-135127500D01*
X148410000Y-135127500D01*
X148341879Y-135107498D01*
X148295386Y-135053842D01*
X148284000Y-135001500D01*
X148284000Y-134295115D01*
X148279525Y-134279876D01*
X148278135Y-134278671D01*
X148270452Y-134277000D01*
X146294116Y-134277000D01*
X146278877Y-134281475D01*
X146277672Y-134282865D01*
X146276001Y-134290548D01*
X146276001Y-135001500D01*
X146255999Y-135069621D01*
X146202343Y-135116114D01*
X146150001Y-135127500D01*
X143410500Y-135127500D01*
X143342379Y-135107498D01*
X143295886Y-135053842D01*
X143284500Y-135001500D01*
X143284499Y-134004885D01*
X146276000Y-134004885D01*
X146280475Y-134020124D01*
X146281865Y-134021329D01*
X146289548Y-134023000D01*
X147134885Y-134023000D01*
X147150124Y-134018525D01*
X147151329Y-134017135D01*
X147153000Y-134009452D01*
X147153000Y-134004885D01*
X147407000Y-134004885D01*
X147411475Y-134020124D01*
X147412865Y-134021329D01*
X147420548Y-134023000D01*
X148265884Y-134023000D01*
X148281123Y-134018525D01*
X148282328Y-134017135D01*
X148283999Y-134009452D01*
X148283999Y-133131172D01*
X148282791Y-133118912D01*
X148271685Y-133063069D01*
X148262367Y-133040573D01*
X148220017Y-132977192D01*
X148202808Y-132959983D01*
X148139425Y-132917632D01*
X148116934Y-132908316D01*
X148061085Y-132897207D01*
X148048830Y-132896000D01*
X147425115Y-132896000D01*
X147409876Y-132900475D01*
X147408671Y-132901865D01*
X147407000Y-132909548D01*
X147407000Y-134004885D01*
X147153000Y-134004885D01*
X147153000Y-132914116D01*
X147148525Y-132898877D01*
X147147135Y-132897672D01*
X147139452Y-132896001D01*
X146511172Y-132896001D01*
X146498912Y-132897209D01*
X146443069Y-132908315D01*
X146420573Y-132917633D01*
X146357192Y-132959983D01*
X146339983Y-132977192D01*
X146297632Y-133040575D01*
X146288316Y-133063066D01*
X146277207Y-133118915D01*
X146276000Y-133131170D01*
X146276000Y-134004885D01*
X143284499Y-134004885D01*
X143284499Y-133131123D01*
X143284499Y-133124934D01*
X143277388Y-133089182D01*
X143272156Y-133062874D01*
X143272155Y-133062872D01*
X143269734Y-133050699D01*
X143213484Y-132966516D01*
X143129301Y-132910266D01*
X143055067Y-132895500D01*
X142280126Y-132895500D01*
X141504934Y-132895501D01*
X141469182Y-132902612D01*
X141442874Y-132907844D01*
X141442872Y-132907845D01*
X141430699Y-132910266D01*
X141420379Y-132917161D01*
X141420378Y-132917162D01*
X141359985Y-132957516D01*
X141346516Y-132966516D01*
X141290266Y-133050699D01*
X141275500Y-133124933D01*
X141275501Y-134079128D01*
X141275501Y-135001500D01*
X141255499Y-135069621D01*
X141201843Y-135116114D01*
X141149501Y-135127500D01*
X135710000Y-135127500D01*
X135641879Y-135107498D01*
X135595386Y-135053842D01*
X135584000Y-135001500D01*
X135584000Y-134295115D01*
X135579525Y-134279876D01*
X135578135Y-134278671D01*
X135570452Y-134277000D01*
X133594116Y-134277000D01*
X133578877Y-134281475D01*
X133577672Y-134282865D01*
X133576001Y-134290548D01*
X133576001Y-135001500D01*
X133555999Y-135069621D01*
X133502343Y-135116114D01*
X133450001Y-135127500D01*
X130710500Y-135127500D01*
X130642379Y-135107498D01*
X130595886Y-135053842D01*
X130584500Y-135001500D01*
X130584499Y-134004885D01*
X133576000Y-134004885D01*
X133580475Y-134020124D01*
X133581865Y-134021329D01*
X133589548Y-134023000D01*
X134434885Y-134023000D01*
X134450124Y-134018525D01*
X134451329Y-134017135D01*
X134453000Y-134009452D01*
X134453000Y-134004885D01*
X134707000Y-134004885D01*
X134711475Y-134020124D01*
X134712865Y-134021329D01*
X134720548Y-134023000D01*
X135565884Y-134023000D01*
X135581123Y-134018525D01*
X135582328Y-134017135D01*
X135583999Y-134009452D01*
X135583999Y-133131172D01*
X135582791Y-133118912D01*
X135571685Y-133063069D01*
X135562367Y-133040573D01*
X135520017Y-132977192D01*
X135502808Y-132959983D01*
X135439425Y-132917632D01*
X135416934Y-132908316D01*
X135361085Y-132897207D01*
X135348830Y-132896000D01*
X134725115Y-132896000D01*
X134709876Y-132900475D01*
X134708671Y-132901865D01*
X134707000Y-132909548D01*
X134707000Y-134004885D01*
X134453000Y-134004885D01*
X134453000Y-132914116D01*
X134448525Y-132898877D01*
X134447135Y-132897672D01*
X134439452Y-132896001D01*
X133811172Y-132896001D01*
X133798912Y-132897209D01*
X133743069Y-132908315D01*
X133720573Y-132917633D01*
X133657192Y-132959983D01*
X133639983Y-132977192D01*
X133597632Y-133040575D01*
X133588316Y-133063066D01*
X133577207Y-133118915D01*
X133576000Y-133131170D01*
X133576000Y-134004885D01*
X130584499Y-134004885D01*
X130584499Y-133131123D01*
X130584499Y-133124934D01*
X130577388Y-133089182D01*
X130572156Y-133062874D01*
X130572155Y-133062872D01*
X130569734Y-133050699D01*
X130513484Y-132966516D01*
X130429301Y-132910266D01*
X130355067Y-132895500D01*
X129580126Y-132895500D01*
X128804934Y-132895501D01*
X128769182Y-132902612D01*
X128742874Y-132907844D01*
X128742872Y-132907845D01*
X128730699Y-132910266D01*
X128720379Y-132917161D01*
X128720378Y-132917162D01*
X128659985Y-132957516D01*
X128646516Y-132966516D01*
X128590266Y-133050699D01*
X128575500Y-133124933D01*
X128575501Y-134079128D01*
X128575501Y-135001500D01*
X128555499Y-135069621D01*
X128501843Y-135116114D01*
X128449501Y-135127500D01*
X123010000Y-135127500D01*
X122941879Y-135107498D01*
X122895386Y-135053842D01*
X122884000Y-135001500D01*
X122884000Y-134295115D01*
X122879525Y-134279876D01*
X122878135Y-134278671D01*
X122870452Y-134277000D01*
X120894116Y-134277000D01*
X120878877Y-134281475D01*
X120877672Y-134282865D01*
X120876001Y-134290548D01*
X120876001Y-135001500D01*
X120855999Y-135069621D01*
X120802343Y-135116114D01*
X120750001Y-135127500D01*
X118010500Y-135127500D01*
X117942379Y-135107498D01*
X117895886Y-135053842D01*
X117884500Y-135001500D01*
X117884499Y-134004885D01*
X120876000Y-134004885D01*
X120880475Y-134020124D01*
X120881865Y-134021329D01*
X120889548Y-134023000D01*
X121734885Y-134023000D01*
X121750124Y-134018525D01*
X121751329Y-134017135D01*
X121753000Y-134009452D01*
X121753000Y-134004885D01*
X122007000Y-134004885D01*
X122011475Y-134020124D01*
X122012865Y-134021329D01*
X122020548Y-134023000D01*
X122865884Y-134023000D01*
X122881123Y-134018525D01*
X122882328Y-134017135D01*
X122883999Y-134009452D01*
X122883999Y-133131172D01*
X122882791Y-133118912D01*
X122871685Y-133063069D01*
X122862367Y-133040573D01*
X122820017Y-132977192D01*
X122802808Y-132959983D01*
X122739425Y-132917632D01*
X122716934Y-132908316D01*
X122661085Y-132897207D01*
X122648830Y-132896000D01*
X122025115Y-132896000D01*
X122009876Y-132900475D01*
X122008671Y-132901865D01*
X122007000Y-132909548D01*
X122007000Y-134004885D01*
X121753000Y-134004885D01*
X121753000Y-132914116D01*
X121748525Y-132898877D01*
X121747135Y-132897672D01*
X121739452Y-132896001D01*
X121111172Y-132896001D01*
X121098912Y-132897209D01*
X121043069Y-132908315D01*
X121020573Y-132917633D01*
X120957192Y-132959983D01*
X120939983Y-132977192D01*
X120897632Y-133040575D01*
X120888316Y-133063066D01*
X120877207Y-133118915D01*
X120876000Y-133131170D01*
X120876000Y-134004885D01*
X117884499Y-134004885D01*
X117884499Y-133131123D01*
X117884499Y-133124934D01*
X117877388Y-133089182D01*
X117872156Y-133062874D01*
X117872155Y-133062872D01*
X117869734Y-133050699D01*
X117813484Y-132966516D01*
X117729301Y-132910266D01*
X117655067Y-132895500D01*
X116880126Y-132895500D01*
X116104934Y-132895501D01*
X116069182Y-132902612D01*
X116042874Y-132907844D01*
X116042872Y-132907845D01*
X116030699Y-132910266D01*
X116020379Y-132917161D01*
X116020378Y-132917162D01*
X115959985Y-132957516D01*
X115946516Y-132966516D01*
X115890266Y-133050699D01*
X115875500Y-133124933D01*
X115875501Y-134079128D01*
X115875501Y-135001500D01*
X115855499Y-135069621D01*
X115801843Y-135116114D01*
X115749501Y-135127500D01*
X110310000Y-135127500D01*
X110241879Y-135107498D01*
X110195386Y-135053842D01*
X110184000Y-135001500D01*
X110184000Y-134295115D01*
X110179525Y-134279876D01*
X110178135Y-134278671D01*
X110170452Y-134277000D01*
X108194116Y-134277000D01*
X108178877Y-134281475D01*
X108177672Y-134282865D01*
X108176001Y-134290548D01*
X108176001Y-135001500D01*
X108155999Y-135069621D01*
X108102343Y-135116114D01*
X108050001Y-135127500D01*
X105310500Y-135127500D01*
X105242379Y-135107498D01*
X105195886Y-135053842D01*
X105184500Y-135001500D01*
X105184499Y-134004885D01*
X108176000Y-134004885D01*
X108180475Y-134020124D01*
X108181865Y-134021329D01*
X108189548Y-134023000D01*
X109034885Y-134023000D01*
X109050124Y-134018525D01*
X109051329Y-134017135D01*
X109053000Y-134009452D01*
X109053000Y-134004885D01*
X109307000Y-134004885D01*
X109311475Y-134020124D01*
X109312865Y-134021329D01*
X109320548Y-134023000D01*
X110165884Y-134023000D01*
X110181123Y-134018525D01*
X110182328Y-134017135D01*
X110183999Y-134009452D01*
X110183999Y-133131172D01*
X110182791Y-133118912D01*
X110171685Y-133063069D01*
X110162367Y-133040573D01*
X110120017Y-132977192D01*
X110102808Y-132959983D01*
X110039425Y-132917632D01*
X110016934Y-132908316D01*
X109961085Y-132897207D01*
X109948830Y-132896000D01*
X109325115Y-132896000D01*
X109309876Y-132900475D01*
X109308671Y-132901865D01*
X109307000Y-132909548D01*
X109307000Y-134004885D01*
X109053000Y-134004885D01*
X109053000Y-132914116D01*
X109048525Y-132898877D01*
X109047135Y-132897672D01*
X109039452Y-132896001D01*
X108411172Y-132896001D01*
X108398912Y-132897209D01*
X108343069Y-132908315D01*
X108320573Y-132917633D01*
X108257192Y-132959983D01*
X108239983Y-132977192D01*
X108197632Y-133040575D01*
X108188316Y-133063066D01*
X108177207Y-133118915D01*
X108176000Y-133131170D01*
X108176000Y-134004885D01*
X105184499Y-134004885D01*
X105184499Y-133131123D01*
X105184499Y-133124934D01*
X105177388Y-133089182D01*
X105172156Y-133062874D01*
X105172155Y-133062872D01*
X105169734Y-133050699D01*
X105113484Y-132966516D01*
X105029301Y-132910266D01*
X104955067Y-132895500D01*
X104180126Y-132895500D01*
X103404934Y-132895501D01*
X103369182Y-132902612D01*
X103342874Y-132907844D01*
X103342872Y-132907845D01*
X103330699Y-132910266D01*
X103320379Y-132917161D01*
X103320378Y-132917162D01*
X103259985Y-132957516D01*
X103246516Y-132966516D01*
X103190266Y-133050699D01*
X103175500Y-133124933D01*
X103175501Y-134079128D01*
X103175501Y-135001500D01*
X103155499Y-135069621D01*
X103101843Y-135116114D01*
X103049501Y-135127500D01*
X91058500Y-135127500D01*
X90990379Y-135107498D01*
X90943886Y-135053842D01*
X90932500Y-135001500D01*
X90932500Y-134257459D01*
X90952502Y-134189338D01*
X91006158Y-134142845D01*
X91076432Y-134132741D01*
X91145631Y-134166441D01*
X91202340Y-134220728D01*
X91207375Y-134223979D01*
X91374360Y-134331800D01*
X91374363Y-134331801D01*
X91379397Y-134335052D01*
X91574878Y-134413834D01*
X91697688Y-134437817D01*
X91777283Y-134453361D01*
X91777286Y-134453361D01*
X91781729Y-134454229D01*
X91787270Y-134454500D01*
X92782659Y-134454500D01*
X92939806Y-134439507D01*
X93142042Y-134380177D01*
X93225304Y-134337294D01*
X93324079Y-134286422D01*
X93324082Y-134286420D01*
X93329410Y-134283676D01*
X93405408Y-134223979D01*
X93490432Y-134157192D01*
X93490436Y-134157188D01*
X93495149Y-134153486D01*
X93559674Y-134079128D01*
X93629350Y-133998835D01*
X93629354Y-133998830D01*
X93633281Y-133994304D01*
X93677768Y-133917405D01*
X93729193Y-133868456D01*
X93786832Y-133854500D01*
X94168590Y-133854500D01*
X94236711Y-133874502D01*
X94271360Y-133907600D01*
X94386630Y-134070100D01*
X94390096Y-134074986D01*
X94542340Y-134220728D01*
X94547375Y-134223979D01*
X94714360Y-134331800D01*
X94714363Y-134331801D01*
X94719397Y-134335052D01*
X94914878Y-134413834D01*
X95037688Y-134437817D01*
X95117283Y-134453361D01*
X95117286Y-134453361D01*
X95121729Y-134454229D01*
X95127270Y-134454500D01*
X96122659Y-134454500D01*
X96279806Y-134439507D01*
X96482042Y-134380177D01*
X96565304Y-134337294D01*
X96664079Y-134286422D01*
X96664082Y-134286420D01*
X96669410Y-134283676D01*
X96745408Y-134223979D01*
X96830432Y-134157192D01*
X96830436Y-134157188D01*
X96835149Y-134153486D01*
X96899674Y-134079128D01*
X96969350Y-133998835D01*
X96969354Y-133998830D01*
X96973281Y-133994304D01*
X97017768Y-133917405D01*
X97069193Y-133868456D01*
X97126832Y-133854500D01*
X98294425Y-133854500D01*
X98354932Y-133869979D01*
X98358052Y-133871687D01*
X98365236Y-133877071D01*
X98433629Y-133902710D01*
X98493157Y-133925026D01*
X98493159Y-133925026D01*
X98500552Y-133927798D01*
X98508402Y-133928651D01*
X98508403Y-133928651D01*
X98558847Y-133934131D01*
X98562244Y-133934500D01*
X99557756Y-133934500D01*
X99561153Y-133934131D01*
X99611597Y-133928651D01*
X99611598Y-133928651D01*
X99619448Y-133927798D01*
X99626841Y-133925026D01*
X99626843Y-133925026D01*
X99685373Y-133903084D01*
X99754764Y-133877071D01*
X99761943Y-133871691D01*
X99761946Y-133871689D01*
X99863224Y-133795785D01*
X99870404Y-133790404D01*
X99885713Y-133769977D01*
X99951689Y-133681946D01*
X99951691Y-133681943D01*
X99957071Y-133674764D01*
X100007798Y-133539448D01*
X100014500Y-133477756D01*
X100014500Y-132916161D01*
X100034502Y-132848040D01*
X100051405Y-132827066D01*
X101273066Y-131605405D01*
X101335378Y-131571379D01*
X101362161Y-131568500D01*
X109465398Y-131568500D01*
X109466166Y-131568502D01*
X109543173Y-131568972D01*
X109544508Y-131568590D01*
X109545836Y-131568500D01*
X121911398Y-131568500D01*
X121912166Y-131568502D01*
X121989173Y-131568972D01*
X121990508Y-131568590D01*
X121991836Y-131568500D01*
X134295376Y-131568500D01*
X134307381Y-131569841D01*
X134307421Y-131569345D01*
X134316368Y-131570065D01*
X134325124Y-131572046D01*
X134378382Y-131568742D01*
X134386184Y-131568500D01*
X147311398Y-131568500D01*
X147312166Y-131568502D01*
X147389173Y-131568972D01*
X147390508Y-131568590D01*
X147391836Y-131568500D01*
X157775153Y-131568500D01*
X157843274Y-131588502D01*
X157848068Y-131592185D01*
X157848266Y-131591907D01*
X157854459Y-131596308D01*
X157860076Y-131601419D01*
X157999293Y-131677008D01*
X158152522Y-131717207D01*
X158236477Y-131718526D01*
X158303319Y-131719576D01*
X158303322Y-131719576D01*
X158310916Y-131719695D01*
X158465332Y-131684329D01*
X158536280Y-131648646D01*
X158600072Y-131616563D01*
X158600075Y-131616561D01*
X158606855Y-131613151D01*
X158623789Y-131598688D01*
X158688579Y-131569658D01*
X158705619Y-131568500D01*
X170475153Y-131568500D01*
X170543274Y-131588502D01*
X170548068Y-131592185D01*
X170548266Y-131591907D01*
X170554459Y-131596308D01*
X170560076Y-131601419D01*
X170699293Y-131677008D01*
X170852522Y-131717207D01*
X170936477Y-131718526D01*
X171003319Y-131719576D01*
X171003322Y-131719576D01*
X171010916Y-131719695D01*
X171165332Y-131684329D01*
X171236280Y-131648646D01*
X171300072Y-131616563D01*
X171300075Y-131616561D01*
X171306855Y-131613151D01*
X171323789Y-131598688D01*
X171388579Y-131569658D01*
X171405619Y-131568500D01*
X183429153Y-131568500D01*
X183497274Y-131588502D01*
X183502068Y-131592185D01*
X183502266Y-131591907D01*
X183508459Y-131596308D01*
X183514076Y-131601419D01*
X183653293Y-131677008D01*
X183806522Y-131717207D01*
X183890477Y-131718526D01*
X183957319Y-131719576D01*
X183957322Y-131719576D01*
X183964916Y-131719695D01*
X184119332Y-131684329D01*
X184190280Y-131648646D01*
X184254072Y-131616563D01*
X184254075Y-131616561D01*
X184260855Y-131613151D01*
X184277789Y-131598688D01*
X184342579Y-131569658D01*
X184359619Y-131568500D01*
X196129153Y-131568500D01*
X196197274Y-131588502D01*
X196202068Y-131592185D01*
X196202266Y-131591907D01*
X196208459Y-131596308D01*
X196214076Y-131601419D01*
X196353293Y-131677008D01*
X196506522Y-131717207D01*
X196590477Y-131718526D01*
X196657319Y-131719576D01*
X196657322Y-131719576D01*
X196664916Y-131719695D01*
X196819332Y-131684329D01*
X196890280Y-131648646D01*
X196954072Y-131616563D01*
X196954075Y-131616561D01*
X196960855Y-131613151D01*
X196966626Y-131608222D01*
X196966629Y-131608220D01*
X197075536Y-131515204D01*
X197075536Y-131515203D01*
X197081314Y-131510269D01*
X197173755Y-131381624D01*
X197232842Y-131234641D01*
X197255162Y-131077807D01*
X197255307Y-131064000D01*
X197236276Y-130906733D01*
X197180280Y-130758546D01*
X197127839Y-130682244D01*
X197094855Y-130634251D01*
X197094854Y-130634249D01*
X197090553Y-130627992D01*
X197082533Y-130620846D01*
X197014391Y-130560135D01*
X196972275Y-130522611D01*
X196964889Y-130518700D01*
X196918746Y-130494269D01*
X196832274Y-130448484D01*
X196678633Y-130409892D01*
X196671034Y-130409852D01*
X196671033Y-130409852D01*
X196605181Y-130409507D01*
X196520221Y-130409062D01*
X196512841Y-130410834D01*
X196512839Y-130410834D01*
X196373563Y-130444271D01*
X196373560Y-130444272D01*
X196366184Y-130446043D01*
X196225414Y-130518700D01*
X196219692Y-130523692D01*
X196219690Y-130523693D01*
X196214236Y-130528451D01*
X196149753Y-130558157D01*
X196131409Y-130559500D01*
X184361667Y-130559500D01*
X184293546Y-130539498D01*
X184278143Y-130527802D01*
X184277954Y-130527670D01*
X184272275Y-130522611D01*
X184132274Y-130448484D01*
X183978633Y-130409892D01*
X183971034Y-130409852D01*
X183971033Y-130409852D01*
X183905181Y-130409507D01*
X183820221Y-130409062D01*
X183812841Y-130410834D01*
X183812839Y-130410834D01*
X183673563Y-130444271D01*
X183673560Y-130444272D01*
X183666184Y-130446043D01*
X183525414Y-130518700D01*
X183519692Y-130523692D01*
X183519690Y-130523693D01*
X183514236Y-130528451D01*
X183449753Y-130558157D01*
X183431409Y-130559500D01*
X171407667Y-130559500D01*
X171339546Y-130539498D01*
X171324143Y-130527802D01*
X171323954Y-130527670D01*
X171318275Y-130522611D01*
X171178274Y-130448484D01*
X171024633Y-130409892D01*
X171017034Y-130409852D01*
X171017033Y-130409852D01*
X170951181Y-130409507D01*
X170866221Y-130409062D01*
X170858841Y-130410834D01*
X170858839Y-130410834D01*
X170719563Y-130444271D01*
X170719560Y-130444272D01*
X170712184Y-130446043D01*
X170571414Y-130518700D01*
X170565692Y-130523692D01*
X170565690Y-130523693D01*
X170560236Y-130528451D01*
X170495753Y-130558157D01*
X170477409Y-130559500D01*
X158707667Y-130559500D01*
X158639546Y-130539498D01*
X158624143Y-130527802D01*
X158623954Y-130527670D01*
X158618275Y-130522611D01*
X158478274Y-130448484D01*
X158324633Y-130409892D01*
X158317034Y-130409852D01*
X158317033Y-130409852D01*
X158251181Y-130409507D01*
X158166221Y-130409062D01*
X158158841Y-130410834D01*
X158158839Y-130410834D01*
X158019563Y-130444271D01*
X158019560Y-130444272D01*
X158012184Y-130446043D01*
X157871414Y-130518700D01*
X157865692Y-130523692D01*
X157865690Y-130523693D01*
X157860236Y-130528451D01*
X157795753Y-130558157D01*
X157777409Y-130559500D01*
X147950500Y-130559500D01*
X147882379Y-130539498D01*
X147835886Y-130485842D01*
X147824500Y-130433500D01*
X147824500Y-127460144D01*
X147848178Y-127386617D01*
X147866818Y-127360677D01*
X147922813Y-127317030D01*
X147993516Y-127310584D01*
X148056480Y-127343387D01*
X148089570Y-127397154D01*
X148113800Y-127475917D01*
X148116370Y-127480897D01*
X148116372Y-127480901D01*
X148201010Y-127644884D01*
X148216509Y-127674912D01*
X148352833Y-127852573D01*
X148356979Y-127856346D01*
X148356984Y-127856351D01*
X148421007Y-127914607D01*
X148518464Y-128003286D01*
X148708167Y-128122286D01*
X148915944Y-128205812D01*
X148921436Y-128206949D01*
X148921438Y-128206950D01*
X149062059Y-128236071D01*
X149135228Y-128251224D01*
X149139839Y-128251490D01*
X149139840Y-128251490D01*
X149190225Y-128254395D01*
X149190229Y-128254395D01*
X149192048Y-128254500D01*
X149336819Y-128254500D01*
X149339606Y-128254251D01*
X149339612Y-128254251D01*
X149408962Y-128248061D01*
X149503051Y-128239664D01*
X149719051Y-128180573D01*
X149724109Y-128178161D01*
X149724113Y-128178159D01*
X149916107Y-128086583D01*
X149916109Y-128086582D01*
X149921174Y-128084166D01*
X150029578Y-128006270D01*
X150098470Y-127956766D01*
X150098472Y-127956764D01*
X150103030Y-127953489D01*
X150205138Y-127848122D01*
X150254969Y-127796701D01*
X150254971Y-127796698D01*
X150258871Y-127792674D01*
X150310958Y-127715160D01*
X150380641Y-127611460D01*
X150380643Y-127611457D01*
X150383770Y-127606803D01*
X150454240Y-127446269D01*
X150471525Y-127406894D01*
X150471527Y-127406889D01*
X150473782Y-127401752D01*
X150526059Y-127184002D01*
X150534710Y-127033957D01*
X150538626Y-126966043D01*
X150538626Y-126966040D01*
X150538949Y-126960436D01*
X150512046Y-126738120D01*
X150446200Y-126524083D01*
X150423693Y-126480475D01*
X150346063Y-126330071D01*
X150346063Y-126330070D01*
X150343491Y-126325088D01*
X150207167Y-126147427D01*
X150203021Y-126143654D01*
X150203016Y-126143649D01*
X150045689Y-126000493D01*
X150041536Y-125996714D01*
X149851833Y-125877714D01*
X149644056Y-125794188D01*
X149638564Y-125793051D01*
X149638562Y-125793050D01*
X149487754Y-125761819D01*
X149424772Y-125748776D01*
X149420161Y-125748510D01*
X149420160Y-125748510D01*
X149369775Y-125745605D01*
X149369771Y-125745605D01*
X149367952Y-125745500D01*
X149223181Y-125745500D01*
X149220394Y-125745749D01*
X149220388Y-125745749D01*
X149151038Y-125751939D01*
X149056949Y-125760336D01*
X148840949Y-125819427D01*
X148835891Y-125821839D01*
X148835887Y-125821841D01*
X148688464Y-125892158D01*
X148638826Y-125915834D01*
X148634265Y-125919111D01*
X148634264Y-125919112D01*
X148521011Y-126000493D01*
X148456970Y-126046511D01*
X148453065Y-126050541D01*
X148311068Y-126197070D01*
X148301129Y-126207326D01*
X148298001Y-126211981D01*
X148185881Y-126378835D01*
X148176230Y-126393197D01*
X148086218Y-126598248D01*
X148085208Y-126602455D01*
X148044752Y-126660304D01*
X147979068Y-126687251D01*
X147909243Y-126674409D01*
X147862183Y-126633295D01*
X147814553Y-126563992D01*
X147696275Y-126458611D01*
X147688889Y-126454700D01*
X147617185Y-126416735D01*
X147556274Y-126384484D01*
X147402633Y-126345892D01*
X147395034Y-126345852D01*
X147395033Y-126345852D01*
X147329181Y-126345507D01*
X147244221Y-126345062D01*
X147236841Y-126346834D01*
X147236839Y-126346834D01*
X147097563Y-126380271D01*
X147097560Y-126380272D01*
X147090184Y-126382043D01*
X146949414Y-126454700D01*
X146830039Y-126558838D01*
X146738950Y-126688444D01*
X146717410Y-126743692D01*
X146685872Y-126824583D01*
X146681406Y-126836037D01*
X146680414Y-126843570D01*
X146680414Y-126843571D01*
X146664291Y-126966043D01*
X146660729Y-126993096D01*
X146678113Y-127150553D01*
X146680723Y-127157684D01*
X146680723Y-127157686D01*
X146726474Y-127282706D01*
X146732553Y-127299319D01*
X146736789Y-127305622D01*
X146736789Y-127305623D01*
X146794082Y-127390884D01*
X146815500Y-127461160D01*
X146815500Y-130433500D01*
X146795498Y-130501621D01*
X146741842Y-130548114D01*
X146689500Y-130559500D01*
X135250500Y-130559500D01*
X135182379Y-130539498D01*
X135135886Y-130485842D01*
X135124500Y-130433500D01*
X135124500Y-127460144D01*
X135148178Y-127386617D01*
X135166818Y-127360677D01*
X135222813Y-127317030D01*
X135293516Y-127310584D01*
X135356480Y-127343387D01*
X135389570Y-127397154D01*
X135413800Y-127475917D01*
X135416370Y-127480897D01*
X135416372Y-127480901D01*
X135501010Y-127644884D01*
X135516509Y-127674912D01*
X135652833Y-127852573D01*
X135656979Y-127856346D01*
X135656984Y-127856351D01*
X135721007Y-127914607D01*
X135818464Y-128003286D01*
X136008167Y-128122286D01*
X136215944Y-128205812D01*
X136221436Y-128206949D01*
X136221438Y-128206950D01*
X136362059Y-128236071D01*
X136435228Y-128251224D01*
X136439839Y-128251490D01*
X136439840Y-128251490D01*
X136490225Y-128254395D01*
X136490229Y-128254395D01*
X136492048Y-128254500D01*
X136636819Y-128254500D01*
X136639606Y-128254251D01*
X136639612Y-128254251D01*
X136708962Y-128248061D01*
X136803051Y-128239664D01*
X137019051Y-128180573D01*
X137024109Y-128178161D01*
X137024113Y-128178159D01*
X137216107Y-128086583D01*
X137216109Y-128086582D01*
X137221174Y-128084166D01*
X137329578Y-128006270D01*
X137398470Y-127956766D01*
X137398472Y-127956764D01*
X137403030Y-127953489D01*
X137505138Y-127848122D01*
X137554969Y-127796701D01*
X137554971Y-127796698D01*
X137558871Y-127792674D01*
X137610958Y-127715160D01*
X137680641Y-127611460D01*
X137680643Y-127611457D01*
X137683770Y-127606803D01*
X137754240Y-127446269D01*
X137771525Y-127406894D01*
X137771527Y-127406889D01*
X137773782Y-127401752D01*
X137826059Y-127184002D01*
X137834710Y-127033957D01*
X137838626Y-126966043D01*
X137838626Y-126966040D01*
X137838949Y-126960436D01*
X137812046Y-126738120D01*
X137746200Y-126524083D01*
X137723693Y-126480475D01*
X137646063Y-126330071D01*
X137646063Y-126330070D01*
X137643491Y-126325088D01*
X137507167Y-126147427D01*
X137503021Y-126143654D01*
X137503016Y-126143649D01*
X137345689Y-126000493D01*
X137341536Y-125996714D01*
X137151833Y-125877714D01*
X136944056Y-125794188D01*
X136938564Y-125793051D01*
X136938562Y-125793050D01*
X136787754Y-125761819D01*
X136724772Y-125748776D01*
X136720161Y-125748510D01*
X136720160Y-125748510D01*
X136669775Y-125745605D01*
X136669771Y-125745605D01*
X136667952Y-125745500D01*
X136523181Y-125745500D01*
X136520394Y-125745749D01*
X136520388Y-125745749D01*
X136451038Y-125751939D01*
X136356949Y-125760336D01*
X136140949Y-125819427D01*
X136135891Y-125821839D01*
X136135887Y-125821841D01*
X135988464Y-125892158D01*
X135938826Y-125915834D01*
X135934265Y-125919111D01*
X135934264Y-125919112D01*
X135821011Y-126000493D01*
X135756970Y-126046511D01*
X135753065Y-126050541D01*
X135611068Y-126197070D01*
X135601129Y-126207326D01*
X135598001Y-126211981D01*
X135485881Y-126378835D01*
X135476230Y-126393197D01*
X135386218Y-126598248D01*
X135385208Y-126602455D01*
X135344752Y-126660304D01*
X135279068Y-126687251D01*
X135209243Y-126674409D01*
X135162183Y-126633295D01*
X135114553Y-126563992D01*
X134996275Y-126458611D01*
X134988889Y-126454700D01*
X134917185Y-126416735D01*
X134856274Y-126384484D01*
X134702633Y-126345892D01*
X134695034Y-126345852D01*
X134695033Y-126345852D01*
X134629181Y-126345507D01*
X134544221Y-126345062D01*
X134536841Y-126346834D01*
X134536839Y-126346834D01*
X134397563Y-126380271D01*
X134397560Y-126380272D01*
X134390184Y-126382043D01*
X134249414Y-126454700D01*
X134130039Y-126558838D01*
X134038950Y-126688444D01*
X134017410Y-126743692D01*
X133985872Y-126824583D01*
X133981406Y-126836037D01*
X133980414Y-126843570D01*
X133980414Y-126843571D01*
X133964291Y-126966043D01*
X133960729Y-126993096D01*
X133978113Y-127150553D01*
X133980723Y-127157684D01*
X133980723Y-127157686D01*
X134026474Y-127282706D01*
X134032553Y-127299319D01*
X134036789Y-127305622D01*
X134036789Y-127305623D01*
X134094082Y-127390884D01*
X134115500Y-127461160D01*
X134115500Y-130433500D01*
X134095498Y-130501621D01*
X134041842Y-130548114D01*
X133989500Y-130559500D01*
X122550500Y-130559500D01*
X122482379Y-130539498D01*
X122435886Y-130485842D01*
X122424500Y-130433500D01*
X122424500Y-127460144D01*
X122448178Y-127386617D01*
X122466818Y-127360677D01*
X122522813Y-127317030D01*
X122593516Y-127310584D01*
X122656480Y-127343387D01*
X122689570Y-127397154D01*
X122713800Y-127475917D01*
X122716370Y-127480897D01*
X122716372Y-127480901D01*
X122801010Y-127644884D01*
X122816509Y-127674912D01*
X122952833Y-127852573D01*
X122956979Y-127856346D01*
X122956984Y-127856351D01*
X123021007Y-127914607D01*
X123118464Y-128003286D01*
X123308167Y-128122286D01*
X123515944Y-128205812D01*
X123521436Y-128206949D01*
X123521438Y-128206950D01*
X123662059Y-128236071D01*
X123735228Y-128251224D01*
X123739839Y-128251490D01*
X123739840Y-128251490D01*
X123790225Y-128254395D01*
X123790229Y-128254395D01*
X123792048Y-128254500D01*
X123936819Y-128254500D01*
X123939606Y-128254251D01*
X123939612Y-128254251D01*
X124008962Y-128248061D01*
X124103051Y-128239664D01*
X124319051Y-128180573D01*
X124324109Y-128178161D01*
X124324113Y-128178159D01*
X124516107Y-128086583D01*
X124516109Y-128086582D01*
X124521174Y-128084166D01*
X124629578Y-128006270D01*
X124698470Y-127956766D01*
X124698472Y-127956764D01*
X124703030Y-127953489D01*
X124805138Y-127848122D01*
X124854969Y-127796701D01*
X124854971Y-127796698D01*
X124858871Y-127792674D01*
X124910958Y-127715160D01*
X124980641Y-127611460D01*
X124980643Y-127611457D01*
X124983770Y-127606803D01*
X125054240Y-127446269D01*
X125071525Y-127406894D01*
X125071527Y-127406889D01*
X125073782Y-127401752D01*
X125126059Y-127184002D01*
X125134710Y-127033957D01*
X125138626Y-126966043D01*
X125138626Y-126966040D01*
X125138949Y-126960436D01*
X125112046Y-126738120D01*
X125046200Y-126524083D01*
X125023693Y-126480475D01*
X124946063Y-126330071D01*
X124946063Y-126330070D01*
X124943491Y-126325088D01*
X124807167Y-126147427D01*
X124803021Y-126143654D01*
X124803016Y-126143649D01*
X124645689Y-126000493D01*
X124641536Y-125996714D01*
X124451833Y-125877714D01*
X124244056Y-125794188D01*
X124238564Y-125793051D01*
X124238562Y-125793050D01*
X124087754Y-125761819D01*
X124024772Y-125748776D01*
X124020161Y-125748510D01*
X124020160Y-125748510D01*
X123969775Y-125745605D01*
X123969771Y-125745605D01*
X123967952Y-125745500D01*
X123823181Y-125745500D01*
X123820394Y-125745749D01*
X123820388Y-125745749D01*
X123751038Y-125751939D01*
X123656949Y-125760336D01*
X123440949Y-125819427D01*
X123435891Y-125821839D01*
X123435887Y-125821841D01*
X123288464Y-125892158D01*
X123238826Y-125915834D01*
X123234265Y-125919111D01*
X123234264Y-125919112D01*
X123121011Y-126000493D01*
X123056970Y-126046511D01*
X123053065Y-126050541D01*
X122911068Y-126197070D01*
X122901129Y-126207326D01*
X122898001Y-126211981D01*
X122785881Y-126378835D01*
X122776230Y-126393197D01*
X122686218Y-126598248D01*
X122685208Y-126602455D01*
X122644752Y-126660304D01*
X122579068Y-126687251D01*
X122509243Y-126674409D01*
X122462183Y-126633295D01*
X122414553Y-126563992D01*
X122296275Y-126458611D01*
X122288889Y-126454700D01*
X122217185Y-126416735D01*
X122156274Y-126384484D01*
X122002633Y-126345892D01*
X121995034Y-126345852D01*
X121995033Y-126345852D01*
X121929181Y-126345507D01*
X121844221Y-126345062D01*
X121836841Y-126346834D01*
X121836839Y-126346834D01*
X121697563Y-126380271D01*
X121697560Y-126380272D01*
X121690184Y-126382043D01*
X121549414Y-126454700D01*
X121430039Y-126558838D01*
X121338950Y-126688444D01*
X121317410Y-126743692D01*
X121285872Y-126824583D01*
X121281406Y-126836037D01*
X121280414Y-126843570D01*
X121280414Y-126843571D01*
X121264291Y-126966043D01*
X121260729Y-126993096D01*
X121278113Y-127150553D01*
X121280723Y-127157684D01*
X121280723Y-127157686D01*
X121326474Y-127282706D01*
X121332553Y-127299319D01*
X121336789Y-127305622D01*
X121336789Y-127305623D01*
X121394082Y-127390884D01*
X121415500Y-127461160D01*
X121415500Y-130433500D01*
X121395498Y-130501621D01*
X121341842Y-130548114D01*
X121289500Y-130559500D01*
X110104500Y-130559500D01*
X110036379Y-130539498D01*
X109989886Y-130485842D01*
X109978500Y-130433500D01*
X109978500Y-127866240D01*
X109998502Y-127798119D01*
X110052158Y-127751626D01*
X110122432Y-127741522D01*
X110187012Y-127771016D01*
X110204463Y-127789536D01*
X110252833Y-127852573D01*
X110256979Y-127856346D01*
X110256984Y-127856351D01*
X110321007Y-127914607D01*
X110418464Y-128003286D01*
X110608167Y-128122286D01*
X110815944Y-128205812D01*
X110821436Y-128206949D01*
X110821438Y-128206950D01*
X110962059Y-128236071D01*
X111035228Y-128251224D01*
X111039839Y-128251490D01*
X111039840Y-128251490D01*
X111090225Y-128254395D01*
X111090229Y-128254395D01*
X111092048Y-128254500D01*
X111236819Y-128254500D01*
X111239606Y-128254251D01*
X111239612Y-128254251D01*
X111308962Y-128248061D01*
X111403051Y-128239664D01*
X111619051Y-128180573D01*
X111624109Y-128178161D01*
X111624113Y-128178159D01*
X111816107Y-128086583D01*
X111816109Y-128086582D01*
X111821174Y-128084166D01*
X111929578Y-128006270D01*
X111998470Y-127956766D01*
X111998472Y-127956764D01*
X112003030Y-127953489D01*
X112105138Y-127848122D01*
X112154969Y-127796701D01*
X112154971Y-127796698D01*
X112158871Y-127792674D01*
X112210958Y-127715160D01*
X112280641Y-127611460D01*
X112280643Y-127611457D01*
X112283770Y-127606803D01*
X112354240Y-127446269D01*
X112371525Y-127406894D01*
X112371527Y-127406889D01*
X112373782Y-127401752D01*
X112426059Y-127184002D01*
X112434710Y-127033957D01*
X112438626Y-126966043D01*
X112438626Y-126966040D01*
X112438949Y-126960436D01*
X112412046Y-126738120D01*
X112346200Y-126524083D01*
X112323693Y-126480475D01*
X112246063Y-126330071D01*
X112246063Y-126330070D01*
X112243491Y-126325088D01*
X112107167Y-126147427D01*
X112103021Y-126143654D01*
X112103016Y-126143649D01*
X111945689Y-126000493D01*
X111941536Y-125996714D01*
X111751833Y-125877714D01*
X111544056Y-125794188D01*
X111538564Y-125793051D01*
X111538562Y-125793050D01*
X111387754Y-125761819D01*
X111324772Y-125748776D01*
X111320161Y-125748510D01*
X111320160Y-125748510D01*
X111269775Y-125745605D01*
X111269771Y-125745605D01*
X111267952Y-125745500D01*
X111123181Y-125745500D01*
X111120394Y-125745749D01*
X111120388Y-125745749D01*
X111051038Y-125751939D01*
X110956949Y-125760336D01*
X110740949Y-125819427D01*
X110735891Y-125821839D01*
X110735887Y-125821841D01*
X110588464Y-125892158D01*
X110538826Y-125915834D01*
X110534265Y-125919111D01*
X110534264Y-125919112D01*
X110421011Y-126000493D01*
X110356970Y-126046511D01*
X110353065Y-126050541D01*
X110211068Y-126197070D01*
X110201129Y-126207326D01*
X110198001Y-126211981D01*
X110085881Y-126378835D01*
X110076230Y-126393197D01*
X110065895Y-126416741D01*
X110061769Y-126426140D01*
X110016073Y-126480475D01*
X109948255Y-126501480D01*
X109879847Y-126482485D01*
X109862580Y-126469573D01*
X109855951Y-126463667D01*
X109855945Y-126463663D01*
X109850275Y-126458611D01*
X109842889Y-126454700D01*
X109771185Y-126416735D01*
X109710274Y-126384484D01*
X109556633Y-126345892D01*
X109549034Y-126345852D01*
X109549033Y-126345852D01*
X109483181Y-126345507D01*
X109398221Y-126345062D01*
X109390841Y-126346834D01*
X109390839Y-126346834D01*
X109251563Y-126380271D01*
X109251560Y-126380272D01*
X109244184Y-126382043D01*
X109103414Y-126454700D01*
X108984039Y-126558838D01*
X108892950Y-126688444D01*
X108871410Y-126743692D01*
X108839872Y-126824583D01*
X108835406Y-126836037D01*
X108834414Y-126843570D01*
X108834414Y-126843571D01*
X108818291Y-126966043D01*
X108814729Y-126993096D01*
X108832113Y-127150553D01*
X108834723Y-127157684D01*
X108834723Y-127157686D01*
X108880474Y-127282706D01*
X108886553Y-127299319D01*
X108890789Y-127305622D01*
X108890789Y-127305623D01*
X108948082Y-127390884D01*
X108969500Y-127461160D01*
X108969500Y-130433500D01*
X108949498Y-130501621D01*
X108895842Y-130548114D01*
X108843500Y-130559500D01*
X104823183Y-130559500D01*
X104755062Y-130539498D01*
X104708569Y-130485842D01*
X104698465Y-130415568D01*
X104712770Y-130372796D01*
X104713319Y-130371797D01*
X104717755Y-130365624D01*
X104776842Y-130218641D01*
X104799162Y-130061807D01*
X104799307Y-130048000D01*
X104780276Y-129890733D01*
X104724280Y-129742546D01*
X104666660Y-129658708D01*
X104644500Y-129587341D01*
X104644500Y-127714144D01*
X104668176Y-127640620D01*
X104717755Y-127571624D01*
X104776842Y-127424641D01*
X104786268Y-127358409D01*
X104798581Y-127271891D01*
X104798581Y-127271888D01*
X104799162Y-127267807D01*
X104799307Y-127254000D01*
X104797592Y-127239823D01*
X104793519Y-127206166D01*
X104780276Y-127096733D01*
X104724280Y-126948546D01*
X104706659Y-126922908D01*
X104684500Y-126851542D01*
X104684500Y-121230499D01*
X104704502Y-121162378D01*
X104758158Y-121115885D01*
X104810500Y-121104499D01*
X104955066Y-121104499D01*
X104990818Y-121097388D01*
X105017126Y-121092156D01*
X105017128Y-121092155D01*
X105029301Y-121089734D01*
X105039621Y-121082839D01*
X105039622Y-121082838D01*
X105103168Y-121040377D01*
X105113484Y-121033484D01*
X105169734Y-120949301D01*
X105184500Y-120875067D01*
X105184500Y-120868828D01*
X108176001Y-120868828D01*
X108177209Y-120881088D01*
X108188315Y-120936931D01*
X108197633Y-120959427D01*
X108239983Y-121022808D01*
X108257192Y-121040017D01*
X108320575Y-121082368D01*
X108343066Y-121091684D01*
X108398915Y-121102793D01*
X108411170Y-121104000D01*
X109034885Y-121104000D01*
X109050124Y-121099525D01*
X109051329Y-121098135D01*
X109053000Y-121090452D01*
X109053000Y-121085884D01*
X109307000Y-121085884D01*
X109311475Y-121101123D01*
X109312865Y-121102328D01*
X109320548Y-121103999D01*
X109948828Y-121103999D01*
X109961088Y-121102791D01*
X110016931Y-121091685D01*
X110039427Y-121082367D01*
X110102808Y-121040017D01*
X110120017Y-121022808D01*
X110162368Y-120959425D01*
X110171684Y-120936934D01*
X110182793Y-120881085D01*
X110184000Y-120868830D01*
X110184000Y-119995115D01*
X110179525Y-119979876D01*
X110178135Y-119978671D01*
X110170452Y-119977000D01*
X109325115Y-119977000D01*
X109309876Y-119981475D01*
X109308671Y-119982865D01*
X109307000Y-119990548D01*
X109307000Y-121085884D01*
X109053000Y-121085884D01*
X109053000Y-119995115D01*
X109048525Y-119979876D01*
X109047135Y-119978671D01*
X109039452Y-119977000D01*
X108194116Y-119977000D01*
X108178877Y-119981475D01*
X108177672Y-119982865D01*
X108176001Y-119990548D01*
X108176001Y-120868828D01*
X105184500Y-120868828D01*
X105184499Y-118998500D01*
X105204501Y-118930379D01*
X105258157Y-118883886D01*
X105310499Y-118872500D01*
X108050000Y-118872500D01*
X108118121Y-118892502D01*
G37*
G04 #@! TD.AperFunction*
G04 #@! TA.AperFunction,Conductor*
G36*
X103117621Y-118892502D02*
G01*
X103164114Y-118946158D01*
X103175500Y-118998500D01*
X103175501Y-119977000D01*
X103175501Y-120875066D01*
X103181821Y-120906842D01*
X103187806Y-120936931D01*
X103190266Y-120949301D01*
X103246516Y-121033484D01*
X103330699Y-121089734D01*
X103404933Y-121104500D01*
X103549500Y-121104500D01*
X103617621Y-121124502D01*
X103664114Y-121178158D01*
X103675500Y-121230500D01*
X103675500Y-126737557D01*
X103655498Y-126805678D01*
X103650032Y-126812837D01*
X103650037Y-126812840D01*
X103643457Y-126822202D01*
X103641261Y-126823951D01*
X103640591Y-126824695D01*
X103640467Y-126824583D01*
X103587922Y-126866432D01*
X103517290Y-126873617D01*
X103453986Y-126841474D01*
X103418109Y-126780209D01*
X103415285Y-126764886D01*
X103412720Y-126743692D01*
X103412046Y-126738120D01*
X103346200Y-126524083D01*
X103323693Y-126480475D01*
X103246063Y-126330071D01*
X103246063Y-126330070D01*
X103243491Y-126325088D01*
X103107167Y-126147427D01*
X103103021Y-126143654D01*
X103103016Y-126143649D01*
X102945689Y-126000493D01*
X102941536Y-125996714D01*
X102751833Y-125877714D01*
X102544056Y-125794188D01*
X102538564Y-125793051D01*
X102538562Y-125793050D01*
X102387754Y-125761819D01*
X102324772Y-125748776D01*
X102320161Y-125748510D01*
X102320160Y-125748510D01*
X102269775Y-125745605D01*
X102269771Y-125745605D01*
X102267952Y-125745500D01*
X102123181Y-125745500D01*
X102120394Y-125745749D01*
X102120388Y-125745749D01*
X102051038Y-125751939D01*
X101956949Y-125760336D01*
X101740949Y-125819427D01*
X101735891Y-125821839D01*
X101735887Y-125821841D01*
X101588464Y-125892158D01*
X101538826Y-125915834D01*
X101534265Y-125919111D01*
X101534264Y-125919112D01*
X101421011Y-126000493D01*
X101356970Y-126046511D01*
X101353065Y-126050541D01*
X101211068Y-126197070D01*
X101201129Y-126207326D01*
X101198001Y-126211981D01*
X101085881Y-126378835D01*
X101076230Y-126393197D01*
X100986218Y-126598248D01*
X100984908Y-126603705D01*
X100938230Y-126798135D01*
X100933941Y-126815998D01*
X100933446Y-126824583D01*
X100922301Y-127017891D01*
X100921051Y-127039564D01*
X100947954Y-127261880D01*
X101013800Y-127475917D01*
X101016370Y-127480897D01*
X101016372Y-127480901D01*
X101101010Y-127644884D01*
X101116509Y-127674912D01*
X101252833Y-127852573D01*
X101256979Y-127856346D01*
X101256984Y-127856351D01*
X101321007Y-127914607D01*
X101418464Y-128003286D01*
X101608167Y-128122286D01*
X101815944Y-128205812D01*
X101821436Y-128206949D01*
X101821438Y-128206950D01*
X101962059Y-128236071D01*
X102035228Y-128251224D01*
X102039839Y-128251490D01*
X102039840Y-128251490D01*
X102090225Y-128254395D01*
X102090229Y-128254395D01*
X102092048Y-128254500D01*
X102236819Y-128254500D01*
X102239606Y-128254251D01*
X102239612Y-128254251D01*
X102308962Y-128248061D01*
X102403051Y-128239664D01*
X102619051Y-128180573D01*
X102624109Y-128178161D01*
X102624113Y-128178159D01*
X102816107Y-128086583D01*
X102816109Y-128086582D01*
X102821174Y-128084166D01*
X102929578Y-128006270D01*
X102998470Y-127956766D01*
X102998472Y-127956764D01*
X103003030Y-127953489D01*
X103105138Y-127848122D01*
X103154969Y-127796701D01*
X103154971Y-127796698D01*
X103158871Y-127792674D01*
X103210958Y-127715160D01*
X103280641Y-127611460D01*
X103280643Y-127611457D01*
X103283770Y-127606803D01*
X103315044Y-127535560D01*
X103360739Y-127481226D01*
X103428557Y-127460221D01*
X103496965Y-127479215D01*
X103544245Y-127532179D01*
X103548740Y-127542902D01*
X103549939Y-127546179D01*
X103549943Y-127546187D01*
X103552553Y-127553319D01*
X103556789Y-127559622D01*
X103556789Y-127559623D01*
X103614082Y-127644884D01*
X103635500Y-127715160D01*
X103635500Y-129587676D01*
X103612587Y-129660126D01*
X103558950Y-129736444D01*
X103501406Y-129884037D01*
X103500414Y-129891570D01*
X103500414Y-129891571D01*
X103482917Y-130024480D01*
X103480729Y-130041096D01*
X103498113Y-130198553D01*
X103500723Y-130205684D01*
X103500723Y-130205686D01*
X103517774Y-130252279D01*
X103552553Y-130347319D01*
X103560116Y-130358574D01*
X103563240Y-130363223D01*
X103584633Y-130430920D01*
X103566030Y-130499436D01*
X103513337Y-130547018D01*
X103458659Y-130559500D01*
X101171625Y-130559500D01*
X101159620Y-130558159D01*
X101159580Y-130558655D01*
X101150633Y-130557935D01*
X101141877Y-130555954D01*
X101098339Y-130558655D01*
X101088619Y-130559258D01*
X101080817Y-130559500D01*
X101064774Y-130559500D01*
X101060344Y-130560135D01*
X101060337Y-130560135D01*
X101054536Y-130560966D01*
X101044481Y-130561996D01*
X101006601Y-130564346D01*
X101006599Y-130564346D01*
X100997642Y-130564902D01*
X100989201Y-130567949D01*
X100985923Y-130568628D01*
X100970055Y-130572584D01*
X100966831Y-130573527D01*
X100957948Y-130574799D01*
X100949779Y-130578513D01*
X100949773Y-130578515D01*
X100915221Y-130594225D01*
X100905853Y-130598039D01*
X100861716Y-130613972D01*
X100854466Y-130619269D01*
X100851499Y-130620846D01*
X100837386Y-130629093D01*
X100834563Y-130630898D01*
X100826395Y-130634612D01*
X100819598Y-130640469D01*
X100819596Y-130640470D01*
X100810962Y-130647910D01*
X100791047Y-130665071D01*
X100790847Y-130665243D01*
X100782936Y-130671525D01*
X100772056Y-130679473D01*
X100761194Y-130690335D01*
X100754348Y-130696693D01*
X100716918Y-130728944D01*
X100712034Y-130736479D01*
X100706301Y-130743051D01*
X100697074Y-130754455D01*
X100229595Y-131221934D01*
X100167283Y-131255960D01*
X100096468Y-131250895D01*
X100039632Y-131208348D01*
X100014821Y-131141828D01*
X100014500Y-131132839D01*
X100014500Y-130682244D01*
X100009962Y-130640470D01*
X100008651Y-130628403D01*
X100008651Y-130628402D01*
X100007798Y-130620552D01*
X100004189Y-130610923D01*
X99985729Y-130561683D01*
X99957071Y-130485236D01*
X99951691Y-130478057D01*
X99951689Y-130478054D01*
X99875785Y-130376776D01*
X99870404Y-130369596D01*
X99831161Y-130340185D01*
X99761946Y-130288311D01*
X99761943Y-130288309D01*
X99754764Y-130282929D01*
X99673004Y-130252279D01*
X99646271Y-130242257D01*
X99589506Y-130199616D01*
X99564806Y-130133054D01*
X99564500Y-130124275D01*
X99564500Y-128955725D01*
X99584502Y-128887604D01*
X99638158Y-128841111D01*
X99646271Y-128837743D01*
X99699925Y-128817629D01*
X99754764Y-128797071D01*
X99761943Y-128791691D01*
X99761946Y-128791689D01*
X99863224Y-128715785D01*
X99870404Y-128710404D01*
X99925651Y-128636688D01*
X99951689Y-128601946D01*
X99951691Y-128601943D01*
X99957071Y-128594764D01*
X100007798Y-128459448D01*
X100011396Y-128426333D01*
X100014131Y-128401153D01*
X100014131Y-128401152D01*
X100014500Y-128397756D01*
X100014500Y-127652244D01*
X100009844Y-127609385D01*
X100008651Y-127598403D01*
X100008651Y-127598402D01*
X100007798Y-127590552D01*
X99957071Y-127455236D01*
X99951691Y-127448057D01*
X99951689Y-127448054D01*
X99885713Y-127360023D01*
X99870404Y-127339596D01*
X99825074Y-127305623D01*
X99761946Y-127258311D01*
X99761943Y-127258309D01*
X99754764Y-127252929D01*
X99636003Y-127208408D01*
X99626843Y-127204974D01*
X99626841Y-127204974D01*
X99619448Y-127202202D01*
X99611598Y-127201349D01*
X99611597Y-127201349D01*
X99561153Y-127195869D01*
X99561152Y-127195869D01*
X99557756Y-127195500D01*
X98562244Y-127195500D01*
X98558848Y-127195869D01*
X98558847Y-127195869D01*
X98508403Y-127201349D01*
X98508402Y-127201349D01*
X98500552Y-127202202D01*
X98493159Y-127204974D01*
X98493157Y-127204974D01*
X98483997Y-127208408D01*
X98365236Y-127252929D01*
X98358057Y-127258309D01*
X98358054Y-127258311D01*
X98294926Y-127305623D01*
X98249596Y-127339596D01*
X98234287Y-127360023D01*
X98168311Y-127448054D01*
X98168309Y-127448057D01*
X98162929Y-127455236D01*
X98112202Y-127590552D01*
X98111349Y-127598402D01*
X98111349Y-127598403D01*
X98110156Y-127609385D01*
X98105500Y-127652244D01*
X98105500Y-128397756D01*
X98105869Y-128401152D01*
X98105869Y-128401153D01*
X98108605Y-128426333D01*
X98112202Y-128459448D01*
X98162929Y-128594764D01*
X98168309Y-128601943D01*
X98168311Y-128601946D01*
X98194349Y-128636688D01*
X98249596Y-128710404D01*
X98256776Y-128715785D01*
X98358054Y-128791689D01*
X98358057Y-128791691D01*
X98365236Y-128797071D01*
X98420075Y-128817629D01*
X98473729Y-128837743D01*
X98530494Y-128880384D01*
X98555194Y-128946946D01*
X98555500Y-128955725D01*
X98555500Y-130124275D01*
X98535498Y-130192396D01*
X98481842Y-130238889D01*
X98473729Y-130242257D01*
X98446996Y-130252279D01*
X98365236Y-130282929D01*
X98358057Y-130288309D01*
X98358054Y-130288311D01*
X98288839Y-130340185D01*
X98249596Y-130369596D01*
X98244215Y-130376776D01*
X98168311Y-130478054D01*
X98168309Y-130478057D01*
X98162929Y-130485236D01*
X98134271Y-130561683D01*
X98115812Y-130610923D01*
X98112202Y-130620552D01*
X98111349Y-130628402D01*
X98111349Y-130628403D01*
X98110038Y-130640470D01*
X98105500Y-130682244D01*
X98105500Y-131427756D01*
X98112202Y-131489448D01*
X98162929Y-131624764D01*
X98168309Y-131631943D01*
X98168311Y-131631946D01*
X98230766Y-131715279D01*
X98249596Y-131740404D01*
X98256776Y-131745785D01*
X98358054Y-131821689D01*
X98358057Y-131821691D01*
X98365236Y-131827071D01*
X98454954Y-131860704D01*
X98493157Y-131875026D01*
X98493159Y-131875026D01*
X98500552Y-131877798D01*
X98508402Y-131878651D01*
X98508403Y-131878651D01*
X98551842Y-131883370D01*
X98562244Y-131884500D01*
X99262839Y-131884500D01*
X99330960Y-131904502D01*
X99377453Y-131958158D01*
X99387557Y-132028432D01*
X99358063Y-132093012D01*
X99351934Y-132099595D01*
X99212934Y-132238595D01*
X99150622Y-132272621D01*
X99123839Y-132275500D01*
X98562244Y-132275500D01*
X98558848Y-132275869D01*
X98558847Y-132275869D01*
X98508403Y-132281349D01*
X98508402Y-132281349D01*
X98500552Y-132282202D01*
X98493159Y-132284974D01*
X98493157Y-132284974D01*
X98483997Y-132288408D01*
X98365236Y-132332929D01*
X98358057Y-132338309D01*
X98358054Y-132338311D01*
X98270023Y-132404287D01*
X98249596Y-132419596D01*
X98234287Y-132440023D01*
X98168311Y-132528054D01*
X98168309Y-132528057D01*
X98162929Y-132535236D01*
X98112202Y-132670552D01*
X98105500Y-132732244D01*
X98103976Y-132732078D01*
X98082331Y-132793278D01*
X98026229Y-132836788D01*
X97980190Y-132845500D01*
X97131410Y-132845500D01*
X97063289Y-132825498D01*
X97028640Y-132792400D01*
X96913370Y-132629900D01*
X96913369Y-132629899D01*
X96909904Y-132625014D01*
X96757660Y-132479272D01*
X96660171Y-132416324D01*
X96585640Y-132368200D01*
X96585637Y-132368199D01*
X96580603Y-132364948D01*
X96385122Y-132286166D01*
X96250739Y-132259923D01*
X96182717Y-132246639D01*
X96182714Y-132246639D01*
X96178271Y-132245771D01*
X96172730Y-132245500D01*
X95177341Y-132245500D01*
X95020194Y-132260493D01*
X95014434Y-132262183D01*
X95014433Y-132262183D01*
X94936600Y-132285017D01*
X94817958Y-132319823D01*
X94742560Y-132358655D01*
X94635921Y-132413578D01*
X94635918Y-132413580D01*
X94630590Y-132416324D01*
X94625875Y-132420028D01*
X94469568Y-132542808D01*
X94469564Y-132542812D01*
X94464851Y-132546514D01*
X94460920Y-132551044D01*
X94460919Y-132551045D01*
X94330650Y-132701165D01*
X94330646Y-132701170D01*
X94326719Y-132705696D01*
X94323715Y-132710889D01*
X94282232Y-132782595D01*
X94230807Y-132831544D01*
X94173168Y-132845500D01*
X93791410Y-132845500D01*
X93723289Y-132825498D01*
X93688640Y-132792400D01*
X93573370Y-132629900D01*
X93573369Y-132629899D01*
X93569904Y-132625014D01*
X93417660Y-132479272D01*
X93320171Y-132416324D01*
X93245640Y-132368200D01*
X93245637Y-132368199D01*
X93240603Y-132364948D01*
X93045122Y-132286166D01*
X92910739Y-132259923D01*
X92842717Y-132246639D01*
X92842714Y-132246639D01*
X92838271Y-132245771D01*
X92832730Y-132245500D01*
X91837341Y-132245500D01*
X91680194Y-132260493D01*
X91674434Y-132262183D01*
X91674433Y-132262183D01*
X91596600Y-132285017D01*
X91477958Y-132319823D01*
X91402560Y-132358655D01*
X91295921Y-132413578D01*
X91295918Y-132413580D01*
X91290590Y-132416324D01*
X91210454Y-132479272D01*
X91136333Y-132537495D01*
X91070408Y-132563845D01*
X91000702Y-132550370D01*
X90949346Y-132501349D01*
X90932500Y-132438409D01*
X90932500Y-131716767D01*
X90952502Y-131648646D01*
X91006158Y-131602153D01*
X91076432Y-131592049D01*
X91145631Y-131625749D01*
X91198321Y-131676189D01*
X91207686Y-131683585D01*
X91374590Y-131791354D01*
X91385194Y-131796850D01*
X91569452Y-131871108D01*
X91580911Y-131874502D01*
X91777332Y-131912861D01*
X91786168Y-131913934D01*
X91788871Y-131914000D01*
X92164885Y-131914000D01*
X92180124Y-131909525D01*
X92181329Y-131908135D01*
X92183000Y-131900452D01*
X92183000Y-131895885D01*
X92437000Y-131895885D01*
X92441475Y-131911124D01*
X92442865Y-131912329D01*
X92450548Y-131914000D01*
X92779644Y-131914000D01*
X92785621Y-131913715D01*
X92933734Y-131899584D01*
X92945472Y-131897324D01*
X93136091Y-131841402D01*
X93147194Y-131836961D01*
X93323807Y-131746000D01*
X93333853Y-131739550D01*
X93490086Y-131616829D01*
X93498735Y-131608592D01*
X93628940Y-131458543D01*
X93635877Y-131448817D01*
X93735357Y-131276861D01*
X93740331Y-131265997D01*
X93805502Y-131078324D01*
X93808330Y-131066722D01*
X93824539Y-130954929D01*
X93824123Y-130952007D01*
X94131382Y-130952007D01*
X94131765Y-130960273D01*
X94133446Y-130972087D01*
X94179993Y-131165229D01*
X94183882Y-131176524D01*
X94266112Y-131357379D01*
X94272059Y-131367721D01*
X94387010Y-131529772D01*
X94394803Y-131538800D01*
X94538321Y-131676189D01*
X94547686Y-131683585D01*
X94714590Y-131791354D01*
X94725194Y-131796850D01*
X94909452Y-131871108D01*
X94920911Y-131874502D01*
X95117332Y-131912861D01*
X95126168Y-131913934D01*
X95128871Y-131914000D01*
X95504885Y-131914000D01*
X95520124Y-131909525D01*
X95521329Y-131908135D01*
X95523000Y-131900452D01*
X95523000Y-131895885D01*
X95777000Y-131895885D01*
X95781475Y-131911124D01*
X95782865Y-131912329D01*
X95790548Y-131914000D01*
X96119644Y-131914000D01*
X96125621Y-131913715D01*
X96273734Y-131899584D01*
X96285472Y-131897324D01*
X96476091Y-131841402D01*
X96487194Y-131836961D01*
X96663807Y-131746000D01*
X96673853Y-131739550D01*
X96830086Y-131616829D01*
X96838735Y-131608592D01*
X96968940Y-131458543D01*
X96975877Y-131448817D01*
X97075357Y-131276861D01*
X97080331Y-131265997D01*
X97145502Y-131078324D01*
X97148330Y-131066722D01*
X97164539Y-130954929D01*
X97162553Y-130940993D01*
X97148985Y-130937000D01*
X95795115Y-130937000D01*
X95779876Y-130941475D01*
X95778671Y-130942865D01*
X95777000Y-130950548D01*
X95777000Y-131895885D01*
X95523000Y-131895885D01*
X95523000Y-130955115D01*
X95518525Y-130939876D01*
X95517135Y-130938671D01*
X95509452Y-130937000D01*
X94148803Y-130937000D01*
X94133564Y-130941475D01*
X94133378Y-130941689D01*
X94131382Y-130952007D01*
X93824123Y-130952007D01*
X93822553Y-130940993D01*
X93808985Y-130937000D01*
X92455115Y-130937000D01*
X92439876Y-130941475D01*
X92438671Y-130942865D01*
X92437000Y-130950548D01*
X92437000Y-131895885D01*
X92183000Y-131895885D01*
X92183000Y-130664885D01*
X92437000Y-130664885D01*
X92441475Y-130680124D01*
X92442865Y-130681329D01*
X92450548Y-130683000D01*
X93811197Y-130683000D01*
X93826436Y-130678525D01*
X93826622Y-130678311D01*
X93828618Y-130667993D01*
X93828483Y-130665071D01*
X94135461Y-130665071D01*
X94137447Y-130679007D01*
X94151015Y-130683000D01*
X95504885Y-130683000D01*
X95520124Y-130678525D01*
X95521329Y-130677135D01*
X95523000Y-130669452D01*
X95523000Y-130664885D01*
X95777000Y-130664885D01*
X95781475Y-130680124D01*
X95782865Y-130681329D01*
X95790548Y-130683000D01*
X97151197Y-130683000D01*
X97166436Y-130678525D01*
X97166622Y-130678311D01*
X97168618Y-130667993D01*
X97168235Y-130659727D01*
X97166554Y-130647910D01*
X97120007Y-130454771D01*
X97116118Y-130443476D01*
X97033888Y-130262621D01*
X97027941Y-130252279D01*
X96912990Y-130090228D01*
X96905197Y-130081200D01*
X96761679Y-129943811D01*
X96752314Y-129936415D01*
X96585410Y-129828646D01*
X96574806Y-129823150D01*
X96390548Y-129748892D01*
X96379089Y-129745498D01*
X96182668Y-129707139D01*
X96173832Y-129706066D01*
X96171129Y-129706000D01*
X95795115Y-129706000D01*
X95779876Y-129710475D01*
X95778671Y-129711865D01*
X95777000Y-129719548D01*
X95777000Y-130664885D01*
X95523000Y-130664885D01*
X95523000Y-129724115D01*
X95518525Y-129708876D01*
X95517135Y-129707671D01*
X95509452Y-129706000D01*
X95180356Y-129706000D01*
X95174379Y-129706285D01*
X95026266Y-129720416D01*
X95014528Y-129722676D01*
X94823909Y-129778598D01*
X94812806Y-129783039D01*
X94636193Y-129874000D01*
X94626147Y-129880450D01*
X94469914Y-130003171D01*
X94461265Y-130011408D01*
X94331060Y-130161457D01*
X94324123Y-130171183D01*
X94224643Y-130343139D01*
X94219669Y-130354003D01*
X94154498Y-130541676D01*
X94151670Y-130553278D01*
X94135461Y-130665071D01*
X93828483Y-130665071D01*
X93828235Y-130659727D01*
X93826554Y-130647910D01*
X93780007Y-130454771D01*
X93776118Y-130443476D01*
X93693888Y-130262621D01*
X93687941Y-130252279D01*
X93572990Y-130090228D01*
X93565197Y-130081200D01*
X93421679Y-129943811D01*
X93412314Y-129936415D01*
X93245410Y-129828646D01*
X93234806Y-129823150D01*
X93050548Y-129748892D01*
X93039089Y-129745498D01*
X92842668Y-129707139D01*
X92833832Y-129706066D01*
X92831129Y-129706000D01*
X92455115Y-129706000D01*
X92439876Y-129710475D01*
X92438671Y-129711865D01*
X92437000Y-129719548D01*
X92437000Y-130664885D01*
X92183000Y-130664885D01*
X92183000Y-129724115D01*
X92178525Y-129708876D01*
X92177135Y-129707671D01*
X92169452Y-129706000D01*
X91840356Y-129706000D01*
X91834379Y-129706285D01*
X91686266Y-129720416D01*
X91674528Y-129722676D01*
X91483909Y-129778598D01*
X91472806Y-129783039D01*
X91296193Y-129874000D01*
X91286147Y-129880450D01*
X91136333Y-129998130D01*
X91070407Y-130024480D01*
X91000701Y-130011005D01*
X90949346Y-129961983D01*
X90932500Y-129899044D01*
X90932500Y-129177459D01*
X90952502Y-129109338D01*
X91006158Y-129062845D01*
X91076432Y-129052741D01*
X91145631Y-129086441D01*
X91202340Y-129140728D01*
X91207375Y-129143979D01*
X91374360Y-129251800D01*
X91374363Y-129251801D01*
X91379397Y-129255052D01*
X91574878Y-129333834D01*
X91697688Y-129357817D01*
X91777283Y-129373361D01*
X91777286Y-129373361D01*
X91781729Y-129374229D01*
X91787270Y-129374500D01*
X92782659Y-129374500D01*
X92939806Y-129359507D01*
X93142042Y-129300177D01*
X93225304Y-129257294D01*
X93324079Y-129206422D01*
X93324082Y-129206420D01*
X93329410Y-129203676D01*
X93405408Y-129143979D01*
X93490432Y-129077192D01*
X93490436Y-129077188D01*
X93495149Y-129073486D01*
X93559674Y-128999128D01*
X93629350Y-128918835D01*
X93629354Y-128918830D01*
X93633281Y-128914304D01*
X93738819Y-128731874D01*
X93807957Y-128532778D01*
X93818590Y-128459448D01*
X93837338Y-128330140D01*
X93837338Y-128330137D01*
X93838199Y-128324200D01*
X93833182Y-128215800D01*
X94121801Y-128215800D01*
X94131545Y-128426333D01*
X94132949Y-128432158D01*
X94173868Y-128601946D01*
X94180924Y-128631226D01*
X94183406Y-128636684D01*
X94183407Y-128636688D01*
X94216924Y-128710404D01*
X94268157Y-128823084D01*
X94390096Y-128994986D01*
X94542340Y-129140728D01*
X94547375Y-129143979D01*
X94714360Y-129251800D01*
X94714363Y-129251801D01*
X94719397Y-129255052D01*
X94914878Y-129333834D01*
X95037688Y-129357817D01*
X95117283Y-129373361D01*
X95117286Y-129373361D01*
X95121729Y-129374229D01*
X95127270Y-129374500D01*
X96122659Y-129374500D01*
X96279806Y-129359507D01*
X96482042Y-129300177D01*
X96565304Y-129257294D01*
X96664079Y-129206422D01*
X96664082Y-129206420D01*
X96669410Y-129203676D01*
X96745408Y-129143979D01*
X96830432Y-129077192D01*
X96830436Y-129077188D01*
X96835149Y-129073486D01*
X96899674Y-128999128D01*
X96969350Y-128918835D01*
X96969354Y-128918830D01*
X96973281Y-128914304D01*
X97078819Y-128731874D01*
X97147957Y-128532778D01*
X97158590Y-128459448D01*
X97177338Y-128330140D01*
X97177338Y-128330137D01*
X97178199Y-128324200D01*
X97168455Y-128113667D01*
X97161346Y-128084166D01*
X97120482Y-127914607D01*
X97120481Y-127914605D01*
X97119076Y-127908774D01*
X97031843Y-127716916D01*
X96909904Y-127545014D01*
X96795942Y-127435919D01*
X96761990Y-127403417D01*
X96757660Y-127399272D01*
X96665907Y-127340028D01*
X96585640Y-127288200D01*
X96585637Y-127288199D01*
X96580603Y-127284948D01*
X96385122Y-127206166D01*
X96242925Y-127178397D01*
X96182717Y-127166639D01*
X96182714Y-127166639D01*
X96178271Y-127165771D01*
X96172730Y-127165500D01*
X95177341Y-127165500D01*
X95020194Y-127180493D01*
X95014434Y-127182183D01*
X95014433Y-127182183D01*
X94936600Y-127205017D01*
X94817958Y-127239823D01*
X94775132Y-127261880D01*
X94635921Y-127333578D01*
X94635918Y-127333580D01*
X94630590Y-127336324D01*
X94617284Y-127346776D01*
X94469568Y-127462808D01*
X94469564Y-127462812D01*
X94464851Y-127466514D01*
X94460920Y-127471044D01*
X94460919Y-127471045D01*
X94330650Y-127621165D01*
X94330646Y-127621170D01*
X94326719Y-127625696D01*
X94221181Y-127808126D01*
X94152043Y-128007222D01*
X94151183Y-128013155D01*
X94151182Y-128013158D01*
X94123249Y-128205812D01*
X94121801Y-128215800D01*
X93833182Y-128215800D01*
X93828455Y-128113667D01*
X93821346Y-128084166D01*
X93780482Y-127914607D01*
X93780481Y-127914605D01*
X93779076Y-127908774D01*
X93691843Y-127716916D01*
X93569904Y-127545014D01*
X93455942Y-127435919D01*
X93421990Y-127403417D01*
X93417660Y-127399272D01*
X93325907Y-127340028D01*
X93245640Y-127288200D01*
X93245637Y-127288199D01*
X93240603Y-127284948D01*
X93045122Y-127206166D01*
X92902925Y-127178397D01*
X92842717Y-127166639D01*
X92842714Y-127166639D01*
X92838271Y-127165771D01*
X92832730Y-127165500D01*
X91837341Y-127165500D01*
X91680194Y-127180493D01*
X91674434Y-127182183D01*
X91674433Y-127182183D01*
X91596600Y-127205017D01*
X91477958Y-127239823D01*
X91435132Y-127261880D01*
X91295921Y-127333578D01*
X91295918Y-127333580D01*
X91290590Y-127336324D01*
X91139209Y-127455236D01*
X91136333Y-127457495D01*
X91070408Y-127483845D01*
X91000702Y-127470370D01*
X90949346Y-127421349D01*
X90932500Y-127358409D01*
X90932500Y-126637459D01*
X90952502Y-126569338D01*
X91006158Y-126522845D01*
X91076432Y-126512741D01*
X91145631Y-126546441D01*
X91194378Y-126593106D01*
X91202340Y-126600728D01*
X91207375Y-126603979D01*
X91374360Y-126711800D01*
X91374363Y-126711801D01*
X91379397Y-126715052D01*
X91574878Y-126793834D01*
X91697688Y-126817817D01*
X91777283Y-126833361D01*
X91777286Y-126833361D01*
X91781729Y-126834229D01*
X91787270Y-126834500D01*
X92782659Y-126834500D01*
X92939806Y-126819507D01*
X92962539Y-126812838D01*
X93136278Y-126761868D01*
X93142042Y-126760177D01*
X93225304Y-126717294D01*
X93324079Y-126666422D01*
X93324082Y-126666420D01*
X93329410Y-126663676D01*
X93380328Y-126623680D01*
X93490432Y-126537192D01*
X93490436Y-126537188D01*
X93495149Y-126533486D01*
X93504383Y-126522845D01*
X93629350Y-126378835D01*
X93629354Y-126378830D01*
X93633281Y-126374304D01*
X93738819Y-126191874D01*
X93807957Y-125992778D01*
X93819114Y-125915834D01*
X93837338Y-125790140D01*
X93837338Y-125790137D01*
X93838199Y-125784200D01*
X93833182Y-125675800D01*
X94121801Y-125675800D01*
X94131545Y-125886333D01*
X94180924Y-126091226D01*
X94183406Y-126096684D01*
X94183407Y-126096688D01*
X94194059Y-126120115D01*
X94268157Y-126283084D01*
X94390096Y-126454986D01*
X94478214Y-126539341D01*
X94534298Y-126593029D01*
X94542340Y-126600728D01*
X94547375Y-126603979D01*
X94714360Y-126711800D01*
X94714363Y-126711801D01*
X94719397Y-126715052D01*
X94914878Y-126793834D01*
X95037688Y-126817817D01*
X95117283Y-126833361D01*
X95117286Y-126833361D01*
X95121729Y-126834229D01*
X95127270Y-126834500D01*
X96122659Y-126834500D01*
X96279806Y-126819507D01*
X96302539Y-126812838D01*
X96476278Y-126761868D01*
X96482042Y-126760177D01*
X96565304Y-126717294D01*
X96664079Y-126666422D01*
X96664082Y-126666420D01*
X96669410Y-126663676D01*
X96720328Y-126623680D01*
X96830432Y-126537192D01*
X96830436Y-126537188D01*
X96835149Y-126533486D01*
X96844383Y-126522845D01*
X96969350Y-126378835D01*
X96969354Y-126378830D01*
X96973281Y-126374304D01*
X96990643Y-126344292D01*
X98106001Y-126344292D01*
X98106370Y-126351110D01*
X98111841Y-126401482D01*
X98115470Y-126416741D01*
X98160222Y-126536118D01*
X98168754Y-126551704D01*
X98244572Y-126652867D01*
X98257133Y-126665428D01*
X98358296Y-126741246D01*
X98373882Y-126749778D01*
X98493265Y-126794533D01*
X98508510Y-126798158D01*
X98558892Y-126803631D01*
X98565706Y-126804000D01*
X98914885Y-126804000D01*
X98930124Y-126799525D01*
X98931329Y-126798135D01*
X98933000Y-126790452D01*
X98933000Y-126785884D01*
X99187000Y-126785884D01*
X99191475Y-126801123D01*
X99192865Y-126802328D01*
X99200548Y-126803999D01*
X99554292Y-126803999D01*
X99561110Y-126803630D01*
X99611482Y-126798159D01*
X99626741Y-126794530D01*
X99746118Y-126749778D01*
X99761704Y-126741246D01*
X99862867Y-126665428D01*
X99875428Y-126652867D01*
X99951246Y-126551704D01*
X99959778Y-126536118D01*
X100004533Y-126416735D01*
X100008158Y-126401490D01*
X100013631Y-126351108D01*
X100014000Y-126344294D01*
X100014000Y-126120115D01*
X100009525Y-126104876D01*
X100008135Y-126103671D01*
X100000452Y-126102000D01*
X99205115Y-126102000D01*
X99189876Y-126106475D01*
X99188671Y-126107865D01*
X99187000Y-126115548D01*
X99187000Y-126785884D01*
X98933000Y-126785884D01*
X98933000Y-126120115D01*
X98928525Y-126104876D01*
X98927135Y-126103671D01*
X98919452Y-126102000D01*
X98124116Y-126102000D01*
X98108877Y-126106475D01*
X98107672Y-126107865D01*
X98106001Y-126115548D01*
X98106001Y-126344292D01*
X96990643Y-126344292D01*
X97078819Y-126191874D01*
X97147957Y-125992778D01*
X97159114Y-125915834D01*
X97171575Y-125829885D01*
X98106000Y-125829885D01*
X98110475Y-125845124D01*
X98111865Y-125846329D01*
X98119548Y-125848000D01*
X98914885Y-125848000D01*
X98930124Y-125843525D01*
X98931329Y-125842135D01*
X98933000Y-125834452D01*
X98933000Y-125829885D01*
X99187000Y-125829885D01*
X99191475Y-125845124D01*
X99192865Y-125846329D01*
X99200548Y-125848000D01*
X99995884Y-125848000D01*
X100011123Y-125843525D01*
X100012328Y-125842135D01*
X100013999Y-125834452D01*
X100013999Y-125605708D01*
X100013630Y-125598890D01*
X100008159Y-125548518D01*
X100004530Y-125533259D01*
X99959778Y-125413882D01*
X99951246Y-125398296D01*
X99875428Y-125297133D01*
X99862867Y-125284572D01*
X99761704Y-125208754D01*
X99746118Y-125200222D01*
X99626735Y-125155467D01*
X99611490Y-125151842D01*
X99561108Y-125146369D01*
X99554294Y-125146000D01*
X99205115Y-125146000D01*
X99189876Y-125150475D01*
X99188671Y-125151865D01*
X99187000Y-125159548D01*
X99187000Y-125829885D01*
X98933000Y-125829885D01*
X98933000Y-125164116D01*
X98928525Y-125148877D01*
X98927135Y-125147672D01*
X98919452Y-125146001D01*
X98565708Y-125146001D01*
X98558890Y-125146370D01*
X98508518Y-125151841D01*
X98493259Y-125155470D01*
X98373882Y-125200222D01*
X98358296Y-125208754D01*
X98257133Y-125284572D01*
X98244572Y-125297133D01*
X98168754Y-125398296D01*
X98160222Y-125413882D01*
X98115467Y-125533265D01*
X98111842Y-125548510D01*
X98106369Y-125598892D01*
X98106000Y-125605706D01*
X98106000Y-125829885D01*
X97171575Y-125829885D01*
X97177338Y-125790140D01*
X97177338Y-125790137D01*
X97178199Y-125784200D01*
X97168455Y-125573667D01*
X97153647Y-125512220D01*
X97120482Y-125374607D01*
X97120481Y-125374605D01*
X97119076Y-125368774D01*
X97080792Y-125284572D01*
X97046319Y-125208754D01*
X97031843Y-125176916D01*
X96909904Y-125005014D01*
X96757660Y-124859272D01*
X96655918Y-124793578D01*
X96585640Y-124748200D01*
X96585637Y-124748199D01*
X96580603Y-124744948D01*
X96385122Y-124666166D01*
X96235311Y-124636910D01*
X96182717Y-124626639D01*
X96182714Y-124626639D01*
X96178271Y-124625771D01*
X96172730Y-124625500D01*
X95177341Y-124625500D01*
X95020194Y-124640493D01*
X95014434Y-124642183D01*
X95014433Y-124642183D01*
X94941689Y-124663524D01*
X94817958Y-124699823D01*
X94812619Y-124702573D01*
X94635921Y-124793578D01*
X94635918Y-124793580D01*
X94630590Y-124796324D01*
X94625875Y-124800028D01*
X94469568Y-124922808D01*
X94469564Y-124922812D01*
X94464851Y-124926514D01*
X94460920Y-124931044D01*
X94460919Y-124931045D01*
X94330650Y-125081165D01*
X94330646Y-125081170D01*
X94326719Y-125085696D01*
X94221181Y-125268126D01*
X94152043Y-125467222D01*
X94151183Y-125473155D01*
X94151182Y-125473158D01*
X94129373Y-125623576D01*
X94121801Y-125675800D01*
X93833182Y-125675800D01*
X93828455Y-125573667D01*
X93813647Y-125512220D01*
X93780482Y-125374607D01*
X93780481Y-125374605D01*
X93779076Y-125368774D01*
X93740792Y-125284572D01*
X93706319Y-125208754D01*
X93691843Y-125176916D01*
X93569904Y-125005014D01*
X93417660Y-124859272D01*
X93315918Y-124793578D01*
X93245640Y-124748200D01*
X93245637Y-124748199D01*
X93240603Y-124744948D01*
X93045122Y-124666166D01*
X92895311Y-124636910D01*
X92842717Y-124626639D01*
X92842714Y-124626639D01*
X92838271Y-124625771D01*
X92832730Y-124625500D01*
X91837341Y-124625500D01*
X91680194Y-124640493D01*
X91674434Y-124642183D01*
X91674433Y-124642183D01*
X91601689Y-124663524D01*
X91477958Y-124699823D01*
X91472619Y-124702573D01*
X91295921Y-124793578D01*
X91295918Y-124793580D01*
X91290590Y-124796324D01*
X91210454Y-124859272D01*
X91136333Y-124917495D01*
X91070408Y-124943845D01*
X91000702Y-124930370D01*
X90949346Y-124881349D01*
X90932500Y-124818409D01*
X90932500Y-124097459D01*
X90952502Y-124029338D01*
X91006158Y-123982845D01*
X91076432Y-123972741D01*
X91145631Y-124006441D01*
X91202340Y-124060728D01*
X91207375Y-124063979D01*
X91374360Y-124171800D01*
X91374363Y-124171801D01*
X91379397Y-124175052D01*
X91574878Y-124253834D01*
X91697688Y-124277817D01*
X91777283Y-124293361D01*
X91777286Y-124293361D01*
X91781729Y-124294229D01*
X91787270Y-124294500D01*
X92782659Y-124294500D01*
X92939806Y-124279507D01*
X93142042Y-124220177D01*
X93225304Y-124177294D01*
X93324079Y-124126422D01*
X93324082Y-124126420D01*
X93329410Y-124123676D01*
X93405408Y-124063979D01*
X93490432Y-123997192D01*
X93490436Y-123997188D01*
X93495149Y-123993486D01*
X93559674Y-123919128D01*
X93629350Y-123838835D01*
X93629354Y-123838830D01*
X93633281Y-123834304D01*
X93738819Y-123651874D01*
X93807957Y-123452778D01*
X93838199Y-123244200D01*
X93833182Y-123135800D01*
X94121801Y-123135800D01*
X94131545Y-123346333D01*
X94180924Y-123551226D01*
X94268157Y-123743084D01*
X94390096Y-123914986D01*
X94542340Y-124060728D01*
X94547375Y-124063979D01*
X94714360Y-124171800D01*
X94714363Y-124171801D01*
X94719397Y-124175052D01*
X94914878Y-124253834D01*
X95037688Y-124277817D01*
X95117283Y-124293361D01*
X95117286Y-124293361D01*
X95121729Y-124294229D01*
X95127270Y-124294500D01*
X96122659Y-124294500D01*
X96279806Y-124279507D01*
X96482042Y-124220177D01*
X96565304Y-124177294D01*
X96664079Y-124126422D01*
X96664082Y-124126420D01*
X96669410Y-124123676D01*
X96745408Y-124063979D01*
X96830432Y-123997192D01*
X96830436Y-123997188D01*
X96835149Y-123993486D01*
X96899674Y-123919128D01*
X96969350Y-123838835D01*
X96969354Y-123838830D01*
X96973281Y-123834304D01*
X97078819Y-123651874D01*
X97147957Y-123452778D01*
X97178199Y-123244200D01*
X97168455Y-123033667D01*
X97144233Y-122933158D01*
X97120482Y-122834607D01*
X97120481Y-122834605D01*
X97119076Y-122828774D01*
X97031843Y-122636916D01*
X96909904Y-122465014D01*
X96757660Y-122319272D01*
X96655918Y-122253578D01*
X96585640Y-122208200D01*
X96585637Y-122208199D01*
X96580603Y-122204948D01*
X96385122Y-122126166D01*
X96250739Y-122099923D01*
X96182717Y-122086639D01*
X96182714Y-122086639D01*
X96178271Y-122085771D01*
X96172730Y-122085500D01*
X95177341Y-122085500D01*
X95020194Y-122100493D01*
X95014434Y-122102183D01*
X95014433Y-122102183D01*
X94963232Y-122117204D01*
X94817958Y-122159823D01*
X94812619Y-122162573D01*
X94635921Y-122253578D01*
X94635918Y-122253580D01*
X94630590Y-122256324D01*
X94602475Y-122278409D01*
X94469568Y-122382808D01*
X94469564Y-122382812D01*
X94464851Y-122386514D01*
X94460920Y-122391044D01*
X94460919Y-122391045D01*
X94330650Y-122541165D01*
X94330646Y-122541170D01*
X94326719Y-122545696D01*
X94221181Y-122728126D01*
X94152043Y-122927222D01*
X94121801Y-123135800D01*
X93833182Y-123135800D01*
X93828455Y-123033667D01*
X93804233Y-122933158D01*
X93780482Y-122834607D01*
X93780481Y-122834605D01*
X93779076Y-122828774D01*
X93691843Y-122636916D01*
X93569904Y-122465014D01*
X93417660Y-122319272D01*
X93315918Y-122253578D01*
X93245640Y-122208200D01*
X93245637Y-122208199D01*
X93240603Y-122204948D01*
X93045122Y-122126166D01*
X92910739Y-122099923D01*
X92842717Y-122086639D01*
X92842714Y-122086639D01*
X92838271Y-122085771D01*
X92832730Y-122085500D01*
X91837341Y-122085500D01*
X91680194Y-122100493D01*
X91674434Y-122102183D01*
X91674433Y-122102183D01*
X91623232Y-122117204D01*
X91477958Y-122159823D01*
X91472619Y-122162573D01*
X91295921Y-122253578D01*
X91295918Y-122253580D01*
X91290590Y-122256324D01*
X91207521Y-122321576D01*
X91136333Y-122377495D01*
X91070408Y-122403845D01*
X91000702Y-122390370D01*
X90949346Y-122341349D01*
X90932500Y-122278409D01*
X90932500Y-121557459D01*
X90952502Y-121489338D01*
X91006158Y-121442845D01*
X91076432Y-121432741D01*
X91145631Y-121466441D01*
X91202340Y-121520728D01*
X91207375Y-121523979D01*
X91374360Y-121631800D01*
X91374363Y-121631801D01*
X91379397Y-121635052D01*
X91574878Y-121713834D01*
X91697688Y-121737817D01*
X91777283Y-121753361D01*
X91777286Y-121753361D01*
X91781729Y-121754229D01*
X91787270Y-121754500D01*
X92782659Y-121754500D01*
X92939806Y-121739507D01*
X93142042Y-121680177D01*
X93225304Y-121637294D01*
X93324079Y-121586422D01*
X93324082Y-121586420D01*
X93329410Y-121583676D01*
X93405408Y-121523979D01*
X93490432Y-121457192D01*
X93490436Y-121457188D01*
X93495149Y-121453486D01*
X93559674Y-121379128D01*
X93629350Y-121298835D01*
X93629354Y-121298830D01*
X93633281Y-121294304D01*
X93738819Y-121111874D01*
X93807957Y-120912778D01*
X93812553Y-120881085D01*
X93837338Y-120710140D01*
X93837338Y-120710137D01*
X93838199Y-120704200D01*
X93833182Y-120595800D01*
X94121801Y-120595800D01*
X94131545Y-120806333D01*
X94180924Y-121011226D01*
X94183406Y-121016684D01*
X94183407Y-121016688D01*
X94223106Y-121104000D01*
X94268157Y-121203084D01*
X94390096Y-121374986D01*
X94542340Y-121520728D01*
X94547375Y-121523979D01*
X94714360Y-121631800D01*
X94714363Y-121631801D01*
X94719397Y-121635052D01*
X94914878Y-121713834D01*
X95037688Y-121737817D01*
X95117283Y-121753361D01*
X95117286Y-121753361D01*
X95121729Y-121754229D01*
X95127270Y-121754500D01*
X96122659Y-121754500D01*
X96279806Y-121739507D01*
X96482042Y-121680177D01*
X96565304Y-121637294D01*
X96664079Y-121586422D01*
X96664082Y-121586420D01*
X96669410Y-121583676D01*
X96745408Y-121523979D01*
X96830432Y-121457192D01*
X96830436Y-121457188D01*
X96835149Y-121453486D01*
X96899674Y-121379128D01*
X96969350Y-121298835D01*
X96969354Y-121298830D01*
X96973281Y-121294304D01*
X97078819Y-121111874D01*
X97147957Y-120912778D01*
X97152553Y-120881085D01*
X97177338Y-120710140D01*
X97177338Y-120710137D01*
X97178199Y-120704200D01*
X97168455Y-120493667D01*
X97167003Y-120487640D01*
X97120482Y-120294607D01*
X97120481Y-120294605D01*
X97119076Y-120288774D01*
X97031843Y-120096916D01*
X96909904Y-119925014D01*
X96757660Y-119779272D01*
X96665907Y-119720028D01*
X96585640Y-119668200D01*
X96585637Y-119668199D01*
X96580603Y-119664948D01*
X96385122Y-119586166D01*
X96250739Y-119559923D01*
X96182717Y-119546639D01*
X96182714Y-119546639D01*
X96178271Y-119545771D01*
X96172730Y-119545500D01*
X95177341Y-119545500D01*
X95020194Y-119560493D01*
X95014434Y-119562183D01*
X95014433Y-119562183D01*
X94965822Y-119576444D01*
X94817958Y-119619823D01*
X94812619Y-119622573D01*
X94635921Y-119713578D01*
X94635918Y-119713580D01*
X94630590Y-119716324D01*
X94622091Y-119723000D01*
X94469568Y-119842808D01*
X94469564Y-119842812D01*
X94464851Y-119846514D01*
X94460920Y-119851044D01*
X94460919Y-119851045D01*
X94330650Y-120001165D01*
X94330646Y-120001170D01*
X94326719Y-120005696D01*
X94221181Y-120188126D01*
X94152043Y-120387222D01*
X94151183Y-120393155D01*
X94151182Y-120393158D01*
X94129373Y-120543576D01*
X94121801Y-120595800D01*
X93833182Y-120595800D01*
X93828455Y-120493667D01*
X93827003Y-120487640D01*
X93780482Y-120294607D01*
X93780481Y-120294605D01*
X93779076Y-120288774D01*
X93691843Y-120096916D01*
X93569904Y-119925014D01*
X93417660Y-119779272D01*
X93325907Y-119720028D01*
X93245640Y-119668200D01*
X93245637Y-119668199D01*
X93240603Y-119664948D01*
X93045122Y-119586166D01*
X92910739Y-119559923D01*
X92842717Y-119546639D01*
X92842714Y-119546639D01*
X92838271Y-119545771D01*
X92832730Y-119545500D01*
X91837341Y-119545500D01*
X91680194Y-119560493D01*
X91674434Y-119562183D01*
X91674433Y-119562183D01*
X91625822Y-119576444D01*
X91477958Y-119619823D01*
X91472619Y-119622573D01*
X91295921Y-119713578D01*
X91295918Y-119713580D01*
X91290590Y-119716324D01*
X91210454Y-119779272D01*
X91136333Y-119837495D01*
X91070408Y-119863845D01*
X91000702Y-119850370D01*
X90949346Y-119801349D01*
X90932500Y-119738409D01*
X90932500Y-118998500D01*
X90952502Y-118930379D01*
X91006158Y-118883886D01*
X91058500Y-118872500D01*
X103049500Y-118872500D01*
X103117621Y-118892502D01*
G37*
G04 #@! TD.AperFunction*
G04 #@! TD*
M02*
