G04 #@! TF.GenerationSoftware,KiCad,Pcbnew,6.0.8-f2edbf62ab~116~ubuntu22.04.1*
G04 #@! TF.CreationDate,2022-11-21T14:05:37-08:00*
G04 #@! TF.ProjectId,pmod-button,706d6f64-2d62-4757-9474-6f6e2e6b6963,rev?*
G04 #@! TF.SameCoordinates,Original*
G04 #@! TF.FileFunction,Legend,Bot*
G04 #@! TF.FilePolarity,Positive*
%FSLAX46Y46*%
G04 Gerber Fmt 4.6, Leading zero omitted, Abs format (unit mm)*
G04 Created by KiCad (PCBNEW 6.0.8-f2edbf62ab~116~ubuntu22.04.1) date 2022-11-21 14:05:37*
%MOMM*%
%LPD*%
G01*
G04 APERTURE LIST*
%ADD10C,0.300000*%
%ADD11C,0.150000*%
%ADD12C,0.120000*%
G04 APERTURE END LIST*
D10*
X176796666Y-132032380D02*
X176891904Y-131937142D01*
X177082380Y-131841904D01*
X177272857Y-131841904D01*
X177463333Y-131937142D01*
X177558571Y-132032380D01*
X177653809Y-132222857D01*
X177653809Y-132413333D01*
X177558571Y-132603809D01*
X177463333Y-132699047D01*
X177272857Y-132794285D01*
X177082380Y-132794285D01*
X176891904Y-132699047D01*
X176796666Y-132603809D01*
X176796666Y-131841904D02*
X176796666Y-132603809D01*
X176701428Y-132699047D01*
X176606190Y-132699047D01*
X176415714Y-132603809D01*
X176320476Y-132413333D01*
X176320476Y-131937142D01*
X176510952Y-131651428D01*
X176796666Y-131460952D01*
X177177619Y-131365714D01*
X177558571Y-131460952D01*
X177844285Y-131651428D01*
X178034761Y-131937142D01*
X178130000Y-132318095D01*
X178034761Y-132699047D01*
X177844285Y-132984761D01*
X177558571Y-133175238D01*
X177177619Y-133270476D01*
X176796666Y-133175238D01*
X176510952Y-132984761D01*
X175749047Y-130984761D02*
X174606190Y-130984761D01*
X175177619Y-132984761D02*
X175177619Y-130984761D01*
X173653809Y-132984761D02*
X173844285Y-132889523D01*
X173939523Y-132794285D01*
X174034761Y-132603809D01*
X174034761Y-132032380D01*
X173939523Y-131841904D01*
X173844285Y-131746666D01*
X173653809Y-131651428D01*
X173368095Y-131651428D01*
X173177619Y-131746666D01*
X173082380Y-131841904D01*
X172987142Y-132032380D01*
X172987142Y-132603809D01*
X173082380Y-132794285D01*
X173177619Y-132889523D01*
X173368095Y-132984761D01*
X173653809Y-132984761D01*
X172130000Y-132984761D02*
X172130000Y-131651428D01*
X172130000Y-131841904D02*
X172034761Y-131746666D01*
X171844285Y-131651428D01*
X171558571Y-131651428D01*
X171368095Y-131746666D01*
X171272857Y-131937142D01*
X171272857Y-132984761D01*
X171272857Y-131937142D02*
X171177619Y-131746666D01*
X170987142Y-131651428D01*
X170701428Y-131651428D01*
X170510952Y-131746666D01*
X170415714Y-131937142D01*
X170415714Y-132984761D01*
X169463333Y-132984761D02*
X169463333Y-130984761D01*
X168320476Y-132984761D02*
X169177619Y-131841904D01*
X168320476Y-130984761D02*
X169463333Y-132127619D01*
X166701428Y-132889523D02*
X166891904Y-132984761D01*
X167272857Y-132984761D01*
X167463333Y-132889523D01*
X167558571Y-132699047D01*
X167558571Y-131937142D01*
X167463333Y-131746666D01*
X167272857Y-131651428D01*
X166891904Y-131651428D01*
X166701428Y-131746666D01*
X166606190Y-131937142D01*
X166606190Y-132127619D01*
X167558571Y-132318095D01*
X164891904Y-132984761D02*
X164891904Y-130984761D01*
X164891904Y-132889523D02*
X165082380Y-132984761D01*
X165463333Y-132984761D01*
X165653809Y-132889523D01*
X165749047Y-132794285D01*
X165844285Y-132603809D01*
X165844285Y-132032380D01*
X165749047Y-131841904D01*
X165653809Y-131746666D01*
X165463333Y-131651428D01*
X165082380Y-131651428D01*
X164891904Y-131746666D01*
X163082380Y-132984761D02*
X163082380Y-130984761D01*
X163082380Y-132889523D02*
X163272857Y-132984761D01*
X163653809Y-132984761D01*
X163844285Y-132889523D01*
X163939523Y-132794285D01*
X164034761Y-132603809D01*
X164034761Y-132032380D01*
X163939523Y-131841904D01*
X163844285Y-131746666D01*
X163653809Y-131651428D01*
X163272857Y-131651428D01*
X163082380Y-131746666D01*
X162130000Y-132984761D02*
X162130000Y-131651428D01*
X162130000Y-130984761D02*
X162225238Y-131080000D01*
X162130000Y-131175238D01*
X162034761Y-131080000D01*
X162130000Y-130984761D01*
X162130000Y-131175238D01*
X160415714Y-132889523D02*
X160606190Y-132984761D01*
X160987142Y-132984761D01*
X161177619Y-132889523D01*
X161272857Y-132699047D01*
X161272857Y-131937142D01*
X161177619Y-131746666D01*
X160987142Y-131651428D01*
X160606190Y-131651428D01*
X160415714Y-131746666D01*
X160320476Y-131937142D01*
X160320476Y-132127619D01*
X161272857Y-132318095D01*
X157939523Y-131651428D02*
X157939523Y-133651428D01*
X157939523Y-131746666D02*
X157749047Y-131651428D01*
X157368095Y-131651428D01*
X157177619Y-131746666D01*
X157082380Y-131841904D01*
X156987142Y-132032380D01*
X156987142Y-132603809D01*
X157082380Y-132794285D01*
X157177619Y-132889523D01*
X157368095Y-132984761D01*
X157749047Y-132984761D01*
X157939523Y-132889523D01*
X156130000Y-132984761D02*
X156130000Y-131651428D01*
X156130000Y-131841904D02*
X156034761Y-131746666D01*
X155844285Y-131651428D01*
X155558571Y-131651428D01*
X155368095Y-131746666D01*
X155272857Y-131937142D01*
X155272857Y-132984761D01*
X155272857Y-131937142D02*
X155177619Y-131746666D01*
X154987142Y-131651428D01*
X154701428Y-131651428D01*
X154510952Y-131746666D01*
X154415714Y-131937142D01*
X154415714Y-132984761D01*
X153177619Y-132984761D02*
X153368095Y-132889523D01*
X153463333Y-132794285D01*
X153558571Y-132603809D01*
X153558571Y-132032380D01*
X153463333Y-131841904D01*
X153368095Y-131746666D01*
X153177619Y-131651428D01*
X152891904Y-131651428D01*
X152701428Y-131746666D01*
X152606190Y-131841904D01*
X152510952Y-132032380D01*
X152510952Y-132603809D01*
X152606190Y-132794285D01*
X152701428Y-132889523D01*
X152891904Y-132984761D01*
X153177619Y-132984761D01*
X150796666Y-132984761D02*
X150796666Y-130984761D01*
X150796666Y-132889523D02*
X150987142Y-132984761D01*
X151368095Y-132984761D01*
X151558571Y-132889523D01*
X151653809Y-132794285D01*
X151749047Y-132603809D01*
X151749047Y-132032380D01*
X151653809Y-131841904D01*
X151558571Y-131746666D01*
X151368095Y-131651428D01*
X150987142Y-131651428D01*
X150796666Y-131746666D01*
X149844285Y-132222857D02*
X148320476Y-132222857D01*
X147368095Y-132984761D02*
X147368095Y-130984761D01*
X147368095Y-131746666D02*
X147177619Y-131651428D01*
X146796666Y-131651428D01*
X146606190Y-131746666D01*
X146510952Y-131841904D01*
X146415714Y-132032380D01*
X146415714Y-132603809D01*
X146510952Y-132794285D01*
X146606190Y-132889523D01*
X146796666Y-132984761D01*
X147177619Y-132984761D01*
X147368095Y-132889523D01*
X144701428Y-131651428D02*
X144701428Y-132984761D01*
X145558571Y-131651428D02*
X145558571Y-132699047D01*
X145463333Y-132889523D01*
X145272857Y-132984761D01*
X144987142Y-132984761D01*
X144796666Y-132889523D01*
X144701428Y-132794285D01*
X144034761Y-131651428D02*
X143272857Y-131651428D01*
X143749047Y-130984761D02*
X143749047Y-132699047D01*
X143653809Y-132889523D01*
X143463333Y-132984761D01*
X143272857Y-132984761D01*
X142891904Y-131651428D02*
X142130000Y-131651428D01*
X142606190Y-130984761D02*
X142606190Y-132699047D01*
X142510952Y-132889523D01*
X142320476Y-132984761D01*
X142130000Y-132984761D01*
X141177619Y-132984761D02*
X141368095Y-132889523D01*
X141463333Y-132794285D01*
X141558571Y-132603809D01*
X141558571Y-132032380D01*
X141463333Y-131841904D01*
X141368095Y-131746666D01*
X141177619Y-131651428D01*
X140891904Y-131651428D01*
X140701428Y-131746666D01*
X140606190Y-131841904D01*
X140510952Y-132032380D01*
X140510952Y-132603809D01*
X140606190Y-132794285D01*
X140701428Y-132889523D01*
X140891904Y-132984761D01*
X141177619Y-132984761D01*
X139653809Y-131651428D02*
X139653809Y-132984761D01*
X139653809Y-131841904D02*
X139558571Y-131746666D01*
X139368095Y-131651428D01*
X139082380Y-131651428D01*
X138891904Y-131746666D01*
X138796666Y-131937142D01*
X138796666Y-132984761D01*
X136320476Y-132984761D02*
X136320476Y-130984761D01*
X135177619Y-132984761D01*
X135177619Y-130984761D01*
X133939523Y-132984761D02*
X134130000Y-132889523D01*
X134225238Y-132794285D01*
X134320476Y-132603809D01*
X134320476Y-132032380D01*
X134225238Y-131841904D01*
X134130000Y-131746666D01*
X133939523Y-131651428D01*
X133653809Y-131651428D01*
X133463333Y-131746666D01*
X133368095Y-131841904D01*
X133272857Y-132032380D01*
X133272857Y-132603809D01*
X133368095Y-132794285D01*
X133463333Y-132889523D01*
X133653809Y-132984761D01*
X133939523Y-132984761D01*
X132606190Y-131651428D02*
X132130000Y-132984761D01*
X131653809Y-131651428D01*
X130987142Y-131175238D02*
X130891904Y-131080000D01*
X130701428Y-130984761D01*
X130225238Y-130984761D01*
X130034761Y-131080000D01*
X129939523Y-131175238D01*
X129844285Y-131365714D01*
X129844285Y-131556190D01*
X129939523Y-131841904D01*
X131082380Y-132984761D01*
X129844285Y-132984761D01*
X128606190Y-130984761D02*
X128415714Y-130984761D01*
X128225238Y-131080000D01*
X128130000Y-131175238D01*
X128034761Y-131365714D01*
X127939523Y-131746666D01*
X127939523Y-132222857D01*
X128034761Y-132603809D01*
X128130000Y-132794285D01*
X128225238Y-132889523D01*
X128415714Y-132984761D01*
X128606190Y-132984761D01*
X128796666Y-132889523D01*
X128891904Y-132794285D01*
X128987142Y-132603809D01*
X129082380Y-132222857D01*
X129082380Y-131746666D01*
X128987142Y-131365714D01*
X128891904Y-131175238D01*
X128796666Y-131080000D01*
X128606190Y-130984761D01*
X127177619Y-131175238D02*
X127082380Y-131080000D01*
X126891904Y-130984761D01*
X126415714Y-130984761D01*
X126225238Y-131080000D01*
X126130000Y-131175238D01*
X126034761Y-131365714D01*
X126034761Y-131556190D01*
X126130000Y-131841904D01*
X127272857Y-132984761D01*
X126034761Y-132984761D01*
X125272857Y-131175238D02*
X125177619Y-131080000D01*
X124987142Y-130984761D01*
X124510952Y-130984761D01*
X124320476Y-131080000D01*
X124225238Y-131175238D01*
X124130000Y-131365714D01*
X124130000Y-131556190D01*
X124225238Y-131841904D01*
X125368095Y-132984761D01*
X124130000Y-132984761D01*
D11*
G04 #@! TO.C,R6*
X132246666Y-125802380D02*
X132580000Y-125326190D01*
X132818095Y-125802380D02*
X132818095Y-124802380D01*
X132437142Y-124802380D01*
X132341904Y-124850000D01*
X132294285Y-124897619D01*
X132246666Y-124992857D01*
X132246666Y-125135714D01*
X132294285Y-125230952D01*
X132341904Y-125278571D01*
X132437142Y-125326190D01*
X132818095Y-125326190D01*
X131389523Y-124802380D02*
X131580000Y-124802380D01*
X131675238Y-124850000D01*
X131722857Y-124897619D01*
X131818095Y-125040476D01*
X131865714Y-125230952D01*
X131865714Y-125611904D01*
X131818095Y-125707142D01*
X131770476Y-125754761D01*
X131675238Y-125802380D01*
X131484761Y-125802380D01*
X131389523Y-125754761D01*
X131341904Y-125707142D01*
X131294285Y-125611904D01*
X131294285Y-125373809D01*
X131341904Y-125278571D01*
X131389523Y-125230952D01*
X131484761Y-125183333D01*
X131675238Y-125183333D01*
X131770476Y-125230952D01*
X131818095Y-125278571D01*
X131865714Y-125373809D01*
G04 #@! TO.C,R8*
X106846666Y-125802380D02*
X107180000Y-125326190D01*
X107418095Y-125802380D02*
X107418095Y-124802380D01*
X107037142Y-124802380D01*
X106941904Y-124850000D01*
X106894285Y-124897619D01*
X106846666Y-124992857D01*
X106846666Y-125135714D01*
X106894285Y-125230952D01*
X106941904Y-125278571D01*
X107037142Y-125326190D01*
X107418095Y-125326190D01*
X106275238Y-125230952D02*
X106370476Y-125183333D01*
X106418095Y-125135714D01*
X106465714Y-125040476D01*
X106465714Y-124992857D01*
X106418095Y-124897619D01*
X106370476Y-124850000D01*
X106275238Y-124802380D01*
X106084761Y-124802380D01*
X105989523Y-124850000D01*
X105941904Y-124897619D01*
X105894285Y-124992857D01*
X105894285Y-125040476D01*
X105941904Y-125135714D01*
X105989523Y-125183333D01*
X106084761Y-125230952D01*
X106275238Y-125230952D01*
X106370476Y-125278571D01*
X106418095Y-125326190D01*
X106465714Y-125421428D01*
X106465714Y-125611904D01*
X106418095Y-125707142D01*
X106370476Y-125754761D01*
X106275238Y-125802380D01*
X106084761Y-125802380D01*
X105989523Y-125754761D01*
X105941904Y-125707142D01*
X105894285Y-125611904D01*
X105894285Y-125421428D01*
X105941904Y-125326190D01*
X105989523Y-125278571D01*
X106084761Y-125230952D01*
G04 #@! TO.C,R7*
X119546666Y-125802380D02*
X119880000Y-125326190D01*
X120118095Y-125802380D02*
X120118095Y-124802380D01*
X119737142Y-124802380D01*
X119641904Y-124850000D01*
X119594285Y-124897619D01*
X119546666Y-124992857D01*
X119546666Y-125135714D01*
X119594285Y-125230952D01*
X119641904Y-125278571D01*
X119737142Y-125326190D01*
X120118095Y-125326190D01*
X119213333Y-124802380D02*
X118546666Y-124802380D01*
X118975238Y-125802380D01*
G04 #@! TO.C,R2*
X183046666Y-125802380D02*
X183380000Y-125326190D01*
X183618095Y-125802380D02*
X183618095Y-124802380D01*
X183237142Y-124802380D01*
X183141904Y-124850000D01*
X183094285Y-124897619D01*
X183046666Y-124992857D01*
X183046666Y-125135714D01*
X183094285Y-125230952D01*
X183141904Y-125278571D01*
X183237142Y-125326190D01*
X183618095Y-125326190D01*
X182665714Y-124897619D02*
X182618095Y-124850000D01*
X182522857Y-124802380D01*
X182284761Y-124802380D01*
X182189523Y-124850000D01*
X182141904Y-124897619D01*
X182094285Y-124992857D01*
X182094285Y-125088095D01*
X182141904Y-125230952D01*
X182713333Y-125802380D01*
X182094285Y-125802380D01*
G04 #@! TO.C,R5*
X144946666Y-125802380D02*
X145280000Y-125326190D01*
X145518095Y-125802380D02*
X145518095Y-124802380D01*
X145137142Y-124802380D01*
X145041904Y-124850000D01*
X144994285Y-124897619D01*
X144946666Y-124992857D01*
X144946666Y-125135714D01*
X144994285Y-125230952D01*
X145041904Y-125278571D01*
X145137142Y-125326190D01*
X145518095Y-125326190D01*
X144041904Y-124802380D02*
X144518095Y-124802380D01*
X144565714Y-125278571D01*
X144518095Y-125230952D01*
X144422857Y-125183333D01*
X144184761Y-125183333D01*
X144089523Y-125230952D01*
X144041904Y-125278571D01*
X143994285Y-125373809D01*
X143994285Y-125611904D01*
X144041904Y-125707142D01*
X144089523Y-125754761D01*
X144184761Y-125802380D01*
X144422857Y-125802380D01*
X144518095Y-125754761D01*
X144565714Y-125707142D01*
G04 #@! TO.C,R1*
X195746666Y-125802380D02*
X196080000Y-125326190D01*
X196318095Y-125802380D02*
X196318095Y-124802380D01*
X195937142Y-124802380D01*
X195841904Y-124850000D01*
X195794285Y-124897619D01*
X195746666Y-124992857D01*
X195746666Y-125135714D01*
X195794285Y-125230952D01*
X195841904Y-125278571D01*
X195937142Y-125326190D01*
X196318095Y-125326190D01*
X194794285Y-125802380D02*
X195365714Y-125802380D01*
X195080000Y-125802380D02*
X195080000Y-124802380D01*
X195175238Y-124945238D01*
X195270476Y-125040476D01*
X195365714Y-125088095D01*
G04 #@! TO.C,R3*
X170346666Y-125802380D02*
X170680000Y-125326190D01*
X170918095Y-125802380D02*
X170918095Y-124802380D01*
X170537142Y-124802380D01*
X170441904Y-124850000D01*
X170394285Y-124897619D01*
X170346666Y-124992857D01*
X170346666Y-125135714D01*
X170394285Y-125230952D01*
X170441904Y-125278571D01*
X170537142Y-125326190D01*
X170918095Y-125326190D01*
X170013333Y-124802380D02*
X169394285Y-124802380D01*
X169727619Y-125183333D01*
X169584761Y-125183333D01*
X169489523Y-125230952D01*
X169441904Y-125278571D01*
X169394285Y-125373809D01*
X169394285Y-125611904D01*
X169441904Y-125707142D01*
X169489523Y-125754761D01*
X169584761Y-125802380D01*
X169870476Y-125802380D01*
X169965714Y-125754761D01*
X170013333Y-125707142D01*
G04 #@! TO.C,R4*
X157646666Y-125802380D02*
X157980000Y-125326190D01*
X158218095Y-125802380D02*
X158218095Y-124802380D01*
X157837142Y-124802380D01*
X157741904Y-124850000D01*
X157694285Y-124897619D01*
X157646666Y-124992857D01*
X157646666Y-125135714D01*
X157694285Y-125230952D01*
X157741904Y-125278571D01*
X157837142Y-125326190D01*
X158218095Y-125326190D01*
X156789523Y-125135714D02*
X156789523Y-125802380D01*
X157027619Y-124754761D02*
X157265714Y-125469047D01*
X156646666Y-125469047D01*
D12*
G04 #@! TO.C,R6*
X132341252Y-127710000D02*
X131818748Y-127710000D01*
X132341252Y-126290000D02*
X131818748Y-126290000D01*
G04 #@! TO.C,R8*
X106941252Y-126290000D02*
X106418748Y-126290000D01*
X106941252Y-127710000D02*
X106418748Y-127710000D01*
G04 #@! TO.C,R7*
X119641252Y-126290000D02*
X119118748Y-126290000D01*
X119641252Y-127710000D02*
X119118748Y-127710000D01*
G04 #@! TO.C,R2*
X183141252Y-126290000D02*
X182618748Y-126290000D01*
X183141252Y-127710000D02*
X182618748Y-127710000D01*
G04 #@! TO.C,R5*
X145041252Y-127710000D02*
X144518748Y-127710000D01*
X145041252Y-126290000D02*
X144518748Y-126290000D01*
G04 #@! TO.C,R1*
X195841252Y-127710000D02*
X195318748Y-127710000D01*
X195841252Y-126290000D02*
X195318748Y-126290000D01*
G04 #@! TO.C,R3*
X170441252Y-127710000D02*
X169918748Y-127710000D01*
X170441252Y-126290000D02*
X169918748Y-126290000D01*
G04 #@! TO.C,R4*
X157741252Y-126290000D02*
X157218748Y-126290000D01*
X157741252Y-127710000D02*
X157218748Y-127710000D01*
G04 #@! TD*
M02*
