G04 #@! TF.GenerationSoftware,KiCad,Pcbnew,6.0.8-f2edbf62ab~116~ubuntu22.04.1*
G04 #@! TF.CreationDate,2022-11-21T14:05:37-08:00*
G04 #@! TF.ProjectId,pmod-button,706d6f64-2d62-4757-9474-6f6e2e6b6963,rev?*
G04 #@! TF.SameCoordinates,Original*
G04 #@! TF.FileFunction,Copper,L2,Bot*
G04 #@! TF.FilePolarity,Positive*
%FSLAX46Y46*%
G04 Gerber Fmt 4.6, Leading zero omitted, Abs format (unit mm)*
G04 Created by KiCad (PCBNEW 6.0.8-f2edbf62ab~116~ubuntu22.04.1) date 2022-11-21 14:05:37*
%MOMM*%
%LPD*%
G01*
G04 APERTURE LIST*
G04 Aperture macros list*
%AMRoundRect*
0 Rectangle with rounded corners*
0 $1 Rounding radius*
0 $2 $3 $4 $5 $6 $7 $8 $9 X,Y pos of 4 corners*
0 Add a 4 corners polygon primitive as box body*
4,1,4,$2,$3,$4,$5,$6,$7,$8,$9,$2,$3,0*
0 Add four circle primitives for the rounded corners*
1,1,$1+$1,$2,$3*
1,1,$1+$1,$4,$5*
1,1,$1+$1,$6,$7*
1,1,$1+$1,$8,$9*
0 Add four rect primitives between the rounded corners*
20,1,$1+$1,$2,$3,$4,$5,0*
20,1,$1+$1,$4,$5,$6,$7,0*
20,1,$1+$1,$6,$7,$8,$9,0*
20,1,$1+$1,$8,$9,$2,$3,0*%
G04 Aperture macros list end*
G04 #@! TA.AperFunction,ComponentPad*
%ADD10O,2.540000X1.700000*%
G04 #@! TD*
G04 #@! TA.AperFunction,SMDPad,CuDef*
%ADD11RoundRect,0.250000X0.325000X0.450000X-0.325000X0.450000X-0.325000X-0.450000X0.325000X-0.450000X0*%
G04 #@! TD*
G04 #@! TA.AperFunction,ViaPad*
%ADD12C,0.800000*%
G04 #@! TD*
G04 #@! TA.AperFunction,Conductor*
%ADD13C,0.500000*%
G04 #@! TD*
G04 #@! TA.AperFunction,Conductor*
%ADD14C,0.250000*%
G04 #@! TD*
G04 APERTURE END LIST*
D10*
G04 #@! TO.P,J1,1,D0*
G04 #@! TO.N,/D0*
X95650000Y-120650000D03*
G04 #@! TO.P,J1,2,D1*
G04 #@! TO.N,/D1*
X95650000Y-123190000D03*
G04 #@! TO.P,J1,3,D2*
G04 #@! TO.N,/D2*
X95650000Y-125730000D03*
G04 #@! TO.P,J1,4,D3*
G04 #@! TO.N,/D3*
X95650000Y-128270000D03*
G04 #@! TO.P,J1,5,GND1*
G04 #@! TO.N,GND*
X95650000Y-130810000D03*
G04 #@! TO.P,J1,6,VCC1*
G04 #@! TO.N,+3V3*
X95650000Y-133350000D03*
G04 #@! TO.P,J1,7,D4*
G04 #@! TO.N,/D4*
X92310000Y-120650000D03*
G04 #@! TO.P,J1,8,D5*
G04 #@! TO.N,/D5*
X92310000Y-123190000D03*
G04 #@! TO.P,J1,9,D6*
G04 #@! TO.N,/D6*
X92310000Y-125730000D03*
G04 #@! TO.P,J1,10,D7*
G04 #@! TO.N,/D7*
X92310000Y-128270000D03*
G04 #@! TO.P,J1,11,GND2*
G04 #@! TO.N,GND*
X92310000Y-130810000D03*
G04 #@! TO.P,J1,12,VCC2*
G04 #@! TO.N,+3V3*
X92310000Y-133350000D03*
G04 #@! TD*
D11*
G04 #@! TO.P,R6,1*
G04 #@! TO.N,+3V3*
X133105000Y-127000000D03*
G04 #@! TO.P,R6,2*
G04 #@! TO.N,/D5*
X131055000Y-127000000D03*
G04 #@! TD*
G04 #@! TO.P,R8,1*
G04 #@! TO.N,+3V3*
X107705000Y-127000000D03*
G04 #@! TO.P,R8,2*
G04 #@! TO.N,/D7*
X105655000Y-127000000D03*
G04 #@! TD*
G04 #@! TO.P,R7,1*
G04 #@! TO.N,+3V3*
X120405000Y-127000000D03*
G04 #@! TO.P,R7,2*
G04 #@! TO.N,/D6*
X118355000Y-127000000D03*
G04 #@! TD*
G04 #@! TO.P,R2,1*
G04 #@! TO.N,+3V3*
X183905000Y-127000000D03*
G04 #@! TO.P,R2,2*
G04 #@! TO.N,/D1*
X181855000Y-127000000D03*
G04 #@! TD*
G04 #@! TO.P,R5,1*
G04 #@! TO.N,+3V3*
X145805000Y-127000000D03*
G04 #@! TO.P,R5,2*
G04 #@! TO.N,/D4*
X143755000Y-127000000D03*
G04 #@! TD*
G04 #@! TO.P,R1,1*
G04 #@! TO.N,+3V3*
X196605000Y-127000000D03*
G04 #@! TO.P,R1,2*
G04 #@! TO.N,/D0*
X194555000Y-127000000D03*
G04 #@! TD*
G04 #@! TO.P,R3,1*
G04 #@! TO.N,+3V3*
X171205000Y-127000000D03*
G04 #@! TO.P,R3,2*
G04 #@! TO.N,/D2*
X169155000Y-127000000D03*
G04 #@! TD*
G04 #@! TO.P,R4,1*
G04 #@! TO.N,+3V3*
X158505000Y-127000000D03*
G04 #@! TO.P,R4,2*
G04 #@! TO.N,/D3*
X156455000Y-127000000D03*
G04 #@! TD*
D12*
G04 #@! TO.N,GND*
X199898000Y-134112000D03*
X187452000Y-134112000D03*
X174752000Y-134112000D03*
X162052000Y-134112000D03*
X149352000Y-134112000D03*
X136906000Y-134112000D03*
X123952000Y-134112000D03*
X111252000Y-134112000D03*
G04 #@! TO.N,+3V3*
X170942000Y-131064000D03*
X109474000Y-127000000D03*
X121920000Y-127000000D03*
X134620000Y-127000000D03*
X147320000Y-127000000D03*
X158242000Y-131064000D03*
X183896000Y-131064000D03*
X196596000Y-131064000D03*
G04 #@! TO.N,/D4*
X142240000Y-127000000D03*
G04 #@! TO.N,/D5*
X129540000Y-127000000D03*
G04 #@! TO.N,/D7*
X104140000Y-127254000D03*
X104140000Y-130048000D03*
G04 #@! TO.N,/D3*
X154940000Y-127000000D03*
G04 #@! TO.N,/D6*
X116840000Y-127000000D03*
G04 #@! TO.N,/D4*
X142240000Y-121920000D03*
G04 #@! TO.N,/D0*
X191516000Y-119888000D03*
G04 #@! TO.N,/D5*
X129540000Y-124206000D03*
G04 #@! TO.N,/D1*
X180340000Y-121666000D03*
G04 #@! TO.N,/D2*
X167640000Y-124968000D03*
G04 #@! TD*
D13*
G04 #@! TO.N,+3V3*
X171205000Y-127000000D02*
X171205000Y-130801000D01*
X171205000Y-130801000D02*
X170942000Y-131064000D01*
X107705000Y-127000000D02*
X109474000Y-127000000D01*
X120405000Y-127000000D02*
X121920000Y-127000000D01*
X133105000Y-127000000D02*
X134620000Y-127000000D01*
X145805000Y-127000000D02*
X147320000Y-127000000D01*
X158505000Y-127000000D02*
X158505000Y-130801000D01*
X158505000Y-130801000D02*
X158242000Y-131064000D01*
X183905000Y-127000000D02*
X183905000Y-131055000D01*
X183905000Y-131055000D02*
X183896000Y-131064000D01*
X196605000Y-127000000D02*
X196605000Y-131055000D01*
X196605000Y-131055000D02*
X196596000Y-131064000D01*
G04 #@! TO.N,/D1*
X180340000Y-122682000D02*
X180340000Y-123190000D01*
X180340000Y-123190000D02*
X180340000Y-126746000D01*
X95250000Y-123190000D02*
X180340000Y-123190000D01*
X180340000Y-126746000D02*
X180594000Y-127000000D01*
X180594000Y-127000000D02*
X181855000Y-127000000D01*
G04 #@! TO.N,/D4*
X143755000Y-127000000D02*
X142240000Y-127000000D01*
G04 #@! TO.N,/D5*
X131055000Y-127000000D02*
X129540000Y-127000000D01*
G04 #@! TO.N,/D7*
X104140000Y-127254000D02*
X105401000Y-127254000D01*
X105401000Y-127254000D02*
X105655000Y-127000000D01*
G04 #@! TO.N,/D6*
X97255244Y-127000000D02*
X97028000Y-127000000D01*
G04 #@! TO.N,/D7*
X97790000Y-129540000D02*
X98298000Y-130048000D01*
G04 #@! TO.N,/D6*
X104781618Y-128498999D02*
X103498382Y-128498999D01*
G04 #@! TO.N,/D3*
X104491875Y-129198500D02*
X103788125Y-129198500D01*
X154010498Y-129199502D02*
X104492877Y-129199502D01*
G04 #@! TO.N,/D6*
X115501321Y-128500001D02*
X104782620Y-128500001D01*
G04 #@! TO.N,/D3*
X154940000Y-128270000D02*
X154010498Y-129199502D01*
G04 #@! TO.N,/D6*
X116840000Y-127161322D02*
X115501321Y-128500001D01*
G04 #@! TO.N,/D3*
X98465502Y-129199502D02*
X97536000Y-128270000D01*
X103788125Y-129198500D02*
X103787123Y-129199502D01*
G04 #@! TO.N,/D6*
X116840000Y-127000000D02*
X116840000Y-127161322D01*
G04 #@! TO.N,/D3*
X154940000Y-127000000D02*
X154940000Y-128270000D01*
X104492877Y-129199502D02*
X104491875Y-129198500D01*
X103787123Y-129199502D02*
X98465502Y-129199502D01*
G04 #@! TO.N,/D7*
X98298000Y-130048000D02*
X104140000Y-130048000D01*
G04 #@! TO.N,/D6*
X103497380Y-128500001D02*
X98755245Y-128500001D01*
X103498382Y-128498999D02*
X103497380Y-128500001D01*
G04 #@! TO.N,/D3*
X97536000Y-128270000D02*
X95250000Y-128270000D01*
G04 #@! TO.N,/D7*
X97282000Y-129540000D02*
X97790000Y-129540000D01*
X97028000Y-129540000D02*
X97282000Y-129540000D01*
G04 #@! TO.N,/D6*
X104782620Y-128500001D02*
X104781618Y-128498999D01*
X98755245Y-128500001D02*
X97255244Y-127000000D01*
G04 #@! TO.N,/D3*
X156455000Y-127000000D02*
X154940000Y-127000000D01*
G04 #@! TO.N,/D6*
X118355000Y-127000000D02*
X116840000Y-127000000D01*
D14*
G04 #@! TO.N,/D7*
X92710000Y-128270000D02*
X93980000Y-129540000D01*
X93980000Y-129540000D02*
X97028000Y-129540000D01*
G04 #@! TO.N,/D6*
X92710000Y-125730000D02*
X93980000Y-127000000D01*
X93980000Y-127000000D02*
X97028000Y-127000000D01*
G04 #@! TO.N,/D4*
X92710000Y-120650000D02*
X93980000Y-121920000D01*
D13*
X97028000Y-121920000D02*
X142240000Y-121920000D01*
D14*
X93980000Y-121920000D02*
X97028000Y-121920000D01*
D13*
G04 #@! TO.N,/D0*
X194555000Y-121911000D02*
X194555000Y-127000000D01*
X95250000Y-120650000D02*
X191516000Y-120650000D01*
X191516000Y-120650000D02*
X191516000Y-119888000D01*
X193294000Y-120650000D02*
X194555000Y-121911000D01*
X191516000Y-120650000D02*
X193294000Y-120650000D01*
D14*
G04 #@! TO.N,/D5*
X93885000Y-124365000D02*
X96933000Y-124365000D01*
D13*
X96933000Y-124365000D02*
X129381000Y-124365000D01*
D14*
X92710000Y-123190000D02*
X93885000Y-124365000D01*
D13*
X129381000Y-124365000D02*
X129540000Y-124206000D01*
G04 #@! TO.N,/D1*
X180340000Y-122682000D02*
X180340000Y-121666000D01*
G04 #@! TO.N,/D2*
X95250000Y-125730000D02*
X95480001Y-125499999D01*
X168608002Y-127000000D02*
X167108001Y-125499999D01*
X167108001Y-125499999D02*
X167640000Y-124968000D01*
X95480001Y-125499999D02*
X167108001Y-125499999D01*
X169155000Y-127000000D02*
X168608002Y-127000000D01*
G04 #@! TD*
G04 #@! TA.AperFunction,Conductor*
G04 #@! TO.N,GND*
G36*
X201617621Y-118892502D02*
G01*
X201664114Y-118946158D01*
X201675500Y-118998500D01*
X201675500Y-135001500D01*
X201655498Y-135069621D01*
X201601842Y-135116114D01*
X201549500Y-135127500D01*
X91058500Y-135127500D01*
X90990379Y-135107498D01*
X90943886Y-135053842D01*
X90932500Y-135001500D01*
X90932500Y-134257459D01*
X90952502Y-134189338D01*
X91006158Y-134142845D01*
X91076432Y-134132741D01*
X91145631Y-134166441D01*
X91202340Y-134220728D01*
X91207375Y-134223979D01*
X91374360Y-134331800D01*
X91374363Y-134331801D01*
X91379397Y-134335052D01*
X91574878Y-134413834D01*
X91697688Y-134437817D01*
X91777283Y-134453361D01*
X91777286Y-134453361D01*
X91781729Y-134454229D01*
X91787270Y-134454500D01*
X92782659Y-134454500D01*
X92939806Y-134439507D01*
X93142042Y-134380177D01*
X93225304Y-134337294D01*
X93324079Y-134286422D01*
X93324082Y-134286420D01*
X93329410Y-134283676D01*
X93405408Y-134223979D01*
X93490432Y-134157192D01*
X93490436Y-134157188D01*
X93495149Y-134153486D01*
X93559674Y-134079128D01*
X93629350Y-133998835D01*
X93629354Y-133998830D01*
X93633281Y-133994304D01*
X93738819Y-133811874D01*
X93807957Y-133612778D01*
X93838199Y-133404200D01*
X93833182Y-133295800D01*
X94121801Y-133295800D01*
X94131545Y-133506333D01*
X94180924Y-133711226D01*
X94268157Y-133903084D01*
X94390096Y-134074986D01*
X94542340Y-134220728D01*
X94547375Y-134223979D01*
X94714360Y-134331800D01*
X94714363Y-134331801D01*
X94719397Y-134335052D01*
X94914878Y-134413834D01*
X95037688Y-134437817D01*
X95117283Y-134453361D01*
X95117286Y-134453361D01*
X95121729Y-134454229D01*
X95127270Y-134454500D01*
X96122659Y-134454500D01*
X96279806Y-134439507D01*
X96482042Y-134380177D01*
X96565304Y-134337294D01*
X96664079Y-134286422D01*
X96664082Y-134286420D01*
X96669410Y-134283676D01*
X96745408Y-134223979D01*
X96830432Y-134157192D01*
X96830436Y-134157188D01*
X96835149Y-134153486D01*
X96899674Y-134079128D01*
X96969350Y-133998835D01*
X96969354Y-133998830D01*
X96973281Y-133994304D01*
X97078819Y-133811874D01*
X97147957Y-133612778D01*
X97178199Y-133404200D01*
X97168455Y-133193667D01*
X97144233Y-133093158D01*
X97120482Y-132994607D01*
X97120481Y-132994605D01*
X97119076Y-132988774D01*
X97031843Y-132796916D01*
X96909904Y-132625014D01*
X96757660Y-132479272D01*
X96655918Y-132413578D01*
X96585640Y-132368200D01*
X96585637Y-132368199D01*
X96580603Y-132364948D01*
X96385122Y-132286166D01*
X96250739Y-132259923D01*
X96182717Y-132246639D01*
X96182714Y-132246639D01*
X96178271Y-132245771D01*
X96172730Y-132245500D01*
X95177341Y-132245500D01*
X95020194Y-132260493D01*
X94817958Y-132319823D01*
X94812619Y-132322573D01*
X94635921Y-132413578D01*
X94635918Y-132413580D01*
X94630590Y-132416324D01*
X94625875Y-132420028D01*
X94469568Y-132542808D01*
X94469564Y-132542812D01*
X94464851Y-132546514D01*
X94460920Y-132551044D01*
X94460919Y-132551045D01*
X94330650Y-132701165D01*
X94330646Y-132701170D01*
X94326719Y-132705696D01*
X94221181Y-132888126D01*
X94152043Y-133087222D01*
X94121801Y-133295800D01*
X93833182Y-133295800D01*
X93828455Y-133193667D01*
X93804233Y-133093158D01*
X93780482Y-132994607D01*
X93780481Y-132994605D01*
X93779076Y-132988774D01*
X93691843Y-132796916D01*
X93569904Y-132625014D01*
X93417660Y-132479272D01*
X93315918Y-132413578D01*
X93245640Y-132368200D01*
X93245637Y-132368199D01*
X93240603Y-132364948D01*
X93045122Y-132286166D01*
X92910739Y-132259923D01*
X92842717Y-132246639D01*
X92842714Y-132246639D01*
X92838271Y-132245771D01*
X92832730Y-132245500D01*
X91837341Y-132245500D01*
X91680194Y-132260493D01*
X91477958Y-132319823D01*
X91472619Y-132322573D01*
X91295921Y-132413578D01*
X91295918Y-132413580D01*
X91290590Y-132416324D01*
X91210454Y-132479272D01*
X91136333Y-132537495D01*
X91070408Y-132563845D01*
X91000702Y-132550370D01*
X90949346Y-132501349D01*
X90932500Y-132438409D01*
X90932500Y-131716767D01*
X90952502Y-131648646D01*
X91006158Y-131602153D01*
X91076432Y-131592049D01*
X91145631Y-131625749D01*
X91198321Y-131676189D01*
X91207686Y-131683585D01*
X91374590Y-131791354D01*
X91385194Y-131796850D01*
X91569452Y-131871108D01*
X91580911Y-131874502D01*
X91777332Y-131912861D01*
X91786168Y-131913934D01*
X91788871Y-131914000D01*
X92164885Y-131914000D01*
X92180124Y-131909525D01*
X92181329Y-131908135D01*
X92183000Y-131900452D01*
X92183000Y-131895885D01*
X92437000Y-131895885D01*
X92441475Y-131911124D01*
X92442865Y-131912329D01*
X92450548Y-131914000D01*
X92779644Y-131914000D01*
X92785621Y-131913715D01*
X92933734Y-131899584D01*
X92945472Y-131897324D01*
X93136091Y-131841402D01*
X93147194Y-131836961D01*
X93323807Y-131746000D01*
X93333853Y-131739550D01*
X93490086Y-131616829D01*
X93498735Y-131608592D01*
X93628940Y-131458543D01*
X93635877Y-131448817D01*
X93735357Y-131276861D01*
X93740331Y-131265997D01*
X93805502Y-131078324D01*
X93808330Y-131066722D01*
X93824539Y-130954929D01*
X93824123Y-130952007D01*
X94131382Y-130952007D01*
X94131765Y-130960273D01*
X94133446Y-130972087D01*
X94179993Y-131165229D01*
X94183882Y-131176524D01*
X94266112Y-131357379D01*
X94272059Y-131367721D01*
X94387010Y-131529772D01*
X94394803Y-131538800D01*
X94538321Y-131676189D01*
X94547686Y-131683585D01*
X94714590Y-131791354D01*
X94725194Y-131796850D01*
X94909452Y-131871108D01*
X94920911Y-131874502D01*
X95117332Y-131912861D01*
X95126168Y-131913934D01*
X95128871Y-131914000D01*
X95504885Y-131914000D01*
X95520124Y-131909525D01*
X95521329Y-131908135D01*
X95523000Y-131900452D01*
X95523000Y-131895885D01*
X95777000Y-131895885D01*
X95781475Y-131911124D01*
X95782865Y-131912329D01*
X95790548Y-131914000D01*
X96119644Y-131914000D01*
X96125621Y-131913715D01*
X96273734Y-131899584D01*
X96285472Y-131897324D01*
X96476091Y-131841402D01*
X96487194Y-131836961D01*
X96663807Y-131746000D01*
X96673853Y-131739550D01*
X96830086Y-131616829D01*
X96838735Y-131608592D01*
X96968940Y-131458543D01*
X96975877Y-131448817D01*
X97075357Y-131276861D01*
X97080331Y-131265997D01*
X97145502Y-131078324D01*
X97148330Y-131066722D01*
X97164539Y-130954929D01*
X97162553Y-130940993D01*
X97148985Y-130937000D01*
X95795115Y-130937000D01*
X95779876Y-130941475D01*
X95778671Y-130942865D01*
X95777000Y-130950548D01*
X95777000Y-131895885D01*
X95523000Y-131895885D01*
X95523000Y-130955115D01*
X95518525Y-130939876D01*
X95517135Y-130938671D01*
X95509452Y-130937000D01*
X94148803Y-130937000D01*
X94133564Y-130941475D01*
X94133378Y-130941689D01*
X94131382Y-130952007D01*
X93824123Y-130952007D01*
X93822553Y-130940993D01*
X93808985Y-130937000D01*
X92455115Y-130937000D01*
X92439876Y-130941475D01*
X92438671Y-130942865D01*
X92437000Y-130950548D01*
X92437000Y-131895885D01*
X92183000Y-131895885D01*
X92183000Y-130664885D01*
X92437000Y-130664885D01*
X92441475Y-130680124D01*
X92442865Y-130681329D01*
X92450548Y-130683000D01*
X93811197Y-130683000D01*
X93826436Y-130678525D01*
X93826622Y-130678311D01*
X93828618Y-130667993D01*
X93828235Y-130659727D01*
X93826554Y-130647910D01*
X93780007Y-130454771D01*
X93776118Y-130443476D01*
X93693888Y-130262621D01*
X93687941Y-130252279D01*
X93572990Y-130090228D01*
X93565197Y-130081200D01*
X93421679Y-129943811D01*
X93412314Y-129936415D01*
X93245410Y-129828646D01*
X93234806Y-129823150D01*
X93050548Y-129748892D01*
X93039089Y-129745498D01*
X92842668Y-129707139D01*
X92833832Y-129706066D01*
X92831129Y-129706000D01*
X92455115Y-129706000D01*
X92439876Y-129710475D01*
X92438671Y-129711865D01*
X92437000Y-129719548D01*
X92437000Y-130664885D01*
X92183000Y-130664885D01*
X92183000Y-129724115D01*
X92178525Y-129708876D01*
X92177135Y-129707671D01*
X92169452Y-129706000D01*
X91840356Y-129706000D01*
X91834379Y-129706285D01*
X91686266Y-129720416D01*
X91674528Y-129722676D01*
X91483909Y-129778598D01*
X91472806Y-129783039D01*
X91296193Y-129874000D01*
X91286147Y-129880450D01*
X91136333Y-129998130D01*
X91070407Y-130024480D01*
X91000701Y-130011005D01*
X90949346Y-129961983D01*
X90932500Y-129899044D01*
X90932500Y-129177459D01*
X90952502Y-129109338D01*
X91006158Y-129062845D01*
X91076432Y-129052741D01*
X91145631Y-129086441D01*
X91202340Y-129140728D01*
X91207375Y-129143979D01*
X91374360Y-129251800D01*
X91374363Y-129251801D01*
X91379397Y-129255052D01*
X91384960Y-129257294D01*
X91477138Y-129294443D01*
X91574878Y-129333834D01*
X91697688Y-129357817D01*
X91777283Y-129373361D01*
X91777286Y-129373361D01*
X91781729Y-129374229D01*
X91787270Y-129374500D01*
X92782659Y-129374500D01*
X92939806Y-129359507D01*
X93117830Y-129307280D01*
X93188827Y-129307296D01*
X93242395Y-129339089D01*
X93673522Y-129770216D01*
X93688664Y-129788964D01*
X93689779Y-129790189D01*
X93695429Y-129798940D01*
X93703607Y-129805387D01*
X93703609Y-129805389D01*
X93721800Y-129819729D01*
X93726244Y-129823678D01*
X93726306Y-129823604D01*
X93730263Y-129826957D01*
X93733944Y-129830638D01*
X93749654Y-129841865D01*
X93754380Y-129845413D01*
X93794647Y-129877156D01*
X93803284Y-129880189D01*
X93810734Y-129885513D01*
X93820710Y-129888497D01*
X93820711Y-129888497D01*
X93828188Y-129890733D01*
X93859849Y-129900202D01*
X93865486Y-129902034D01*
X93906367Y-129916390D01*
X93913851Y-129919018D01*
X93919416Y-129919500D01*
X93922124Y-129919500D01*
X93924758Y-129919614D01*
X93924856Y-129919643D01*
X93924849Y-129919807D01*
X93925553Y-129919851D01*
X93931778Y-129921713D01*
X93985635Y-129919597D01*
X93990582Y-129919500D01*
X94264857Y-129919500D01*
X94332978Y-129939502D01*
X94379471Y-129993158D01*
X94389575Y-130063432D01*
X94360022Y-130128081D01*
X94331061Y-130161456D01*
X94324123Y-130171183D01*
X94224643Y-130343139D01*
X94219669Y-130354003D01*
X94154498Y-130541676D01*
X94151670Y-130553278D01*
X94135461Y-130665071D01*
X94137447Y-130679007D01*
X94151015Y-130683000D01*
X97151197Y-130683000D01*
X97166436Y-130678525D01*
X97166622Y-130678311D01*
X97168618Y-130667993D01*
X97168235Y-130659727D01*
X97166554Y-130647910D01*
X97120007Y-130454771D01*
X97116118Y-130443476D01*
X97033888Y-130262621D01*
X97027937Y-130252272D01*
X97021644Y-130243400D01*
X96998545Y-130176266D01*
X97015409Y-130107301D01*
X97066880Y-130058402D01*
X97124413Y-130044500D01*
X97528839Y-130044500D01*
X97596960Y-130064502D01*
X97617934Y-130081405D01*
X97891323Y-130354794D01*
X97898865Y-130364234D01*
X97899245Y-130363911D01*
X97905063Y-130370747D01*
X97909853Y-130378339D01*
X97916581Y-130384281D01*
X97949859Y-130413671D01*
X97955546Y-130419017D01*
X97966880Y-130430351D01*
X97970466Y-130433038D01*
X97970471Y-130433043D01*
X97975159Y-130436557D01*
X97982997Y-130442938D01*
X97993342Y-130452074D01*
X98018170Y-130474001D01*
X98026293Y-130477815D01*
X98029104Y-130479661D01*
X98043103Y-130488072D01*
X98046052Y-130489686D01*
X98053235Y-130495070D01*
X98090023Y-130508861D01*
X98097174Y-130511542D01*
X98106494Y-130515469D01*
X98148982Y-130535417D01*
X98157853Y-130536798D01*
X98161075Y-130537783D01*
X98176846Y-130541920D01*
X98180140Y-130542644D01*
X98188552Y-130545798D01*
X98197510Y-130546464D01*
X98197511Y-130546464D01*
X98235350Y-130549276D01*
X98245374Y-130550426D01*
X98258697Y-130552500D01*
X98274062Y-130552500D01*
X98283399Y-130552846D01*
X98332666Y-130556507D01*
X98341441Y-130554634D01*
X98350137Y-130554041D01*
X98364737Y-130552500D01*
X103673153Y-130552500D01*
X103741274Y-130572502D01*
X103746068Y-130576185D01*
X103746266Y-130575907D01*
X103752459Y-130580308D01*
X103758076Y-130585419D01*
X103897293Y-130661008D01*
X104050522Y-130701207D01*
X104134477Y-130702526D01*
X104201319Y-130703576D01*
X104201322Y-130703576D01*
X104208916Y-130703695D01*
X104363332Y-130668329D01*
X104453782Y-130622838D01*
X104498072Y-130600563D01*
X104498075Y-130600561D01*
X104504855Y-130597151D01*
X104510626Y-130592222D01*
X104510629Y-130592220D01*
X104619536Y-130499204D01*
X104619536Y-130499203D01*
X104625314Y-130494269D01*
X104717755Y-130365624D01*
X104776842Y-130218641D01*
X104789730Y-130128081D01*
X104798581Y-130065891D01*
X104798581Y-130065888D01*
X104799162Y-130061807D01*
X104799307Y-130048000D01*
X104780276Y-129890733D01*
X104774157Y-129874539D01*
X104768789Y-129803748D01*
X104802546Y-129741290D01*
X104864711Y-129706998D01*
X104892023Y-129704002D01*
X153939874Y-129704002D01*
X153951879Y-129705343D01*
X153951919Y-129704847D01*
X153960866Y-129705567D01*
X153969622Y-129707548D01*
X154022880Y-129704244D01*
X154030682Y-129704002D01*
X154046724Y-129704002D01*
X154051155Y-129703367D01*
X154051160Y-129703367D01*
X154055185Y-129702790D01*
X154056955Y-129702537D01*
X154067012Y-129701506D01*
X154089474Y-129700113D01*
X154104898Y-129699156D01*
X154104900Y-129699156D01*
X154113857Y-129698600D01*
X154122297Y-129695553D01*
X154125587Y-129694872D01*
X154141436Y-129690920D01*
X154144666Y-129689975D01*
X154153550Y-129688703D01*
X154196261Y-129669284D01*
X154205626Y-129665472D01*
X154241335Y-129652580D01*
X154241338Y-129652578D01*
X154249782Y-129649530D01*
X154257031Y-129644234D01*
X154259988Y-129642662D01*
X154274112Y-129634409D01*
X154276935Y-129632604D01*
X154285103Y-129628890D01*
X154291900Y-129623033D01*
X154291902Y-129623032D01*
X154320651Y-129598259D01*
X154328562Y-129591977D01*
X154339442Y-129584029D01*
X154350304Y-129573167D01*
X154357151Y-129566809D01*
X154387780Y-129540417D01*
X154394580Y-129534558D01*
X154399464Y-129527023D01*
X154405197Y-129520451D01*
X154414424Y-129509047D01*
X155246794Y-128676677D01*
X155256234Y-128669135D01*
X155255911Y-128668755D01*
X155262747Y-128662937D01*
X155270339Y-128658147D01*
X155305672Y-128618140D01*
X155311017Y-128612454D01*
X155322351Y-128601120D01*
X155325038Y-128597534D01*
X155325043Y-128597529D01*
X155328557Y-128592841D01*
X155334938Y-128585003D01*
X155360060Y-128556557D01*
X155366001Y-128549830D01*
X155369815Y-128541707D01*
X155371661Y-128538896D01*
X155380072Y-128524897D01*
X155381686Y-128521948D01*
X155387070Y-128514765D01*
X155403542Y-128470826D01*
X155407469Y-128461506D01*
X155423602Y-128427144D01*
X155423602Y-128427143D01*
X155427417Y-128419018D01*
X155428798Y-128410147D01*
X155429783Y-128406925D01*
X155433920Y-128391154D01*
X155434644Y-128387860D01*
X155437798Y-128379448D01*
X155441276Y-128332650D01*
X155442426Y-128322626D01*
X155444500Y-128309303D01*
X155444500Y-128293938D01*
X155444846Y-128284601D01*
X155447842Y-128244282D01*
X155448507Y-128235334D01*
X155446634Y-128226559D01*
X155446041Y-128217863D01*
X155444500Y-128203263D01*
X155444500Y-127749136D01*
X155464502Y-127681015D01*
X155518158Y-127634522D01*
X155588432Y-127624418D01*
X155653012Y-127653912D01*
X155680288Y-127687720D01*
X155682929Y-127694764D01*
X155769596Y-127810404D01*
X155776776Y-127815785D01*
X155878054Y-127891689D01*
X155878057Y-127891691D01*
X155885236Y-127897071D01*
X155969250Y-127928566D01*
X156013157Y-127945026D01*
X156013159Y-127945026D01*
X156020552Y-127947798D01*
X156028402Y-127948651D01*
X156028403Y-127948651D01*
X156078847Y-127954131D01*
X156082244Y-127954500D01*
X156827756Y-127954500D01*
X156831153Y-127954131D01*
X156881597Y-127948651D01*
X156881598Y-127948651D01*
X156889448Y-127947798D01*
X156896841Y-127945026D01*
X156896843Y-127945026D01*
X156940750Y-127928566D01*
X157024764Y-127897071D01*
X157031943Y-127891691D01*
X157031946Y-127891689D01*
X157133224Y-127815785D01*
X157140404Y-127810404D01*
X157208595Y-127719417D01*
X157221689Y-127701946D01*
X157221691Y-127701943D01*
X157227071Y-127694764D01*
X157277798Y-127559448D01*
X157279240Y-127546179D01*
X157284131Y-127501153D01*
X157284131Y-127501152D01*
X157284500Y-127497756D01*
X157284500Y-126502244D01*
X157283730Y-126495154D01*
X157278651Y-126448403D01*
X157278651Y-126448402D01*
X157277798Y-126440552D01*
X157227071Y-126305236D01*
X157221691Y-126298057D01*
X157221689Y-126298054D01*
X157152746Y-126206064D01*
X157127898Y-126139557D01*
X157142951Y-126070175D01*
X157193125Y-126019945D01*
X157253572Y-126004499D01*
X157706428Y-126004499D01*
X157774549Y-126024501D01*
X157821042Y-126078157D01*
X157831146Y-126148431D01*
X157807254Y-126206064D01*
X157738311Y-126298054D01*
X157738309Y-126298057D01*
X157732929Y-126305236D01*
X157682202Y-126440552D01*
X157681349Y-126448402D01*
X157681349Y-126448403D01*
X157676270Y-126495154D01*
X157675500Y-126502244D01*
X157675500Y-127497756D01*
X157675869Y-127501152D01*
X157675869Y-127501153D01*
X157680761Y-127546179D01*
X157682202Y-127559448D01*
X157732929Y-127694764D01*
X157738309Y-127701943D01*
X157738311Y-127701946D01*
X157751405Y-127719417D01*
X157819596Y-127810404D01*
X157935236Y-127897071D01*
X157937384Y-127897876D01*
X157985156Y-127945756D01*
X158000500Y-128006016D01*
X158000500Y-130375314D01*
X157980498Y-130443435D01*
X157932289Y-130487280D01*
X157878162Y-130515217D01*
X157871414Y-130518700D01*
X157752039Y-130622838D01*
X157660950Y-130752444D01*
X157658190Y-130759524D01*
X157617593Y-130863650D01*
X157603406Y-130900037D01*
X157602414Y-130907570D01*
X157602414Y-130907571D01*
X157584221Y-131045764D01*
X157582729Y-131057096D01*
X157600113Y-131214553D01*
X157602723Y-131221684D01*
X157602723Y-131221686D01*
X157618939Y-131265997D01*
X157654553Y-131363319D01*
X157742908Y-131494805D01*
X157748527Y-131499918D01*
X157748528Y-131499919D01*
X157759903Y-131510269D01*
X157860076Y-131601419D01*
X157999293Y-131677008D01*
X158152522Y-131717207D01*
X158236477Y-131718526D01*
X158303319Y-131719576D01*
X158303322Y-131719576D01*
X158310916Y-131719695D01*
X158465332Y-131684329D01*
X158536280Y-131648646D01*
X158600072Y-131616563D01*
X158600075Y-131616561D01*
X158606855Y-131613151D01*
X158612626Y-131608222D01*
X158612629Y-131608220D01*
X158721536Y-131515204D01*
X158721536Y-131515203D01*
X158727314Y-131510269D01*
X158819755Y-131381624D01*
X158878842Y-131234641D01*
X158889599Y-131159053D01*
X158919901Y-131093399D01*
X158931001Y-131080830D01*
X158934815Y-131072707D01*
X158936654Y-131069907D01*
X158944352Y-131057096D01*
X170282729Y-131057096D01*
X170300113Y-131214553D01*
X170302723Y-131221684D01*
X170302723Y-131221686D01*
X170318939Y-131265997D01*
X170354553Y-131363319D01*
X170442908Y-131494805D01*
X170448527Y-131499918D01*
X170448528Y-131499919D01*
X170459903Y-131510269D01*
X170560076Y-131601419D01*
X170699293Y-131677008D01*
X170852522Y-131717207D01*
X170936477Y-131718526D01*
X171003319Y-131719576D01*
X171003322Y-131719576D01*
X171010916Y-131719695D01*
X171165332Y-131684329D01*
X171236280Y-131648646D01*
X171300072Y-131616563D01*
X171300075Y-131616561D01*
X171306855Y-131613151D01*
X171312626Y-131608222D01*
X171312629Y-131608220D01*
X171421536Y-131515204D01*
X171421536Y-131515203D01*
X171427314Y-131510269D01*
X171519755Y-131381624D01*
X171578842Y-131234641D01*
X171589599Y-131159053D01*
X171619901Y-131093399D01*
X171631001Y-131080830D01*
X171634815Y-131072707D01*
X171636654Y-131069907D01*
X171645063Y-131055912D01*
X171646685Y-131052949D01*
X171652070Y-131045764D01*
X171655224Y-131037352D01*
X171668546Y-131001818D01*
X171672471Y-130992502D01*
X171692417Y-130950018D01*
X171693799Y-130941144D01*
X171694785Y-130937917D01*
X171698920Y-130922154D01*
X171699644Y-130918860D01*
X171702798Y-130910448D01*
X171706276Y-130863650D01*
X171707426Y-130853626D01*
X171709500Y-130840303D01*
X171709500Y-130824938D01*
X171709846Y-130815601D01*
X171712842Y-130775282D01*
X171713507Y-130766334D01*
X171711634Y-130757558D01*
X171711041Y-130748864D01*
X171709500Y-130734264D01*
X171709500Y-128006016D01*
X171729502Y-127937895D01*
X171772317Y-127897988D01*
X171774764Y-127897071D01*
X171890404Y-127810404D01*
X171958595Y-127719417D01*
X171971689Y-127701946D01*
X171971691Y-127701943D01*
X171977071Y-127694764D01*
X172027798Y-127559448D01*
X172029240Y-127546179D01*
X172034131Y-127501153D01*
X172034131Y-127501152D01*
X172034500Y-127497756D01*
X172034500Y-127039564D01*
X173421051Y-127039564D01*
X173447954Y-127261880D01*
X173513800Y-127475917D01*
X173516370Y-127480897D01*
X173516372Y-127480901D01*
X173589211Y-127622024D01*
X173616509Y-127674912D01*
X173752833Y-127852573D01*
X173756979Y-127856346D01*
X173756984Y-127856351D01*
X173904404Y-127990492D01*
X173918464Y-128003286D01*
X174108167Y-128122286D01*
X174315944Y-128205812D01*
X174321436Y-128206949D01*
X174321438Y-128206950D01*
X174458499Y-128235334D01*
X174535228Y-128251224D01*
X174539839Y-128251490D01*
X174539840Y-128251490D01*
X174590225Y-128254395D01*
X174590229Y-128254395D01*
X174592048Y-128254500D01*
X174736819Y-128254500D01*
X174739606Y-128254251D01*
X174739612Y-128254251D01*
X174808962Y-128248061D01*
X174903051Y-128239664D01*
X175119051Y-128180573D01*
X175124109Y-128178161D01*
X175124113Y-128178159D01*
X175316107Y-128086583D01*
X175316109Y-128086582D01*
X175321174Y-128084166D01*
X175331202Y-128076960D01*
X175498470Y-127956766D01*
X175498472Y-127956764D01*
X175503030Y-127953489D01*
X175605138Y-127848122D01*
X175654969Y-127796701D01*
X175654971Y-127796698D01*
X175658871Y-127792674D01*
X175728787Y-127688627D01*
X175780641Y-127611460D01*
X175780643Y-127611457D01*
X175783770Y-127606803D01*
X175856949Y-127440099D01*
X175871525Y-127406894D01*
X175871527Y-127406889D01*
X175873782Y-127401752D01*
X175926059Y-127184002D01*
X175937066Y-126993096D01*
X175938626Y-126966043D01*
X175938626Y-126966040D01*
X175938949Y-126960436D01*
X175912046Y-126738120D01*
X175846200Y-126524083D01*
X175840265Y-126512583D01*
X175746063Y-126330071D01*
X175746063Y-126330070D01*
X175743491Y-126325088D01*
X175607167Y-126147427D01*
X175603021Y-126143654D01*
X175603016Y-126143649D01*
X175445689Y-126000493D01*
X175441536Y-125996714D01*
X175251833Y-125877714D01*
X175044056Y-125794188D01*
X175038564Y-125793051D01*
X175038562Y-125793050D01*
X174887754Y-125761819D01*
X174824772Y-125748776D01*
X174820161Y-125748510D01*
X174820160Y-125748510D01*
X174769775Y-125745605D01*
X174769771Y-125745605D01*
X174767952Y-125745500D01*
X174623181Y-125745500D01*
X174620394Y-125745749D01*
X174620388Y-125745749D01*
X174551038Y-125751939D01*
X174456949Y-125760336D01*
X174240949Y-125819427D01*
X174235891Y-125821839D01*
X174235887Y-125821841D01*
X174088464Y-125892158D01*
X174038826Y-125915834D01*
X174034265Y-125919111D01*
X174034264Y-125919112D01*
X173878033Y-126031376D01*
X173856970Y-126046511D01*
X173794810Y-126110655D01*
X173711066Y-126197072D01*
X173701129Y-126207326D01*
X173698001Y-126211981D01*
X173587428Y-126376533D01*
X173576230Y-126393197D01*
X173516421Y-126529444D01*
X173503036Y-126559937D01*
X173486218Y-126598248D01*
X173433941Y-126815998D01*
X173432940Y-126833361D01*
X173424181Y-126985284D01*
X173421051Y-127039564D01*
X172034500Y-127039564D01*
X172034500Y-126502244D01*
X172033730Y-126495154D01*
X172028651Y-126448403D01*
X172028651Y-126448402D01*
X172027798Y-126440552D01*
X171977071Y-126305236D01*
X171971691Y-126298057D01*
X171971689Y-126298054D01*
X171895785Y-126196776D01*
X171890404Y-126189596D01*
X171840077Y-126151878D01*
X171781946Y-126108311D01*
X171781943Y-126108309D01*
X171774764Y-126102929D01*
X171665865Y-126062105D01*
X171646843Y-126054974D01*
X171646841Y-126054974D01*
X171639448Y-126052202D01*
X171631598Y-126051349D01*
X171631597Y-126051349D01*
X171581153Y-126045869D01*
X171581152Y-126045869D01*
X171577756Y-126045500D01*
X170832244Y-126045500D01*
X170828848Y-126045869D01*
X170828847Y-126045869D01*
X170778403Y-126051349D01*
X170778402Y-126051349D01*
X170770552Y-126052202D01*
X170763159Y-126054974D01*
X170763157Y-126054974D01*
X170744135Y-126062105D01*
X170635236Y-126102929D01*
X170628057Y-126108309D01*
X170628054Y-126108311D01*
X170569923Y-126151878D01*
X170519596Y-126189596D01*
X170514215Y-126196776D01*
X170438311Y-126298054D01*
X170438309Y-126298057D01*
X170432929Y-126305236D01*
X170382202Y-126440552D01*
X170381349Y-126448402D01*
X170381349Y-126448403D01*
X170376270Y-126495154D01*
X170375500Y-126502244D01*
X170375500Y-127497756D01*
X170375869Y-127501152D01*
X170375869Y-127501153D01*
X170380761Y-127546179D01*
X170382202Y-127559448D01*
X170432929Y-127694764D01*
X170438309Y-127701943D01*
X170438311Y-127701946D01*
X170451405Y-127719417D01*
X170519596Y-127810404D01*
X170635236Y-127897071D01*
X170637384Y-127897876D01*
X170685156Y-127945756D01*
X170700500Y-128006016D01*
X170700500Y-130375314D01*
X170680498Y-130443435D01*
X170632289Y-130487280D01*
X170578162Y-130515217D01*
X170571414Y-130518700D01*
X170452039Y-130622838D01*
X170360950Y-130752444D01*
X170358190Y-130759524D01*
X170317593Y-130863650D01*
X170303406Y-130900037D01*
X170302414Y-130907570D01*
X170302414Y-130907571D01*
X170284221Y-131045764D01*
X170282729Y-131057096D01*
X158944352Y-131057096D01*
X158945063Y-131055912D01*
X158946685Y-131052949D01*
X158952070Y-131045764D01*
X158955224Y-131037352D01*
X158968546Y-131001818D01*
X158972471Y-130992502D01*
X158992417Y-130950018D01*
X158993799Y-130941144D01*
X158994785Y-130937917D01*
X158998920Y-130922154D01*
X158999644Y-130918860D01*
X159002798Y-130910448D01*
X159006276Y-130863650D01*
X159007426Y-130853626D01*
X159009500Y-130840303D01*
X159009500Y-130824938D01*
X159009846Y-130815601D01*
X159012842Y-130775282D01*
X159013507Y-130766334D01*
X159011634Y-130757558D01*
X159011041Y-130748864D01*
X159009500Y-130734264D01*
X159009500Y-128006016D01*
X159029502Y-127937895D01*
X159072317Y-127897988D01*
X159074764Y-127897071D01*
X159190404Y-127810404D01*
X159258595Y-127719417D01*
X159271689Y-127701946D01*
X159271691Y-127701943D01*
X159277071Y-127694764D01*
X159327798Y-127559448D01*
X159329240Y-127546179D01*
X159334131Y-127501153D01*
X159334131Y-127501152D01*
X159334500Y-127497756D01*
X159334500Y-126502244D01*
X159333730Y-126495154D01*
X159328651Y-126448403D01*
X159328651Y-126448402D01*
X159327798Y-126440552D01*
X159277071Y-126305236D01*
X159271691Y-126298057D01*
X159271689Y-126298054D01*
X159202746Y-126206064D01*
X159177898Y-126139557D01*
X159192951Y-126070175D01*
X159243125Y-126019945D01*
X159303572Y-126004499D01*
X160901853Y-126004499D01*
X160969974Y-126024501D01*
X161016467Y-126078157D01*
X161026571Y-126148431D01*
X161000913Y-126207181D01*
X161001129Y-126207326D01*
X161000776Y-126207852D01*
X160998001Y-126211981D01*
X160997998Y-126211985D01*
X160882085Y-126384484D01*
X160876230Y-126393197D01*
X160816421Y-126529444D01*
X160803036Y-126559937D01*
X160786218Y-126598248D01*
X160733941Y-126815998D01*
X160732940Y-126833361D01*
X160724181Y-126985284D01*
X160721051Y-127039564D01*
X160747954Y-127261880D01*
X160813800Y-127475917D01*
X160816370Y-127480897D01*
X160816372Y-127480901D01*
X160889211Y-127622024D01*
X160916509Y-127674912D01*
X161052833Y-127852573D01*
X161056979Y-127856346D01*
X161056984Y-127856351D01*
X161204404Y-127990492D01*
X161218464Y-128003286D01*
X161408167Y-128122286D01*
X161615944Y-128205812D01*
X161621436Y-128206949D01*
X161621438Y-128206950D01*
X161758499Y-128235334D01*
X161835228Y-128251224D01*
X161839839Y-128251490D01*
X161839840Y-128251490D01*
X161890225Y-128254395D01*
X161890229Y-128254395D01*
X161892048Y-128254500D01*
X162036819Y-128254500D01*
X162039606Y-128254251D01*
X162039612Y-128254251D01*
X162108962Y-128248061D01*
X162203051Y-128239664D01*
X162419051Y-128180573D01*
X162424109Y-128178161D01*
X162424113Y-128178159D01*
X162616107Y-128086583D01*
X162616109Y-128086582D01*
X162621174Y-128084166D01*
X162631202Y-128076960D01*
X162798470Y-127956766D01*
X162798472Y-127956764D01*
X162803030Y-127953489D01*
X162905138Y-127848122D01*
X162954969Y-127796701D01*
X162954971Y-127796698D01*
X162958871Y-127792674D01*
X163028787Y-127688627D01*
X163080641Y-127611460D01*
X163080643Y-127611457D01*
X163083770Y-127606803D01*
X163156949Y-127440099D01*
X163171525Y-127406894D01*
X163171527Y-127406889D01*
X163173782Y-127401752D01*
X163226059Y-127184002D01*
X163237066Y-126993096D01*
X163238626Y-126966043D01*
X163238626Y-126966040D01*
X163238949Y-126960436D01*
X163212046Y-126738120D01*
X163146200Y-126524083D01*
X163140265Y-126512583D01*
X163046063Y-126330071D01*
X163046063Y-126330070D01*
X163043491Y-126325088D01*
X163011260Y-126283084D01*
X162953035Y-126207203D01*
X162927435Y-126140982D01*
X162941700Y-126071434D01*
X162991301Y-126020638D01*
X163052998Y-126004499D01*
X164601853Y-126004499D01*
X164669974Y-126024501D01*
X164716467Y-126078157D01*
X164726571Y-126148431D01*
X164700913Y-126207181D01*
X164701129Y-126207326D01*
X164700776Y-126207852D01*
X164698001Y-126211981D01*
X164697998Y-126211985D01*
X164582085Y-126384484D01*
X164576230Y-126393197D01*
X164516421Y-126529444D01*
X164503036Y-126559937D01*
X164486218Y-126598248D01*
X164433941Y-126815998D01*
X164432940Y-126833361D01*
X164424181Y-126985284D01*
X164421051Y-127039564D01*
X164447954Y-127261880D01*
X164513800Y-127475917D01*
X164516370Y-127480897D01*
X164516372Y-127480901D01*
X164589211Y-127622024D01*
X164616509Y-127674912D01*
X164752833Y-127852573D01*
X164756979Y-127856346D01*
X164756984Y-127856351D01*
X164904404Y-127990492D01*
X164918464Y-128003286D01*
X165108167Y-128122286D01*
X165315944Y-128205812D01*
X165321436Y-128206949D01*
X165321438Y-128206950D01*
X165458499Y-128235334D01*
X165535228Y-128251224D01*
X165539839Y-128251490D01*
X165539840Y-128251490D01*
X165590225Y-128254395D01*
X165590229Y-128254395D01*
X165592048Y-128254500D01*
X165736819Y-128254500D01*
X165739606Y-128254251D01*
X165739612Y-128254251D01*
X165808962Y-128248061D01*
X165903051Y-128239664D01*
X166119051Y-128180573D01*
X166124109Y-128178161D01*
X166124113Y-128178159D01*
X166316107Y-128086583D01*
X166316109Y-128086582D01*
X166321174Y-128084166D01*
X166331202Y-128076960D01*
X166498470Y-127956766D01*
X166498472Y-127956764D01*
X166503030Y-127953489D01*
X166605138Y-127848122D01*
X166654969Y-127796701D01*
X166654971Y-127796698D01*
X166658871Y-127792674D01*
X166728787Y-127688627D01*
X166780641Y-127611460D01*
X166780643Y-127611457D01*
X166783770Y-127606803D01*
X166856949Y-127440099D01*
X166871525Y-127406894D01*
X166871527Y-127406889D01*
X166873782Y-127401752D01*
X166926059Y-127184002D01*
X166937066Y-126993096D01*
X166938626Y-126966043D01*
X166938626Y-126966040D01*
X166938949Y-126960436D01*
X166912046Y-126738120D01*
X166846200Y-126524083D01*
X166840265Y-126512583D01*
X166746063Y-126330071D01*
X166746063Y-126330070D01*
X166743491Y-126325088D01*
X166711260Y-126283084D01*
X166653035Y-126207203D01*
X166627435Y-126140982D01*
X166641700Y-126071434D01*
X166691301Y-126020638D01*
X166752998Y-126004499D01*
X166846840Y-126004499D01*
X166914961Y-126024501D01*
X166935935Y-126041404D01*
X168201325Y-127306794D01*
X168208867Y-127316234D01*
X168209247Y-127315911D01*
X168215065Y-127322747D01*
X168219855Y-127330339D01*
X168226583Y-127336281D01*
X168259861Y-127365671D01*
X168265548Y-127371017D01*
X168276882Y-127382351D01*
X168280470Y-127385040D01*
X168282043Y-127386404D01*
X168320408Y-127446143D01*
X168325500Y-127481602D01*
X168325500Y-127497756D01*
X168325869Y-127501152D01*
X168325869Y-127501153D01*
X168330761Y-127546179D01*
X168332202Y-127559448D01*
X168382929Y-127694764D01*
X168388309Y-127701943D01*
X168388311Y-127701946D01*
X168401405Y-127719417D01*
X168469596Y-127810404D01*
X168476776Y-127815785D01*
X168578054Y-127891689D01*
X168578057Y-127891691D01*
X168585236Y-127897071D01*
X168669250Y-127928566D01*
X168713157Y-127945026D01*
X168713159Y-127945026D01*
X168720552Y-127947798D01*
X168728402Y-127948651D01*
X168728403Y-127948651D01*
X168778847Y-127954131D01*
X168782244Y-127954500D01*
X169527756Y-127954500D01*
X169531153Y-127954131D01*
X169581597Y-127948651D01*
X169581598Y-127948651D01*
X169589448Y-127947798D01*
X169596841Y-127945026D01*
X169596843Y-127945026D01*
X169640750Y-127928566D01*
X169724764Y-127897071D01*
X169731943Y-127891691D01*
X169731946Y-127891689D01*
X169833224Y-127815785D01*
X169840404Y-127810404D01*
X169908595Y-127719417D01*
X169921689Y-127701946D01*
X169921691Y-127701943D01*
X169927071Y-127694764D01*
X169977798Y-127559448D01*
X169979240Y-127546179D01*
X169984131Y-127501153D01*
X169984131Y-127501152D01*
X169984500Y-127497756D01*
X169984500Y-126502244D01*
X169983730Y-126495154D01*
X169978651Y-126448403D01*
X169978651Y-126448402D01*
X169977798Y-126440552D01*
X169927071Y-126305236D01*
X169921691Y-126298057D01*
X169921689Y-126298054D01*
X169845785Y-126196776D01*
X169840404Y-126189596D01*
X169790077Y-126151878D01*
X169731946Y-126108311D01*
X169731943Y-126108309D01*
X169724764Y-126102929D01*
X169615865Y-126062105D01*
X169596843Y-126054974D01*
X169596841Y-126054974D01*
X169589448Y-126052202D01*
X169581598Y-126051349D01*
X169581597Y-126051349D01*
X169531153Y-126045869D01*
X169531152Y-126045869D01*
X169527756Y-126045500D01*
X168782244Y-126045500D01*
X168778848Y-126045869D01*
X168778847Y-126045869D01*
X168728403Y-126051349D01*
X168728402Y-126051349D01*
X168720552Y-126052202D01*
X168713159Y-126054974D01*
X168713157Y-126054974D01*
X168593643Y-126099777D01*
X168593641Y-126099778D01*
X168585236Y-126102929D01*
X168578055Y-126108311D01*
X168570177Y-126112624D01*
X168569099Y-126110655D01*
X168514214Y-126131163D01*
X168444831Y-126116112D01*
X168416057Y-126094584D01*
X168011581Y-125690108D01*
X167977555Y-125627796D01*
X167982620Y-125556981D01*
X168018846Y-125505202D01*
X168119532Y-125419208D01*
X168119535Y-125419205D01*
X168125314Y-125414269D01*
X168217755Y-125285624D01*
X168276842Y-125138641D01*
X168296449Y-125000872D01*
X168298581Y-124985891D01*
X168298581Y-124985888D01*
X168299162Y-124981807D01*
X168299307Y-124968000D01*
X168280276Y-124810733D01*
X168224280Y-124662546D01*
X168199005Y-124625771D01*
X168138855Y-124538251D01*
X168138854Y-124538249D01*
X168134553Y-124531992D01*
X168016275Y-124426611D01*
X168008889Y-124422700D01*
X167882988Y-124356039D01*
X167882989Y-124356039D01*
X167876274Y-124352484D01*
X167722633Y-124313892D01*
X167715034Y-124313852D01*
X167715033Y-124313852D01*
X167649181Y-124313507D01*
X167564221Y-124313062D01*
X167556841Y-124314834D01*
X167556839Y-124314834D01*
X167417563Y-124348271D01*
X167417560Y-124348272D01*
X167410184Y-124350043D01*
X167269414Y-124422700D01*
X167150039Y-124526838D01*
X167058950Y-124656444D01*
X167038445Y-124709037D01*
X167005484Y-124793578D01*
X167001406Y-124804037D01*
X167000415Y-124811568D01*
X167000414Y-124811570D01*
X166993482Y-124864226D01*
X166964759Y-124929153D01*
X166957655Y-124936874D01*
X166935935Y-124958594D01*
X166873623Y-124992620D01*
X166846840Y-124995499D01*
X129957924Y-124995499D01*
X129889803Y-124975497D01*
X129843310Y-124921841D01*
X129833206Y-124851567D01*
X129862700Y-124786987D01*
X129892449Y-124763832D01*
X129891742Y-124762768D01*
X129898072Y-124758562D01*
X129904855Y-124755151D01*
X129910626Y-124750222D01*
X129910629Y-124750220D01*
X130019536Y-124657204D01*
X130019536Y-124657203D01*
X130025314Y-124652269D01*
X130117755Y-124523624D01*
X130176842Y-124376641D01*
X130194156Y-124254983D01*
X130198581Y-124223891D01*
X130198581Y-124223888D01*
X130199162Y-124219807D01*
X130199307Y-124206000D01*
X130180276Y-124048733D01*
X130124280Y-123900546D01*
X130118316Y-123891868D01*
X130117648Y-123889830D01*
X130116459Y-123887555D01*
X130116838Y-123887357D01*
X130096215Y-123824399D01*
X130114100Y-123755692D01*
X130166291Y-123707561D01*
X130222155Y-123694500D01*
X179709500Y-123694500D01*
X179777621Y-123714502D01*
X179824114Y-123768158D01*
X179835500Y-123820500D01*
X179835500Y-126626386D01*
X179815498Y-126694507D01*
X179761842Y-126741000D01*
X179691568Y-126751104D01*
X179626988Y-126721610D01*
X179589070Y-126663435D01*
X179575960Y-126620820D01*
X179546200Y-126524083D01*
X179540265Y-126512583D01*
X179446063Y-126330071D01*
X179446063Y-126330070D01*
X179443491Y-126325088D01*
X179307167Y-126147427D01*
X179303021Y-126143654D01*
X179303016Y-126143649D01*
X179145689Y-126000493D01*
X179141536Y-125996714D01*
X178951833Y-125877714D01*
X178744056Y-125794188D01*
X178738564Y-125793051D01*
X178738562Y-125793050D01*
X178587754Y-125761819D01*
X178524772Y-125748776D01*
X178520161Y-125748510D01*
X178520160Y-125748510D01*
X178469775Y-125745605D01*
X178469771Y-125745605D01*
X178467952Y-125745500D01*
X178323181Y-125745500D01*
X178320394Y-125745749D01*
X178320388Y-125745749D01*
X178251038Y-125751939D01*
X178156949Y-125760336D01*
X177940949Y-125819427D01*
X177935891Y-125821839D01*
X177935887Y-125821841D01*
X177788464Y-125892158D01*
X177738826Y-125915834D01*
X177734265Y-125919111D01*
X177734264Y-125919112D01*
X177578033Y-126031376D01*
X177556970Y-126046511D01*
X177494810Y-126110655D01*
X177411066Y-126197072D01*
X177401129Y-126207326D01*
X177398001Y-126211981D01*
X177287428Y-126376533D01*
X177276230Y-126393197D01*
X177216421Y-126529444D01*
X177203036Y-126559937D01*
X177186218Y-126598248D01*
X177133941Y-126815998D01*
X177132940Y-126833361D01*
X177124181Y-126985284D01*
X177121051Y-127039564D01*
X177147954Y-127261880D01*
X177213800Y-127475917D01*
X177216370Y-127480897D01*
X177216372Y-127480901D01*
X177289211Y-127622024D01*
X177316509Y-127674912D01*
X177452833Y-127852573D01*
X177456979Y-127856346D01*
X177456984Y-127856351D01*
X177604404Y-127990492D01*
X177618464Y-128003286D01*
X177808167Y-128122286D01*
X178015944Y-128205812D01*
X178021436Y-128206949D01*
X178021438Y-128206950D01*
X178158499Y-128235334D01*
X178235228Y-128251224D01*
X178239839Y-128251490D01*
X178239840Y-128251490D01*
X178290225Y-128254395D01*
X178290229Y-128254395D01*
X178292048Y-128254500D01*
X178436819Y-128254500D01*
X178439606Y-128254251D01*
X178439612Y-128254251D01*
X178508962Y-128248061D01*
X178603051Y-128239664D01*
X178819051Y-128180573D01*
X178824109Y-128178161D01*
X178824113Y-128178159D01*
X179016107Y-128086583D01*
X179016109Y-128086582D01*
X179021174Y-128084166D01*
X179031202Y-128076960D01*
X179198470Y-127956766D01*
X179198472Y-127956764D01*
X179203030Y-127953489D01*
X179305138Y-127848122D01*
X179354969Y-127796701D01*
X179354971Y-127796698D01*
X179358871Y-127792674D01*
X179428787Y-127688627D01*
X179480641Y-127611460D01*
X179480643Y-127611457D01*
X179483770Y-127606803D01*
X179556949Y-127440099D01*
X179571525Y-127406894D01*
X179571527Y-127406889D01*
X179573782Y-127401752D01*
X179626059Y-127184002D01*
X179636872Y-126996455D01*
X179660762Y-126929599D01*
X179717005Y-126886272D01*
X179787744Y-126880229D01*
X179850520Y-126913391D01*
X179881176Y-126960922D01*
X179886922Y-126976839D01*
X179886926Y-126976846D01*
X179889972Y-126985284D01*
X179895267Y-126992532D01*
X179896840Y-126995490D01*
X179905093Y-127009614D01*
X179906898Y-127012437D01*
X179910612Y-127020605D01*
X179916469Y-127027402D01*
X179916470Y-127027404D01*
X179941243Y-127056153D01*
X179947525Y-127064064D01*
X179955473Y-127074944D01*
X179966335Y-127085806D01*
X179972693Y-127092652D01*
X180004944Y-127130082D01*
X180012479Y-127134966D01*
X180019051Y-127140699D01*
X180030455Y-127149926D01*
X180187323Y-127306794D01*
X180194865Y-127316234D01*
X180195245Y-127315911D01*
X180201063Y-127322747D01*
X180205853Y-127330339D01*
X180212581Y-127336281D01*
X180245859Y-127365671D01*
X180251546Y-127371017D01*
X180262880Y-127382351D01*
X180266463Y-127385036D01*
X180266465Y-127385038D01*
X180271155Y-127388553D01*
X180278998Y-127394938D01*
X180314170Y-127426001D01*
X180322292Y-127429814D01*
X180325093Y-127431654D01*
X180339088Y-127440063D01*
X180342051Y-127441685D01*
X180349236Y-127447070D01*
X180357646Y-127450223D01*
X180357648Y-127450224D01*
X180393182Y-127463546D01*
X180402495Y-127467470D01*
X180444982Y-127487417D01*
X180453856Y-127488799D01*
X180457083Y-127489785D01*
X180472846Y-127493920D01*
X180476140Y-127494644D01*
X180484552Y-127497798D01*
X180493510Y-127498464D01*
X180493511Y-127498464D01*
X180531350Y-127501276D01*
X180541374Y-127502426D01*
X180554697Y-127504500D01*
X180570062Y-127504500D01*
X180579399Y-127504846D01*
X180628666Y-127508507D01*
X180637441Y-127506634D01*
X180646137Y-127506041D01*
X180660737Y-127504500D01*
X180924275Y-127504500D01*
X180992396Y-127524502D01*
X181038889Y-127578158D01*
X181042257Y-127586271D01*
X181082929Y-127694764D01*
X181088309Y-127701943D01*
X181088311Y-127701946D01*
X181101405Y-127719417D01*
X181169596Y-127810404D01*
X181176776Y-127815785D01*
X181278054Y-127891689D01*
X181278057Y-127891691D01*
X181285236Y-127897071D01*
X181369250Y-127928566D01*
X181413157Y-127945026D01*
X181413159Y-127945026D01*
X181420552Y-127947798D01*
X181428402Y-127948651D01*
X181428403Y-127948651D01*
X181478847Y-127954131D01*
X181482244Y-127954500D01*
X182227756Y-127954500D01*
X182231153Y-127954131D01*
X182281597Y-127948651D01*
X182281598Y-127948651D01*
X182289448Y-127947798D01*
X182296841Y-127945026D01*
X182296843Y-127945026D01*
X182340750Y-127928566D01*
X182424764Y-127897071D01*
X182431943Y-127891691D01*
X182431946Y-127891689D01*
X182533224Y-127815785D01*
X182540404Y-127810404D01*
X182608595Y-127719417D01*
X182621689Y-127701946D01*
X182621691Y-127701943D01*
X182627071Y-127694764D01*
X182677798Y-127559448D01*
X182679240Y-127546179D01*
X182684131Y-127501153D01*
X182684131Y-127501152D01*
X182684500Y-127497756D01*
X183075500Y-127497756D01*
X183075869Y-127501152D01*
X183075869Y-127501153D01*
X183080761Y-127546179D01*
X183082202Y-127559448D01*
X183132929Y-127694764D01*
X183138309Y-127701943D01*
X183138311Y-127701946D01*
X183151405Y-127719417D01*
X183219596Y-127810404D01*
X183335236Y-127897071D01*
X183337384Y-127897876D01*
X183385156Y-127945756D01*
X183400500Y-128006016D01*
X183400500Y-130590870D01*
X183377587Y-130663321D01*
X183314950Y-130752444D01*
X183312190Y-130759524D01*
X183271593Y-130863650D01*
X183257406Y-130900037D01*
X183256414Y-130907570D01*
X183256414Y-130907571D01*
X183238221Y-131045764D01*
X183236729Y-131057096D01*
X183254113Y-131214553D01*
X183256723Y-131221684D01*
X183256723Y-131221686D01*
X183272939Y-131265997D01*
X183308553Y-131363319D01*
X183396908Y-131494805D01*
X183402527Y-131499918D01*
X183402528Y-131499919D01*
X183413903Y-131510269D01*
X183514076Y-131601419D01*
X183653293Y-131677008D01*
X183806522Y-131717207D01*
X183890477Y-131718526D01*
X183957319Y-131719576D01*
X183957322Y-131719576D01*
X183964916Y-131719695D01*
X184119332Y-131684329D01*
X184190280Y-131648646D01*
X184254072Y-131616563D01*
X184254075Y-131616561D01*
X184260855Y-131613151D01*
X184266626Y-131608222D01*
X184266629Y-131608220D01*
X184375536Y-131515204D01*
X184375536Y-131515203D01*
X184381314Y-131510269D01*
X184473755Y-131381624D01*
X184532842Y-131234641D01*
X184549186Y-131119799D01*
X184554581Y-131081891D01*
X184554581Y-131081888D01*
X184555162Y-131077807D01*
X184555307Y-131064000D01*
X184536276Y-130906733D01*
X184480280Y-130758546D01*
X184442500Y-130703576D01*
X184431660Y-130687803D01*
X184409500Y-130616436D01*
X184409500Y-128006016D01*
X184429502Y-127937895D01*
X184472317Y-127897988D01*
X184474764Y-127897071D01*
X184590404Y-127810404D01*
X184658595Y-127719417D01*
X184671689Y-127701946D01*
X184671691Y-127701943D01*
X184677071Y-127694764D01*
X184727798Y-127559448D01*
X184729240Y-127546179D01*
X184734131Y-127501153D01*
X184734131Y-127501152D01*
X184734500Y-127497756D01*
X184734500Y-127039564D01*
X186121051Y-127039564D01*
X186147954Y-127261880D01*
X186213800Y-127475917D01*
X186216370Y-127480897D01*
X186216372Y-127480901D01*
X186289211Y-127622024D01*
X186316509Y-127674912D01*
X186452833Y-127852573D01*
X186456979Y-127856346D01*
X186456984Y-127856351D01*
X186604404Y-127990492D01*
X186618464Y-128003286D01*
X186808167Y-128122286D01*
X187015944Y-128205812D01*
X187021436Y-128206949D01*
X187021438Y-128206950D01*
X187158499Y-128235334D01*
X187235228Y-128251224D01*
X187239839Y-128251490D01*
X187239840Y-128251490D01*
X187290225Y-128254395D01*
X187290229Y-128254395D01*
X187292048Y-128254500D01*
X187436819Y-128254500D01*
X187439606Y-128254251D01*
X187439612Y-128254251D01*
X187508962Y-128248061D01*
X187603051Y-128239664D01*
X187819051Y-128180573D01*
X187824109Y-128178161D01*
X187824113Y-128178159D01*
X188016107Y-128086583D01*
X188016109Y-128086582D01*
X188021174Y-128084166D01*
X188031202Y-128076960D01*
X188198470Y-127956766D01*
X188198472Y-127956764D01*
X188203030Y-127953489D01*
X188305138Y-127848122D01*
X188354969Y-127796701D01*
X188354971Y-127796698D01*
X188358871Y-127792674D01*
X188428787Y-127688627D01*
X188480641Y-127611460D01*
X188480643Y-127611457D01*
X188483770Y-127606803D01*
X188556949Y-127440099D01*
X188571525Y-127406894D01*
X188571527Y-127406889D01*
X188573782Y-127401752D01*
X188626059Y-127184002D01*
X188634387Y-127039564D01*
X189821051Y-127039564D01*
X189847954Y-127261880D01*
X189913800Y-127475917D01*
X189916370Y-127480897D01*
X189916372Y-127480901D01*
X189989211Y-127622024D01*
X190016509Y-127674912D01*
X190152833Y-127852573D01*
X190156979Y-127856346D01*
X190156984Y-127856351D01*
X190304404Y-127990492D01*
X190318464Y-128003286D01*
X190508167Y-128122286D01*
X190715944Y-128205812D01*
X190721436Y-128206949D01*
X190721438Y-128206950D01*
X190858499Y-128235334D01*
X190935228Y-128251224D01*
X190939839Y-128251490D01*
X190939840Y-128251490D01*
X190990225Y-128254395D01*
X190990229Y-128254395D01*
X190992048Y-128254500D01*
X191136819Y-128254500D01*
X191139606Y-128254251D01*
X191139612Y-128254251D01*
X191208962Y-128248061D01*
X191303051Y-128239664D01*
X191519051Y-128180573D01*
X191524109Y-128178161D01*
X191524113Y-128178159D01*
X191716107Y-128086583D01*
X191716109Y-128086582D01*
X191721174Y-128084166D01*
X191731202Y-128076960D01*
X191898470Y-127956766D01*
X191898472Y-127956764D01*
X191903030Y-127953489D01*
X192005138Y-127848122D01*
X192054969Y-127796701D01*
X192054971Y-127796698D01*
X192058871Y-127792674D01*
X192128787Y-127688627D01*
X192180641Y-127611460D01*
X192180643Y-127611457D01*
X192183770Y-127606803D01*
X192256949Y-127440099D01*
X192271525Y-127406894D01*
X192271527Y-127406889D01*
X192273782Y-127401752D01*
X192326059Y-127184002D01*
X192337066Y-126993096D01*
X192338626Y-126966043D01*
X192338626Y-126966040D01*
X192338949Y-126960436D01*
X192312046Y-126738120D01*
X192246200Y-126524083D01*
X192240265Y-126512583D01*
X192146063Y-126330071D01*
X192146063Y-126330070D01*
X192143491Y-126325088D01*
X192007167Y-126147427D01*
X192003021Y-126143654D01*
X192003016Y-126143649D01*
X191845689Y-126000493D01*
X191841536Y-125996714D01*
X191651833Y-125877714D01*
X191444056Y-125794188D01*
X191438564Y-125793051D01*
X191438562Y-125793050D01*
X191287754Y-125761819D01*
X191224772Y-125748776D01*
X191220161Y-125748510D01*
X191220160Y-125748510D01*
X191169775Y-125745605D01*
X191169771Y-125745605D01*
X191167952Y-125745500D01*
X191023181Y-125745500D01*
X191020394Y-125745749D01*
X191020388Y-125745749D01*
X190951038Y-125751939D01*
X190856949Y-125760336D01*
X190640949Y-125819427D01*
X190635891Y-125821839D01*
X190635887Y-125821841D01*
X190488464Y-125892158D01*
X190438826Y-125915834D01*
X190434265Y-125919111D01*
X190434264Y-125919112D01*
X190278033Y-126031376D01*
X190256970Y-126046511D01*
X190194810Y-126110655D01*
X190111066Y-126197072D01*
X190101129Y-126207326D01*
X190098001Y-126211981D01*
X189987428Y-126376533D01*
X189976230Y-126393197D01*
X189916421Y-126529444D01*
X189903036Y-126559937D01*
X189886218Y-126598248D01*
X189833941Y-126815998D01*
X189832940Y-126833361D01*
X189824181Y-126985284D01*
X189821051Y-127039564D01*
X188634387Y-127039564D01*
X188637066Y-126993096D01*
X188638626Y-126966043D01*
X188638626Y-126966040D01*
X188638949Y-126960436D01*
X188612046Y-126738120D01*
X188546200Y-126524083D01*
X188540265Y-126512583D01*
X188446063Y-126330071D01*
X188446063Y-126330070D01*
X188443491Y-126325088D01*
X188307167Y-126147427D01*
X188303021Y-126143654D01*
X188303016Y-126143649D01*
X188145689Y-126000493D01*
X188141536Y-125996714D01*
X187951833Y-125877714D01*
X187744056Y-125794188D01*
X187738564Y-125793051D01*
X187738562Y-125793050D01*
X187587754Y-125761819D01*
X187524772Y-125748776D01*
X187520161Y-125748510D01*
X187520160Y-125748510D01*
X187469775Y-125745605D01*
X187469771Y-125745605D01*
X187467952Y-125745500D01*
X187323181Y-125745500D01*
X187320394Y-125745749D01*
X187320388Y-125745749D01*
X187251038Y-125751939D01*
X187156949Y-125760336D01*
X186940949Y-125819427D01*
X186935891Y-125821839D01*
X186935887Y-125821841D01*
X186788464Y-125892158D01*
X186738826Y-125915834D01*
X186734265Y-125919111D01*
X186734264Y-125919112D01*
X186578033Y-126031376D01*
X186556970Y-126046511D01*
X186494810Y-126110655D01*
X186411066Y-126197072D01*
X186401129Y-126207326D01*
X186398001Y-126211981D01*
X186287428Y-126376533D01*
X186276230Y-126393197D01*
X186216421Y-126529444D01*
X186203036Y-126559937D01*
X186186218Y-126598248D01*
X186133941Y-126815998D01*
X186132940Y-126833361D01*
X186124181Y-126985284D01*
X186121051Y-127039564D01*
X184734500Y-127039564D01*
X184734500Y-126502244D01*
X184733730Y-126495154D01*
X184728651Y-126448403D01*
X184728651Y-126448402D01*
X184727798Y-126440552D01*
X184677071Y-126305236D01*
X184671691Y-126298057D01*
X184671689Y-126298054D01*
X184595785Y-126196776D01*
X184590404Y-126189596D01*
X184540077Y-126151878D01*
X184481946Y-126108311D01*
X184481943Y-126108309D01*
X184474764Y-126102929D01*
X184365865Y-126062105D01*
X184346843Y-126054974D01*
X184346841Y-126054974D01*
X184339448Y-126052202D01*
X184331598Y-126051349D01*
X184331597Y-126051349D01*
X184281153Y-126045869D01*
X184281152Y-126045869D01*
X184277756Y-126045500D01*
X183532244Y-126045500D01*
X183528848Y-126045869D01*
X183528847Y-126045869D01*
X183478403Y-126051349D01*
X183478402Y-126051349D01*
X183470552Y-126052202D01*
X183463159Y-126054974D01*
X183463157Y-126054974D01*
X183444135Y-126062105D01*
X183335236Y-126102929D01*
X183328057Y-126108309D01*
X183328054Y-126108311D01*
X183269923Y-126151878D01*
X183219596Y-126189596D01*
X183214215Y-126196776D01*
X183138311Y-126298054D01*
X183138309Y-126298057D01*
X183132929Y-126305236D01*
X183082202Y-126440552D01*
X183081349Y-126448402D01*
X183081349Y-126448403D01*
X183076270Y-126495154D01*
X183075500Y-126502244D01*
X183075500Y-127497756D01*
X182684500Y-127497756D01*
X182684500Y-126502244D01*
X182683730Y-126495154D01*
X182678651Y-126448403D01*
X182678651Y-126448402D01*
X182677798Y-126440552D01*
X182627071Y-126305236D01*
X182621691Y-126298057D01*
X182621689Y-126298054D01*
X182545785Y-126196776D01*
X182540404Y-126189596D01*
X182490077Y-126151878D01*
X182431946Y-126108311D01*
X182431943Y-126108309D01*
X182424764Y-126102929D01*
X182315865Y-126062105D01*
X182296843Y-126054974D01*
X182296841Y-126054974D01*
X182289448Y-126052202D01*
X182281598Y-126051349D01*
X182281597Y-126051349D01*
X182231153Y-126045869D01*
X182231152Y-126045869D01*
X182227756Y-126045500D01*
X181482244Y-126045500D01*
X181478848Y-126045869D01*
X181478847Y-126045869D01*
X181428403Y-126051349D01*
X181428402Y-126051349D01*
X181420552Y-126052202D01*
X181413159Y-126054974D01*
X181413157Y-126054974D01*
X181394135Y-126062105D01*
X181285236Y-126102929D01*
X181278057Y-126108309D01*
X181278054Y-126108311D01*
X181219923Y-126151878D01*
X181169596Y-126189596D01*
X181125790Y-126248046D01*
X181090777Y-126294765D01*
X181082929Y-126305236D01*
X181080394Y-126311997D01*
X181030762Y-126361519D01*
X180961371Y-126376533D01*
X180894878Y-126351648D01*
X180852395Y-126294765D01*
X180844500Y-126250864D01*
X180844500Y-123198602D01*
X180844502Y-123197833D01*
X180844948Y-123124740D01*
X180844972Y-123120827D01*
X180844590Y-123119492D01*
X180844500Y-123118164D01*
X180844500Y-122126144D01*
X180868176Y-122052620D01*
X180917755Y-121983624D01*
X180976842Y-121836641D01*
X180994156Y-121714983D01*
X180998581Y-121683891D01*
X180998581Y-121683888D01*
X180999162Y-121679807D01*
X180999307Y-121666000D01*
X180980276Y-121508733D01*
X180924280Y-121360546D01*
X180918316Y-121351868D01*
X180917648Y-121349830D01*
X180916459Y-121347555D01*
X180916838Y-121347357D01*
X180896215Y-121284399D01*
X180914100Y-121215692D01*
X180966291Y-121167561D01*
X181022155Y-121154500D01*
X191507398Y-121154500D01*
X191508166Y-121154502D01*
X191585173Y-121154972D01*
X191586508Y-121154590D01*
X191587836Y-121154500D01*
X193032839Y-121154500D01*
X193100960Y-121174502D01*
X193121934Y-121191405D01*
X194013595Y-122083066D01*
X194047621Y-122145378D01*
X194050500Y-122172161D01*
X194050500Y-125993984D01*
X194030498Y-126062105D01*
X193987683Y-126102012D01*
X193985236Y-126102929D01*
X193869596Y-126189596D01*
X193864215Y-126196776D01*
X193788311Y-126298054D01*
X193788309Y-126298057D01*
X193782929Y-126305236D01*
X193732202Y-126440552D01*
X193731349Y-126448402D01*
X193731349Y-126448403D01*
X193726270Y-126495154D01*
X193725500Y-126502244D01*
X193725500Y-127497756D01*
X193725869Y-127501152D01*
X193725869Y-127501153D01*
X193730761Y-127546179D01*
X193732202Y-127559448D01*
X193782929Y-127694764D01*
X193788309Y-127701943D01*
X193788311Y-127701946D01*
X193801405Y-127719417D01*
X193869596Y-127810404D01*
X193876776Y-127815785D01*
X193978054Y-127891689D01*
X193978057Y-127891691D01*
X193985236Y-127897071D01*
X194069250Y-127928566D01*
X194113157Y-127945026D01*
X194113159Y-127945026D01*
X194120552Y-127947798D01*
X194128402Y-127948651D01*
X194128403Y-127948651D01*
X194178847Y-127954131D01*
X194182244Y-127954500D01*
X194927756Y-127954500D01*
X194931153Y-127954131D01*
X194981597Y-127948651D01*
X194981598Y-127948651D01*
X194989448Y-127947798D01*
X194996841Y-127945026D01*
X194996843Y-127945026D01*
X195040750Y-127928566D01*
X195124764Y-127897071D01*
X195131943Y-127891691D01*
X195131946Y-127891689D01*
X195233224Y-127815785D01*
X195240404Y-127810404D01*
X195308595Y-127719417D01*
X195321689Y-127701946D01*
X195321691Y-127701943D01*
X195327071Y-127694764D01*
X195377798Y-127559448D01*
X195379240Y-127546179D01*
X195384131Y-127501153D01*
X195384131Y-127501152D01*
X195384500Y-127497756D01*
X195775500Y-127497756D01*
X195775869Y-127501152D01*
X195775869Y-127501153D01*
X195780761Y-127546179D01*
X195782202Y-127559448D01*
X195832929Y-127694764D01*
X195838309Y-127701943D01*
X195838311Y-127701946D01*
X195851405Y-127719417D01*
X195919596Y-127810404D01*
X196035236Y-127897071D01*
X196037384Y-127897876D01*
X196085156Y-127945756D01*
X196100500Y-128006016D01*
X196100500Y-130590870D01*
X196077587Y-130663321D01*
X196014950Y-130752444D01*
X196012190Y-130759524D01*
X195971593Y-130863650D01*
X195957406Y-130900037D01*
X195956414Y-130907570D01*
X195956414Y-130907571D01*
X195938221Y-131045764D01*
X195936729Y-131057096D01*
X195954113Y-131214553D01*
X195956723Y-131221684D01*
X195956723Y-131221686D01*
X195972939Y-131265997D01*
X196008553Y-131363319D01*
X196096908Y-131494805D01*
X196102527Y-131499918D01*
X196102528Y-131499919D01*
X196113903Y-131510269D01*
X196214076Y-131601419D01*
X196353293Y-131677008D01*
X196506522Y-131717207D01*
X196590477Y-131718526D01*
X196657319Y-131719576D01*
X196657322Y-131719576D01*
X196664916Y-131719695D01*
X196819332Y-131684329D01*
X196890280Y-131648646D01*
X196954072Y-131616563D01*
X196954075Y-131616561D01*
X196960855Y-131613151D01*
X196966626Y-131608222D01*
X196966629Y-131608220D01*
X197075536Y-131515204D01*
X197075536Y-131515203D01*
X197081314Y-131510269D01*
X197173755Y-131381624D01*
X197232842Y-131234641D01*
X197249186Y-131119799D01*
X197254581Y-131081891D01*
X197254581Y-131081888D01*
X197255162Y-131077807D01*
X197255307Y-131064000D01*
X197236276Y-130906733D01*
X197180280Y-130758546D01*
X197142500Y-130703576D01*
X197131660Y-130687803D01*
X197109500Y-130616436D01*
X197109500Y-128006016D01*
X197129502Y-127937895D01*
X197172317Y-127897988D01*
X197174764Y-127897071D01*
X197290404Y-127810404D01*
X197358595Y-127719417D01*
X197371689Y-127701946D01*
X197371691Y-127701943D01*
X197377071Y-127694764D01*
X197427798Y-127559448D01*
X197429240Y-127546179D01*
X197434131Y-127501153D01*
X197434131Y-127501152D01*
X197434500Y-127497756D01*
X197434500Y-127039564D01*
X198821051Y-127039564D01*
X198847954Y-127261880D01*
X198913800Y-127475917D01*
X198916370Y-127480897D01*
X198916372Y-127480901D01*
X198989211Y-127622024D01*
X199016509Y-127674912D01*
X199152833Y-127852573D01*
X199156979Y-127856346D01*
X199156984Y-127856351D01*
X199304404Y-127990492D01*
X199318464Y-128003286D01*
X199508167Y-128122286D01*
X199715944Y-128205812D01*
X199721436Y-128206949D01*
X199721438Y-128206950D01*
X199858499Y-128235334D01*
X199935228Y-128251224D01*
X199939839Y-128251490D01*
X199939840Y-128251490D01*
X199990225Y-128254395D01*
X199990229Y-128254395D01*
X199992048Y-128254500D01*
X200136819Y-128254500D01*
X200139606Y-128254251D01*
X200139612Y-128254251D01*
X200208962Y-128248061D01*
X200303051Y-128239664D01*
X200519051Y-128180573D01*
X200524109Y-128178161D01*
X200524113Y-128178159D01*
X200716107Y-128086583D01*
X200716109Y-128086582D01*
X200721174Y-128084166D01*
X200731202Y-128076960D01*
X200898470Y-127956766D01*
X200898472Y-127956764D01*
X200903030Y-127953489D01*
X201005138Y-127848122D01*
X201054969Y-127796701D01*
X201054971Y-127796698D01*
X201058871Y-127792674D01*
X201128787Y-127688627D01*
X201180641Y-127611460D01*
X201180643Y-127611457D01*
X201183770Y-127606803D01*
X201256949Y-127440099D01*
X201271525Y-127406894D01*
X201271527Y-127406889D01*
X201273782Y-127401752D01*
X201326059Y-127184002D01*
X201337066Y-126993096D01*
X201338626Y-126966043D01*
X201338626Y-126966040D01*
X201338949Y-126960436D01*
X201312046Y-126738120D01*
X201246200Y-126524083D01*
X201240265Y-126512583D01*
X201146063Y-126330071D01*
X201146063Y-126330070D01*
X201143491Y-126325088D01*
X201007167Y-126147427D01*
X201003021Y-126143654D01*
X201003016Y-126143649D01*
X200845689Y-126000493D01*
X200841536Y-125996714D01*
X200651833Y-125877714D01*
X200444056Y-125794188D01*
X200438564Y-125793051D01*
X200438562Y-125793050D01*
X200287754Y-125761819D01*
X200224772Y-125748776D01*
X200220161Y-125748510D01*
X200220160Y-125748510D01*
X200169775Y-125745605D01*
X200169771Y-125745605D01*
X200167952Y-125745500D01*
X200023181Y-125745500D01*
X200020394Y-125745749D01*
X200020388Y-125745749D01*
X199951038Y-125751939D01*
X199856949Y-125760336D01*
X199640949Y-125819427D01*
X199635891Y-125821839D01*
X199635887Y-125821841D01*
X199488464Y-125892158D01*
X199438826Y-125915834D01*
X199434265Y-125919111D01*
X199434264Y-125919112D01*
X199278033Y-126031376D01*
X199256970Y-126046511D01*
X199194810Y-126110655D01*
X199111066Y-126197072D01*
X199101129Y-126207326D01*
X199098001Y-126211981D01*
X198987428Y-126376533D01*
X198976230Y-126393197D01*
X198916421Y-126529444D01*
X198903036Y-126559937D01*
X198886218Y-126598248D01*
X198833941Y-126815998D01*
X198832940Y-126833361D01*
X198824181Y-126985284D01*
X198821051Y-127039564D01*
X197434500Y-127039564D01*
X197434500Y-126502244D01*
X197433730Y-126495154D01*
X197428651Y-126448403D01*
X197428651Y-126448402D01*
X197427798Y-126440552D01*
X197377071Y-126305236D01*
X197371691Y-126298057D01*
X197371689Y-126298054D01*
X197295785Y-126196776D01*
X197290404Y-126189596D01*
X197240077Y-126151878D01*
X197181946Y-126108311D01*
X197181943Y-126108309D01*
X197174764Y-126102929D01*
X197065865Y-126062105D01*
X197046843Y-126054974D01*
X197046841Y-126054974D01*
X197039448Y-126052202D01*
X197031598Y-126051349D01*
X197031597Y-126051349D01*
X196981153Y-126045869D01*
X196981152Y-126045869D01*
X196977756Y-126045500D01*
X196232244Y-126045500D01*
X196228848Y-126045869D01*
X196228847Y-126045869D01*
X196178403Y-126051349D01*
X196178402Y-126051349D01*
X196170552Y-126052202D01*
X196163159Y-126054974D01*
X196163157Y-126054974D01*
X196144135Y-126062105D01*
X196035236Y-126102929D01*
X196028057Y-126108309D01*
X196028054Y-126108311D01*
X195969923Y-126151878D01*
X195919596Y-126189596D01*
X195914215Y-126196776D01*
X195838311Y-126298054D01*
X195838309Y-126298057D01*
X195832929Y-126305236D01*
X195782202Y-126440552D01*
X195781349Y-126448402D01*
X195781349Y-126448403D01*
X195776270Y-126495154D01*
X195775500Y-126502244D01*
X195775500Y-127497756D01*
X195384500Y-127497756D01*
X195384500Y-126502244D01*
X195383730Y-126495154D01*
X195378651Y-126448403D01*
X195378651Y-126448402D01*
X195377798Y-126440552D01*
X195327071Y-126305236D01*
X195321691Y-126298057D01*
X195321689Y-126298054D01*
X195245785Y-126196776D01*
X195240404Y-126189596D01*
X195124764Y-126102929D01*
X195122616Y-126102124D01*
X195074844Y-126054244D01*
X195059500Y-125993984D01*
X195059500Y-121981624D01*
X195060841Y-121969619D01*
X195060345Y-121969579D01*
X195061065Y-121960632D01*
X195063046Y-121951876D01*
X195059742Y-121898618D01*
X195059500Y-121890816D01*
X195059500Y-121874774D01*
X195058035Y-121864543D01*
X195057003Y-121854477D01*
X195056335Y-121843695D01*
X195054098Y-121807641D01*
X195051051Y-121799201D01*
X195050370Y-121795911D01*
X195046418Y-121780062D01*
X195045473Y-121776832D01*
X195044201Y-121767948D01*
X195024774Y-121725218D01*
X195020964Y-121715860D01*
X195008075Y-121680158D01*
X195008074Y-121680157D01*
X195005027Y-121671716D01*
X194999731Y-121664467D01*
X194998146Y-121661486D01*
X194989920Y-121647408D01*
X194988104Y-121644569D01*
X194984388Y-121636395D01*
X194953757Y-121600846D01*
X194947465Y-121592923D01*
X194939527Y-121582056D01*
X194928665Y-121571194D01*
X194922307Y-121564347D01*
X194895915Y-121533718D01*
X194890056Y-121526918D01*
X194882521Y-121522034D01*
X194875949Y-121516301D01*
X194864545Y-121507074D01*
X193700677Y-120343206D01*
X193693135Y-120333766D01*
X193692755Y-120334089D01*
X193686937Y-120327253D01*
X193682147Y-120319661D01*
X193642140Y-120284328D01*
X193636454Y-120278983D01*
X193625120Y-120267649D01*
X193616845Y-120261447D01*
X193609000Y-120255060D01*
X193580557Y-120229940D01*
X193573830Y-120223999D01*
X193565708Y-120220186D01*
X193562907Y-120218346D01*
X193548912Y-120209937D01*
X193545949Y-120208315D01*
X193538764Y-120202930D01*
X193530354Y-120199777D01*
X193530352Y-120199776D01*
X193494818Y-120186454D01*
X193485502Y-120182529D01*
X193443018Y-120162583D01*
X193434144Y-120161201D01*
X193430917Y-120160215D01*
X193415134Y-120156075D01*
X193411856Y-120155354D01*
X193403448Y-120152202D01*
X193389691Y-120151180D01*
X193356643Y-120148724D01*
X193346596Y-120147570D01*
X193338114Y-120146249D01*
X193338111Y-120146249D01*
X193333303Y-120145500D01*
X193317938Y-120145500D01*
X193308601Y-120145154D01*
X193292519Y-120143959D01*
X193259333Y-120141493D01*
X193250558Y-120143366D01*
X193241862Y-120143959D01*
X193227262Y-120145500D01*
X192285682Y-120145500D01*
X192217561Y-120125498D01*
X192171068Y-120071842D01*
X192160939Y-120001747D01*
X192174581Y-119905891D01*
X192174581Y-119905888D01*
X192175162Y-119901807D01*
X192175307Y-119888000D01*
X192156276Y-119730733D01*
X192100280Y-119582546D01*
X192075005Y-119545771D01*
X192014855Y-119458251D01*
X192014854Y-119458249D01*
X192010553Y-119451992D01*
X191892275Y-119346611D01*
X191884889Y-119342700D01*
X191758988Y-119276039D01*
X191758989Y-119276039D01*
X191752274Y-119272484D01*
X191598633Y-119233892D01*
X191591034Y-119233852D01*
X191591033Y-119233852D01*
X191525181Y-119233507D01*
X191440221Y-119233062D01*
X191432841Y-119234834D01*
X191432839Y-119234834D01*
X191293563Y-119268271D01*
X191293560Y-119268272D01*
X191286184Y-119270043D01*
X191145414Y-119342700D01*
X191026039Y-119446838D01*
X190934950Y-119576444D01*
X190929802Y-119589649D01*
X190881484Y-119713578D01*
X190877406Y-119724037D01*
X190876414Y-119731570D01*
X190876414Y-119731571D01*
X190861282Y-119846514D01*
X190856729Y-119881096D01*
X190870483Y-120005673D01*
X190858077Y-120075577D01*
X190809848Y-120127677D01*
X190745244Y-120145500D01*
X97131410Y-120145500D01*
X97063289Y-120125498D01*
X97028640Y-120092400D01*
X96913370Y-119929900D01*
X96913369Y-119929899D01*
X96909904Y-119925014D01*
X96757660Y-119779272D01*
X96655918Y-119713578D01*
X96585640Y-119668200D01*
X96585637Y-119668199D01*
X96580603Y-119664948D01*
X96385122Y-119586166D01*
X96250739Y-119559923D01*
X96182717Y-119546639D01*
X96182714Y-119546639D01*
X96178271Y-119545771D01*
X96172730Y-119545500D01*
X95177341Y-119545500D01*
X95020194Y-119560493D01*
X95014434Y-119562183D01*
X95014433Y-119562183D01*
X94941689Y-119583524D01*
X94817958Y-119619823D01*
X94812619Y-119622573D01*
X94635921Y-119713578D01*
X94635918Y-119713580D01*
X94630590Y-119716324D01*
X94625875Y-119720028D01*
X94469568Y-119842808D01*
X94469564Y-119842812D01*
X94464851Y-119846514D01*
X94460920Y-119851044D01*
X94460919Y-119851045D01*
X94330650Y-120001165D01*
X94330646Y-120001170D01*
X94326719Y-120005696D01*
X94221181Y-120188126D01*
X94152043Y-120387222D01*
X94121801Y-120595800D01*
X94131545Y-120806333D01*
X94180924Y-121011226D01*
X94268157Y-121203084D01*
X94357243Y-121328671D01*
X94366414Y-121341600D01*
X94389512Y-121408734D01*
X94372648Y-121477699D01*
X94321176Y-121526598D01*
X94263644Y-121540500D01*
X94189384Y-121540500D01*
X94121263Y-121520498D01*
X94100289Y-121503595D01*
X93786858Y-121190164D01*
X93752832Y-121127852D01*
X93756925Y-121059736D01*
X93805990Y-120918443D01*
X93805991Y-120918441D01*
X93807957Y-120912778D01*
X93838199Y-120704200D01*
X93828455Y-120493667D01*
X93804233Y-120393158D01*
X93780482Y-120294607D01*
X93780481Y-120294605D01*
X93779076Y-120288774D01*
X93774625Y-120278983D01*
X93705829Y-120127677D01*
X93691843Y-120096916D01*
X93569904Y-119925014D01*
X93417660Y-119779272D01*
X93315918Y-119713578D01*
X93245640Y-119668200D01*
X93245637Y-119668199D01*
X93240603Y-119664948D01*
X93045122Y-119586166D01*
X92910739Y-119559923D01*
X92842717Y-119546639D01*
X92842714Y-119546639D01*
X92838271Y-119545771D01*
X92832730Y-119545500D01*
X91837341Y-119545500D01*
X91680194Y-119560493D01*
X91674434Y-119562183D01*
X91674433Y-119562183D01*
X91601689Y-119583524D01*
X91477958Y-119619823D01*
X91472619Y-119622573D01*
X91295921Y-119713578D01*
X91295918Y-119713580D01*
X91290590Y-119716324D01*
X91210454Y-119779272D01*
X91136333Y-119837495D01*
X91070408Y-119863845D01*
X91000702Y-119850370D01*
X90949346Y-119801349D01*
X90932500Y-119738409D01*
X90932500Y-118998500D01*
X90952502Y-118930379D01*
X91006158Y-118883886D01*
X91058500Y-118872500D01*
X201549500Y-118872500D01*
X201617621Y-118892502D01*
G37*
G04 #@! TD.AperFunction*
G04 #@! TD*
M02*
