M48
; DRILL file {KiCad 5.1.4+dfsg1-1} date Fri 13 Dec 2019 05:22:58 AM PST
; FORMAT={-:-/ absolute / metric / decimal}
; #@! TF.CreationDate,2019-12-13T05:22:58-08:00
; #@! TF.GenerationSoftware,Kicad,Pcbnew,5.1.4+dfsg1-1
FMAT,2
METRIC
T1C0.400
T2C0.550
T3C1.000
%
G90
G05
T1
X1.016Y-8.001
X8.001Y-1.016
X8.128Y-2.54
X8.128Y-12.7
X9.652Y-7.62
X9.873Y-3.235
X11.684Y-4.064
X11.938Y-7.112
X15.362Y-3.17
X15.748Y-9.144
X16.288Y-13.176
X17.145Y-2.73
T2
X4.328Y-6.016
X4.328Y-10.016
T3
X20.066Y-1.651
X20.066Y-4.191
X20.066Y-6.731
X20.066Y-9.271
X20.066Y-11.811
X20.066Y-14.351
T0
M30
