G04 #@! TF.GenerationSoftware,KiCad,Pcbnew,5.1.4+dfsg1-1*
G04 #@! TF.CreationDate,2019-12-13T05:22:49-08:00*
G04 #@! TF.ProjectId,pmod-ftdi,706d6f64-2d66-4746-9469-2e6b69636164,rev?*
G04 #@! TF.SameCoordinates,PX5b906e0PY4a1f960*
G04 #@! TF.FileFunction,Paste,Bot*
G04 #@! TF.FilePolarity,Positive*
%FSLAX46Y46*%
G04 Gerber Fmt 4.6, Leading zero omitted, Abs format (unit mm)*
G04 Created by KiCad (PCBNEW 5.1.4+dfsg1-1) date 2019-12-13 05:22:49*
%MOMM*%
%LPD*%
G04 APERTURE LIST*
%ADD10R,0.600000X1.550000*%
%ADD11C,0.100000*%
%ADD12C,0.950000*%
G04 APERTURE END LIST*
D10*
X17018000Y-5301000D03*
X15748000Y-5301000D03*
X14478000Y-5301000D03*
X13208000Y-5301000D03*
X11938000Y-5301000D03*
X10668000Y-5301000D03*
X9398000Y-5301000D03*
X8128000Y-5301000D03*
X8128000Y-10701000D03*
X9398000Y-10701000D03*
X10668000Y-10701000D03*
X11938000Y-10701000D03*
X13208000Y-10701000D03*
X14478000Y-10701000D03*
X15748000Y-10701000D03*
X17018000Y-10701000D03*
D11*
G36*
X7281779Y-2066144D02*
G01*
X7304834Y-2069563D01*
X7327443Y-2075227D01*
X7349387Y-2083079D01*
X7370457Y-2093044D01*
X7390448Y-2105026D01*
X7409168Y-2118910D01*
X7426438Y-2134562D01*
X7442090Y-2151832D01*
X7455974Y-2170552D01*
X7467956Y-2190543D01*
X7477921Y-2211613D01*
X7485773Y-2233557D01*
X7491437Y-2256166D01*
X7494856Y-2279221D01*
X7496000Y-2302500D01*
X7496000Y-2777500D01*
X7494856Y-2800779D01*
X7491437Y-2823834D01*
X7485773Y-2846443D01*
X7477921Y-2868387D01*
X7467956Y-2889457D01*
X7455974Y-2909448D01*
X7442090Y-2928168D01*
X7426438Y-2945438D01*
X7409168Y-2961090D01*
X7390448Y-2974974D01*
X7370457Y-2986956D01*
X7349387Y-2996921D01*
X7327443Y-3004773D01*
X7304834Y-3010437D01*
X7281779Y-3013856D01*
X7258500Y-3015000D01*
X6683500Y-3015000D01*
X6660221Y-3013856D01*
X6637166Y-3010437D01*
X6614557Y-3004773D01*
X6592613Y-2996921D01*
X6571543Y-2986956D01*
X6551552Y-2974974D01*
X6532832Y-2961090D01*
X6515562Y-2945438D01*
X6499910Y-2928168D01*
X6486026Y-2909448D01*
X6474044Y-2889457D01*
X6464079Y-2868387D01*
X6456227Y-2846443D01*
X6450563Y-2823834D01*
X6447144Y-2800779D01*
X6446000Y-2777500D01*
X6446000Y-2302500D01*
X6447144Y-2279221D01*
X6450563Y-2256166D01*
X6456227Y-2233557D01*
X6464079Y-2211613D01*
X6474044Y-2190543D01*
X6486026Y-2170552D01*
X6499910Y-2151832D01*
X6515562Y-2134562D01*
X6532832Y-2118910D01*
X6551552Y-2105026D01*
X6571543Y-2093044D01*
X6592613Y-2083079D01*
X6614557Y-2075227D01*
X6637166Y-2069563D01*
X6660221Y-2066144D01*
X6683500Y-2065000D01*
X7258500Y-2065000D01*
X7281779Y-2066144D01*
X7281779Y-2066144D01*
G37*
D12*
X6971000Y-2540000D03*
D11*
G36*
X5531779Y-2066144D02*
G01*
X5554834Y-2069563D01*
X5577443Y-2075227D01*
X5599387Y-2083079D01*
X5620457Y-2093044D01*
X5640448Y-2105026D01*
X5659168Y-2118910D01*
X5676438Y-2134562D01*
X5692090Y-2151832D01*
X5705974Y-2170552D01*
X5717956Y-2190543D01*
X5727921Y-2211613D01*
X5735773Y-2233557D01*
X5741437Y-2256166D01*
X5744856Y-2279221D01*
X5746000Y-2302500D01*
X5746000Y-2777500D01*
X5744856Y-2800779D01*
X5741437Y-2823834D01*
X5735773Y-2846443D01*
X5727921Y-2868387D01*
X5717956Y-2889457D01*
X5705974Y-2909448D01*
X5692090Y-2928168D01*
X5676438Y-2945438D01*
X5659168Y-2961090D01*
X5640448Y-2974974D01*
X5620457Y-2986956D01*
X5599387Y-2996921D01*
X5577443Y-3004773D01*
X5554834Y-3010437D01*
X5531779Y-3013856D01*
X5508500Y-3015000D01*
X4933500Y-3015000D01*
X4910221Y-3013856D01*
X4887166Y-3010437D01*
X4864557Y-3004773D01*
X4842613Y-2996921D01*
X4821543Y-2986956D01*
X4801552Y-2974974D01*
X4782832Y-2961090D01*
X4765562Y-2945438D01*
X4749910Y-2928168D01*
X4736026Y-2909448D01*
X4724044Y-2889457D01*
X4714079Y-2868387D01*
X4706227Y-2846443D01*
X4700563Y-2823834D01*
X4697144Y-2800779D01*
X4696000Y-2777500D01*
X4696000Y-2302500D01*
X4697144Y-2279221D01*
X4700563Y-2256166D01*
X4706227Y-2233557D01*
X4714079Y-2211613D01*
X4724044Y-2190543D01*
X4736026Y-2170552D01*
X4749910Y-2151832D01*
X4765562Y-2134562D01*
X4782832Y-2118910D01*
X4801552Y-2105026D01*
X4821543Y-2093044D01*
X4842613Y-2083079D01*
X4864557Y-2075227D01*
X4887166Y-2069563D01*
X4910221Y-2066144D01*
X4933500Y-2065000D01*
X5508500Y-2065000D01*
X5531779Y-2066144D01*
X5531779Y-2066144D01*
G37*
D12*
X5221000Y-2540000D03*
M02*
