G04 #@! TF.GenerationSoftware,KiCad,Pcbnew,5.1.4+dfsg1-1*
G04 #@! TF.CreationDate,2019-12-13T05:22:49-08:00*
G04 #@! TF.ProjectId,pmod-ftdi,706d6f64-2d66-4746-9469-2e6b69636164,rev?*
G04 #@! TF.SameCoordinates,PX5b906e0PY4a1f960*
G04 #@! TF.FileFunction,Soldermask,Bot*
G04 #@! TF.FilePolarity,Negative*
%FSLAX46Y46*%
G04 Gerber Fmt 4.6, Leading zero omitted, Abs format (unit mm)*
G04 Created by KiCad (PCBNEW 5.1.4+dfsg1-1) date 2019-12-13 05:22:49*
%MOMM*%
%LPD*%
G04 APERTURE LIST*
%ADD10C,0.100000*%
G04 APERTURE END LIST*
D10*
G36*
X20196442Y-13456518D02*
G01*
X20262627Y-13463037D01*
X20432466Y-13514557D01*
X20588991Y-13598222D01*
X20624729Y-13627552D01*
X20726186Y-13710814D01*
X20809448Y-13812271D01*
X20838778Y-13848009D01*
X20922443Y-14004534D01*
X20973963Y-14174373D01*
X20991359Y-14351000D01*
X20973963Y-14527627D01*
X20922443Y-14697466D01*
X20838778Y-14853991D01*
X20809448Y-14889729D01*
X20726186Y-14991186D01*
X20624729Y-15074448D01*
X20588991Y-15103778D01*
X20432466Y-15187443D01*
X20262627Y-15238963D01*
X20196442Y-15245482D01*
X20130260Y-15252000D01*
X19201740Y-15252000D01*
X19135558Y-15245482D01*
X19069373Y-15238963D01*
X18899534Y-15187443D01*
X18743009Y-15103778D01*
X18707271Y-15074448D01*
X18605814Y-14991186D01*
X18522552Y-14889729D01*
X18493222Y-14853991D01*
X18409557Y-14697466D01*
X18358037Y-14527627D01*
X18340641Y-14351000D01*
X18358037Y-14174373D01*
X18409557Y-14004534D01*
X18493222Y-13848009D01*
X18522552Y-13812271D01*
X18605814Y-13710814D01*
X18707271Y-13627552D01*
X18743009Y-13598222D01*
X18899534Y-13514557D01*
X19069373Y-13463037D01*
X19135558Y-13456518D01*
X19201740Y-13450000D01*
X20130260Y-13450000D01*
X20196442Y-13456518D01*
X20196442Y-13456518D01*
G37*
G36*
X20196443Y-10916519D02*
G01*
X20262627Y-10923037D01*
X20432466Y-10974557D01*
X20588991Y-11058222D01*
X20624729Y-11087552D01*
X20726186Y-11170814D01*
X20809448Y-11272271D01*
X20838778Y-11308009D01*
X20922443Y-11464534D01*
X20973963Y-11634373D01*
X20991359Y-11811000D01*
X20973963Y-11987627D01*
X20922443Y-12157466D01*
X20838778Y-12313991D01*
X20809448Y-12349729D01*
X20726186Y-12451186D01*
X20624729Y-12534448D01*
X20588991Y-12563778D01*
X20432466Y-12647443D01*
X20262627Y-12698963D01*
X20196443Y-12705481D01*
X20130260Y-12712000D01*
X19201740Y-12712000D01*
X19135557Y-12705481D01*
X19069373Y-12698963D01*
X18899534Y-12647443D01*
X18743009Y-12563778D01*
X18707271Y-12534448D01*
X18605814Y-12451186D01*
X18522552Y-12349729D01*
X18493222Y-12313991D01*
X18409557Y-12157466D01*
X18358037Y-11987627D01*
X18340641Y-11811000D01*
X18358037Y-11634373D01*
X18409557Y-11464534D01*
X18493222Y-11308009D01*
X18522552Y-11272271D01*
X18605814Y-11170814D01*
X18707271Y-11087552D01*
X18743009Y-11058222D01*
X18899534Y-10974557D01*
X19069373Y-10923037D01*
X19135557Y-10916519D01*
X19201740Y-10910000D01*
X20130260Y-10910000D01*
X20196443Y-10916519D01*
X20196443Y-10916519D01*
G37*
G36*
X2606571Y-10818863D02*
G01*
X2685023Y-10826590D01*
X2785682Y-10857125D01*
X2836013Y-10872392D01*
X2975165Y-10946771D01*
X3097133Y-11046867D01*
X3197229Y-11168835D01*
X3271608Y-11307987D01*
X3271615Y-11308011D01*
X3317410Y-11458977D01*
X3332875Y-11616000D01*
X3317410Y-11773023D01*
X3286875Y-11873682D01*
X3271608Y-11924013D01*
X3197229Y-12063165D01*
X3097133Y-12185133D01*
X2975165Y-12285229D01*
X2836013Y-12359608D01*
X2785682Y-12374875D01*
X2685023Y-12405410D01*
X2606571Y-12413137D01*
X2567346Y-12417000D01*
X1788654Y-12417000D01*
X1749429Y-12413137D01*
X1670977Y-12405410D01*
X1570318Y-12374875D01*
X1519987Y-12359608D01*
X1380835Y-12285229D01*
X1258867Y-12185133D01*
X1158771Y-12063165D01*
X1084392Y-11924013D01*
X1069125Y-11873682D01*
X1038590Y-11773023D01*
X1023125Y-11616000D01*
X1038590Y-11458977D01*
X1084385Y-11308011D01*
X1084392Y-11307987D01*
X1158771Y-11168835D01*
X1258867Y-11046867D01*
X1380835Y-10946771D01*
X1519987Y-10872392D01*
X1570318Y-10857125D01*
X1670977Y-10826590D01*
X1749429Y-10818863D01*
X1788654Y-10815000D01*
X2567346Y-10815000D01*
X2606571Y-10818863D01*
X2606571Y-10818863D01*
G37*
G36*
X6076571Y-10818863D02*
G01*
X6155023Y-10826590D01*
X6255682Y-10857125D01*
X6306013Y-10872392D01*
X6445165Y-10946771D01*
X6567133Y-11046867D01*
X6667229Y-11168835D01*
X6741608Y-11307987D01*
X6741615Y-11308011D01*
X6787410Y-11458977D01*
X6802875Y-11616000D01*
X6787410Y-11773023D01*
X6756875Y-11873682D01*
X6741608Y-11924013D01*
X6667229Y-12063165D01*
X6567133Y-12185133D01*
X6445165Y-12285229D01*
X6306013Y-12359608D01*
X6255682Y-12374875D01*
X6155023Y-12405410D01*
X6076571Y-12413137D01*
X6037346Y-12417000D01*
X5258654Y-12417000D01*
X5219429Y-12413137D01*
X5140977Y-12405410D01*
X5040318Y-12374875D01*
X4989987Y-12359608D01*
X4850835Y-12285229D01*
X4728867Y-12185133D01*
X4628771Y-12063165D01*
X4554392Y-11924013D01*
X4539125Y-11873682D01*
X4508590Y-11773023D01*
X4493125Y-11616000D01*
X4508590Y-11458977D01*
X4554385Y-11308011D01*
X4554392Y-11307987D01*
X4628771Y-11168835D01*
X4728867Y-11046867D01*
X4850835Y-10946771D01*
X4989987Y-10872392D01*
X5040318Y-10857125D01*
X5140977Y-10826590D01*
X5219429Y-10818863D01*
X5258654Y-10815000D01*
X6037346Y-10815000D01*
X6076571Y-10818863D01*
X6076571Y-10818863D01*
G37*
G36*
X13578000Y-11546000D02*
G01*
X12838000Y-11546000D01*
X12838000Y-9856000D01*
X13578000Y-9856000D01*
X13578000Y-11546000D01*
X13578000Y-11546000D01*
G37*
G36*
X17388000Y-11546000D02*
G01*
X16648000Y-11546000D01*
X16648000Y-9856000D01*
X17388000Y-9856000D01*
X17388000Y-11546000D01*
X17388000Y-11546000D01*
G37*
G36*
X16118000Y-11546000D02*
G01*
X15378000Y-11546000D01*
X15378000Y-9856000D01*
X16118000Y-9856000D01*
X16118000Y-11546000D01*
X16118000Y-11546000D01*
G37*
G36*
X14848000Y-11546000D02*
G01*
X14108000Y-11546000D01*
X14108000Y-9856000D01*
X14848000Y-9856000D01*
X14848000Y-11546000D01*
X14848000Y-11546000D01*
G37*
G36*
X12308000Y-11546000D02*
G01*
X11568000Y-11546000D01*
X11568000Y-9856000D01*
X12308000Y-9856000D01*
X12308000Y-11546000D01*
X12308000Y-11546000D01*
G37*
G36*
X11038000Y-11546000D02*
G01*
X10298000Y-11546000D01*
X10298000Y-9856000D01*
X11038000Y-9856000D01*
X11038000Y-11546000D01*
X11038000Y-11546000D01*
G37*
G36*
X9768000Y-11546000D02*
G01*
X9028000Y-11546000D01*
X9028000Y-9856000D01*
X9768000Y-9856000D01*
X9768000Y-11546000D01*
X9768000Y-11546000D01*
G37*
G36*
X8498000Y-11546000D02*
G01*
X7758000Y-11546000D01*
X7758000Y-9856000D01*
X8498000Y-9856000D01*
X8498000Y-11546000D01*
X8498000Y-11546000D01*
G37*
G36*
X4423091Y-9702528D02*
G01*
X4482420Y-9727103D01*
X4535810Y-9762777D01*
X4581223Y-9808190D01*
X4616897Y-9861580D01*
X4641472Y-9920909D01*
X4654000Y-9983892D01*
X4654000Y-10048108D01*
X4641472Y-10111091D01*
X4616897Y-10170420D01*
X4581223Y-10223810D01*
X4535810Y-10269223D01*
X4482420Y-10304897D01*
X4423091Y-10329472D01*
X4360108Y-10342000D01*
X4295892Y-10342000D01*
X4232909Y-10329472D01*
X4173580Y-10304897D01*
X4120190Y-10269223D01*
X4074777Y-10223810D01*
X4039103Y-10170420D01*
X4014528Y-10111091D01*
X4002000Y-10048108D01*
X4002000Y-9983892D01*
X4014528Y-9920909D01*
X4039103Y-9861580D01*
X4074777Y-9808190D01*
X4120190Y-9762777D01*
X4173580Y-9727103D01*
X4232909Y-9702528D01*
X4295892Y-9690000D01*
X4360108Y-9690000D01*
X4423091Y-9702528D01*
X4423091Y-9702528D01*
G37*
G36*
X20196442Y-8376518D02*
G01*
X20262627Y-8383037D01*
X20432466Y-8434557D01*
X20588991Y-8518222D01*
X20624729Y-8547552D01*
X20726186Y-8630814D01*
X20809448Y-8732271D01*
X20838778Y-8768009D01*
X20922443Y-8924534D01*
X20973963Y-9094373D01*
X20991359Y-9271000D01*
X20973963Y-9447627D01*
X20922443Y-9617466D01*
X20838778Y-9773991D01*
X20810714Y-9808187D01*
X20726186Y-9911186D01*
X20637592Y-9983892D01*
X20588991Y-10023778D01*
X20432466Y-10107443D01*
X20262627Y-10158963D01*
X20196443Y-10165481D01*
X20130260Y-10172000D01*
X19201740Y-10172000D01*
X19135557Y-10165481D01*
X19069373Y-10158963D01*
X18899534Y-10107443D01*
X18743009Y-10023778D01*
X18694408Y-9983892D01*
X18605814Y-9911186D01*
X18521286Y-9808187D01*
X18493222Y-9773991D01*
X18409557Y-9617466D01*
X18358037Y-9447627D01*
X18340641Y-9271000D01*
X18358037Y-9094373D01*
X18409557Y-8924534D01*
X18493222Y-8768009D01*
X18522552Y-8732271D01*
X18605814Y-8630814D01*
X18707271Y-8547552D01*
X18743009Y-8518222D01*
X18899534Y-8434557D01*
X19069373Y-8383037D01*
X19135558Y-8376518D01*
X19201740Y-8370000D01*
X20130260Y-8370000D01*
X20196442Y-8376518D01*
X20196442Y-8376518D01*
G37*
G36*
X20196443Y-5836519D02*
G01*
X20262627Y-5843037D01*
X20432466Y-5894557D01*
X20588991Y-5978222D01*
X20624729Y-6007552D01*
X20726186Y-6090814D01*
X20791515Y-6170419D01*
X20838778Y-6228009D01*
X20922443Y-6384534D01*
X20973963Y-6554373D01*
X20991359Y-6731000D01*
X20973963Y-6907627D01*
X20922443Y-7077466D01*
X20838778Y-7233991D01*
X20809448Y-7269729D01*
X20726186Y-7371186D01*
X20624729Y-7454448D01*
X20588991Y-7483778D01*
X20432466Y-7567443D01*
X20262627Y-7618963D01*
X20196442Y-7625482D01*
X20130260Y-7632000D01*
X19201740Y-7632000D01*
X19135558Y-7625482D01*
X19069373Y-7618963D01*
X18899534Y-7567443D01*
X18743009Y-7483778D01*
X18707271Y-7454448D01*
X18605814Y-7371186D01*
X18522552Y-7269729D01*
X18493222Y-7233991D01*
X18409557Y-7077466D01*
X18358037Y-6907627D01*
X18340641Y-6731000D01*
X18358037Y-6554373D01*
X18409557Y-6384534D01*
X18493222Y-6228009D01*
X18540485Y-6170419D01*
X18605814Y-6090814D01*
X18707271Y-6007552D01*
X18743009Y-5978222D01*
X18899534Y-5894557D01*
X19069373Y-5843037D01*
X19135557Y-5836519D01*
X19201740Y-5830000D01*
X20130260Y-5830000D01*
X20196443Y-5836519D01*
X20196443Y-5836519D01*
G37*
G36*
X4423091Y-5702528D02*
G01*
X4482420Y-5727103D01*
X4535810Y-5762777D01*
X4581223Y-5808190D01*
X4616897Y-5861580D01*
X4641472Y-5920909D01*
X4654000Y-5983892D01*
X4654000Y-6048108D01*
X4641472Y-6111091D01*
X4616897Y-6170420D01*
X4581223Y-6223810D01*
X4535810Y-6269223D01*
X4482420Y-6304897D01*
X4423091Y-6329472D01*
X4360108Y-6342000D01*
X4295892Y-6342000D01*
X4232909Y-6329472D01*
X4173580Y-6304897D01*
X4120190Y-6269223D01*
X4074777Y-6223810D01*
X4039103Y-6170420D01*
X4014528Y-6111091D01*
X4002000Y-6048108D01*
X4002000Y-5983892D01*
X4014528Y-5920909D01*
X4039103Y-5861580D01*
X4074777Y-5808190D01*
X4120190Y-5762777D01*
X4173580Y-5727103D01*
X4232909Y-5702528D01*
X4295892Y-5690000D01*
X4360108Y-5690000D01*
X4423091Y-5702528D01*
X4423091Y-5702528D01*
G37*
G36*
X16118000Y-6146000D02*
G01*
X15378000Y-6146000D01*
X15378000Y-4456000D01*
X16118000Y-4456000D01*
X16118000Y-6146000D01*
X16118000Y-6146000D01*
G37*
G36*
X17388000Y-6146000D02*
G01*
X16648000Y-6146000D01*
X16648000Y-4456000D01*
X17388000Y-4456000D01*
X17388000Y-6146000D01*
X17388000Y-6146000D01*
G37*
G36*
X13578000Y-6146000D02*
G01*
X12838000Y-6146000D01*
X12838000Y-4456000D01*
X13578000Y-4456000D01*
X13578000Y-6146000D01*
X13578000Y-6146000D01*
G37*
G36*
X14848000Y-6146000D02*
G01*
X14108000Y-6146000D01*
X14108000Y-4456000D01*
X14848000Y-4456000D01*
X14848000Y-6146000D01*
X14848000Y-6146000D01*
G37*
G36*
X8498000Y-6146000D02*
G01*
X7758000Y-6146000D01*
X7758000Y-4456000D01*
X8498000Y-4456000D01*
X8498000Y-6146000D01*
X8498000Y-6146000D01*
G37*
G36*
X11038000Y-6146000D02*
G01*
X10298000Y-6146000D01*
X10298000Y-4456000D01*
X11038000Y-4456000D01*
X11038000Y-6146000D01*
X11038000Y-6146000D01*
G37*
G36*
X12308000Y-6146000D02*
G01*
X11568000Y-6146000D01*
X11568000Y-4456000D01*
X12308000Y-4456000D01*
X12308000Y-6146000D01*
X12308000Y-6146000D01*
G37*
G36*
X9768000Y-6146000D02*
G01*
X9028000Y-6146000D01*
X9028000Y-4456000D01*
X9768000Y-4456000D01*
X9768000Y-6146000D01*
X9768000Y-6146000D01*
G37*
G36*
X2606571Y-3618863D02*
G01*
X2685023Y-3626590D01*
X2785682Y-3657125D01*
X2836013Y-3672392D01*
X2975165Y-3746771D01*
X3097133Y-3846867D01*
X3197229Y-3968835D01*
X3271608Y-4107987D01*
X3271608Y-4107988D01*
X3317410Y-4258977D01*
X3332875Y-4416000D01*
X3317410Y-4573023D01*
X3286875Y-4673682D01*
X3271608Y-4724013D01*
X3197229Y-4863165D01*
X3097133Y-4985133D01*
X2975165Y-5085229D01*
X2836013Y-5159608D01*
X2785682Y-5174875D01*
X2685023Y-5205410D01*
X2606571Y-5213137D01*
X2567346Y-5217000D01*
X1788654Y-5217000D01*
X1749429Y-5213137D01*
X1670977Y-5205410D01*
X1570318Y-5174875D01*
X1519987Y-5159608D01*
X1380835Y-5085229D01*
X1258867Y-4985133D01*
X1158771Y-4863165D01*
X1084392Y-4724013D01*
X1069125Y-4673682D01*
X1038590Y-4573023D01*
X1023125Y-4416000D01*
X1038590Y-4258977D01*
X1084392Y-4107988D01*
X1084392Y-4107987D01*
X1158771Y-3968835D01*
X1258867Y-3846867D01*
X1380835Y-3746771D01*
X1519987Y-3672392D01*
X1570318Y-3657125D01*
X1670977Y-3626590D01*
X1749429Y-3618863D01*
X1788654Y-3615000D01*
X2567346Y-3615000D01*
X2606571Y-3618863D01*
X2606571Y-3618863D01*
G37*
G36*
X6076571Y-3618863D02*
G01*
X6155023Y-3626590D01*
X6255682Y-3657125D01*
X6306013Y-3672392D01*
X6445165Y-3746771D01*
X6567133Y-3846867D01*
X6667229Y-3968835D01*
X6741608Y-4107987D01*
X6741608Y-4107988D01*
X6787410Y-4258977D01*
X6802875Y-4416000D01*
X6787410Y-4573023D01*
X6756875Y-4673682D01*
X6741608Y-4724013D01*
X6667229Y-4863165D01*
X6567133Y-4985133D01*
X6445165Y-5085229D01*
X6306013Y-5159608D01*
X6255682Y-5174875D01*
X6155023Y-5205410D01*
X6076571Y-5213137D01*
X6037346Y-5217000D01*
X5258654Y-5217000D01*
X5219429Y-5213137D01*
X5140977Y-5205410D01*
X5040318Y-5174875D01*
X4989987Y-5159608D01*
X4850835Y-5085229D01*
X4728867Y-4985133D01*
X4628771Y-4863165D01*
X4554392Y-4724013D01*
X4539125Y-4673682D01*
X4508590Y-4573023D01*
X4493125Y-4416000D01*
X4508590Y-4258977D01*
X4554392Y-4107988D01*
X4554392Y-4107987D01*
X4628771Y-3968835D01*
X4728867Y-3846867D01*
X4850835Y-3746771D01*
X4989987Y-3672392D01*
X5040318Y-3657125D01*
X5140977Y-3626590D01*
X5219429Y-3618863D01*
X5258654Y-3615000D01*
X6037346Y-3615000D01*
X6076571Y-3618863D01*
X6076571Y-3618863D01*
G37*
G36*
X20196442Y-3296518D02*
G01*
X20262627Y-3303037D01*
X20432466Y-3354557D01*
X20588991Y-3438222D01*
X20624729Y-3467552D01*
X20726186Y-3550814D01*
X20809448Y-3652271D01*
X20838778Y-3688009D01*
X20922443Y-3844534D01*
X20973963Y-4014373D01*
X20991359Y-4191000D01*
X20973963Y-4367627D01*
X20922443Y-4537466D01*
X20838778Y-4693991D01*
X20814140Y-4724012D01*
X20726186Y-4831186D01*
X20624729Y-4914448D01*
X20588991Y-4943778D01*
X20432466Y-5027443D01*
X20262627Y-5078963D01*
X20199006Y-5085229D01*
X20130260Y-5092000D01*
X19201740Y-5092000D01*
X19132994Y-5085229D01*
X19069373Y-5078963D01*
X18899534Y-5027443D01*
X18743009Y-4943778D01*
X18707271Y-4914448D01*
X18605814Y-4831186D01*
X18517860Y-4724012D01*
X18493222Y-4693991D01*
X18409557Y-4537466D01*
X18358037Y-4367627D01*
X18340641Y-4191000D01*
X18358037Y-4014373D01*
X18409557Y-3844534D01*
X18493222Y-3688009D01*
X18522552Y-3652271D01*
X18605814Y-3550814D01*
X18707271Y-3467552D01*
X18743009Y-3438222D01*
X18899534Y-3354557D01*
X19069373Y-3303037D01*
X19135558Y-3296518D01*
X19201740Y-3290000D01*
X20130260Y-3290000D01*
X20196442Y-3296518D01*
X20196442Y-3296518D01*
G37*
G36*
X7385499Y-2018445D02*
G01*
X7422995Y-2029820D01*
X7457554Y-2048292D01*
X7487847Y-2073153D01*
X7512708Y-2103446D01*
X7531180Y-2138005D01*
X7542555Y-2175501D01*
X7547000Y-2220638D01*
X7547000Y-2859362D01*
X7542555Y-2904499D01*
X7531180Y-2941995D01*
X7512708Y-2976554D01*
X7487847Y-3006847D01*
X7457554Y-3031708D01*
X7422995Y-3050180D01*
X7385499Y-3061555D01*
X7340362Y-3066000D01*
X6601638Y-3066000D01*
X6556501Y-3061555D01*
X6519005Y-3050180D01*
X6484446Y-3031708D01*
X6454153Y-3006847D01*
X6429292Y-2976554D01*
X6410820Y-2941995D01*
X6399445Y-2904499D01*
X6395000Y-2859362D01*
X6395000Y-2220638D01*
X6399445Y-2175501D01*
X6410820Y-2138005D01*
X6429292Y-2103446D01*
X6454153Y-2073153D01*
X6484446Y-2048292D01*
X6519005Y-2029820D01*
X6556501Y-2018445D01*
X6601638Y-2014000D01*
X7340362Y-2014000D01*
X7385499Y-2018445D01*
X7385499Y-2018445D01*
G37*
G36*
X5635499Y-2018445D02*
G01*
X5672995Y-2029820D01*
X5707554Y-2048292D01*
X5737847Y-2073153D01*
X5762708Y-2103446D01*
X5781180Y-2138005D01*
X5792555Y-2175501D01*
X5797000Y-2220638D01*
X5797000Y-2859362D01*
X5792555Y-2904499D01*
X5781180Y-2941995D01*
X5762708Y-2976554D01*
X5737847Y-3006847D01*
X5707554Y-3031708D01*
X5672995Y-3050180D01*
X5635499Y-3061555D01*
X5590362Y-3066000D01*
X4851638Y-3066000D01*
X4806501Y-3061555D01*
X4769005Y-3050180D01*
X4734446Y-3031708D01*
X4704153Y-3006847D01*
X4679292Y-2976554D01*
X4660820Y-2941995D01*
X4649445Y-2904499D01*
X4645000Y-2859362D01*
X4645000Y-2220638D01*
X4649445Y-2175501D01*
X4660820Y-2138005D01*
X4679292Y-2103446D01*
X4704153Y-2073153D01*
X4734446Y-2048292D01*
X4769005Y-2029820D01*
X4806501Y-2018445D01*
X4851638Y-2014000D01*
X5590362Y-2014000D01*
X5635499Y-2018445D01*
X5635499Y-2018445D01*
G37*
G36*
X20196442Y-756518D02*
G01*
X20262627Y-763037D01*
X20432466Y-814557D01*
X20588991Y-898222D01*
X20624729Y-927552D01*
X20726186Y-1010814D01*
X20809448Y-1112271D01*
X20838778Y-1148009D01*
X20922443Y-1304534D01*
X20973963Y-1474373D01*
X20991359Y-1651000D01*
X20973963Y-1827627D01*
X20922443Y-1997466D01*
X20838778Y-2153991D01*
X20821125Y-2175501D01*
X20726186Y-2291186D01*
X20624729Y-2374448D01*
X20588991Y-2403778D01*
X20432466Y-2487443D01*
X20262627Y-2538963D01*
X20196442Y-2545482D01*
X20130260Y-2552000D01*
X19201740Y-2552000D01*
X19135558Y-2545482D01*
X19069373Y-2538963D01*
X18899534Y-2487443D01*
X18743009Y-2403778D01*
X18707271Y-2374448D01*
X18605814Y-2291186D01*
X18510875Y-2175501D01*
X18493222Y-2153991D01*
X18409557Y-1997466D01*
X18358037Y-1827627D01*
X18340641Y-1651000D01*
X18358037Y-1474373D01*
X18409557Y-1304534D01*
X18493222Y-1148009D01*
X18522552Y-1112271D01*
X18605814Y-1010814D01*
X18707271Y-927552D01*
X18743009Y-898222D01*
X18899534Y-814557D01*
X19069373Y-763037D01*
X19135558Y-756518D01*
X19201740Y-750000D01*
X20130260Y-750000D01*
X20196442Y-756518D01*
X20196442Y-756518D01*
G37*
M02*
