G04 #@! TF.GenerationSoftware,KiCad,Pcbnew,5.0.1*
G04 #@! TF.CreationDate,2019-04-24T11:31:07-07:00*
G04 #@! TF.ProjectId,pmod-samd21-usbu-pth,706D6F642D73616D6432312D75736275,rev?*
G04 #@! TF.SameCoordinates,PX8825afcPY9e4f580*
G04 #@! TF.FileFunction,Soldermask,Bot*
G04 #@! TF.FilePolarity,Negative*
%FSLAX46Y46*%
G04 Gerber Fmt 4.6, Leading zero omitted, Abs format (unit mm)*
G04 Created by KiCad (PCBNEW 5.0.1) date Wed 24 Apr 2019 11:31:07 AM PDT*
%MOMM*%
%LPD*%
G01*
G04 APERTURE LIST*
%ADD10C,0.100000*%
G04 APERTURE END LIST*
D10*
G36*
X2715927Y3887963D02*
X2829153Y3853616D01*
X2885767Y3836443D01*
X3024387Y3762348D01*
X3042291Y3752778D01*
X3078029Y3723448D01*
X3179486Y3640186D01*
X3262748Y3538729D01*
X3292078Y3502991D01*
X3292079Y3502989D01*
X3375743Y3346467D01*
X3375743Y3346466D01*
X3427263Y3176627D01*
X3440300Y3044258D01*
X3440300Y2115742D01*
X3427263Y1983373D01*
X3392916Y1870147D01*
X3375743Y1813533D01*
X3301648Y1674913D01*
X3292078Y1657009D01*
X3262748Y1621271D01*
X3179486Y1519814D01*
X3042289Y1407221D01*
X2885766Y1323557D01*
X2829152Y1306384D01*
X2715926Y1272037D01*
X2539300Y1254641D01*
X2362673Y1272037D01*
X2249447Y1306384D01*
X2192833Y1323557D01*
X2036311Y1407221D01*
X2036309Y1407222D01*
X2000571Y1436552D01*
X1899114Y1519814D01*
X1786521Y1657011D01*
X1702857Y1813534D01*
X1685684Y1870148D01*
X1651337Y1983374D01*
X1638300Y2115743D01*
X1638300Y3044258D01*
X1651338Y3176627D01*
X1702858Y3346466D01*
X1702858Y3346467D01*
X1786522Y3502989D01*
X1786523Y3502991D01*
X1815853Y3538729D01*
X1899115Y3640186D01*
X2000572Y3723448D01*
X2036310Y3752778D01*
X2054214Y3762348D01*
X2192834Y3836443D01*
X2249448Y3853616D01*
X2362674Y3887963D01*
X2539300Y3905359D01*
X2715927Y3887963D01*
X2715927Y3887963D01*
G37*
G36*
X5255927Y3887963D02*
X5369153Y3853616D01*
X5425767Y3836443D01*
X5564387Y3762348D01*
X5582291Y3752778D01*
X5618029Y3723448D01*
X5719486Y3640186D01*
X5802748Y3538729D01*
X5832078Y3502991D01*
X5832079Y3502989D01*
X5915743Y3346467D01*
X5915743Y3346466D01*
X5967263Y3176627D01*
X5980300Y3044258D01*
X5980300Y2115742D01*
X5967263Y1983373D01*
X5932916Y1870147D01*
X5915743Y1813533D01*
X5841648Y1674913D01*
X5832078Y1657009D01*
X5802748Y1621271D01*
X5719486Y1519814D01*
X5582289Y1407221D01*
X5425766Y1323557D01*
X5369152Y1306384D01*
X5255926Y1272037D01*
X5079300Y1254641D01*
X4902673Y1272037D01*
X4789447Y1306384D01*
X4732833Y1323557D01*
X4576311Y1407221D01*
X4576309Y1407222D01*
X4540571Y1436552D01*
X4439114Y1519814D01*
X4326521Y1657011D01*
X4242857Y1813534D01*
X4225684Y1870148D01*
X4191337Y1983374D01*
X4178300Y2115743D01*
X4178300Y3044258D01*
X4191338Y3176627D01*
X4242858Y3346466D01*
X4242858Y3346467D01*
X4326522Y3502989D01*
X4326523Y3502991D01*
X4355853Y3538729D01*
X4439115Y3640186D01*
X4540572Y3723448D01*
X4576310Y3752778D01*
X4594214Y3762348D01*
X4732834Y3836443D01*
X4789448Y3853616D01*
X4902674Y3887963D01*
X5079300Y3905359D01*
X5255927Y3887963D01*
X5255927Y3887963D01*
G37*
G36*
X15415927Y3887963D02*
X15529153Y3853616D01*
X15585767Y3836443D01*
X15724387Y3762348D01*
X15742291Y3752778D01*
X15778029Y3723448D01*
X15879486Y3640186D01*
X15962748Y3538729D01*
X15992078Y3502991D01*
X15992079Y3502989D01*
X16075743Y3346467D01*
X16075743Y3346466D01*
X16127263Y3176627D01*
X16140300Y3044258D01*
X16140300Y2115742D01*
X16127263Y1983373D01*
X16092916Y1870147D01*
X16075743Y1813533D01*
X16001648Y1674913D01*
X15992078Y1657009D01*
X15962748Y1621271D01*
X15879486Y1519814D01*
X15742289Y1407221D01*
X15585766Y1323557D01*
X15529152Y1306384D01*
X15415926Y1272037D01*
X15239300Y1254641D01*
X15062673Y1272037D01*
X14949447Y1306384D01*
X14892833Y1323557D01*
X14736311Y1407221D01*
X14736309Y1407222D01*
X14700571Y1436552D01*
X14599114Y1519814D01*
X14486521Y1657011D01*
X14402857Y1813534D01*
X14385684Y1870148D01*
X14351337Y1983374D01*
X14338300Y2115743D01*
X14338300Y3044258D01*
X14351338Y3176627D01*
X14402858Y3346466D01*
X14402858Y3346467D01*
X14486522Y3502989D01*
X14486523Y3502991D01*
X14515853Y3538729D01*
X14599115Y3640186D01*
X14700572Y3723448D01*
X14736310Y3752778D01*
X14754214Y3762348D01*
X14892834Y3836443D01*
X14949448Y3853616D01*
X15062674Y3887963D01*
X15239300Y3905359D01*
X15415927Y3887963D01*
X15415927Y3887963D01*
G37*
G36*
X12875927Y3887963D02*
X12989153Y3853616D01*
X13045767Y3836443D01*
X13184387Y3762348D01*
X13202291Y3752778D01*
X13238029Y3723448D01*
X13339486Y3640186D01*
X13422748Y3538729D01*
X13452078Y3502991D01*
X13452079Y3502989D01*
X13535743Y3346467D01*
X13535743Y3346466D01*
X13587263Y3176627D01*
X13600300Y3044258D01*
X13600300Y2115742D01*
X13587263Y1983373D01*
X13552916Y1870147D01*
X13535743Y1813533D01*
X13461648Y1674913D01*
X13452078Y1657009D01*
X13422748Y1621271D01*
X13339486Y1519814D01*
X13202289Y1407221D01*
X13045766Y1323557D01*
X12989152Y1306384D01*
X12875926Y1272037D01*
X12699300Y1254641D01*
X12522673Y1272037D01*
X12409447Y1306384D01*
X12352833Y1323557D01*
X12196311Y1407221D01*
X12196309Y1407222D01*
X12160571Y1436552D01*
X12059114Y1519814D01*
X11946521Y1657011D01*
X11862857Y1813534D01*
X11845684Y1870148D01*
X11811337Y1983374D01*
X11798300Y2115743D01*
X11798300Y3044258D01*
X11811338Y3176627D01*
X11862858Y3346466D01*
X11862858Y3346467D01*
X11946522Y3502989D01*
X11946523Y3502991D01*
X11975853Y3538729D01*
X12059115Y3640186D01*
X12160572Y3723448D01*
X12196310Y3752778D01*
X12214214Y3762348D01*
X12352834Y3836443D01*
X12409448Y3853616D01*
X12522674Y3887963D01*
X12699300Y3905359D01*
X12875927Y3887963D01*
X12875927Y3887963D01*
G37*
G36*
X7795927Y3887963D02*
X7909153Y3853616D01*
X7965767Y3836443D01*
X8104387Y3762348D01*
X8122291Y3752778D01*
X8158029Y3723448D01*
X8259486Y3640186D01*
X8342748Y3538729D01*
X8372078Y3502991D01*
X8372079Y3502989D01*
X8455743Y3346467D01*
X8455743Y3346466D01*
X8507263Y3176627D01*
X8520300Y3044258D01*
X8520300Y2115742D01*
X8507263Y1983373D01*
X8472916Y1870147D01*
X8455743Y1813533D01*
X8381648Y1674913D01*
X8372078Y1657009D01*
X8342748Y1621271D01*
X8259486Y1519814D01*
X8122289Y1407221D01*
X7965766Y1323557D01*
X7909152Y1306384D01*
X7795926Y1272037D01*
X7619300Y1254641D01*
X7442673Y1272037D01*
X7329447Y1306384D01*
X7272833Y1323557D01*
X7116311Y1407221D01*
X7116309Y1407222D01*
X7080571Y1436552D01*
X6979114Y1519814D01*
X6866521Y1657011D01*
X6782857Y1813534D01*
X6765684Y1870148D01*
X6731337Y1983374D01*
X6718300Y2115743D01*
X6718300Y3044258D01*
X6731338Y3176627D01*
X6782858Y3346466D01*
X6782858Y3346467D01*
X6866522Y3502989D01*
X6866523Y3502991D01*
X6895853Y3538729D01*
X6979115Y3640186D01*
X7080572Y3723448D01*
X7116310Y3752778D01*
X7134214Y3762348D01*
X7272834Y3836443D01*
X7329448Y3853616D01*
X7442674Y3887963D01*
X7619300Y3905359D01*
X7795927Y3887963D01*
X7795927Y3887963D01*
G37*
G36*
X10335927Y3887963D02*
X10449153Y3853616D01*
X10505767Y3836443D01*
X10644387Y3762348D01*
X10662291Y3752778D01*
X10698029Y3723448D01*
X10799486Y3640186D01*
X10882748Y3538729D01*
X10912078Y3502991D01*
X10912079Y3502989D01*
X10995743Y3346467D01*
X10995743Y3346466D01*
X11047263Y3176627D01*
X11060300Y3044258D01*
X11060300Y2115742D01*
X11047263Y1983373D01*
X11012916Y1870147D01*
X10995743Y1813533D01*
X10921648Y1674913D01*
X10912078Y1657009D01*
X10882748Y1621271D01*
X10799486Y1519814D01*
X10662289Y1407221D01*
X10505766Y1323557D01*
X10449152Y1306384D01*
X10335926Y1272037D01*
X10159300Y1254641D01*
X9982673Y1272037D01*
X9869447Y1306384D01*
X9812833Y1323557D01*
X9656311Y1407221D01*
X9656309Y1407222D01*
X9620571Y1436552D01*
X9519114Y1519814D01*
X9406521Y1657011D01*
X9322857Y1813534D01*
X9305684Y1870148D01*
X9271337Y1983374D01*
X9258300Y2115743D01*
X9258300Y3044258D01*
X9271338Y3176627D01*
X9322858Y3346466D01*
X9322858Y3346467D01*
X9406522Y3502989D01*
X9406523Y3502991D01*
X9435853Y3538729D01*
X9519115Y3640186D01*
X9620572Y3723448D01*
X9656310Y3752778D01*
X9674214Y3762348D01*
X9812834Y3836443D01*
X9869448Y3853616D01*
X9982674Y3887963D01*
X10159300Y3905359D01*
X10335927Y3887963D01*
X10335927Y3887963D01*
G37*
G36*
X2715927Y7227963D02*
X2829153Y7193616D01*
X2885767Y7176443D01*
X3024387Y7102348D01*
X3042291Y7092778D01*
X3078029Y7063448D01*
X3179486Y6980186D01*
X3262748Y6878729D01*
X3292078Y6842991D01*
X3292079Y6842989D01*
X3375743Y6686467D01*
X3375743Y6686466D01*
X3427263Y6516627D01*
X3440300Y6384258D01*
X3440300Y5455742D01*
X3427263Y5323373D01*
X3392916Y5210147D01*
X3375743Y5153533D01*
X3301648Y5014913D01*
X3292078Y4997009D01*
X3262748Y4961271D01*
X3179486Y4859814D01*
X3042289Y4747221D01*
X2885766Y4663557D01*
X2829152Y4646384D01*
X2715926Y4612037D01*
X2539300Y4594641D01*
X2362673Y4612037D01*
X2249447Y4646384D01*
X2192833Y4663557D01*
X2036311Y4747221D01*
X2036309Y4747222D01*
X2000571Y4776552D01*
X1899114Y4859814D01*
X1786521Y4997011D01*
X1702857Y5153534D01*
X1685684Y5210148D01*
X1651337Y5323374D01*
X1638300Y5455743D01*
X1638300Y6384258D01*
X1651338Y6516627D01*
X1702858Y6686466D01*
X1702858Y6686467D01*
X1786522Y6842989D01*
X1786523Y6842991D01*
X1815853Y6878729D01*
X1899115Y6980186D01*
X2000572Y7063448D01*
X2036310Y7092778D01*
X2054214Y7102348D01*
X2192834Y7176443D01*
X2249448Y7193616D01*
X2362674Y7227963D01*
X2539300Y7245359D01*
X2715927Y7227963D01*
X2715927Y7227963D01*
G37*
G36*
X15415927Y7227963D02*
X15529153Y7193616D01*
X15585767Y7176443D01*
X15724387Y7102348D01*
X15742291Y7092778D01*
X15778029Y7063448D01*
X15879486Y6980186D01*
X15962748Y6878729D01*
X15992078Y6842991D01*
X15992079Y6842989D01*
X16075743Y6686467D01*
X16075743Y6686466D01*
X16127263Y6516627D01*
X16140300Y6384258D01*
X16140300Y5455742D01*
X16127263Y5323373D01*
X16092916Y5210147D01*
X16075743Y5153533D01*
X16001648Y5014913D01*
X15992078Y4997009D01*
X15962748Y4961271D01*
X15879486Y4859814D01*
X15742289Y4747221D01*
X15585766Y4663557D01*
X15529152Y4646384D01*
X15415926Y4612037D01*
X15239300Y4594641D01*
X15062673Y4612037D01*
X14949447Y4646384D01*
X14892833Y4663557D01*
X14736311Y4747221D01*
X14736309Y4747222D01*
X14700571Y4776552D01*
X14599114Y4859814D01*
X14486521Y4997011D01*
X14402857Y5153534D01*
X14385684Y5210148D01*
X14351337Y5323374D01*
X14338300Y5455743D01*
X14338300Y6384258D01*
X14351338Y6516627D01*
X14402858Y6686466D01*
X14402858Y6686467D01*
X14486522Y6842989D01*
X14486523Y6842991D01*
X14515853Y6878729D01*
X14599115Y6980186D01*
X14700572Y7063448D01*
X14736310Y7092778D01*
X14754214Y7102348D01*
X14892834Y7176443D01*
X14949448Y7193616D01*
X15062674Y7227963D01*
X15239300Y7245359D01*
X15415927Y7227963D01*
X15415927Y7227963D01*
G37*
G36*
X5255927Y7227963D02*
X5369153Y7193616D01*
X5425767Y7176443D01*
X5564387Y7102348D01*
X5582291Y7092778D01*
X5618029Y7063448D01*
X5719486Y6980186D01*
X5802748Y6878729D01*
X5832078Y6842991D01*
X5832079Y6842989D01*
X5915743Y6686467D01*
X5915743Y6686466D01*
X5967263Y6516627D01*
X5980300Y6384258D01*
X5980300Y5455742D01*
X5967263Y5323373D01*
X5932916Y5210147D01*
X5915743Y5153533D01*
X5841648Y5014913D01*
X5832078Y4997009D01*
X5802748Y4961271D01*
X5719486Y4859814D01*
X5582289Y4747221D01*
X5425766Y4663557D01*
X5369152Y4646384D01*
X5255926Y4612037D01*
X5079300Y4594641D01*
X4902673Y4612037D01*
X4789447Y4646384D01*
X4732833Y4663557D01*
X4576311Y4747221D01*
X4576309Y4747222D01*
X4540571Y4776552D01*
X4439114Y4859814D01*
X4326521Y4997011D01*
X4242857Y5153534D01*
X4225684Y5210148D01*
X4191337Y5323374D01*
X4178300Y5455743D01*
X4178300Y6384258D01*
X4191338Y6516627D01*
X4242858Y6686466D01*
X4242858Y6686467D01*
X4326522Y6842989D01*
X4326523Y6842991D01*
X4355853Y6878729D01*
X4439115Y6980186D01*
X4540572Y7063448D01*
X4576310Y7092778D01*
X4594214Y7102348D01*
X4732834Y7176443D01*
X4789448Y7193616D01*
X4902674Y7227963D01*
X5079300Y7245359D01*
X5255927Y7227963D01*
X5255927Y7227963D01*
G37*
G36*
X12875927Y7227963D02*
X12989153Y7193616D01*
X13045767Y7176443D01*
X13184387Y7102348D01*
X13202291Y7092778D01*
X13238029Y7063448D01*
X13339486Y6980186D01*
X13422748Y6878729D01*
X13452078Y6842991D01*
X13452079Y6842989D01*
X13535743Y6686467D01*
X13535743Y6686466D01*
X13587263Y6516627D01*
X13600300Y6384258D01*
X13600300Y5455742D01*
X13587263Y5323373D01*
X13552916Y5210147D01*
X13535743Y5153533D01*
X13461648Y5014913D01*
X13452078Y4997009D01*
X13422748Y4961271D01*
X13339486Y4859814D01*
X13202289Y4747221D01*
X13045766Y4663557D01*
X12989152Y4646384D01*
X12875926Y4612037D01*
X12699300Y4594641D01*
X12522673Y4612037D01*
X12409447Y4646384D01*
X12352833Y4663557D01*
X12196311Y4747221D01*
X12196309Y4747222D01*
X12160571Y4776552D01*
X12059114Y4859814D01*
X11946521Y4997011D01*
X11862857Y5153534D01*
X11845684Y5210148D01*
X11811337Y5323374D01*
X11798300Y5455743D01*
X11798300Y6384258D01*
X11811338Y6516627D01*
X11862858Y6686466D01*
X11862858Y6686467D01*
X11946522Y6842989D01*
X11946523Y6842991D01*
X11975853Y6878729D01*
X12059115Y6980186D01*
X12160572Y7063448D01*
X12196310Y7092778D01*
X12214214Y7102348D01*
X12352834Y7176443D01*
X12409448Y7193616D01*
X12522674Y7227963D01*
X12699300Y7245359D01*
X12875927Y7227963D01*
X12875927Y7227963D01*
G37*
G36*
X7795927Y7227963D02*
X7909153Y7193616D01*
X7965767Y7176443D01*
X8104387Y7102348D01*
X8122291Y7092778D01*
X8158029Y7063448D01*
X8259486Y6980186D01*
X8342748Y6878729D01*
X8372078Y6842991D01*
X8372079Y6842989D01*
X8455743Y6686467D01*
X8455743Y6686466D01*
X8507263Y6516627D01*
X8520300Y6384258D01*
X8520300Y5455742D01*
X8507263Y5323373D01*
X8472916Y5210147D01*
X8455743Y5153533D01*
X8381648Y5014913D01*
X8372078Y4997009D01*
X8342748Y4961271D01*
X8259486Y4859814D01*
X8122289Y4747221D01*
X7965766Y4663557D01*
X7909152Y4646384D01*
X7795926Y4612037D01*
X7619300Y4594641D01*
X7442673Y4612037D01*
X7329447Y4646384D01*
X7272833Y4663557D01*
X7116311Y4747221D01*
X7116309Y4747222D01*
X7080571Y4776552D01*
X6979114Y4859814D01*
X6866521Y4997011D01*
X6782857Y5153534D01*
X6765684Y5210148D01*
X6731337Y5323374D01*
X6718300Y5455743D01*
X6718300Y6384258D01*
X6731338Y6516627D01*
X6782858Y6686466D01*
X6782858Y6686467D01*
X6866522Y6842989D01*
X6866523Y6842991D01*
X6895853Y6878729D01*
X6979115Y6980186D01*
X7080572Y7063448D01*
X7116310Y7092778D01*
X7134214Y7102348D01*
X7272834Y7176443D01*
X7329448Y7193616D01*
X7442674Y7227963D01*
X7619300Y7245359D01*
X7795927Y7227963D01*
X7795927Y7227963D01*
G37*
G36*
X10335927Y7227963D02*
X10449153Y7193616D01*
X10505767Y7176443D01*
X10644387Y7102348D01*
X10662291Y7092778D01*
X10698029Y7063448D01*
X10799486Y6980186D01*
X10882748Y6878729D01*
X10912078Y6842991D01*
X10912079Y6842989D01*
X10995743Y6686467D01*
X10995743Y6686466D01*
X11047263Y6516627D01*
X11060300Y6384258D01*
X11060300Y5455742D01*
X11047263Y5323373D01*
X11012916Y5210147D01*
X10995743Y5153533D01*
X10921648Y5014913D01*
X10912078Y4997009D01*
X10882748Y4961271D01*
X10799486Y4859814D01*
X10662289Y4747221D01*
X10505766Y4663557D01*
X10449152Y4646384D01*
X10335926Y4612037D01*
X10159300Y4594641D01*
X9982673Y4612037D01*
X9869447Y4646384D01*
X9812833Y4663557D01*
X9656311Y4747221D01*
X9656309Y4747222D01*
X9620571Y4776552D01*
X9519114Y4859814D01*
X9406521Y4997011D01*
X9322857Y5153534D01*
X9305684Y5210148D01*
X9271337Y5323374D01*
X9258300Y5455743D01*
X9258300Y6384258D01*
X9271338Y6516627D01*
X9322858Y6686466D01*
X9322858Y6686467D01*
X9406522Y6842989D01*
X9406523Y6842991D01*
X9435853Y6878729D01*
X9519115Y6980186D01*
X9620572Y7063448D01*
X9656310Y7092778D01*
X9674214Y7102348D01*
X9812834Y7176443D01*
X9869448Y7193616D01*
X9982674Y7227963D01*
X10159300Y7245359D01*
X10335927Y7227963D01*
X10335927Y7227963D01*
G37*
G36*
X15370300Y8149000D02*
X13088300Y8149000D01*
X13088300Y9851000D01*
X15370300Y9851000D01*
X15370300Y8149000D01*
X15370300Y8149000D01*
G37*
G36*
X6190300Y8149000D02*
X3908300Y8149000D01*
X3908300Y9851000D01*
X6190300Y9851000D01*
X6190300Y8149000D01*
X6190300Y8149000D01*
G37*
G36*
X2738600Y8746100D02*
X2036600Y8746100D01*
X2036600Y9248100D01*
X2738600Y9248100D01*
X2738600Y8746100D01*
X2738600Y8746100D01*
G37*
G36*
X2738600Y9646100D02*
X2036600Y9646100D01*
X2036600Y10148100D01*
X2738600Y10148100D01*
X2738600Y9646100D01*
X2738600Y9646100D01*
G37*
G36*
X12683323Y15364322D02*
X12418158Y15099157D01*
X12402612Y15080215D01*
X12391061Y15058604D01*
X12383948Y15035155D01*
X12382568Y15021141D01*
X8531191Y11169764D01*
X7433761Y12267194D01*
X11234460Y16067893D01*
X11250006Y16086835D01*
X11261557Y16108446D01*
X11268670Y16131895D01*
X11270050Y16145909D01*
X11585893Y16461752D01*
X12683323Y15364322D01*
X12683323Y15364322D01*
G37*
G36*
X6764839Y12267194D02*
X5667409Y11169764D01*
X1494064Y15343109D01*
X2591494Y16440539D01*
X6764839Y12267194D01*
X6764839Y12267194D01*
G37*
G36*
X2869243Y11651736D02*
X2443564Y11226057D01*
X1947175Y11722446D01*
X2372854Y12148125D01*
X2869243Y11651736D01*
X2869243Y11651736D01*
G37*
G36*
X4139243Y11905736D02*
X3713564Y11480057D01*
X3217175Y11976446D01*
X3642854Y12402125D01*
X4139243Y11905736D01*
X4139243Y11905736D01*
G37*
G36*
X2091425Y12429554D02*
X1665746Y12003875D01*
X1169357Y12500264D01*
X1595036Y12925943D01*
X2091425Y12429554D01*
X2091425Y12429554D01*
G37*
G36*
X3361425Y12683554D02*
X2935746Y12257875D01*
X2439357Y12754264D01*
X2865036Y13179943D01*
X3361425Y12683554D01*
X3361425Y12683554D01*
G37*
G36*
X16667885Y13972030D02*
X16818872Y13926228D01*
X16958025Y13851850D01*
X17079993Y13751753D01*
X17180090Y13629785D01*
X17254468Y13490632D01*
X17300270Y13339645D01*
X17315735Y13182620D01*
X17300270Y13025595D01*
X17254468Y12874608D01*
X17180090Y12735455D01*
X17079993Y12613487D01*
X16958025Y12513390D01*
X16818872Y12439012D01*
X16667885Y12393210D01*
X16550206Y12381620D01*
X15771514Y12381620D01*
X15653835Y12393210D01*
X15502848Y12439012D01*
X15363695Y12513390D01*
X15241727Y12613487D01*
X15141630Y12735455D01*
X15067252Y12874608D01*
X15021450Y13025595D01*
X15005985Y13182620D01*
X15021450Y13339645D01*
X15067252Y13490632D01*
X15141630Y13629785D01*
X15241727Y13751753D01*
X15363695Y13851850D01*
X15502848Y13926228D01*
X15653835Y13972030D01*
X15771514Y13983620D01*
X16550206Y13983620D01*
X16667885Y13972030D01*
X16667885Y13972030D01*
G37*
G36*
X13197885Y13972030D02*
X13348872Y13926228D01*
X13488025Y13851850D01*
X13609993Y13751753D01*
X13710090Y13629785D01*
X13784468Y13490632D01*
X13830270Y13339645D01*
X13845735Y13182620D01*
X13830270Y13025595D01*
X13784468Y12874608D01*
X13710090Y12735455D01*
X13609993Y12613487D01*
X13488025Y12513390D01*
X13348872Y12439012D01*
X13197885Y12393210D01*
X13080206Y12381620D01*
X12301514Y12381620D01*
X12183835Y12393210D01*
X12032848Y12439012D01*
X11893695Y12513390D01*
X11771727Y12613487D01*
X11671630Y12735455D01*
X11597252Y12874608D01*
X11551450Y13025595D01*
X11535985Y13182620D01*
X11551450Y13339645D01*
X11597252Y13490632D01*
X11671630Y13629785D01*
X11771727Y13751753D01*
X11893695Y13851850D01*
X12032848Y13926228D01*
X12183835Y13972030D01*
X12301514Y13983620D01*
X13080206Y13983620D01*
X13197885Y13972030D01*
X13197885Y13972030D01*
G37*
G36*
X14105951Y15096092D02*
X14165280Y15071517D01*
X14218674Y15035840D01*
X14264080Y14990434D01*
X14299757Y14937040D01*
X14324332Y14877711D01*
X14336860Y14814728D01*
X14336860Y14750512D01*
X14324332Y14687529D01*
X14299757Y14628200D01*
X14264080Y14574806D01*
X14218674Y14529400D01*
X14165280Y14493723D01*
X14105951Y14469148D01*
X14042968Y14456620D01*
X13978752Y14456620D01*
X13915769Y14469148D01*
X13856440Y14493723D01*
X13803046Y14529400D01*
X13757640Y14574806D01*
X13721963Y14628200D01*
X13697388Y14687529D01*
X13684860Y14750512D01*
X13684860Y14814728D01*
X13697388Y14877711D01*
X13721963Y14937040D01*
X13757640Y14990434D01*
X13803046Y15035840D01*
X13856440Y15071517D01*
X13915769Y15096092D01*
X13978752Y15108620D01*
X14042968Y15108620D01*
X14105951Y15096092D01*
X14105951Y15096092D01*
G37*
G36*
X16730943Y17672219D02*
X16876715Y17611838D01*
X17007911Y17524176D01*
X17119476Y17412611D01*
X17207138Y17281415D01*
X17267519Y17135643D01*
X17298300Y16980893D01*
X17298300Y16823107D01*
X17267519Y16668357D01*
X17207138Y16522585D01*
X17119476Y16391389D01*
X17007911Y16279824D01*
X16876715Y16192162D01*
X16730943Y16131781D01*
X16576193Y16101000D01*
X16418407Y16101000D01*
X16263657Y16131781D01*
X16117885Y16192162D01*
X15986689Y16279824D01*
X15875124Y16391389D01*
X15787462Y16522585D01*
X15727081Y16668357D01*
X15696300Y16823107D01*
X15696300Y16980893D01*
X15727081Y17135643D01*
X15787462Y17281415D01*
X15875124Y17412611D01*
X15986689Y17524176D01*
X16117885Y17611838D01*
X16263657Y17672219D01*
X16418407Y17703000D01*
X16576193Y17703000D01*
X16730943Y17672219D01*
X16730943Y17672219D01*
G37*
G36*
X1050300Y16509000D02*
X448300Y16509000D01*
X448300Y17211000D01*
X1050300Y17211000D01*
X1050300Y16509000D01*
X1050300Y16509000D01*
G37*
G36*
X12704536Y18206891D02*
X11607106Y17109461D01*
X7433761Y21282806D01*
X8531191Y22380236D01*
X12704536Y18206891D01*
X12704536Y18206891D01*
G37*
G36*
X6764839Y21282806D02*
X2591494Y17109461D01*
X1494064Y18206891D01*
X5667409Y22380236D01*
X6764839Y21282806D01*
X6764839Y21282806D01*
G37*
G36*
X1050300Y17609000D02*
X448300Y17609000D01*
X448300Y18311000D01*
X1050300Y18311000D01*
X1050300Y17609000D01*
X1050300Y17609000D01*
G37*
G36*
X14105951Y19096092D02*
X14165280Y19071517D01*
X14218674Y19035840D01*
X14264080Y18990434D01*
X14299757Y18937040D01*
X14324332Y18877711D01*
X14336860Y18814728D01*
X14336860Y18750512D01*
X14324332Y18687529D01*
X14299757Y18628200D01*
X14264080Y18574806D01*
X14218674Y18529400D01*
X14165280Y18493723D01*
X14105951Y18469148D01*
X14042968Y18456620D01*
X13978752Y18456620D01*
X13915769Y18469148D01*
X13856440Y18493723D01*
X13803046Y18529400D01*
X13757640Y18574806D01*
X13721963Y18628200D01*
X13697388Y18687529D01*
X13684860Y18750512D01*
X13684860Y18814728D01*
X13697388Y18877711D01*
X13721963Y18937040D01*
X13757640Y18990434D01*
X13803046Y19035840D01*
X13856440Y19071517D01*
X13915769Y19096092D01*
X13978752Y19108620D01*
X14042968Y19108620D01*
X14105951Y19096092D01*
X14105951Y19096092D01*
G37*
G36*
X2197492Y20053274D02*
X1418260Y19274042D01*
X73342Y20618960D01*
X852574Y21398192D01*
X2197492Y20053274D01*
X2197492Y20053274D01*
G37*
G36*
X13197885Y21172030D02*
X13348872Y21126228D01*
X13488025Y21051850D01*
X13609993Y20951753D01*
X13710090Y20829785D01*
X13784468Y20690632D01*
X13830270Y20539645D01*
X13845735Y20382620D01*
X13830270Y20225595D01*
X13784468Y20074608D01*
X13710090Y19935455D01*
X13609993Y19813487D01*
X13488025Y19713390D01*
X13348872Y19639012D01*
X13197885Y19593210D01*
X13080206Y19581620D01*
X12301514Y19581620D01*
X12183835Y19593210D01*
X12032848Y19639012D01*
X11893695Y19713390D01*
X11771727Y19813487D01*
X11671630Y19935455D01*
X11597252Y20074608D01*
X11551450Y20225595D01*
X11535985Y20382620D01*
X11551450Y20539645D01*
X11597252Y20690632D01*
X11671630Y20829785D01*
X11771727Y20951753D01*
X11893695Y21051850D01*
X12032848Y21126228D01*
X12183835Y21172030D01*
X12301514Y21183620D01*
X13080206Y21183620D01*
X13197885Y21172030D01*
X13197885Y21172030D01*
G37*
G36*
X16667885Y21172030D02*
X16818872Y21126228D01*
X16958025Y21051850D01*
X17079993Y20951753D01*
X17180090Y20829785D01*
X17254468Y20690632D01*
X17300270Y20539645D01*
X17315735Y20382620D01*
X17300270Y20225595D01*
X17254468Y20074608D01*
X17180090Y19935455D01*
X17079993Y19813487D01*
X16958025Y19713390D01*
X16818872Y19639012D01*
X16667885Y19593210D01*
X16550206Y19581620D01*
X15771514Y19581620D01*
X15653835Y19593210D01*
X15502848Y19639012D01*
X15363695Y19713390D01*
X15241727Y19813487D01*
X15141630Y19935455D01*
X15067252Y20074608D01*
X15021450Y20225595D01*
X15005985Y20382620D01*
X15021450Y20539645D01*
X15067252Y20690632D01*
X15141630Y20829785D01*
X15241727Y20951753D01*
X15363695Y21051850D01*
X15502848Y21126228D01*
X15653835Y21172030D01*
X15771514Y21183620D01*
X16550206Y21183620D01*
X16667885Y21172030D01*
X16667885Y21172030D01*
G37*
G36*
X2715926Y25937963D02*
X2829152Y25903616D01*
X2885766Y25886443D01*
X3042289Y25802779D01*
X3179486Y25690186D01*
X3262748Y25588729D01*
X3292078Y25552991D01*
X3292079Y25552989D01*
X3375743Y25396467D01*
X3380435Y25381000D01*
X3427263Y25226627D01*
X3440300Y25094258D01*
X3440300Y24165742D01*
X3427263Y24033373D01*
X3388623Y23905994D01*
X3375743Y23863533D01*
X3301648Y23724913D01*
X3292078Y23707009D01*
X3262748Y23671271D01*
X3179486Y23569814D01*
X3078029Y23486552D01*
X3042291Y23457222D01*
X3042289Y23457221D01*
X2885767Y23373557D01*
X2853390Y23363736D01*
X2722393Y23323998D01*
X2699765Y23314626D01*
X2679391Y23301012D01*
X2662063Y23283685D01*
X2648449Y23263310D01*
X2639072Y23240671D01*
X2634291Y23216638D01*
X2634291Y23192134D01*
X2639071Y23168100D01*
X2648448Y23145461D01*
X2662062Y23125087D01*
X2670301Y23115997D01*
X3965258Y21821040D01*
X3186026Y21041808D01*
X1841108Y22386726D01*
X2552441Y23098059D01*
X2567987Y23117001D01*
X2579538Y23138612D01*
X2586651Y23162061D01*
X2589053Y23186447D01*
X2586651Y23210833D01*
X2579538Y23234282D01*
X2567987Y23255893D01*
X2552441Y23274835D01*
X2533499Y23290381D01*
X2511888Y23301932D01*
X2476306Y23310845D01*
X2406258Y23317744D01*
X2362674Y23322037D01*
X2249448Y23356384D01*
X2192834Y23373557D01*
X2036312Y23457221D01*
X2036310Y23457222D01*
X2000572Y23486552D01*
X1899115Y23569814D01*
X1815853Y23671271D01*
X1786523Y23707009D01*
X1776953Y23724913D01*
X1702858Y23863533D01*
X1685685Y23920147D01*
X1651338Y24033373D01*
X1638300Y24165742D01*
X1638300Y25094257D01*
X1651337Y25226626D01*
X1702857Y25396465D01*
X1702857Y25396466D01*
X1786521Y25552989D01*
X1899114Y25690186D01*
X2000571Y25773448D01*
X2036309Y25802778D01*
X2054213Y25812348D01*
X2192833Y25886443D01*
X2249447Y25903616D01*
X2362673Y25937963D01*
X2539300Y25955359D01*
X2715926Y25937963D01*
X2715926Y25937963D01*
G37*
G36*
X5255926Y25937963D02*
X5369152Y25903616D01*
X5425766Y25886443D01*
X5582289Y25802779D01*
X5719486Y25690186D01*
X5802748Y25588729D01*
X5832078Y25552991D01*
X5832079Y25552989D01*
X5915743Y25396467D01*
X5920435Y25381000D01*
X5967263Y25226627D01*
X5980300Y25094258D01*
X5980300Y24165742D01*
X5967263Y24033373D01*
X5928623Y23905994D01*
X5915743Y23863533D01*
X5841648Y23724913D01*
X5832078Y23707009D01*
X5802748Y23671271D01*
X5719486Y23569814D01*
X5618029Y23486552D01*
X5582291Y23457222D01*
X5582289Y23457221D01*
X5425767Y23373557D01*
X5369153Y23356384D01*
X5255927Y23322037D01*
X5079300Y23304641D01*
X4902674Y23322037D01*
X4789448Y23356384D01*
X4732834Y23373557D01*
X4576312Y23457221D01*
X4576310Y23457222D01*
X4540572Y23486552D01*
X4439115Y23569814D01*
X4355853Y23671271D01*
X4326523Y23707009D01*
X4316953Y23724913D01*
X4242858Y23863533D01*
X4225685Y23920147D01*
X4191338Y24033373D01*
X4178300Y24165742D01*
X4178300Y25094257D01*
X4191337Y25226626D01*
X4242857Y25396465D01*
X4242857Y25396466D01*
X4326521Y25552989D01*
X4439114Y25690186D01*
X4540571Y25773448D01*
X4576309Y25802778D01*
X4594213Y25812348D01*
X4732833Y25886443D01*
X4789447Y25903616D01*
X4902673Y25937963D01*
X5079300Y25955359D01*
X5255926Y25937963D01*
X5255926Y25937963D01*
G37*
G36*
X15415926Y25937963D02*
X15529152Y25903616D01*
X15585766Y25886443D01*
X15742289Y25802779D01*
X15879486Y25690186D01*
X15962748Y25588729D01*
X15992078Y25552991D01*
X15992079Y25552989D01*
X16075743Y25396467D01*
X16080435Y25381000D01*
X16127263Y25226627D01*
X16140300Y25094258D01*
X16140300Y24165742D01*
X16127263Y24033373D01*
X16088623Y23905994D01*
X16075743Y23863533D01*
X16001648Y23724913D01*
X15992078Y23707009D01*
X15962748Y23671271D01*
X15879486Y23569814D01*
X15778029Y23486552D01*
X15742291Y23457222D01*
X15742289Y23457221D01*
X15585767Y23373557D01*
X15529153Y23356384D01*
X15415927Y23322037D01*
X15239300Y23304641D01*
X15062674Y23322037D01*
X14949448Y23356384D01*
X14892834Y23373557D01*
X14736312Y23457221D01*
X14736310Y23457222D01*
X14700572Y23486552D01*
X14599115Y23569814D01*
X14515853Y23671271D01*
X14486523Y23707009D01*
X14476953Y23724913D01*
X14402858Y23863533D01*
X14385685Y23920147D01*
X14351338Y24033373D01*
X14338300Y24165742D01*
X14338300Y25094257D01*
X14351337Y25226626D01*
X14402857Y25396465D01*
X14402857Y25396466D01*
X14486521Y25552989D01*
X14599114Y25690186D01*
X14700571Y25773448D01*
X14736309Y25802778D01*
X14754213Y25812348D01*
X14892833Y25886443D01*
X14949447Y25903616D01*
X15062673Y25937963D01*
X15239300Y25955359D01*
X15415926Y25937963D01*
X15415926Y25937963D01*
G37*
G36*
X12875926Y25937963D02*
X12989152Y25903616D01*
X13045766Y25886443D01*
X13202289Y25802779D01*
X13339486Y25690186D01*
X13422748Y25588729D01*
X13452078Y25552991D01*
X13452079Y25552989D01*
X13535743Y25396467D01*
X13540435Y25381000D01*
X13587263Y25226627D01*
X13600300Y25094258D01*
X13600300Y24165742D01*
X13587263Y24033373D01*
X13548623Y23905994D01*
X13535743Y23863533D01*
X13461648Y23724913D01*
X13452078Y23707009D01*
X13422748Y23671271D01*
X13339486Y23569814D01*
X13238029Y23486552D01*
X13202291Y23457222D01*
X13202289Y23457221D01*
X13045767Y23373557D01*
X12989153Y23356384D01*
X12875927Y23322037D01*
X12699300Y23304641D01*
X12522674Y23322037D01*
X12409448Y23356384D01*
X12352834Y23373557D01*
X12196312Y23457221D01*
X12196310Y23457222D01*
X12160572Y23486552D01*
X12059115Y23569814D01*
X11975853Y23671271D01*
X11946523Y23707009D01*
X11936953Y23724913D01*
X11862858Y23863533D01*
X11845685Y23920147D01*
X11811338Y24033373D01*
X11798300Y24165742D01*
X11798300Y25094257D01*
X11811337Y25226626D01*
X11862857Y25396465D01*
X11862857Y25396466D01*
X11946521Y25552989D01*
X12059114Y25690186D01*
X12160571Y25773448D01*
X12196309Y25802778D01*
X12214213Y25812348D01*
X12352833Y25886443D01*
X12409447Y25903616D01*
X12522673Y25937963D01*
X12699300Y25955359D01*
X12875926Y25937963D01*
X12875926Y25937963D01*
G37*
G36*
X10335926Y25937963D02*
X10449152Y25903616D01*
X10505766Y25886443D01*
X10662289Y25802779D01*
X10799486Y25690186D01*
X10882748Y25588729D01*
X10912078Y25552991D01*
X10912079Y25552989D01*
X10995743Y25396467D01*
X11000435Y25381000D01*
X11047263Y25226627D01*
X11060300Y25094258D01*
X11060300Y24165742D01*
X11047263Y24033373D01*
X11008623Y23905994D01*
X10995743Y23863533D01*
X10921648Y23724913D01*
X10912078Y23707009D01*
X10882748Y23671271D01*
X10799486Y23569814D01*
X10698029Y23486552D01*
X10662291Y23457222D01*
X10662289Y23457221D01*
X10505767Y23373557D01*
X10449153Y23356384D01*
X10335927Y23322037D01*
X10159300Y23304641D01*
X9982674Y23322037D01*
X9869448Y23356384D01*
X9812834Y23373557D01*
X9656312Y23457221D01*
X9656310Y23457222D01*
X9620572Y23486552D01*
X9519115Y23569814D01*
X9435853Y23671271D01*
X9406523Y23707009D01*
X9396953Y23724913D01*
X9322858Y23863533D01*
X9305685Y23920147D01*
X9271338Y24033373D01*
X9258300Y24165742D01*
X9258300Y25094257D01*
X9271337Y25226626D01*
X9322857Y25396465D01*
X9322857Y25396466D01*
X9406521Y25552989D01*
X9519114Y25690186D01*
X9620571Y25773448D01*
X9656309Y25802778D01*
X9674213Y25812348D01*
X9812833Y25886443D01*
X9869447Y25903616D01*
X9982673Y25937963D01*
X10159300Y25955359D01*
X10335926Y25937963D01*
X10335926Y25937963D01*
G37*
G36*
X7795926Y25937963D02*
X7909152Y25903616D01*
X7965766Y25886443D01*
X8122289Y25802779D01*
X8259486Y25690186D01*
X8342748Y25588729D01*
X8372078Y25552991D01*
X8372079Y25552989D01*
X8455743Y25396467D01*
X8460435Y25381000D01*
X8507263Y25226627D01*
X8520300Y25094258D01*
X8520300Y24165742D01*
X8507263Y24033373D01*
X8468623Y23905994D01*
X8455743Y23863533D01*
X8381648Y23724913D01*
X8372078Y23707009D01*
X8342748Y23671271D01*
X8259486Y23569814D01*
X8158029Y23486552D01*
X8122291Y23457222D01*
X8122289Y23457221D01*
X7965767Y23373557D01*
X7909153Y23356384D01*
X7795927Y23322037D01*
X7619300Y23304641D01*
X7442674Y23322037D01*
X7329448Y23356384D01*
X7272834Y23373557D01*
X7116312Y23457221D01*
X7116310Y23457222D01*
X7080572Y23486552D01*
X6979115Y23569814D01*
X6895853Y23671271D01*
X6866523Y23707009D01*
X6856953Y23724913D01*
X6782858Y23863533D01*
X6765685Y23920147D01*
X6731338Y24033373D01*
X6718300Y24165742D01*
X6718300Y25094257D01*
X6731337Y25226626D01*
X6782857Y25396465D01*
X6782857Y25396466D01*
X6866521Y25552989D01*
X6979114Y25690186D01*
X7080571Y25773448D01*
X7116309Y25802778D01*
X7134213Y25812348D01*
X7272833Y25886443D01*
X7329447Y25903616D01*
X7442673Y25937963D01*
X7619300Y25955359D01*
X7795926Y25937963D01*
X7795926Y25937963D01*
G37*
G36*
X1050300Y23579000D02*
X448300Y23579000D01*
X448300Y24281000D01*
X1050300Y24281000D01*
X1050300Y23579000D01*
X1050300Y23579000D01*
G37*
G36*
X1050300Y24679000D02*
X448300Y24679000D01*
X448300Y25381000D01*
X1050300Y25381000D01*
X1050300Y24679000D01*
X1050300Y24679000D01*
G37*
G36*
X2715926Y29277963D02*
X2829152Y29243616D01*
X2885766Y29226443D01*
X3042289Y29142779D01*
X3179486Y29030186D01*
X3262748Y28928729D01*
X3292078Y28892991D01*
X3292079Y28892989D01*
X3375743Y28736467D01*
X3392916Y28679853D01*
X3427263Y28566627D01*
X3440300Y28434258D01*
X3440300Y27505742D01*
X3427263Y27373373D01*
X3388623Y27245994D01*
X3375743Y27203533D01*
X3301648Y27064913D01*
X3292078Y27047009D01*
X3262748Y27011271D01*
X3179486Y26909814D01*
X3078029Y26826552D01*
X3042291Y26797222D01*
X3042289Y26797221D01*
X2885767Y26713557D01*
X2829153Y26696384D01*
X2715927Y26662037D01*
X2539300Y26644641D01*
X2362674Y26662037D01*
X2249448Y26696384D01*
X2192834Y26713557D01*
X2036312Y26797221D01*
X2036310Y26797222D01*
X2000572Y26826552D01*
X1899115Y26909814D01*
X1815853Y27011271D01*
X1786523Y27047009D01*
X1776953Y27064913D01*
X1702858Y27203533D01*
X1685685Y27260147D01*
X1651338Y27373373D01*
X1638300Y27505742D01*
X1638300Y28434257D01*
X1651337Y28566626D01*
X1702857Y28736465D01*
X1702857Y28736466D01*
X1786521Y28892989D01*
X1899114Y29030186D01*
X2000571Y29113448D01*
X2036309Y29142778D01*
X2054213Y29152348D01*
X2192833Y29226443D01*
X2249447Y29243616D01*
X2362673Y29277963D01*
X2539300Y29295359D01*
X2715926Y29277963D01*
X2715926Y29277963D01*
G37*
G36*
X15415926Y29277963D02*
X15529152Y29243616D01*
X15585766Y29226443D01*
X15742289Y29142779D01*
X15879486Y29030186D01*
X15962748Y28928729D01*
X15992078Y28892991D01*
X15992079Y28892989D01*
X16075743Y28736467D01*
X16092916Y28679853D01*
X16127263Y28566627D01*
X16140300Y28434258D01*
X16140300Y27505742D01*
X16127263Y27373373D01*
X16088623Y27245994D01*
X16075743Y27203533D01*
X16001648Y27064913D01*
X15992078Y27047009D01*
X15962748Y27011271D01*
X15879486Y26909814D01*
X15778029Y26826552D01*
X15742291Y26797222D01*
X15742289Y26797221D01*
X15585767Y26713557D01*
X15529153Y26696384D01*
X15415927Y26662037D01*
X15239300Y26644641D01*
X15062674Y26662037D01*
X14949448Y26696384D01*
X14892834Y26713557D01*
X14736312Y26797221D01*
X14736310Y26797222D01*
X14700572Y26826552D01*
X14599115Y26909814D01*
X14515853Y27011271D01*
X14486523Y27047009D01*
X14476953Y27064913D01*
X14402858Y27203533D01*
X14385685Y27260147D01*
X14351338Y27373373D01*
X14338300Y27505742D01*
X14338300Y28434257D01*
X14351337Y28566626D01*
X14402857Y28736465D01*
X14402857Y28736466D01*
X14486521Y28892989D01*
X14599114Y29030186D01*
X14700571Y29113448D01*
X14736309Y29142778D01*
X14754213Y29152348D01*
X14892833Y29226443D01*
X14949447Y29243616D01*
X15062673Y29277963D01*
X15239300Y29295359D01*
X15415926Y29277963D01*
X15415926Y29277963D01*
G37*
G36*
X5255926Y29277963D02*
X5369152Y29243616D01*
X5425766Y29226443D01*
X5582289Y29142779D01*
X5719486Y29030186D01*
X5802748Y28928729D01*
X5832078Y28892991D01*
X5832079Y28892989D01*
X5915743Y28736467D01*
X5932916Y28679853D01*
X5967263Y28566627D01*
X5980300Y28434258D01*
X5980300Y27505742D01*
X5967263Y27373373D01*
X5928623Y27245994D01*
X5915743Y27203533D01*
X5841648Y27064913D01*
X5832078Y27047009D01*
X5802748Y27011271D01*
X5719486Y26909814D01*
X5618029Y26826552D01*
X5582291Y26797222D01*
X5582289Y26797221D01*
X5425767Y26713557D01*
X5369153Y26696384D01*
X5255927Y26662037D01*
X5079300Y26644641D01*
X4902674Y26662037D01*
X4789448Y26696384D01*
X4732834Y26713557D01*
X4576312Y26797221D01*
X4576310Y26797222D01*
X4540572Y26826552D01*
X4439115Y26909814D01*
X4355853Y27011271D01*
X4326523Y27047009D01*
X4316953Y27064913D01*
X4242858Y27203533D01*
X4225685Y27260147D01*
X4191338Y27373373D01*
X4178300Y27505742D01*
X4178300Y28434257D01*
X4191337Y28566626D01*
X4242857Y28736465D01*
X4242857Y28736466D01*
X4326521Y28892989D01*
X4439114Y29030186D01*
X4540571Y29113448D01*
X4576309Y29142778D01*
X4594213Y29152348D01*
X4732833Y29226443D01*
X4789447Y29243616D01*
X4902673Y29277963D01*
X5079300Y29295359D01*
X5255926Y29277963D01*
X5255926Y29277963D01*
G37*
G36*
X7795926Y29277963D02*
X7909152Y29243616D01*
X7965766Y29226443D01*
X8122289Y29142779D01*
X8259486Y29030186D01*
X8342748Y28928729D01*
X8372078Y28892991D01*
X8372079Y28892989D01*
X8455743Y28736467D01*
X8472916Y28679853D01*
X8507263Y28566627D01*
X8520300Y28434258D01*
X8520300Y27505742D01*
X8507263Y27373373D01*
X8468623Y27245994D01*
X8455743Y27203533D01*
X8381648Y27064913D01*
X8372078Y27047009D01*
X8342748Y27011271D01*
X8259486Y26909814D01*
X8158029Y26826552D01*
X8122291Y26797222D01*
X8122289Y26797221D01*
X7965767Y26713557D01*
X7909153Y26696384D01*
X7795927Y26662037D01*
X7619300Y26644641D01*
X7442674Y26662037D01*
X7329448Y26696384D01*
X7272834Y26713557D01*
X7116312Y26797221D01*
X7116310Y26797222D01*
X7080572Y26826552D01*
X6979115Y26909814D01*
X6895853Y27011271D01*
X6866523Y27047009D01*
X6856953Y27064913D01*
X6782858Y27203533D01*
X6765685Y27260147D01*
X6731338Y27373373D01*
X6718300Y27505742D01*
X6718300Y28434257D01*
X6731337Y28566626D01*
X6782857Y28736465D01*
X6782857Y28736466D01*
X6866521Y28892989D01*
X6979114Y29030186D01*
X7080571Y29113448D01*
X7116309Y29142778D01*
X7134213Y29152348D01*
X7272833Y29226443D01*
X7329447Y29243616D01*
X7442673Y29277963D01*
X7619300Y29295359D01*
X7795926Y29277963D01*
X7795926Y29277963D01*
G37*
G36*
X12875926Y29277963D02*
X12989152Y29243616D01*
X13045766Y29226443D01*
X13202289Y29142779D01*
X13339486Y29030186D01*
X13422748Y28928729D01*
X13452078Y28892991D01*
X13452079Y28892989D01*
X13535743Y28736467D01*
X13552916Y28679853D01*
X13587263Y28566627D01*
X13600300Y28434258D01*
X13600300Y27505742D01*
X13587263Y27373373D01*
X13548623Y27245994D01*
X13535743Y27203533D01*
X13461648Y27064913D01*
X13452078Y27047009D01*
X13422748Y27011271D01*
X13339486Y26909814D01*
X13238029Y26826552D01*
X13202291Y26797222D01*
X13202289Y26797221D01*
X13045767Y26713557D01*
X12989153Y26696384D01*
X12875927Y26662037D01*
X12699300Y26644641D01*
X12522674Y26662037D01*
X12409448Y26696384D01*
X12352834Y26713557D01*
X12196312Y26797221D01*
X12196310Y26797222D01*
X12160572Y26826552D01*
X12059115Y26909814D01*
X11975853Y27011271D01*
X11946523Y27047009D01*
X11936953Y27064913D01*
X11862858Y27203533D01*
X11845685Y27260147D01*
X11811338Y27373373D01*
X11798300Y27505742D01*
X11798300Y28434257D01*
X11811337Y28566626D01*
X11862857Y28736465D01*
X11862857Y28736466D01*
X11946521Y28892989D01*
X12059114Y29030186D01*
X12160571Y29113448D01*
X12196309Y29142778D01*
X12214213Y29152348D01*
X12352833Y29226443D01*
X12409447Y29243616D01*
X12522673Y29277963D01*
X12699300Y29295359D01*
X12875926Y29277963D01*
X12875926Y29277963D01*
G37*
G36*
X10335926Y29277963D02*
X10449152Y29243616D01*
X10505766Y29226443D01*
X10662289Y29142779D01*
X10799486Y29030186D01*
X10882748Y28928729D01*
X10912078Y28892991D01*
X10912079Y28892989D01*
X10995743Y28736467D01*
X11012916Y28679853D01*
X11047263Y28566627D01*
X11060300Y28434258D01*
X11060300Y27505742D01*
X11047263Y27373373D01*
X11008623Y27245994D01*
X10995743Y27203533D01*
X10921648Y27064913D01*
X10912078Y27047009D01*
X10882748Y27011271D01*
X10799486Y26909814D01*
X10698029Y26826552D01*
X10662291Y26797222D01*
X10662289Y26797221D01*
X10505767Y26713557D01*
X10449153Y26696384D01*
X10335927Y26662037D01*
X10159300Y26644641D01*
X9982674Y26662037D01*
X9869448Y26696384D01*
X9812834Y26713557D01*
X9656312Y26797221D01*
X9656310Y26797222D01*
X9620572Y26826552D01*
X9519115Y26909814D01*
X9435853Y27011271D01*
X9406523Y27047009D01*
X9396953Y27064913D01*
X9322858Y27203533D01*
X9305685Y27260147D01*
X9271338Y27373373D01*
X9258300Y27505742D01*
X9258300Y28434257D01*
X9271337Y28566626D01*
X9322857Y28736465D01*
X9322857Y28736466D01*
X9406521Y28892989D01*
X9519114Y29030186D01*
X9620571Y29113448D01*
X9656309Y29142778D01*
X9674213Y29152348D01*
X9812833Y29226443D01*
X9869447Y29243616D01*
X9982673Y29277963D01*
X10159300Y29295359D01*
X10335926Y29277963D01*
X10335926Y29277963D01*
G37*
M02*
