G04 #@! TF.GenerationSoftware,KiCad,Pcbnew,5.0.1*
G04 #@! TF.CreationDate,2019-03-20T13:07:10-07:00*
G04 #@! TF.ProjectId,pmod-samd21-usbu-pth,706D6F642D73616D6432312D75736275,rev?*
G04 #@! TF.SameCoordinates,PX8825afcPY9e4f580*
G04 #@! TF.FileFunction,Profile,NP*
%FSLAX46Y46*%
G04 Gerber Fmt 4.6, Leading zero omitted, Abs format (unit mm)*
G04 Created by KiCad (PCBNEW 5.0.1) date Wed 20 Mar 2019 01:07:10 PM PDT*
%MOMM*%
%LPD*%
G01*
G04 APERTURE LIST*
%ADD10C,0.150000*%
G04 #@! TA.AperFunction,NonConductor*
%ADD11C,0.200000*%
G04 #@! TD*
G04 APERTURE END LIST*
D10*
X-12700Y31126000D02*
X-12700Y0D01*
X18148300Y31126000D02*
X-12700Y31126000D01*
X18148300Y0D02*
X18148300Y31126000D01*
X0Y0D02*
X18148300Y0D01*
D11*
G04 #@! TO.C,J3*
X15780860Y20782620D02*
X16540860Y20782620D01*
X12310860Y19982620D02*
G75*
G02X12310860Y20782620I0J400000D01*
G01*
X12310860Y20782620D02*
X13070860Y20782620D01*
X12310860Y19982620D02*
X13070860Y19982620D01*
X13070860Y19982620D02*
G75*
G03X13070860Y20782620I0J400000D01*
G01*
X15780860Y19982620D02*
G75*
G02X15780860Y20782620I0J400000D01*
G01*
X16540860Y19982620D02*
G75*
G03X16540860Y20782620I0J400000D01*
G01*
X15780860Y19982620D02*
X16540860Y19982620D01*
X15780860Y12782620D02*
G75*
G02X15780860Y13582620I0J400000D01*
G01*
X15780860Y13582620D02*
X16540860Y13582620D01*
X15780860Y12782620D02*
X16540860Y12782620D01*
X16540860Y12782620D02*
G75*
G03X16540860Y13582620I0J400000D01*
G01*
X12310860Y12782620D02*
X13070860Y12782620D01*
X12310860Y13582620D02*
X13070860Y13582620D01*
X13070860Y12782620D02*
G75*
G03X13070860Y13582620I0J400000D01*
G01*
X12310860Y12782620D02*
G75*
G02X12310860Y13582620I0J400000D01*
G01*
G04 #@! TD*
M02*
