M48
;DRILL file {KiCad 5.0.1} date Wed 20 Mar 2019 01:13:15 PM PDT
;FORMAT={-:-/ absolute / inch / decimal}
FMAT,2
INCH,TZ
T1C0.0120
T2C0.0157
T3C0.0217
T4C0.0394
%
G90
G05
M72
T1
X0.135Y0.4069
X0.1795Y0.8854
X0.2578Y0.8744
X0.283Y0.5214
X0.345Y0.3959
X0.3455Y0.3544
X0.4434Y0.8693
X0.5585Y0.0329
X0.5858Y0.7099
X0.649Y0.8694
T2
X0.0666Y0.441
X0.167Y0.4644
X0.2045Y0.5854
X0.2051Y0.6253
X0.2065Y0.7224
X0.2071Y0.6629
X0.2564Y0.4174
X0.2695Y0.8004
X0.3524Y0.6225
X0.3564Y0.6628
X0.3681Y0.7302
X0.3701Y0.5869
X0.3976Y0.7042
X0.4002Y0.8637
X0.4371Y0.8241
X0.4405Y0.4867
X0.5914Y0.6729
X0.5988Y0.6094
X0.6009Y0.7555
X0.6495Y0.6654
X0.6725Y0.4639
T3
X0.5516Y0.7395
X0.5516Y0.582
T4
X0.1Y1.0854
X0.1Y0.9854
X0.2Y1.0854
X0.2Y0.9854
X0.3Y1.0854
X0.3Y0.9854
X0.4Y1.0854
X0.4Y0.9854
X0.5Y1.0854
X0.5Y0.9854
X0.6Y1.0854
X0.6Y0.9854
X0.1Y0.2173
X0.1Y0.1173
X0.2Y0.2173
X0.2Y0.1173
X0.3Y0.2173
X0.3Y0.1173
X0.4Y0.2173
X0.4Y0.1173
X0.5Y0.2173
X0.5Y0.1173
X0.6Y0.2173
X0.6Y0.1173
T0
M30
