M48
;DRILL file {KiCad 5.0.1} date Wed 20 Mar 2019 01:11:07 PM PDT
;FORMAT={-:-/ absolute / inch / decimal}
FMAT,2
INCH,TZ
T1C0.0120
T2C0.0157
T3C0.0217
%
G90
G05
M72
T1
X0.4439Y0.7834
X0.5863Y0.624
T2
X0.0671Y0.3551
X0.0786Y0.1993
X0.14Y0.0995
X0.1545Y0.7786
X0.165Y0.3795
X0.165Y0.2995
X0.205Y0.4995
X0.2056Y0.5394
X0.2068Y0.5813
X0.207Y0.6365
X0.25Y1.0495
X0.2569Y0.3314
X0.2687Y0.2012
X0.27Y0.7145
X0.3Y0.9295
X0.35Y0.0995
X0.3529Y0.5365
X0.3569Y0.5769
X0.3686Y0.6443
X0.3706Y0.501
X0.3981Y0.6183
X0.4007Y0.7778
X0.409Y0.1941
X0.412Y0.3705
X0.4356Y0.8406
X0.4376Y0.7382
X0.441Y0.4008
X0.4899Y0.9295
X0.5Y0.0261
X0.5465Y0.2995
X0.5647Y0.9487
X0.5919Y0.5869
X0.5993Y0.5235
X0.6Y0.9935
X0.6Y0.0261
X0.6014Y0.6696
X0.64Y0.9795
X0.65Y0.5795
X0.66Y0.3295
T3
X0.5521Y0.6535
X0.5521Y0.4961
T0
M30
