M48
; DRILL file {KiCad 5.1.1} date Sun 05 May 2019 04:19:12 PM PDT
; FORMAT={-:-/ absolute / metric / decimal}
; #@! TF.CreationDate,2019-05-05T16:19:12-07:00
; #@! TF.GenerationSoftware,Kicad,Pcbnew,5.1.1
FMAT,2
METRIC
T1C0.400
T2C0.550
T3C1.000
T4C2.311
%
G90
G05
T1
X5.085Y17.277
X7.983Y33.039
X8.043Y30.739
X8.895Y25.659
X10.292Y33.914
X11.181Y34.676
X11.181Y24.389
X11.435Y28.453
X12.007Y25.342
X12.042Y35.914
X12.369Y29.291
X12.769Y26.231
X13.213Y35.565
X14.102Y36.774
X14.948Y35.254
X14.948Y34.12
X15.626Y38.867
X16.398Y25.542
X17.14Y26.284
X17.912Y38.867
X18.076Y39.92
X18.277Y32.855
X19.055Y36.708
X19.182Y38.867
X20.96Y37.978
X21.849Y28.707
X22.929Y35.819
X23.5Y30.104
X23.881Y26.294
X26.167Y32.39
X27.828Y23.764
X28.57Y24.506
T2
X26.312Y26.135
X26.312Y22.135
T3
X3.053Y15.499
X3.053Y12.959
X3.053Y10.419
X3.053Y7.879
X3.053Y5.339
X3.053Y2.799
X5.593Y15.499
X5.593Y12.959
X5.593Y10.419
X5.593Y7.879
X5.593Y5.339
X5.593Y2.799
X3.053Y38.359
X3.053Y35.819
X3.053Y33.279
X3.053Y30.739
X3.053Y28.199
X3.053Y25.659
X5.593Y38.359
X5.593Y35.819
X5.593Y33.279
X5.593Y30.739
X5.593Y28.199
X5.593Y25.659
T4
X25.715Y15.935
X25.715Y2.795
T0
M30
