G04 #@! TF.GenerationSoftware,KiCad,Pcbnew,5.1.4-e60b266~84~ubuntu19.04.1*
G04 #@! TF.CreationDate,2019-10-16T10:38:50-07:00*
G04 #@! TF.ProjectId,pmod-usb-analyser-openvizla,706d6f64-2d75-4736-922d-616e616c7973,rev?*
G04 #@! TF.SameCoordinates,PX26449c8PY4c8cf18*
G04 #@! TF.FileFunction,Soldermask,Bot*
G04 #@! TF.FilePolarity,Negative*
%FSLAX46Y46*%
G04 Gerber Fmt 4.6, Leading zero omitted, Abs format (unit mm)*
G04 Created by KiCad (PCBNEW 5.1.4-e60b266~84~ubuntu19.04.1) date 2019-10-16 10:38:50*
%MOMM*%
%LPD*%
G04 APERTURE LIST*
%ADD10C,0.100000*%
G04 APERTURE END LIST*
D10*
G36*
X26126474Y4150506D02*
G01*
X26383023Y4044241D01*
X26613912Y3889965D01*
X26810264Y3693613D01*
X26964540Y3462724D01*
X27070805Y3206175D01*
X27124979Y2933824D01*
X27124979Y2656136D01*
X27070805Y2383785D01*
X26964540Y2127236D01*
X26810264Y1896347D01*
X26613912Y1699995D01*
X26383023Y1545719D01*
X26126474Y1439454D01*
X25854123Y1385280D01*
X25576435Y1385280D01*
X25304084Y1439454D01*
X25047535Y1545719D01*
X24816646Y1699995D01*
X24620294Y1896347D01*
X24466018Y2127236D01*
X24359753Y2383785D01*
X24305579Y2656136D01*
X24305579Y2933824D01*
X24359753Y3206175D01*
X24466018Y3462724D01*
X24620294Y3693613D01*
X24816646Y3889965D01*
X25047535Y4044241D01*
X25304084Y4150506D01*
X25576435Y4204680D01*
X25854123Y4204680D01*
X26126474Y4150506D01*
X26126474Y4150506D01*
G37*
G36*
X6579705Y3636782D02*
G01*
X6664680Y3611005D01*
X6739935Y3588177D01*
X6784729Y3564234D01*
X6887601Y3509248D01*
X7017029Y3403029D01*
X7123248Y3273601D01*
X7159288Y3206174D01*
X7202177Y3125935D01*
X7225005Y3050680D01*
X7250782Y2965705D01*
X7267193Y2799080D01*
X7250782Y2632455D01*
X7225005Y2547480D01*
X7202177Y2472225D01*
X7202176Y2472224D01*
X7123248Y2324559D01*
X7017029Y2195131D01*
X6887601Y2088912D01*
X6784729Y2033926D01*
X6739935Y2009983D01*
X6664680Y1987155D01*
X6579705Y1961378D01*
X6454837Y1949080D01*
X5531323Y1949080D01*
X5406455Y1961378D01*
X5321480Y1987155D01*
X5246225Y2009983D01*
X5201431Y2033926D01*
X5098559Y2088912D01*
X4969131Y2195131D01*
X4862912Y2324559D01*
X4783984Y2472224D01*
X4783983Y2472225D01*
X4761155Y2547480D01*
X4735378Y2632455D01*
X4718967Y2799080D01*
X4735378Y2965705D01*
X4761155Y3050680D01*
X4783983Y3125935D01*
X4826872Y3206174D01*
X4862912Y3273601D01*
X4969131Y3403029D01*
X5098559Y3509248D01*
X5201431Y3564234D01*
X5246225Y3588177D01*
X5321480Y3611005D01*
X5406455Y3636782D01*
X5531323Y3649080D01*
X6454837Y3649080D01*
X6579705Y3636782D01*
X6579705Y3636782D01*
G37*
G36*
X3239705Y3636782D02*
G01*
X3324680Y3611005D01*
X3399935Y3588177D01*
X3444729Y3564234D01*
X3547601Y3509248D01*
X3677029Y3403029D01*
X3783248Y3273601D01*
X3819288Y3206174D01*
X3862177Y3125935D01*
X3885005Y3050680D01*
X3910782Y2965705D01*
X3927193Y2799080D01*
X3910782Y2632455D01*
X3885005Y2547480D01*
X3862177Y2472225D01*
X3862176Y2472224D01*
X3783248Y2324559D01*
X3677029Y2195131D01*
X3547601Y2088912D01*
X3444729Y2033926D01*
X3399935Y2009983D01*
X3324680Y1987155D01*
X3239705Y1961378D01*
X3114837Y1949080D01*
X2191323Y1949080D01*
X2066455Y1961378D01*
X1981480Y1987155D01*
X1906225Y2009983D01*
X1861431Y2033926D01*
X1758559Y2088912D01*
X1629131Y2195131D01*
X1522912Y2324559D01*
X1443984Y2472224D01*
X1443983Y2472225D01*
X1421155Y2547480D01*
X1395378Y2632455D01*
X1378967Y2799080D01*
X1395378Y2965705D01*
X1421155Y3050680D01*
X1443983Y3125935D01*
X1486872Y3206174D01*
X1522912Y3273601D01*
X1629131Y3403029D01*
X1758559Y3509248D01*
X1861431Y3564234D01*
X1906225Y3588177D01*
X1981480Y3611005D01*
X2066455Y3636782D01*
X2191323Y3649080D01*
X3114837Y3649080D01*
X3239705Y3636782D01*
X3239705Y3636782D01*
G37*
G36*
X6579705Y6176782D02*
G01*
X6664680Y6151005D01*
X6739935Y6128177D01*
X6784729Y6104234D01*
X6887601Y6049248D01*
X7017029Y5943029D01*
X7123248Y5813601D01*
X7178234Y5710729D01*
X7202177Y5665935D01*
X7225005Y5590680D01*
X7250782Y5505705D01*
X7267193Y5339080D01*
X7250782Y5172455D01*
X7225005Y5087480D01*
X7202177Y5012225D01*
X7202176Y5012224D01*
X7123248Y4864559D01*
X7017029Y4735131D01*
X6887601Y4628912D01*
X6784729Y4573926D01*
X6739935Y4549983D01*
X6664680Y4527155D01*
X6579705Y4501378D01*
X6454837Y4489080D01*
X5531323Y4489080D01*
X5406455Y4501378D01*
X5321480Y4527155D01*
X5246225Y4549983D01*
X5201431Y4573926D01*
X5098559Y4628912D01*
X4969131Y4735131D01*
X4862912Y4864559D01*
X4783984Y5012224D01*
X4783983Y5012225D01*
X4761155Y5087480D01*
X4735378Y5172455D01*
X4718967Y5339080D01*
X4735378Y5505705D01*
X4761155Y5590680D01*
X4783983Y5665935D01*
X4807926Y5710729D01*
X4862912Y5813601D01*
X4969131Y5943029D01*
X5098559Y6049248D01*
X5201431Y6104234D01*
X5246225Y6128177D01*
X5321480Y6151005D01*
X5406455Y6176782D01*
X5531323Y6189080D01*
X6454837Y6189080D01*
X6579705Y6176782D01*
X6579705Y6176782D01*
G37*
G36*
X3239705Y6176782D02*
G01*
X3324680Y6151005D01*
X3399935Y6128177D01*
X3444729Y6104234D01*
X3547601Y6049248D01*
X3677029Y5943029D01*
X3783248Y5813601D01*
X3838234Y5710729D01*
X3862177Y5665935D01*
X3885005Y5590680D01*
X3910782Y5505705D01*
X3927193Y5339080D01*
X3910782Y5172455D01*
X3885005Y5087480D01*
X3862177Y5012225D01*
X3862176Y5012224D01*
X3783248Y4864559D01*
X3677029Y4735131D01*
X3547601Y4628912D01*
X3444729Y4573926D01*
X3399935Y4549983D01*
X3324680Y4527155D01*
X3239705Y4501378D01*
X3114837Y4489080D01*
X2191323Y4489080D01*
X2066455Y4501378D01*
X1981480Y4527155D01*
X1906225Y4549983D01*
X1861431Y4573926D01*
X1758559Y4628912D01*
X1629131Y4735131D01*
X1522912Y4864559D01*
X1443984Y5012224D01*
X1443983Y5012225D01*
X1421155Y5087480D01*
X1395378Y5172455D01*
X1378967Y5339080D01*
X1395378Y5505705D01*
X1421155Y5590680D01*
X1443983Y5665935D01*
X1467926Y5710729D01*
X1522912Y5813601D01*
X1629131Y5943029D01*
X1758559Y6049248D01*
X1861431Y6104234D01*
X1906225Y6128177D01*
X1981480Y6151005D01*
X2066455Y6176782D01*
X2191323Y6189080D01*
X3114837Y6189080D01*
X3239705Y6176782D01*
X3239705Y6176782D01*
G37*
G36*
X3239705Y8716782D02*
G01*
X3324680Y8691005D01*
X3399935Y8668177D01*
X3444729Y8644234D01*
X3547601Y8589248D01*
X3677029Y8483029D01*
X3783248Y8353601D01*
X3838234Y8250729D01*
X3862177Y8205935D01*
X3885005Y8130680D01*
X3910782Y8045705D01*
X3927193Y7879080D01*
X3910782Y7712455D01*
X3885005Y7627480D01*
X3862177Y7552225D01*
X3862176Y7552224D01*
X3783248Y7404559D01*
X3677029Y7275131D01*
X3547601Y7168912D01*
X3444729Y7113926D01*
X3399935Y7089983D01*
X3324680Y7067155D01*
X3239705Y7041378D01*
X3114837Y7029080D01*
X2191323Y7029080D01*
X2066455Y7041378D01*
X1981480Y7067155D01*
X1906225Y7089983D01*
X1861431Y7113926D01*
X1758559Y7168912D01*
X1629131Y7275131D01*
X1522912Y7404559D01*
X1443984Y7552224D01*
X1443983Y7552225D01*
X1421155Y7627480D01*
X1395378Y7712455D01*
X1378967Y7879080D01*
X1395378Y8045705D01*
X1421155Y8130680D01*
X1443983Y8205935D01*
X1467926Y8250729D01*
X1522912Y8353601D01*
X1629131Y8483029D01*
X1758559Y8589248D01*
X1861431Y8644234D01*
X1906225Y8668177D01*
X1981480Y8691005D01*
X2066455Y8716782D01*
X2191323Y8729080D01*
X3114837Y8729080D01*
X3239705Y8716782D01*
X3239705Y8716782D01*
G37*
G36*
X6579705Y8716782D02*
G01*
X6664680Y8691005D01*
X6739935Y8668177D01*
X6784729Y8644234D01*
X6887601Y8589248D01*
X7017029Y8483029D01*
X7123248Y8353601D01*
X7178234Y8250729D01*
X7202177Y8205935D01*
X7225005Y8130680D01*
X7250782Y8045705D01*
X7267193Y7879080D01*
X7250782Y7712455D01*
X7225005Y7627480D01*
X7202177Y7552225D01*
X7202176Y7552224D01*
X7123248Y7404559D01*
X7017029Y7275131D01*
X6887601Y7168912D01*
X6784729Y7113926D01*
X6739935Y7089983D01*
X6664680Y7067155D01*
X6579705Y7041378D01*
X6454837Y7029080D01*
X5531323Y7029080D01*
X5406455Y7041378D01*
X5321480Y7067155D01*
X5246225Y7089983D01*
X5201431Y7113926D01*
X5098559Y7168912D01*
X4969131Y7275131D01*
X4862912Y7404559D01*
X4783984Y7552224D01*
X4783983Y7552225D01*
X4761155Y7627480D01*
X4735378Y7712455D01*
X4718967Y7879080D01*
X4735378Y8045705D01*
X4761155Y8130680D01*
X4783983Y8205935D01*
X4807926Y8250729D01*
X4862912Y8353601D01*
X4969131Y8483029D01*
X5098559Y8589248D01*
X5201431Y8644234D01*
X5246225Y8668177D01*
X5321480Y8691005D01*
X5406455Y8716782D01*
X5531323Y8729080D01*
X6454837Y8729080D01*
X6579705Y8716782D01*
X6579705Y8716782D01*
G37*
G36*
X6579705Y11256782D02*
G01*
X6664680Y11231005D01*
X6739935Y11208177D01*
X6784729Y11184234D01*
X6887601Y11129248D01*
X7017029Y11023029D01*
X7123248Y10893601D01*
X7178234Y10790729D01*
X7202177Y10745935D01*
X7225005Y10670680D01*
X7250782Y10585705D01*
X7267193Y10419080D01*
X7250782Y10252455D01*
X7225005Y10167480D01*
X7202177Y10092225D01*
X7202176Y10092224D01*
X7123248Y9944559D01*
X7017029Y9815131D01*
X6887601Y9708912D01*
X6784729Y9653926D01*
X6739935Y9629983D01*
X6664680Y9607155D01*
X6579705Y9581378D01*
X6454837Y9569080D01*
X5531323Y9569080D01*
X5406455Y9581378D01*
X5321480Y9607155D01*
X5246225Y9629983D01*
X5201431Y9653926D01*
X5098559Y9708912D01*
X4969131Y9815131D01*
X4862912Y9944559D01*
X4783984Y10092224D01*
X4783983Y10092225D01*
X4761155Y10167480D01*
X4735378Y10252455D01*
X4718967Y10419080D01*
X4735378Y10585705D01*
X4761155Y10670680D01*
X4783983Y10745935D01*
X4807926Y10790729D01*
X4862912Y10893601D01*
X4969131Y11023029D01*
X5098559Y11129248D01*
X5201431Y11184234D01*
X5246225Y11208177D01*
X5321480Y11231005D01*
X5406455Y11256782D01*
X5531323Y11269080D01*
X6454837Y11269080D01*
X6579705Y11256782D01*
X6579705Y11256782D01*
G37*
G36*
X3239705Y11256782D02*
G01*
X3324680Y11231005D01*
X3399935Y11208177D01*
X3444729Y11184234D01*
X3547601Y11129248D01*
X3677029Y11023029D01*
X3783248Y10893601D01*
X3838234Y10790729D01*
X3862177Y10745935D01*
X3885005Y10670680D01*
X3910782Y10585705D01*
X3927193Y10419080D01*
X3910782Y10252455D01*
X3885005Y10167480D01*
X3862177Y10092225D01*
X3862176Y10092224D01*
X3783248Y9944559D01*
X3677029Y9815131D01*
X3547601Y9708912D01*
X3444729Y9653926D01*
X3399935Y9629983D01*
X3324680Y9607155D01*
X3239705Y9581378D01*
X3114837Y9569080D01*
X2191323Y9569080D01*
X2066455Y9581378D01*
X1981480Y9607155D01*
X1906225Y9629983D01*
X1861431Y9653926D01*
X1758559Y9708912D01*
X1629131Y9815131D01*
X1522912Y9944559D01*
X1443984Y10092224D01*
X1443983Y10092225D01*
X1421155Y10167480D01*
X1395378Y10252455D01*
X1378967Y10419080D01*
X1395378Y10585705D01*
X1421155Y10670680D01*
X1443983Y10745935D01*
X1467926Y10790729D01*
X1522912Y10893601D01*
X1629131Y11023029D01*
X1758559Y11129248D01*
X1861431Y11184234D01*
X1906225Y11208177D01*
X1981480Y11231005D01*
X2066455Y11256782D01*
X2191323Y11269080D01*
X3114837Y11269080D01*
X3239705Y11256782D01*
X3239705Y11256782D01*
G37*
G36*
X6579705Y13796782D02*
G01*
X6664680Y13771005D01*
X6739935Y13748177D01*
X6784729Y13724234D01*
X6887601Y13669248D01*
X7017029Y13563029D01*
X7123248Y13433601D01*
X7178234Y13330729D01*
X7202177Y13285935D01*
X7225005Y13210680D01*
X7250782Y13125705D01*
X7267193Y12959080D01*
X7250782Y12792455D01*
X7225005Y12707480D01*
X7202177Y12632225D01*
X7202176Y12632224D01*
X7123248Y12484559D01*
X7017029Y12355131D01*
X6887601Y12248912D01*
X6784729Y12193926D01*
X6739935Y12169983D01*
X6664680Y12147155D01*
X6579705Y12121378D01*
X6454837Y12109080D01*
X5531323Y12109080D01*
X5406455Y12121378D01*
X5321480Y12147155D01*
X5246225Y12169983D01*
X5201431Y12193926D01*
X5098559Y12248912D01*
X4969131Y12355131D01*
X4862912Y12484559D01*
X4783984Y12632224D01*
X4783983Y12632225D01*
X4761155Y12707480D01*
X4735378Y12792455D01*
X4718967Y12959080D01*
X4735378Y13125705D01*
X4761155Y13210680D01*
X4783983Y13285935D01*
X4807926Y13330729D01*
X4862912Y13433601D01*
X4969131Y13563029D01*
X5098559Y13669248D01*
X5201431Y13724234D01*
X5246225Y13748177D01*
X5321480Y13771005D01*
X5406455Y13796782D01*
X5531323Y13809080D01*
X6454837Y13809080D01*
X6579705Y13796782D01*
X6579705Y13796782D01*
G37*
G36*
X3239705Y13796782D02*
G01*
X3324680Y13771005D01*
X3399935Y13748177D01*
X3444729Y13724234D01*
X3547601Y13669248D01*
X3677029Y13563029D01*
X3783248Y13433601D01*
X3838234Y13330729D01*
X3862177Y13285935D01*
X3885005Y13210680D01*
X3910782Y13125705D01*
X3927193Y12959080D01*
X3910782Y12792455D01*
X3885005Y12707480D01*
X3862177Y12632225D01*
X3862176Y12632224D01*
X3783248Y12484559D01*
X3677029Y12355131D01*
X3547601Y12248912D01*
X3444729Y12193926D01*
X3399935Y12169983D01*
X3324680Y12147155D01*
X3239705Y12121378D01*
X3114837Y12109080D01*
X2191323Y12109080D01*
X2066455Y12121378D01*
X1981480Y12147155D01*
X1906225Y12169983D01*
X1861431Y12193926D01*
X1758559Y12248912D01*
X1629131Y12355131D01*
X1522912Y12484559D01*
X1443984Y12632224D01*
X1443983Y12632225D01*
X1421155Y12707480D01*
X1395378Y12792455D01*
X1378967Y12959080D01*
X1395378Y13125705D01*
X1421155Y13210680D01*
X1443983Y13285935D01*
X1467926Y13330729D01*
X1522912Y13433601D01*
X1629131Y13563029D01*
X1758559Y13669248D01*
X1861431Y13724234D01*
X1906225Y13748177D01*
X1981480Y13771005D01*
X2066455Y13796782D01*
X2191323Y13809080D01*
X3114837Y13809080D01*
X3239705Y13796782D01*
X3239705Y13796782D01*
G37*
G36*
X26126474Y17290506D02*
G01*
X26383023Y17184241D01*
X26613912Y17029965D01*
X26810264Y16833613D01*
X26964540Y16602724D01*
X27070805Y16346175D01*
X27124979Y16073824D01*
X27124979Y15796136D01*
X27070805Y15523785D01*
X26964540Y15267236D01*
X26810264Y15036347D01*
X26613912Y14839995D01*
X26383023Y14685719D01*
X26126474Y14579454D01*
X25854123Y14525280D01*
X25576435Y14525280D01*
X25304084Y14579454D01*
X25047535Y14685719D01*
X24816646Y14839995D01*
X24620294Y15036347D01*
X24466018Y15267236D01*
X24359753Y15523785D01*
X24305579Y15796136D01*
X24305579Y16073824D01*
X24359753Y16346175D01*
X24466018Y16602724D01*
X24620294Y16833613D01*
X24816646Y17029965D01*
X25047535Y17184241D01*
X25304084Y17290506D01*
X25576435Y17344680D01*
X25854123Y17344680D01*
X26126474Y17290506D01*
X26126474Y17290506D01*
G37*
G36*
X3239705Y16336782D02*
G01*
X3324680Y16311005D01*
X3399935Y16288177D01*
X3444729Y16264234D01*
X3547601Y16209248D01*
X3677029Y16103029D01*
X3783248Y15973601D01*
X3838234Y15870729D01*
X3862177Y15825935D01*
X3871216Y15796137D01*
X3910782Y15665705D01*
X3927193Y15499080D01*
X3910782Y15332455D01*
X3890998Y15267237D01*
X3862177Y15172225D01*
X3862176Y15172224D01*
X3783248Y15024559D01*
X3677029Y14895131D01*
X3547601Y14788912D01*
X3444729Y14733926D01*
X3399935Y14709983D01*
X3324680Y14687155D01*
X3239705Y14661378D01*
X3114837Y14649080D01*
X2191323Y14649080D01*
X2066455Y14661378D01*
X1981480Y14687155D01*
X1906225Y14709983D01*
X1861431Y14733926D01*
X1758559Y14788912D01*
X1629131Y14895131D01*
X1522912Y15024559D01*
X1443984Y15172224D01*
X1443983Y15172225D01*
X1415162Y15267237D01*
X1395378Y15332455D01*
X1378967Y15499080D01*
X1395378Y15665705D01*
X1434944Y15796137D01*
X1443983Y15825935D01*
X1467926Y15870729D01*
X1522912Y15973601D01*
X1629131Y16103029D01*
X1758559Y16209248D01*
X1861431Y16264234D01*
X1906225Y16288177D01*
X1981480Y16311005D01*
X2066455Y16336782D01*
X2191323Y16349080D01*
X3114837Y16349080D01*
X3239705Y16336782D01*
X3239705Y16336782D01*
G37*
G36*
X6579705Y16336782D02*
G01*
X6664680Y16311005D01*
X6739935Y16288177D01*
X6784729Y16264234D01*
X6887601Y16209248D01*
X7017029Y16103029D01*
X7123248Y15973601D01*
X7178234Y15870729D01*
X7202177Y15825935D01*
X7211216Y15796137D01*
X7250782Y15665705D01*
X7267193Y15499080D01*
X7250782Y15332455D01*
X7230998Y15267237D01*
X7202177Y15172225D01*
X7202176Y15172224D01*
X7123248Y15024559D01*
X7017029Y14895131D01*
X6887601Y14788912D01*
X6784729Y14733926D01*
X6739935Y14709983D01*
X6664680Y14687155D01*
X6579705Y14661378D01*
X6454837Y14649080D01*
X5531323Y14649080D01*
X5406455Y14661378D01*
X5321480Y14687155D01*
X5246225Y14709983D01*
X5201431Y14733926D01*
X5098559Y14788912D01*
X4969131Y14895131D01*
X4862912Y15024559D01*
X4783984Y15172224D01*
X4783983Y15172225D01*
X4755162Y15267237D01*
X4735378Y15332455D01*
X4718967Y15499080D01*
X4735378Y15665705D01*
X4774944Y15796137D01*
X4783983Y15825935D01*
X4807926Y15870729D01*
X4862912Y15973601D01*
X4969131Y16103029D01*
X5098559Y16209248D01*
X5201431Y16264234D01*
X5246225Y16288177D01*
X5321480Y16311005D01*
X5406455Y16336782D01*
X5531323Y16349080D01*
X6454837Y16349080D01*
X6579705Y16336782D01*
X6579705Y16336782D01*
G37*
G36*
X25489102Y21274228D02*
G01*
X25489105Y21274227D01*
X25489106Y21274227D01*
X25522254Y21264172D01*
X25630480Y21231342D01*
X25676170Y21206920D01*
X25760773Y21161699D01*
X25760776Y21161697D01*
X25760777Y21161696D01*
X25874976Y21067976D01*
X25968696Y20953777D01*
X25968699Y20953773D01*
X26013920Y20869170D01*
X26038342Y20823480D01*
X26081228Y20682102D01*
X26095709Y20535080D01*
X26081228Y20388058D01*
X26038342Y20246680D01*
X26038341Y20246679D01*
X25968699Y20116387D01*
X25968697Y20116384D01*
X25968696Y20116383D01*
X25874976Y20002184D01*
X25760777Y19908464D01*
X25760773Y19908461D01*
X25676170Y19863240D01*
X25630480Y19838818D01*
X25522254Y19805988D01*
X25489106Y19795933D01*
X25489105Y19795933D01*
X25489102Y19795932D01*
X25378920Y19785080D01*
X24605240Y19785080D01*
X24495058Y19795932D01*
X24495055Y19795933D01*
X24495054Y19795933D01*
X24461906Y19805988D01*
X24353680Y19838818D01*
X24307990Y19863240D01*
X24223387Y19908461D01*
X24223383Y19908464D01*
X24109184Y20002184D01*
X24015464Y20116383D01*
X24015463Y20116384D01*
X24015461Y20116387D01*
X23945819Y20246679D01*
X23945818Y20246680D01*
X23902932Y20388058D01*
X23888451Y20535080D01*
X23902932Y20682102D01*
X23945818Y20823480D01*
X23970240Y20869170D01*
X24015461Y20953773D01*
X24015464Y20953777D01*
X24109184Y21067976D01*
X24223383Y21161696D01*
X24223384Y21161697D01*
X24223387Y21161699D01*
X24307990Y21206920D01*
X24353680Y21231342D01*
X24461906Y21264172D01*
X24495054Y21274227D01*
X24495055Y21274227D01*
X24495058Y21274228D01*
X24605240Y21285080D01*
X25378920Y21285080D01*
X25489102Y21274228D01*
X25489102Y21274228D01*
G37*
G36*
X28959102Y21274228D02*
G01*
X28959105Y21274227D01*
X28959106Y21274227D01*
X28992254Y21264172D01*
X29100480Y21231342D01*
X29146170Y21206920D01*
X29230773Y21161699D01*
X29230776Y21161697D01*
X29230777Y21161696D01*
X29344976Y21067976D01*
X29438696Y20953777D01*
X29438699Y20953773D01*
X29483920Y20869170D01*
X29508342Y20823480D01*
X29551228Y20682102D01*
X29565709Y20535080D01*
X29551228Y20388058D01*
X29508342Y20246680D01*
X29508341Y20246679D01*
X29438699Y20116387D01*
X29438697Y20116384D01*
X29438696Y20116383D01*
X29344976Y20002184D01*
X29230777Y19908464D01*
X29230773Y19908461D01*
X29146170Y19863240D01*
X29100480Y19838818D01*
X28992254Y19805988D01*
X28959106Y19795933D01*
X28959105Y19795933D01*
X28959102Y19795932D01*
X28848920Y19785080D01*
X28075240Y19785080D01*
X27965058Y19795932D01*
X27965055Y19795933D01*
X27965054Y19795933D01*
X27931906Y19805988D01*
X27823680Y19838818D01*
X27777990Y19863240D01*
X27693387Y19908461D01*
X27693383Y19908464D01*
X27579184Y20002184D01*
X27485464Y20116383D01*
X27485463Y20116384D01*
X27485461Y20116387D01*
X27415819Y20246679D01*
X27415818Y20246680D01*
X27372932Y20388058D01*
X27358451Y20535080D01*
X27372932Y20682102D01*
X27415818Y20823480D01*
X27440240Y20869170D01*
X27485461Y20953773D01*
X27485464Y20953777D01*
X27579184Y21067976D01*
X27693383Y21161696D01*
X27693384Y21161697D01*
X27693387Y21161699D01*
X27777990Y21206920D01*
X27823680Y21231342D01*
X27931906Y21264172D01*
X27965054Y21274227D01*
X27965055Y21274227D01*
X27965058Y21274228D01*
X28075240Y21285080D01*
X28848920Y21285080D01*
X28959102Y21274228D01*
X28959102Y21274228D01*
G37*
G36*
X26392295Y22399512D02*
G01*
X26442342Y22378782D01*
X26487383Y22348687D01*
X26525687Y22310383D01*
X26555782Y22265342D01*
X26576512Y22215295D01*
X26587080Y22162165D01*
X26587080Y22107995D01*
X26576512Y22054865D01*
X26555782Y22004818D01*
X26525687Y21959777D01*
X26487383Y21921473D01*
X26442342Y21891378D01*
X26392295Y21870648D01*
X26339165Y21860080D01*
X26284995Y21860080D01*
X26231865Y21870648D01*
X26181818Y21891378D01*
X26136777Y21921473D01*
X26098473Y21959777D01*
X26068378Y22004818D01*
X26047648Y22054865D01*
X26037080Y22107995D01*
X26037080Y22162165D01*
X26047648Y22215295D01*
X26068378Y22265342D01*
X26098473Y22310383D01*
X26136777Y22348687D01*
X26181818Y22378782D01*
X26231865Y22399512D01*
X26284995Y22410080D01*
X26339165Y22410080D01*
X26392295Y22399512D01*
X26392295Y22399512D01*
G37*
G36*
X30162080Y22085080D02*
G01*
X29062080Y22085080D01*
X29062080Y23185080D01*
X30162080Y23185080D01*
X30162080Y22085080D01*
X30162080Y22085080D01*
G37*
G36*
X26377080Y22635080D02*
G01*
X23727080Y22635080D01*
X23727080Y23035080D01*
X26377080Y23035080D01*
X26377080Y22635080D01*
X26377080Y22635080D01*
G37*
G36*
X26377080Y23285080D02*
G01*
X23727080Y23285080D01*
X23727080Y23685080D01*
X26377080Y23685080D01*
X26377080Y23285080D01*
X26377080Y23285080D01*
G37*
G36*
X26377080Y23935080D02*
G01*
X23727080Y23935080D01*
X23727080Y24335080D01*
X26377080Y24335080D01*
X26377080Y23935080D01*
X26377080Y23935080D01*
G37*
G36*
X26377080Y24585080D02*
G01*
X23727080Y24585080D01*
X23727080Y24985080D01*
X26377080Y24985080D01*
X26377080Y24585080D01*
X26377080Y24585080D01*
G37*
G36*
X3239705Y26496782D02*
G01*
X3324680Y26471005D01*
X3399935Y26448177D01*
X3444729Y26424234D01*
X3547601Y26369248D01*
X3677029Y26263029D01*
X3783248Y26133601D01*
X3825333Y26054865D01*
X3862177Y25985935D01*
X3881730Y25921477D01*
X3910782Y25825705D01*
X3927193Y25659080D01*
X3910782Y25492455D01*
X3885005Y25407480D01*
X3862177Y25332225D01*
X3862176Y25332224D01*
X3783248Y25184559D01*
X3677029Y25055131D01*
X3547601Y24948912D01*
X3444729Y24893926D01*
X3399935Y24869983D01*
X3324680Y24847155D01*
X3239705Y24821378D01*
X3114837Y24809080D01*
X2191323Y24809080D01*
X2066455Y24821378D01*
X1981480Y24847155D01*
X1906225Y24869983D01*
X1861431Y24893926D01*
X1758559Y24948912D01*
X1629131Y25055131D01*
X1522912Y25184559D01*
X1443984Y25332224D01*
X1443983Y25332225D01*
X1421155Y25407480D01*
X1395378Y25492455D01*
X1378967Y25659080D01*
X1395378Y25825705D01*
X1424430Y25921477D01*
X1443983Y25985935D01*
X1480827Y26054865D01*
X1522912Y26133601D01*
X1629131Y26263029D01*
X1758559Y26369248D01*
X1861431Y26424234D01*
X1906225Y26448177D01*
X1981480Y26471005D01*
X2066455Y26496782D01*
X2191323Y26509080D01*
X3114837Y26509080D01*
X3239705Y26496782D01*
X3239705Y26496782D01*
G37*
G36*
X6579705Y26496782D02*
G01*
X6664680Y26471005D01*
X6739935Y26448177D01*
X6784729Y26424234D01*
X6887601Y26369248D01*
X7017029Y26263029D01*
X7123248Y26133601D01*
X7165333Y26054865D01*
X7202177Y25985935D01*
X7221730Y25921477D01*
X7250782Y25825705D01*
X7267193Y25659080D01*
X7250782Y25492455D01*
X7225005Y25407480D01*
X7202177Y25332225D01*
X7202176Y25332224D01*
X7123248Y25184559D01*
X7017029Y25055131D01*
X6887601Y24948912D01*
X6784729Y24893926D01*
X6739935Y24869983D01*
X6664680Y24847155D01*
X6579705Y24821378D01*
X6454837Y24809080D01*
X5531323Y24809080D01*
X5406455Y24821378D01*
X5321480Y24847155D01*
X5246225Y24869983D01*
X5201431Y24893926D01*
X5098559Y24948912D01*
X4969131Y25055131D01*
X4862912Y25184559D01*
X4783984Y25332224D01*
X4783983Y25332225D01*
X4761155Y25407480D01*
X4735378Y25492455D01*
X4718967Y25659080D01*
X4735378Y25825705D01*
X4764430Y25921477D01*
X4783983Y25985935D01*
X4820827Y26054865D01*
X4862912Y26133601D01*
X4969131Y26263029D01*
X5098559Y26369248D01*
X5201431Y26424234D01*
X5246225Y26448177D01*
X5321480Y26471005D01*
X5406455Y26496782D01*
X5531323Y26509080D01*
X6454837Y26509080D01*
X6579705Y26496782D01*
X6579705Y26496782D01*
G37*
G36*
X30162080Y25085080D02*
G01*
X29062080Y25085080D01*
X29062080Y26185080D01*
X30162080Y26185080D01*
X30162080Y25085080D01*
X30162080Y25085080D01*
G37*
G36*
X26377080Y25235080D02*
G01*
X23727080Y25235080D01*
X23727080Y25635080D01*
X26377080Y25635080D01*
X26377080Y25235080D01*
X26377080Y25235080D01*
G37*
G36*
X26392295Y26399512D02*
G01*
X26442342Y26378782D01*
X26487383Y26348687D01*
X26525687Y26310383D01*
X26555782Y26265342D01*
X26576512Y26215295D01*
X26587080Y26162165D01*
X26587080Y26107995D01*
X26576512Y26054865D01*
X26555782Y26004818D01*
X26525687Y25959777D01*
X26487383Y25921473D01*
X26442342Y25891378D01*
X26392295Y25870648D01*
X26339165Y25860080D01*
X26284995Y25860080D01*
X26231865Y25870648D01*
X26181818Y25891378D01*
X26136777Y25921473D01*
X26098473Y25959777D01*
X26068378Y26004818D01*
X26047648Y26054865D01*
X26037080Y26107995D01*
X26037080Y26162165D01*
X26047648Y26215295D01*
X26068378Y26265342D01*
X26098473Y26310383D01*
X26136777Y26348687D01*
X26181818Y26378782D01*
X26231865Y26399512D01*
X26284995Y26410080D01*
X26339165Y26410080D01*
X26392295Y26399512D01*
X26392295Y26399512D01*
G37*
G36*
X28959102Y28474228D02*
G01*
X28959105Y28474227D01*
X28959106Y28474227D01*
X28992254Y28464172D01*
X29100480Y28431342D01*
X29146170Y28406920D01*
X29230773Y28361699D01*
X29230776Y28361697D01*
X29230777Y28361696D01*
X29344976Y28267976D01*
X29438696Y28153777D01*
X29438699Y28153773D01*
X29483920Y28069170D01*
X29508342Y28023480D01*
X29551228Y27882102D01*
X29565709Y27735080D01*
X29551228Y27588058D01*
X29508342Y27446680D01*
X29508341Y27446679D01*
X29438699Y27316387D01*
X29438697Y27316384D01*
X29438696Y27316383D01*
X29344976Y27202184D01*
X29230777Y27108464D01*
X29230773Y27108461D01*
X29146170Y27063240D01*
X29100480Y27038818D01*
X28992254Y27005988D01*
X28959106Y26995933D01*
X28959105Y26995933D01*
X28959102Y26995932D01*
X28848920Y26985080D01*
X28075240Y26985080D01*
X27965058Y26995932D01*
X27965055Y26995933D01*
X27965054Y26995933D01*
X27931906Y27005988D01*
X27823680Y27038818D01*
X27777990Y27063240D01*
X27693387Y27108461D01*
X27693383Y27108464D01*
X27579184Y27202184D01*
X27485464Y27316383D01*
X27485463Y27316384D01*
X27485461Y27316387D01*
X27415819Y27446679D01*
X27415818Y27446680D01*
X27372932Y27588058D01*
X27358451Y27735080D01*
X27372932Y27882102D01*
X27415818Y28023480D01*
X27440240Y28069170D01*
X27485461Y28153773D01*
X27485464Y28153777D01*
X27579184Y28267976D01*
X27693383Y28361696D01*
X27693384Y28361697D01*
X27693387Y28361699D01*
X27777990Y28406920D01*
X27823680Y28431342D01*
X27931906Y28464172D01*
X27965054Y28474227D01*
X27965055Y28474227D01*
X27965058Y28474228D01*
X28075240Y28485080D01*
X28848920Y28485080D01*
X28959102Y28474228D01*
X28959102Y28474228D01*
G37*
G36*
X25489102Y28474228D02*
G01*
X25489105Y28474227D01*
X25489106Y28474227D01*
X25522254Y28464172D01*
X25630480Y28431342D01*
X25676170Y28406920D01*
X25760773Y28361699D01*
X25760776Y28361697D01*
X25760777Y28361696D01*
X25874976Y28267976D01*
X25968696Y28153777D01*
X25968699Y28153773D01*
X26013920Y28069170D01*
X26038342Y28023480D01*
X26081228Y27882102D01*
X26095709Y27735080D01*
X26081228Y27588058D01*
X26038342Y27446680D01*
X26038341Y27446679D01*
X25968699Y27316387D01*
X25968697Y27316384D01*
X25968696Y27316383D01*
X25874976Y27202184D01*
X25760777Y27108464D01*
X25760773Y27108461D01*
X25676170Y27063240D01*
X25630480Y27038818D01*
X25522254Y27005988D01*
X25489106Y26995933D01*
X25489105Y26995933D01*
X25489102Y26995932D01*
X25378920Y26985080D01*
X24605240Y26985080D01*
X24495058Y26995932D01*
X24495055Y26995933D01*
X24495054Y26995933D01*
X24461906Y27005988D01*
X24353680Y27038818D01*
X24307990Y27063240D01*
X24223387Y27108461D01*
X24223383Y27108464D01*
X24109184Y27202184D01*
X24015464Y27316383D01*
X24015463Y27316384D01*
X24015461Y27316387D01*
X23945819Y27446679D01*
X23945818Y27446680D01*
X23902932Y27588058D01*
X23888451Y27735080D01*
X23902932Y27882102D01*
X23945818Y28023480D01*
X23970240Y28069170D01*
X24015461Y28153773D01*
X24015464Y28153777D01*
X24109184Y28267976D01*
X24223383Y28361696D01*
X24223384Y28361697D01*
X24223387Y28361699D01*
X24307990Y28406920D01*
X24353680Y28431342D01*
X24461906Y28464172D01*
X24495054Y28474227D01*
X24495055Y28474227D01*
X24495058Y28474228D01*
X24605240Y28485080D01*
X25378920Y28485080D01*
X25489102Y28474228D01*
X25489102Y28474228D01*
G37*
G36*
X6579705Y29036782D02*
G01*
X6664680Y29011005D01*
X6739935Y28988177D01*
X6784729Y28964234D01*
X6887601Y28909248D01*
X7017029Y28803029D01*
X7123248Y28673601D01*
X7178234Y28570729D01*
X7202177Y28525935D01*
X7214570Y28485080D01*
X7250782Y28365705D01*
X7267193Y28199080D01*
X7250782Y28032455D01*
X7248059Y28023480D01*
X7202177Y27872225D01*
X7202176Y27872224D01*
X7123248Y27724559D01*
X7017029Y27595131D01*
X6887601Y27488912D01*
X6808588Y27446679D01*
X6739935Y27409983D01*
X6664680Y27387155D01*
X6579705Y27361378D01*
X6454837Y27349080D01*
X5531323Y27349080D01*
X5406455Y27361378D01*
X5321480Y27387155D01*
X5246225Y27409983D01*
X5177572Y27446679D01*
X5098559Y27488912D01*
X4969131Y27595131D01*
X4862912Y27724559D01*
X4783984Y27872224D01*
X4783983Y27872225D01*
X4738101Y28023480D01*
X4735378Y28032455D01*
X4718967Y28199080D01*
X4735378Y28365705D01*
X4771590Y28485080D01*
X4783983Y28525935D01*
X4807926Y28570729D01*
X4862912Y28673601D01*
X4969131Y28803029D01*
X5098559Y28909248D01*
X5201431Y28964234D01*
X5246225Y28988177D01*
X5321480Y29011005D01*
X5406455Y29036782D01*
X5531323Y29049080D01*
X6454837Y29049080D01*
X6579705Y29036782D01*
X6579705Y29036782D01*
G37*
G36*
X3239705Y29036782D02*
G01*
X3324680Y29011005D01*
X3399935Y28988177D01*
X3444729Y28964234D01*
X3547601Y28909248D01*
X3677029Y28803029D01*
X3783248Y28673601D01*
X3838234Y28570729D01*
X3862177Y28525935D01*
X3874570Y28485080D01*
X3910782Y28365705D01*
X3927193Y28199080D01*
X3910782Y28032455D01*
X3908059Y28023480D01*
X3862177Y27872225D01*
X3862176Y27872224D01*
X3783248Y27724559D01*
X3677029Y27595131D01*
X3547601Y27488912D01*
X3468588Y27446679D01*
X3399935Y27409983D01*
X3324680Y27387155D01*
X3239705Y27361378D01*
X3114837Y27349080D01*
X2191323Y27349080D01*
X2066455Y27361378D01*
X1981480Y27387155D01*
X1906225Y27409983D01*
X1837572Y27446679D01*
X1758559Y27488912D01*
X1629131Y27595131D01*
X1522912Y27724559D01*
X1443984Y27872224D01*
X1443983Y27872225D01*
X1398101Y28023480D01*
X1395378Y28032455D01*
X1378967Y28199080D01*
X1395378Y28365705D01*
X1431590Y28485080D01*
X1443983Y28525935D01*
X1467926Y28570729D01*
X1522912Y28673601D01*
X1629131Y28803029D01*
X1758559Y28909248D01*
X1861431Y28964234D01*
X1906225Y28988177D01*
X1981480Y29011005D01*
X2066455Y29036782D01*
X2191323Y29049080D01*
X3114837Y29049080D01*
X3239705Y29036782D01*
X3239705Y29036782D01*
G37*
G36*
X3239705Y31576782D02*
G01*
X3324680Y31551005D01*
X3399935Y31528177D01*
X3444729Y31504234D01*
X3547601Y31449248D01*
X3677029Y31343029D01*
X3783248Y31213601D01*
X3838234Y31110729D01*
X3862177Y31065935D01*
X3885005Y30990680D01*
X3910782Y30905705D01*
X3927193Y30739080D01*
X3910782Y30572455D01*
X3885005Y30487480D01*
X3862177Y30412225D01*
X3862176Y30412224D01*
X3783248Y30264559D01*
X3677029Y30135131D01*
X3547601Y30028912D01*
X3444729Y29973926D01*
X3399935Y29949983D01*
X3324680Y29927155D01*
X3239705Y29901378D01*
X3114837Y29889080D01*
X2191323Y29889080D01*
X2066455Y29901378D01*
X1981480Y29927155D01*
X1906225Y29949983D01*
X1861431Y29973926D01*
X1758559Y30028912D01*
X1629131Y30135131D01*
X1522912Y30264559D01*
X1443984Y30412224D01*
X1443983Y30412225D01*
X1421155Y30487480D01*
X1395378Y30572455D01*
X1378967Y30739080D01*
X1395378Y30905705D01*
X1421155Y30990680D01*
X1443983Y31065935D01*
X1467926Y31110729D01*
X1522912Y31213601D01*
X1629131Y31343029D01*
X1758559Y31449248D01*
X1861431Y31504234D01*
X1906225Y31528177D01*
X1981480Y31551005D01*
X2066455Y31576782D01*
X2191323Y31589080D01*
X3114837Y31589080D01*
X3239705Y31576782D01*
X3239705Y31576782D01*
G37*
G36*
X6579705Y31576782D02*
G01*
X6664680Y31551005D01*
X6739935Y31528177D01*
X6784729Y31504234D01*
X6887601Y31449248D01*
X7017029Y31343029D01*
X7123248Y31213601D01*
X7178234Y31110729D01*
X7202177Y31065935D01*
X7225005Y30990680D01*
X7250782Y30905705D01*
X7267193Y30739080D01*
X7250782Y30572455D01*
X7225005Y30487480D01*
X7202177Y30412225D01*
X7202176Y30412224D01*
X7123248Y30264559D01*
X7017029Y30135131D01*
X6887601Y30028912D01*
X6784729Y29973926D01*
X6739935Y29949983D01*
X6664680Y29927155D01*
X6579705Y29901378D01*
X6454837Y29889080D01*
X5531323Y29889080D01*
X5406455Y29901378D01*
X5321480Y29927155D01*
X5246225Y29949983D01*
X5201431Y29973926D01*
X5098559Y30028912D01*
X4969131Y30135131D01*
X4862912Y30264559D01*
X4783984Y30412224D01*
X4783983Y30412225D01*
X4761155Y30487480D01*
X4735378Y30572455D01*
X4718967Y30739080D01*
X4735378Y30905705D01*
X4761155Y30990680D01*
X4783983Y31065935D01*
X4807926Y31110729D01*
X4862912Y31213601D01*
X4969131Y31343029D01*
X5098559Y31449248D01*
X5201431Y31504234D01*
X5246225Y31528177D01*
X5321480Y31551005D01*
X5406455Y31576782D01*
X5531323Y31589080D01*
X6454837Y31589080D01*
X6579705Y31576782D01*
X6579705Y31576782D01*
G37*
G36*
X6579705Y34116782D02*
G01*
X6664680Y34091005D01*
X6739935Y34068177D01*
X6784729Y34044234D01*
X6887601Y33989248D01*
X7017029Y33883029D01*
X7123248Y33753601D01*
X7178234Y33650729D01*
X7202177Y33605935D01*
X7225005Y33530680D01*
X7250782Y33445705D01*
X7267193Y33279080D01*
X7250782Y33112455D01*
X7225005Y33027480D01*
X7202177Y32952225D01*
X7202176Y32952224D01*
X7123248Y32804559D01*
X7017029Y32675131D01*
X6887601Y32568912D01*
X6784729Y32513926D01*
X6739935Y32489983D01*
X6664680Y32467155D01*
X6579705Y32441378D01*
X6454837Y32429080D01*
X5531323Y32429080D01*
X5406455Y32441378D01*
X5321480Y32467155D01*
X5246225Y32489983D01*
X5201431Y32513926D01*
X5098559Y32568912D01*
X4969131Y32675131D01*
X4862912Y32804559D01*
X4783984Y32952224D01*
X4783983Y32952225D01*
X4761155Y33027480D01*
X4735378Y33112455D01*
X4718967Y33279080D01*
X4735378Y33445705D01*
X4761155Y33530680D01*
X4783983Y33605935D01*
X4807926Y33650729D01*
X4862912Y33753601D01*
X4969131Y33883029D01*
X5098559Y33989248D01*
X5201431Y34044234D01*
X5246225Y34068177D01*
X5321480Y34091005D01*
X5406455Y34116782D01*
X5531323Y34129080D01*
X6454837Y34129080D01*
X6579705Y34116782D01*
X6579705Y34116782D01*
G37*
G36*
X3239705Y34116782D02*
G01*
X3324680Y34091005D01*
X3399935Y34068177D01*
X3444729Y34044234D01*
X3547601Y33989248D01*
X3677029Y33883029D01*
X3783248Y33753601D01*
X3838234Y33650729D01*
X3862177Y33605935D01*
X3885005Y33530680D01*
X3910782Y33445705D01*
X3927193Y33279080D01*
X3910782Y33112455D01*
X3885005Y33027480D01*
X3862177Y32952225D01*
X3862176Y32952224D01*
X3783248Y32804559D01*
X3677029Y32675131D01*
X3547601Y32568912D01*
X3444729Y32513926D01*
X3399935Y32489983D01*
X3324680Y32467155D01*
X3239705Y32441378D01*
X3114837Y32429080D01*
X2191323Y32429080D01*
X2066455Y32441378D01*
X1981480Y32467155D01*
X1906225Y32489983D01*
X1861431Y32513926D01*
X1758559Y32568912D01*
X1629131Y32675131D01*
X1522912Y32804559D01*
X1443984Y32952224D01*
X1443983Y32952225D01*
X1421155Y33027480D01*
X1395378Y33112455D01*
X1378967Y33279080D01*
X1395378Y33445705D01*
X1421155Y33530680D01*
X1443983Y33605935D01*
X1467926Y33650729D01*
X1522912Y33753601D01*
X1629131Y33883029D01*
X1758559Y33989248D01*
X1861431Y34044234D01*
X1906225Y34068177D01*
X1981480Y34091005D01*
X2066455Y34116782D01*
X2191323Y34129080D01*
X3114837Y34129080D01*
X3239705Y34116782D01*
X3239705Y34116782D01*
G37*
G36*
X6579705Y36656782D02*
G01*
X6664680Y36631005D01*
X6739935Y36608177D01*
X6784729Y36584234D01*
X6887601Y36529248D01*
X7017029Y36423029D01*
X7123248Y36293601D01*
X7178234Y36190729D01*
X7202177Y36145935D01*
X7225005Y36070680D01*
X7250782Y35985705D01*
X7267193Y35819080D01*
X7250782Y35652455D01*
X7225005Y35567480D01*
X7202177Y35492225D01*
X7202176Y35492224D01*
X7123248Y35344559D01*
X7017029Y35215131D01*
X6887601Y35108912D01*
X6784729Y35053926D01*
X6739935Y35029983D01*
X6664680Y35007155D01*
X6579705Y34981378D01*
X6454837Y34969080D01*
X5531323Y34969080D01*
X5406455Y34981378D01*
X5321480Y35007155D01*
X5246225Y35029983D01*
X5201431Y35053926D01*
X5098559Y35108912D01*
X4969131Y35215131D01*
X4862912Y35344559D01*
X4783984Y35492224D01*
X4783983Y35492225D01*
X4761155Y35567480D01*
X4735378Y35652455D01*
X4718967Y35819080D01*
X4735378Y35985705D01*
X4761155Y36070680D01*
X4783983Y36145935D01*
X4807926Y36190729D01*
X4862912Y36293601D01*
X4969131Y36423029D01*
X5098559Y36529248D01*
X5201431Y36584234D01*
X5246225Y36608177D01*
X5321480Y36631005D01*
X5406455Y36656782D01*
X5531323Y36669080D01*
X6454837Y36669080D01*
X6579705Y36656782D01*
X6579705Y36656782D01*
G37*
G36*
X3239705Y36656782D02*
G01*
X3324680Y36631005D01*
X3399935Y36608177D01*
X3444729Y36584234D01*
X3547601Y36529248D01*
X3677029Y36423029D01*
X3783248Y36293601D01*
X3838234Y36190729D01*
X3862177Y36145935D01*
X3885005Y36070680D01*
X3910782Y35985705D01*
X3927193Y35819080D01*
X3910782Y35652455D01*
X3885005Y35567480D01*
X3862177Y35492225D01*
X3862176Y35492224D01*
X3783248Y35344559D01*
X3677029Y35215131D01*
X3547601Y35108912D01*
X3444729Y35053926D01*
X3399935Y35029983D01*
X3324680Y35007155D01*
X3239705Y34981378D01*
X3114837Y34969080D01*
X2191323Y34969080D01*
X2066455Y34981378D01*
X1981480Y35007155D01*
X1906225Y35029983D01*
X1861431Y35053926D01*
X1758559Y35108912D01*
X1629131Y35215131D01*
X1522912Y35344559D01*
X1443984Y35492224D01*
X1443983Y35492225D01*
X1421155Y35567480D01*
X1395378Y35652455D01*
X1378967Y35819080D01*
X1395378Y35985705D01*
X1421155Y36070680D01*
X1443983Y36145935D01*
X1467926Y36190729D01*
X1522912Y36293601D01*
X1629131Y36423029D01*
X1758559Y36529248D01*
X1861431Y36584234D01*
X1906225Y36608177D01*
X1981480Y36631005D01*
X2066455Y36656782D01*
X2191323Y36669080D01*
X3114837Y36669080D01*
X3239705Y36656782D01*
X3239705Y36656782D01*
G37*
G36*
X3239705Y39196782D02*
G01*
X3324680Y39171005D01*
X3399935Y39148177D01*
X3444729Y39124234D01*
X3547601Y39069248D01*
X3677029Y38963029D01*
X3783248Y38833601D01*
X3838234Y38730729D01*
X3862177Y38685935D01*
X3885005Y38610680D01*
X3910782Y38525705D01*
X3927193Y38359080D01*
X3910782Y38192455D01*
X3885005Y38107480D01*
X3862177Y38032225D01*
X3862176Y38032224D01*
X3783248Y37884559D01*
X3677029Y37755131D01*
X3547601Y37648912D01*
X3444729Y37593926D01*
X3399935Y37569983D01*
X3324680Y37547155D01*
X3239705Y37521378D01*
X3114837Y37509080D01*
X2191323Y37509080D01*
X2066455Y37521378D01*
X1981480Y37547155D01*
X1906225Y37569983D01*
X1861431Y37593926D01*
X1758559Y37648912D01*
X1629131Y37755131D01*
X1522912Y37884559D01*
X1443984Y38032224D01*
X1443983Y38032225D01*
X1421155Y38107480D01*
X1395378Y38192455D01*
X1378967Y38359080D01*
X1395378Y38525705D01*
X1421155Y38610680D01*
X1443983Y38685935D01*
X1467926Y38730729D01*
X1522912Y38833601D01*
X1629131Y38963029D01*
X1758559Y39069248D01*
X1861431Y39124234D01*
X1906225Y39148177D01*
X1981480Y39171005D01*
X2066455Y39196782D01*
X2191323Y39209080D01*
X3114837Y39209080D01*
X3239705Y39196782D01*
X3239705Y39196782D01*
G37*
G36*
X6579705Y39196782D02*
G01*
X6664680Y39171005D01*
X6739935Y39148177D01*
X6784729Y39124234D01*
X6887601Y39069248D01*
X7017029Y38963029D01*
X7123248Y38833601D01*
X7178234Y38730729D01*
X7202177Y38685935D01*
X7225005Y38610680D01*
X7250782Y38525705D01*
X7267193Y38359080D01*
X7250782Y38192455D01*
X7225005Y38107480D01*
X7202177Y38032225D01*
X7202176Y38032224D01*
X7123248Y37884559D01*
X7017029Y37755131D01*
X6887601Y37648912D01*
X6784729Y37593926D01*
X6739935Y37569983D01*
X6664680Y37547155D01*
X6579705Y37521378D01*
X6454837Y37509080D01*
X5531323Y37509080D01*
X5406455Y37521378D01*
X5321480Y37547155D01*
X5246225Y37569983D01*
X5201431Y37593926D01*
X5098559Y37648912D01*
X4969131Y37755131D01*
X4862912Y37884559D01*
X4783984Y38032224D01*
X4783983Y38032225D01*
X4761155Y38107480D01*
X4735378Y38192455D01*
X4718967Y38359080D01*
X4735378Y38525705D01*
X4761155Y38610680D01*
X4783983Y38685935D01*
X4807926Y38730729D01*
X4862912Y38833601D01*
X4969131Y38963029D01*
X5098559Y39069248D01*
X5201431Y39124234D01*
X5246225Y39148177D01*
X5321480Y39171005D01*
X5406455Y39196782D01*
X5531323Y39209080D01*
X6454837Y39209080D01*
X6579705Y39196782D01*
X6579705Y39196782D01*
G37*
M02*
