G04 #@! TF.GenerationSoftware,KiCad,Pcbnew,5.1.1*
G04 #@! TF.CreationDate,2019-05-05T16:30:40-07:00*
G04 #@! TF.ProjectId,pmod-usb-analyser-openvizla,706d6f64-2d75-4736-922d-616e616c7973,rev?*
G04 #@! TF.SameCoordinates,PX26449c8PY4c8cf18*
G04 #@! TF.FileFunction,Profile,NP*
%FSLAX46Y46*%
G04 Gerber Fmt 4.6, Leading zero omitted, Abs format (unit mm)*
G04 Created by KiCad (PCBNEW 5.1.1) date 2019-05-05 16:30:40*
%MOMM*%
%LPD*%
G04 APERTURE LIST*
%ADD10C,0.050000*%
%ADD11C,0.200000*%
G04 APERTURE END LIST*
D10*
X31138080Y2529080D02*
G75*
G02X28598080Y-10920I-2540000J0D01*
G01*
X31137080Y2529080D02*
X31137080Y38629080D01*
X31138080Y38629080D02*
G75*
G03X28598080Y41169080I-2540000J0D01*
G01*
X2513080Y-10920D02*
X28598080Y-10920D01*
X2513080Y41169080D02*
X28598080Y41169080D01*
X-26920Y38629080D02*
X-26920Y2529080D01*
X-26920Y38629080D02*
G75*
G02X2513080Y41169080I2540000J0D01*
G01*
X2513080Y-10920D02*
G75*
G02X-26920Y2529080I0J2540000D01*
G01*
D11*
X28082080Y20135080D02*
X28842080Y20135080D01*
X24612080Y20935080D02*
G75*
G03X24612080Y20135080I0J-400000D01*
G01*
X24612080Y20135080D02*
X25372080Y20135080D01*
X24612080Y20935080D02*
X25372080Y20935080D01*
X25372080Y20935080D02*
G75*
G02X25372080Y20135080I0J-400000D01*
G01*
X28082080Y20935080D02*
G75*
G03X28082080Y20135080I0J-400000D01*
G01*
X28842080Y20935080D02*
G75*
G02X28842080Y20135080I0J-400000D01*
G01*
X28082080Y20935080D02*
X28842080Y20935080D01*
X28082080Y28135080D02*
G75*
G03X28082080Y27335080I0J-400000D01*
G01*
X28082080Y27335080D02*
X28842080Y27335080D01*
X28082080Y28135080D02*
X28842080Y28135080D01*
X28842080Y28135080D02*
G75*
G02X28842080Y27335080I0J-400000D01*
G01*
X24612080Y28135080D02*
X25372080Y28135080D01*
X24612080Y27335080D02*
X25372080Y27335080D01*
X25372080Y28135080D02*
G75*
G02X25372080Y27335080I0J-400000D01*
G01*
X24612080Y28135080D02*
G75*
G03X24612080Y27335080I0J-400000D01*
G01*
M02*
