G04 #@! TF.GenerationSoftware,KiCad,Pcbnew,5.1.1*
G04 #@! TF.CreationDate,2019-05-05T16:30:40-07:00*
G04 #@! TF.ProjectId,pmod-usb-analyser-openvizla,706d6f64-2d75-4736-922d-616e616c7973,rev?*
G04 #@! TF.SameCoordinates,PX26449c8PY4c8cf18*
G04 #@! TF.FileFunction,Soldermask,Bot*
G04 #@! TF.FilePolarity,Negative*
%FSLAX46Y46*%
G04 Gerber Fmt 4.6, Leading zero omitted, Abs format (unit mm)*
G04 Created by KiCad (PCBNEW 5.1.1) date 2019-05-05 16:30:40*
%MOMM*%
%LPD*%
G04 APERTURE LIST*
%ADD10C,0.100000*%
G04 APERTURE END LIST*
D10*
G36*
X26141349Y4199547D02*
G01*
X26407178Y4089437D01*
X26407180Y4089436D01*
X26646421Y3929580D01*
X26849879Y3726122D01*
X27009735Y3486881D01*
X27009736Y3486879D01*
X27119846Y3221050D01*
X27175979Y2938848D01*
X27175979Y2651112D01*
X27119846Y2368910D01*
X27009736Y2103081D01*
X27009735Y2103079D01*
X26849879Y1863838D01*
X26646421Y1660380D01*
X26407180Y1500524D01*
X26407179Y1500523D01*
X26407178Y1500523D01*
X26141349Y1390413D01*
X25859147Y1334280D01*
X25571411Y1334280D01*
X25289209Y1390413D01*
X25023380Y1500523D01*
X25023379Y1500523D01*
X25023378Y1500524D01*
X24784137Y1660380D01*
X24580679Y1863838D01*
X24420823Y2103079D01*
X24420822Y2103081D01*
X24310712Y2368910D01*
X24254579Y2651112D01*
X24254579Y2938848D01*
X24310712Y3221050D01*
X24420822Y3486879D01*
X24420823Y3486881D01*
X24580679Y3726122D01*
X24784137Y3929580D01*
X25023378Y4089436D01*
X25023380Y4089437D01*
X25289209Y4199547D01*
X25571411Y4255680D01*
X25859147Y4255680D01*
X26141349Y4199547D01*
X26141349Y4199547D01*
G37*
G36*
X6523523Y3693561D02*
G01*
X6589707Y3687043D01*
X6759546Y3635523D01*
X6916071Y3551858D01*
X6951809Y3522528D01*
X7053266Y3439266D01*
X7136528Y3337809D01*
X7165858Y3302071D01*
X7249523Y3145546D01*
X7301043Y2975707D01*
X7318439Y2799080D01*
X7301043Y2622453D01*
X7249523Y2452614D01*
X7165858Y2296089D01*
X7136528Y2260351D01*
X7053266Y2158894D01*
X6951809Y2075632D01*
X6916071Y2046302D01*
X6759546Y1962637D01*
X6589707Y1911117D01*
X6523523Y1904599D01*
X6457340Y1898080D01*
X5528820Y1898080D01*
X5462637Y1904599D01*
X5396453Y1911117D01*
X5226614Y1962637D01*
X5070089Y2046302D01*
X5034351Y2075632D01*
X4932894Y2158894D01*
X4849632Y2260351D01*
X4820302Y2296089D01*
X4736637Y2452614D01*
X4685117Y2622453D01*
X4667721Y2799080D01*
X4685117Y2975707D01*
X4736637Y3145546D01*
X4820302Y3302071D01*
X4849632Y3337809D01*
X4932894Y3439266D01*
X5034351Y3522528D01*
X5070089Y3551858D01*
X5226614Y3635523D01*
X5396453Y3687043D01*
X5462637Y3693561D01*
X5528820Y3700080D01*
X6457340Y3700080D01*
X6523523Y3693561D01*
X6523523Y3693561D01*
G37*
G36*
X3183523Y3693561D02*
G01*
X3249707Y3687043D01*
X3419546Y3635523D01*
X3576071Y3551858D01*
X3611809Y3522528D01*
X3713266Y3439266D01*
X3796528Y3337809D01*
X3825858Y3302071D01*
X3909523Y3145546D01*
X3961043Y2975707D01*
X3978439Y2799080D01*
X3961043Y2622453D01*
X3909523Y2452614D01*
X3825858Y2296089D01*
X3796528Y2260351D01*
X3713266Y2158894D01*
X3611809Y2075632D01*
X3576071Y2046302D01*
X3419546Y1962637D01*
X3249707Y1911117D01*
X3183523Y1904599D01*
X3117340Y1898080D01*
X2188820Y1898080D01*
X2122637Y1904599D01*
X2056453Y1911117D01*
X1886614Y1962637D01*
X1730089Y2046302D01*
X1694351Y2075632D01*
X1592894Y2158894D01*
X1509632Y2260351D01*
X1480302Y2296089D01*
X1396637Y2452614D01*
X1345117Y2622453D01*
X1327721Y2799080D01*
X1345117Y2975707D01*
X1396637Y3145546D01*
X1480302Y3302071D01*
X1509632Y3337809D01*
X1592894Y3439266D01*
X1694351Y3522528D01*
X1730089Y3551858D01*
X1886614Y3635523D01*
X2056453Y3687043D01*
X2122637Y3693561D01*
X2188820Y3700080D01*
X3117340Y3700080D01*
X3183523Y3693561D01*
X3183523Y3693561D01*
G37*
G36*
X6523522Y6233562D02*
G01*
X6589707Y6227043D01*
X6759546Y6175523D01*
X6916071Y6091858D01*
X6951809Y6062528D01*
X7053266Y5979266D01*
X7136528Y5877809D01*
X7165858Y5842071D01*
X7249523Y5685546D01*
X7301043Y5515707D01*
X7318439Y5339080D01*
X7301043Y5162453D01*
X7249523Y4992614D01*
X7165858Y4836089D01*
X7136528Y4800351D01*
X7053266Y4698894D01*
X6951809Y4615632D01*
X6916071Y4586302D01*
X6759546Y4502637D01*
X6589707Y4451117D01*
X6523522Y4444598D01*
X6457340Y4438080D01*
X5528820Y4438080D01*
X5462638Y4444598D01*
X5396453Y4451117D01*
X5226614Y4502637D01*
X5070089Y4586302D01*
X5034351Y4615632D01*
X4932894Y4698894D01*
X4849632Y4800351D01*
X4820302Y4836089D01*
X4736637Y4992614D01*
X4685117Y5162453D01*
X4667721Y5339080D01*
X4685117Y5515707D01*
X4736637Y5685546D01*
X4820302Y5842071D01*
X4849632Y5877809D01*
X4932894Y5979266D01*
X5034351Y6062528D01*
X5070089Y6091858D01*
X5226614Y6175523D01*
X5396453Y6227043D01*
X5462638Y6233562D01*
X5528820Y6240080D01*
X6457340Y6240080D01*
X6523522Y6233562D01*
X6523522Y6233562D01*
G37*
G36*
X3183522Y6233562D02*
G01*
X3249707Y6227043D01*
X3419546Y6175523D01*
X3576071Y6091858D01*
X3611809Y6062528D01*
X3713266Y5979266D01*
X3796528Y5877809D01*
X3825858Y5842071D01*
X3909523Y5685546D01*
X3961043Y5515707D01*
X3978439Y5339080D01*
X3961043Y5162453D01*
X3909523Y4992614D01*
X3825858Y4836089D01*
X3796528Y4800351D01*
X3713266Y4698894D01*
X3611809Y4615632D01*
X3576071Y4586302D01*
X3419546Y4502637D01*
X3249707Y4451117D01*
X3183522Y4444598D01*
X3117340Y4438080D01*
X2188820Y4438080D01*
X2122638Y4444598D01*
X2056453Y4451117D01*
X1886614Y4502637D01*
X1730089Y4586302D01*
X1694351Y4615632D01*
X1592894Y4698894D01*
X1509632Y4800351D01*
X1480302Y4836089D01*
X1396637Y4992614D01*
X1345117Y5162453D01*
X1327721Y5339080D01*
X1345117Y5515707D01*
X1396637Y5685546D01*
X1480302Y5842071D01*
X1509632Y5877809D01*
X1592894Y5979266D01*
X1694351Y6062528D01*
X1730089Y6091858D01*
X1886614Y6175523D01*
X2056453Y6227043D01*
X2122638Y6233562D01*
X2188820Y6240080D01*
X3117340Y6240080D01*
X3183522Y6233562D01*
X3183522Y6233562D01*
G37*
G36*
X3183523Y8773561D02*
G01*
X3249707Y8767043D01*
X3419546Y8715523D01*
X3576071Y8631858D01*
X3611809Y8602528D01*
X3713266Y8519266D01*
X3796528Y8417809D01*
X3825858Y8382071D01*
X3909523Y8225546D01*
X3961043Y8055707D01*
X3978439Y7879080D01*
X3961043Y7702453D01*
X3909523Y7532614D01*
X3825858Y7376089D01*
X3796528Y7340351D01*
X3713266Y7238894D01*
X3611809Y7155632D01*
X3576071Y7126302D01*
X3419546Y7042637D01*
X3249707Y6991117D01*
X3183523Y6984599D01*
X3117340Y6978080D01*
X2188820Y6978080D01*
X2122637Y6984599D01*
X2056453Y6991117D01*
X1886614Y7042637D01*
X1730089Y7126302D01*
X1694351Y7155632D01*
X1592894Y7238894D01*
X1509632Y7340351D01*
X1480302Y7376089D01*
X1396637Y7532614D01*
X1345117Y7702453D01*
X1327721Y7879080D01*
X1345117Y8055707D01*
X1396637Y8225546D01*
X1480302Y8382071D01*
X1509632Y8417809D01*
X1592894Y8519266D01*
X1694351Y8602528D01*
X1730089Y8631858D01*
X1886614Y8715523D01*
X2056453Y8767043D01*
X2122637Y8773561D01*
X2188820Y8780080D01*
X3117340Y8780080D01*
X3183523Y8773561D01*
X3183523Y8773561D01*
G37*
G36*
X6523523Y8773561D02*
G01*
X6589707Y8767043D01*
X6759546Y8715523D01*
X6916071Y8631858D01*
X6951809Y8602528D01*
X7053266Y8519266D01*
X7136528Y8417809D01*
X7165858Y8382071D01*
X7249523Y8225546D01*
X7301043Y8055707D01*
X7318439Y7879080D01*
X7301043Y7702453D01*
X7249523Y7532614D01*
X7165858Y7376089D01*
X7136528Y7340351D01*
X7053266Y7238894D01*
X6951809Y7155632D01*
X6916071Y7126302D01*
X6759546Y7042637D01*
X6589707Y6991117D01*
X6523523Y6984599D01*
X6457340Y6978080D01*
X5528820Y6978080D01*
X5462637Y6984599D01*
X5396453Y6991117D01*
X5226614Y7042637D01*
X5070089Y7126302D01*
X5034351Y7155632D01*
X4932894Y7238894D01*
X4849632Y7340351D01*
X4820302Y7376089D01*
X4736637Y7532614D01*
X4685117Y7702453D01*
X4667721Y7879080D01*
X4685117Y8055707D01*
X4736637Y8225546D01*
X4820302Y8382071D01*
X4849632Y8417809D01*
X4932894Y8519266D01*
X5034351Y8602528D01*
X5070089Y8631858D01*
X5226614Y8715523D01*
X5396453Y8767043D01*
X5462637Y8773561D01*
X5528820Y8780080D01*
X6457340Y8780080D01*
X6523523Y8773561D01*
X6523523Y8773561D01*
G37*
G36*
X6523523Y11313561D02*
G01*
X6589707Y11307043D01*
X6759546Y11255523D01*
X6916071Y11171858D01*
X6951809Y11142528D01*
X7053266Y11059266D01*
X7136528Y10957809D01*
X7165858Y10922071D01*
X7249523Y10765546D01*
X7301043Y10595707D01*
X7318439Y10419080D01*
X7301043Y10242453D01*
X7249523Y10072614D01*
X7165858Y9916089D01*
X7136528Y9880351D01*
X7053266Y9778894D01*
X6951809Y9695632D01*
X6916071Y9666302D01*
X6759546Y9582637D01*
X6589707Y9531117D01*
X6523523Y9524599D01*
X6457340Y9518080D01*
X5528820Y9518080D01*
X5462637Y9524599D01*
X5396453Y9531117D01*
X5226614Y9582637D01*
X5070089Y9666302D01*
X5034351Y9695632D01*
X4932894Y9778894D01*
X4849632Y9880351D01*
X4820302Y9916089D01*
X4736637Y10072614D01*
X4685117Y10242453D01*
X4667721Y10419080D01*
X4685117Y10595707D01*
X4736637Y10765546D01*
X4820302Y10922071D01*
X4849632Y10957809D01*
X4932894Y11059266D01*
X5034351Y11142528D01*
X5070089Y11171858D01*
X5226614Y11255523D01*
X5396453Y11307043D01*
X5462637Y11313561D01*
X5528820Y11320080D01*
X6457340Y11320080D01*
X6523523Y11313561D01*
X6523523Y11313561D01*
G37*
G36*
X3183523Y11313561D02*
G01*
X3249707Y11307043D01*
X3419546Y11255523D01*
X3576071Y11171858D01*
X3611809Y11142528D01*
X3713266Y11059266D01*
X3796528Y10957809D01*
X3825858Y10922071D01*
X3909523Y10765546D01*
X3961043Y10595707D01*
X3978439Y10419080D01*
X3961043Y10242453D01*
X3909523Y10072614D01*
X3825858Y9916089D01*
X3796528Y9880351D01*
X3713266Y9778894D01*
X3611809Y9695632D01*
X3576071Y9666302D01*
X3419546Y9582637D01*
X3249707Y9531117D01*
X3183523Y9524599D01*
X3117340Y9518080D01*
X2188820Y9518080D01*
X2122637Y9524599D01*
X2056453Y9531117D01*
X1886614Y9582637D01*
X1730089Y9666302D01*
X1694351Y9695632D01*
X1592894Y9778894D01*
X1509632Y9880351D01*
X1480302Y9916089D01*
X1396637Y10072614D01*
X1345117Y10242453D01*
X1327721Y10419080D01*
X1345117Y10595707D01*
X1396637Y10765546D01*
X1480302Y10922071D01*
X1509632Y10957809D01*
X1592894Y11059266D01*
X1694351Y11142528D01*
X1730089Y11171858D01*
X1886614Y11255523D01*
X2056453Y11307043D01*
X2122637Y11313561D01*
X2188820Y11320080D01*
X3117340Y11320080D01*
X3183523Y11313561D01*
X3183523Y11313561D01*
G37*
G36*
X6523523Y13853561D02*
G01*
X6589707Y13847043D01*
X6759546Y13795523D01*
X6916071Y13711858D01*
X6951809Y13682528D01*
X7053266Y13599266D01*
X7136528Y13497809D01*
X7165858Y13462071D01*
X7249523Y13305546D01*
X7301043Y13135707D01*
X7318439Y12959080D01*
X7301043Y12782453D01*
X7249523Y12612614D01*
X7165858Y12456089D01*
X7136528Y12420351D01*
X7053266Y12318894D01*
X6951809Y12235632D01*
X6916071Y12206302D01*
X6759546Y12122637D01*
X6589707Y12071117D01*
X6523523Y12064599D01*
X6457340Y12058080D01*
X5528820Y12058080D01*
X5462637Y12064599D01*
X5396453Y12071117D01*
X5226614Y12122637D01*
X5070089Y12206302D01*
X5034351Y12235632D01*
X4932894Y12318894D01*
X4849632Y12420351D01*
X4820302Y12456089D01*
X4736637Y12612614D01*
X4685117Y12782453D01*
X4667721Y12959080D01*
X4685117Y13135707D01*
X4736637Y13305546D01*
X4820302Y13462071D01*
X4849632Y13497809D01*
X4932894Y13599266D01*
X5034351Y13682528D01*
X5070089Y13711858D01*
X5226614Y13795523D01*
X5396453Y13847043D01*
X5462637Y13853561D01*
X5528820Y13860080D01*
X6457340Y13860080D01*
X6523523Y13853561D01*
X6523523Y13853561D01*
G37*
G36*
X3183523Y13853561D02*
G01*
X3249707Y13847043D01*
X3419546Y13795523D01*
X3576071Y13711858D01*
X3611809Y13682528D01*
X3713266Y13599266D01*
X3796528Y13497809D01*
X3825858Y13462071D01*
X3909523Y13305546D01*
X3961043Y13135707D01*
X3978439Y12959080D01*
X3961043Y12782453D01*
X3909523Y12612614D01*
X3825858Y12456089D01*
X3796528Y12420351D01*
X3713266Y12318894D01*
X3611809Y12235632D01*
X3576071Y12206302D01*
X3419546Y12122637D01*
X3249707Y12071117D01*
X3183523Y12064599D01*
X3117340Y12058080D01*
X2188820Y12058080D01*
X2122637Y12064599D01*
X2056453Y12071117D01*
X1886614Y12122637D01*
X1730089Y12206302D01*
X1694351Y12235632D01*
X1592894Y12318894D01*
X1509632Y12420351D01*
X1480302Y12456089D01*
X1396637Y12612614D01*
X1345117Y12782453D01*
X1327721Y12959080D01*
X1345117Y13135707D01*
X1396637Y13305546D01*
X1480302Y13462071D01*
X1509632Y13497809D01*
X1592894Y13599266D01*
X1694351Y13682528D01*
X1730089Y13711858D01*
X1886614Y13795523D01*
X2056453Y13847043D01*
X2122637Y13853561D01*
X2188820Y13860080D01*
X3117340Y13860080D01*
X3183523Y13853561D01*
X3183523Y13853561D01*
G37*
G36*
X26141349Y17339547D02*
G01*
X26407178Y17229437D01*
X26407180Y17229436D01*
X26646421Y17069580D01*
X26849879Y16866122D01*
X26849880Y16866120D01*
X27009736Y16626879D01*
X27119846Y16361050D01*
X27175979Y16078848D01*
X27175979Y15791112D01*
X27119846Y15508910D01*
X27042613Y15322453D01*
X27009735Y15243079D01*
X26849879Y15003838D01*
X26646421Y14800380D01*
X26407180Y14640524D01*
X26407179Y14640523D01*
X26407178Y14640523D01*
X26141349Y14530413D01*
X25859147Y14474280D01*
X25571411Y14474280D01*
X25289209Y14530413D01*
X25023380Y14640523D01*
X25023379Y14640523D01*
X25023378Y14640524D01*
X24784137Y14800380D01*
X24580679Y15003838D01*
X24420823Y15243079D01*
X24387945Y15322453D01*
X24310712Y15508910D01*
X24254579Y15791112D01*
X24254579Y16078848D01*
X24310712Y16361050D01*
X24420822Y16626879D01*
X24580678Y16866120D01*
X24580679Y16866122D01*
X24784137Y17069580D01*
X25023378Y17229436D01*
X25023380Y17229437D01*
X25289209Y17339547D01*
X25571411Y17395680D01*
X25859147Y17395680D01*
X26141349Y17339547D01*
X26141349Y17339547D01*
G37*
G36*
X6523522Y16393562D02*
G01*
X6589707Y16387043D01*
X6759546Y16335523D01*
X6916071Y16251858D01*
X6951809Y16222528D01*
X7053266Y16139266D01*
X7136528Y16037809D01*
X7165858Y16002071D01*
X7249523Y15845546D01*
X7301043Y15675707D01*
X7318439Y15499080D01*
X7301043Y15322453D01*
X7249523Y15152614D01*
X7165858Y14996089D01*
X7136528Y14960351D01*
X7053266Y14858894D01*
X6981965Y14800380D01*
X6916071Y14746302D01*
X6759546Y14662637D01*
X6589707Y14611117D01*
X6523522Y14604598D01*
X6457340Y14598080D01*
X5528820Y14598080D01*
X5462638Y14604598D01*
X5396453Y14611117D01*
X5226614Y14662637D01*
X5070089Y14746302D01*
X5004195Y14800380D01*
X4932894Y14858894D01*
X4849632Y14960351D01*
X4820302Y14996089D01*
X4736637Y15152614D01*
X4685117Y15322453D01*
X4667721Y15499080D01*
X4685117Y15675707D01*
X4736637Y15845546D01*
X4820302Y16002071D01*
X4849632Y16037809D01*
X4932894Y16139266D01*
X5034351Y16222528D01*
X5070089Y16251858D01*
X5226614Y16335523D01*
X5396453Y16387043D01*
X5462638Y16393562D01*
X5528820Y16400080D01*
X6457340Y16400080D01*
X6523522Y16393562D01*
X6523522Y16393562D01*
G37*
G36*
X3183522Y16393562D02*
G01*
X3249707Y16387043D01*
X3419546Y16335523D01*
X3576071Y16251858D01*
X3611809Y16222528D01*
X3713266Y16139266D01*
X3796528Y16037809D01*
X3825858Y16002071D01*
X3909523Y15845546D01*
X3961043Y15675707D01*
X3978439Y15499080D01*
X3961043Y15322453D01*
X3909523Y15152614D01*
X3825858Y14996089D01*
X3796528Y14960351D01*
X3713266Y14858894D01*
X3641965Y14800380D01*
X3576071Y14746302D01*
X3419546Y14662637D01*
X3249707Y14611117D01*
X3183522Y14604598D01*
X3117340Y14598080D01*
X2188820Y14598080D01*
X2122638Y14604598D01*
X2056453Y14611117D01*
X1886614Y14662637D01*
X1730089Y14746302D01*
X1664195Y14800380D01*
X1592894Y14858894D01*
X1509632Y14960351D01*
X1480302Y14996089D01*
X1396637Y15152614D01*
X1345117Y15322453D01*
X1327721Y15499080D01*
X1345117Y15675707D01*
X1396637Y15845546D01*
X1480302Y16002071D01*
X1509632Y16037809D01*
X1592894Y16139266D01*
X1694351Y16222528D01*
X1730089Y16251858D01*
X1886614Y16335523D01*
X2056453Y16387043D01*
X2122638Y16393562D01*
X2188820Y16400080D01*
X3117340Y16400080D01*
X3183522Y16393562D01*
X3183522Y16393562D01*
G37*
G36*
X25420651Y21332217D02*
G01*
X25499103Y21324490D01*
X25599762Y21293955D01*
X25650093Y21278688D01*
X25789245Y21204309D01*
X25911213Y21104213D01*
X26011309Y20982245D01*
X26085688Y20843093D01*
X26085688Y20843092D01*
X26131490Y20692103D01*
X26146955Y20535080D01*
X26131490Y20378057D01*
X26100955Y20277398D01*
X26085688Y20227067D01*
X26011309Y20087915D01*
X25911213Y19965947D01*
X25789245Y19865851D01*
X25650093Y19791472D01*
X25599762Y19776205D01*
X25499103Y19745670D01*
X25420651Y19737943D01*
X25381426Y19734080D01*
X24602734Y19734080D01*
X24563509Y19737943D01*
X24485057Y19745670D01*
X24384398Y19776205D01*
X24334067Y19791472D01*
X24194915Y19865851D01*
X24072947Y19965947D01*
X23972851Y20087915D01*
X23898472Y20227067D01*
X23883205Y20277398D01*
X23852670Y20378057D01*
X23837205Y20535080D01*
X23852670Y20692103D01*
X23898472Y20843092D01*
X23898472Y20843093D01*
X23972851Y20982245D01*
X24072947Y21104213D01*
X24194915Y21204309D01*
X24334067Y21278688D01*
X24384398Y21293955D01*
X24485057Y21324490D01*
X24563509Y21332217D01*
X24602734Y21336080D01*
X25381426Y21336080D01*
X25420651Y21332217D01*
X25420651Y21332217D01*
G37*
G36*
X28890651Y21332217D02*
G01*
X28969103Y21324490D01*
X29069762Y21293955D01*
X29120093Y21278688D01*
X29259245Y21204309D01*
X29381213Y21104213D01*
X29481309Y20982245D01*
X29555688Y20843093D01*
X29555688Y20843092D01*
X29601490Y20692103D01*
X29616955Y20535080D01*
X29601490Y20378057D01*
X29570955Y20277398D01*
X29555688Y20227067D01*
X29481309Y20087915D01*
X29381213Y19965947D01*
X29259245Y19865851D01*
X29120093Y19791472D01*
X29069762Y19776205D01*
X28969103Y19745670D01*
X28890651Y19737943D01*
X28851426Y19734080D01*
X28072734Y19734080D01*
X28033509Y19737943D01*
X27955057Y19745670D01*
X27854398Y19776205D01*
X27804067Y19791472D01*
X27664915Y19865851D01*
X27542947Y19965947D01*
X27442851Y20087915D01*
X27368472Y20227067D01*
X27353205Y20277398D01*
X27322670Y20378057D01*
X27307205Y20535080D01*
X27322670Y20692103D01*
X27368472Y20843092D01*
X27368472Y20843093D01*
X27442851Y20982245D01*
X27542947Y21104213D01*
X27664915Y21204309D01*
X27804067Y21278688D01*
X27854398Y21293955D01*
X27955057Y21324490D01*
X28033509Y21332217D01*
X28072734Y21336080D01*
X28851426Y21336080D01*
X28890651Y21332217D01*
X28890651Y21332217D01*
G37*
G36*
X26407171Y26448552D02*
G01*
X26466500Y26423977D01*
X26519890Y26388303D01*
X26565303Y26342890D01*
X26600977Y26289500D01*
X26625552Y26230171D01*
X26638080Y26167188D01*
X26638080Y26102972D01*
X26625552Y26039989D01*
X26600977Y25980660D01*
X26565303Y25927270D01*
X26519893Y25881860D01*
X26483630Y25857629D01*
X26464692Y25842087D01*
X26449147Y25823146D01*
X26437595Y25801535D01*
X26430482Y25778086D01*
X26428080Y25753699D01*
X26428080Y22516461D01*
X26430482Y22492075D01*
X26437595Y22468626D01*
X26449146Y22447015D01*
X26464691Y22428073D01*
X26483630Y22412531D01*
X26517895Y22389635D01*
X26519893Y22388300D01*
X26565303Y22342890D01*
X26600977Y22289500D01*
X26625552Y22230171D01*
X26638080Y22167188D01*
X26638080Y22102972D01*
X26625552Y22039989D01*
X26600977Y21980660D01*
X26565303Y21927270D01*
X26519890Y21881857D01*
X26466500Y21846183D01*
X26407171Y21821608D01*
X26344188Y21809080D01*
X26279972Y21809080D01*
X26216989Y21821608D01*
X26157660Y21846183D01*
X26104270Y21881857D01*
X26058857Y21927270D01*
X26023183Y21980660D01*
X25998608Y22039989D01*
X25986080Y22102972D01*
X25986080Y22167188D01*
X25998608Y22230171D01*
X26023183Y22289500D01*
X26058857Y22342890D01*
X26086660Y22370693D01*
X26102205Y22389635D01*
X26113756Y22411246D01*
X26120869Y22434695D01*
X26123271Y22459081D01*
X26120869Y22483467D01*
X26113756Y22506916D01*
X26102205Y22528527D01*
X26086660Y22547469D01*
X26067718Y22563014D01*
X26046107Y22574565D01*
X26022658Y22581678D01*
X25998272Y22584080D01*
X23676080Y22584080D01*
X23676080Y25686080D01*
X25998272Y25686080D01*
X26022658Y25688482D01*
X26046107Y25695595D01*
X26067718Y25707146D01*
X26086660Y25722691D01*
X26102205Y25741633D01*
X26113756Y25763244D01*
X26120869Y25786693D01*
X26123271Y25811079D01*
X26120869Y25835465D01*
X26113756Y25858914D01*
X26102205Y25880525D01*
X26086660Y25899467D01*
X26058857Y25927270D01*
X26023183Y25980660D01*
X25998608Y26039989D01*
X25986080Y26102972D01*
X25986080Y26167188D01*
X25998608Y26230171D01*
X26023183Y26289500D01*
X26058857Y26342890D01*
X26104270Y26388303D01*
X26157660Y26423977D01*
X26216989Y26448552D01*
X26279972Y26461080D01*
X26344188Y26461080D01*
X26407171Y26448552D01*
X26407171Y26448552D01*
G37*
G36*
X30213080Y22034080D02*
G01*
X29011080Y22034080D01*
X29011080Y23236080D01*
X30213080Y23236080D01*
X30213080Y22034080D01*
X30213080Y22034080D01*
G37*
G36*
X3183522Y26553562D02*
G01*
X3249707Y26547043D01*
X3419546Y26495523D01*
X3576071Y26411858D01*
X3604776Y26388300D01*
X3713266Y26299266D01*
X3796528Y26197809D01*
X3825858Y26162071D01*
X3909523Y26005546D01*
X3961043Y25835707D01*
X3978439Y25659080D01*
X3961043Y25482453D01*
X3909523Y25312614D01*
X3825858Y25156089D01*
X3796528Y25120351D01*
X3713266Y25018894D01*
X3611809Y24935632D01*
X3576071Y24906302D01*
X3419546Y24822637D01*
X3249707Y24771117D01*
X3183522Y24764598D01*
X3117340Y24758080D01*
X2188820Y24758080D01*
X2122638Y24764598D01*
X2056453Y24771117D01*
X1886614Y24822637D01*
X1730089Y24906302D01*
X1694351Y24935632D01*
X1592894Y25018894D01*
X1509632Y25120351D01*
X1480302Y25156089D01*
X1396637Y25312614D01*
X1345117Y25482453D01*
X1327721Y25659080D01*
X1345117Y25835707D01*
X1396637Y26005546D01*
X1480302Y26162071D01*
X1509632Y26197809D01*
X1592894Y26299266D01*
X1701384Y26388300D01*
X1730089Y26411858D01*
X1886614Y26495523D01*
X2056453Y26547043D01*
X2122638Y26553562D01*
X2188820Y26560080D01*
X3117340Y26560080D01*
X3183522Y26553562D01*
X3183522Y26553562D01*
G37*
G36*
X6523522Y26553562D02*
G01*
X6589707Y26547043D01*
X6759546Y26495523D01*
X6916071Y26411858D01*
X6944776Y26388300D01*
X7053266Y26299266D01*
X7136528Y26197809D01*
X7165858Y26162071D01*
X7249523Y26005546D01*
X7301043Y25835707D01*
X7318439Y25659080D01*
X7301043Y25482453D01*
X7249523Y25312614D01*
X7165858Y25156089D01*
X7136528Y25120351D01*
X7053266Y25018894D01*
X6951809Y24935632D01*
X6916071Y24906302D01*
X6759546Y24822637D01*
X6589707Y24771117D01*
X6523522Y24764598D01*
X6457340Y24758080D01*
X5528820Y24758080D01*
X5462638Y24764598D01*
X5396453Y24771117D01*
X5226614Y24822637D01*
X5070089Y24906302D01*
X5034351Y24935632D01*
X4932894Y25018894D01*
X4849632Y25120351D01*
X4820302Y25156089D01*
X4736637Y25312614D01*
X4685117Y25482453D01*
X4667721Y25659080D01*
X4685117Y25835707D01*
X4736637Y26005546D01*
X4820302Y26162071D01*
X4849632Y26197809D01*
X4932894Y26299266D01*
X5041384Y26388300D01*
X5070089Y26411858D01*
X5226614Y26495523D01*
X5396453Y26547043D01*
X5462638Y26553562D01*
X5528820Y26560080D01*
X6457340Y26560080D01*
X6523522Y26553562D01*
X6523522Y26553562D01*
G37*
G36*
X30213080Y25034080D02*
G01*
X29011080Y25034080D01*
X29011080Y26236080D01*
X30213080Y26236080D01*
X30213080Y25034080D01*
X30213080Y25034080D01*
G37*
G36*
X25420651Y28532217D02*
G01*
X25499103Y28524490D01*
X25599762Y28493955D01*
X25650093Y28478688D01*
X25789245Y28404309D01*
X25911213Y28304213D01*
X26011309Y28182245D01*
X26085688Y28043093D01*
X26085688Y28043092D01*
X26131490Y27892103D01*
X26146955Y27735080D01*
X26131490Y27578057D01*
X26100955Y27477398D01*
X26085688Y27427067D01*
X26011309Y27287915D01*
X25911213Y27165947D01*
X25789245Y27065851D01*
X25650093Y26991472D01*
X25599762Y26976205D01*
X25499103Y26945670D01*
X25420651Y26937943D01*
X25381426Y26934080D01*
X24602734Y26934080D01*
X24563509Y26937943D01*
X24485057Y26945670D01*
X24384398Y26976205D01*
X24334067Y26991472D01*
X24194915Y27065851D01*
X24072947Y27165947D01*
X23972851Y27287915D01*
X23898472Y27427067D01*
X23883205Y27477398D01*
X23852670Y27578057D01*
X23837205Y27735080D01*
X23852670Y27892103D01*
X23898472Y28043092D01*
X23898472Y28043093D01*
X23972851Y28182245D01*
X24072947Y28304213D01*
X24194915Y28404309D01*
X24334067Y28478688D01*
X24384398Y28493955D01*
X24485057Y28524490D01*
X24563509Y28532217D01*
X24602734Y28536080D01*
X25381426Y28536080D01*
X25420651Y28532217D01*
X25420651Y28532217D01*
G37*
G36*
X28890651Y28532217D02*
G01*
X28969103Y28524490D01*
X29069762Y28493955D01*
X29120093Y28478688D01*
X29259245Y28404309D01*
X29381213Y28304213D01*
X29481309Y28182245D01*
X29555688Y28043093D01*
X29555688Y28043092D01*
X29601490Y27892103D01*
X29616955Y27735080D01*
X29601490Y27578057D01*
X29570955Y27477398D01*
X29555688Y27427067D01*
X29481309Y27287915D01*
X29381213Y27165947D01*
X29259245Y27065851D01*
X29120093Y26991472D01*
X29069762Y26976205D01*
X28969103Y26945670D01*
X28890651Y26937943D01*
X28851426Y26934080D01*
X28072734Y26934080D01*
X28033509Y26937943D01*
X27955057Y26945670D01*
X27854398Y26976205D01*
X27804067Y26991472D01*
X27664915Y27065851D01*
X27542947Y27165947D01*
X27442851Y27287915D01*
X27368472Y27427067D01*
X27353205Y27477398D01*
X27322670Y27578057D01*
X27307205Y27735080D01*
X27322670Y27892103D01*
X27368472Y28043092D01*
X27368472Y28043093D01*
X27442851Y28182245D01*
X27542947Y28304213D01*
X27664915Y28404309D01*
X27804067Y28478688D01*
X27854398Y28493955D01*
X27955057Y28524490D01*
X28033509Y28532217D01*
X28072734Y28536080D01*
X28851426Y28536080D01*
X28890651Y28532217D01*
X28890651Y28532217D01*
G37*
G36*
X6523523Y29093561D02*
G01*
X6589707Y29087043D01*
X6759546Y29035523D01*
X6916071Y28951858D01*
X6951809Y28922528D01*
X7053266Y28839266D01*
X7136528Y28737809D01*
X7165858Y28702071D01*
X7249523Y28545546D01*
X7301043Y28375707D01*
X7318439Y28199080D01*
X7301043Y28022453D01*
X7249523Y27852614D01*
X7165858Y27696089D01*
X7136528Y27660351D01*
X7053266Y27558894D01*
X6951809Y27475632D01*
X6916071Y27446302D01*
X6759546Y27362637D01*
X6589707Y27311117D01*
X6523522Y27304598D01*
X6457340Y27298080D01*
X5528820Y27298080D01*
X5462638Y27304598D01*
X5396453Y27311117D01*
X5226614Y27362637D01*
X5070089Y27446302D01*
X5034351Y27475632D01*
X4932894Y27558894D01*
X4849632Y27660351D01*
X4820302Y27696089D01*
X4736637Y27852614D01*
X4685117Y28022453D01*
X4667721Y28199080D01*
X4685117Y28375707D01*
X4736637Y28545546D01*
X4820302Y28702071D01*
X4849632Y28737809D01*
X4932894Y28839266D01*
X5034351Y28922528D01*
X5070089Y28951858D01*
X5226614Y29035523D01*
X5396453Y29087043D01*
X5462637Y29093561D01*
X5528820Y29100080D01*
X6457340Y29100080D01*
X6523523Y29093561D01*
X6523523Y29093561D01*
G37*
G36*
X3183523Y29093561D02*
G01*
X3249707Y29087043D01*
X3419546Y29035523D01*
X3576071Y28951858D01*
X3611809Y28922528D01*
X3713266Y28839266D01*
X3796528Y28737809D01*
X3825858Y28702071D01*
X3909523Y28545546D01*
X3961043Y28375707D01*
X3978439Y28199080D01*
X3961043Y28022453D01*
X3909523Y27852614D01*
X3825858Y27696089D01*
X3796528Y27660351D01*
X3713266Y27558894D01*
X3611809Y27475632D01*
X3576071Y27446302D01*
X3419546Y27362637D01*
X3249707Y27311117D01*
X3183522Y27304598D01*
X3117340Y27298080D01*
X2188820Y27298080D01*
X2122638Y27304598D01*
X2056453Y27311117D01*
X1886614Y27362637D01*
X1730089Y27446302D01*
X1694351Y27475632D01*
X1592894Y27558894D01*
X1509632Y27660351D01*
X1480302Y27696089D01*
X1396637Y27852614D01*
X1345117Y28022453D01*
X1327721Y28199080D01*
X1345117Y28375707D01*
X1396637Y28545546D01*
X1480302Y28702071D01*
X1509632Y28737809D01*
X1592894Y28839266D01*
X1694351Y28922528D01*
X1730089Y28951858D01*
X1886614Y29035523D01*
X2056453Y29087043D01*
X2122637Y29093561D01*
X2188820Y29100080D01*
X3117340Y29100080D01*
X3183523Y29093561D01*
X3183523Y29093561D01*
G37*
G36*
X6523523Y31633561D02*
G01*
X6589707Y31627043D01*
X6759546Y31575523D01*
X6916071Y31491858D01*
X6951809Y31462528D01*
X7053266Y31379266D01*
X7136528Y31277809D01*
X7165858Y31242071D01*
X7249523Y31085546D01*
X7301043Y30915707D01*
X7318439Y30739080D01*
X7301043Y30562453D01*
X7249523Y30392614D01*
X7165858Y30236089D01*
X7136528Y30200351D01*
X7053266Y30098894D01*
X6951809Y30015632D01*
X6916071Y29986302D01*
X6759546Y29902637D01*
X6589707Y29851117D01*
X6523523Y29844599D01*
X6457340Y29838080D01*
X5528820Y29838080D01*
X5462638Y29844598D01*
X5396453Y29851117D01*
X5226614Y29902637D01*
X5070089Y29986302D01*
X5034351Y30015632D01*
X4932894Y30098894D01*
X4849632Y30200351D01*
X4820302Y30236089D01*
X4736637Y30392614D01*
X4685117Y30562453D01*
X4667721Y30739080D01*
X4685117Y30915707D01*
X4736637Y31085546D01*
X4820302Y31242071D01*
X4849632Y31277809D01*
X4932894Y31379266D01*
X5034351Y31462528D01*
X5070089Y31491858D01*
X5226614Y31575523D01*
X5396453Y31627043D01*
X5462637Y31633561D01*
X5528820Y31640080D01*
X6457340Y31640080D01*
X6523523Y31633561D01*
X6523523Y31633561D01*
G37*
G36*
X3183523Y31633561D02*
G01*
X3249707Y31627043D01*
X3419546Y31575523D01*
X3576071Y31491858D01*
X3611809Y31462528D01*
X3713266Y31379266D01*
X3796528Y31277809D01*
X3825858Y31242071D01*
X3909523Y31085546D01*
X3961043Y30915707D01*
X3978439Y30739080D01*
X3961043Y30562453D01*
X3909523Y30392614D01*
X3825858Y30236089D01*
X3796528Y30200351D01*
X3713266Y30098894D01*
X3611809Y30015632D01*
X3576071Y29986302D01*
X3419546Y29902637D01*
X3249707Y29851117D01*
X3183523Y29844599D01*
X3117340Y29838080D01*
X2188820Y29838080D01*
X2122638Y29844598D01*
X2056453Y29851117D01*
X1886614Y29902637D01*
X1730089Y29986302D01*
X1694351Y30015632D01*
X1592894Y30098894D01*
X1509632Y30200351D01*
X1480302Y30236089D01*
X1396637Y30392614D01*
X1345117Y30562453D01*
X1327721Y30739080D01*
X1345117Y30915707D01*
X1396637Y31085546D01*
X1480302Y31242071D01*
X1509632Y31277809D01*
X1592894Y31379266D01*
X1694351Y31462528D01*
X1730089Y31491858D01*
X1886614Y31575523D01*
X2056453Y31627043D01*
X2122637Y31633561D01*
X2188820Y31640080D01*
X3117340Y31640080D01*
X3183523Y31633561D01*
X3183523Y31633561D01*
G37*
G36*
X6523522Y34173562D02*
G01*
X6589707Y34167043D01*
X6759546Y34115523D01*
X6916071Y34031858D01*
X6951809Y34002528D01*
X7053266Y33919266D01*
X7136528Y33817809D01*
X7165858Y33782071D01*
X7249523Y33625546D01*
X7301043Y33455707D01*
X7318439Y33279080D01*
X7301043Y33102453D01*
X7249523Y32932614D01*
X7165858Y32776089D01*
X7136528Y32740351D01*
X7053266Y32638894D01*
X6951809Y32555632D01*
X6916071Y32526302D01*
X6759546Y32442637D01*
X6589707Y32391117D01*
X6523523Y32384599D01*
X6457340Y32378080D01*
X5528820Y32378080D01*
X5462637Y32384599D01*
X5396453Y32391117D01*
X5226614Y32442637D01*
X5070089Y32526302D01*
X5034351Y32555632D01*
X4932894Y32638894D01*
X4849632Y32740351D01*
X4820302Y32776089D01*
X4736637Y32932614D01*
X4685117Y33102453D01*
X4667721Y33279080D01*
X4685117Y33455707D01*
X4736637Y33625546D01*
X4820302Y33782071D01*
X4849632Y33817809D01*
X4932894Y33919266D01*
X5034351Y34002528D01*
X5070089Y34031858D01*
X5226614Y34115523D01*
X5396453Y34167043D01*
X5462638Y34173562D01*
X5528820Y34180080D01*
X6457340Y34180080D01*
X6523522Y34173562D01*
X6523522Y34173562D01*
G37*
G36*
X3183522Y34173562D02*
G01*
X3249707Y34167043D01*
X3419546Y34115523D01*
X3576071Y34031858D01*
X3611809Y34002528D01*
X3713266Y33919266D01*
X3796528Y33817809D01*
X3825858Y33782071D01*
X3909523Y33625546D01*
X3961043Y33455707D01*
X3978439Y33279080D01*
X3961043Y33102453D01*
X3909523Y32932614D01*
X3825858Y32776089D01*
X3796528Y32740351D01*
X3713266Y32638894D01*
X3611809Y32555632D01*
X3576071Y32526302D01*
X3419546Y32442637D01*
X3249707Y32391117D01*
X3183523Y32384599D01*
X3117340Y32378080D01*
X2188820Y32378080D01*
X2122637Y32384599D01*
X2056453Y32391117D01*
X1886614Y32442637D01*
X1730089Y32526302D01*
X1694351Y32555632D01*
X1592894Y32638894D01*
X1509632Y32740351D01*
X1480302Y32776089D01*
X1396637Y32932614D01*
X1345117Y33102453D01*
X1327721Y33279080D01*
X1345117Y33455707D01*
X1396637Y33625546D01*
X1480302Y33782071D01*
X1509632Y33817809D01*
X1592894Y33919266D01*
X1694351Y34002528D01*
X1730089Y34031858D01*
X1886614Y34115523D01*
X2056453Y34167043D01*
X2122638Y34173562D01*
X2188820Y34180080D01*
X3117340Y34180080D01*
X3183522Y34173562D01*
X3183522Y34173562D01*
G37*
G36*
X6523523Y36713561D02*
G01*
X6589707Y36707043D01*
X6759546Y36655523D01*
X6916071Y36571858D01*
X6951809Y36542528D01*
X7053266Y36459266D01*
X7136528Y36357809D01*
X7165858Y36322071D01*
X7249523Y36165546D01*
X7301043Y35995707D01*
X7318439Y35819080D01*
X7301043Y35642453D01*
X7249523Y35472614D01*
X7165858Y35316089D01*
X7136528Y35280351D01*
X7053266Y35178894D01*
X6951809Y35095632D01*
X6916071Y35066302D01*
X6759546Y34982637D01*
X6589707Y34931117D01*
X6523522Y34924598D01*
X6457340Y34918080D01*
X5528820Y34918080D01*
X5462638Y34924598D01*
X5396453Y34931117D01*
X5226614Y34982637D01*
X5070089Y35066302D01*
X5034351Y35095632D01*
X4932894Y35178894D01*
X4849632Y35280351D01*
X4820302Y35316089D01*
X4736637Y35472614D01*
X4685117Y35642453D01*
X4667721Y35819080D01*
X4685117Y35995707D01*
X4736637Y36165546D01*
X4820302Y36322071D01*
X4849632Y36357809D01*
X4932894Y36459266D01*
X5034351Y36542528D01*
X5070089Y36571858D01*
X5226614Y36655523D01*
X5396453Y36707043D01*
X5462637Y36713561D01*
X5528820Y36720080D01*
X6457340Y36720080D01*
X6523523Y36713561D01*
X6523523Y36713561D01*
G37*
G36*
X3183523Y36713561D02*
G01*
X3249707Y36707043D01*
X3419546Y36655523D01*
X3576071Y36571858D01*
X3611809Y36542528D01*
X3713266Y36459266D01*
X3796528Y36357809D01*
X3825858Y36322071D01*
X3909523Y36165546D01*
X3961043Y35995707D01*
X3978439Y35819080D01*
X3961043Y35642453D01*
X3909523Y35472614D01*
X3825858Y35316089D01*
X3796528Y35280351D01*
X3713266Y35178894D01*
X3611809Y35095632D01*
X3576071Y35066302D01*
X3419546Y34982637D01*
X3249707Y34931117D01*
X3183522Y34924598D01*
X3117340Y34918080D01*
X2188820Y34918080D01*
X2122638Y34924598D01*
X2056453Y34931117D01*
X1886614Y34982637D01*
X1730089Y35066302D01*
X1694351Y35095632D01*
X1592894Y35178894D01*
X1509632Y35280351D01*
X1480302Y35316089D01*
X1396637Y35472614D01*
X1345117Y35642453D01*
X1327721Y35819080D01*
X1345117Y35995707D01*
X1396637Y36165546D01*
X1480302Y36322071D01*
X1509632Y36357809D01*
X1592894Y36459266D01*
X1694351Y36542528D01*
X1730089Y36571858D01*
X1886614Y36655523D01*
X2056453Y36707043D01*
X2122637Y36713561D01*
X2188820Y36720080D01*
X3117340Y36720080D01*
X3183523Y36713561D01*
X3183523Y36713561D01*
G37*
G36*
X3183522Y39253562D02*
G01*
X3249707Y39247043D01*
X3419546Y39195523D01*
X3576071Y39111858D01*
X3611809Y39082528D01*
X3713266Y38999266D01*
X3796528Y38897809D01*
X3825858Y38862071D01*
X3909523Y38705546D01*
X3961043Y38535707D01*
X3978439Y38359080D01*
X3961043Y38182453D01*
X3909523Y38012614D01*
X3825858Y37856089D01*
X3796528Y37820351D01*
X3713266Y37718894D01*
X3611809Y37635632D01*
X3576071Y37606302D01*
X3419546Y37522637D01*
X3249707Y37471117D01*
X3183523Y37464599D01*
X3117340Y37458080D01*
X2188820Y37458080D01*
X2122637Y37464599D01*
X2056453Y37471117D01*
X1886614Y37522637D01*
X1730089Y37606302D01*
X1694351Y37635632D01*
X1592894Y37718894D01*
X1509632Y37820351D01*
X1480302Y37856089D01*
X1396637Y38012614D01*
X1345117Y38182453D01*
X1327721Y38359080D01*
X1345117Y38535707D01*
X1396637Y38705546D01*
X1480302Y38862071D01*
X1509632Y38897809D01*
X1592894Y38999266D01*
X1694351Y39082528D01*
X1730089Y39111858D01*
X1886614Y39195523D01*
X2056453Y39247043D01*
X2122638Y39253562D01*
X2188820Y39260080D01*
X3117340Y39260080D01*
X3183522Y39253562D01*
X3183522Y39253562D01*
G37*
G36*
X6523522Y39253562D02*
G01*
X6589707Y39247043D01*
X6759546Y39195523D01*
X6916071Y39111858D01*
X6951809Y39082528D01*
X7053266Y38999266D01*
X7136528Y38897809D01*
X7165858Y38862071D01*
X7249523Y38705546D01*
X7301043Y38535707D01*
X7318439Y38359080D01*
X7301043Y38182453D01*
X7249523Y38012614D01*
X7165858Y37856089D01*
X7136528Y37820351D01*
X7053266Y37718894D01*
X6951809Y37635632D01*
X6916071Y37606302D01*
X6759546Y37522637D01*
X6589707Y37471117D01*
X6523523Y37464599D01*
X6457340Y37458080D01*
X5528820Y37458080D01*
X5462637Y37464599D01*
X5396453Y37471117D01*
X5226614Y37522637D01*
X5070089Y37606302D01*
X5034351Y37635632D01*
X4932894Y37718894D01*
X4849632Y37820351D01*
X4820302Y37856089D01*
X4736637Y38012614D01*
X4685117Y38182453D01*
X4667721Y38359080D01*
X4685117Y38535707D01*
X4736637Y38705546D01*
X4820302Y38862071D01*
X4849632Y38897809D01*
X4932894Y38999266D01*
X5034351Y39082528D01*
X5070089Y39111858D01*
X5226614Y39195523D01*
X5396453Y39247043D01*
X5462638Y39253562D01*
X5528820Y39260080D01*
X6457340Y39260080D01*
X6523522Y39253562D01*
X6523522Y39253562D01*
G37*
M02*
