G04 #@! TF.GenerationSoftware,KiCad,Pcbnew,5.1.1*
G04 #@! TF.CreationDate,2019-05-05T16:22:27-07:00*
G04 #@! TF.ProjectId,pmod-usb-analyser-openvizla,706d6f64-2d75-4736-922d-616e616c7973,rev?*
G04 #@! TF.SameCoordinates,PX26449c8PY4c8cf18*
G04 #@! TF.FileFunction,Copper,L2,Bot*
G04 #@! TF.FilePolarity,Positive*
%FSLAX46Y46*%
G04 Gerber Fmt 4.6, Leading zero omitted, Abs format (unit mm)*
G04 Created by KiCad (PCBNEW 5.1.1) date 2019-05-05 16:22:27*
%MOMM*%
%LPD*%
G04 APERTURE LIST*
%ADD10C,2.819400*%
%ADD11R,1.100000X1.100000*%
%ADD12R,2.650000X0.400000*%
%ADD13C,0.550000*%
%ADD14O,2.200000X1.500000*%
%ADD15O,2.540000X1.700000*%
%ADD16C,0.800000*%
%ADD17C,1.000000*%
%ADD18C,0.250000*%
%ADD19C,0.400000*%
%ADD20C,0.500000*%
%ADD21C,0.254000*%
G04 APERTURE END LIST*
D10*
X25715279Y15934980D03*
X25715279Y2794980D03*
D11*
X29612080Y25635080D03*
X29612080Y22635080D03*
D12*
X25052080Y24135080D03*
D13*
X26312080Y26135080D03*
X26312080Y22135080D03*
D12*
X25052080Y24785080D03*
X25052080Y25435080D03*
X25052080Y23485080D03*
X25052080Y22835080D03*
D14*
X28462080Y27735080D03*
X28462080Y20535080D03*
X24992080Y20535080D03*
X24992080Y27735080D03*
D15*
X5993080Y2799080D03*
X2653080Y2799080D03*
X5993080Y5339080D03*
X2653080Y5339080D03*
X5993080Y7879080D03*
X2653080Y7879080D03*
X5993080Y10419080D03*
X2653080Y10419080D03*
X5993080Y12959080D03*
X2653080Y12959080D03*
X5993080Y15499080D03*
X2653080Y15499080D03*
X5993080Y25659080D03*
X2653080Y25659080D03*
X5993080Y28199080D03*
X2653080Y28199080D03*
X5993080Y30739080D03*
X2653080Y30739080D03*
X5993080Y33279080D03*
X2653080Y33279080D03*
X5993080Y35819080D03*
X2653080Y35819080D03*
X5993080Y38359080D03*
X2653080Y38359080D03*
D16*
X10292080Y33914080D03*
X21849080Y28707080D03*
X26167080Y32390080D03*
X20960080Y37978080D03*
X23500080Y30104080D03*
X11181080Y34676080D03*
X18277075Y32855090D03*
X11435080Y28453080D03*
X11181080Y24389080D03*
X12768580Y26230580D03*
X12006580Y25341580D03*
X22928580Y35819080D03*
X16397848Y25541848D03*
X27827848Y23763848D03*
X17140312Y26284312D03*
X28570312Y24506312D03*
X23881080Y26294080D03*
X14947836Y34119657D03*
X12368610Y29291261D03*
X8043070Y30739080D03*
X13213080Y35565080D03*
X14947836Y35253591D03*
X14102206Y36774275D03*
X12041610Y35913873D03*
X7982925Y33038915D03*
X5085080Y17277080D03*
X19182080Y38867080D03*
X19055080Y36708080D03*
X15626080Y38867080D03*
X17912080Y38867080D03*
X18076070Y39920070D03*
X8895080Y25659080D03*
D17*
X5593080Y25659080D02*
X6065125Y25659080D01*
X10292080Y25659080D02*
X10292080Y33914080D01*
X19366765Y31755080D02*
X16388080Y31755080D01*
X16388080Y31755080D02*
X10292080Y25659080D01*
X21849080Y29272765D02*
X19366765Y31755080D01*
X21849080Y28707080D02*
X21849080Y29272765D01*
X10292080Y25659080D02*
X10292080Y25278080D01*
X10292080Y25278080D02*
X8895080Y23881080D01*
X7371080Y23881080D02*
X5593080Y25659080D01*
X8895080Y23881080D02*
X7371080Y23881080D01*
D18*
X3053080Y28199080D02*
X3053080Y28008580D01*
X3053080Y28008580D02*
X4323080Y26738580D01*
X5593080Y28008580D02*
X5593080Y28199080D01*
X4323080Y26738580D02*
X5593080Y28008580D01*
D19*
X16680692Y25541848D02*
X16397848Y25541848D01*
X18087460Y24135080D02*
X16680692Y25541848D01*
X25052080Y24135080D02*
X18087460Y24135080D01*
X27739460Y24135080D02*
X25052080Y24135080D01*
X27827848Y23763848D02*
X27827848Y24046692D01*
X27827848Y24046692D02*
X27739460Y24135080D01*
X17140312Y26001468D02*
X17140312Y26284312D01*
X18356700Y24785080D02*
X17140312Y26001468D01*
X25052080Y24785080D02*
X18356700Y24785080D01*
X28008700Y24785080D02*
X25052080Y24785080D01*
X28287468Y24506312D02*
X28008700Y24785080D01*
X28570312Y24506312D02*
X28287468Y24506312D01*
D20*
X25052080Y25435080D02*
X24740080Y25435080D01*
X24740080Y25435080D02*
X23881080Y26294080D01*
D18*
X12368610Y31672610D02*
X12368610Y29291261D01*
X14864080Y34168080D02*
X12368610Y31672610D01*
X8043070Y30173395D02*
X8043070Y30739080D01*
X4228090Y29564070D02*
X7433745Y29564070D01*
X3053080Y30739080D02*
X4228090Y29564070D01*
X7433745Y29564070D02*
X8043070Y30173395D01*
X13213080Y35565080D02*
X14636347Y35565080D01*
X14636347Y35565080D02*
X14947836Y35253591D01*
X12902012Y36774275D02*
X12041610Y35913873D01*
X14102206Y36774275D02*
X12902012Y36774275D01*
X3053080Y35819080D02*
X4418070Y34454090D01*
X7582926Y33770949D02*
X7582926Y33438914D01*
X7582926Y33438914D02*
X7982925Y33038915D01*
X4418070Y34454090D02*
X6899785Y34454090D01*
X6899785Y34454090D02*
X7582926Y33770949D01*
X7588090Y9874090D02*
X7588090Y10964070D01*
X5593080Y7879080D02*
X7588090Y9874090D01*
X4398070Y16590070D02*
X5085080Y17277080D01*
X4398070Y12472375D02*
X4398070Y16590070D01*
X5086375Y11784070D02*
X4398070Y12472375D01*
X7588090Y10964070D02*
X6768090Y11784070D01*
X6768090Y11784070D02*
X5086375Y11784070D01*
X5593080Y10419080D02*
X4418070Y9244070D01*
X2037080Y40645080D02*
X19563080Y40645080D01*
X4418070Y9244070D02*
X1746375Y9244070D01*
X608059Y10382386D02*
X608059Y39216059D01*
X608059Y39216059D02*
X2037080Y40645080D01*
X1746375Y9244070D02*
X608059Y10382386D01*
X19563080Y40645080D02*
X19944080Y40264080D01*
X19944080Y40264080D02*
X19944080Y37597080D01*
X19944080Y37597080D02*
X19055080Y36708080D01*
X15626080Y38867080D02*
X17912080Y38867080D01*
X2132355Y39920070D02*
X18076070Y39920070D01*
X3053080Y15499080D02*
X1058070Y17494090D01*
X1058070Y38845785D02*
X2132355Y39920070D01*
X1058070Y17494090D02*
X1058070Y38845785D01*
X29612080Y22635080D02*
X29612080Y25635080D01*
X8895080Y25659080D02*
X8895080Y35819080D01*
X8895080Y35819080D02*
X10800080Y37724080D01*
X10800080Y37724080D02*
X18039080Y37724080D01*
X18039080Y37724080D02*
X19182080Y38867080D01*
D21*
G36*
X29012195Y40720529D02*
G01*
X29410542Y40600261D01*
X29777944Y40404910D01*
X30100397Y40141923D01*
X30365633Y39821307D01*
X30563540Y39455285D01*
X30686586Y39057789D01*
X30731081Y38634448D01*
X30731080Y2538735D01*
X30689529Y2114965D01*
X30569261Y1716616D01*
X30373911Y1349218D01*
X30110925Y1026765D01*
X29790306Y761526D01*
X29424284Y563619D01*
X29026788Y440574D01*
X28593943Y395080D01*
X2532934Y395080D01*
X2098965Y437631D01*
X1700616Y557899D01*
X1333218Y753249D01*
X1010765Y1016235D01*
X745526Y1336854D01*
X547619Y1702876D01*
X424574Y2100372D01*
X379080Y2533217D01*
X379080Y4982190D01*
X791604Y4982190D01*
X812517Y4888127D01*
X927789Y4619654D01*
X1093223Y4378828D01*
X1302461Y4174904D01*
X1547462Y4015719D01*
X1748047Y3935640D01*
X1545864Y3827571D01*
X1358420Y3673740D01*
X1204589Y3486296D01*
X1090282Y3272443D01*
X1019892Y3040398D01*
X996124Y2799080D01*
X1019892Y2557762D01*
X1090282Y2325717D01*
X1204589Y2111864D01*
X1358420Y1924420D01*
X1545864Y1770589D01*
X1759717Y1656282D01*
X1991762Y1585892D01*
X2172608Y1568080D01*
X3133552Y1568080D01*
X3314398Y1585892D01*
X3546443Y1656282D01*
X3760296Y1770589D01*
X3947740Y1924420D01*
X4101571Y2111864D01*
X4215878Y2325717D01*
X4286268Y2557762D01*
X4310036Y2799080D01*
X4286268Y3040398D01*
X4215878Y3272443D01*
X4101571Y3486296D01*
X3947740Y3673740D01*
X3760296Y3827571D01*
X3558113Y3935640D01*
X3758698Y4015719D01*
X4003699Y4174904D01*
X4212937Y4378828D01*
X4323080Y4539166D01*
X4433223Y4378828D01*
X4642461Y4174904D01*
X4887462Y4015719D01*
X5088047Y3935640D01*
X4885864Y3827571D01*
X4698420Y3673740D01*
X4544589Y3486296D01*
X4430282Y3272443D01*
X4359892Y3040398D01*
X4336124Y2799080D01*
X4359892Y2557762D01*
X4430282Y2325717D01*
X4544589Y2111864D01*
X4698420Y1924420D01*
X4885864Y1770589D01*
X5099717Y1656282D01*
X5331762Y1585892D01*
X5512608Y1568080D01*
X6473552Y1568080D01*
X6654398Y1585892D01*
X6886443Y1656282D01*
X7100296Y1770589D01*
X7287740Y1924420D01*
X7441571Y2111864D01*
X7555878Y2325717D01*
X7626268Y2557762D01*
X7650036Y2799080D01*
X7633069Y2971349D01*
X23924579Y2971349D01*
X23924579Y2618611D01*
X23993395Y2272652D01*
X24128382Y1946766D01*
X24324352Y1653476D01*
X24573775Y1404053D01*
X24867065Y1208083D01*
X25192951Y1073096D01*
X25538910Y1004280D01*
X25891648Y1004280D01*
X26237607Y1073096D01*
X26563493Y1208083D01*
X26856783Y1404053D01*
X27106206Y1653476D01*
X27302176Y1946766D01*
X27437163Y2272652D01*
X27505979Y2618611D01*
X27505979Y2971349D01*
X27437163Y3317308D01*
X27302176Y3643194D01*
X27106206Y3936484D01*
X26856783Y4185907D01*
X26563493Y4381877D01*
X26237607Y4516864D01*
X25891648Y4585680D01*
X25538910Y4585680D01*
X25192951Y4516864D01*
X24867065Y4381877D01*
X24573775Y4185907D01*
X24324352Y3936484D01*
X24128382Y3643194D01*
X23993395Y3317308D01*
X23924579Y2971349D01*
X7633069Y2971349D01*
X7626268Y3040398D01*
X7555878Y3272443D01*
X7441571Y3486296D01*
X7287740Y3673740D01*
X7100296Y3827571D01*
X6898113Y3935640D01*
X7098698Y4015719D01*
X7343699Y4174904D01*
X7552937Y4378828D01*
X7718371Y4619654D01*
X7833643Y4888127D01*
X7854556Y4982190D01*
X7733235Y5212080D01*
X6120080Y5212080D01*
X6120080Y5192080D01*
X5866080Y5192080D01*
X5866080Y5212080D01*
X2780080Y5212080D01*
X2780080Y5192080D01*
X2526080Y5192080D01*
X2526080Y5212080D01*
X912925Y5212080D01*
X791604Y4982190D01*
X379080Y4982190D01*
X379080Y9895774D01*
X1371003Y8903850D01*
X1386848Y8884543D01*
X1452326Y8830806D01*
X1358420Y8753740D01*
X1204589Y8566296D01*
X1090282Y8352443D01*
X1019892Y8120398D01*
X996124Y7879080D01*
X1019892Y7637762D01*
X1090282Y7405717D01*
X1204589Y7191864D01*
X1358420Y7004420D01*
X1545864Y6850589D01*
X1748047Y6742520D01*
X1547462Y6662441D01*
X1302461Y6503256D01*
X1093223Y6299332D01*
X927789Y6058506D01*
X812517Y5790033D01*
X791604Y5695970D01*
X912925Y5466080D01*
X2526080Y5466080D01*
X2526080Y5486080D01*
X2780080Y5486080D01*
X2780080Y5466080D01*
X5866080Y5466080D01*
X5866080Y5486080D01*
X6120080Y5486080D01*
X6120080Y5466080D01*
X7733235Y5466080D01*
X7854556Y5695970D01*
X7833643Y5790033D01*
X7718371Y6058506D01*
X7552937Y6299332D01*
X7343699Y6503256D01*
X7098698Y6662441D01*
X6898113Y6742520D01*
X7100296Y6850589D01*
X7287740Y7004420D01*
X7441571Y7191864D01*
X7555878Y7405717D01*
X7626268Y7637762D01*
X7650036Y7879080D01*
X7626268Y8120398D01*
X7555878Y8352443D01*
X7441571Y8566296D01*
X7287740Y8753740D01*
X7230394Y8800802D01*
X7928310Y9498718D01*
X7947617Y9514563D01*
X8010849Y9591611D01*
X8057835Y9679515D01*
X8057835Y9679516D01*
X8086768Y9774896D01*
X8087742Y9784784D01*
X8094090Y9849236D01*
X8094090Y9849243D01*
X8096537Y9874089D01*
X8094090Y9898935D01*
X8094090Y10939225D01*
X8096537Y10964071D01*
X8094090Y10988917D01*
X8094090Y10988924D01*
X8086768Y11063263D01*
X8073715Y11106296D01*
X8057835Y11158645D01*
X8010849Y11246549D01*
X7947617Y11323597D01*
X7928310Y11339442D01*
X7230394Y12037357D01*
X7287740Y12084420D01*
X7441571Y12271864D01*
X7555878Y12485717D01*
X7626268Y12717762D01*
X7650036Y12959080D01*
X7626268Y13200398D01*
X7555878Y13432443D01*
X7441571Y13646296D01*
X7287740Y13833740D01*
X7100296Y13987571D01*
X6886443Y14101878D01*
X6654398Y14172268D01*
X6473552Y14190080D01*
X5512608Y14190080D01*
X5331762Y14172268D01*
X5099717Y14101878D01*
X4904070Y13997302D01*
X4904070Y14460858D01*
X5099717Y14356282D01*
X5331762Y14285892D01*
X5512608Y14268080D01*
X6473552Y14268080D01*
X6654398Y14285892D01*
X6886443Y14356282D01*
X7100296Y14470589D01*
X7287740Y14624420D01*
X7441571Y14811864D01*
X7555878Y15025717D01*
X7626268Y15257762D01*
X7650036Y15499080D01*
X7626268Y15740398D01*
X7555878Y15972443D01*
X7481632Y16111349D01*
X23924579Y16111349D01*
X23924579Y15758611D01*
X23993395Y15412652D01*
X24128382Y15086766D01*
X24324352Y14793476D01*
X24573775Y14544053D01*
X24867065Y14348083D01*
X25192951Y14213096D01*
X25538910Y14144280D01*
X25891648Y14144280D01*
X26237607Y14213096D01*
X26563493Y14348083D01*
X26856783Y14544053D01*
X27106206Y14793476D01*
X27302176Y15086766D01*
X27437163Y15412652D01*
X27505979Y15758611D01*
X27505979Y16111349D01*
X27437163Y16457308D01*
X27302176Y16783194D01*
X27106206Y17076484D01*
X26856783Y17325907D01*
X26563493Y17521877D01*
X26237607Y17656864D01*
X25891648Y17725680D01*
X25538910Y17725680D01*
X25192951Y17656864D01*
X24867065Y17521877D01*
X24573775Y17325907D01*
X24324352Y17076484D01*
X24128382Y16783194D01*
X23993395Y16457308D01*
X23924579Y16111349D01*
X7481632Y16111349D01*
X7441571Y16186296D01*
X7287740Y16373740D01*
X7100296Y16527571D01*
X6886443Y16641878D01*
X6654398Y16712268D01*
X6473552Y16730080D01*
X5642581Y16730080D01*
X5691722Y16779221D01*
X5777193Y16907138D01*
X5836067Y17049271D01*
X5866080Y17200158D01*
X5866080Y17354002D01*
X5836067Y17504889D01*
X5777193Y17647022D01*
X5691722Y17774939D01*
X5582939Y17883722D01*
X5455022Y17969193D01*
X5312889Y18028067D01*
X5162002Y18058080D01*
X5008158Y18058080D01*
X4857271Y18028067D01*
X4715138Y17969193D01*
X4587221Y17883722D01*
X4478438Y17774939D01*
X4392967Y17647022D01*
X4334093Y17504889D01*
X4304080Y17354002D01*
X4304080Y17211671D01*
X4057850Y16965441D01*
X4038544Y16949597D01*
X3975312Y16872549D01*
X3950197Y16825562D01*
X3928325Y16784644D01*
X3899392Y16689262D01*
X3889623Y16590070D01*
X3892071Y16565214D01*
X3892071Y16419426D01*
X3760296Y16527571D01*
X3546443Y16641878D01*
X3314398Y16712268D01*
X3133552Y16730080D01*
X2537672Y16730080D01*
X1564070Y17703681D01*
X1564070Y20535080D01*
X23505608Y20535080D01*
X23527445Y20313365D01*
X23592117Y20100171D01*
X23697138Y19903690D01*
X23838473Y19731473D01*
X24010690Y19590138D01*
X24207171Y19485117D01*
X24420365Y19420445D01*
X24586522Y19404080D01*
X25397638Y19404080D01*
X25563795Y19420445D01*
X25776989Y19485117D01*
X25973470Y19590138D01*
X26145687Y19731473D01*
X26287022Y19903690D01*
X26392043Y20100171D01*
X26456715Y20313365D01*
X26478552Y20535080D01*
X26975608Y20535080D01*
X26997445Y20313365D01*
X27062117Y20100171D01*
X27167138Y19903690D01*
X27308473Y19731473D01*
X27480690Y19590138D01*
X27677171Y19485117D01*
X27890365Y19420445D01*
X28056522Y19404080D01*
X28867638Y19404080D01*
X29033795Y19420445D01*
X29246989Y19485117D01*
X29443470Y19590138D01*
X29615687Y19731473D01*
X29757022Y19903690D01*
X29862043Y20100171D01*
X29926715Y20313365D01*
X29948552Y20535080D01*
X29926715Y20756795D01*
X29862043Y20969989D01*
X29757022Y21166470D01*
X29615687Y21338687D01*
X29443470Y21480022D01*
X29246989Y21585043D01*
X29033795Y21649715D01*
X28867638Y21666080D01*
X28056522Y21666080D01*
X27890365Y21649715D01*
X27677171Y21585043D01*
X27480690Y21480022D01*
X27308473Y21338687D01*
X27167138Y21166470D01*
X27062117Y20969989D01*
X26997445Y20756795D01*
X26975608Y20535080D01*
X26478552Y20535080D01*
X26456715Y20756795D01*
X26392043Y20969989D01*
X26287022Y21166470D01*
X26145687Y21338687D01*
X25973470Y21480022D01*
X25776989Y21585043D01*
X25563795Y21649715D01*
X25397638Y21666080D01*
X24586522Y21666080D01*
X24420365Y21649715D01*
X24207171Y21585043D01*
X24010690Y21480022D01*
X23838473Y21338687D01*
X23697138Y21166470D01*
X23592117Y20969989D01*
X23527445Y20756795D01*
X23505608Y20535080D01*
X1564070Y20535080D01*
X1564070Y22603330D01*
X23092080Y22603330D01*
X23102501Y22504556D01*
X23139966Y22385214D01*
X23199993Y22275475D01*
X23280277Y22179555D01*
X23377730Y22101141D01*
X23488609Y22043246D01*
X23608652Y22008095D01*
X23733247Y21997038D01*
X24766330Y22000080D01*
X24925080Y22158830D01*
X24925080Y22762080D01*
X25179080Y22762080D01*
X25179080Y22158830D01*
X25337830Y22000080D01*
X25670276Y21999101D01*
X25681290Y21943732D01*
X25730740Y21824348D01*
X25802532Y21716904D01*
X25893904Y21625532D01*
X26001348Y21553740D01*
X26120732Y21504290D01*
X26247470Y21479080D01*
X26376690Y21479080D01*
X26503428Y21504290D01*
X26622812Y21553740D01*
X26730256Y21625532D01*
X26821628Y21716904D01*
X26893420Y21824348D01*
X26942870Y21943732D01*
X26968080Y22070470D01*
X26968080Y22199690D01*
X26942870Y22326428D01*
X26938202Y22337697D01*
X26964194Y22385214D01*
X27001659Y22504556D01*
X27012080Y22603330D01*
X26853330Y22762080D01*
X26512578Y22762080D01*
X26503428Y22765870D01*
X26376690Y22791080D01*
X26247470Y22791080D01*
X26120732Y22765870D01*
X26111582Y22762080D01*
X25179080Y22762080D01*
X24925080Y22762080D01*
X23250830Y22762080D01*
X23092080Y22603330D01*
X1564070Y22603330D01*
X1564070Y24620858D01*
X1759717Y24516282D01*
X1991762Y24445892D01*
X2172608Y24428080D01*
X3133552Y24428080D01*
X3314398Y24445892D01*
X3546443Y24516282D01*
X3760296Y24630589D01*
X3947740Y24784420D01*
X4101571Y24971864D01*
X4215878Y25185717D01*
X4286268Y25417762D01*
X4310036Y25659080D01*
X4286268Y25900398D01*
X4215878Y26132443D01*
X4101571Y26346296D01*
X3947740Y26533740D01*
X3760296Y26687571D01*
X3558113Y26795640D01*
X3758698Y26875719D01*
X4003699Y27034904D01*
X4212937Y27238828D01*
X4323080Y27399166D01*
X4433223Y27238828D01*
X4642461Y27034904D01*
X4887462Y26875719D01*
X5088047Y26795640D01*
X4885864Y26687571D01*
X4698420Y26533740D01*
X4544589Y26346296D01*
X4430282Y26132443D01*
X4359892Y25900398D01*
X4336124Y25659080D01*
X4359892Y25417762D01*
X4430282Y25185717D01*
X4544589Y24971864D01*
X4698420Y24784420D01*
X4885864Y24630589D01*
X5099717Y24516282D01*
X5331762Y24445892D01*
X5512608Y24428080D01*
X5578159Y24428080D01*
X6717519Y23288719D01*
X6745105Y23255105D01*
X6778717Y23227521D01*
X6879254Y23145012D01*
X7025523Y23066830D01*
X7032305Y23063205D01*
X7198374Y23012828D01*
X7327807Y23000080D01*
X7327810Y23000080D01*
X7371080Y22995818D01*
X7414350Y23000080D01*
X8851810Y23000080D01*
X8895080Y22995818D01*
X8938350Y23000080D01*
X8938353Y23000080D01*
X9067786Y23012828D01*
X9233855Y23063205D01*
X9386905Y23145012D01*
X9521055Y23255105D01*
X9548646Y23288725D01*
X10884441Y24624519D01*
X10918055Y24652105D01*
X10985363Y24734121D01*
X11028148Y24786254D01*
X11074185Y24872384D01*
X11109955Y24939305D01*
X11160332Y25105374D01*
X11173080Y25234808D01*
X11173080Y25234809D01*
X11177342Y25278079D01*
X11175518Y25296597D01*
X11497691Y25618770D01*
X15616848Y25618770D01*
X15616848Y25464926D01*
X15646861Y25314039D01*
X15705735Y25171906D01*
X15791206Y25043989D01*
X15899989Y24935206D01*
X16027906Y24849735D01*
X16170039Y24790861D01*
X16320926Y24760848D01*
X16474770Y24760848D01*
X16612616Y24788267D01*
X17656447Y23744435D01*
X17674643Y23722263D01*
X17763112Y23649659D01*
X17864045Y23595709D01*
X17973564Y23562487D01*
X18058920Y23554080D01*
X18058922Y23554080D01*
X18087459Y23551269D01*
X18115996Y23554080D01*
X23344237Y23554080D01*
X23344237Y23542069D01*
X23280277Y23490605D01*
X23199993Y23394685D01*
X23139966Y23284946D01*
X23102501Y23165604D01*
X23092080Y23066830D01*
X23250830Y22908080D01*
X23667753Y22908080D01*
X23727080Y22902237D01*
X26377080Y22902237D01*
X26436407Y22908080D01*
X26853330Y22908080D01*
X27012080Y23066830D01*
X27001659Y23165604D01*
X26964194Y23284946D01*
X26904167Y23394685D01*
X26823883Y23490605D01*
X26759923Y23542069D01*
X26759923Y23554080D01*
X27073272Y23554080D01*
X27076861Y23536039D01*
X27135735Y23393906D01*
X27221206Y23265989D01*
X27329989Y23157206D01*
X27457906Y23071735D01*
X27600039Y23012861D01*
X27750926Y22982848D01*
X27904770Y22982848D01*
X28055657Y23012861D01*
X28197790Y23071735D01*
X28325707Y23157206D01*
X28434490Y23265989D01*
X28519961Y23393906D01*
X28578835Y23536039D01*
X28608848Y23686926D01*
X28608848Y23725312D01*
X28647234Y23725312D01*
X28798121Y23755325D01*
X28940254Y23814199D01*
X29068171Y23899670D01*
X29106080Y23937579D01*
X29106080Y23567923D01*
X29062080Y23567923D01*
X28987391Y23560567D01*
X28915572Y23538781D01*
X28849384Y23503402D01*
X28791369Y23455791D01*
X28743758Y23397776D01*
X28708379Y23331588D01*
X28686593Y23259769D01*
X28679237Y23185080D01*
X28679237Y22085080D01*
X28686593Y22010391D01*
X28708379Y21938572D01*
X28743758Y21872384D01*
X28791369Y21814369D01*
X28849384Y21766758D01*
X28915572Y21731379D01*
X28987391Y21709593D01*
X29062080Y21702237D01*
X30162080Y21702237D01*
X30236769Y21709593D01*
X30308588Y21731379D01*
X30374776Y21766758D01*
X30432791Y21814369D01*
X30480402Y21872384D01*
X30515781Y21938572D01*
X30537567Y22010391D01*
X30544923Y22085080D01*
X30544923Y23185080D01*
X30537567Y23259769D01*
X30515781Y23331588D01*
X30480402Y23397776D01*
X30432791Y23455791D01*
X30374776Y23503402D01*
X30308588Y23538781D01*
X30236769Y23560567D01*
X30162080Y23567923D01*
X30118080Y23567923D01*
X30118080Y24702237D01*
X30162080Y24702237D01*
X30236769Y24709593D01*
X30308588Y24731379D01*
X30374776Y24766758D01*
X30432791Y24814369D01*
X30480402Y24872384D01*
X30515781Y24938572D01*
X30537567Y25010391D01*
X30544923Y25085080D01*
X30544923Y26185080D01*
X30537567Y26259769D01*
X30515781Y26331588D01*
X30480402Y26397776D01*
X30432791Y26455791D01*
X30374776Y26503402D01*
X30308588Y26538781D01*
X30236769Y26560567D01*
X30162080Y26567923D01*
X29062080Y26567923D01*
X28987391Y26560567D01*
X28915572Y26538781D01*
X28849384Y26503402D01*
X28791369Y26455791D01*
X28743758Y26397776D01*
X28708379Y26331588D01*
X28686593Y26259769D01*
X28679237Y26185080D01*
X28679237Y25280946D01*
X28647234Y25287312D01*
X28493390Y25287312D01*
X28347841Y25258361D01*
X28333048Y25270501D01*
X28232115Y25324451D01*
X28122596Y25357673D01*
X28037240Y25366080D01*
X28008700Y25368891D01*
X27980160Y25366080D01*
X26759923Y25366080D01*
X26759923Y25635080D01*
X26758119Y25653395D01*
X26821628Y25716904D01*
X26893420Y25824348D01*
X26942870Y25943732D01*
X26968080Y26070470D01*
X26968080Y26199690D01*
X26942870Y26326428D01*
X26893420Y26445812D01*
X26821628Y26553256D01*
X26730256Y26644628D01*
X26622812Y26716420D01*
X26503428Y26765870D01*
X26376690Y26791080D01*
X26247470Y26791080D01*
X26120732Y26765870D01*
X26001348Y26716420D01*
X25893904Y26644628D01*
X25802532Y26553256D01*
X25730740Y26445812D01*
X25681290Y26326428D01*
X25656080Y26199690D01*
X25656080Y26070470D01*
X25666532Y26017923D01*
X25300234Y26017923D01*
X25294722Y26020869D01*
X25175778Y26056950D01*
X25083078Y26066080D01*
X25001448Y26066080D01*
X24653527Y26414001D01*
X24632067Y26521889D01*
X24598022Y26604080D01*
X25397638Y26604080D01*
X25563795Y26620445D01*
X25776989Y26685117D01*
X25973470Y26790138D01*
X26145687Y26931473D01*
X26287022Y27103690D01*
X26392043Y27300171D01*
X26456715Y27513365D01*
X26478552Y27735080D01*
X26975608Y27735080D01*
X26997445Y27513365D01*
X27062117Y27300171D01*
X27167138Y27103690D01*
X27308473Y26931473D01*
X27480690Y26790138D01*
X27677171Y26685117D01*
X27890365Y26620445D01*
X28056522Y26604080D01*
X28867638Y26604080D01*
X29033795Y26620445D01*
X29246989Y26685117D01*
X29443470Y26790138D01*
X29615687Y26931473D01*
X29757022Y27103690D01*
X29862043Y27300171D01*
X29926715Y27513365D01*
X29948552Y27735080D01*
X29926715Y27956795D01*
X29862043Y28169989D01*
X29757022Y28366470D01*
X29615687Y28538687D01*
X29443470Y28680022D01*
X29246989Y28785043D01*
X29033795Y28849715D01*
X28867638Y28866080D01*
X28056522Y28866080D01*
X27890365Y28849715D01*
X27677171Y28785043D01*
X27480690Y28680022D01*
X27308473Y28538687D01*
X27167138Y28366470D01*
X27062117Y28169989D01*
X26997445Y27956795D01*
X26975608Y27735080D01*
X26478552Y27735080D01*
X26456715Y27956795D01*
X26392043Y28169989D01*
X26287022Y28366470D01*
X26145687Y28538687D01*
X25973470Y28680022D01*
X25776989Y28785043D01*
X25563795Y28849715D01*
X25397638Y28866080D01*
X24586522Y28866080D01*
X24420365Y28849715D01*
X24207171Y28785043D01*
X24010690Y28680022D01*
X23838473Y28538687D01*
X23697138Y28366470D01*
X23592117Y28169989D01*
X23527445Y27956795D01*
X23505608Y27735080D01*
X23527445Y27513365D01*
X23592117Y27300171D01*
X23697138Y27103690D01*
X23732341Y27060795D01*
X23653271Y27045067D01*
X23511138Y26986193D01*
X23383221Y26900722D01*
X23274438Y26791939D01*
X23188967Y26664022D01*
X23130093Y26521889D01*
X23100080Y26371002D01*
X23100080Y26217158D01*
X23130093Y26066271D01*
X23188967Y25924138D01*
X23274438Y25796221D01*
X23353757Y25716902D01*
X23351593Y25709769D01*
X23344237Y25635080D01*
X23344237Y25366080D01*
X18597358Y25366080D01*
X17893893Y26069544D01*
X17921312Y26207390D01*
X17921312Y26361234D01*
X17891299Y26512121D01*
X17832425Y26654254D01*
X17746954Y26782171D01*
X17638171Y26890954D01*
X17510254Y26976425D01*
X17368121Y27035299D01*
X17217234Y27065312D01*
X17063390Y27065312D01*
X16912503Y27035299D01*
X16770370Y26976425D01*
X16642453Y26890954D01*
X16533670Y26782171D01*
X16448199Y26654254D01*
X16389325Y26512121D01*
X16359312Y26361234D01*
X16359312Y26322848D01*
X16320926Y26322848D01*
X16170039Y26292835D01*
X16027906Y26233961D01*
X15899989Y26148490D01*
X15791206Y26039707D01*
X15705735Y25911790D01*
X15646861Y25769657D01*
X15616848Y25618770D01*
X11497691Y25618770D01*
X16753002Y30874080D01*
X19001844Y30874080D01*
X20968080Y28907842D01*
X20968080Y28663808D01*
X20980828Y28534375D01*
X21031205Y28368306D01*
X21113012Y28215256D01*
X21223105Y28081105D01*
X21357255Y27971012D01*
X21510305Y27889205D01*
X21676374Y27838828D01*
X21849080Y27821818D01*
X22021785Y27838828D01*
X22187854Y27889205D01*
X22340904Y27971012D01*
X22475055Y28081105D01*
X22585148Y28215255D01*
X22666955Y28368305D01*
X22717332Y28534374D01*
X22730080Y28663807D01*
X22730080Y29229495D01*
X22734342Y29272765D01*
X22724944Y29368183D01*
X22717332Y29445471D01*
X22666955Y29611540D01*
X22585148Y29764590D01*
X22528864Y29833173D01*
X22502640Y29865128D01*
X22502637Y29865131D01*
X22475055Y29898740D01*
X22441446Y29926322D01*
X20020331Y32347436D01*
X19992740Y32381055D01*
X19858590Y32491148D01*
X19705540Y32572955D01*
X19539471Y32623332D01*
X19410038Y32636080D01*
X19410035Y32636080D01*
X19366765Y32640342D01*
X19323495Y32636080D01*
X16431350Y32636080D01*
X16388080Y32640342D01*
X16344810Y32636080D01*
X16344807Y32636080D01*
X16215374Y32623332D01*
X16049305Y32572955D01*
X15896254Y32491148D01*
X15828102Y32435217D01*
X15762105Y32381055D01*
X15734519Y32347441D01*
X13055740Y29668661D01*
X12975252Y29789120D01*
X12874610Y29889762D01*
X12874610Y31463019D01*
X14770268Y33358676D01*
X14870914Y33338657D01*
X15024758Y33338657D01*
X15175645Y33368670D01*
X15317778Y33427544D01*
X15445695Y33513015D01*
X15554478Y33621798D01*
X15639949Y33749715D01*
X15698823Y33891848D01*
X15728836Y34042735D01*
X15728836Y34196579D01*
X15698823Y34347466D01*
X15639949Y34489599D01*
X15554478Y34617516D01*
X15485370Y34686624D01*
X15554478Y34755732D01*
X15639949Y34883649D01*
X15698823Y35025782D01*
X15728836Y35176669D01*
X15728836Y35330513D01*
X15698823Y35481400D01*
X15639949Y35623533D01*
X15554478Y35751450D01*
X15445695Y35860233D01*
X15317778Y35945704D01*
X15175645Y36004578D01*
X15024758Y36034591D01*
X14870914Y36034591D01*
X14842087Y36028857D01*
X14830922Y36034825D01*
X14735540Y36063758D01*
X14661201Y36071080D01*
X14661193Y36071080D01*
X14636347Y36073527D01*
X14611501Y36071080D01*
X14445394Y36071080D01*
X14472148Y36082162D01*
X14600065Y36167633D01*
X14708848Y36276416D01*
X14794319Y36404333D01*
X14853193Y36546466D01*
X14883206Y36697353D01*
X14883206Y36851197D01*
X14853193Y37002084D01*
X14794319Y37144217D01*
X14744966Y37218080D01*
X18014234Y37218080D01*
X18039080Y37215633D01*
X18063926Y37218080D01*
X18063934Y37218080D01*
X18138273Y37225402D01*
X18233655Y37254335D01*
X18321559Y37301321D01*
X18398607Y37364553D01*
X18414456Y37383865D01*
X19116672Y38086080D01*
X19259002Y38086080D01*
X19409889Y38116093D01*
X19438081Y38127771D01*
X19438081Y37806673D01*
X19120489Y37489080D01*
X18978158Y37489080D01*
X18827271Y37459067D01*
X18685138Y37400193D01*
X18557221Y37314722D01*
X18448438Y37205939D01*
X18362967Y37078022D01*
X18304093Y36935889D01*
X18274080Y36785002D01*
X18274080Y36631158D01*
X18304093Y36480271D01*
X18362967Y36338138D01*
X18448438Y36210221D01*
X18557221Y36101438D01*
X18685138Y36015967D01*
X18827271Y35957093D01*
X18978158Y35927080D01*
X19132002Y35927080D01*
X19282889Y35957093D01*
X19425022Y36015967D01*
X19552939Y36101438D01*
X19661722Y36210221D01*
X19747193Y36338138D01*
X19806067Y36480271D01*
X19836080Y36631158D01*
X19836080Y36773489D01*
X20284300Y37221708D01*
X20303607Y37237553D01*
X20366839Y37314601D01*
X20413825Y37402505D01*
X20442758Y37497887D01*
X20450080Y37572226D01*
X20452528Y37597080D01*
X20450080Y37621934D01*
X20450080Y40239235D01*
X20452527Y40264081D01*
X20450080Y40288927D01*
X20450080Y40288934D01*
X20442758Y40363273D01*
X20413825Y40458655D01*
X20366839Y40546559D01*
X20303607Y40623607D01*
X20284300Y40639452D01*
X20160672Y40763080D01*
X28578226Y40763080D01*
X29012195Y40720529D01*
X29012195Y40720529D01*
G37*
X29012195Y40720529D02*
X29410542Y40600261D01*
X29777944Y40404910D01*
X30100397Y40141923D01*
X30365633Y39821307D01*
X30563540Y39455285D01*
X30686586Y39057789D01*
X30731081Y38634448D01*
X30731080Y2538735D01*
X30689529Y2114965D01*
X30569261Y1716616D01*
X30373911Y1349218D01*
X30110925Y1026765D01*
X29790306Y761526D01*
X29424284Y563619D01*
X29026788Y440574D01*
X28593943Y395080D01*
X2532934Y395080D01*
X2098965Y437631D01*
X1700616Y557899D01*
X1333218Y753249D01*
X1010765Y1016235D01*
X745526Y1336854D01*
X547619Y1702876D01*
X424574Y2100372D01*
X379080Y2533217D01*
X379080Y4982190D01*
X791604Y4982190D01*
X812517Y4888127D01*
X927789Y4619654D01*
X1093223Y4378828D01*
X1302461Y4174904D01*
X1547462Y4015719D01*
X1748047Y3935640D01*
X1545864Y3827571D01*
X1358420Y3673740D01*
X1204589Y3486296D01*
X1090282Y3272443D01*
X1019892Y3040398D01*
X996124Y2799080D01*
X1019892Y2557762D01*
X1090282Y2325717D01*
X1204589Y2111864D01*
X1358420Y1924420D01*
X1545864Y1770589D01*
X1759717Y1656282D01*
X1991762Y1585892D01*
X2172608Y1568080D01*
X3133552Y1568080D01*
X3314398Y1585892D01*
X3546443Y1656282D01*
X3760296Y1770589D01*
X3947740Y1924420D01*
X4101571Y2111864D01*
X4215878Y2325717D01*
X4286268Y2557762D01*
X4310036Y2799080D01*
X4286268Y3040398D01*
X4215878Y3272443D01*
X4101571Y3486296D01*
X3947740Y3673740D01*
X3760296Y3827571D01*
X3558113Y3935640D01*
X3758698Y4015719D01*
X4003699Y4174904D01*
X4212937Y4378828D01*
X4323080Y4539166D01*
X4433223Y4378828D01*
X4642461Y4174904D01*
X4887462Y4015719D01*
X5088047Y3935640D01*
X4885864Y3827571D01*
X4698420Y3673740D01*
X4544589Y3486296D01*
X4430282Y3272443D01*
X4359892Y3040398D01*
X4336124Y2799080D01*
X4359892Y2557762D01*
X4430282Y2325717D01*
X4544589Y2111864D01*
X4698420Y1924420D01*
X4885864Y1770589D01*
X5099717Y1656282D01*
X5331762Y1585892D01*
X5512608Y1568080D01*
X6473552Y1568080D01*
X6654398Y1585892D01*
X6886443Y1656282D01*
X7100296Y1770589D01*
X7287740Y1924420D01*
X7441571Y2111864D01*
X7555878Y2325717D01*
X7626268Y2557762D01*
X7650036Y2799080D01*
X7633069Y2971349D01*
X23924579Y2971349D01*
X23924579Y2618611D01*
X23993395Y2272652D01*
X24128382Y1946766D01*
X24324352Y1653476D01*
X24573775Y1404053D01*
X24867065Y1208083D01*
X25192951Y1073096D01*
X25538910Y1004280D01*
X25891648Y1004280D01*
X26237607Y1073096D01*
X26563493Y1208083D01*
X26856783Y1404053D01*
X27106206Y1653476D01*
X27302176Y1946766D01*
X27437163Y2272652D01*
X27505979Y2618611D01*
X27505979Y2971349D01*
X27437163Y3317308D01*
X27302176Y3643194D01*
X27106206Y3936484D01*
X26856783Y4185907D01*
X26563493Y4381877D01*
X26237607Y4516864D01*
X25891648Y4585680D01*
X25538910Y4585680D01*
X25192951Y4516864D01*
X24867065Y4381877D01*
X24573775Y4185907D01*
X24324352Y3936484D01*
X24128382Y3643194D01*
X23993395Y3317308D01*
X23924579Y2971349D01*
X7633069Y2971349D01*
X7626268Y3040398D01*
X7555878Y3272443D01*
X7441571Y3486296D01*
X7287740Y3673740D01*
X7100296Y3827571D01*
X6898113Y3935640D01*
X7098698Y4015719D01*
X7343699Y4174904D01*
X7552937Y4378828D01*
X7718371Y4619654D01*
X7833643Y4888127D01*
X7854556Y4982190D01*
X7733235Y5212080D01*
X6120080Y5212080D01*
X6120080Y5192080D01*
X5866080Y5192080D01*
X5866080Y5212080D01*
X2780080Y5212080D01*
X2780080Y5192080D01*
X2526080Y5192080D01*
X2526080Y5212080D01*
X912925Y5212080D01*
X791604Y4982190D01*
X379080Y4982190D01*
X379080Y9895774D01*
X1371003Y8903850D01*
X1386848Y8884543D01*
X1452326Y8830806D01*
X1358420Y8753740D01*
X1204589Y8566296D01*
X1090282Y8352443D01*
X1019892Y8120398D01*
X996124Y7879080D01*
X1019892Y7637762D01*
X1090282Y7405717D01*
X1204589Y7191864D01*
X1358420Y7004420D01*
X1545864Y6850589D01*
X1748047Y6742520D01*
X1547462Y6662441D01*
X1302461Y6503256D01*
X1093223Y6299332D01*
X927789Y6058506D01*
X812517Y5790033D01*
X791604Y5695970D01*
X912925Y5466080D01*
X2526080Y5466080D01*
X2526080Y5486080D01*
X2780080Y5486080D01*
X2780080Y5466080D01*
X5866080Y5466080D01*
X5866080Y5486080D01*
X6120080Y5486080D01*
X6120080Y5466080D01*
X7733235Y5466080D01*
X7854556Y5695970D01*
X7833643Y5790033D01*
X7718371Y6058506D01*
X7552937Y6299332D01*
X7343699Y6503256D01*
X7098698Y6662441D01*
X6898113Y6742520D01*
X7100296Y6850589D01*
X7287740Y7004420D01*
X7441571Y7191864D01*
X7555878Y7405717D01*
X7626268Y7637762D01*
X7650036Y7879080D01*
X7626268Y8120398D01*
X7555878Y8352443D01*
X7441571Y8566296D01*
X7287740Y8753740D01*
X7230394Y8800802D01*
X7928310Y9498718D01*
X7947617Y9514563D01*
X8010849Y9591611D01*
X8057835Y9679515D01*
X8057835Y9679516D01*
X8086768Y9774896D01*
X8087742Y9784784D01*
X8094090Y9849236D01*
X8094090Y9849243D01*
X8096537Y9874089D01*
X8094090Y9898935D01*
X8094090Y10939225D01*
X8096537Y10964071D01*
X8094090Y10988917D01*
X8094090Y10988924D01*
X8086768Y11063263D01*
X8073715Y11106296D01*
X8057835Y11158645D01*
X8010849Y11246549D01*
X7947617Y11323597D01*
X7928310Y11339442D01*
X7230394Y12037357D01*
X7287740Y12084420D01*
X7441571Y12271864D01*
X7555878Y12485717D01*
X7626268Y12717762D01*
X7650036Y12959080D01*
X7626268Y13200398D01*
X7555878Y13432443D01*
X7441571Y13646296D01*
X7287740Y13833740D01*
X7100296Y13987571D01*
X6886443Y14101878D01*
X6654398Y14172268D01*
X6473552Y14190080D01*
X5512608Y14190080D01*
X5331762Y14172268D01*
X5099717Y14101878D01*
X4904070Y13997302D01*
X4904070Y14460858D01*
X5099717Y14356282D01*
X5331762Y14285892D01*
X5512608Y14268080D01*
X6473552Y14268080D01*
X6654398Y14285892D01*
X6886443Y14356282D01*
X7100296Y14470589D01*
X7287740Y14624420D01*
X7441571Y14811864D01*
X7555878Y15025717D01*
X7626268Y15257762D01*
X7650036Y15499080D01*
X7626268Y15740398D01*
X7555878Y15972443D01*
X7481632Y16111349D01*
X23924579Y16111349D01*
X23924579Y15758611D01*
X23993395Y15412652D01*
X24128382Y15086766D01*
X24324352Y14793476D01*
X24573775Y14544053D01*
X24867065Y14348083D01*
X25192951Y14213096D01*
X25538910Y14144280D01*
X25891648Y14144280D01*
X26237607Y14213096D01*
X26563493Y14348083D01*
X26856783Y14544053D01*
X27106206Y14793476D01*
X27302176Y15086766D01*
X27437163Y15412652D01*
X27505979Y15758611D01*
X27505979Y16111349D01*
X27437163Y16457308D01*
X27302176Y16783194D01*
X27106206Y17076484D01*
X26856783Y17325907D01*
X26563493Y17521877D01*
X26237607Y17656864D01*
X25891648Y17725680D01*
X25538910Y17725680D01*
X25192951Y17656864D01*
X24867065Y17521877D01*
X24573775Y17325907D01*
X24324352Y17076484D01*
X24128382Y16783194D01*
X23993395Y16457308D01*
X23924579Y16111349D01*
X7481632Y16111349D01*
X7441571Y16186296D01*
X7287740Y16373740D01*
X7100296Y16527571D01*
X6886443Y16641878D01*
X6654398Y16712268D01*
X6473552Y16730080D01*
X5642581Y16730080D01*
X5691722Y16779221D01*
X5777193Y16907138D01*
X5836067Y17049271D01*
X5866080Y17200158D01*
X5866080Y17354002D01*
X5836067Y17504889D01*
X5777193Y17647022D01*
X5691722Y17774939D01*
X5582939Y17883722D01*
X5455022Y17969193D01*
X5312889Y18028067D01*
X5162002Y18058080D01*
X5008158Y18058080D01*
X4857271Y18028067D01*
X4715138Y17969193D01*
X4587221Y17883722D01*
X4478438Y17774939D01*
X4392967Y17647022D01*
X4334093Y17504889D01*
X4304080Y17354002D01*
X4304080Y17211671D01*
X4057850Y16965441D01*
X4038544Y16949597D01*
X3975312Y16872549D01*
X3950197Y16825562D01*
X3928325Y16784644D01*
X3899392Y16689262D01*
X3889623Y16590070D01*
X3892071Y16565214D01*
X3892071Y16419426D01*
X3760296Y16527571D01*
X3546443Y16641878D01*
X3314398Y16712268D01*
X3133552Y16730080D01*
X2537672Y16730080D01*
X1564070Y17703681D01*
X1564070Y20535080D01*
X23505608Y20535080D01*
X23527445Y20313365D01*
X23592117Y20100171D01*
X23697138Y19903690D01*
X23838473Y19731473D01*
X24010690Y19590138D01*
X24207171Y19485117D01*
X24420365Y19420445D01*
X24586522Y19404080D01*
X25397638Y19404080D01*
X25563795Y19420445D01*
X25776989Y19485117D01*
X25973470Y19590138D01*
X26145687Y19731473D01*
X26287022Y19903690D01*
X26392043Y20100171D01*
X26456715Y20313365D01*
X26478552Y20535080D01*
X26975608Y20535080D01*
X26997445Y20313365D01*
X27062117Y20100171D01*
X27167138Y19903690D01*
X27308473Y19731473D01*
X27480690Y19590138D01*
X27677171Y19485117D01*
X27890365Y19420445D01*
X28056522Y19404080D01*
X28867638Y19404080D01*
X29033795Y19420445D01*
X29246989Y19485117D01*
X29443470Y19590138D01*
X29615687Y19731473D01*
X29757022Y19903690D01*
X29862043Y20100171D01*
X29926715Y20313365D01*
X29948552Y20535080D01*
X29926715Y20756795D01*
X29862043Y20969989D01*
X29757022Y21166470D01*
X29615687Y21338687D01*
X29443470Y21480022D01*
X29246989Y21585043D01*
X29033795Y21649715D01*
X28867638Y21666080D01*
X28056522Y21666080D01*
X27890365Y21649715D01*
X27677171Y21585043D01*
X27480690Y21480022D01*
X27308473Y21338687D01*
X27167138Y21166470D01*
X27062117Y20969989D01*
X26997445Y20756795D01*
X26975608Y20535080D01*
X26478552Y20535080D01*
X26456715Y20756795D01*
X26392043Y20969989D01*
X26287022Y21166470D01*
X26145687Y21338687D01*
X25973470Y21480022D01*
X25776989Y21585043D01*
X25563795Y21649715D01*
X25397638Y21666080D01*
X24586522Y21666080D01*
X24420365Y21649715D01*
X24207171Y21585043D01*
X24010690Y21480022D01*
X23838473Y21338687D01*
X23697138Y21166470D01*
X23592117Y20969989D01*
X23527445Y20756795D01*
X23505608Y20535080D01*
X1564070Y20535080D01*
X1564070Y22603330D01*
X23092080Y22603330D01*
X23102501Y22504556D01*
X23139966Y22385214D01*
X23199993Y22275475D01*
X23280277Y22179555D01*
X23377730Y22101141D01*
X23488609Y22043246D01*
X23608652Y22008095D01*
X23733247Y21997038D01*
X24766330Y22000080D01*
X24925080Y22158830D01*
X24925080Y22762080D01*
X25179080Y22762080D01*
X25179080Y22158830D01*
X25337830Y22000080D01*
X25670276Y21999101D01*
X25681290Y21943732D01*
X25730740Y21824348D01*
X25802532Y21716904D01*
X25893904Y21625532D01*
X26001348Y21553740D01*
X26120732Y21504290D01*
X26247470Y21479080D01*
X26376690Y21479080D01*
X26503428Y21504290D01*
X26622812Y21553740D01*
X26730256Y21625532D01*
X26821628Y21716904D01*
X26893420Y21824348D01*
X26942870Y21943732D01*
X26968080Y22070470D01*
X26968080Y22199690D01*
X26942870Y22326428D01*
X26938202Y22337697D01*
X26964194Y22385214D01*
X27001659Y22504556D01*
X27012080Y22603330D01*
X26853330Y22762080D01*
X26512578Y22762080D01*
X26503428Y22765870D01*
X26376690Y22791080D01*
X26247470Y22791080D01*
X26120732Y22765870D01*
X26111582Y22762080D01*
X25179080Y22762080D01*
X24925080Y22762080D01*
X23250830Y22762080D01*
X23092080Y22603330D01*
X1564070Y22603330D01*
X1564070Y24620858D01*
X1759717Y24516282D01*
X1991762Y24445892D01*
X2172608Y24428080D01*
X3133552Y24428080D01*
X3314398Y24445892D01*
X3546443Y24516282D01*
X3760296Y24630589D01*
X3947740Y24784420D01*
X4101571Y24971864D01*
X4215878Y25185717D01*
X4286268Y25417762D01*
X4310036Y25659080D01*
X4286268Y25900398D01*
X4215878Y26132443D01*
X4101571Y26346296D01*
X3947740Y26533740D01*
X3760296Y26687571D01*
X3558113Y26795640D01*
X3758698Y26875719D01*
X4003699Y27034904D01*
X4212937Y27238828D01*
X4323080Y27399166D01*
X4433223Y27238828D01*
X4642461Y27034904D01*
X4887462Y26875719D01*
X5088047Y26795640D01*
X4885864Y26687571D01*
X4698420Y26533740D01*
X4544589Y26346296D01*
X4430282Y26132443D01*
X4359892Y25900398D01*
X4336124Y25659080D01*
X4359892Y25417762D01*
X4430282Y25185717D01*
X4544589Y24971864D01*
X4698420Y24784420D01*
X4885864Y24630589D01*
X5099717Y24516282D01*
X5331762Y24445892D01*
X5512608Y24428080D01*
X5578159Y24428080D01*
X6717519Y23288719D01*
X6745105Y23255105D01*
X6778717Y23227521D01*
X6879254Y23145012D01*
X7025523Y23066830D01*
X7032305Y23063205D01*
X7198374Y23012828D01*
X7327807Y23000080D01*
X7327810Y23000080D01*
X7371080Y22995818D01*
X7414350Y23000080D01*
X8851810Y23000080D01*
X8895080Y22995818D01*
X8938350Y23000080D01*
X8938353Y23000080D01*
X9067786Y23012828D01*
X9233855Y23063205D01*
X9386905Y23145012D01*
X9521055Y23255105D01*
X9548646Y23288725D01*
X10884441Y24624519D01*
X10918055Y24652105D01*
X10985363Y24734121D01*
X11028148Y24786254D01*
X11074185Y24872384D01*
X11109955Y24939305D01*
X11160332Y25105374D01*
X11173080Y25234808D01*
X11173080Y25234809D01*
X11177342Y25278079D01*
X11175518Y25296597D01*
X11497691Y25618770D01*
X15616848Y25618770D01*
X15616848Y25464926D01*
X15646861Y25314039D01*
X15705735Y25171906D01*
X15791206Y25043989D01*
X15899989Y24935206D01*
X16027906Y24849735D01*
X16170039Y24790861D01*
X16320926Y24760848D01*
X16474770Y24760848D01*
X16612616Y24788267D01*
X17656447Y23744435D01*
X17674643Y23722263D01*
X17763112Y23649659D01*
X17864045Y23595709D01*
X17973564Y23562487D01*
X18058920Y23554080D01*
X18058922Y23554080D01*
X18087459Y23551269D01*
X18115996Y23554080D01*
X23344237Y23554080D01*
X23344237Y23542069D01*
X23280277Y23490605D01*
X23199993Y23394685D01*
X23139966Y23284946D01*
X23102501Y23165604D01*
X23092080Y23066830D01*
X23250830Y22908080D01*
X23667753Y22908080D01*
X23727080Y22902237D01*
X26377080Y22902237D01*
X26436407Y22908080D01*
X26853330Y22908080D01*
X27012080Y23066830D01*
X27001659Y23165604D01*
X26964194Y23284946D01*
X26904167Y23394685D01*
X26823883Y23490605D01*
X26759923Y23542069D01*
X26759923Y23554080D01*
X27073272Y23554080D01*
X27076861Y23536039D01*
X27135735Y23393906D01*
X27221206Y23265989D01*
X27329989Y23157206D01*
X27457906Y23071735D01*
X27600039Y23012861D01*
X27750926Y22982848D01*
X27904770Y22982848D01*
X28055657Y23012861D01*
X28197790Y23071735D01*
X28325707Y23157206D01*
X28434490Y23265989D01*
X28519961Y23393906D01*
X28578835Y23536039D01*
X28608848Y23686926D01*
X28608848Y23725312D01*
X28647234Y23725312D01*
X28798121Y23755325D01*
X28940254Y23814199D01*
X29068171Y23899670D01*
X29106080Y23937579D01*
X29106080Y23567923D01*
X29062080Y23567923D01*
X28987391Y23560567D01*
X28915572Y23538781D01*
X28849384Y23503402D01*
X28791369Y23455791D01*
X28743758Y23397776D01*
X28708379Y23331588D01*
X28686593Y23259769D01*
X28679237Y23185080D01*
X28679237Y22085080D01*
X28686593Y22010391D01*
X28708379Y21938572D01*
X28743758Y21872384D01*
X28791369Y21814369D01*
X28849384Y21766758D01*
X28915572Y21731379D01*
X28987391Y21709593D01*
X29062080Y21702237D01*
X30162080Y21702237D01*
X30236769Y21709593D01*
X30308588Y21731379D01*
X30374776Y21766758D01*
X30432791Y21814369D01*
X30480402Y21872384D01*
X30515781Y21938572D01*
X30537567Y22010391D01*
X30544923Y22085080D01*
X30544923Y23185080D01*
X30537567Y23259769D01*
X30515781Y23331588D01*
X30480402Y23397776D01*
X30432791Y23455791D01*
X30374776Y23503402D01*
X30308588Y23538781D01*
X30236769Y23560567D01*
X30162080Y23567923D01*
X30118080Y23567923D01*
X30118080Y24702237D01*
X30162080Y24702237D01*
X30236769Y24709593D01*
X30308588Y24731379D01*
X30374776Y24766758D01*
X30432791Y24814369D01*
X30480402Y24872384D01*
X30515781Y24938572D01*
X30537567Y25010391D01*
X30544923Y25085080D01*
X30544923Y26185080D01*
X30537567Y26259769D01*
X30515781Y26331588D01*
X30480402Y26397776D01*
X30432791Y26455791D01*
X30374776Y26503402D01*
X30308588Y26538781D01*
X30236769Y26560567D01*
X30162080Y26567923D01*
X29062080Y26567923D01*
X28987391Y26560567D01*
X28915572Y26538781D01*
X28849384Y26503402D01*
X28791369Y26455791D01*
X28743758Y26397776D01*
X28708379Y26331588D01*
X28686593Y26259769D01*
X28679237Y26185080D01*
X28679237Y25280946D01*
X28647234Y25287312D01*
X28493390Y25287312D01*
X28347841Y25258361D01*
X28333048Y25270501D01*
X28232115Y25324451D01*
X28122596Y25357673D01*
X28037240Y25366080D01*
X28008700Y25368891D01*
X27980160Y25366080D01*
X26759923Y25366080D01*
X26759923Y25635080D01*
X26758119Y25653395D01*
X26821628Y25716904D01*
X26893420Y25824348D01*
X26942870Y25943732D01*
X26968080Y26070470D01*
X26968080Y26199690D01*
X26942870Y26326428D01*
X26893420Y26445812D01*
X26821628Y26553256D01*
X26730256Y26644628D01*
X26622812Y26716420D01*
X26503428Y26765870D01*
X26376690Y26791080D01*
X26247470Y26791080D01*
X26120732Y26765870D01*
X26001348Y26716420D01*
X25893904Y26644628D01*
X25802532Y26553256D01*
X25730740Y26445812D01*
X25681290Y26326428D01*
X25656080Y26199690D01*
X25656080Y26070470D01*
X25666532Y26017923D01*
X25300234Y26017923D01*
X25294722Y26020869D01*
X25175778Y26056950D01*
X25083078Y26066080D01*
X25001448Y26066080D01*
X24653527Y26414001D01*
X24632067Y26521889D01*
X24598022Y26604080D01*
X25397638Y26604080D01*
X25563795Y26620445D01*
X25776989Y26685117D01*
X25973470Y26790138D01*
X26145687Y26931473D01*
X26287022Y27103690D01*
X26392043Y27300171D01*
X26456715Y27513365D01*
X26478552Y27735080D01*
X26975608Y27735080D01*
X26997445Y27513365D01*
X27062117Y27300171D01*
X27167138Y27103690D01*
X27308473Y26931473D01*
X27480690Y26790138D01*
X27677171Y26685117D01*
X27890365Y26620445D01*
X28056522Y26604080D01*
X28867638Y26604080D01*
X29033795Y26620445D01*
X29246989Y26685117D01*
X29443470Y26790138D01*
X29615687Y26931473D01*
X29757022Y27103690D01*
X29862043Y27300171D01*
X29926715Y27513365D01*
X29948552Y27735080D01*
X29926715Y27956795D01*
X29862043Y28169989D01*
X29757022Y28366470D01*
X29615687Y28538687D01*
X29443470Y28680022D01*
X29246989Y28785043D01*
X29033795Y28849715D01*
X28867638Y28866080D01*
X28056522Y28866080D01*
X27890365Y28849715D01*
X27677171Y28785043D01*
X27480690Y28680022D01*
X27308473Y28538687D01*
X27167138Y28366470D01*
X27062117Y28169989D01*
X26997445Y27956795D01*
X26975608Y27735080D01*
X26478552Y27735080D01*
X26456715Y27956795D01*
X26392043Y28169989D01*
X26287022Y28366470D01*
X26145687Y28538687D01*
X25973470Y28680022D01*
X25776989Y28785043D01*
X25563795Y28849715D01*
X25397638Y28866080D01*
X24586522Y28866080D01*
X24420365Y28849715D01*
X24207171Y28785043D01*
X24010690Y28680022D01*
X23838473Y28538687D01*
X23697138Y28366470D01*
X23592117Y28169989D01*
X23527445Y27956795D01*
X23505608Y27735080D01*
X23527445Y27513365D01*
X23592117Y27300171D01*
X23697138Y27103690D01*
X23732341Y27060795D01*
X23653271Y27045067D01*
X23511138Y26986193D01*
X23383221Y26900722D01*
X23274438Y26791939D01*
X23188967Y26664022D01*
X23130093Y26521889D01*
X23100080Y26371002D01*
X23100080Y26217158D01*
X23130093Y26066271D01*
X23188967Y25924138D01*
X23274438Y25796221D01*
X23353757Y25716902D01*
X23351593Y25709769D01*
X23344237Y25635080D01*
X23344237Y25366080D01*
X18597358Y25366080D01*
X17893893Y26069544D01*
X17921312Y26207390D01*
X17921312Y26361234D01*
X17891299Y26512121D01*
X17832425Y26654254D01*
X17746954Y26782171D01*
X17638171Y26890954D01*
X17510254Y26976425D01*
X17368121Y27035299D01*
X17217234Y27065312D01*
X17063390Y27065312D01*
X16912503Y27035299D01*
X16770370Y26976425D01*
X16642453Y26890954D01*
X16533670Y26782171D01*
X16448199Y26654254D01*
X16389325Y26512121D01*
X16359312Y26361234D01*
X16359312Y26322848D01*
X16320926Y26322848D01*
X16170039Y26292835D01*
X16027906Y26233961D01*
X15899989Y26148490D01*
X15791206Y26039707D01*
X15705735Y25911790D01*
X15646861Y25769657D01*
X15616848Y25618770D01*
X11497691Y25618770D01*
X16753002Y30874080D01*
X19001844Y30874080D01*
X20968080Y28907842D01*
X20968080Y28663808D01*
X20980828Y28534375D01*
X21031205Y28368306D01*
X21113012Y28215256D01*
X21223105Y28081105D01*
X21357255Y27971012D01*
X21510305Y27889205D01*
X21676374Y27838828D01*
X21849080Y27821818D01*
X22021785Y27838828D01*
X22187854Y27889205D01*
X22340904Y27971012D01*
X22475055Y28081105D01*
X22585148Y28215255D01*
X22666955Y28368305D01*
X22717332Y28534374D01*
X22730080Y28663807D01*
X22730080Y29229495D01*
X22734342Y29272765D01*
X22724944Y29368183D01*
X22717332Y29445471D01*
X22666955Y29611540D01*
X22585148Y29764590D01*
X22528864Y29833173D01*
X22502640Y29865128D01*
X22502637Y29865131D01*
X22475055Y29898740D01*
X22441446Y29926322D01*
X20020331Y32347436D01*
X19992740Y32381055D01*
X19858590Y32491148D01*
X19705540Y32572955D01*
X19539471Y32623332D01*
X19410038Y32636080D01*
X19410035Y32636080D01*
X19366765Y32640342D01*
X19323495Y32636080D01*
X16431350Y32636080D01*
X16388080Y32640342D01*
X16344810Y32636080D01*
X16344807Y32636080D01*
X16215374Y32623332D01*
X16049305Y32572955D01*
X15896254Y32491148D01*
X15828102Y32435217D01*
X15762105Y32381055D01*
X15734519Y32347441D01*
X13055740Y29668661D01*
X12975252Y29789120D01*
X12874610Y29889762D01*
X12874610Y31463019D01*
X14770268Y33358676D01*
X14870914Y33338657D01*
X15024758Y33338657D01*
X15175645Y33368670D01*
X15317778Y33427544D01*
X15445695Y33513015D01*
X15554478Y33621798D01*
X15639949Y33749715D01*
X15698823Y33891848D01*
X15728836Y34042735D01*
X15728836Y34196579D01*
X15698823Y34347466D01*
X15639949Y34489599D01*
X15554478Y34617516D01*
X15485370Y34686624D01*
X15554478Y34755732D01*
X15639949Y34883649D01*
X15698823Y35025782D01*
X15728836Y35176669D01*
X15728836Y35330513D01*
X15698823Y35481400D01*
X15639949Y35623533D01*
X15554478Y35751450D01*
X15445695Y35860233D01*
X15317778Y35945704D01*
X15175645Y36004578D01*
X15024758Y36034591D01*
X14870914Y36034591D01*
X14842087Y36028857D01*
X14830922Y36034825D01*
X14735540Y36063758D01*
X14661201Y36071080D01*
X14661193Y36071080D01*
X14636347Y36073527D01*
X14611501Y36071080D01*
X14445394Y36071080D01*
X14472148Y36082162D01*
X14600065Y36167633D01*
X14708848Y36276416D01*
X14794319Y36404333D01*
X14853193Y36546466D01*
X14883206Y36697353D01*
X14883206Y36851197D01*
X14853193Y37002084D01*
X14794319Y37144217D01*
X14744966Y37218080D01*
X18014234Y37218080D01*
X18039080Y37215633D01*
X18063926Y37218080D01*
X18063934Y37218080D01*
X18138273Y37225402D01*
X18233655Y37254335D01*
X18321559Y37301321D01*
X18398607Y37364553D01*
X18414456Y37383865D01*
X19116672Y38086080D01*
X19259002Y38086080D01*
X19409889Y38116093D01*
X19438081Y38127771D01*
X19438081Y37806673D01*
X19120489Y37489080D01*
X18978158Y37489080D01*
X18827271Y37459067D01*
X18685138Y37400193D01*
X18557221Y37314722D01*
X18448438Y37205939D01*
X18362967Y37078022D01*
X18304093Y36935889D01*
X18274080Y36785002D01*
X18274080Y36631158D01*
X18304093Y36480271D01*
X18362967Y36338138D01*
X18448438Y36210221D01*
X18557221Y36101438D01*
X18685138Y36015967D01*
X18827271Y35957093D01*
X18978158Y35927080D01*
X19132002Y35927080D01*
X19282889Y35957093D01*
X19425022Y36015967D01*
X19552939Y36101438D01*
X19661722Y36210221D01*
X19747193Y36338138D01*
X19806067Y36480271D01*
X19836080Y36631158D01*
X19836080Y36773489D01*
X20284300Y37221708D01*
X20303607Y37237553D01*
X20366839Y37314601D01*
X20413825Y37402505D01*
X20442758Y37497887D01*
X20450080Y37572226D01*
X20452528Y37597080D01*
X20450080Y37621934D01*
X20450080Y40239235D01*
X20452527Y40264081D01*
X20450080Y40288927D01*
X20450080Y40288934D01*
X20442758Y40363273D01*
X20413825Y40458655D01*
X20366839Y40546559D01*
X20303607Y40623607D01*
X20284300Y40639452D01*
X20160672Y40763080D01*
X28578226Y40763080D01*
X29012195Y40720529D01*
G36*
X8389080Y26257581D02*
G01*
X8288438Y26156939D01*
X8202967Y26029022D01*
X8144093Y25886889D01*
X8114080Y25736002D01*
X8114080Y25582158D01*
X8144093Y25431271D01*
X8202967Y25289138D01*
X8288438Y25161221D01*
X8397221Y25052438D01*
X8525138Y24966967D01*
X8667271Y24908093D01*
X8674695Y24906616D01*
X8530159Y24762080D01*
X7736002Y24762080D01*
X7471056Y25027026D01*
X7555878Y25185717D01*
X7626268Y25417762D01*
X7650036Y25659080D01*
X7626268Y25900398D01*
X7555878Y26132443D01*
X7441571Y26346296D01*
X7287740Y26533740D01*
X7100296Y26687571D01*
X6898113Y26795640D01*
X7098698Y26875719D01*
X7343699Y27034904D01*
X7552937Y27238828D01*
X7718371Y27479654D01*
X7833643Y27748127D01*
X7854556Y27842190D01*
X7733235Y28072080D01*
X6120080Y28072080D01*
X6120080Y28052080D01*
X5866080Y28052080D01*
X5866080Y28072080D01*
X2780080Y28072080D01*
X2780080Y28052080D01*
X2526080Y28052080D01*
X2526080Y28072080D01*
X2506080Y28072080D01*
X2506080Y28326080D01*
X2526080Y28326080D01*
X2526080Y28346080D01*
X2780080Y28346080D01*
X2780080Y28326080D01*
X5866080Y28326080D01*
X5866080Y28346080D01*
X6120080Y28346080D01*
X6120080Y28326080D01*
X7733235Y28326080D01*
X7854556Y28555970D01*
X7833643Y28650033D01*
X7718371Y28918506D01*
X7602892Y29086612D01*
X7628320Y29094325D01*
X7716224Y29141311D01*
X7793272Y29204543D01*
X7809121Y29223855D01*
X8383290Y29798023D01*
X8389080Y29802775D01*
X8389080Y26257581D01*
X8389080Y26257581D01*
G37*
X8389080Y26257581D02*
X8288438Y26156939D01*
X8202967Y26029022D01*
X8144093Y25886889D01*
X8114080Y25736002D01*
X8114080Y25582158D01*
X8144093Y25431271D01*
X8202967Y25289138D01*
X8288438Y25161221D01*
X8397221Y25052438D01*
X8525138Y24966967D01*
X8667271Y24908093D01*
X8674695Y24906616D01*
X8530159Y24762080D01*
X7736002Y24762080D01*
X7471056Y25027026D01*
X7555878Y25185717D01*
X7626268Y25417762D01*
X7650036Y25659080D01*
X7626268Y25900398D01*
X7555878Y26132443D01*
X7441571Y26346296D01*
X7287740Y26533740D01*
X7100296Y26687571D01*
X6898113Y26795640D01*
X7098698Y26875719D01*
X7343699Y27034904D01*
X7552937Y27238828D01*
X7718371Y27479654D01*
X7833643Y27748127D01*
X7854556Y27842190D01*
X7733235Y28072080D01*
X6120080Y28072080D01*
X6120080Y28052080D01*
X5866080Y28052080D01*
X5866080Y28072080D01*
X2780080Y28072080D01*
X2780080Y28052080D01*
X2526080Y28052080D01*
X2526080Y28072080D01*
X2506080Y28072080D01*
X2506080Y28326080D01*
X2526080Y28326080D01*
X2526080Y28346080D01*
X2780080Y28346080D01*
X2780080Y28326080D01*
X5866080Y28326080D01*
X5866080Y28346080D01*
X6120080Y28346080D01*
X6120080Y28326080D01*
X7733235Y28326080D01*
X7854556Y28555970D01*
X7833643Y28650033D01*
X7718371Y28918506D01*
X7602892Y29086612D01*
X7628320Y29094325D01*
X7716224Y29141311D01*
X7793272Y29204543D01*
X7809121Y29223855D01*
X8383290Y29798023D01*
X8389080Y29802775D01*
X8389080Y26257581D01*
G36*
X12619533Y37197034D02*
G01*
X12542485Y37133802D01*
X12526640Y37114495D01*
X12107019Y36694873D01*
X11964688Y36694873D01*
X11813801Y36664860D01*
X11671668Y36605986D01*
X11543751Y36520515D01*
X11434968Y36411732D01*
X11349497Y36283815D01*
X11290623Y36141682D01*
X11260610Y35990795D01*
X11260610Y35836951D01*
X11290623Y35686064D01*
X11349497Y35543931D01*
X11434968Y35416014D01*
X11543751Y35307231D01*
X11671668Y35221760D01*
X11813801Y35162886D01*
X11964688Y35132873D01*
X12118532Y35132873D01*
X12269419Y35162886D01*
X12411552Y35221760D01*
X12488612Y35273249D01*
X12520967Y35195138D01*
X12606438Y35067221D01*
X12715221Y34958438D01*
X12843138Y34872967D01*
X12985271Y34814093D01*
X13136158Y34784080D01*
X13290002Y34784080D01*
X13440889Y34814093D01*
X13583022Y34872967D01*
X13710939Y34958438D01*
X13811581Y35059080D01*
X14190226Y35059080D01*
X14196849Y35025782D01*
X14255723Y34883649D01*
X14341194Y34755732D01*
X14410302Y34686624D01*
X14341194Y34617516D01*
X14255723Y34489599D01*
X14196849Y34347466D01*
X14166836Y34196579D01*
X14166836Y34186428D01*
X12028395Y32047986D01*
X12009083Y32032137D01*
X11945851Y31955089D01*
X11898865Y31867184D01*
X11869932Y31771802D01*
X11862610Y31697463D01*
X11862610Y31697456D01*
X11860163Y31672610D01*
X11862610Y31647764D01*
X11862611Y29889763D01*
X11761968Y29789120D01*
X11676497Y29661203D01*
X11617623Y29519070D01*
X11587610Y29368183D01*
X11587610Y29214339D01*
X11617623Y29063452D01*
X11676497Y28921319D01*
X11761968Y28793402D01*
X11870751Y28684619D01*
X11991210Y28604131D01*
X11173080Y27786001D01*
X11173080Y33957353D01*
X11160332Y34086786D01*
X11109955Y34252855D01*
X11028148Y34405905D01*
X10918055Y34540055D01*
X10783905Y34650148D01*
X10630855Y34731955D01*
X10464786Y34782332D01*
X10292080Y34799342D01*
X10119375Y34782332D01*
X9953306Y34731955D01*
X9800256Y34650148D01*
X9666106Y34540055D01*
X9556013Y34405905D01*
X9474206Y34252855D01*
X9423829Y34086786D01*
X9411081Y33957353D01*
X9411080Y26247581D01*
X9401080Y26257581D01*
X9401080Y35609489D01*
X11009672Y37218080D01*
X12658907Y37218080D01*
X12619533Y37197034D01*
X12619533Y37197034D01*
G37*
X12619533Y37197034D02*
X12542485Y37133802D01*
X12526640Y37114495D01*
X12107019Y36694873D01*
X11964688Y36694873D01*
X11813801Y36664860D01*
X11671668Y36605986D01*
X11543751Y36520515D01*
X11434968Y36411732D01*
X11349497Y36283815D01*
X11290623Y36141682D01*
X11260610Y35990795D01*
X11260610Y35836951D01*
X11290623Y35686064D01*
X11349497Y35543931D01*
X11434968Y35416014D01*
X11543751Y35307231D01*
X11671668Y35221760D01*
X11813801Y35162886D01*
X11964688Y35132873D01*
X12118532Y35132873D01*
X12269419Y35162886D01*
X12411552Y35221760D01*
X12488612Y35273249D01*
X12520967Y35195138D01*
X12606438Y35067221D01*
X12715221Y34958438D01*
X12843138Y34872967D01*
X12985271Y34814093D01*
X13136158Y34784080D01*
X13290002Y34784080D01*
X13440889Y34814093D01*
X13583022Y34872967D01*
X13710939Y34958438D01*
X13811581Y35059080D01*
X14190226Y35059080D01*
X14196849Y35025782D01*
X14255723Y34883649D01*
X14341194Y34755732D01*
X14410302Y34686624D01*
X14341194Y34617516D01*
X14255723Y34489599D01*
X14196849Y34347466D01*
X14166836Y34196579D01*
X14166836Y34186428D01*
X12028395Y32047986D01*
X12009083Y32032137D01*
X11945851Y31955089D01*
X11898865Y31867184D01*
X11869932Y31771802D01*
X11862610Y31697463D01*
X11862610Y31697456D01*
X11860163Y31672610D01*
X11862610Y31647764D01*
X11862611Y29889763D01*
X11761968Y29789120D01*
X11676497Y29661203D01*
X11617623Y29519070D01*
X11587610Y29368183D01*
X11587610Y29214339D01*
X11617623Y29063452D01*
X11676497Y28921319D01*
X11761968Y28793402D01*
X11870751Y28684619D01*
X11991210Y28604131D01*
X11173080Y27786001D01*
X11173080Y33957353D01*
X11160332Y34086786D01*
X11109955Y34252855D01*
X11028148Y34405905D01*
X10918055Y34540055D01*
X10783905Y34650148D01*
X10630855Y34731955D01*
X10464786Y34782332D01*
X10292080Y34799342D01*
X10119375Y34782332D01*
X9953306Y34731955D01*
X9800256Y34650148D01*
X9666106Y34540055D01*
X9556013Y34405905D01*
X9474206Y34252855D01*
X9423829Y34086786D01*
X9411081Y33957353D01*
X9411080Y26247581D01*
X9401080Y26257581D01*
X9401080Y35609489D01*
X11009672Y37218080D01*
X12658907Y37218080D01*
X12619533Y37197034D01*
M02*
