G04 #@! TF.GenerationSoftware,KiCad,Pcbnew,5.1.1*
G04 #@! TF.CreationDate,2019-05-05T16:22:27-07:00*
G04 #@! TF.ProjectId,pmod-usb-analyser-openvizla,706d6f64-2d75-4736-922d-616e616c7973,rev?*
G04 #@! TF.SameCoordinates,PX26449c8PY4c8cf18*
G04 #@! TF.FileFunction,Legend,Top*
G04 #@! TF.FilePolarity,Positive*
%FSLAX46Y46*%
G04 Gerber Fmt 4.6, Leading zero omitted, Abs format (unit mm)*
G04 Created by KiCad (PCBNEW 5.1.1) date 2019-05-05 16:22:27*
%MOMM*%
%LPD*%
G04 APERTURE LIST*
%ADD10C,0.150000*%
%ADD11C,0.200000*%
%ADD12C,0.300000*%
%ADD13C,0.120000*%
%ADD14C,0.152400*%
%ADD15C,0.127000*%
%ADD16C,0.254000*%
%ADD17C,1.000000*%
%ADD18C,0.050000*%
G04 APERTURE END LIST*
D10*
X17233331Y832860D02*
X17233331Y1832860D01*
X17566664Y1118574D01*
X17899998Y1832860D01*
X17899998Y832860D01*
X18804760Y832860D02*
X18804760Y1356669D01*
X18757140Y1451907D01*
X18661902Y1499526D01*
X18471426Y1499526D01*
X18376188Y1451907D01*
X18804760Y880479D02*
X18709521Y832860D01*
X18471426Y832860D01*
X18376188Y880479D01*
X18328569Y975717D01*
X18328569Y1070955D01*
X18376188Y1166193D01*
X18471426Y1213812D01*
X18709521Y1213812D01*
X18804760Y1261431D01*
X19185712Y1499526D02*
X19423807Y832860D01*
X19661902Y1499526D02*
X19423807Y832860D01*
X19328569Y594764D01*
X19280950Y547145D01*
X19185712Y499526D01*
X19995236Y1737621D02*
X20042855Y1785240D01*
X20138093Y1832860D01*
X20376188Y1832860D01*
X20471426Y1785240D01*
X20519045Y1737621D01*
X20566664Y1642383D01*
X20566664Y1547145D01*
X20519045Y1404288D01*
X19947617Y832860D01*
X20566664Y832860D01*
X21185712Y1832860D02*
X21280950Y1832860D01*
X21376188Y1785240D01*
X21423807Y1737621D01*
X21471426Y1642383D01*
X21519045Y1451907D01*
X21519045Y1213812D01*
X21471426Y1023336D01*
X21423807Y928098D01*
X21376188Y880479D01*
X21280950Y832860D01*
X21185712Y832860D01*
X21090474Y880479D01*
X21042855Y928098D01*
X20995236Y1023336D01*
X20947617Y1213812D01*
X20947617Y1451907D01*
X20995236Y1642383D01*
X21042855Y1737621D01*
X21090474Y1785240D01*
X21185712Y1832860D01*
X22471426Y832860D02*
X21899998Y832860D01*
X22185712Y832860D02*
X22185712Y1832860D01*
X22090474Y1690002D01*
X21995236Y1594764D01*
X21899998Y1547145D01*
X22947617Y832860D02*
X23138093Y832860D01*
X23233331Y880479D01*
X23280950Y928098D01*
X23376188Y1070955D01*
X23423807Y1261431D01*
X23423807Y1642383D01*
X23376188Y1737621D01*
X23328569Y1785240D01*
X23233331Y1832860D01*
X23042855Y1832860D01*
X22947617Y1785240D01*
X22899998Y1737621D01*
X22852379Y1642383D01*
X22852379Y1404288D01*
X22899998Y1309050D01*
X22947617Y1261431D01*
X23042855Y1213812D01*
X23233331Y1213812D01*
X23328569Y1261431D01*
X23376188Y1309050D01*
X23423807Y1404288D01*
D11*
X23629668Y40347469D02*
X24201097Y40347469D01*
X23843954Y40847469D02*
X23843954Y39561755D01*
X23915382Y39418898D01*
X24058240Y39347469D01*
X24201097Y39347469D01*
X24915382Y39347469D02*
X24772525Y39418898D01*
X24701097Y39490326D01*
X24629668Y39633183D01*
X24629668Y40061755D01*
X24701097Y40204612D01*
X24772525Y40276040D01*
X24915382Y40347469D01*
X25129668Y40347469D01*
X25272525Y40276040D01*
X25343954Y40204612D01*
X25415382Y40061755D01*
X25415382Y39633183D01*
X25343954Y39490326D01*
X25272525Y39418898D01*
X25129668Y39347469D01*
X24915382Y39347469D01*
X26058240Y39347469D02*
X26058240Y40347469D01*
X26058240Y40204612D02*
X26129668Y40276040D01*
X26272525Y40347469D01*
X26486811Y40347469D01*
X26629668Y40276040D01*
X26701097Y40133183D01*
X26701097Y39347469D01*
X26701097Y40133183D02*
X26772525Y40276040D01*
X26915382Y40347469D01*
X27129668Y40347469D01*
X27272525Y40276040D01*
X27343954Y40133183D01*
X27343954Y39347469D01*
X28986811Y40061755D02*
X28915382Y40133183D01*
X28772525Y40204612D01*
X28629668Y40204612D01*
X28486811Y40133183D01*
X28415382Y40061755D01*
X28343954Y39918898D01*
X28343954Y39776040D01*
X28415382Y39633183D01*
X28486811Y39561755D01*
X28629668Y39490326D01*
X28772525Y39490326D01*
X28915382Y39561755D01*
X28986811Y39633183D01*
X28986811Y40204612D02*
X28986811Y39633183D01*
X29058240Y39561755D01*
X29129668Y39561755D01*
X29272525Y39633183D01*
X29343954Y39776040D01*
X29343954Y40133183D01*
X29201097Y40347469D01*
X28986811Y40490326D01*
X28701097Y40561755D01*
X28415382Y40490326D01*
X28201097Y40347469D01*
X28058240Y40133183D01*
X27986811Y39847469D01*
X28058240Y39561755D01*
X28201097Y39347469D01*
X28415382Y39204612D01*
X28701097Y39133183D01*
X28986811Y39204612D01*
X29201097Y39347469D01*
X22593954Y37897469D02*
X23165382Y37897469D01*
X22808240Y38397469D02*
X22808240Y37111755D01*
X22879668Y36968898D01*
X23022525Y36897469D01*
X23165382Y36897469D01*
X23879668Y36897469D02*
X23736811Y36968898D01*
X23665382Y37040326D01*
X23593954Y37183183D01*
X23593954Y37611755D01*
X23665382Y37754612D01*
X23736811Y37826040D01*
X23879668Y37897469D01*
X24093954Y37897469D01*
X24236811Y37826040D01*
X24308240Y37754612D01*
X24379668Y37611755D01*
X24379668Y37183183D01*
X24308240Y37040326D01*
X24236811Y36968898D01*
X24093954Y36897469D01*
X23879668Y36897469D01*
X25022525Y36897469D02*
X25022525Y37897469D01*
X25022525Y37754612D02*
X25093954Y37826040D01*
X25236811Y37897469D01*
X25451097Y37897469D01*
X25593954Y37826040D01*
X25665382Y37683183D01*
X25665382Y36897469D01*
X25665382Y37683183D02*
X25736811Y37826040D01*
X25879668Y37897469D01*
X26093954Y37897469D01*
X26236811Y37826040D01*
X26308240Y37683183D01*
X26308240Y36897469D01*
X27022525Y36897469D02*
X27022525Y38397469D01*
X27165382Y37468898D02*
X27593954Y36897469D01*
X27593954Y37897469D02*
X27022525Y37326040D01*
X28236811Y37040326D02*
X28308240Y36968898D01*
X28236811Y36897469D01*
X28165382Y36968898D01*
X28236811Y37040326D01*
X28236811Y36897469D01*
X28951097Y36897469D02*
X28951097Y37897469D01*
X28951097Y38397469D02*
X28879668Y38326040D01*
X28951097Y38254612D01*
X29022525Y38326040D01*
X28951097Y38397469D01*
X28951097Y38254612D01*
X29665382Y37897469D02*
X29665382Y36897469D01*
X29665382Y37754612D02*
X29736811Y37826040D01*
X29879668Y37897469D01*
X30093954Y37897469D01*
X30236811Y37826040D01*
X30308240Y37683183D01*
X30308240Y36897469D01*
D12*
X10927228Y13665012D02*
X12927228Y13665012D01*
X11022466Y13665012D02*
X10927228Y13855488D01*
X10927228Y14236440D01*
X11022466Y14426917D01*
X11117704Y14522155D01*
X11308180Y14617393D01*
X11879609Y14617393D01*
X12070085Y14522155D01*
X12165323Y14426917D01*
X12260561Y14236440D01*
X12260561Y13855488D01*
X12165323Y13665012D01*
X12260561Y15474536D02*
X10927228Y15474536D01*
X11117704Y15474536D02*
X11022466Y15569774D01*
X10927228Y15760250D01*
X10927228Y16045964D01*
X11022466Y16236440D01*
X11212942Y16331679D01*
X12260561Y16331679D01*
X11212942Y16331679D02*
X11022466Y16426917D01*
X10927228Y16617393D01*
X10927228Y16903107D01*
X11022466Y17093583D01*
X11212942Y17188821D01*
X12260561Y17188821D01*
X12260561Y18426917D02*
X12165323Y18236440D01*
X12070085Y18141202D01*
X11879609Y18045964D01*
X11308180Y18045964D01*
X11117704Y18141202D01*
X11022466Y18236440D01*
X10927228Y18426917D01*
X10927228Y18712631D01*
X11022466Y18903107D01*
X11117704Y18998345D01*
X11308180Y19093583D01*
X11879609Y19093583D01*
X12070085Y18998345D01*
X12165323Y18903107D01*
X12260561Y18712631D01*
X12260561Y18426917D01*
X12260561Y20807869D02*
X10260561Y20807869D01*
X12165323Y20807869D02*
X12260561Y20617393D01*
X12260561Y20236440D01*
X12165323Y20045964D01*
X12070085Y19950726D01*
X11879609Y19855488D01*
X11308180Y19855488D01*
X11117704Y19950726D01*
X11022466Y20045964D01*
X10927228Y20236440D01*
X10927228Y20617393D01*
X11022466Y20807869D01*
X14227228Y15950726D02*
X15560561Y15950726D01*
X14227228Y15093583D02*
X15274847Y15093583D01*
X15465323Y15188821D01*
X15560561Y15379298D01*
X15560561Y15665012D01*
X15465323Y15855488D01*
X15370085Y15950726D01*
X15465323Y16807869D02*
X15560561Y16998345D01*
X15560561Y17379298D01*
X15465323Y17569774D01*
X15274847Y17665012D01*
X15179609Y17665012D01*
X14989133Y17569774D01*
X14893895Y17379298D01*
X14893895Y17093583D01*
X14798657Y16903107D01*
X14608180Y16807869D01*
X14512942Y16807869D01*
X14322466Y16903107D01*
X14227228Y17093583D01*
X14227228Y17379298D01*
X14322466Y17569774D01*
X15560561Y18522155D02*
X13560561Y18522155D01*
X14322466Y18522155D02*
X14227228Y18712631D01*
X14227228Y19093583D01*
X14322466Y19284060D01*
X14417704Y19379298D01*
X14608180Y19474536D01*
X15179609Y19474536D01*
X15370085Y19379298D01*
X15465323Y19284060D01*
X15560561Y19093583D01*
X15560561Y18712631D01*
X15465323Y18522155D01*
X18860561Y12284060D02*
X17812942Y12284060D01*
X17622466Y12188821D01*
X17527228Y11998345D01*
X17527228Y11617393D01*
X17622466Y11426917D01*
X18765323Y12284060D02*
X18860561Y12093583D01*
X18860561Y11617393D01*
X18765323Y11426917D01*
X18574847Y11331679D01*
X18384371Y11331679D01*
X18193895Y11426917D01*
X18098657Y11617393D01*
X18098657Y12093583D01*
X18003419Y12284060D01*
X17527228Y13236440D02*
X18860561Y13236440D01*
X17717704Y13236440D02*
X17622466Y13331679D01*
X17527228Y13522155D01*
X17527228Y13807869D01*
X17622466Y13998345D01*
X17812942Y14093583D01*
X18860561Y14093583D01*
X18860561Y15903107D02*
X17812942Y15903107D01*
X17622466Y15807869D01*
X17527228Y15617393D01*
X17527228Y15236440D01*
X17622466Y15045964D01*
X18765323Y15903107D02*
X18860561Y15712631D01*
X18860561Y15236440D01*
X18765323Y15045964D01*
X18574847Y14950726D01*
X18384371Y14950726D01*
X18193895Y15045964D01*
X18098657Y15236440D01*
X18098657Y15712631D01*
X18003419Y15903107D01*
X18860561Y17141202D02*
X18765323Y16950726D01*
X18574847Y16855488D01*
X16860561Y16855488D01*
X17527228Y17712631D02*
X18860561Y18188821D01*
X17527228Y18665012D02*
X18860561Y18188821D01*
X19336752Y17998345D01*
X19431990Y17903107D01*
X19527228Y17712631D01*
X18765323Y19331679D02*
X18860561Y19522155D01*
X18860561Y19903107D01*
X18765323Y20093583D01*
X18574847Y20188821D01*
X18479609Y20188821D01*
X18289133Y20093583D01*
X18193895Y19903107D01*
X18193895Y19617393D01*
X18098657Y19426917D01*
X17908180Y19331679D01*
X17812942Y19331679D01*
X17622466Y19426917D01*
X17527228Y19617393D01*
X17527228Y19903107D01*
X17622466Y20093583D01*
X18765323Y21807869D02*
X18860561Y21617393D01*
X18860561Y21236440D01*
X18765323Y21045964D01*
X18574847Y20950726D01*
X17812942Y20950726D01*
X17622466Y21045964D01*
X17527228Y21236440D01*
X17527228Y21617393D01*
X17622466Y21807869D01*
X17812942Y21903107D01*
X18003419Y21903107D01*
X18193895Y20950726D01*
X18860561Y22760250D02*
X17527228Y22760250D01*
X17908180Y22760250D02*
X17717704Y22855488D01*
X17622466Y22950726D01*
X17527228Y23141202D01*
X17527228Y23331679D01*
D13*
X21331580Y25463080D02*
X21331580Y23463080D01*
X19191580Y23463080D02*
X19191580Y25463080D01*
X11809986Y10233278D02*
X10395772Y8819064D01*
X8882564Y10332272D02*
X10296778Y11746486D01*
D14*
X23994998Y16211982D02*
X16188280Y16211982D01*
X27435560Y2517979D02*
X30442280Y2517979D01*
X16188280Y2517979D02*
X23994998Y2517979D01*
X16188280Y16211982D02*
X16188280Y2517979D01*
X30442280Y16211982D02*
X27435560Y16211982D01*
X30442280Y2517979D02*
X30442280Y16211982D01*
D13*
X22170580Y18077080D02*
X22670580Y18077080D01*
X22670580Y19017080D02*
X22170580Y19017080D01*
D11*
X21758080Y32309080D02*
G75*
G03X21758080Y32309080I-100000J0D01*
G01*
D15*
X23738080Y32029080D02*
X24278080Y32029080D01*
X24278080Y34529080D02*
X23738080Y34529080D01*
D14*
X20917179Y31691580D02*
X20917179Y32072580D01*
X21171179Y31691580D02*
X20917179Y31691580D01*
X21171179Y32072580D02*
X21171179Y31691580D01*
X20917179Y32072580D02*
X21171179Y32072580D01*
X15668981Y32199580D02*
X15668981Y32580580D01*
X15414981Y32199580D02*
X15668981Y32199580D01*
X15414981Y32580580D02*
X15414981Y32199580D01*
X15668981Y32580580D02*
X15414981Y32580580D01*
X20401280Y34379220D02*
X20401280Y34752280D01*
X20028220Y30535880D02*
X20401280Y30535880D01*
X16184880Y30908940D02*
X16184880Y30535880D01*
X16557940Y34752280D02*
X16184880Y34752280D01*
X20401280Y34752280D02*
X20028220Y34752280D01*
X20401280Y30535880D02*
X20401280Y30908940D01*
X16184880Y30535880D02*
X16557940Y30535880D01*
X16184880Y34752280D02*
X16184880Y34379220D01*
D13*
X3938080Y21744080D02*
X3438080Y21744080D01*
X3438080Y20684080D02*
X3938080Y20684080D01*
X10016080Y4319080D02*
X10016080Y3819080D01*
X11076080Y3819080D02*
X11076080Y4319080D01*
X26653080Y33529080D02*
X26653080Y33029080D01*
X27713080Y33029080D02*
X27713080Y33529080D01*
X21853080Y30209080D02*
X22353080Y30209080D01*
X22353080Y31269080D02*
X21853080Y31269080D01*
X23458580Y26425080D02*
X23458580Y26925080D01*
X22398580Y26925080D02*
X22398580Y26425080D01*
X14098080Y10568080D02*
X13598080Y10568080D01*
X13598080Y9508080D02*
X14098080Y9508080D01*
X14098080Y9425080D02*
X13598080Y9425080D01*
X13598080Y8365080D02*
X14098080Y8365080D01*
D16*
X-2026920Y259080D02*
X-2026920Y9149080D01*
X-2026920Y9149080D02*
X-2026920Y18039080D01*
X-756920Y7879080D02*
X-2026920Y9149080D01*
X-2026920Y9149080D02*
X-756920Y10419080D01*
D17*
X7123080Y16749080D02*
G75*
G03X7123080Y16749080I-200000J0D01*
G01*
D16*
X-2026920Y23119080D02*
X-2026920Y32009080D01*
X-2026920Y32009080D02*
X-2026920Y40899080D01*
X-756920Y30739080D02*
X-2026920Y32009080D01*
X-2026920Y32009080D02*
X-756920Y33279080D01*
D17*
X7123080Y39609080D02*
G75*
G03X7123080Y39609080I-200000J0D01*
G01*
D13*
X2738080Y23569080D02*
X2738080Y22669080D01*
X2738080Y22669080D02*
X4188080Y22669080D01*
X2738080Y23569080D02*
X4188080Y23569080D01*
X11620080Y3119080D02*
X12520080Y3119080D01*
X12520080Y3119080D02*
X12520080Y4569080D01*
X11620080Y3119080D02*
X11620080Y4569080D01*
X29126080Y31116080D02*
X29126080Y30616080D01*
X30066080Y30616080D02*
X30066080Y31116080D01*
X29338080Y34384080D02*
X28838080Y34384080D01*
X28838080Y33444080D02*
X29338080Y33444080D01*
X29338080Y33114080D02*
X28838080Y33114080D01*
X28838080Y32174080D02*
X29338080Y32174080D01*
X23758080Y30269080D02*
X24258080Y30269080D01*
X24258080Y31209080D02*
X23758080Y31209080D01*
X12328080Y34079080D02*
X12828080Y34079080D01*
X12828080Y35019080D02*
X12328080Y35019080D01*
X12328080Y33063080D02*
X12828080Y33063080D01*
X12828080Y34003080D02*
X12328080Y34003080D01*
X18763080Y27949080D02*
X18763080Y28449080D01*
X17823080Y28449080D02*
X17823080Y27949080D01*
X20363080Y36704080D02*
X20363080Y36204080D01*
X21303080Y36204080D02*
X21303080Y36704080D01*
X15715080Y3692080D02*
X15715080Y4192080D01*
X14775080Y4192080D02*
X14775080Y3692080D01*
X21303080Y27949080D02*
X21303080Y28449080D01*
X20363080Y28449080D02*
X20363080Y27949080D01*
X13121080Y3592080D02*
X13121080Y4292080D01*
X14321080Y4292080D02*
X14321080Y3592080D01*
X20033080Y27949080D02*
X20033080Y28449080D01*
X19093080Y28449080D02*
X19093080Y27949080D01*
D10*
X18863960Y24296414D02*
X18387770Y23963080D01*
X18863960Y23724985D02*
X17863960Y23724985D01*
X17863960Y24105938D01*
X17911580Y24201176D01*
X17959199Y24248795D01*
X18054437Y24296414D01*
X18197294Y24296414D01*
X18292532Y24248795D01*
X18340151Y24201176D01*
X18387770Y24105938D01*
X18387770Y23724985D01*
X18863960Y24772604D02*
X18863960Y24963080D01*
X18816341Y25058319D01*
X18768722Y25105938D01*
X18625865Y25201176D01*
X18435389Y25248795D01*
X18054437Y25248795D01*
X17959199Y25201176D01*
X17911580Y25153557D01*
X17863960Y25058319D01*
X17863960Y24867842D01*
X17911580Y24772604D01*
X17959199Y24724985D01*
X18054437Y24677366D01*
X18292532Y24677366D01*
X18387770Y24724985D01*
X18435389Y24772604D01*
X18483008Y24867842D01*
X18483008Y25058319D01*
X18435389Y25153557D01*
X18387770Y25201176D01*
X18292532Y25248795D01*
X9240157Y11153191D02*
X8667737Y11254206D01*
X8836096Y10749130D02*
X8128989Y11456236D01*
X8398363Y11725611D01*
X8499378Y11759282D01*
X8566722Y11759282D01*
X8667737Y11725611D01*
X8768752Y11624595D01*
X8802424Y11523580D01*
X8802424Y11456236D01*
X8768752Y11355221D01*
X8499378Y11085847D01*
X9240157Y11961313D02*
X9139142Y11927641D01*
X9071798Y11927641D01*
X8970783Y11961313D01*
X8937111Y11994985D01*
X8903439Y12096000D01*
X8903439Y12163343D01*
X8937111Y12264359D01*
X9071798Y12399046D01*
X9172814Y12432717D01*
X9240157Y12432717D01*
X9341172Y12399046D01*
X9374844Y12365374D01*
X9408516Y12264359D01*
X9408516Y12197015D01*
X9374844Y12096000D01*
X9240157Y11961313D01*
X9206485Y11860298D01*
X9206485Y11792954D01*
X9240157Y11691939D01*
X9374844Y11557252D01*
X9475859Y11523580D01*
X9543203Y11523580D01*
X9644218Y11557252D01*
X9778905Y11691939D01*
X9812577Y11792954D01*
X9812577Y11860298D01*
X9778905Y11961313D01*
X9644218Y12096000D01*
X9543203Y12129672D01*
X9475859Y12129672D01*
X9374844Y12096000D01*
X27664160Y1043347D02*
X28378446Y1043347D01*
X28521303Y995728D01*
X28616541Y900490D01*
X28664160Y757633D01*
X28664160Y662395D01*
X27664160Y1424300D02*
X27664160Y2043347D01*
X28045113Y1710014D01*
X28045113Y1852871D01*
X28092732Y1948109D01*
X28140351Y1995728D01*
X28235589Y2043347D01*
X28473684Y2043347D01*
X28568922Y1995728D01*
X28616541Y1948109D01*
X28664160Y1852871D01*
X28664160Y1567157D01*
X28616541Y1471919D01*
X28568922Y1424300D01*
X15767660Y7293552D02*
X16577184Y7293552D01*
X16672422Y7341171D01*
X16720041Y7388790D01*
X16767660Y7484028D01*
X16767660Y7674504D01*
X16720041Y7769742D01*
X16672422Y7817361D01*
X16577184Y7864980D01*
X15767660Y7864980D01*
X16720041Y8293552D02*
X16767660Y8436409D01*
X16767660Y8674504D01*
X16720041Y8769742D01*
X16672422Y8817361D01*
X16577184Y8864980D01*
X16481946Y8864980D01*
X16386708Y8817361D01*
X16339089Y8769742D01*
X16291470Y8674504D01*
X16243851Y8484028D01*
X16196232Y8388790D01*
X16148613Y8341171D01*
X16053375Y8293552D01*
X15958137Y8293552D01*
X15862899Y8341171D01*
X15815280Y8388790D01*
X15767660Y8484028D01*
X15767660Y8722123D01*
X15815280Y8864980D01*
X16243851Y9626885D02*
X16291470Y9769742D01*
X16339089Y9817361D01*
X16434327Y9864980D01*
X16577184Y9864980D01*
X16672422Y9817361D01*
X16720041Y9769742D01*
X16767660Y9674504D01*
X16767660Y9293552D01*
X15767660Y9293552D01*
X15767660Y9626885D01*
X15815280Y9722123D01*
X15862899Y9769742D01*
X15958137Y9817361D01*
X16053375Y9817361D01*
X16148613Y9769742D01*
X16196232Y9722123D01*
X16243851Y9626885D01*
X16243851Y9293552D01*
X16862899Y10055457D02*
X16862899Y10817361D01*
X16481946Y11007838D02*
X16481946Y11484028D01*
X16767660Y10912600D02*
X15767660Y11245933D01*
X16767660Y11579266D01*
X22780287Y9356925D02*
X23018383Y9356925D01*
X22923145Y9118830D02*
X23018383Y9356925D01*
X22923145Y9595021D01*
X23208859Y9214068D02*
X23018383Y9356925D01*
X23208859Y9499783D01*
X21777722Y16919938D02*
X21730103Y16872319D01*
X21587246Y16824700D01*
X21492008Y16824700D01*
X21349151Y16872319D01*
X21253913Y16967557D01*
X21206294Y17062795D01*
X21158675Y17253271D01*
X21158675Y17396128D01*
X21206294Y17586604D01*
X21253913Y17681842D01*
X21349151Y17777080D01*
X21492008Y17824700D01*
X21587246Y17824700D01*
X21730103Y17777080D01*
X21777722Y17729461D01*
X22730103Y16824700D02*
X22158675Y16824700D01*
X22444389Y16824700D02*
X22444389Y17824700D01*
X22349151Y17681842D01*
X22253913Y17586604D01*
X22158675Y17538985D01*
X23111056Y17729461D02*
X23158675Y17777080D01*
X23253913Y17824700D01*
X23492008Y17824700D01*
X23587246Y17777080D01*
X23634865Y17729461D01*
X23682484Y17634223D01*
X23682484Y17538985D01*
X23634865Y17396128D01*
X23063437Y16824700D01*
X23682484Y16824700D01*
D18*
X22946526Y35399663D02*
X22946526Y35170621D01*
X22786197Y35651608D02*
X22946526Y35399663D01*
X23106855Y35651608D01*
X23519130Y35170621D02*
X23244280Y35170621D01*
X23381705Y35170621D02*
X23381705Y35651608D01*
X23335897Y35582896D01*
X23290088Y35537087D01*
X23244280Y35514183D01*
X18675323Y31215550D02*
X18835526Y31215550D01*
X18904184Y30963802D02*
X18675323Y30963802D01*
X18675323Y31444411D01*
X18904184Y31444411D01*
X19384793Y31009574D02*
X19361907Y30986688D01*
X19293248Y30963802D01*
X19247476Y30963802D01*
X19178818Y30986688D01*
X19133045Y31032461D01*
X19110159Y31078233D01*
X19087273Y31169777D01*
X19087273Y31238436D01*
X19110159Y31329980D01*
X19133045Y31375753D01*
X19178818Y31421525D01*
X19247476Y31444411D01*
X19293248Y31444411D01*
X19361907Y31421525D01*
X19384793Y31398639D01*
X19567882Y30986688D02*
X19636541Y30963802D01*
X19750971Y30963802D01*
X19796744Y30986688D01*
X19819630Y31009574D01*
X19842516Y31055347D01*
X19842516Y31101119D01*
X19819630Y31146891D01*
X19796744Y31169777D01*
X19750971Y31192664D01*
X19659427Y31215550D01*
X19613654Y31238436D01*
X19590768Y31261322D01*
X19567882Y31307094D01*
X19567882Y31352867D01*
X19590768Y31398639D01*
X19613654Y31421525D01*
X19659427Y31444411D01*
X19773857Y31444411D01*
X19842516Y31421525D01*
X20048491Y31146891D02*
X20414669Y31146891D01*
X20620645Y31398639D02*
X20643531Y31421525D01*
X20689303Y31444411D01*
X20803734Y31444411D01*
X20849506Y31421525D01*
X20872392Y31398639D01*
X20895278Y31352867D01*
X20895278Y31307094D01*
X20872392Y31238436D01*
X20597759Y30963802D01*
X20895278Y30963802D01*
X21307229Y31444411D02*
X21215684Y31444411D01*
X21169912Y31421525D01*
X21147026Y31398639D01*
X21101254Y31329980D01*
X21078368Y31238436D01*
X21078368Y31055347D01*
X21101254Y31009574D01*
X21124140Y30986688D01*
X21169912Y30963802D01*
X21261457Y30963802D01*
X21307229Y30986688D01*
X21330115Y31009574D01*
X21353001Y31055347D01*
X21353001Y31169777D01*
X21330115Y31215550D01*
X21307229Y31238436D01*
X21261457Y31261322D01*
X21169912Y31261322D01*
X21124140Y31238436D01*
X21101254Y31215550D01*
X21078368Y31169777D01*
X21650521Y31444411D02*
X21696293Y31444411D01*
X21742066Y31421525D01*
X21764952Y31398639D01*
X21787838Y31352867D01*
X21810724Y31261322D01*
X21810724Y31146891D01*
X21787838Y31055347D01*
X21764952Y31009574D01*
X21742066Y30986688D01*
X21696293Y30963802D01*
X21650521Y30963802D01*
X21604749Y30986688D01*
X21581863Y31009574D01*
X21558977Y31055347D01*
X21536090Y31146891D01*
X21536090Y31261322D01*
X21558977Y31352867D01*
X21581863Y31398639D01*
X21604749Y31421525D01*
X21650521Y31444411D01*
X22016699Y31146891D02*
X22382878Y31146891D01*
X22863487Y30963802D02*
X22588853Y30963802D01*
X22726170Y30963802D02*
X22726170Y31444411D01*
X22680398Y31375753D01*
X22634625Y31329980D01*
X22588853Y31307094D01*
X23138120Y31238436D02*
X23092348Y31261322D01*
X23069462Y31284208D01*
X23046576Y31329980D01*
X23046576Y31352867D01*
X23069462Y31398639D01*
X23092348Y31421525D01*
X23138120Y31444411D01*
X23229665Y31444411D01*
X23275437Y31421525D01*
X23298323Y31398639D01*
X23321210Y31352867D01*
X23321210Y31329980D01*
X23298323Y31284208D01*
X23275437Y31261322D01*
X23229665Y31238436D01*
X23138120Y31238436D01*
X23092348Y31215550D01*
X23069462Y31192664D01*
X23046576Y31146891D01*
X23046576Y31055347D01*
X23069462Y31009574D01*
X23092348Y30986688D01*
X23138120Y30963802D01*
X23229665Y30963802D01*
X23275437Y30986688D01*
X23298323Y31009574D01*
X23321210Y31055347D01*
X23321210Y31146891D01*
X23298323Y31192664D01*
X23275437Y31215550D01*
X23229665Y31238436D01*
X23527185Y31146891D02*
X23893363Y31146891D01*
X24076452Y31444411D02*
X24373972Y31444411D01*
X24213769Y31261322D01*
X24282428Y31261322D01*
X24328200Y31238436D01*
X24351086Y31215550D01*
X24373972Y31169777D01*
X24373972Y31055347D01*
X24351086Y31009574D01*
X24328200Y30986688D01*
X24282428Y30963802D01*
X24145111Y30963802D01*
X24099338Y30986688D01*
X24076452Y31009574D01*
X24534175Y31444411D02*
X24831695Y31444411D01*
X24671492Y31261322D01*
X24740150Y31261322D01*
X24785923Y31238436D01*
X24808809Y31215550D01*
X24831695Y31169777D01*
X24831695Y31055347D01*
X24808809Y31009574D01*
X24785923Y30986688D01*
X24740150Y30963802D01*
X24602834Y30963802D01*
X24557061Y30986688D01*
X24534175Y31009574D01*
X25037670Y31146891D02*
X25403849Y31146891D01*
X25609824Y31101119D02*
X25838685Y31101119D01*
X25564052Y30963802D02*
X25724255Y31444411D01*
X25884458Y30963802D01*
X26296408Y31421525D02*
X26250636Y31444411D01*
X26181977Y31444411D01*
X26113319Y31421525D01*
X26067547Y31375753D01*
X26044661Y31329980D01*
X26021774Y31238436D01*
X26021774Y31169777D01*
X26044661Y31078233D01*
X26067547Y31032461D01*
X26113319Y30986688D01*
X26181977Y30963802D01*
X26227750Y30963802D01*
X26296408Y30986688D01*
X26319294Y31009574D01*
X26319294Y31169777D01*
X26227750Y31169777D01*
X26525270Y30963802D02*
X26525270Y31444411D01*
X26685473Y31101119D01*
X26845676Y31444411D01*
X26845676Y30963802D01*
X27074537Y31146891D02*
X27440715Y31146891D01*
X27600918Y31444411D02*
X27875552Y31444411D01*
X27738235Y30963802D02*
X27738235Y31444411D01*
X28310389Y30963802D02*
X28150186Y31192664D01*
X28035755Y30963802D02*
X28035755Y31444411D01*
X28218844Y31444411D01*
X28264616Y31421525D01*
X28287503Y31398639D01*
X28310389Y31352867D01*
X28310389Y31284208D01*
X28287503Y31238436D01*
X28264616Y31215550D01*
X28218844Y31192664D01*
X28035755Y31192664D01*
D10*
X17435580Y35610896D02*
X18245104Y35610896D01*
X18340342Y35658515D01*
X18387961Y35706134D01*
X18435580Y35801372D01*
X18435580Y35991848D01*
X18387961Y36087086D01*
X18340342Y36134705D01*
X18245104Y36182324D01*
X17435580Y36182324D01*
X18435580Y37182324D02*
X18435580Y36610896D01*
X18435580Y36896610D02*
X17435580Y36896610D01*
X17578438Y36801372D01*
X17673676Y36706134D01*
X17721295Y36610896D01*
X17745460Y26358366D02*
X18554984Y26358366D01*
X18650222Y26405985D01*
X18697841Y26453604D01*
X18745460Y26548842D01*
X18745460Y26739319D01*
X18697841Y26834557D01*
X18650222Y26882176D01*
X18554984Y26929795D01*
X17745460Y26929795D01*
X18697841Y27358366D02*
X18745460Y27501223D01*
X18745460Y27739319D01*
X18697841Y27834557D01*
X18650222Y27882176D01*
X18554984Y27929795D01*
X18459746Y27929795D01*
X18364508Y27882176D01*
X18316889Y27834557D01*
X18269270Y27739319D01*
X18221651Y27548842D01*
X18174032Y27453604D01*
X18126413Y27405985D01*
X18031175Y27358366D01*
X17935937Y27358366D01*
X17840699Y27405985D01*
X17793080Y27453604D01*
X17745460Y27548842D01*
X17745460Y27786938D01*
X17793080Y27929795D01*
X18221651Y28691700D02*
X18269270Y28834557D01*
X18316889Y28882176D01*
X18412127Y28929795D01*
X18554984Y28929795D01*
X18650222Y28882176D01*
X18697841Y28834557D01*
X18745460Y28739319D01*
X18745460Y28358366D01*
X17745460Y28358366D01*
X17745460Y28691700D01*
X17793080Y28786938D01*
X17840699Y28834557D01*
X17935937Y28882176D01*
X18031175Y28882176D01*
X18126413Y28834557D01*
X18174032Y28786938D01*
X18221651Y28691700D01*
X18221651Y28358366D01*
X17745460Y29263128D02*
X17745460Y29882176D01*
X18126413Y29548842D01*
X18126413Y29691700D01*
X18174032Y29786938D01*
X18221651Y29834557D01*
X18316889Y29882176D01*
X18554984Y29882176D01*
X18650222Y29834557D01*
X18697841Y29786938D01*
X18745460Y29691700D01*
X18745460Y29405985D01*
X18697841Y29310747D01*
X18650222Y29263128D01*
X17745460Y30215509D02*
X17745460Y30834557D01*
X18126413Y30501223D01*
X18126413Y30644080D01*
X18174032Y30739319D01*
X18221651Y30786938D01*
X18316889Y30834557D01*
X18554984Y30834557D01*
X18650222Y30786938D01*
X18697841Y30739319D01*
X18745460Y30644080D01*
X18745460Y30358366D01*
X18697841Y30263128D01*
X18650222Y30215509D01*
X18078794Y31691700D02*
X18745460Y31691700D01*
X17697841Y31453604D02*
X18412127Y31215509D01*
X18412127Y31834557D01*
X17745460Y32120271D02*
X17745460Y32739319D01*
X18126413Y32405985D01*
X18126413Y32548842D01*
X18174032Y32644080D01*
X18221651Y32691700D01*
X18316889Y32739319D01*
X18554984Y32739319D01*
X18650222Y32691700D01*
X18697841Y32644080D01*
X18745460Y32548842D01*
X18745460Y32263128D01*
X18697841Y32167890D01*
X18650222Y32120271D01*
X18364508Y33167890D02*
X18364508Y33929795D01*
X18650222Y34977414D02*
X18697841Y34929795D01*
X18745460Y34786938D01*
X18745460Y34691700D01*
X18697841Y34548842D01*
X18602603Y34453604D01*
X18507365Y34405985D01*
X18316889Y34358366D01*
X18174032Y34358366D01*
X17983556Y34405985D01*
X17888318Y34453604D01*
X17793080Y34548842D01*
X17745460Y34691700D01*
X17745460Y34786938D01*
X17793080Y34929795D01*
X17840699Y34977414D01*
X18745460Y35405985D02*
X17745460Y35405985D01*
X17745460Y35786938D01*
X17793080Y35882176D01*
X17840699Y35929795D01*
X17935937Y35977414D01*
X18078794Y35977414D01*
X18174032Y35929795D01*
X18221651Y35882176D01*
X18269270Y35786938D01*
X18269270Y35405985D01*
X18364508Y36405985D02*
X18364508Y37167890D01*
X17745460Y37501223D02*
X17745460Y38072652D01*
X18745460Y37786938D02*
X17745460Y37786938D01*
X18745460Y38977414D02*
X18269270Y38644080D01*
X18745460Y38405985D02*
X17745460Y38405985D01*
X17745460Y38786938D01*
X17793080Y38882176D01*
X17840699Y38929795D01*
X17935937Y38977414D01*
X18078794Y38977414D01*
X18174032Y38929795D01*
X18221651Y38882176D01*
X18269270Y38786938D01*
X18269270Y38405985D01*
X19269460Y35649179D02*
X19507556Y35649179D01*
X19412318Y35411084D02*
X19507556Y35649179D01*
X19412318Y35887275D01*
X19698032Y35506322D02*
X19507556Y35649179D01*
X19698032Y35792037D01*
X1197313Y20749000D02*
X863980Y21225190D01*
X625884Y20749000D02*
X625884Y21749000D01*
X1006837Y21749000D01*
X1102075Y21701380D01*
X1149694Y21653761D01*
X1197313Y21558523D01*
X1197313Y21415666D01*
X1149694Y21320428D01*
X1102075Y21272809D01*
X1006837Y21225190D01*
X625884Y21225190D01*
X1530646Y21749000D02*
X2197313Y21749000D01*
X1768741Y20749000D01*
X9648460Y3902414D02*
X9172270Y3569080D01*
X9648460Y3330985D02*
X8648460Y3330985D01*
X8648460Y3711938D01*
X8696080Y3807176D01*
X8743699Y3854795D01*
X8838937Y3902414D01*
X8981794Y3902414D01*
X9077032Y3854795D01*
X9124651Y3807176D01*
X9172270Y3711938D01*
X9172270Y3330985D01*
X8648460Y4759557D02*
X8648460Y4569080D01*
X8696080Y4473842D01*
X8743699Y4426223D01*
X8886556Y4330985D01*
X9077032Y4283366D01*
X9457984Y4283366D01*
X9553222Y4330985D01*
X9600841Y4378604D01*
X9648460Y4473842D01*
X9648460Y4664319D01*
X9600841Y4759557D01*
X9553222Y4807176D01*
X9457984Y4854795D01*
X9219889Y4854795D01*
X9124651Y4807176D01*
X9077032Y4759557D01*
X9029413Y4664319D01*
X9029413Y4473842D01*
X9077032Y4378604D01*
X9124651Y4330985D01*
X9219889Y4283366D01*
X27178260Y34986934D02*
X26702070Y34653600D01*
X27178260Y34415505D02*
X26178260Y34415505D01*
X26178260Y34796458D01*
X26225880Y34891696D01*
X26273499Y34939315D01*
X26368737Y34986934D01*
X26511594Y34986934D01*
X26606832Y34939315D01*
X26654451Y34891696D01*
X26702070Y34796458D01*
X26702070Y34415505D01*
X26178260Y35891696D02*
X26178260Y35415505D01*
X26654451Y35367886D01*
X26606832Y35415505D01*
X26559213Y35510743D01*
X26559213Y35748839D01*
X26606832Y35844077D01*
X26654451Y35891696D01*
X26749689Y35939315D01*
X26987784Y35939315D01*
X27083022Y35891696D01*
X27130641Y35844077D01*
X27178260Y35748839D01*
X27178260Y35510743D01*
X27130641Y35415505D01*
X27083022Y35367886D01*
X22129453Y29113220D02*
X21796120Y29589410D01*
X21558024Y29113220D02*
X21558024Y30113220D01*
X21938977Y30113220D01*
X22034215Y30065600D01*
X22081834Y30017981D01*
X22129453Y29922743D01*
X22129453Y29779886D01*
X22081834Y29684648D01*
X22034215Y29637029D01*
X21938977Y29589410D01*
X21558024Y29589410D01*
X22986596Y29779886D02*
X22986596Y29113220D01*
X22748500Y30160839D02*
X22510405Y29446553D01*
X23129453Y29446553D01*
X23393660Y24705014D02*
X22917470Y24371680D01*
X23393660Y24133585D02*
X22393660Y24133585D01*
X22393660Y24514538D01*
X22441280Y24609776D01*
X22488899Y24657395D01*
X22584137Y24705014D01*
X22726994Y24705014D01*
X22822232Y24657395D01*
X22869851Y24609776D01*
X22917470Y24514538D01*
X22917470Y24133585D01*
X22393660Y25038347D02*
X22393660Y25657395D01*
X22774613Y25324061D01*
X22774613Y25466919D01*
X22822232Y25562157D01*
X22869851Y25609776D01*
X22965089Y25657395D01*
X23203184Y25657395D01*
X23298422Y25609776D01*
X23346041Y25562157D01*
X23393660Y25466919D01*
X23393660Y25181204D01*
X23346041Y25085966D01*
X23298422Y25038347D01*
X13681413Y10935700D02*
X13348080Y11411890D01*
X13109984Y10935700D02*
X13109984Y11935700D01*
X13490937Y11935700D01*
X13586175Y11888080D01*
X13633794Y11840461D01*
X13681413Y11745223D01*
X13681413Y11602366D01*
X13633794Y11507128D01*
X13586175Y11459509D01*
X13490937Y11411890D01*
X13109984Y11411890D01*
X14062365Y11840461D02*
X14109984Y11888080D01*
X14205222Y11935700D01*
X14443318Y11935700D01*
X14538556Y11888080D01*
X14586175Y11840461D01*
X14633794Y11745223D01*
X14633794Y11649985D01*
X14586175Y11507128D01*
X14014746Y10935700D01*
X14633794Y10935700D01*
X13694113Y6994900D02*
X13360780Y7471090D01*
X13122684Y6994900D02*
X13122684Y7994900D01*
X13503637Y7994900D01*
X13598875Y7947280D01*
X13646494Y7899661D01*
X13694113Y7804423D01*
X13694113Y7661566D01*
X13646494Y7566328D01*
X13598875Y7518709D01*
X13503637Y7471090D01*
X13122684Y7471090D01*
X14646494Y6994900D02*
X14075065Y6994900D01*
X14360780Y6994900D02*
X14360780Y7994900D01*
X14265541Y7852042D01*
X14170303Y7756804D01*
X14075065Y7709185D01*
X7829300Y15069227D02*
X8543586Y15069227D01*
X8686443Y15021608D01*
X8781681Y14926370D01*
X8829300Y14783513D01*
X8829300Y14688275D01*
X7924539Y15497799D02*
X7876920Y15545418D01*
X7829300Y15640656D01*
X7829300Y15878751D01*
X7876920Y15973989D01*
X7924539Y16021608D01*
X8019777Y16069227D01*
X8115015Y16069227D01*
X8257872Y16021608D01*
X8829300Y15450180D01*
X8829300Y16069227D01*
X7585460Y38025747D02*
X8299746Y38025747D01*
X8442603Y37978128D01*
X8537841Y37882890D01*
X8585460Y37740033D01*
X8585460Y37644795D01*
X8585460Y39025747D02*
X8585460Y38454319D01*
X8585460Y38740033D02*
X7585460Y38740033D01*
X7728318Y38644795D01*
X7823556Y38549557D01*
X7871175Y38454319D01*
X600484Y22679400D02*
X600484Y23679400D01*
X838580Y23679400D01*
X981437Y23631780D01*
X1076675Y23536542D01*
X1124294Y23441304D01*
X1171913Y23250828D01*
X1171913Y23107971D01*
X1124294Y22917495D01*
X1076675Y22822257D01*
X981437Y22727019D01*
X838580Y22679400D01*
X600484Y22679400D01*
X1552865Y23584161D02*
X1600484Y23631780D01*
X1695722Y23679400D01*
X1933818Y23679400D01*
X2029056Y23631780D01*
X2076675Y23584161D01*
X2124294Y23488923D01*
X2124294Y23393685D01*
X2076675Y23250828D01*
X1505246Y22679400D01*
X2124294Y22679400D01*
X12573260Y803685D02*
X11573260Y803685D01*
X11573260Y1041780D01*
X11620880Y1184638D01*
X11716118Y1279876D01*
X11811356Y1327495D01*
X12001832Y1375114D01*
X12144689Y1375114D01*
X12335165Y1327495D01*
X12430403Y1279876D01*
X12525641Y1184638D01*
X12573260Y1041780D01*
X12573260Y803685D01*
X12573260Y2327495D02*
X12573260Y1756066D01*
X12573260Y2041780D02*
X11573260Y2041780D01*
X11716118Y1946542D01*
X11811356Y1851304D01*
X11858975Y1756066D01*
X30786342Y27673063D02*
X30833961Y27625444D01*
X30881580Y27482587D01*
X30881580Y27387349D01*
X30833961Y27244492D01*
X30738723Y27149254D01*
X30643485Y27101635D01*
X30453009Y27054016D01*
X30310152Y27054016D01*
X30119676Y27101635D01*
X30024438Y27149254D01*
X29929200Y27244492D01*
X29881580Y27387349D01*
X29881580Y27482587D01*
X29929200Y27625444D01*
X29976819Y27673063D01*
X30881580Y28625444D02*
X30881580Y28054016D01*
X30881580Y28339730D02*
X29881580Y28339730D01*
X30024438Y28244492D01*
X30119676Y28149254D01*
X30167295Y28054016D01*
X29881580Y28958778D02*
X29881580Y29577825D01*
X30262533Y29244492D01*
X30262533Y29387349D01*
X30310152Y29482587D01*
X30357771Y29530206D01*
X30453009Y29577825D01*
X30691104Y29577825D01*
X30786342Y29530206D01*
X30833961Y29482587D01*
X30881580Y29387349D01*
X30881580Y29101635D01*
X30833961Y29006397D01*
X30786342Y28958778D01*
X28435062Y34872658D02*
X28387443Y34825039D01*
X28244586Y34777420D01*
X28149348Y34777420D01*
X28006491Y34825039D01*
X27911253Y34920277D01*
X27863634Y35015515D01*
X27816015Y35205991D01*
X27816015Y35348848D01*
X27863634Y35539324D01*
X27911253Y35634562D01*
X28006491Y35729800D01*
X28149348Y35777420D01*
X28244586Y35777420D01*
X28387443Y35729800D01*
X28435062Y35682181D01*
X29387443Y34777420D02*
X28816015Y34777420D01*
X29101729Y34777420D02*
X29101729Y35777420D01*
X29006491Y35634562D01*
X28911253Y35539324D01*
X28816015Y35491705D01*
X30339824Y34777420D02*
X29768396Y34777420D01*
X30054110Y34777420D02*
X30054110Y35777420D01*
X29958872Y35634562D01*
X29863634Y35539324D01*
X29768396Y35491705D01*
X28601942Y30004783D02*
X28649561Y29957164D01*
X28697180Y29814307D01*
X28697180Y29719069D01*
X28649561Y29576212D01*
X28554323Y29480974D01*
X28459085Y29433355D01*
X28268609Y29385736D01*
X28125752Y29385736D01*
X27935276Y29433355D01*
X27840038Y29480974D01*
X27744800Y29576212D01*
X27697180Y29719069D01*
X27697180Y29814307D01*
X27744800Y29957164D01*
X27792419Y30004783D01*
X28697180Y30957164D02*
X28697180Y30385736D01*
X28697180Y30671450D02*
X27697180Y30671450D01*
X27840038Y30576212D01*
X27935276Y30480974D01*
X27982895Y30385736D01*
X27697180Y31576212D02*
X27697180Y31671450D01*
X27744800Y31766688D01*
X27792419Y31814307D01*
X27887657Y31861926D01*
X28078133Y31909545D01*
X28316228Y31909545D01*
X28506704Y31861926D01*
X28601942Y31814307D01*
X28649561Y31766688D01*
X28697180Y31671450D01*
X28697180Y31576212D01*
X28649561Y31480974D01*
X28601942Y31433355D01*
X28506704Y31385736D01*
X28316228Y31338117D01*
X28078133Y31338117D01*
X27887657Y31385736D01*
X27792419Y31433355D01*
X27744800Y31480974D01*
X27697180Y31576212D01*
X25832773Y30381938D02*
X25785154Y30334319D01*
X25642297Y30286700D01*
X25547059Y30286700D01*
X25404201Y30334319D01*
X25308963Y30429557D01*
X25261344Y30524795D01*
X25213725Y30715271D01*
X25213725Y30858128D01*
X25261344Y31048604D01*
X25308963Y31143842D01*
X25404201Y31239080D01*
X25547059Y31286700D01*
X25642297Y31286700D01*
X25785154Y31239080D01*
X25832773Y31191461D01*
X26308963Y30286700D02*
X26499440Y30286700D01*
X26594678Y30334319D01*
X26642297Y30381938D01*
X26737535Y30524795D01*
X26785154Y30715271D01*
X26785154Y31096223D01*
X26737535Y31191461D01*
X26689916Y31239080D01*
X26594678Y31286700D01*
X26404201Y31286700D01*
X26308963Y31239080D01*
X26261344Y31191461D01*
X26213725Y31096223D01*
X26213725Y30858128D01*
X26261344Y30762890D01*
X26308963Y30715271D01*
X26404201Y30667652D01*
X26594678Y30667652D01*
X26689916Y30715271D01*
X26737535Y30762890D01*
X26785154Y30858128D01*
X10511493Y35329858D02*
X10463874Y35282239D01*
X10321017Y35234620D01*
X10225779Y35234620D01*
X10082921Y35282239D01*
X9987683Y35377477D01*
X9940064Y35472715D01*
X9892445Y35663191D01*
X9892445Y35806048D01*
X9940064Y35996524D01*
X9987683Y36091762D01*
X10082921Y36187000D01*
X10225779Y36234620D01*
X10321017Y36234620D01*
X10463874Y36187000D01*
X10511493Y36139381D01*
X11082921Y35806048D02*
X10987683Y35853667D01*
X10940064Y35901286D01*
X10892445Y35996524D01*
X10892445Y36044143D01*
X10940064Y36139381D01*
X10987683Y36187000D01*
X11082921Y36234620D01*
X11273398Y36234620D01*
X11368636Y36187000D01*
X11416255Y36139381D01*
X11463874Y36044143D01*
X11463874Y35996524D01*
X11416255Y35901286D01*
X11368636Y35853667D01*
X11273398Y35806048D01*
X11082921Y35806048D01*
X10987683Y35758429D01*
X10940064Y35710810D01*
X10892445Y35615572D01*
X10892445Y35425096D01*
X10940064Y35329858D01*
X10987683Y35282239D01*
X11082921Y35234620D01*
X11273398Y35234620D01*
X11368636Y35282239D01*
X11416255Y35329858D01*
X11463874Y35425096D01*
X11463874Y35615572D01*
X11416255Y35710810D01*
X11368636Y35758429D01*
X11273398Y35806048D01*
X12411413Y31905938D02*
X12363794Y31858319D01*
X12220937Y31810700D01*
X12125699Y31810700D01*
X11982841Y31858319D01*
X11887603Y31953557D01*
X11839984Y32048795D01*
X11792365Y32239271D01*
X11792365Y32382128D01*
X11839984Y32572604D01*
X11887603Y32667842D01*
X11982841Y32763080D01*
X12125699Y32810700D01*
X12220937Y32810700D01*
X12363794Y32763080D01*
X12411413Y32715461D01*
X12744746Y32810700D02*
X13411413Y32810700D01*
X12982841Y31810700D01*
X17405622Y28019714D02*
X17453241Y27972095D01*
X17500860Y27829238D01*
X17500860Y27734000D01*
X17453241Y27591142D01*
X17358003Y27495904D01*
X17262765Y27448285D01*
X17072289Y27400666D01*
X16929432Y27400666D01*
X16738956Y27448285D01*
X16643718Y27495904D01*
X16548480Y27591142D01*
X16500860Y27734000D01*
X16500860Y27829238D01*
X16548480Y27972095D01*
X16596099Y28019714D01*
X16500860Y28876857D02*
X16500860Y28686380D01*
X16548480Y28591142D01*
X16596099Y28543523D01*
X16738956Y28448285D01*
X16929432Y28400666D01*
X17310384Y28400666D01*
X17405622Y28448285D01*
X17453241Y28495904D01*
X17500860Y28591142D01*
X17500860Y28781619D01*
X17453241Y28876857D01*
X17405622Y28924476D01*
X17310384Y28972095D01*
X17072289Y28972095D01*
X16977051Y28924476D01*
X16929432Y28876857D01*
X16881813Y28781619D01*
X16881813Y28591142D01*
X16929432Y28495904D01*
X16977051Y28448285D01*
X17072289Y28400666D01*
X22373862Y36282334D02*
X22421481Y36234715D01*
X22469100Y36091858D01*
X22469100Y35996620D01*
X22421481Y35853762D01*
X22326243Y35758524D01*
X22231005Y35710905D01*
X22040529Y35663286D01*
X21897672Y35663286D01*
X21707196Y35710905D01*
X21611958Y35758524D01*
X21516720Y35853762D01*
X21469100Y35996620D01*
X21469100Y36091858D01*
X21516720Y36234715D01*
X21564339Y36282334D01*
X21469100Y37187096D02*
X21469100Y36710905D01*
X21945291Y36663286D01*
X21897672Y36710905D01*
X21850053Y36806143D01*
X21850053Y37044239D01*
X21897672Y37139477D01*
X21945291Y37187096D01*
X22040529Y37234715D01*
X22278624Y37234715D01*
X22373862Y37187096D01*
X22421481Y37139477D01*
X22469100Y37044239D01*
X22469100Y36806143D01*
X22421481Y36710905D01*
X22373862Y36663286D01*
X15627622Y1375114D02*
X15675241Y1327495D01*
X15722860Y1184638D01*
X15722860Y1089400D01*
X15675241Y946542D01*
X15580003Y851304D01*
X15484765Y803685D01*
X15294289Y756066D01*
X15151432Y756066D01*
X14960956Y803685D01*
X14865718Y851304D01*
X14770480Y946542D01*
X14722860Y1089400D01*
X14722860Y1184638D01*
X14770480Y1327495D01*
X14818099Y1375114D01*
X15056194Y2232257D02*
X15722860Y2232257D01*
X14675241Y1994161D02*
X15389527Y1756066D01*
X15389527Y2375114D01*
X22307822Y27372014D02*
X22355441Y27324395D01*
X22403060Y27181538D01*
X22403060Y27086300D01*
X22355441Y26943442D01*
X22260203Y26848204D01*
X22164965Y26800585D01*
X21974489Y26752966D01*
X21831632Y26752966D01*
X21641156Y26800585D01*
X21545918Y26848204D01*
X21450680Y26943442D01*
X21403060Y27086300D01*
X21403060Y27181538D01*
X21450680Y27324395D01*
X21498299Y27372014D01*
X21403060Y27705347D02*
X21403060Y28324395D01*
X21784013Y27991061D01*
X21784013Y28133919D01*
X21831632Y28229157D01*
X21879251Y28276776D01*
X21974489Y28324395D01*
X22212584Y28324395D01*
X22307822Y28276776D01*
X22355441Y28229157D01*
X22403060Y28133919D01*
X22403060Y27848204D01*
X22355441Y27752966D01*
X22307822Y27705347D01*
X14052822Y1311614D02*
X14100441Y1263995D01*
X14148060Y1121138D01*
X14148060Y1025900D01*
X14100441Y883042D01*
X14005203Y787804D01*
X13909965Y740185D01*
X13719489Y692566D01*
X13576632Y692566D01*
X13386156Y740185D01*
X13290918Y787804D01*
X13195680Y883042D01*
X13148060Y1025900D01*
X13148060Y1121138D01*
X13195680Y1263995D01*
X13243299Y1311614D01*
X13243299Y1692566D02*
X13195680Y1740185D01*
X13148060Y1835423D01*
X13148060Y2073519D01*
X13195680Y2168757D01*
X13243299Y2216376D01*
X13338537Y2263995D01*
X13433775Y2263995D01*
X13576632Y2216376D01*
X14148060Y1644947D01*
X14148060Y2263995D01*
X20381933Y29477698D02*
X20334314Y29430079D01*
X20191457Y29382460D01*
X20096219Y29382460D01*
X19953361Y29430079D01*
X19858123Y29525317D01*
X19810504Y29620555D01*
X19762885Y29811031D01*
X19762885Y29953888D01*
X19810504Y30144364D01*
X19858123Y30239602D01*
X19953361Y30334840D01*
X20096219Y30382460D01*
X20191457Y30382460D01*
X20334314Y30334840D01*
X20381933Y30287221D01*
X21334314Y29382460D02*
X20762885Y29382460D01*
X21048600Y29382460D02*
X21048600Y30382460D01*
X20953361Y30239602D01*
X20858123Y30144364D01*
X20762885Y30096745D01*
M02*
