G04 #@! TF.GenerationSoftware,KiCad,Pcbnew,5.1.4+dfsg1-1*
G04 #@! TF.CreationDate,2019-11-09T04:53:54-08:00*
G04 #@! TF.ProjectId,pmod-level-conv,706d6f64-2d6c-4657-9665-6c2d636f6e76,rev?*
G04 #@! TF.SameCoordinates,PX5095e20PY5204180*
G04 #@! TF.FileFunction,Legend,Bot*
G04 #@! TF.FilePolarity,Positive*
%FSLAX46Y46*%
G04 Gerber Fmt 4.6, Leading zero omitted, Abs format (unit mm)*
G04 Created by KiCad (PCBNEW 5.1.4+dfsg1-1) date 2019-11-09 04:53:54*
%MOMM*%
%LPD*%
G04 APERTURE LIST*
%ADD10C,0.100000*%
%ADD11C,0.150000*%
G04 APERTURE END LIST*
D10*
X16350000Y1650000D02*
X16350000Y2150000D01*
X16350000Y1650000D02*
X16850000Y1650000D01*
X24650000Y1650000D02*
X24150000Y1650000D01*
X24650000Y1650000D02*
X24650000Y2150000D01*
X24550000Y10450000D02*
X24050000Y10450000D01*
X24550000Y10450000D02*
X24550000Y9950000D01*
X16450000Y10450000D02*
X16950000Y10450000D01*
X16450000Y10450000D02*
X16450000Y9950000D01*
X15650000Y14800000D02*
X15650000Y14300000D01*
X15650000Y14800000D02*
X15150000Y14800000D01*
X7350000Y14800000D02*
X7850000Y14800000D01*
X7350000Y14800000D02*
X7350000Y14300000D01*
X7450000Y6000000D02*
X7950000Y6000000D01*
X7450000Y6000000D02*
X7450000Y6500000D01*
X15550000Y6000000D02*
X15050000Y6000000D01*
X15550000Y6000000D02*
X15550000Y6500000D01*
D11*
X24083333Y12547620D02*
X24083333Y11833334D01*
X24130952Y11690477D01*
X24226190Y11595239D01*
X24369047Y11547620D01*
X24464285Y11547620D01*
X23178571Y12214286D02*
X23178571Y11547620D01*
X23416666Y12595239D02*
X23654761Y11880953D01*
X23035714Y11880953D01*
X8583333Y4547620D02*
X8583333Y3833334D01*
X8630952Y3690477D01*
X8726190Y3595239D01*
X8869047Y3547620D01*
X8964285Y3547620D01*
X8202380Y4547620D02*
X7583333Y4547620D01*
X7916666Y4166667D01*
X7773809Y4166667D01*
X7678571Y4119048D01*
X7630952Y4071429D01*
X7583333Y3976191D01*
X7583333Y3738096D01*
X7630952Y3642858D01*
X7678571Y3595239D01*
X7773809Y3547620D01*
X8059523Y3547620D01*
X8154761Y3595239D01*
X8202380Y3642858D01*
M02*
