G04 #@! TF.GenerationSoftware,KiCad,Pcbnew,5.1.4+dfsg1-1*
G04 #@! TF.CreationDate,2019-11-09T04:53:54-08:00*
G04 #@! TF.ProjectId,pmod-level-conv,706d6f64-2d6c-4657-9665-6c2d636f6e76,rev?*
G04 #@! TF.SameCoordinates,PX5095e20PY5204180*
G04 #@! TF.FileFunction,Legend,Top*
G04 #@! TF.FilePolarity,Positive*
%FSLAX46Y46*%
G04 Gerber Fmt 4.6, Leading zero omitted, Abs format (unit mm)*
G04 Created by KiCad (PCBNEW 5.1.4+dfsg1-1) date 2019-11-09 04:53:54*
%MOMM*%
%LPD*%
G04 APERTURE LIST*
%ADD10C,0.250000*%
%ADD11C,0.100000*%
%ADD12C,1.000000*%
%ADD13C,0.254000*%
%ADD14C,0.120000*%
%ADD15C,0.150000*%
G04 APERTURE END LIST*
D10*
X7500000Y3800000D02*
X7833333Y2866667D01*
X8166666Y3800000D01*
X8633333Y4133334D02*
X8700000Y4200000D01*
X8833333Y4266667D01*
X9166666Y4266667D01*
X9300000Y4200000D01*
X9366666Y4133334D01*
X9433333Y4000000D01*
X9433333Y3866667D01*
X9366666Y3666667D01*
X8566666Y2866667D01*
X9433333Y2866667D01*
X10033333Y3000000D02*
X10100000Y2933334D01*
X10033333Y2866667D01*
X9966666Y2933334D01*
X10033333Y3000000D01*
X10033333Y2866667D01*
X10966666Y4266667D02*
X11100000Y4266667D01*
X11233333Y4200000D01*
X11300000Y4133334D01*
X11366666Y4000000D01*
X11433333Y3733334D01*
X11433333Y3400000D01*
X11366666Y3133334D01*
X11300000Y3000000D01*
X11233333Y2933334D01*
X11100000Y2866667D01*
X10966666Y2866667D01*
X10833333Y2933334D01*
X10766666Y3000000D01*
X10700000Y3133334D01*
X10633333Y3400000D01*
X10633333Y3733334D01*
X10700000Y4000000D01*
X10766666Y4133334D01*
X10833333Y4200000D01*
X10966666Y4266667D01*
X10433333Y12800000D02*
X10966666Y12800000D01*
X10633333Y13266667D02*
X10633333Y12066667D01*
X10700000Y11933334D01*
X10833333Y11866667D01*
X10966666Y11866667D01*
X11633333Y11866667D02*
X11500000Y11933334D01*
X11433333Y12000000D01*
X11366666Y12133334D01*
X11366666Y12533334D01*
X11433333Y12666667D01*
X11500000Y12733334D01*
X11633333Y12800000D01*
X11833333Y12800000D01*
X11966666Y12733334D01*
X12033333Y12666667D01*
X12100000Y12533334D01*
X12100000Y12133334D01*
X12033333Y12000000D01*
X11966666Y11933334D01*
X11833333Y11866667D01*
X11633333Y11866667D01*
X12700000Y11866667D02*
X12700000Y12800000D01*
X12700000Y12666667D02*
X12766666Y12733334D01*
X12900000Y12800000D01*
X13100000Y12800000D01*
X13233333Y12733334D01*
X13300000Y12600000D01*
X13300000Y11866667D01*
X13300000Y12600000D02*
X13366666Y12733334D01*
X13500000Y12800000D01*
X13700000Y12800000D01*
X13833333Y12733334D01*
X13900000Y12600000D01*
X13900000Y11866667D01*
X15433333Y12533334D02*
X15366666Y12600000D01*
X15233333Y12666667D01*
X15100000Y12666667D01*
X14966666Y12600000D01*
X14900000Y12533334D01*
X14833333Y12400000D01*
X14833333Y12266667D01*
X14900000Y12133334D01*
X14966666Y12066667D01*
X15100000Y12000000D01*
X15233333Y12000000D01*
X15366666Y12066667D01*
X15433333Y12133334D01*
X15433333Y12666667D02*
X15433333Y12133334D01*
X15500000Y12066667D01*
X15566666Y12066667D01*
X15700000Y12133334D01*
X15766666Y12266667D01*
X15766666Y12600000D01*
X15633333Y12800000D01*
X15433333Y12933334D01*
X15166666Y13000000D01*
X14900000Y12933334D01*
X14700000Y12800000D01*
X14566666Y12600000D01*
X14500000Y12333334D01*
X14566666Y12066667D01*
X14700000Y11866667D01*
X14900000Y11733334D01*
X15166666Y11666667D01*
X15433333Y11733334D01*
X15633333Y11866667D01*
X16166666Y12800000D02*
X16700000Y12800000D01*
X16366666Y13266667D02*
X16366666Y12066667D01*
X16433333Y11933334D01*
X16566666Y11866667D01*
X16700000Y11866667D01*
X17366666Y11866667D02*
X17233333Y11933334D01*
X17166666Y12000000D01*
X17100000Y12133334D01*
X17100000Y12533334D01*
X17166666Y12666667D01*
X17233333Y12733334D01*
X17366666Y12800000D01*
X17566666Y12800000D01*
X17700000Y12733334D01*
X17766666Y12666667D01*
X17833333Y12533334D01*
X17833333Y12133334D01*
X17766666Y12000000D01*
X17700000Y11933334D01*
X17566666Y11866667D01*
X17366666Y11866667D01*
X18433333Y11866667D02*
X18433333Y12800000D01*
X18433333Y12666667D02*
X18500000Y12733334D01*
X18633333Y12800000D01*
X18833333Y12800000D01*
X18966666Y12733334D01*
X19033333Y12600000D01*
X19033333Y11866667D01*
X19033333Y12600000D02*
X19100000Y12733334D01*
X19233333Y12800000D01*
X19433333Y12800000D01*
X19566666Y12733334D01*
X19633333Y12600000D01*
X19633333Y11866667D01*
X20300000Y11866667D02*
X20300000Y13266667D01*
X20433333Y12400000D02*
X20833333Y11866667D01*
X20833333Y12800000D02*
X20300000Y12266667D01*
X21433333Y12000000D02*
X21500000Y11933334D01*
X21433333Y11866667D01*
X21366666Y11933334D01*
X21433333Y12000000D01*
X21433333Y11866667D01*
X22100000Y11866667D02*
X22100000Y12800000D01*
X22100000Y13266667D02*
X22033333Y13200000D01*
X22100000Y13133334D01*
X22166666Y13200000D01*
X22100000Y13266667D01*
X22100000Y13133334D01*
X22766666Y12800000D02*
X22766666Y11866667D01*
X22766666Y12666667D02*
X22833333Y12733334D01*
X22966666Y12800000D01*
X23166666Y12800000D01*
X23300000Y12733334D01*
X23366666Y12600000D01*
X23366666Y11866667D01*
X6900000Y1800000D02*
X6900000Y400000D01*
X6900000Y1733334D02*
X7033333Y1800000D01*
X7300000Y1800000D01*
X7433333Y1733334D01*
X7500000Y1666667D01*
X7566666Y1533334D01*
X7566666Y1133334D01*
X7500000Y1000000D01*
X7433333Y933334D01*
X7300000Y866667D01*
X7033333Y866667D01*
X6900000Y933334D01*
X8166666Y866667D02*
X8166666Y1800000D01*
X8166666Y1666667D02*
X8233333Y1733334D01*
X8366666Y1800000D01*
X8566666Y1800000D01*
X8700000Y1733334D01*
X8766666Y1600000D01*
X8766666Y866667D01*
X8766666Y1600000D02*
X8833333Y1733334D01*
X8966666Y1800000D01*
X9166666Y1800000D01*
X9300000Y1733334D01*
X9366666Y1600000D01*
X9366666Y866667D01*
X10233333Y866667D02*
X10100000Y933334D01*
X10033333Y1000000D01*
X9966666Y1133334D01*
X9966666Y1533334D01*
X10033333Y1666667D01*
X10100000Y1733334D01*
X10233333Y1800000D01*
X10433333Y1800000D01*
X10566666Y1733334D01*
X10633333Y1666667D01*
X10700000Y1533334D01*
X10700000Y1133334D01*
X10633333Y1000000D01*
X10566666Y933334D01*
X10433333Y866667D01*
X10233333Y866667D01*
X11900000Y866667D02*
X11900000Y2266667D01*
X11900000Y933334D02*
X11766666Y866667D01*
X11500000Y866667D01*
X11366666Y933334D01*
X11300000Y1000000D01*
X11233333Y1133334D01*
X11233333Y1533334D01*
X11300000Y1666667D01*
X11366666Y1733334D01*
X11500000Y1800000D01*
X11766666Y1800000D01*
X11900000Y1733334D01*
X12566666Y1400000D02*
X13633333Y1400000D01*
X14500000Y866667D02*
X14366666Y933334D01*
X14300000Y1066667D01*
X14300000Y2266667D01*
X15566666Y933334D02*
X15433333Y866667D01*
X15166666Y866667D01*
X15033333Y933334D01*
X14966666Y1066667D01*
X14966666Y1600000D01*
X15033333Y1733334D01*
X15166666Y1800000D01*
X15433333Y1800000D01*
X15566666Y1733334D01*
X15633333Y1600000D01*
X15633333Y1466667D01*
X14966666Y1333334D01*
X16100000Y1800000D02*
X16433333Y866667D01*
X16766666Y1800000D01*
X17833333Y933334D02*
X17700000Y866667D01*
X17433333Y866667D01*
X17300000Y933334D01*
X17233333Y1066667D01*
X17233333Y1600000D01*
X17300000Y1733334D01*
X17433333Y1800000D01*
X17700000Y1800000D01*
X17833333Y1733334D01*
X17900000Y1600000D01*
X17900000Y1466667D01*
X17233333Y1333334D01*
X18700000Y866667D02*
X18566666Y933334D01*
X18500000Y1066667D01*
X18500000Y2266667D01*
X19233333Y1400000D02*
X20300000Y1400000D01*
X21566666Y933334D02*
X21433333Y866667D01*
X21166666Y866667D01*
X21033333Y933334D01*
X20966666Y1000000D01*
X20900000Y1133334D01*
X20900000Y1533334D01*
X20966666Y1666667D01*
X21033333Y1733334D01*
X21166666Y1800000D01*
X21433333Y1800000D01*
X21566666Y1733334D01*
X22366666Y866667D02*
X22233333Y933334D01*
X22166666Y1000000D01*
X22100000Y1133334D01*
X22100000Y1533334D01*
X22166666Y1666667D01*
X22233333Y1733334D01*
X22366666Y1800000D01*
X22566666Y1800000D01*
X22700000Y1733334D01*
X22766666Y1666667D01*
X22833333Y1533334D01*
X22833333Y1133334D01*
X22766666Y1000000D01*
X22700000Y933334D01*
X22566666Y866667D01*
X22366666Y866667D01*
X23433333Y1800000D02*
X23433333Y866667D01*
X23433333Y1666667D02*
X23500000Y1733334D01*
X23633333Y1800000D01*
X23833333Y1800000D01*
X23966666Y1733334D01*
X24033333Y1600000D01*
X24033333Y866667D01*
X24566666Y1800000D02*
X24900000Y866667D01*
X25233333Y1800000D01*
D11*
X18900000Y4500000D02*
X18600000Y4500000D01*
X18900000Y4800000D02*
X18900000Y4500000D01*
X18900000Y11500000D02*
X18600000Y11500000D01*
X18900000Y11200000D02*
X18900000Y11500000D01*
X14100000Y4500000D02*
X14400000Y4500000D01*
X14100000Y4500000D02*
X14100000Y4800000D01*
X14300000Y11200000D02*
X13700000Y11200000D01*
X14600000Y11500000D02*
X14300000Y11200000D01*
X14900000Y11500000D02*
X14600000Y11500000D01*
D12*
X26000000Y15600000D02*
G75*
G03X26000000Y15600000I-100000J0D01*
G01*
D13*
X34850000Y8000000D02*
X33580000Y6730000D01*
X33580000Y9270000D02*
X34850000Y8000000D01*
X34850000Y8000000D02*
X34850000Y-890000D01*
X34850000Y16890000D02*
X34850000Y8000000D01*
X-2850000Y-890000D02*
X-2850000Y8000000D01*
X-2850000Y8000000D02*
X-2850000Y16890000D01*
X-1580000Y6730000D02*
X-2850000Y8000000D01*
X-2850000Y8000000D02*
X-1580000Y9270000D01*
D12*
X6300000Y15600000D02*
G75*
G03X6300000Y15600000I-200000J0D01*
G01*
D14*
X16796267Y14510000D02*
X16453733Y14510000D01*
X16796267Y13490000D02*
X16453733Y13490000D01*
X16328733Y2490000D02*
X16671267Y2490000D01*
X16328733Y3510000D02*
X16671267Y3510000D01*
D15*
X16202380Y7238096D02*
X17011904Y7238096D01*
X17107142Y7285715D01*
X17154761Y7333334D01*
X17202380Y7428572D01*
X17202380Y7619048D01*
X17154761Y7714286D01*
X17107142Y7761905D01*
X17011904Y7809524D01*
X16202380Y7809524D01*
X17202380Y8809524D02*
X17202380Y8238096D01*
X17202380Y8523810D02*
X16202380Y8523810D01*
X16345238Y8428572D01*
X16440476Y8333334D01*
X16488095Y8238096D01*
X23702380Y7666667D02*
X24416666Y7666667D01*
X24559523Y7619048D01*
X24654761Y7523810D01*
X24702380Y7380953D01*
X24702380Y7285715D01*
X23797619Y8095239D02*
X23750000Y8142858D01*
X23702380Y8238096D01*
X23702380Y8476191D01*
X23750000Y8571429D01*
X23797619Y8619048D01*
X23892857Y8666667D01*
X23988095Y8666667D01*
X24130952Y8619048D01*
X24702380Y8047620D01*
X24702380Y8666667D01*
X7452380Y7666667D02*
X8166666Y7666667D01*
X8309523Y7619048D01*
X8404761Y7523810D01*
X8452380Y7380953D01*
X8452380Y7285715D01*
X8452380Y8666667D02*
X8452380Y8095239D01*
X8452380Y8380953D02*
X7452380Y8380953D01*
X7595238Y8285715D01*
X7690476Y8190477D01*
X7738095Y8095239D01*
X13333333Y13642858D02*
X13285714Y13595239D01*
X13142857Y13547620D01*
X13047619Y13547620D01*
X12904761Y13595239D01*
X12809523Y13690477D01*
X12761904Y13785715D01*
X12714285Y13976191D01*
X12714285Y14119048D01*
X12761904Y14309524D01*
X12809523Y14404762D01*
X12904761Y14500000D01*
X13047619Y14547620D01*
X13142857Y14547620D01*
X13285714Y14500000D01*
X13333333Y14452381D01*
X13714285Y14452381D02*
X13761904Y14500000D01*
X13857142Y14547620D01*
X14095238Y14547620D01*
X14190476Y14500000D01*
X14238095Y14452381D01*
X14285714Y14357143D01*
X14285714Y14261905D01*
X14238095Y14119048D01*
X13666666Y13547620D01*
X14285714Y13547620D01*
X16333333Y4142858D02*
X16285714Y4095239D01*
X16142857Y4047620D01*
X16047619Y4047620D01*
X15904761Y4095239D01*
X15809523Y4190477D01*
X15761904Y4285715D01*
X15714285Y4476191D01*
X15714285Y4619048D01*
X15761904Y4809524D01*
X15809523Y4904762D01*
X15904761Y5000000D01*
X16047619Y5047620D01*
X16142857Y5047620D01*
X16285714Y5000000D01*
X16333333Y4952381D01*
X17285714Y4047620D02*
X16714285Y4047620D01*
X17000000Y4047620D02*
X17000000Y5047620D01*
X16904761Y4904762D01*
X16809523Y4809524D01*
X16714285Y4761905D01*
M02*
