G04 #@! TF.GenerationSoftware,KiCad,Pcbnew,5.1.4+dfsg1-1*
G04 #@! TF.CreationDate,2019-11-09T04:53:54-08:00*
G04 #@! TF.ProjectId,pmod-level-conv,706d6f64-2d6c-4657-9665-6c2d636f6e76,rev?*
G04 #@! TF.SameCoordinates,PX5095e20PY5204180*
G04 #@! TF.FileFunction,Soldermask,Bot*
G04 #@! TF.FilePolarity,Negative*
%FSLAX46Y46*%
G04 Gerber Fmt 4.6, Leading zero omitted, Abs format (unit mm)*
G04 Created by KiCad (PCBNEW 5.1.4+dfsg1-1) date 2019-11-09 04:53:54*
%MOMM*%
%LPD*%
G04 APERTURE LIST*
%ADD10C,0.100000*%
G04 APERTURE END LIST*
D10*
G36*
X5700442Y2544482D02*
G01*
X5766627Y2537963D01*
X5936466Y2486443D01*
X6092991Y2402778D01*
X6128729Y2373448D01*
X6230186Y2290186D01*
X6313448Y2188729D01*
X6342778Y2152991D01*
X6426443Y1996466D01*
X6477963Y1826627D01*
X6495359Y1650000D01*
X6477963Y1473373D01*
X6426443Y1303534D01*
X6342778Y1147009D01*
X6313448Y1111271D01*
X6230186Y1009814D01*
X6128729Y926552D01*
X6092991Y897222D01*
X5936466Y813557D01*
X5766627Y762037D01*
X5700443Y755519D01*
X5634260Y749000D01*
X4705740Y749000D01*
X4639557Y755519D01*
X4573373Y762037D01*
X4403534Y813557D01*
X4247009Y897222D01*
X4211271Y926552D01*
X4109814Y1009814D01*
X4026552Y1111271D01*
X3997222Y1147009D01*
X3913557Y1303534D01*
X3862037Y1473373D01*
X3844641Y1650000D01*
X3862037Y1826627D01*
X3913557Y1996466D01*
X3997222Y2152991D01*
X4026552Y2188729D01*
X4109814Y2290186D01*
X4211271Y2373448D01*
X4247009Y2402778D01*
X4403534Y2486443D01*
X4573373Y2537963D01*
X4639558Y2544482D01*
X4705740Y2551000D01*
X5634260Y2551000D01*
X5700442Y2544482D01*
X5700442Y2544482D01*
G37*
G36*
X27360442Y2544482D02*
G01*
X27426627Y2537963D01*
X27596466Y2486443D01*
X27752991Y2402778D01*
X27788729Y2373448D01*
X27890186Y2290186D01*
X27973448Y2188729D01*
X28002778Y2152991D01*
X28086443Y1996466D01*
X28137963Y1826627D01*
X28155359Y1650000D01*
X28137963Y1473373D01*
X28086443Y1303534D01*
X28002778Y1147009D01*
X27973448Y1111271D01*
X27890186Y1009814D01*
X27788729Y926552D01*
X27752991Y897222D01*
X27596466Y813557D01*
X27426627Y762037D01*
X27360443Y755519D01*
X27294260Y749000D01*
X26365740Y749000D01*
X26299557Y755519D01*
X26233373Y762037D01*
X26063534Y813557D01*
X25907009Y897222D01*
X25871271Y926552D01*
X25769814Y1009814D01*
X25686552Y1111271D01*
X25657222Y1147009D01*
X25573557Y1303534D01*
X25522037Y1473373D01*
X25504641Y1650000D01*
X25522037Y1826627D01*
X25573557Y1996466D01*
X25657222Y2152991D01*
X25686552Y2188729D01*
X25769814Y2290186D01*
X25871271Y2373448D01*
X25907009Y2402778D01*
X26063534Y2486443D01*
X26233373Y2537963D01*
X26299558Y2544482D01*
X26365740Y2551000D01*
X27294260Y2551000D01*
X27360442Y2544482D01*
X27360442Y2544482D01*
G37*
G36*
X30700442Y2544482D02*
G01*
X30766627Y2537963D01*
X30936466Y2486443D01*
X31092991Y2402778D01*
X31128729Y2373448D01*
X31230186Y2290186D01*
X31313448Y2188729D01*
X31342778Y2152991D01*
X31426443Y1996466D01*
X31477963Y1826627D01*
X31495359Y1650000D01*
X31477963Y1473373D01*
X31426443Y1303534D01*
X31342778Y1147009D01*
X31313448Y1111271D01*
X31230186Y1009814D01*
X31128729Y926552D01*
X31092991Y897222D01*
X30936466Y813557D01*
X30766627Y762037D01*
X30700443Y755519D01*
X30634260Y749000D01*
X29705740Y749000D01*
X29639557Y755519D01*
X29573373Y762037D01*
X29403534Y813557D01*
X29247009Y897222D01*
X29211271Y926552D01*
X29109814Y1009814D01*
X29026552Y1111271D01*
X28997222Y1147009D01*
X28913557Y1303534D01*
X28862037Y1473373D01*
X28844641Y1650000D01*
X28862037Y1826627D01*
X28913557Y1996466D01*
X28997222Y2152991D01*
X29026552Y2188729D01*
X29109814Y2290186D01*
X29211271Y2373448D01*
X29247009Y2402778D01*
X29403534Y2486443D01*
X29573373Y2537963D01*
X29639558Y2544482D01*
X29705740Y2551000D01*
X30634260Y2551000D01*
X30700442Y2544482D01*
X30700442Y2544482D01*
G37*
G36*
X2360442Y2544482D02*
G01*
X2426627Y2537963D01*
X2596466Y2486443D01*
X2752991Y2402778D01*
X2788729Y2373448D01*
X2890186Y2290186D01*
X2973448Y2188729D01*
X3002778Y2152991D01*
X3086443Y1996466D01*
X3137963Y1826627D01*
X3155359Y1650000D01*
X3137963Y1473373D01*
X3086443Y1303534D01*
X3002778Y1147009D01*
X2973448Y1111271D01*
X2890186Y1009814D01*
X2788729Y926552D01*
X2752991Y897222D01*
X2596466Y813557D01*
X2426627Y762037D01*
X2360443Y755519D01*
X2294260Y749000D01*
X1365740Y749000D01*
X1299557Y755519D01*
X1233373Y762037D01*
X1063534Y813557D01*
X907009Y897222D01*
X871271Y926552D01*
X769814Y1009814D01*
X686552Y1111271D01*
X657222Y1147009D01*
X573557Y1303534D01*
X522037Y1473373D01*
X504641Y1650000D01*
X522037Y1826627D01*
X573557Y1996466D01*
X657222Y2152991D01*
X686552Y2188729D01*
X769814Y2290186D01*
X871271Y2373448D01*
X907009Y2402778D01*
X1063534Y2486443D01*
X1233373Y2537963D01*
X1299558Y2544482D01*
X1365740Y2551000D01*
X2294260Y2551000D01*
X2360442Y2544482D01*
X2360442Y2544482D01*
G37*
G36*
X24651000Y1699000D02*
G01*
X23049000Y1699000D01*
X23049000Y5201000D01*
X24651000Y5201000D01*
X24651000Y1699000D01*
X24651000Y1699000D01*
G37*
G36*
X17951000Y1699000D02*
G01*
X16349000Y1699000D01*
X16349000Y5201000D01*
X17951000Y5201000D01*
X17951000Y1699000D01*
X17951000Y1699000D01*
G37*
G36*
X5700443Y5084481D02*
G01*
X5766627Y5077963D01*
X5936466Y5026443D01*
X6092991Y4942778D01*
X6128729Y4913448D01*
X6230186Y4830186D01*
X6313448Y4728729D01*
X6342778Y4692991D01*
X6426443Y4536466D01*
X6477963Y4366627D01*
X6495359Y4190000D01*
X6477963Y4013373D01*
X6426443Y3843534D01*
X6342778Y3687009D01*
X6313448Y3651271D01*
X6230186Y3549814D01*
X6128729Y3466552D01*
X6092991Y3437222D01*
X5936466Y3353557D01*
X5766627Y3302037D01*
X5700443Y3295519D01*
X5634260Y3289000D01*
X4705740Y3289000D01*
X4639557Y3295519D01*
X4573373Y3302037D01*
X4403534Y3353557D01*
X4247009Y3437222D01*
X4211271Y3466552D01*
X4109814Y3549814D01*
X4026552Y3651271D01*
X3997222Y3687009D01*
X3913557Y3843534D01*
X3862037Y4013373D01*
X3844641Y4190000D01*
X3862037Y4366627D01*
X3913557Y4536466D01*
X3997222Y4692991D01*
X4026552Y4728729D01*
X4109814Y4830186D01*
X4211271Y4913448D01*
X4247009Y4942778D01*
X4403534Y5026443D01*
X4573373Y5077963D01*
X4639557Y5084481D01*
X4705740Y5091000D01*
X5634260Y5091000D01*
X5700443Y5084481D01*
X5700443Y5084481D01*
G37*
G36*
X27360443Y5084481D02*
G01*
X27426627Y5077963D01*
X27596466Y5026443D01*
X27752991Y4942778D01*
X27788729Y4913448D01*
X27890186Y4830186D01*
X27973448Y4728729D01*
X28002778Y4692991D01*
X28086443Y4536466D01*
X28137963Y4366627D01*
X28155359Y4190000D01*
X28137963Y4013373D01*
X28086443Y3843534D01*
X28002778Y3687009D01*
X27973448Y3651271D01*
X27890186Y3549814D01*
X27788729Y3466552D01*
X27752991Y3437222D01*
X27596466Y3353557D01*
X27426627Y3302037D01*
X27360443Y3295519D01*
X27294260Y3289000D01*
X26365740Y3289000D01*
X26299557Y3295519D01*
X26233373Y3302037D01*
X26063534Y3353557D01*
X25907009Y3437222D01*
X25871271Y3466552D01*
X25769814Y3549814D01*
X25686552Y3651271D01*
X25657222Y3687009D01*
X25573557Y3843534D01*
X25522037Y4013373D01*
X25504641Y4190000D01*
X25522037Y4366627D01*
X25573557Y4536466D01*
X25657222Y4692991D01*
X25686552Y4728729D01*
X25769814Y4830186D01*
X25871271Y4913448D01*
X25907009Y4942778D01*
X26063534Y5026443D01*
X26233373Y5077963D01*
X26299557Y5084481D01*
X26365740Y5091000D01*
X27294260Y5091000D01*
X27360443Y5084481D01*
X27360443Y5084481D01*
G37*
G36*
X30700443Y5084481D02*
G01*
X30766627Y5077963D01*
X30936466Y5026443D01*
X31092991Y4942778D01*
X31128729Y4913448D01*
X31230186Y4830186D01*
X31313448Y4728729D01*
X31342778Y4692991D01*
X31426443Y4536466D01*
X31477963Y4366627D01*
X31495359Y4190000D01*
X31477963Y4013373D01*
X31426443Y3843534D01*
X31342778Y3687009D01*
X31313448Y3651271D01*
X31230186Y3549814D01*
X31128729Y3466552D01*
X31092991Y3437222D01*
X30936466Y3353557D01*
X30766627Y3302037D01*
X30700443Y3295519D01*
X30634260Y3289000D01*
X29705740Y3289000D01*
X29639557Y3295519D01*
X29573373Y3302037D01*
X29403534Y3353557D01*
X29247009Y3437222D01*
X29211271Y3466552D01*
X29109814Y3549814D01*
X29026552Y3651271D01*
X28997222Y3687009D01*
X28913557Y3843534D01*
X28862037Y4013373D01*
X28844641Y4190000D01*
X28862037Y4366627D01*
X28913557Y4536466D01*
X28997222Y4692991D01*
X29026552Y4728729D01*
X29109814Y4830186D01*
X29211271Y4913448D01*
X29247009Y4942778D01*
X29403534Y5026443D01*
X29573373Y5077963D01*
X29639557Y5084481D01*
X29705740Y5091000D01*
X30634260Y5091000D01*
X30700443Y5084481D01*
X30700443Y5084481D01*
G37*
G36*
X2360443Y5084481D02*
G01*
X2426627Y5077963D01*
X2596466Y5026443D01*
X2752991Y4942778D01*
X2788729Y4913448D01*
X2890186Y4830186D01*
X2973448Y4728729D01*
X3002778Y4692991D01*
X3086443Y4536466D01*
X3137963Y4366627D01*
X3155359Y4190000D01*
X3137963Y4013373D01*
X3086443Y3843534D01*
X3002778Y3687009D01*
X2973448Y3651271D01*
X2890186Y3549814D01*
X2788729Y3466552D01*
X2752991Y3437222D01*
X2596466Y3353557D01*
X2426627Y3302037D01*
X2360443Y3295519D01*
X2294260Y3289000D01*
X1365740Y3289000D01*
X1299557Y3295519D01*
X1233373Y3302037D01*
X1063534Y3353557D01*
X907009Y3437222D01*
X871271Y3466552D01*
X769814Y3549814D01*
X686552Y3651271D01*
X657222Y3687009D01*
X573557Y3843534D01*
X522037Y4013373D01*
X504641Y4190000D01*
X522037Y4366627D01*
X573557Y4536466D01*
X657222Y4692991D01*
X686552Y4728729D01*
X769814Y4830186D01*
X871271Y4913448D01*
X907009Y4942778D01*
X1063534Y5026443D01*
X1233373Y5077963D01*
X1299557Y5084481D01*
X1365740Y5091000D01*
X2294260Y5091000D01*
X2360443Y5084481D01*
X2360443Y5084481D01*
G37*
G36*
X11051000Y5649000D02*
G01*
X9949000Y5649000D01*
X9949000Y9251000D01*
X11051000Y9251000D01*
X11051000Y5649000D01*
X11051000Y5649000D01*
G37*
G36*
X13051000Y5649000D02*
G01*
X11949000Y5649000D01*
X11949000Y9251000D01*
X13051000Y9251000D01*
X13051000Y5649000D01*
X13051000Y5649000D01*
G37*
G36*
X30700442Y7624482D02*
G01*
X30766627Y7617963D01*
X30936466Y7566443D01*
X31092991Y7482778D01*
X31128729Y7453448D01*
X31230186Y7370186D01*
X31313448Y7268729D01*
X31342778Y7232991D01*
X31426443Y7076466D01*
X31477963Y6906627D01*
X31495359Y6730000D01*
X31477963Y6553373D01*
X31426443Y6383534D01*
X31342778Y6227009D01*
X31313448Y6191271D01*
X31230186Y6089814D01*
X31128729Y6006552D01*
X31092991Y5977222D01*
X30936466Y5893557D01*
X30766627Y5842037D01*
X30700442Y5835518D01*
X30634260Y5829000D01*
X29705740Y5829000D01*
X29639558Y5835518D01*
X29573373Y5842037D01*
X29403534Y5893557D01*
X29247009Y5977222D01*
X29211271Y6006552D01*
X29109814Y6089814D01*
X29026552Y6191271D01*
X28997222Y6227009D01*
X28913557Y6383534D01*
X28862037Y6553373D01*
X28844641Y6730000D01*
X28862037Y6906627D01*
X28913557Y7076466D01*
X28997222Y7232991D01*
X29026552Y7268729D01*
X29109814Y7370186D01*
X29211271Y7453448D01*
X29247009Y7482778D01*
X29403534Y7566443D01*
X29573373Y7617963D01*
X29639558Y7624482D01*
X29705740Y7631000D01*
X30634260Y7631000D01*
X30700442Y7624482D01*
X30700442Y7624482D01*
G37*
G36*
X27360442Y7624482D02*
G01*
X27426627Y7617963D01*
X27596466Y7566443D01*
X27752991Y7482778D01*
X27788729Y7453448D01*
X27890186Y7370186D01*
X27973448Y7268729D01*
X28002778Y7232991D01*
X28086443Y7076466D01*
X28137963Y6906627D01*
X28155359Y6730000D01*
X28137963Y6553373D01*
X28086443Y6383534D01*
X28002778Y6227009D01*
X27973448Y6191271D01*
X27890186Y6089814D01*
X27788729Y6006552D01*
X27752991Y5977222D01*
X27596466Y5893557D01*
X27426627Y5842037D01*
X27360442Y5835518D01*
X27294260Y5829000D01*
X26365740Y5829000D01*
X26299558Y5835518D01*
X26233373Y5842037D01*
X26063534Y5893557D01*
X25907009Y5977222D01*
X25871271Y6006552D01*
X25769814Y6089814D01*
X25686552Y6191271D01*
X25657222Y6227009D01*
X25573557Y6383534D01*
X25522037Y6553373D01*
X25504641Y6730000D01*
X25522037Y6906627D01*
X25573557Y7076466D01*
X25657222Y7232991D01*
X25686552Y7268729D01*
X25769814Y7370186D01*
X25871271Y7453448D01*
X25907009Y7482778D01*
X26063534Y7566443D01*
X26233373Y7617963D01*
X26299558Y7624482D01*
X26365740Y7631000D01*
X27294260Y7631000D01*
X27360442Y7624482D01*
X27360442Y7624482D01*
G37*
G36*
X5700442Y7624482D02*
G01*
X5766627Y7617963D01*
X5936466Y7566443D01*
X6092991Y7482778D01*
X6128729Y7453448D01*
X6230186Y7370186D01*
X6313448Y7268729D01*
X6342778Y7232991D01*
X6426443Y7076466D01*
X6477963Y6906627D01*
X6495359Y6730000D01*
X6477963Y6553373D01*
X6426443Y6383534D01*
X6342778Y6227009D01*
X6313448Y6191271D01*
X6230186Y6089814D01*
X6128729Y6006552D01*
X6092991Y5977222D01*
X5936466Y5893557D01*
X5766627Y5842037D01*
X5700442Y5835518D01*
X5634260Y5829000D01*
X4705740Y5829000D01*
X4639558Y5835518D01*
X4573373Y5842037D01*
X4403534Y5893557D01*
X4247009Y5977222D01*
X4211271Y6006552D01*
X4109814Y6089814D01*
X4026552Y6191271D01*
X3997222Y6227009D01*
X3913557Y6383534D01*
X3862037Y6553373D01*
X3844641Y6730000D01*
X3862037Y6906627D01*
X3913557Y7076466D01*
X3997222Y7232991D01*
X4026552Y7268729D01*
X4109814Y7370186D01*
X4211271Y7453448D01*
X4247009Y7482778D01*
X4403534Y7566443D01*
X4573373Y7617963D01*
X4639558Y7624482D01*
X4705740Y7631000D01*
X5634260Y7631000D01*
X5700442Y7624482D01*
X5700442Y7624482D01*
G37*
G36*
X2360442Y7624482D02*
G01*
X2426627Y7617963D01*
X2596466Y7566443D01*
X2752991Y7482778D01*
X2788729Y7453448D01*
X2890186Y7370186D01*
X2973448Y7268729D01*
X3002778Y7232991D01*
X3086443Y7076466D01*
X3137963Y6906627D01*
X3155359Y6730000D01*
X3137963Y6553373D01*
X3086443Y6383534D01*
X3002778Y6227009D01*
X2973448Y6191271D01*
X2890186Y6089814D01*
X2788729Y6006552D01*
X2752991Y5977222D01*
X2596466Y5893557D01*
X2426627Y5842037D01*
X2360442Y5835518D01*
X2294260Y5829000D01*
X1365740Y5829000D01*
X1299558Y5835518D01*
X1233373Y5842037D01*
X1063534Y5893557D01*
X907009Y5977222D01*
X871271Y6006552D01*
X769814Y6089814D01*
X686552Y6191271D01*
X657222Y6227009D01*
X573557Y6383534D01*
X522037Y6553373D01*
X504641Y6730000D01*
X522037Y6906627D01*
X573557Y7076466D01*
X657222Y7232991D01*
X686552Y7268729D01*
X769814Y7370186D01*
X871271Y7453448D01*
X907009Y7482778D01*
X1063534Y7566443D01*
X1233373Y7617963D01*
X1299558Y7624482D01*
X1365740Y7631000D01*
X2294260Y7631000D01*
X2360442Y7624482D01*
X2360442Y7624482D01*
G37*
G36*
X20051000Y7199000D02*
G01*
X18949000Y7199000D01*
X18949000Y10801000D01*
X20051000Y10801000D01*
X20051000Y7199000D01*
X20051000Y7199000D01*
G37*
G36*
X22051000Y7199000D02*
G01*
X20949000Y7199000D01*
X20949000Y10801000D01*
X22051000Y10801000D01*
X22051000Y7199000D01*
X22051000Y7199000D01*
G37*
G36*
X2360443Y10164481D02*
G01*
X2426627Y10157963D01*
X2596466Y10106443D01*
X2752991Y10022778D01*
X2788729Y9993448D01*
X2890186Y9910186D01*
X2973448Y9808729D01*
X3002778Y9772991D01*
X3086443Y9616466D01*
X3137963Y9446627D01*
X3155359Y9270000D01*
X3137963Y9093373D01*
X3086443Y8923534D01*
X3002778Y8767009D01*
X2973448Y8731271D01*
X2890186Y8629814D01*
X2788729Y8546552D01*
X2752991Y8517222D01*
X2596466Y8433557D01*
X2426627Y8382037D01*
X2360443Y8375519D01*
X2294260Y8369000D01*
X1365740Y8369000D01*
X1299557Y8375519D01*
X1233373Y8382037D01*
X1063534Y8433557D01*
X907009Y8517222D01*
X871271Y8546552D01*
X769814Y8629814D01*
X686552Y8731271D01*
X657222Y8767009D01*
X573557Y8923534D01*
X522037Y9093373D01*
X504641Y9270000D01*
X522037Y9446627D01*
X573557Y9616466D01*
X657222Y9772991D01*
X686552Y9808729D01*
X769814Y9910186D01*
X871271Y9993448D01*
X907009Y10022778D01*
X1063534Y10106443D01*
X1233373Y10157963D01*
X1299557Y10164481D01*
X1365740Y10171000D01*
X2294260Y10171000D01*
X2360443Y10164481D01*
X2360443Y10164481D01*
G37*
G36*
X5700443Y10164481D02*
G01*
X5766627Y10157963D01*
X5936466Y10106443D01*
X6092991Y10022778D01*
X6128729Y9993448D01*
X6230186Y9910186D01*
X6313448Y9808729D01*
X6342778Y9772991D01*
X6426443Y9616466D01*
X6477963Y9446627D01*
X6495359Y9270000D01*
X6477963Y9093373D01*
X6426443Y8923534D01*
X6342778Y8767009D01*
X6313448Y8731271D01*
X6230186Y8629814D01*
X6128729Y8546552D01*
X6092991Y8517222D01*
X5936466Y8433557D01*
X5766627Y8382037D01*
X5700443Y8375519D01*
X5634260Y8369000D01*
X4705740Y8369000D01*
X4639557Y8375519D01*
X4573373Y8382037D01*
X4403534Y8433557D01*
X4247009Y8517222D01*
X4211271Y8546552D01*
X4109814Y8629814D01*
X4026552Y8731271D01*
X3997222Y8767009D01*
X3913557Y8923534D01*
X3862037Y9093373D01*
X3844641Y9270000D01*
X3862037Y9446627D01*
X3913557Y9616466D01*
X3997222Y9772991D01*
X4026552Y9808729D01*
X4109814Y9910186D01*
X4211271Y9993448D01*
X4247009Y10022778D01*
X4403534Y10106443D01*
X4573373Y10157963D01*
X4639557Y10164481D01*
X4705740Y10171000D01*
X5634260Y10171000D01*
X5700443Y10164481D01*
X5700443Y10164481D01*
G37*
G36*
X27360443Y10164481D02*
G01*
X27426627Y10157963D01*
X27596466Y10106443D01*
X27752991Y10022778D01*
X27788729Y9993448D01*
X27890186Y9910186D01*
X27973448Y9808729D01*
X28002778Y9772991D01*
X28086443Y9616466D01*
X28137963Y9446627D01*
X28155359Y9270000D01*
X28137963Y9093373D01*
X28086443Y8923534D01*
X28002778Y8767009D01*
X27973448Y8731271D01*
X27890186Y8629814D01*
X27788729Y8546552D01*
X27752991Y8517222D01*
X27596466Y8433557D01*
X27426627Y8382037D01*
X27360443Y8375519D01*
X27294260Y8369000D01*
X26365740Y8369000D01*
X26299557Y8375519D01*
X26233373Y8382037D01*
X26063534Y8433557D01*
X25907009Y8517222D01*
X25871271Y8546552D01*
X25769814Y8629814D01*
X25686552Y8731271D01*
X25657222Y8767009D01*
X25573557Y8923534D01*
X25522037Y9093373D01*
X25504641Y9270000D01*
X25522037Y9446627D01*
X25573557Y9616466D01*
X25657222Y9772991D01*
X25686552Y9808729D01*
X25769814Y9910186D01*
X25871271Y9993448D01*
X25907009Y10022778D01*
X26063534Y10106443D01*
X26233373Y10157963D01*
X26299557Y10164481D01*
X26365740Y10171000D01*
X27294260Y10171000D01*
X27360443Y10164481D01*
X27360443Y10164481D01*
G37*
G36*
X30700443Y10164481D02*
G01*
X30766627Y10157963D01*
X30936466Y10106443D01*
X31092991Y10022778D01*
X31128729Y9993448D01*
X31230186Y9910186D01*
X31313448Y9808729D01*
X31342778Y9772991D01*
X31426443Y9616466D01*
X31477963Y9446627D01*
X31495359Y9270000D01*
X31477963Y9093373D01*
X31426443Y8923534D01*
X31342778Y8767009D01*
X31313448Y8731271D01*
X31230186Y8629814D01*
X31128729Y8546552D01*
X31092991Y8517222D01*
X30936466Y8433557D01*
X30766627Y8382037D01*
X30700443Y8375519D01*
X30634260Y8369000D01*
X29705740Y8369000D01*
X29639557Y8375519D01*
X29573373Y8382037D01*
X29403534Y8433557D01*
X29247009Y8517222D01*
X29211271Y8546552D01*
X29109814Y8629814D01*
X29026552Y8731271D01*
X28997222Y8767009D01*
X28913557Y8923534D01*
X28862037Y9093373D01*
X28844641Y9270000D01*
X28862037Y9446627D01*
X28913557Y9616466D01*
X28997222Y9772991D01*
X29026552Y9808729D01*
X29109814Y9910186D01*
X29211271Y9993448D01*
X29247009Y10022778D01*
X29403534Y10106443D01*
X29573373Y10157963D01*
X29639557Y10164481D01*
X29705740Y10171000D01*
X30634260Y10171000D01*
X30700443Y10164481D01*
X30700443Y10164481D01*
G37*
G36*
X2360442Y12704482D02*
G01*
X2426627Y12697963D01*
X2596466Y12646443D01*
X2752991Y12562778D01*
X2788729Y12533448D01*
X2890186Y12450186D01*
X2973448Y12348729D01*
X3002778Y12312991D01*
X3086443Y12156466D01*
X3137963Y11986627D01*
X3155359Y11810000D01*
X3137963Y11633373D01*
X3086443Y11463534D01*
X3002778Y11307009D01*
X2973448Y11271271D01*
X2890186Y11169814D01*
X2788729Y11086552D01*
X2752991Y11057222D01*
X2596466Y10973557D01*
X2426627Y10922037D01*
X2360443Y10915519D01*
X2294260Y10909000D01*
X1365740Y10909000D01*
X1299557Y10915519D01*
X1233373Y10922037D01*
X1063534Y10973557D01*
X907009Y11057222D01*
X871271Y11086552D01*
X769814Y11169814D01*
X686552Y11271271D01*
X657222Y11307009D01*
X573557Y11463534D01*
X522037Y11633373D01*
X504641Y11810000D01*
X522037Y11986627D01*
X573557Y12156466D01*
X657222Y12312991D01*
X686552Y12348729D01*
X769814Y12450186D01*
X871271Y12533448D01*
X907009Y12562778D01*
X1063534Y12646443D01*
X1233373Y12697963D01*
X1299558Y12704482D01*
X1365740Y12711000D01*
X2294260Y12711000D01*
X2360442Y12704482D01*
X2360442Y12704482D01*
G37*
G36*
X30700442Y12704482D02*
G01*
X30766627Y12697963D01*
X30936466Y12646443D01*
X31092991Y12562778D01*
X31128729Y12533448D01*
X31230186Y12450186D01*
X31313448Y12348729D01*
X31342778Y12312991D01*
X31426443Y12156466D01*
X31477963Y11986627D01*
X31495359Y11810000D01*
X31477963Y11633373D01*
X31426443Y11463534D01*
X31342778Y11307009D01*
X31313448Y11271271D01*
X31230186Y11169814D01*
X31128729Y11086552D01*
X31092991Y11057222D01*
X30936466Y10973557D01*
X30766627Y10922037D01*
X30700443Y10915519D01*
X30634260Y10909000D01*
X29705740Y10909000D01*
X29639557Y10915519D01*
X29573373Y10922037D01*
X29403534Y10973557D01*
X29247009Y11057222D01*
X29211271Y11086552D01*
X29109814Y11169814D01*
X29026552Y11271271D01*
X28997222Y11307009D01*
X28913557Y11463534D01*
X28862037Y11633373D01*
X28844641Y11810000D01*
X28862037Y11986627D01*
X28913557Y12156466D01*
X28997222Y12312991D01*
X29026552Y12348729D01*
X29109814Y12450186D01*
X29211271Y12533448D01*
X29247009Y12562778D01*
X29403534Y12646443D01*
X29573373Y12697963D01*
X29639558Y12704482D01*
X29705740Y12711000D01*
X30634260Y12711000D01*
X30700442Y12704482D01*
X30700442Y12704482D01*
G37*
G36*
X27360442Y12704482D02*
G01*
X27426627Y12697963D01*
X27596466Y12646443D01*
X27752991Y12562778D01*
X27788729Y12533448D01*
X27890186Y12450186D01*
X27973448Y12348729D01*
X28002778Y12312991D01*
X28086443Y12156466D01*
X28137963Y11986627D01*
X28155359Y11810000D01*
X28137963Y11633373D01*
X28086443Y11463534D01*
X28002778Y11307009D01*
X27973448Y11271271D01*
X27890186Y11169814D01*
X27788729Y11086552D01*
X27752991Y11057222D01*
X27596466Y10973557D01*
X27426627Y10922037D01*
X27360443Y10915519D01*
X27294260Y10909000D01*
X26365740Y10909000D01*
X26299557Y10915519D01*
X26233373Y10922037D01*
X26063534Y10973557D01*
X25907009Y11057222D01*
X25871271Y11086552D01*
X25769814Y11169814D01*
X25686552Y11271271D01*
X25657222Y11307009D01*
X25573557Y11463534D01*
X25522037Y11633373D01*
X25504641Y11810000D01*
X25522037Y11986627D01*
X25573557Y12156466D01*
X25657222Y12312991D01*
X25686552Y12348729D01*
X25769814Y12450186D01*
X25871271Y12533448D01*
X25907009Y12562778D01*
X26063534Y12646443D01*
X26233373Y12697963D01*
X26299558Y12704482D01*
X26365740Y12711000D01*
X27294260Y12711000D01*
X27360442Y12704482D01*
X27360442Y12704482D01*
G37*
G36*
X5700442Y12704482D02*
G01*
X5766627Y12697963D01*
X5936466Y12646443D01*
X6092991Y12562778D01*
X6128729Y12533448D01*
X6230186Y12450186D01*
X6313448Y12348729D01*
X6342778Y12312991D01*
X6426443Y12156466D01*
X6477963Y11986627D01*
X6495359Y11810000D01*
X6477963Y11633373D01*
X6426443Y11463534D01*
X6342778Y11307009D01*
X6313448Y11271271D01*
X6230186Y11169814D01*
X6128729Y11086552D01*
X6092991Y11057222D01*
X5936466Y10973557D01*
X5766627Y10922037D01*
X5700443Y10915519D01*
X5634260Y10909000D01*
X4705740Y10909000D01*
X4639557Y10915519D01*
X4573373Y10922037D01*
X4403534Y10973557D01*
X4247009Y11057222D01*
X4211271Y11086552D01*
X4109814Y11169814D01*
X4026552Y11271271D01*
X3997222Y11307009D01*
X3913557Y11463534D01*
X3862037Y11633373D01*
X3844641Y11810000D01*
X3862037Y11986627D01*
X3913557Y12156466D01*
X3997222Y12312991D01*
X4026552Y12348729D01*
X4109814Y12450186D01*
X4211271Y12533448D01*
X4247009Y12562778D01*
X4403534Y12646443D01*
X4573373Y12697963D01*
X4639558Y12704482D01*
X4705740Y12711000D01*
X5634260Y12711000D01*
X5700442Y12704482D01*
X5700442Y12704482D01*
G37*
G36*
X15651000Y11249000D02*
G01*
X14049000Y11249000D01*
X14049000Y14751000D01*
X15651000Y14751000D01*
X15651000Y11249000D01*
X15651000Y11249000D01*
G37*
G36*
X8951000Y11249000D02*
G01*
X7349000Y11249000D01*
X7349000Y14751000D01*
X8951000Y14751000D01*
X8951000Y11249000D01*
X8951000Y11249000D01*
G37*
G36*
X27360443Y15244481D02*
G01*
X27426627Y15237963D01*
X27596466Y15186443D01*
X27752991Y15102778D01*
X27788729Y15073448D01*
X27890186Y14990186D01*
X27973448Y14888729D01*
X28002778Y14852991D01*
X28086443Y14696466D01*
X28137963Y14526627D01*
X28155359Y14350000D01*
X28137963Y14173373D01*
X28086443Y14003534D01*
X28002778Y13847009D01*
X27973448Y13811271D01*
X27890186Y13709814D01*
X27788729Y13626552D01*
X27752991Y13597222D01*
X27596466Y13513557D01*
X27426627Y13462037D01*
X27360442Y13455518D01*
X27294260Y13449000D01*
X26365740Y13449000D01*
X26299558Y13455518D01*
X26233373Y13462037D01*
X26063534Y13513557D01*
X25907009Y13597222D01*
X25871271Y13626552D01*
X25769814Y13709814D01*
X25686552Y13811271D01*
X25657222Y13847009D01*
X25573557Y14003534D01*
X25522037Y14173373D01*
X25504641Y14350000D01*
X25522037Y14526627D01*
X25573557Y14696466D01*
X25657222Y14852991D01*
X25686552Y14888729D01*
X25769814Y14990186D01*
X25871271Y15073448D01*
X25907009Y15102778D01*
X26063534Y15186443D01*
X26233373Y15237963D01*
X26299557Y15244481D01*
X26365740Y15251000D01*
X27294260Y15251000D01*
X27360443Y15244481D01*
X27360443Y15244481D01*
G37*
G36*
X30700443Y15244481D02*
G01*
X30766627Y15237963D01*
X30936466Y15186443D01*
X31092991Y15102778D01*
X31128729Y15073448D01*
X31230186Y14990186D01*
X31313448Y14888729D01*
X31342778Y14852991D01*
X31426443Y14696466D01*
X31477963Y14526627D01*
X31495359Y14350000D01*
X31477963Y14173373D01*
X31426443Y14003534D01*
X31342778Y13847009D01*
X31313448Y13811271D01*
X31230186Y13709814D01*
X31128729Y13626552D01*
X31092991Y13597222D01*
X30936466Y13513557D01*
X30766627Y13462037D01*
X30700442Y13455518D01*
X30634260Y13449000D01*
X29705740Y13449000D01*
X29639558Y13455518D01*
X29573373Y13462037D01*
X29403534Y13513557D01*
X29247009Y13597222D01*
X29211271Y13626552D01*
X29109814Y13709814D01*
X29026552Y13811271D01*
X28997222Y13847009D01*
X28913557Y14003534D01*
X28862037Y14173373D01*
X28844641Y14350000D01*
X28862037Y14526627D01*
X28913557Y14696466D01*
X28997222Y14852991D01*
X29026552Y14888729D01*
X29109814Y14990186D01*
X29211271Y15073448D01*
X29247009Y15102778D01*
X29403534Y15186443D01*
X29573373Y15237963D01*
X29639557Y15244481D01*
X29705740Y15251000D01*
X30634260Y15251000D01*
X30700443Y15244481D01*
X30700443Y15244481D01*
G37*
G36*
X2360443Y15244481D02*
G01*
X2426627Y15237963D01*
X2596466Y15186443D01*
X2752991Y15102778D01*
X2788729Y15073448D01*
X2890186Y14990186D01*
X2973448Y14888729D01*
X3002778Y14852991D01*
X3086443Y14696466D01*
X3137963Y14526627D01*
X3155359Y14350000D01*
X3137963Y14173373D01*
X3086443Y14003534D01*
X3002778Y13847009D01*
X2973448Y13811271D01*
X2890186Y13709814D01*
X2788729Y13626552D01*
X2752991Y13597222D01*
X2596466Y13513557D01*
X2426627Y13462037D01*
X2360442Y13455518D01*
X2294260Y13449000D01*
X1365740Y13449000D01*
X1299558Y13455518D01*
X1233373Y13462037D01*
X1063534Y13513557D01*
X907009Y13597222D01*
X871271Y13626552D01*
X769814Y13709814D01*
X686552Y13811271D01*
X657222Y13847009D01*
X573557Y14003534D01*
X522037Y14173373D01*
X504641Y14350000D01*
X522037Y14526627D01*
X573557Y14696466D01*
X657222Y14852991D01*
X686552Y14888729D01*
X769814Y14990186D01*
X871271Y15073448D01*
X907009Y15102778D01*
X1063534Y15186443D01*
X1233373Y15237963D01*
X1299557Y15244481D01*
X1365740Y15251000D01*
X2294260Y15251000D01*
X2360443Y15244481D01*
X2360443Y15244481D01*
G37*
G36*
X5700443Y15244481D02*
G01*
X5766627Y15237963D01*
X5936466Y15186443D01*
X6092991Y15102778D01*
X6128729Y15073448D01*
X6230186Y14990186D01*
X6313448Y14888729D01*
X6342778Y14852991D01*
X6426443Y14696466D01*
X6477963Y14526627D01*
X6495359Y14350000D01*
X6477963Y14173373D01*
X6426443Y14003534D01*
X6342778Y13847009D01*
X6313448Y13811271D01*
X6230186Y13709814D01*
X6128729Y13626552D01*
X6092991Y13597222D01*
X5936466Y13513557D01*
X5766627Y13462037D01*
X5700442Y13455518D01*
X5634260Y13449000D01*
X4705740Y13449000D01*
X4639558Y13455518D01*
X4573373Y13462037D01*
X4403534Y13513557D01*
X4247009Y13597222D01*
X4211271Y13626552D01*
X4109814Y13709814D01*
X4026552Y13811271D01*
X3997222Y13847009D01*
X3913557Y14003534D01*
X3862037Y14173373D01*
X3844641Y14350000D01*
X3862037Y14526627D01*
X3913557Y14696466D01*
X3997222Y14852991D01*
X4026552Y14888729D01*
X4109814Y14990186D01*
X4211271Y15073448D01*
X4247009Y15102778D01*
X4403534Y15186443D01*
X4573373Y15237963D01*
X4639557Y15244481D01*
X4705740Y15251000D01*
X5634260Y15251000D01*
X5700443Y15244481D01*
X5700443Y15244481D01*
G37*
M02*
