M48
; DRILL file {KiCad 5.1.4+dfsg1-1} date Sat 09 Nov 2019 04:54:05 AM PST
; FORMAT={-:-/ absolute / inch / decimal}
; #@! TF.CreationDate,2019-11-09T04:54:05-08:00
; #@! TF.GenerationSoftware,Kicad,Pcbnew,5.1.4+dfsg1-1
FMAT,2
INCH
T1C0.0157
T2C0.0394
%
G90
G05
T1
X0.5512Y0.1181
X0.7677Y0.5512
X0.7874Y0.1575
X0.7874Y0.1083
T2
X0.0878Y0.565
X0.0878Y0.465
X0.0878Y0.365
X0.0878Y0.265
X0.0878Y0.165
X0.0878Y0.065
X0.1878Y0.565
X0.1878Y0.465
X0.1878Y0.365
X0.1878Y0.265
X0.1878Y0.165
X0.1878Y0.065
X1.072Y0.565
X1.072Y0.465
X1.072Y0.365
X1.072Y0.265
X1.072Y0.165
X1.072Y0.065
X1.172Y0.565
X1.172Y0.465
X1.172Y0.365
X1.172Y0.265
X1.172Y0.165
X1.172Y0.065
T0
M30
