G04 #@! TF.GenerationSoftware,KiCad,Pcbnew,5.1.4+dfsg1-1*
G04 #@! TF.CreationDate,2019-11-09T04:53:54-08:00*
G04 #@! TF.ProjectId,pmod-level-conv,706d6f64-2d6c-4657-9665-6c2d636f6e76,rev?*
G04 #@! TF.SameCoordinates,PX5095e20PY5204180*
G04 #@! TF.FileFunction,Copper,L2,Bot*
G04 #@! TF.FilePolarity,Positive*
%FSLAX46Y46*%
G04 Gerber Fmt 4.6, Leading zero omitted, Abs format (unit mm)*
G04 Created by KiCad (PCBNEW 5.1.4+dfsg1-1) date 2019-11-09 04:53:54*
%MOMM*%
%LPD*%
G04 APERTURE LIST*
%ADD10R,1.500000X3.400000*%
%ADD11R,1.000000X3.500000*%
%ADD12O,2.540000X1.700000*%
%ADD13C,0.800000*%
%ADD14C,1.000000*%
%ADD15C,0.254000*%
G04 APERTURE END LIST*
D10*
X23850000Y3450000D03*
X17150000Y3450000D03*
D11*
X21500000Y9000000D03*
X19500000Y9000000D03*
D10*
X8150000Y13000000D03*
X14850000Y13000000D03*
D11*
X10500000Y7450000D03*
X12500000Y7450000D03*
D12*
X30170000Y1650000D03*
X26830000Y1650000D03*
X30170000Y4190000D03*
X26830000Y4190000D03*
X30170000Y6730000D03*
X26830000Y6730000D03*
X30170000Y9270000D03*
X26830000Y9270000D03*
X30170000Y11810000D03*
X26830000Y11810000D03*
X30170000Y14350000D03*
X26830000Y14350000D03*
X5170000Y1650000D03*
X1830000Y1650000D03*
X5170000Y4190000D03*
X1830000Y4190000D03*
X5170000Y6730000D03*
X1830000Y6730000D03*
X5170000Y9270000D03*
X1830000Y9270000D03*
X5170000Y11810000D03*
X1830000Y11810000D03*
X5170000Y14350000D03*
X1830000Y14350000D03*
D13*
X20000000Y4000000D03*
X20000000Y2750000D03*
X14000000Y3000000D03*
X19500000Y14000000D03*
D14*
X10500000Y4700000D02*
X12200000Y3000000D01*
X10500000Y7450000D02*
X10500000Y4700000D01*
X12200000Y3000000D02*
X14000000Y3000000D01*
X7450000Y1650000D02*
X4770000Y1650000D01*
X10500000Y4700000D02*
X7450000Y1650000D01*
X29770000Y1650000D02*
X27230000Y1650000D01*
X21500000Y2089998D02*
X21500000Y6250000D01*
X26629999Y1049999D02*
X22539999Y1049999D01*
X21500000Y6250000D02*
X21500000Y9000000D01*
X22539999Y1049999D02*
X21500000Y2089998D01*
X27230000Y1650000D02*
X26629999Y1049999D01*
X21500000Y9000000D02*
X21500000Y12500000D01*
X21500000Y12500000D02*
X20000000Y14000000D01*
X20000000Y14000000D02*
X19500000Y14000000D01*
D15*
G36*
X25169294Y15179014D02*
G01*
X25031401Y14921034D01*
X24946487Y14641111D01*
X24917815Y14350000D01*
X24946487Y14058889D01*
X25031401Y13778966D01*
X25169294Y13520986D01*
X25354866Y13294866D01*
X25580986Y13109294D01*
X25635791Y13080000D01*
X25580986Y13050706D01*
X25354866Y12865134D01*
X25169294Y12639014D01*
X25031401Y12381034D01*
X24946487Y12101111D01*
X24917815Y11810000D01*
X24946487Y11518889D01*
X25031401Y11238966D01*
X25169294Y10980986D01*
X25354866Y10754866D01*
X25580986Y10569294D01*
X25635791Y10540000D01*
X25580986Y10510706D01*
X25354866Y10325134D01*
X25169294Y10099014D01*
X25031401Y9841034D01*
X24946487Y9561111D01*
X24917815Y9270000D01*
X24946487Y8978889D01*
X25031401Y8698966D01*
X25169294Y8440986D01*
X25354866Y8214866D01*
X25580986Y8029294D01*
X25635791Y8000000D01*
X25580986Y7970706D01*
X25354866Y7785134D01*
X25169294Y7559014D01*
X25031401Y7301034D01*
X24946487Y7021111D01*
X24917815Y6730000D01*
X24946487Y6438889D01*
X25031401Y6158966D01*
X25169294Y5900986D01*
X25354866Y5674866D01*
X25580986Y5489294D01*
X25639337Y5458105D01*
X25479381Y5354176D01*
X25270143Y5150252D01*
X25238072Y5103566D01*
X25238072Y5150000D01*
X25225812Y5274482D01*
X25189502Y5394180D01*
X25130537Y5504494D01*
X25051185Y5601185D01*
X24954494Y5680537D01*
X24844180Y5739502D01*
X24724482Y5775812D01*
X24600000Y5788072D01*
X23100000Y5788072D01*
X22975518Y5775812D01*
X22855820Y5739502D01*
X22745506Y5680537D01*
X22648815Y5601185D01*
X22635000Y5584351D01*
X22635000Y7218808D01*
X22638072Y7250000D01*
X22638072Y10750000D01*
X22635000Y10781192D01*
X22635000Y12444259D01*
X22640490Y12500001D01*
X22635000Y12555743D01*
X22635000Y12555752D01*
X22618577Y12722499D01*
X22553676Y12936447D01*
X22448284Y13133623D01*
X22306449Y13306449D01*
X22263140Y13341992D01*
X20841996Y14763135D01*
X20806449Y14806449D01*
X20633623Y14948284D01*
X20436447Y15053676D01*
X20222499Y15118577D01*
X20055752Y15135000D01*
X20055751Y15135000D01*
X20000000Y15140491D01*
X19944249Y15135000D01*
X19444248Y15135000D01*
X19277501Y15118577D01*
X19063553Y15053676D01*
X18866377Y14948284D01*
X18693551Y14806449D01*
X18551716Y14633623D01*
X18446324Y14436447D01*
X18381423Y14222499D01*
X18359509Y14000000D01*
X18381423Y13777501D01*
X18446324Y13563553D01*
X18551716Y13366377D01*
X18693551Y13193551D01*
X18866377Y13051716D01*
X19063553Y12946324D01*
X19277501Y12881423D01*
X19444248Y12865000D01*
X19529869Y12865000D01*
X20365001Y12029867D01*
X20365001Y11271914D01*
X20354494Y11280537D01*
X20244180Y11339502D01*
X20124482Y11375812D01*
X20000000Y11388072D01*
X19785750Y11385000D01*
X19627000Y11226250D01*
X19627000Y9127000D01*
X19647000Y9127000D01*
X19647000Y8873000D01*
X19627000Y8873000D01*
X19627000Y6773750D01*
X19785750Y6615000D01*
X20000000Y6611928D01*
X20124482Y6624188D01*
X20244180Y6660498D01*
X20354494Y6719463D01*
X20365000Y6728085D01*
X20365000Y6194249D01*
X20365001Y6194239D01*
X20365000Y2145750D01*
X20359509Y2089998D01*
X20365000Y2034247D01*
X20381423Y1867500D01*
X20446324Y1653552D01*
X20551716Y1456375D01*
X20693551Y1283549D01*
X20736864Y1248003D01*
X21324866Y660000D01*
X8005577Y660000D01*
X8083623Y701716D01*
X8256449Y843551D01*
X8291996Y886865D01*
X10500000Y3094868D01*
X11358009Y2236860D01*
X11393551Y2193551D01*
X11566377Y2051716D01*
X11763553Y1946324D01*
X11977501Y1881423D01*
X12199999Y1859509D01*
X12255751Y1865000D01*
X14055752Y1865000D01*
X14222499Y1881423D01*
X14436447Y1946324D01*
X14633623Y2051716D01*
X14806449Y2193551D01*
X14948284Y2366377D01*
X15053676Y2563553D01*
X15118577Y2777501D01*
X15140491Y3000000D01*
X15118577Y3222499D01*
X15053676Y3436447D01*
X14948284Y3633623D01*
X14806449Y3806449D01*
X14633623Y3948284D01*
X14436447Y4053676D01*
X14222499Y4118577D01*
X14055752Y4135000D01*
X12670132Y4135000D01*
X11635000Y5170131D01*
X11635000Y5178085D01*
X11645506Y5169463D01*
X11755820Y5110498D01*
X11875518Y5074188D01*
X12000000Y5061928D01*
X12214250Y5065000D01*
X12373000Y5223750D01*
X12373000Y7323000D01*
X12627000Y7323000D01*
X12627000Y5223750D01*
X12785750Y5065000D01*
X13000000Y5061928D01*
X13124482Y5074188D01*
X13244180Y5110498D01*
X13318081Y5150000D01*
X15761928Y5150000D01*
X15761928Y1750000D01*
X15774188Y1625518D01*
X15810498Y1505820D01*
X15869463Y1395506D01*
X15948815Y1298815D01*
X16045506Y1219463D01*
X16155820Y1160498D01*
X16275518Y1124188D01*
X16400000Y1111928D01*
X17900000Y1111928D01*
X18024482Y1124188D01*
X18144180Y1160498D01*
X18254494Y1219463D01*
X18351185Y1298815D01*
X18430537Y1395506D01*
X18489502Y1505820D01*
X18525812Y1625518D01*
X18538072Y1750000D01*
X18538072Y5150000D01*
X18525812Y5274482D01*
X18489502Y5394180D01*
X18430537Y5504494D01*
X18351185Y5601185D01*
X18254494Y5680537D01*
X18144180Y5739502D01*
X18024482Y5775812D01*
X17900000Y5788072D01*
X16400000Y5788072D01*
X16275518Y5775812D01*
X16155820Y5739502D01*
X16045506Y5680537D01*
X15948815Y5601185D01*
X15869463Y5504494D01*
X15810498Y5394180D01*
X15774188Y5274482D01*
X15761928Y5150000D01*
X13318081Y5150000D01*
X13354494Y5169463D01*
X13451185Y5248815D01*
X13530537Y5345506D01*
X13589502Y5455820D01*
X13625812Y5575518D01*
X13638072Y5700000D01*
X13635000Y7164250D01*
X13549250Y7250000D01*
X18361928Y7250000D01*
X18374188Y7125518D01*
X18410498Y7005820D01*
X18469463Y6895506D01*
X18548815Y6798815D01*
X18645506Y6719463D01*
X18755820Y6660498D01*
X18875518Y6624188D01*
X19000000Y6611928D01*
X19214250Y6615000D01*
X19373000Y6773750D01*
X19373000Y8873000D01*
X18523750Y8873000D01*
X18365000Y8714250D01*
X18361928Y7250000D01*
X13549250Y7250000D01*
X13476250Y7323000D01*
X12627000Y7323000D01*
X12373000Y7323000D01*
X12353000Y7323000D01*
X12353000Y7577000D01*
X12373000Y7577000D01*
X12373000Y9676250D01*
X12627000Y9676250D01*
X12627000Y7577000D01*
X13476250Y7577000D01*
X13635000Y7735750D01*
X13638072Y9200000D01*
X13625812Y9324482D01*
X13589502Y9444180D01*
X13530537Y9554494D01*
X13451185Y9651185D01*
X13354494Y9730537D01*
X13244180Y9789502D01*
X13124482Y9825812D01*
X13000000Y9838072D01*
X12785750Y9835000D01*
X12627000Y9676250D01*
X12373000Y9676250D01*
X12214250Y9835000D01*
X12000000Y9838072D01*
X11875518Y9825812D01*
X11755820Y9789502D01*
X11645506Y9730537D01*
X11548815Y9651185D01*
X11500000Y9591704D01*
X11451185Y9651185D01*
X11354494Y9730537D01*
X11244180Y9789502D01*
X11124482Y9825812D01*
X11000000Y9838072D01*
X10000000Y9838072D01*
X9875518Y9825812D01*
X9755820Y9789502D01*
X9645506Y9730537D01*
X9548815Y9651185D01*
X9469463Y9554494D01*
X9410498Y9444180D01*
X9374188Y9324482D01*
X9361928Y9200000D01*
X9361928Y5700000D01*
X9365001Y5668802D01*
X9365001Y5170133D01*
X6979869Y2785000D01*
X6547817Y2785000D01*
X6419014Y2890706D01*
X6360663Y2921895D01*
X6520619Y3025824D01*
X6729857Y3229748D01*
X6895291Y3470574D01*
X7010563Y3739047D01*
X7031476Y3833110D01*
X6910155Y4063000D01*
X5297000Y4063000D01*
X5297000Y4043000D01*
X5043000Y4043000D01*
X5043000Y4063000D01*
X1957000Y4063000D01*
X1957000Y4043000D01*
X1703000Y4043000D01*
X1703000Y4063000D01*
X1683000Y4063000D01*
X1683000Y4317000D01*
X1703000Y4317000D01*
X1703000Y4337000D01*
X1957000Y4337000D01*
X1957000Y4317000D01*
X5043000Y4317000D01*
X5043000Y4337000D01*
X5297000Y4337000D01*
X5297000Y4317000D01*
X6910155Y4317000D01*
X7031476Y4546890D01*
X7010563Y4640953D01*
X6895291Y4909426D01*
X6729857Y5150252D01*
X6520619Y5354176D01*
X6360663Y5458105D01*
X6419014Y5489294D01*
X6645134Y5674866D01*
X6830706Y5900986D01*
X6968599Y6158966D01*
X7053513Y6438889D01*
X7082185Y6730000D01*
X7053513Y7021111D01*
X6968599Y7301034D01*
X6830706Y7559014D01*
X6645134Y7785134D01*
X6419014Y7970706D01*
X6364209Y8000000D01*
X6419014Y8029294D01*
X6645134Y8214866D01*
X6830706Y8440986D01*
X6968599Y8698966D01*
X7053513Y8978889D01*
X7082185Y9270000D01*
X7053513Y9561111D01*
X6968599Y9841034D01*
X6830706Y10099014D01*
X6645134Y10325134D01*
X6419014Y10510706D01*
X6364209Y10540000D01*
X6419014Y10569294D01*
X6645134Y10754866D01*
X6830706Y10980986D01*
X6840602Y10999500D01*
X6869463Y10945506D01*
X6948815Y10848815D01*
X7045506Y10769463D01*
X7155820Y10710498D01*
X7275518Y10674188D01*
X7400000Y10661928D01*
X8900000Y10661928D01*
X9024482Y10674188D01*
X9144180Y10710498D01*
X9254494Y10769463D01*
X9351185Y10848815D01*
X9430537Y10945506D01*
X9489502Y11055820D01*
X9525812Y11175518D01*
X9538072Y11300000D01*
X9538072Y14700000D01*
X13461928Y14700000D01*
X13461928Y11300000D01*
X13474188Y11175518D01*
X13510498Y11055820D01*
X13569463Y10945506D01*
X13648815Y10848815D01*
X13745506Y10769463D01*
X13855820Y10710498D01*
X13975518Y10674188D01*
X14100000Y10661928D01*
X15600000Y10661928D01*
X15724482Y10674188D01*
X15844180Y10710498D01*
X15918081Y10750000D01*
X18361928Y10750000D01*
X18365000Y9285750D01*
X18523750Y9127000D01*
X19373000Y9127000D01*
X19373000Y11226250D01*
X19214250Y11385000D01*
X19000000Y11388072D01*
X18875518Y11375812D01*
X18755820Y11339502D01*
X18645506Y11280537D01*
X18548815Y11201185D01*
X18469463Y11104494D01*
X18410498Y10994180D01*
X18374188Y10874482D01*
X18361928Y10750000D01*
X15918081Y10750000D01*
X15954494Y10769463D01*
X16051185Y10848815D01*
X16130537Y10945506D01*
X16189502Y11055820D01*
X16225812Y11175518D01*
X16238072Y11300000D01*
X16238072Y14700000D01*
X16225812Y14824482D01*
X16189502Y14944180D01*
X16130537Y15054494D01*
X16051185Y15151185D01*
X15954494Y15230537D01*
X15844180Y15289502D01*
X15724482Y15325812D01*
X15600000Y15338072D01*
X14100000Y15338072D01*
X13975518Y15325812D01*
X13855820Y15289502D01*
X13745506Y15230537D01*
X13648815Y15151185D01*
X13569463Y15054494D01*
X13510498Y14944180D01*
X13474188Y14824482D01*
X13461928Y14700000D01*
X9538072Y14700000D01*
X9525812Y14824482D01*
X9489502Y14944180D01*
X9430537Y15054494D01*
X9351185Y15151185D01*
X9254494Y15230537D01*
X9144180Y15289502D01*
X9024482Y15325812D01*
X8900000Y15338072D01*
X7400000Y15338072D01*
X7275518Y15325812D01*
X7155820Y15289502D01*
X7045506Y15230537D01*
X6948815Y15151185D01*
X6886298Y15075008D01*
X6830706Y15179014D01*
X6698588Y15340000D01*
X25301412Y15340000D01*
X25169294Y15179014D01*
X25169294Y15179014D01*
G37*
X25169294Y15179014D02*
X25031401Y14921034D01*
X24946487Y14641111D01*
X24917815Y14350000D01*
X24946487Y14058889D01*
X25031401Y13778966D01*
X25169294Y13520986D01*
X25354866Y13294866D01*
X25580986Y13109294D01*
X25635791Y13080000D01*
X25580986Y13050706D01*
X25354866Y12865134D01*
X25169294Y12639014D01*
X25031401Y12381034D01*
X24946487Y12101111D01*
X24917815Y11810000D01*
X24946487Y11518889D01*
X25031401Y11238966D01*
X25169294Y10980986D01*
X25354866Y10754866D01*
X25580986Y10569294D01*
X25635791Y10540000D01*
X25580986Y10510706D01*
X25354866Y10325134D01*
X25169294Y10099014D01*
X25031401Y9841034D01*
X24946487Y9561111D01*
X24917815Y9270000D01*
X24946487Y8978889D01*
X25031401Y8698966D01*
X25169294Y8440986D01*
X25354866Y8214866D01*
X25580986Y8029294D01*
X25635791Y8000000D01*
X25580986Y7970706D01*
X25354866Y7785134D01*
X25169294Y7559014D01*
X25031401Y7301034D01*
X24946487Y7021111D01*
X24917815Y6730000D01*
X24946487Y6438889D01*
X25031401Y6158966D01*
X25169294Y5900986D01*
X25354866Y5674866D01*
X25580986Y5489294D01*
X25639337Y5458105D01*
X25479381Y5354176D01*
X25270143Y5150252D01*
X25238072Y5103566D01*
X25238072Y5150000D01*
X25225812Y5274482D01*
X25189502Y5394180D01*
X25130537Y5504494D01*
X25051185Y5601185D01*
X24954494Y5680537D01*
X24844180Y5739502D01*
X24724482Y5775812D01*
X24600000Y5788072D01*
X23100000Y5788072D01*
X22975518Y5775812D01*
X22855820Y5739502D01*
X22745506Y5680537D01*
X22648815Y5601185D01*
X22635000Y5584351D01*
X22635000Y7218808D01*
X22638072Y7250000D01*
X22638072Y10750000D01*
X22635000Y10781192D01*
X22635000Y12444259D01*
X22640490Y12500001D01*
X22635000Y12555743D01*
X22635000Y12555752D01*
X22618577Y12722499D01*
X22553676Y12936447D01*
X22448284Y13133623D01*
X22306449Y13306449D01*
X22263140Y13341992D01*
X20841996Y14763135D01*
X20806449Y14806449D01*
X20633623Y14948284D01*
X20436447Y15053676D01*
X20222499Y15118577D01*
X20055752Y15135000D01*
X20055751Y15135000D01*
X20000000Y15140491D01*
X19944249Y15135000D01*
X19444248Y15135000D01*
X19277501Y15118577D01*
X19063553Y15053676D01*
X18866377Y14948284D01*
X18693551Y14806449D01*
X18551716Y14633623D01*
X18446324Y14436447D01*
X18381423Y14222499D01*
X18359509Y14000000D01*
X18381423Y13777501D01*
X18446324Y13563553D01*
X18551716Y13366377D01*
X18693551Y13193551D01*
X18866377Y13051716D01*
X19063553Y12946324D01*
X19277501Y12881423D01*
X19444248Y12865000D01*
X19529869Y12865000D01*
X20365001Y12029867D01*
X20365001Y11271914D01*
X20354494Y11280537D01*
X20244180Y11339502D01*
X20124482Y11375812D01*
X20000000Y11388072D01*
X19785750Y11385000D01*
X19627000Y11226250D01*
X19627000Y9127000D01*
X19647000Y9127000D01*
X19647000Y8873000D01*
X19627000Y8873000D01*
X19627000Y6773750D01*
X19785750Y6615000D01*
X20000000Y6611928D01*
X20124482Y6624188D01*
X20244180Y6660498D01*
X20354494Y6719463D01*
X20365000Y6728085D01*
X20365000Y6194249D01*
X20365001Y6194239D01*
X20365000Y2145750D01*
X20359509Y2089998D01*
X20365000Y2034247D01*
X20381423Y1867500D01*
X20446324Y1653552D01*
X20551716Y1456375D01*
X20693551Y1283549D01*
X20736864Y1248003D01*
X21324866Y660000D01*
X8005577Y660000D01*
X8083623Y701716D01*
X8256449Y843551D01*
X8291996Y886865D01*
X10500000Y3094868D01*
X11358009Y2236860D01*
X11393551Y2193551D01*
X11566377Y2051716D01*
X11763553Y1946324D01*
X11977501Y1881423D01*
X12199999Y1859509D01*
X12255751Y1865000D01*
X14055752Y1865000D01*
X14222499Y1881423D01*
X14436447Y1946324D01*
X14633623Y2051716D01*
X14806449Y2193551D01*
X14948284Y2366377D01*
X15053676Y2563553D01*
X15118577Y2777501D01*
X15140491Y3000000D01*
X15118577Y3222499D01*
X15053676Y3436447D01*
X14948284Y3633623D01*
X14806449Y3806449D01*
X14633623Y3948284D01*
X14436447Y4053676D01*
X14222499Y4118577D01*
X14055752Y4135000D01*
X12670132Y4135000D01*
X11635000Y5170131D01*
X11635000Y5178085D01*
X11645506Y5169463D01*
X11755820Y5110498D01*
X11875518Y5074188D01*
X12000000Y5061928D01*
X12214250Y5065000D01*
X12373000Y5223750D01*
X12373000Y7323000D01*
X12627000Y7323000D01*
X12627000Y5223750D01*
X12785750Y5065000D01*
X13000000Y5061928D01*
X13124482Y5074188D01*
X13244180Y5110498D01*
X13318081Y5150000D01*
X15761928Y5150000D01*
X15761928Y1750000D01*
X15774188Y1625518D01*
X15810498Y1505820D01*
X15869463Y1395506D01*
X15948815Y1298815D01*
X16045506Y1219463D01*
X16155820Y1160498D01*
X16275518Y1124188D01*
X16400000Y1111928D01*
X17900000Y1111928D01*
X18024482Y1124188D01*
X18144180Y1160498D01*
X18254494Y1219463D01*
X18351185Y1298815D01*
X18430537Y1395506D01*
X18489502Y1505820D01*
X18525812Y1625518D01*
X18538072Y1750000D01*
X18538072Y5150000D01*
X18525812Y5274482D01*
X18489502Y5394180D01*
X18430537Y5504494D01*
X18351185Y5601185D01*
X18254494Y5680537D01*
X18144180Y5739502D01*
X18024482Y5775812D01*
X17900000Y5788072D01*
X16400000Y5788072D01*
X16275518Y5775812D01*
X16155820Y5739502D01*
X16045506Y5680537D01*
X15948815Y5601185D01*
X15869463Y5504494D01*
X15810498Y5394180D01*
X15774188Y5274482D01*
X15761928Y5150000D01*
X13318081Y5150000D01*
X13354494Y5169463D01*
X13451185Y5248815D01*
X13530537Y5345506D01*
X13589502Y5455820D01*
X13625812Y5575518D01*
X13638072Y5700000D01*
X13635000Y7164250D01*
X13549250Y7250000D01*
X18361928Y7250000D01*
X18374188Y7125518D01*
X18410498Y7005820D01*
X18469463Y6895506D01*
X18548815Y6798815D01*
X18645506Y6719463D01*
X18755820Y6660498D01*
X18875518Y6624188D01*
X19000000Y6611928D01*
X19214250Y6615000D01*
X19373000Y6773750D01*
X19373000Y8873000D01*
X18523750Y8873000D01*
X18365000Y8714250D01*
X18361928Y7250000D01*
X13549250Y7250000D01*
X13476250Y7323000D01*
X12627000Y7323000D01*
X12373000Y7323000D01*
X12353000Y7323000D01*
X12353000Y7577000D01*
X12373000Y7577000D01*
X12373000Y9676250D01*
X12627000Y9676250D01*
X12627000Y7577000D01*
X13476250Y7577000D01*
X13635000Y7735750D01*
X13638072Y9200000D01*
X13625812Y9324482D01*
X13589502Y9444180D01*
X13530537Y9554494D01*
X13451185Y9651185D01*
X13354494Y9730537D01*
X13244180Y9789502D01*
X13124482Y9825812D01*
X13000000Y9838072D01*
X12785750Y9835000D01*
X12627000Y9676250D01*
X12373000Y9676250D01*
X12214250Y9835000D01*
X12000000Y9838072D01*
X11875518Y9825812D01*
X11755820Y9789502D01*
X11645506Y9730537D01*
X11548815Y9651185D01*
X11500000Y9591704D01*
X11451185Y9651185D01*
X11354494Y9730537D01*
X11244180Y9789502D01*
X11124482Y9825812D01*
X11000000Y9838072D01*
X10000000Y9838072D01*
X9875518Y9825812D01*
X9755820Y9789502D01*
X9645506Y9730537D01*
X9548815Y9651185D01*
X9469463Y9554494D01*
X9410498Y9444180D01*
X9374188Y9324482D01*
X9361928Y9200000D01*
X9361928Y5700000D01*
X9365001Y5668802D01*
X9365001Y5170133D01*
X6979869Y2785000D01*
X6547817Y2785000D01*
X6419014Y2890706D01*
X6360663Y2921895D01*
X6520619Y3025824D01*
X6729857Y3229748D01*
X6895291Y3470574D01*
X7010563Y3739047D01*
X7031476Y3833110D01*
X6910155Y4063000D01*
X5297000Y4063000D01*
X5297000Y4043000D01*
X5043000Y4043000D01*
X5043000Y4063000D01*
X1957000Y4063000D01*
X1957000Y4043000D01*
X1703000Y4043000D01*
X1703000Y4063000D01*
X1683000Y4063000D01*
X1683000Y4317000D01*
X1703000Y4317000D01*
X1703000Y4337000D01*
X1957000Y4337000D01*
X1957000Y4317000D01*
X5043000Y4317000D01*
X5043000Y4337000D01*
X5297000Y4337000D01*
X5297000Y4317000D01*
X6910155Y4317000D01*
X7031476Y4546890D01*
X7010563Y4640953D01*
X6895291Y4909426D01*
X6729857Y5150252D01*
X6520619Y5354176D01*
X6360663Y5458105D01*
X6419014Y5489294D01*
X6645134Y5674866D01*
X6830706Y5900986D01*
X6968599Y6158966D01*
X7053513Y6438889D01*
X7082185Y6730000D01*
X7053513Y7021111D01*
X6968599Y7301034D01*
X6830706Y7559014D01*
X6645134Y7785134D01*
X6419014Y7970706D01*
X6364209Y8000000D01*
X6419014Y8029294D01*
X6645134Y8214866D01*
X6830706Y8440986D01*
X6968599Y8698966D01*
X7053513Y8978889D01*
X7082185Y9270000D01*
X7053513Y9561111D01*
X6968599Y9841034D01*
X6830706Y10099014D01*
X6645134Y10325134D01*
X6419014Y10510706D01*
X6364209Y10540000D01*
X6419014Y10569294D01*
X6645134Y10754866D01*
X6830706Y10980986D01*
X6840602Y10999500D01*
X6869463Y10945506D01*
X6948815Y10848815D01*
X7045506Y10769463D01*
X7155820Y10710498D01*
X7275518Y10674188D01*
X7400000Y10661928D01*
X8900000Y10661928D01*
X9024482Y10674188D01*
X9144180Y10710498D01*
X9254494Y10769463D01*
X9351185Y10848815D01*
X9430537Y10945506D01*
X9489502Y11055820D01*
X9525812Y11175518D01*
X9538072Y11300000D01*
X9538072Y14700000D01*
X13461928Y14700000D01*
X13461928Y11300000D01*
X13474188Y11175518D01*
X13510498Y11055820D01*
X13569463Y10945506D01*
X13648815Y10848815D01*
X13745506Y10769463D01*
X13855820Y10710498D01*
X13975518Y10674188D01*
X14100000Y10661928D01*
X15600000Y10661928D01*
X15724482Y10674188D01*
X15844180Y10710498D01*
X15918081Y10750000D01*
X18361928Y10750000D01*
X18365000Y9285750D01*
X18523750Y9127000D01*
X19373000Y9127000D01*
X19373000Y11226250D01*
X19214250Y11385000D01*
X19000000Y11388072D01*
X18875518Y11375812D01*
X18755820Y11339502D01*
X18645506Y11280537D01*
X18548815Y11201185D01*
X18469463Y11104494D01*
X18410498Y10994180D01*
X18374188Y10874482D01*
X18361928Y10750000D01*
X15918081Y10750000D01*
X15954494Y10769463D01*
X16051185Y10848815D01*
X16130537Y10945506D01*
X16189502Y11055820D01*
X16225812Y11175518D01*
X16238072Y11300000D01*
X16238072Y14700000D01*
X16225812Y14824482D01*
X16189502Y14944180D01*
X16130537Y15054494D01*
X16051185Y15151185D01*
X15954494Y15230537D01*
X15844180Y15289502D01*
X15724482Y15325812D01*
X15600000Y15338072D01*
X14100000Y15338072D01*
X13975518Y15325812D01*
X13855820Y15289502D01*
X13745506Y15230537D01*
X13648815Y15151185D01*
X13569463Y15054494D01*
X13510498Y14944180D01*
X13474188Y14824482D01*
X13461928Y14700000D01*
X9538072Y14700000D01*
X9525812Y14824482D01*
X9489502Y14944180D01*
X9430537Y15054494D01*
X9351185Y15151185D01*
X9254494Y15230537D01*
X9144180Y15289502D01*
X9024482Y15325812D01*
X8900000Y15338072D01*
X7400000Y15338072D01*
X7275518Y15325812D01*
X7155820Y15289502D01*
X7045506Y15230537D01*
X6948815Y15151185D01*
X6886298Y15075008D01*
X6830706Y15179014D01*
X6698588Y15340000D01*
X25301412Y15340000D01*
X25169294Y15179014D01*
G36*
X26957000Y4317000D02*
G01*
X30043000Y4317000D01*
X30043000Y4337000D01*
X30297000Y4337000D01*
X30297000Y4317000D01*
X30317000Y4317000D01*
X30317000Y4063000D01*
X30297000Y4063000D01*
X30297000Y4043000D01*
X30043000Y4043000D01*
X30043000Y4063000D01*
X26957000Y4063000D01*
X26957000Y4043000D01*
X26703000Y4043000D01*
X26703000Y4063000D01*
X26683000Y4063000D01*
X26683000Y4317000D01*
X26703000Y4317000D01*
X26703000Y4337000D01*
X26957000Y4337000D01*
X26957000Y4317000D01*
X26957000Y4317000D01*
G37*
X26957000Y4317000D02*
X30043000Y4317000D01*
X30043000Y4337000D01*
X30297000Y4337000D01*
X30297000Y4317000D01*
X30317000Y4317000D01*
X30317000Y4063000D01*
X30297000Y4063000D01*
X30297000Y4043000D01*
X30043000Y4043000D01*
X30043000Y4063000D01*
X26957000Y4063000D01*
X26957000Y4043000D01*
X26703000Y4043000D01*
X26703000Y4063000D01*
X26683000Y4063000D01*
X26683000Y4317000D01*
X26703000Y4317000D01*
X26703000Y4337000D01*
X26957000Y4337000D01*
X26957000Y4317000D01*
M02*
