M48
; DRILL file {KiCad 7.0.9-7.0.9~ubuntu22.04.1} date Fri 24 Nov 2023 05:50:01 PM
; FORMAT={-:-/ absolute / metric / decimal}
; #@! TF.CreationDate,2023-11-24T17:50:01-08:00
; #@! TF.GenerationSoftware,Kicad,Pcbnew,7.0.9-7.0.9~ubuntu22.04.1
; #@! TF.FileFunction,MixedPlating,1,4
FMAT,2
METRIC
; #@! TA.AperFunction,Plated,PTH,ViaDrill
T1C0.300
; #@! TA.AperFunction,Plated,PTH,ComponentDrill
T2C0.500
; #@! TA.AperFunction,Plated,PTH,ComponentDrill
T3C0.600
; #@! TA.AperFunction,Plated,PTH,ComponentDrill
T4C0.800
; #@! TA.AperFunction,Plated,PTH,ComponentDrill
T5C1.000
; #@! TA.AperFunction,NonPlated,NPTH,ComponentDrill
T6C0.650
%
G90
G05
T1
X53.0Y-109.0
X57.0Y-109.0
X58.5Y-109.5
X58.75Y-92.0
X58.75Y-94.5
X58.75Y-97.0
X58.75Y-98.0
X58.75Y-102.0
X58.75Y-104.75
X58.75Y-107.0
X61.0Y-93.75
X61.0Y-98.75
X61.0Y-103.75
X61.0Y-108.75
X62.485Y-93.75
X62.485Y-98.75
X62.485Y-103.75
X62.485Y-108.75
X63.153Y-105.175
X63.25Y-110.25
X63.5Y-95.5
X63.75Y-100.25
X64.75Y-92.975
X64.75Y-94.5
X64.75Y-97.975
X64.75Y-102.975
X64.75Y-104.75
X64.75Y-107.975
X64.843Y-99.434
X65.25Y-109.525
X65.748Y-102.1
X65.75Y-92.0
X65.75Y-94.5
X65.75Y-97.0
X65.75Y-99.5
X65.75Y-106.05
X65.75Y-107.25
X65.767Y-90.985
X65.767Y-95.985
X65.767Y-101.05
X66.75Y-110.0
X67.0Y-105.25
X68.0Y-93.75
X68.0Y-98.75
X68.0Y-103.75
X68.0Y-108.75
X69.485Y-93.75
X69.485Y-98.75
X69.485Y-103.75
X69.485Y-108.75
X70.333Y-90.083
X70.5Y-99.5
X70.75Y-95.25
X71.0Y-105.0
X71.779Y-90.302
X71.871Y-98.45
X71.888Y-95.384
X71.905Y-93.758
X71.909Y-108.473
X72.0Y-105.25
X77.5Y-101.0
X78.0Y-103.75
X78.5Y-105.5
X78.552Y-102.325
X82.831Y-99.844
X83.5Y-105.75
X84.275Y-94.979
X85.75Y-102.5
X87.5Y-97.75
X87.5Y-106.75
X87.75Y-100.5
X88.75Y-90.0
X88.75Y-92.25
X89.0Y-98.5
X89.0Y-107.0
X90.5Y-91.75
X90.5Y-93.75
X90.5Y-102.0
X92.25Y-99.75
X93.5Y-101.5
X96.25Y-100.25
X96.5Y-98.0
X98.0Y-93.5
X98.0Y-106.0
X99.0Y-106.5
X99.5Y-93.75
X99.5Y-102.0
X101.25Y-99.75
X103.0Y-101.5
X105.75Y-93.75
X106.0Y-100.5
X107.25Y-90.75
X107.25Y-106.0
X107.25Y-109.75
X108.5Y-109.5
X108.75Y-93.75
X108.75Y-106.0
X110.25Y-93.75
X110.25Y-102.0
X113.0Y-98.5
X115.25Y-97.5
X116.25Y-97.5
X116.75Y-100.25
X118.25Y-100.25
X121.0Y-97.5
X122.0Y-97.5
X126.75Y-108.5
X129.0Y-90.0
X129.0Y-109.5
T4
X73.7Y-91.1
X73.7Y-93.64
X73.7Y-96.18
X73.7Y-98.72
X73.7Y-101.26
X73.7Y-103.8
X73.7Y-106.34
X73.7Y-108.88
X81.32Y-91.1
X81.32Y-93.64
X81.32Y-96.18
X81.32Y-98.72
X81.32Y-101.26
X81.32Y-103.8
X81.32Y-106.34
X81.32Y-108.88
T5
X52.73Y-93.65
X52.73Y-96.19
X52.73Y-98.73
X52.73Y-101.27
X52.73Y-103.81
X52.73Y-106.35
X55.27Y-93.65
X55.27Y-96.19
X55.27Y-98.73
X55.27Y-101.27
X55.27Y-103.81
X55.27Y-106.35
X127.73Y-93.65
X127.73Y-96.19
X127.73Y-98.73
X127.73Y-101.27
X127.73Y-103.81
X127.73Y-106.35
X130.27Y-93.65
X130.27Y-96.19
X130.27Y-98.73
X130.27Y-101.27
X130.27Y-103.81
X130.27Y-106.35
T6
X115.61Y-94.81
X121.39Y-94.81
T2
X114.18Y-94.71G85X114.18Y-95.91
G05
X122.82Y-94.71G85X122.82Y-95.91
G05
T3
X114.18Y-90.58G85X114.18Y-91.68
G05
X122.82Y-90.58G85X122.82Y-91.68
G05
T0
M30
