G04 #@! TF.GenerationSoftware,KiCad,Pcbnew,7.0.9-7.0.9~ubuntu22.04.1*
G04 #@! TF.CreationDate,2023-11-24T17:50:00-08:00*
G04 #@! TF.ProjectId,pmod-level-conv-2,706d6f64-2d6c-4657-9665-6c2d636f6e76,rev?*
G04 #@! TF.SameCoordinates,Original*
G04 #@! TF.FileFunction,Soldermask,Bot*
G04 #@! TF.FilePolarity,Negative*
%FSLAX46Y46*%
G04 Gerber Fmt 4.6, Leading zero omitted, Abs format (unit mm)*
G04 Created by KiCad (PCBNEW 7.0.9-7.0.9~ubuntu22.04.1) date 2023-11-24 17:50:00*
%MOMM*%
%LPD*%
G01*
G04 APERTURE LIST*
G04 Aperture macros list*
%AMRoundRect*
0 Rectangle with rounded corners*
0 $1 Rounding radius*
0 $2 $3 $4 $5 $6 $7 $8 $9 X,Y pos of 4 corners*
0 Add a 4 corners polygon primitive as box body*
4,1,4,$2,$3,$4,$5,$6,$7,$8,$9,$2,$3,0*
0 Add four circle primitives for the rounded corners*
1,1,$1+$1,$2,$3*
1,1,$1+$1,$4,$5*
1,1,$1+$1,$6,$7*
1,1,$1+$1,$8,$9*
0 Add four rect primitives between the rounded corners*
20,1,$1+$1,$2,$3,$4,$5,0*
20,1,$1+$1,$4,$5,$6,$7,0*
20,1,$1+$1,$6,$7,$8,$9,0*
20,1,$1+$1,$8,$9,$2,$3,0*%
G04 Aperture macros list end*
%ADD10O,2.540000X1.700000*%
%ADD11R,2.400000X1.600000*%
%ADD12O,2.400000X1.600000*%
%ADD13RoundRect,0.147500X-0.172500X0.147500X-0.172500X-0.147500X0.172500X-0.147500X0.172500X0.147500X0*%
%ADD14RoundRect,0.150000X-0.512500X-0.150000X0.512500X-0.150000X0.512500X0.150000X-0.512500X0.150000X0*%
%ADD15RoundRect,0.218750X-0.218750X-0.256250X0.218750X-0.256250X0.218750X0.256250X-0.218750X0.256250X0*%
%ADD16RoundRect,0.218750X0.218750X0.256250X-0.218750X0.256250X-0.218750X-0.256250X0.218750X-0.256250X0*%
%ADD17R,0.950000X3.000000*%
%ADD18R,1.500000X2.500000*%
%ADD19RoundRect,0.147500X0.147500X0.172500X-0.147500X0.172500X-0.147500X-0.172500X0.147500X-0.172500X0*%
%ADD20RoundRect,0.147500X-0.147500X-0.172500X0.147500X-0.172500X0.147500X0.172500X-0.147500X0.172500X0*%
%ADD21C,0.650000*%
%ADD22R,0.300000X1.750000*%
%ADD23O,1.000000X2.100000*%
%ADD24O,0.900000X2.100000*%
G04 APERTURE END LIST*
D10*
G04 #@! TO.C,J2*
X127330000Y-93650000D03*
X127330000Y-96190000D03*
X127330000Y-98730000D03*
X127330000Y-101270000D03*
X127330000Y-103810000D03*
X127330000Y-106350000D03*
X130670000Y-93650000D03*
X130670000Y-96190000D03*
X130670000Y-98730000D03*
X130670000Y-101270000D03*
X130670000Y-103810000D03*
X130670000Y-106350000D03*
G04 #@! TD*
G04 #@! TO.C,J1*
X55670000Y-93650000D03*
X55670000Y-96190000D03*
X55670000Y-98730000D03*
X55670000Y-101270000D03*
X55670000Y-103810000D03*
X55670000Y-106350000D03*
X52330000Y-93650000D03*
X52330000Y-96190000D03*
X52330000Y-98730000D03*
X52330000Y-101270000D03*
X52330000Y-103810000D03*
X52330000Y-106350000D03*
G04 #@! TD*
D11*
G04 #@! TO.C,SW1*
X73700000Y-91100000D03*
D12*
X73700000Y-93640000D03*
X73700000Y-96180000D03*
X73700000Y-98720000D03*
X73700000Y-101260000D03*
X73700000Y-103800000D03*
X73700000Y-106340000D03*
X73700000Y-108880000D03*
X81320000Y-108880000D03*
X81320000Y-106340000D03*
X81320000Y-103800000D03*
X81320000Y-101260000D03*
X81320000Y-98720000D03*
X81320000Y-96180000D03*
X81320000Y-93640000D03*
X81320000Y-91100000D03*
G04 #@! TD*
D13*
G04 #@! TO.C,R7*
X64000000Y-101015000D03*
X64000000Y-101985000D03*
G04 #@! TD*
D14*
G04 #@! TO.C,U6*
X66862500Y-97950000D03*
X66862500Y-97000000D03*
X66862500Y-96050000D03*
X69137500Y-96050000D03*
X69137500Y-97000000D03*
X69137500Y-97950000D03*
G04 #@! TD*
G04 #@! TO.C,U2*
X59862500Y-97950000D03*
X59862500Y-97000000D03*
X59862500Y-96050000D03*
X62137500Y-96050000D03*
X62137500Y-97000000D03*
X62137500Y-97950000D03*
G04 #@! TD*
D15*
G04 #@! TO.C,C20*
X94712500Y-101500000D03*
X96287500Y-101500000D03*
G04 #@! TD*
D13*
G04 #@! TO.C,R19*
X71000000Y-101015000D03*
X71000000Y-101985000D03*
G04 #@! TD*
D16*
G04 #@! TO.C,C23*
X111787500Y-98500000D03*
X110212500Y-98500000D03*
G04 #@! TD*
D15*
G04 #@! TO.C,C26*
X128212500Y-108500000D03*
X129787500Y-108500000D03*
G04 #@! TD*
D13*
G04 #@! TO.C,R16*
X71000000Y-96015000D03*
X71000000Y-96985000D03*
G04 #@! TD*
D14*
G04 #@! TO.C,U1*
X59862500Y-92950000D03*
X59862500Y-92000000D03*
X59862500Y-91050000D03*
X62137500Y-91050000D03*
X62137500Y-92000000D03*
X62137500Y-92950000D03*
G04 #@! TD*
D17*
G04 #@! TO.C,J3*
X90500000Y-104133300D03*
X89000000Y-104133300D03*
X87500001Y-104133300D03*
D18*
X92500000Y-108033300D03*
X85500000Y-108033300D03*
G04 #@! TD*
D19*
G04 #@! TO.C,C16*
X69485000Y-109500000D03*
X68515000Y-109500000D03*
G04 #@! TD*
G04 #@! TO.C,C4*
X62485000Y-99500000D03*
X61515000Y-99500000D03*
G04 #@! TD*
D13*
G04 #@! TO.C,R23*
X65000000Y-106015000D03*
X65000000Y-106985000D03*
G04 #@! TD*
D19*
G04 #@! TO.C,C8*
X62485000Y-109500000D03*
X61515000Y-109500000D03*
G04 #@! TD*
D20*
G04 #@! TO.C,C7*
X59515000Y-109500000D03*
X60485000Y-109500000D03*
G04 #@! TD*
D13*
G04 #@! TO.C,R17*
X65000000Y-96015000D03*
X65000000Y-96985000D03*
G04 #@! TD*
D20*
G04 #@! TO.C,C5*
X59515000Y-104500000D03*
X60485000Y-104500000D03*
G04 #@! TD*
D13*
G04 #@! TO.C,R2*
X64000000Y-91015000D03*
X64000000Y-91985000D03*
G04 #@! TD*
G04 #@! TO.C,R20*
X65000000Y-101015000D03*
X65000000Y-101985000D03*
G04 #@! TD*
G04 #@! TO.C,R1*
X58000000Y-91015000D03*
X58000000Y-91985000D03*
G04 #@! TD*
G04 #@! TO.C,R15*
X71000000Y-93015000D03*
X71000000Y-93985000D03*
G04 #@! TD*
G04 #@! TO.C,R22*
X71000000Y-106015000D03*
X71000000Y-106985000D03*
G04 #@! TD*
D14*
G04 #@! TO.C,U8*
X66916190Y-107950000D03*
X66916190Y-107000000D03*
X66916190Y-106050000D03*
X69191190Y-106050000D03*
X69191190Y-107000000D03*
X69191190Y-107950000D03*
G04 #@! TD*
D13*
G04 #@! TO.C,R21*
X71000000Y-103015000D03*
X71000000Y-103985000D03*
G04 #@! TD*
D20*
G04 #@! TO.C,C9*
X66515000Y-94500000D03*
X67485000Y-94500000D03*
G04 #@! TD*
D19*
G04 #@! TO.C,C2*
X62485000Y-94500000D03*
X61515000Y-94500000D03*
G04 #@! TD*
G04 #@! TO.C,C14*
X69485000Y-104500000D03*
X68515000Y-104500000D03*
G04 #@! TD*
D20*
G04 #@! TO.C,R26*
X127015000Y-90000000D03*
X127985000Y-90000000D03*
G04 #@! TD*
D13*
G04 #@! TO.C,R14*
X65000000Y-91015000D03*
X65000000Y-91985000D03*
G04 #@! TD*
D14*
G04 #@! TO.C,U3*
X59862500Y-102950000D03*
X59862500Y-102000000D03*
X59862500Y-101050000D03*
X62137500Y-101050000D03*
X62137500Y-102000000D03*
X62137500Y-102950000D03*
G04 #@! TD*
D20*
G04 #@! TO.C,C3*
X59515000Y-99500000D03*
X60485000Y-99500000D03*
G04 #@! TD*
D21*
G04 #@! TO.C,J9*
X115610000Y-94810000D03*
X121390000Y-94810000D03*
D22*
X115150000Y-96150000D03*
X115950000Y-96150000D03*
X117250000Y-96150000D03*
X118250000Y-96150000D03*
X118750000Y-96150000D03*
X119750000Y-96150000D03*
X121050000Y-96150000D03*
X121850000Y-96150000D03*
X121550000Y-96150000D03*
X120750000Y-96150000D03*
X120250000Y-96150000D03*
X119250000Y-96150000D03*
X117750000Y-96150000D03*
X116750000Y-96150000D03*
X116250000Y-96150000D03*
X115450000Y-96150000D03*
D23*
X114180000Y-91130000D03*
D24*
X114180000Y-95310000D03*
D23*
X122820000Y-91130000D03*
D24*
X122820000Y-95310000D03*
G04 #@! TD*
D13*
G04 #@! TO.C,R12*
X64000000Y-108015000D03*
X64000000Y-108985000D03*
G04 #@! TD*
D19*
G04 #@! TO.C,C12*
X69485000Y-99500000D03*
X68515000Y-99500000D03*
G04 #@! TD*
D17*
G04 #@! TO.C,J7*
X110250000Y-104133300D03*
X108750000Y-104133300D03*
X107250001Y-104133300D03*
X105750001Y-104133300D03*
D18*
X112250000Y-108033300D03*
X103750000Y-108033300D03*
G04 #@! TD*
D19*
G04 #@! TO.C,C6*
X62485000Y-104500000D03*
X61515000Y-104500000D03*
G04 #@! TD*
D20*
G04 #@! TO.C,C13*
X66515000Y-104500000D03*
X67485000Y-104500000D03*
G04 #@! TD*
D15*
G04 #@! TO.C,C22*
X104212500Y-101500000D03*
X105787500Y-101500000D03*
G04 #@! TD*
D16*
G04 #@! TO.C,C21*
X101287500Y-98500000D03*
X99712500Y-98500000D03*
G04 #@! TD*
D19*
G04 #@! TO.C,C10*
X69485000Y-94500000D03*
X68515000Y-94500000D03*
G04 #@! TD*
D17*
G04 #@! TO.C,J10*
X118250000Y-104133300D03*
X116750000Y-104133300D03*
D18*
X120250000Y-108033300D03*
X114750000Y-108033300D03*
G04 #@! TD*
D14*
G04 #@! TO.C,U4*
X59862500Y-107950000D03*
X59862500Y-107000000D03*
X59862500Y-106050000D03*
X62137500Y-106050000D03*
X62137500Y-107000000D03*
X62137500Y-107950000D03*
G04 #@! TD*
D13*
G04 #@! TO.C,R8*
X58000000Y-101015000D03*
X58000000Y-101985000D03*
G04 #@! TD*
D20*
G04 #@! TO.C,C1*
X59515000Y-94500000D03*
X60485000Y-94500000D03*
G04 #@! TD*
G04 #@! TO.C,C15*
X66515000Y-109500000D03*
X67485000Y-109500000D03*
G04 #@! TD*
D17*
G04 #@! TO.C,J6*
X96500000Y-95866700D03*
X98000000Y-95866700D03*
X99499999Y-95866700D03*
D18*
X94500000Y-91966700D03*
X101500000Y-91966700D03*
G04 #@! TD*
D13*
G04 #@! TO.C,R10*
X64000000Y-106015000D03*
X64000000Y-106985000D03*
G04 #@! TD*
D14*
G04 #@! TO.C,U7*
X66862500Y-102950000D03*
X66862500Y-102000000D03*
X66862500Y-101050000D03*
X69137500Y-101050000D03*
X69137500Y-102000000D03*
X69137500Y-102950000D03*
G04 #@! TD*
D13*
G04 #@! TO.C,R4*
X64000000Y-96015000D03*
X64000000Y-96985000D03*
G04 #@! TD*
G04 #@! TO.C,R18*
X71000000Y-98015000D03*
X71000000Y-98985000D03*
G04 #@! TD*
G04 #@! TO.C,R11*
X58000000Y-106015000D03*
X58000000Y-106985000D03*
G04 #@! TD*
G04 #@! TO.C,R3*
X64000000Y-93015000D03*
X64000000Y-93985000D03*
G04 #@! TD*
D17*
G04 #@! TO.C,J4*
X87500000Y-95866700D03*
X89000000Y-95866700D03*
X90499999Y-95866700D03*
D18*
X85500000Y-91966700D03*
X92500000Y-91966700D03*
G04 #@! TD*
D13*
G04 #@! TO.C,R6*
X64000000Y-98015000D03*
X64000000Y-98985000D03*
G04 #@! TD*
G04 #@! TO.C,R13*
X71000000Y-91015000D03*
X71000000Y-91985000D03*
G04 #@! TD*
D17*
G04 #@! TO.C,J5*
X99500000Y-104133300D03*
X98000000Y-104133300D03*
X96500001Y-104133300D03*
D18*
X101500000Y-108033300D03*
X94500000Y-108033300D03*
G04 #@! TD*
D16*
G04 #@! TO.C,C19*
X92287500Y-98500000D03*
X90712500Y-98500000D03*
G04 #@! TD*
D15*
G04 #@! TO.C,C18*
X85712500Y-101500000D03*
X87287500Y-101500000D03*
G04 #@! TD*
G04 #@! TO.C,C17*
X121212500Y-98500000D03*
X122787500Y-98500000D03*
G04 #@! TD*
D20*
G04 #@! TO.C,C11*
X66515000Y-99500000D03*
X67485000Y-99500000D03*
G04 #@! TD*
D14*
G04 #@! TO.C,U5*
X66862500Y-92950000D03*
X66862500Y-92000000D03*
X66862500Y-91050000D03*
X69137500Y-91050000D03*
X69137500Y-92000000D03*
X69137500Y-92950000D03*
G04 #@! TD*
D13*
G04 #@! TO.C,R5*
X58000000Y-96015000D03*
X58000000Y-96985000D03*
G04 #@! TD*
D20*
G04 #@! TO.C,R25*
X125015000Y-90010000D03*
X125985000Y-90010000D03*
G04 #@! TD*
D13*
G04 #@! TO.C,R24*
X71000000Y-108015000D03*
X71000000Y-108985000D03*
G04 #@! TD*
D17*
G04 #@! TO.C,J8*
X105750000Y-95866700D03*
X107250000Y-95866700D03*
X108749999Y-95866700D03*
X110249999Y-95866700D03*
D18*
X103750000Y-91966700D03*
X112250000Y-91966700D03*
G04 #@! TD*
D16*
G04 #@! TO.C,C25*
X55787500Y-109000000D03*
X54212500Y-109000000D03*
G04 #@! TD*
D13*
G04 #@! TO.C,R9*
X64000000Y-103015000D03*
X64000000Y-103985000D03*
G04 #@! TD*
D15*
G04 #@! TO.C,C24*
X116712500Y-101500000D03*
X118287500Y-101500000D03*
G04 #@! TD*
M02*
