G04 #@! TF.GenerationSoftware,KiCad,Pcbnew,7.0.9-7.0.9~ubuntu22.04.1*
G04 #@! TF.CreationDate,2023-11-24T17:50:00-08:00*
G04 #@! TF.ProjectId,pmod-level-conv-2,706d6f64-2d6c-4657-9665-6c2d636f6e76,rev?*
G04 #@! TF.SameCoordinates,Original*
G04 #@! TF.FileFunction,Legend,Top*
G04 #@! TF.FilePolarity,Positive*
%FSLAX46Y46*%
G04 Gerber Fmt 4.6, Leading zero omitted, Abs format (unit mm)*
G04 Created by KiCad (PCBNEW 7.0.9-7.0.9~ubuntu22.04.1) date 2023-11-24 17:50:00*
%MOMM*%
%LPD*%
G01*
G04 APERTURE LIST*
%ADD10C,0.300000*%
%ADD11C,1.000000*%
%ADD12C,0.120000*%
G04 APERTURE END LIST*
D10*
X83173558Y-90656304D02*
X84697368Y-91227733D01*
X84697368Y-91227733D02*
X83173558Y-91799161D01*
X71947368Y-108406302D02*
X70423558Y-108977731D01*
X70423558Y-108977731D02*
X71947368Y-109549159D01*
X83173558Y-93192018D02*
X84697368Y-93763447D01*
X84697368Y-93763447D02*
X83173558Y-94334875D01*
X61097257Y-107571429D02*
X61002019Y-107666667D01*
X61002019Y-107666667D02*
X60906780Y-107857143D01*
X60906780Y-107857143D02*
X60906780Y-108047619D01*
X60906780Y-108047619D02*
X61002019Y-108238095D01*
X61002019Y-108238095D02*
X61097257Y-108333334D01*
X61097257Y-108333334D02*
X61287733Y-108428572D01*
X61287733Y-108428572D02*
X61478209Y-108428572D01*
X61478209Y-108428572D02*
X61668685Y-108333334D01*
X61668685Y-108333334D02*
X61763923Y-108238095D01*
X61763923Y-108238095D02*
X61859161Y-108047619D01*
X61859161Y-108047619D02*
X61859161Y-107857143D01*
X61859161Y-107857143D02*
X61763923Y-107666667D01*
X61763923Y-107666667D02*
X61668685Y-107571429D01*
X60906780Y-107571429D02*
X61668685Y-107571429D01*
X61668685Y-107571429D02*
X61763923Y-107476191D01*
X61763923Y-107476191D02*
X61763923Y-107380953D01*
X61763923Y-107380953D02*
X61668685Y-107190476D01*
X61668685Y-107190476D02*
X61478209Y-107095238D01*
X61478209Y-107095238D02*
X61002019Y-107095238D01*
X61002019Y-107095238D02*
X60716304Y-107285715D01*
X60716304Y-107285715D02*
X60525828Y-107571429D01*
X60525828Y-107571429D02*
X60430590Y-107952381D01*
X60430590Y-107952381D02*
X60525828Y-108333334D01*
X60525828Y-108333334D02*
X60716304Y-108619048D01*
X60716304Y-108619048D02*
X61002019Y-108809524D01*
X61002019Y-108809524D02*
X61382971Y-108904762D01*
X61382971Y-108904762D02*
X61763923Y-108809524D01*
X61763923Y-108809524D02*
X62049638Y-108619048D01*
X62049638Y-108619048D02*
X62240114Y-108333334D01*
X62240114Y-108333334D02*
X62335352Y-107952381D01*
X62335352Y-107952381D02*
X62240114Y-107571429D01*
X62240114Y-107571429D02*
X62049638Y-107285715D01*
X60049638Y-106523809D02*
X60049638Y-105380952D01*
X62049638Y-105952381D02*
X60049638Y-105952381D01*
X62049638Y-104428571D02*
X61954400Y-104619047D01*
X61954400Y-104619047D02*
X61859161Y-104714285D01*
X61859161Y-104714285D02*
X61668685Y-104809523D01*
X61668685Y-104809523D02*
X61097257Y-104809523D01*
X61097257Y-104809523D02*
X60906780Y-104714285D01*
X60906780Y-104714285D02*
X60811542Y-104619047D01*
X60811542Y-104619047D02*
X60716304Y-104428571D01*
X60716304Y-104428571D02*
X60716304Y-104142856D01*
X60716304Y-104142856D02*
X60811542Y-103952380D01*
X60811542Y-103952380D02*
X60906780Y-103857142D01*
X60906780Y-103857142D02*
X61097257Y-103761904D01*
X61097257Y-103761904D02*
X61668685Y-103761904D01*
X61668685Y-103761904D02*
X61859161Y-103857142D01*
X61859161Y-103857142D02*
X61954400Y-103952380D01*
X61954400Y-103952380D02*
X62049638Y-104142856D01*
X62049638Y-104142856D02*
X62049638Y-104428571D01*
X62049638Y-102904761D02*
X60716304Y-102904761D01*
X60906780Y-102904761D02*
X60811542Y-102809523D01*
X60811542Y-102809523D02*
X60716304Y-102619047D01*
X60716304Y-102619047D02*
X60716304Y-102333332D01*
X60716304Y-102333332D02*
X60811542Y-102142856D01*
X60811542Y-102142856D02*
X61002019Y-102047618D01*
X61002019Y-102047618D02*
X62049638Y-102047618D01*
X61002019Y-102047618D02*
X60811542Y-101952380D01*
X60811542Y-101952380D02*
X60716304Y-101761904D01*
X60716304Y-101761904D02*
X60716304Y-101476190D01*
X60716304Y-101476190D02*
X60811542Y-101285713D01*
X60811542Y-101285713D02*
X61002019Y-101190475D01*
X61002019Y-101190475D02*
X62049638Y-101190475D01*
X62049638Y-100238094D02*
X60049638Y-100238094D01*
X62049638Y-99095237D02*
X60906780Y-99952380D01*
X60049638Y-99095237D02*
X61192495Y-100238094D01*
X61954400Y-97476189D02*
X62049638Y-97666665D01*
X62049638Y-97666665D02*
X62049638Y-98047618D01*
X62049638Y-98047618D02*
X61954400Y-98238094D01*
X61954400Y-98238094D02*
X61763923Y-98333332D01*
X61763923Y-98333332D02*
X61002019Y-98333332D01*
X61002019Y-98333332D02*
X60811542Y-98238094D01*
X60811542Y-98238094D02*
X60716304Y-98047618D01*
X60716304Y-98047618D02*
X60716304Y-97666665D01*
X60716304Y-97666665D02*
X60811542Y-97476189D01*
X60811542Y-97476189D02*
X61002019Y-97380951D01*
X61002019Y-97380951D02*
X61192495Y-97380951D01*
X61192495Y-97380951D02*
X61382971Y-98333332D01*
X62049638Y-95666665D02*
X60049638Y-95666665D01*
X61954400Y-95666665D02*
X62049638Y-95857141D01*
X62049638Y-95857141D02*
X62049638Y-96238094D01*
X62049638Y-96238094D02*
X61954400Y-96428570D01*
X61954400Y-96428570D02*
X61859161Y-96523808D01*
X61859161Y-96523808D02*
X61668685Y-96619046D01*
X61668685Y-96619046D02*
X61097257Y-96619046D01*
X61097257Y-96619046D02*
X60906780Y-96523808D01*
X60906780Y-96523808D02*
X60811542Y-96428570D01*
X60811542Y-96428570D02*
X60716304Y-96238094D01*
X60716304Y-96238094D02*
X60716304Y-95857141D01*
X60716304Y-95857141D02*
X60811542Y-95666665D01*
X62049638Y-93857141D02*
X60049638Y-93857141D01*
X61954400Y-93857141D02*
X62049638Y-94047617D01*
X62049638Y-94047617D02*
X62049638Y-94428570D01*
X62049638Y-94428570D02*
X61954400Y-94619046D01*
X61954400Y-94619046D02*
X61859161Y-94714284D01*
X61859161Y-94714284D02*
X61668685Y-94809522D01*
X61668685Y-94809522D02*
X61097257Y-94809522D01*
X61097257Y-94809522D02*
X60906780Y-94714284D01*
X60906780Y-94714284D02*
X60811542Y-94619046D01*
X60811542Y-94619046D02*
X60716304Y-94428570D01*
X60716304Y-94428570D02*
X60716304Y-94047617D01*
X60716304Y-94047617D02*
X60811542Y-93857141D01*
X62049638Y-92904760D02*
X60716304Y-92904760D01*
X60049638Y-92904760D02*
X60144876Y-92999998D01*
X60144876Y-92999998D02*
X60240114Y-92904760D01*
X60240114Y-92904760D02*
X60144876Y-92809522D01*
X60144876Y-92809522D02*
X60049638Y-92904760D01*
X60049638Y-92904760D02*
X60240114Y-92904760D01*
X61954400Y-91190474D02*
X62049638Y-91380950D01*
X62049638Y-91380950D02*
X62049638Y-91761903D01*
X62049638Y-91761903D02*
X61954400Y-91952379D01*
X61954400Y-91952379D02*
X61763923Y-92047617D01*
X61763923Y-92047617D02*
X61002019Y-92047617D01*
X61002019Y-92047617D02*
X60811542Y-91952379D01*
X60811542Y-91952379D02*
X60716304Y-91761903D01*
X60716304Y-91761903D02*
X60716304Y-91380950D01*
X60716304Y-91380950D02*
X60811542Y-91190474D01*
X60811542Y-91190474D02*
X61002019Y-91095236D01*
X61002019Y-91095236D02*
X61192495Y-91095236D01*
X61192495Y-91095236D02*
X61382971Y-92047617D01*
X65269638Y-106047619D02*
X63269638Y-106047619D01*
X63269638Y-106047619D02*
X65269638Y-104904762D01*
X65269638Y-104904762D02*
X63269638Y-104904762D01*
X65269638Y-103666667D02*
X65174400Y-103857143D01*
X65174400Y-103857143D02*
X65079161Y-103952381D01*
X65079161Y-103952381D02*
X64888685Y-104047619D01*
X64888685Y-104047619D02*
X64317257Y-104047619D01*
X64317257Y-104047619D02*
X64126780Y-103952381D01*
X64126780Y-103952381D02*
X64031542Y-103857143D01*
X64031542Y-103857143D02*
X63936304Y-103666667D01*
X63936304Y-103666667D02*
X63936304Y-103380952D01*
X63936304Y-103380952D02*
X64031542Y-103190476D01*
X64031542Y-103190476D02*
X64126780Y-103095238D01*
X64126780Y-103095238D02*
X64317257Y-103000000D01*
X64317257Y-103000000D02*
X64888685Y-103000000D01*
X64888685Y-103000000D02*
X65079161Y-103095238D01*
X65079161Y-103095238D02*
X65174400Y-103190476D01*
X65174400Y-103190476D02*
X65269638Y-103380952D01*
X65269638Y-103380952D02*
X65269638Y-103666667D01*
X63936304Y-102333333D02*
X65269638Y-101857143D01*
X65269638Y-101857143D02*
X63936304Y-101380952D01*
X63460114Y-100714285D02*
X63364876Y-100619047D01*
X63364876Y-100619047D02*
X63269638Y-100428571D01*
X63269638Y-100428571D02*
X63269638Y-99952380D01*
X63269638Y-99952380D02*
X63364876Y-99761904D01*
X63364876Y-99761904D02*
X63460114Y-99666666D01*
X63460114Y-99666666D02*
X63650590Y-99571428D01*
X63650590Y-99571428D02*
X63841066Y-99571428D01*
X63841066Y-99571428D02*
X64126780Y-99666666D01*
X64126780Y-99666666D02*
X65269638Y-100809523D01*
X65269638Y-100809523D02*
X65269638Y-99571428D01*
X63269638Y-98333333D02*
X63269638Y-98142856D01*
X63269638Y-98142856D02*
X63364876Y-97952380D01*
X63364876Y-97952380D02*
X63460114Y-97857142D01*
X63460114Y-97857142D02*
X63650590Y-97761904D01*
X63650590Y-97761904D02*
X64031542Y-97666666D01*
X64031542Y-97666666D02*
X64507733Y-97666666D01*
X64507733Y-97666666D02*
X64888685Y-97761904D01*
X64888685Y-97761904D02*
X65079161Y-97857142D01*
X65079161Y-97857142D02*
X65174400Y-97952380D01*
X65174400Y-97952380D02*
X65269638Y-98142856D01*
X65269638Y-98142856D02*
X65269638Y-98333333D01*
X65269638Y-98333333D02*
X65174400Y-98523809D01*
X65174400Y-98523809D02*
X65079161Y-98619047D01*
X65079161Y-98619047D02*
X64888685Y-98714285D01*
X64888685Y-98714285D02*
X64507733Y-98809523D01*
X64507733Y-98809523D02*
X64031542Y-98809523D01*
X64031542Y-98809523D02*
X63650590Y-98714285D01*
X63650590Y-98714285D02*
X63460114Y-98619047D01*
X63460114Y-98619047D02*
X63364876Y-98523809D01*
X63364876Y-98523809D02*
X63269638Y-98333333D01*
X63460114Y-96904761D02*
X63364876Y-96809523D01*
X63364876Y-96809523D02*
X63269638Y-96619047D01*
X63269638Y-96619047D02*
X63269638Y-96142856D01*
X63269638Y-96142856D02*
X63364876Y-95952380D01*
X63364876Y-95952380D02*
X63460114Y-95857142D01*
X63460114Y-95857142D02*
X63650590Y-95761904D01*
X63650590Y-95761904D02*
X63841066Y-95761904D01*
X63841066Y-95761904D02*
X64126780Y-95857142D01*
X64126780Y-95857142D02*
X65269638Y-96999999D01*
X65269638Y-96999999D02*
X65269638Y-95761904D01*
X63269638Y-95095237D02*
X63269638Y-93857142D01*
X63269638Y-93857142D02*
X64031542Y-94523809D01*
X64031542Y-94523809D02*
X64031542Y-94238094D01*
X64031542Y-94238094D02*
X64126780Y-94047618D01*
X64126780Y-94047618D02*
X64222019Y-93952380D01*
X64222019Y-93952380D02*
X64412495Y-93857142D01*
X64412495Y-93857142D02*
X64888685Y-93857142D01*
X64888685Y-93857142D02*
X65079161Y-93952380D01*
X65079161Y-93952380D02*
X65174400Y-94047618D01*
X65174400Y-94047618D02*
X65269638Y-94238094D01*
X65269638Y-94238094D02*
X65269638Y-94809523D01*
X65269638Y-94809523D02*
X65174400Y-94999999D01*
X65174400Y-94999999D02*
X65079161Y-95095237D01*
X89571428Y-109159638D02*
X88428571Y-109159638D01*
X88999999Y-109159638D02*
X88999999Y-107159638D01*
X88999999Y-107159638D02*
X88809523Y-107445352D01*
X88809523Y-107445352D02*
X88619047Y-107635828D01*
X88619047Y-107635828D02*
X88428571Y-107731066D01*
X71947368Y-103334874D02*
X70423558Y-103906303D01*
X70423558Y-103906303D02*
X71947368Y-104477731D01*
X71947368Y-93192018D02*
X70423558Y-93763447D01*
X70423558Y-93763447D02*
X71947368Y-94334875D01*
X114833333Y-107159638D02*
X115499999Y-109159638D01*
X115499999Y-109159638D02*
X116166666Y-107159638D01*
X117976190Y-108969161D02*
X117880952Y-109064400D01*
X117880952Y-109064400D02*
X117595238Y-109159638D01*
X117595238Y-109159638D02*
X117404762Y-109159638D01*
X117404762Y-109159638D02*
X117119047Y-109064400D01*
X117119047Y-109064400D02*
X116928571Y-108873923D01*
X116928571Y-108873923D02*
X116833333Y-108683447D01*
X116833333Y-108683447D02*
X116738095Y-108302495D01*
X116738095Y-108302495D02*
X116738095Y-108016780D01*
X116738095Y-108016780D02*
X116833333Y-107635828D01*
X116833333Y-107635828D02*
X116928571Y-107445352D01*
X116928571Y-107445352D02*
X117119047Y-107254876D01*
X117119047Y-107254876D02*
X117404762Y-107159638D01*
X117404762Y-107159638D02*
X117595238Y-107159638D01*
X117595238Y-107159638D02*
X117880952Y-107254876D01*
X117880952Y-107254876D02*
X117976190Y-107350114D01*
X119976190Y-108969161D02*
X119880952Y-109064400D01*
X119880952Y-109064400D02*
X119595238Y-109159638D01*
X119595238Y-109159638D02*
X119404762Y-109159638D01*
X119404762Y-109159638D02*
X119119047Y-109064400D01*
X119119047Y-109064400D02*
X118928571Y-108873923D01*
X118928571Y-108873923D02*
X118833333Y-108683447D01*
X118833333Y-108683447D02*
X118738095Y-108302495D01*
X118738095Y-108302495D02*
X118738095Y-108016780D01*
X118738095Y-108016780D02*
X118833333Y-107635828D01*
X118833333Y-107635828D02*
X118928571Y-107445352D01*
X118928571Y-107445352D02*
X119119047Y-107254876D01*
X119119047Y-107254876D02*
X119404762Y-107159638D01*
X119404762Y-107159638D02*
X119595238Y-107159638D01*
X119595238Y-107159638D02*
X119880952Y-107254876D01*
X119880952Y-107254876D02*
X119976190Y-107350114D01*
X121166666Y-92840361D02*
X120500000Y-90840361D01*
X120500000Y-90840361D02*
X119833333Y-92840361D01*
X118023809Y-91030838D02*
X118119047Y-90935600D01*
X118119047Y-90935600D02*
X118404761Y-90840361D01*
X118404761Y-90840361D02*
X118595237Y-90840361D01*
X118595237Y-90840361D02*
X118880952Y-90935600D01*
X118880952Y-90935600D02*
X119071428Y-91126076D01*
X119071428Y-91126076D02*
X119166666Y-91316552D01*
X119166666Y-91316552D02*
X119261904Y-91697504D01*
X119261904Y-91697504D02*
X119261904Y-91983219D01*
X119261904Y-91983219D02*
X119166666Y-92364171D01*
X119166666Y-92364171D02*
X119071428Y-92554647D01*
X119071428Y-92554647D02*
X118880952Y-92745123D01*
X118880952Y-92745123D02*
X118595237Y-92840361D01*
X118595237Y-92840361D02*
X118404761Y-92840361D01*
X118404761Y-92840361D02*
X118119047Y-92745123D01*
X118119047Y-92745123D02*
X118023809Y-92649885D01*
X116023809Y-91030838D02*
X116119047Y-90935600D01*
X116119047Y-90935600D02*
X116404761Y-90840361D01*
X116404761Y-90840361D02*
X116595237Y-90840361D01*
X116595237Y-90840361D02*
X116880952Y-90935600D01*
X116880952Y-90935600D02*
X117071428Y-91126076D01*
X117071428Y-91126076D02*
X117166666Y-91316552D01*
X117166666Y-91316552D02*
X117261904Y-91697504D01*
X117261904Y-91697504D02*
X117261904Y-91983219D01*
X117261904Y-91983219D02*
X117166666Y-92364171D01*
X117166666Y-92364171D02*
X117071428Y-92554647D01*
X117071428Y-92554647D02*
X116880952Y-92745123D01*
X116880952Y-92745123D02*
X116595237Y-92840361D01*
X116595237Y-92840361D02*
X116404761Y-92840361D01*
X116404761Y-92840361D02*
X116119047Y-92745123D01*
X116119047Y-92745123D02*
X116023809Y-92649885D01*
X97333333Y-107159638D02*
X98571428Y-107159638D01*
X98571428Y-107159638D02*
X97904761Y-107921542D01*
X97904761Y-107921542D02*
X98190476Y-107921542D01*
X98190476Y-107921542D02*
X98380952Y-108016780D01*
X98380952Y-108016780D02*
X98476190Y-108112019D01*
X98476190Y-108112019D02*
X98571428Y-108302495D01*
X98571428Y-108302495D02*
X98571428Y-108778685D01*
X98571428Y-108778685D02*
X98476190Y-108969161D01*
X98476190Y-108969161D02*
X98380952Y-109064400D01*
X98380952Y-109064400D02*
X98190476Y-109159638D01*
X98190476Y-109159638D02*
X97619047Y-109159638D01*
X97619047Y-109159638D02*
X97428571Y-109064400D01*
X97428571Y-109064400D02*
X97333333Y-108969161D01*
X97619047Y-92173695D02*
X97619047Y-90840361D01*
X98095238Y-92935600D02*
X98571428Y-91507028D01*
X98571428Y-91507028D02*
X97333333Y-91507028D01*
X83173558Y-105870588D02*
X84697368Y-106442017D01*
X84697368Y-106442017D02*
X83173558Y-107013445D01*
X110857142Y-92840361D02*
X109523809Y-92840361D01*
X109523809Y-92840361D02*
X110380952Y-90840361D01*
X108761904Y-91602266D02*
X107238095Y-91602266D01*
X107999999Y-90840361D02*
X107999999Y-92364171D01*
X106000000Y-91983219D02*
X106190476Y-92078457D01*
X106190476Y-92078457D02*
X106285714Y-92173695D01*
X106285714Y-92173695D02*
X106380952Y-92364171D01*
X106380952Y-92364171D02*
X106380952Y-92459409D01*
X106380952Y-92459409D02*
X106285714Y-92649885D01*
X106285714Y-92649885D02*
X106190476Y-92745123D01*
X106190476Y-92745123D02*
X106000000Y-92840361D01*
X106000000Y-92840361D02*
X105619047Y-92840361D01*
X105619047Y-92840361D02*
X105428571Y-92745123D01*
X105428571Y-92745123D02*
X105333333Y-92649885D01*
X105333333Y-92649885D02*
X105238095Y-92459409D01*
X105238095Y-92459409D02*
X105238095Y-92364171D01*
X105238095Y-92364171D02*
X105333333Y-92173695D01*
X105333333Y-92173695D02*
X105428571Y-92078457D01*
X105428571Y-92078457D02*
X105619047Y-91983219D01*
X105619047Y-91983219D02*
X106000000Y-91983219D01*
X106000000Y-91983219D02*
X106190476Y-91887980D01*
X106190476Y-91887980D02*
X106285714Y-91792742D01*
X106285714Y-91792742D02*
X106380952Y-91602266D01*
X106380952Y-91602266D02*
X106380952Y-91221314D01*
X106380952Y-91221314D02*
X106285714Y-91030838D01*
X106285714Y-91030838D02*
X106190476Y-90935600D01*
X106190476Y-90935600D02*
X106000000Y-90840361D01*
X106000000Y-90840361D02*
X105619047Y-90840361D01*
X105619047Y-90840361D02*
X105428571Y-90935600D01*
X105428571Y-90935600D02*
X105333333Y-91030838D01*
X105333333Y-91030838D02*
X105238095Y-91221314D01*
X105238095Y-91221314D02*
X105238095Y-91602266D01*
X105238095Y-91602266D02*
X105333333Y-91792742D01*
X105333333Y-91792742D02*
X105428571Y-91887980D01*
X105428571Y-91887980D02*
X105619047Y-91983219D01*
X71947368Y-90656304D02*
X70423558Y-91227733D01*
X70423558Y-91227733D02*
X71947368Y-91799161D01*
X83173558Y-108406302D02*
X84697368Y-108977731D01*
X84697368Y-108977731D02*
X83173558Y-109549159D01*
X106285714Y-107159638D02*
X105333333Y-107159638D01*
X105333333Y-107159638D02*
X105238095Y-108112019D01*
X105238095Y-108112019D02*
X105333333Y-108016780D01*
X105333333Y-108016780D02*
X105523809Y-107921542D01*
X105523809Y-107921542D02*
X106000000Y-107921542D01*
X106000000Y-107921542D02*
X106190476Y-108016780D01*
X106190476Y-108016780D02*
X106285714Y-108112019D01*
X106285714Y-108112019D02*
X106380952Y-108302495D01*
X106380952Y-108302495D02*
X106380952Y-108778685D01*
X106380952Y-108778685D02*
X106285714Y-108969161D01*
X106285714Y-108969161D02*
X106190476Y-109064400D01*
X106190476Y-109064400D02*
X106000000Y-109159638D01*
X106000000Y-109159638D02*
X105523809Y-109159638D01*
X105523809Y-109159638D02*
X105333333Y-109064400D01*
X105333333Y-109064400D02*
X105238095Y-108969161D01*
X107238095Y-108397733D02*
X108761905Y-108397733D01*
X108000000Y-109159638D02*
X108000000Y-107635828D01*
X110571428Y-107159638D02*
X110190475Y-107159638D01*
X110190475Y-107159638D02*
X109999999Y-107254876D01*
X109999999Y-107254876D02*
X109904761Y-107350114D01*
X109904761Y-107350114D02*
X109714285Y-107635828D01*
X109714285Y-107635828D02*
X109619047Y-108016780D01*
X109619047Y-108016780D02*
X109619047Y-108778685D01*
X109619047Y-108778685D02*
X109714285Y-108969161D01*
X109714285Y-108969161D02*
X109809523Y-109064400D01*
X109809523Y-109064400D02*
X109999999Y-109159638D01*
X109999999Y-109159638D02*
X110380952Y-109159638D01*
X110380952Y-109159638D02*
X110571428Y-109064400D01*
X110571428Y-109064400D02*
X110666666Y-108969161D01*
X110666666Y-108969161D02*
X110761904Y-108778685D01*
X110761904Y-108778685D02*
X110761904Y-108302495D01*
X110761904Y-108302495D02*
X110666666Y-108112019D01*
X110666666Y-108112019D02*
X110571428Y-108016780D01*
X110571428Y-108016780D02*
X110380952Y-107921542D01*
X110380952Y-107921542D02*
X109999999Y-107921542D01*
X109999999Y-107921542D02*
X109809523Y-108016780D01*
X109809523Y-108016780D02*
X109714285Y-108112019D01*
X109714285Y-108112019D02*
X109619047Y-108302495D01*
X71947368Y-98263446D02*
X70423558Y-98834875D01*
X70423558Y-98834875D02*
X71947368Y-99406303D01*
X83173558Y-95727732D02*
X84697368Y-96299161D01*
X84697368Y-96299161D02*
X83173558Y-96870589D01*
X71947368Y-100799160D02*
X70423558Y-101370589D01*
X70423558Y-101370589D02*
X71947368Y-101942017D01*
X83173558Y-100799160D02*
X84697368Y-101370589D01*
X84697368Y-101370589D02*
X83173558Y-101942017D01*
X83173558Y-98263446D02*
X84697368Y-98834875D01*
X84697368Y-98834875D02*
X83173558Y-99406303D01*
X89571428Y-92649885D02*
X89476190Y-92745123D01*
X89476190Y-92745123D02*
X89285714Y-92840361D01*
X89285714Y-92840361D02*
X88809523Y-92840361D01*
X88809523Y-92840361D02*
X88619047Y-92745123D01*
X88619047Y-92745123D02*
X88523809Y-92649885D01*
X88523809Y-92649885D02*
X88428571Y-92459409D01*
X88428571Y-92459409D02*
X88428571Y-92268933D01*
X88428571Y-92268933D02*
X88523809Y-91983219D01*
X88523809Y-91983219D02*
X89666666Y-90840361D01*
X89666666Y-90840361D02*
X88428571Y-90840361D01*
X83173558Y-103334874D02*
X84697368Y-103906303D01*
X84697368Y-103906303D02*
X83173558Y-104477731D01*
X71947368Y-95727732D02*
X70423558Y-96299161D01*
X70423558Y-96299161D02*
X71947368Y-96870589D01*
X71947368Y-105870588D02*
X70423558Y-106442017D01*
X70423558Y-106442017D02*
X71947368Y-107013445D01*
D11*
G04 #@! TO.C,J2*
X127360000Y-92140000D02*
G75*
G03*
X127360000Y-92140000I-100000J0D01*
G01*
G04 #@! TO.C,J1*
X55750000Y-92030000D02*
G75*
G03*
X55750000Y-92030000I-200000J0D01*
G01*
D12*
G04 #@! TO.C,SW1*
X72260000Y-89710000D02*
X72260000Y-110270000D01*
X72260000Y-110270000D02*
X82760000Y-110270000D01*
X75260000Y-89770000D02*
X75260000Y-110210000D01*
X75260000Y-110210000D02*
X79760000Y-110210000D01*
X76510000Y-89770000D02*
X75260000Y-89770000D01*
X79760000Y-89770000D02*
X78510000Y-89770000D01*
X79760000Y-110210000D02*
X79760000Y-89770000D01*
X82760000Y-89710000D02*
X72260000Y-89710000D01*
X82760000Y-110270000D02*
X82760000Y-89710000D01*
X76510000Y-89770000D02*
G75*
G03*
X78510000Y-89770000I1000000J0D01*
G01*
G04 #@! TD*
M02*
