G04 #@! TF.GenerationSoftware,KiCad,Pcbnew,7.0.9-7.0.9~ubuntu22.04.1*
G04 #@! TF.CreationDate,2023-11-24T17:50:00-08:00*
G04 #@! TF.ProjectId,pmod-level-conv-2,706d6f64-2d6c-4657-9665-6c2d636f6e76,rev?*
G04 #@! TF.SameCoordinates,Original*
G04 #@! TF.FileFunction,Copper,L3,Inr*
G04 #@! TF.FilePolarity,Positive*
%FSLAX46Y46*%
G04 Gerber Fmt 4.6, Leading zero omitted, Abs format (unit mm)*
G04 Created by KiCad (PCBNEW 7.0.9-7.0.9~ubuntu22.04.1) date 2023-11-24 17:50:00*
%MOMM*%
%LPD*%
G01*
G04 APERTURE LIST*
G04 #@! TA.AperFunction,ComponentPad*
%ADD10O,2.540000X1.700000*%
G04 #@! TD*
G04 #@! TA.AperFunction,ComponentPad*
%ADD11R,2.400000X1.600000*%
G04 #@! TD*
G04 #@! TA.AperFunction,ComponentPad*
%ADD12O,2.400000X1.600000*%
G04 #@! TD*
G04 #@! TA.AperFunction,ComponentPad*
%ADD13O,1.000000X2.100000*%
G04 #@! TD*
G04 #@! TA.AperFunction,ComponentPad*
%ADD14O,0.900000X2.100000*%
G04 #@! TD*
G04 #@! TA.AperFunction,ViaPad*
%ADD15C,0.600000*%
G04 #@! TD*
G04 #@! TA.AperFunction,Conductor*
%ADD16C,0.250000*%
G04 #@! TD*
G04 #@! TA.AperFunction,Conductor*
%ADD17C,1.000000*%
G04 #@! TD*
G04 APERTURE END LIST*
D10*
G04 #@! TO.N,/B1*
G04 #@! TO.C,J2*
X127330000Y-93650000D03*
G04 #@! TO.N,/B2*
X127330000Y-96190000D03*
G04 #@! TO.N,/B3*
X127330000Y-98730000D03*
G04 #@! TO.N,/B4*
X127330000Y-101270000D03*
G04 #@! TO.N,GND*
X127330000Y-103810000D03*
G04 #@! TO.N,VCC*
X127330000Y-106350000D03*
G04 #@! TO.N,/B5*
X130670000Y-93650000D03*
G04 #@! TO.N,/B6*
X130670000Y-96190000D03*
G04 #@! TO.N,/B7*
X130670000Y-98730000D03*
G04 #@! TO.N,/B8*
X130670000Y-101270000D03*
G04 #@! TO.N,GND*
X130670000Y-103810000D03*
G04 #@! TO.N,VCC*
X130670000Y-106350000D03*
G04 #@! TD*
G04 #@! TO.N,/A1*
G04 #@! TO.C,J1*
X55670000Y-93650000D03*
G04 #@! TO.N,/A2*
X55670000Y-96190000D03*
G04 #@! TO.N,/A3*
X55670000Y-98730000D03*
G04 #@! TO.N,/A4*
X55670000Y-101270000D03*
G04 #@! TO.N,GND*
X55670000Y-103810000D03*
G04 #@! TO.N,+3.3V*
X55670000Y-106350000D03*
G04 #@! TO.N,/A5*
X52330000Y-93650000D03*
G04 #@! TO.N,/A6*
X52330000Y-96190000D03*
G04 #@! TO.N,/A7*
X52330000Y-98730000D03*
G04 #@! TO.N,/A8*
X52330000Y-101270000D03*
G04 #@! TO.N,GND*
X52330000Y-103810000D03*
G04 #@! TO.N,+3.3V*
X52330000Y-106350000D03*
G04 #@! TD*
D11*
G04 #@! TO.N,+3.3V*
G04 #@! TO.C,SW1*
X73700000Y-91100000D03*
D12*
X73700000Y-93640000D03*
X73700000Y-96180000D03*
X73700000Y-98720000D03*
X73700000Y-101260000D03*
X73700000Y-103800000D03*
X73700000Y-106340000D03*
X73700000Y-108880000D03*
G04 #@! TO.N,/DIR8*
X81320000Y-108880000D03*
G04 #@! TO.N,/DIR7*
X81320000Y-106340000D03*
G04 #@! TO.N,/DIR6*
X81320000Y-103800000D03*
G04 #@! TO.N,/DIR5*
X81320000Y-101260000D03*
G04 #@! TO.N,/DIR4*
X81320000Y-98720000D03*
G04 #@! TO.N,/DIR3*
X81320000Y-96180000D03*
G04 #@! TO.N,/DIR2*
X81320000Y-93640000D03*
G04 #@! TO.N,/DIR1*
X81320000Y-91100000D03*
G04 #@! TD*
D13*
G04 #@! TO.N,GND*
G04 #@! TO.C,J9*
X114180000Y-91130000D03*
D14*
X114180000Y-95310000D03*
D13*
X122820000Y-91130000D03*
D14*
X122820000Y-95310000D03*
G04 #@! TD*
D15*
G04 #@! TO.N,+3.3V*
X58500000Y-109500000D03*
X67000000Y-105250000D03*
X58750000Y-94500000D03*
X66750000Y-110000000D03*
X65750000Y-94500000D03*
X58750000Y-104750000D03*
X57000000Y-109000000D03*
X65750000Y-99500000D03*
X58750000Y-98000000D03*
G04 #@! TO.N,GND*
X71905483Y-93757998D03*
X85750000Y-102500000D03*
X68000000Y-93750000D03*
X90500000Y-102000000D03*
X99500000Y-102000000D03*
X101250000Y-99750000D03*
X70500000Y-99500000D03*
X58750000Y-92000000D03*
X61000000Y-93750000D03*
X63250000Y-110250000D03*
X58750000Y-107000000D03*
X64842724Y-99433533D03*
X129000000Y-90000000D03*
X65750000Y-97000000D03*
X110250000Y-102000000D03*
X103000000Y-101500000D03*
X65750000Y-92000000D03*
X68000000Y-103750000D03*
X61000000Y-103750000D03*
X61000000Y-108750000D03*
X105750000Y-93750000D03*
X122000000Y-97500000D03*
X64750000Y-104750000D03*
X113000000Y-98500000D03*
X64750000Y-94500000D03*
X71000000Y-105000000D03*
X68000000Y-98750000D03*
X68000000Y-108750000D03*
X53000000Y-109000000D03*
X65750000Y-107250000D03*
X93500000Y-101500000D03*
X92250000Y-99750000D03*
X65748191Y-102099830D03*
X58750000Y-97000000D03*
X129000000Y-109500000D03*
X58750000Y-102000000D03*
X115250000Y-97500000D03*
X118250000Y-100250000D03*
X61000000Y-98750000D03*
X96500000Y-98000000D03*
X87500000Y-97750000D03*
G04 #@! TO.N,VCC*
X69485000Y-93750000D03*
X121000000Y-97500000D03*
X126750000Y-108500000D03*
X116750000Y-100250000D03*
X70750000Y-95250000D03*
X110250000Y-93750000D03*
X69485000Y-98750000D03*
X70333271Y-90083271D03*
X116250000Y-97500000D03*
X62485000Y-108750000D03*
X62485000Y-93750000D03*
X87500000Y-106750000D03*
X96250000Y-100250000D03*
X78551870Y-102325000D03*
X63500000Y-95500000D03*
X62485000Y-98750000D03*
X106000000Y-100500000D03*
X62485000Y-103750000D03*
X63750000Y-100250000D03*
X99500000Y-93750000D03*
X90500000Y-93750000D03*
X87750000Y-100500000D03*
X69485000Y-103750000D03*
X69485000Y-108750000D03*
G04 #@! TO.N,/A5*
X65767219Y-90984570D03*
G04 #@! TO.N,/A6*
X65767219Y-95984570D03*
G04 #@! TO.N,/A7*
X65767219Y-101050000D03*
G04 #@! TO.N,/A8*
X65750000Y-106050000D03*
G04 #@! TO.N,/B1*
X88750000Y-90000000D03*
X88750000Y-92250000D03*
X99000000Y-106500000D03*
X89000000Y-107000000D03*
G04 #@! TO.N,/B2*
X90500000Y-91750000D03*
X82831373Y-99843839D03*
X89000000Y-98500000D03*
G04 #@! TO.N,/B3*
X78000000Y-103750000D03*
X98000000Y-106000000D03*
X83500000Y-105750000D03*
X77500000Y-101000000D03*
G04 #@! TO.N,/B4*
X65250000Y-109525000D03*
X63152812Y-105175000D03*
X98000000Y-93500000D03*
G04 #@! TO.N,/B5*
X71778592Y-90301782D03*
X108750000Y-106000000D03*
X108500000Y-109500000D03*
G04 #@! TO.N,/B6*
X71888477Y-95384163D03*
X107250000Y-106000000D03*
X107250000Y-109750000D03*
G04 #@! TO.N,/B7*
X107250000Y-90750000D03*
G04 #@! TO.N,/B8*
X108750000Y-93750000D03*
G04 #@! TO.N,/DIR1*
X64750000Y-92975000D03*
G04 #@! TO.N,/DIR2*
X64750000Y-97975000D03*
G04 #@! TO.N,/DIR3*
X64750000Y-102975000D03*
G04 #@! TO.N,/DIR4*
X64750000Y-107975000D03*
G04 #@! TO.N,/DIR6*
X71870944Y-98450086D03*
X84274683Y-94979275D03*
G04 #@! TO.N,/DIR7*
X72000000Y-105250000D03*
X78500000Y-105500000D03*
G04 #@! TO.N,/DIR8*
X71908720Y-108473318D03*
G04 #@! TD*
D16*
G04 #@! TO.N,VCC*
X62485000Y-108750000D02*
X66903984Y-108750000D01*
D17*
X71264760Y-89151782D02*
X78151782Y-89151782D01*
D16*
X62485000Y-103750000D02*
X66903984Y-103750000D01*
X68710000Y-92975000D02*
X67678984Y-92975000D01*
X63500000Y-93750000D02*
X62485000Y-93750000D01*
X66903984Y-98750000D02*
X67678984Y-97975000D01*
X63750000Y-98750000D02*
X66903984Y-98750000D01*
X66903984Y-108750000D02*
X67678984Y-107975000D01*
X67678984Y-102975000D02*
X68710000Y-102975000D01*
X63500000Y-95500000D02*
X63500000Y-93750000D01*
D17*
X69485000Y-103750000D02*
X69485000Y-108750000D01*
D16*
X67678984Y-92975000D02*
X66903984Y-93750000D01*
X63750000Y-100250000D02*
X63750000Y-98750000D01*
X69485000Y-93750000D02*
X68710000Y-92975000D01*
D17*
X71174340Y-110439340D02*
X79189340Y-110439340D01*
X69485000Y-108750000D02*
X71174340Y-110439340D01*
D16*
X68710000Y-102975000D02*
X69485000Y-103750000D01*
X67678984Y-97975000D02*
X68710000Y-97975000D01*
X68710000Y-97975000D02*
X69485000Y-98750000D01*
D17*
X69485000Y-93750000D02*
X69485000Y-90931542D01*
D16*
X62485000Y-98750000D02*
X63750000Y-98750000D01*
D17*
X70333271Y-90083271D02*
X71264760Y-89151782D01*
D16*
X67678984Y-107975000D02*
X68710000Y-107975000D01*
D17*
X69485000Y-98750000D02*
X69485000Y-95250000D01*
D16*
X66903984Y-93750000D02*
X63500000Y-93750000D01*
X69485000Y-95250000D02*
X70750000Y-95250000D01*
D17*
X69485000Y-90931542D02*
X70333271Y-90083271D01*
D16*
X68710000Y-107975000D02*
X69485000Y-108750000D01*
X66903984Y-103750000D02*
X67678984Y-102975000D01*
D17*
X69485000Y-95250000D02*
X69485000Y-93750000D01*
G04 #@! TD*
G04 #@! TA.AperFunction,Conductor*
G04 #@! TO.N,+3.3V*
G36*
X70372851Y-88769685D02*
G01*
X70418606Y-88822489D01*
X70428550Y-88891647D01*
X70399525Y-88955203D01*
X70393498Y-88961675D01*
X70072181Y-89282992D01*
X69847174Y-89507999D01*
X69847173Y-89508000D01*
X68999358Y-90355814D01*
X68985729Y-90367593D01*
X68966468Y-90381932D01*
X68932898Y-90421939D01*
X68929253Y-90425918D01*
X68923409Y-90431764D01*
X68903059Y-90457501D01*
X68853695Y-90516331D01*
X68849729Y-90522361D01*
X68849682Y-90522330D01*
X68845630Y-90528689D01*
X68845679Y-90528719D01*
X68841889Y-90534863D01*
X68809424Y-90604483D01*
X68774960Y-90673108D01*
X68772488Y-90679899D01*
X68772432Y-90679878D01*
X68769960Y-90686992D01*
X68770015Y-90687011D01*
X68767742Y-90693869D01*
X68759975Y-90731488D01*
X68752207Y-90769107D01*
X68739039Y-90824667D01*
X68734498Y-90843828D01*
X68733661Y-90850996D01*
X68733601Y-90850989D01*
X68732835Y-90858487D01*
X68732895Y-90858493D01*
X68732265Y-90865682D01*
X68734500Y-90942458D01*
X68734500Y-92475500D01*
X68714815Y-92542539D01*
X68662011Y-92588294D01*
X68610500Y-92599500D01*
X67730787Y-92599500D01*
X67705342Y-92596861D01*
X67694716Y-92594633D01*
X67694713Y-92594633D01*
X67659491Y-92599023D01*
X67651815Y-92599500D01*
X67647870Y-92599500D01*
X67636355Y-92601421D01*
X67624840Y-92603342D01*
X67610009Y-92605191D01*
X67570359Y-92610134D01*
X67570355Y-92610135D01*
X67562826Y-92612377D01*
X67555367Y-92614937D01*
X67507102Y-92641058D01*
X67457775Y-92665172D01*
X67451365Y-92669748D01*
X67445159Y-92674579D01*
X67407976Y-92714970D01*
X66784765Y-93338181D01*
X66723442Y-93371666D01*
X66697084Y-93374500D01*
X65365957Y-93374500D01*
X65298918Y-93354815D01*
X65253163Y-93302011D01*
X65243219Y-93232853D01*
X65251396Y-93203048D01*
X65254833Y-93194750D01*
X65286330Y-93118709D01*
X65305250Y-92975000D01*
X65286330Y-92831291D01*
X65230861Y-92697375D01*
X65142621Y-92582379D01*
X65027625Y-92494139D01*
X65027624Y-92494138D01*
X65027622Y-92494137D01*
X64893712Y-92438671D01*
X64893710Y-92438670D01*
X64893709Y-92438670D01*
X64821854Y-92429210D01*
X64750001Y-92419750D01*
X64749999Y-92419750D01*
X64606291Y-92438670D01*
X64606287Y-92438671D01*
X64472377Y-92494137D01*
X64357379Y-92582379D01*
X64269137Y-92697377D01*
X64213671Y-92831287D01*
X64213670Y-92831291D01*
X64194750Y-92975000D01*
X64213670Y-93118709D01*
X64243512Y-93190756D01*
X64248604Y-93203048D01*
X64256073Y-93272517D01*
X64224798Y-93334996D01*
X64164709Y-93370648D01*
X64134043Y-93374500D01*
X63518091Y-93374500D01*
X63512976Y-93374288D01*
X63503881Y-93373534D01*
X63468565Y-93370607D01*
X63468405Y-93370648D01*
X63468174Y-93370706D01*
X63437737Y-93374500D01*
X62942026Y-93374500D01*
X62874987Y-93354815D01*
X62866547Y-93348882D01*
X62762625Y-93269139D01*
X62762624Y-93269138D01*
X62762622Y-93269137D01*
X62628712Y-93213671D01*
X62628710Y-93213670D01*
X62628709Y-93213670D01*
X62556854Y-93204210D01*
X62485001Y-93194750D01*
X62484999Y-93194750D01*
X62341291Y-93213670D01*
X62341287Y-93213671D01*
X62207377Y-93269137D01*
X62092379Y-93357379D01*
X62004137Y-93472377D01*
X61948671Y-93606287D01*
X61948670Y-93606291D01*
X61935505Y-93706291D01*
X61929750Y-93750000D01*
X61946148Y-93874556D01*
X61948670Y-93893708D01*
X61948671Y-93893712D01*
X62004137Y-94027622D01*
X62004138Y-94027623D01*
X62004139Y-94027625D01*
X62092379Y-94142621D01*
X62207375Y-94230861D01*
X62207376Y-94230861D01*
X62207377Y-94230862D01*
X62252013Y-94249350D01*
X62341291Y-94286330D01*
X62468280Y-94303048D01*
X62484999Y-94305250D01*
X62485000Y-94305250D01*
X62485001Y-94305250D01*
X62499977Y-94303278D01*
X62628709Y-94286330D01*
X62762625Y-94230861D01*
X62866540Y-94151123D01*
X62931709Y-94125930D01*
X62942026Y-94125500D01*
X63000500Y-94125500D01*
X63067539Y-94145185D01*
X63113294Y-94197989D01*
X63124500Y-94249500D01*
X63124500Y-95042974D01*
X63104815Y-95110013D01*
X63098882Y-95118452D01*
X63055235Y-95175333D01*
X63019137Y-95222377D01*
X62963671Y-95356287D01*
X62963670Y-95356291D01*
X62960001Y-95384163D01*
X62944750Y-95500000D01*
X62963526Y-95642619D01*
X62963670Y-95643708D01*
X62963671Y-95643712D01*
X63019137Y-95777622D01*
X63019138Y-95777624D01*
X63019139Y-95777625D01*
X63107379Y-95892621D01*
X63222375Y-95980861D01*
X63356291Y-96036330D01*
X63483280Y-96053048D01*
X63499999Y-96055250D01*
X63500000Y-96055250D01*
X63500001Y-96055250D01*
X63514977Y-96053278D01*
X63643709Y-96036330D01*
X63777625Y-95980861D01*
X63892621Y-95892621D01*
X63980861Y-95777625D01*
X64036330Y-95643709D01*
X64055250Y-95500000D01*
X64036330Y-95356291D01*
X63996441Y-95259989D01*
X63980862Y-95222377D01*
X63980861Y-95222376D01*
X63980861Y-95222375D01*
X63901123Y-95118459D01*
X63875930Y-95053291D01*
X63875500Y-95042974D01*
X63875500Y-94249500D01*
X63895185Y-94182461D01*
X63947989Y-94136706D01*
X63999500Y-94125500D01*
X64123687Y-94125500D01*
X64190726Y-94145185D01*
X64236481Y-94197989D01*
X64246425Y-94267147D01*
X64238248Y-94296951D01*
X64213670Y-94356291D01*
X64194750Y-94500000D01*
X64205283Y-94580008D01*
X64213670Y-94643708D01*
X64213671Y-94643712D01*
X64269137Y-94777622D01*
X64269138Y-94777624D01*
X64269139Y-94777625D01*
X64357379Y-94892621D01*
X64472375Y-94980861D01*
X64472376Y-94980861D01*
X64472377Y-94980862D01*
X64498169Y-94991545D01*
X64606291Y-95036330D01*
X64733280Y-95053048D01*
X64749999Y-95055250D01*
X64750000Y-95055250D01*
X64750001Y-95055250D01*
X64764977Y-95053278D01*
X64893709Y-95036330D01*
X65027625Y-94980861D01*
X65142621Y-94892621D01*
X65230861Y-94777625D01*
X65286330Y-94643709D01*
X65305250Y-94500000D01*
X65286330Y-94356291D01*
X65261751Y-94296951D01*
X65254283Y-94227482D01*
X65285559Y-94165003D01*
X65345648Y-94129351D01*
X65376313Y-94125500D01*
X66852180Y-94125500D01*
X66877625Y-94128139D01*
X66881424Y-94128935D01*
X66888252Y-94130367D01*
X66909209Y-94127754D01*
X66923476Y-94125977D01*
X66931152Y-94125500D01*
X66935096Y-94125500D01*
X66935098Y-94125500D01*
X66935100Y-94125499D01*
X66935106Y-94125499D01*
X66950471Y-94122934D01*
X66958124Y-94121657D01*
X67012610Y-94114866D01*
X67012611Y-94114865D01*
X67012613Y-94114865D01*
X67020125Y-94112628D01*
X67027590Y-94110066D01*
X67027590Y-94110065D01*
X67027594Y-94110065D01*
X67075861Y-94083944D01*
X67125195Y-94059826D01*
X67125198Y-94059823D01*
X67131578Y-94055268D01*
X67137803Y-94050422D01*
X67137810Y-94050419D01*
X67174992Y-94010028D01*
X67281965Y-93903054D01*
X67343284Y-93869572D01*
X67412976Y-93874556D01*
X67468910Y-93916427D01*
X67484204Y-93943285D01*
X67494293Y-93967641D01*
X67519139Y-94027625D01*
X67607379Y-94142621D01*
X67722375Y-94230861D01*
X67722376Y-94230861D01*
X67722377Y-94230862D01*
X67767013Y-94249350D01*
X67856291Y-94286330D01*
X67983280Y-94303048D01*
X67999999Y-94305250D01*
X68000000Y-94305250D01*
X68000001Y-94305250D01*
X68014977Y-94303278D01*
X68143709Y-94286330D01*
X68277625Y-94230861D01*
X68392621Y-94142621D01*
X68480861Y-94027625D01*
X68495940Y-93991220D01*
X68539779Y-93936820D01*
X68606073Y-93914754D01*
X68673772Y-93932033D01*
X68721383Y-93983169D01*
X68734500Y-94038675D01*
X68734500Y-97475500D01*
X68714815Y-97542539D01*
X68662011Y-97588294D01*
X68610500Y-97599500D01*
X67730787Y-97599500D01*
X67705342Y-97596861D01*
X67694716Y-97594633D01*
X67694713Y-97594633D01*
X67659491Y-97599023D01*
X67651815Y-97599500D01*
X67647870Y-97599500D01*
X67636355Y-97601421D01*
X67624840Y-97603342D01*
X67606680Y-97605606D01*
X67570359Y-97610134D01*
X67570355Y-97610135D01*
X67562826Y-97612377D01*
X67555367Y-97614937D01*
X67507102Y-97641058D01*
X67457775Y-97665172D01*
X67451365Y-97669748D01*
X67445159Y-97674579D01*
X67407976Y-97714970D01*
X66784765Y-98338181D01*
X66723442Y-98371666D01*
X66697084Y-98374500D01*
X65365957Y-98374500D01*
X65298918Y-98354815D01*
X65253163Y-98302011D01*
X65243219Y-98232853D01*
X65251396Y-98203048D01*
X65262083Y-98177247D01*
X65286330Y-98118709D01*
X65305250Y-97975000D01*
X65304489Y-97969223D01*
X65303048Y-97958280D01*
X65286330Y-97831291D01*
X65230861Y-97697375D01*
X65142621Y-97582379D01*
X65027625Y-97494139D01*
X65027624Y-97494138D01*
X65027622Y-97494137D01*
X64893712Y-97438671D01*
X64893710Y-97438670D01*
X64893709Y-97438670D01*
X64821854Y-97429210D01*
X64750001Y-97419750D01*
X64749999Y-97419750D01*
X64606291Y-97438670D01*
X64606287Y-97438671D01*
X64472377Y-97494137D01*
X64357379Y-97582379D01*
X64269137Y-97697377D01*
X64213671Y-97831287D01*
X64213670Y-97831291D01*
X64194750Y-97974999D01*
X64194750Y-97975000D01*
X64213670Y-98118708D01*
X64213671Y-98118712D01*
X64248604Y-98203048D01*
X64256073Y-98272517D01*
X64224798Y-98334996D01*
X64164709Y-98370648D01*
X64134043Y-98374500D01*
X63768091Y-98374500D01*
X63762976Y-98374288D01*
X63753881Y-98373534D01*
X63718565Y-98370607D01*
X63718405Y-98370648D01*
X63718174Y-98370706D01*
X63687737Y-98374500D01*
X62942026Y-98374500D01*
X62874987Y-98354815D01*
X62866547Y-98348882D01*
X62762625Y-98269139D01*
X62762624Y-98269138D01*
X62762622Y-98269137D01*
X62628712Y-98213671D01*
X62628710Y-98213670D01*
X62628709Y-98213670D01*
X62556854Y-98204210D01*
X62485001Y-98194750D01*
X62484999Y-98194750D01*
X62341291Y-98213670D01*
X62341287Y-98213671D01*
X62207377Y-98269137D01*
X62092379Y-98357379D01*
X62004137Y-98472377D01*
X61948671Y-98606287D01*
X61948670Y-98606291D01*
X61929750Y-98750000D01*
X61946148Y-98874556D01*
X61948670Y-98893708D01*
X61948671Y-98893712D01*
X62004137Y-99027622D01*
X62004138Y-99027623D01*
X62004139Y-99027625D01*
X62092379Y-99142621D01*
X62207375Y-99230861D01*
X62207376Y-99230861D01*
X62207377Y-99230862D01*
X62219043Y-99235694D01*
X62341291Y-99286330D01*
X62468280Y-99303048D01*
X62484999Y-99305250D01*
X62485000Y-99305250D01*
X62485001Y-99305250D01*
X62499977Y-99303278D01*
X62628709Y-99286330D01*
X62762625Y-99230861D01*
X62866540Y-99151123D01*
X62931709Y-99125930D01*
X62942026Y-99125500D01*
X63250500Y-99125500D01*
X63317539Y-99145185D01*
X63363294Y-99197989D01*
X63374500Y-99249500D01*
X63374500Y-99792974D01*
X63354815Y-99860013D01*
X63348882Y-99868452D01*
X63330337Y-99892621D01*
X63269137Y-99972377D01*
X63213671Y-100106287D01*
X63213670Y-100106291D01*
X63195582Y-100243684D01*
X63194750Y-100250000D01*
X63206597Y-100339989D01*
X63213670Y-100393708D01*
X63213671Y-100393712D01*
X63269137Y-100527622D01*
X63269138Y-100527624D01*
X63269139Y-100527625D01*
X63357379Y-100642621D01*
X63472375Y-100730861D01*
X63606291Y-100786330D01*
X63733280Y-100803048D01*
X63749999Y-100805250D01*
X63750000Y-100805250D01*
X63750001Y-100805250D01*
X63764977Y-100803278D01*
X63893709Y-100786330D01*
X64027625Y-100730861D01*
X64142621Y-100642621D01*
X64230861Y-100527625D01*
X64286330Y-100393709D01*
X64305250Y-100250000D01*
X64304418Y-100243684D01*
X64296623Y-100184472D01*
X64286330Y-100106291D01*
X64237657Y-99988783D01*
X64230862Y-99972377D01*
X64230861Y-99972376D01*
X64230861Y-99972375D01*
X64151123Y-99868459D01*
X64125930Y-99803291D01*
X64125500Y-99792974D01*
X64125500Y-99763917D01*
X64145185Y-99696878D01*
X64197989Y-99651123D01*
X64267147Y-99641179D01*
X64330703Y-99670204D01*
X64355934Y-99705195D01*
X64357799Y-99704119D01*
X64361860Y-99711153D01*
X64361862Y-99711155D01*
X64361863Y-99711158D01*
X64450103Y-99826154D01*
X64565099Y-99914394D01*
X64699015Y-99969863D01*
X64826004Y-99986581D01*
X64842723Y-99988783D01*
X64842724Y-99988783D01*
X64842725Y-99988783D01*
X64857701Y-99986811D01*
X64986433Y-99969863D01*
X65120349Y-99914394D01*
X65235345Y-99826154D01*
X65323585Y-99711158D01*
X65379054Y-99577242D01*
X65397974Y-99433533D01*
X65379054Y-99289824D01*
X65379051Y-99289817D01*
X65376950Y-99281973D01*
X65380283Y-99281079D01*
X65374558Y-99227373D01*
X65405889Y-99164922D01*
X65466010Y-99129324D01*
X65496568Y-99125500D01*
X66852180Y-99125500D01*
X66877625Y-99128139D01*
X66881424Y-99128935D01*
X66888252Y-99130367D01*
X66909209Y-99127754D01*
X66923476Y-99125977D01*
X66931152Y-99125500D01*
X66935096Y-99125500D01*
X66935098Y-99125500D01*
X66935100Y-99125499D01*
X66935106Y-99125499D01*
X66950471Y-99122934D01*
X66958124Y-99121657D01*
X67012610Y-99114866D01*
X67012611Y-99114865D01*
X67012613Y-99114865D01*
X67020125Y-99112628D01*
X67027590Y-99110066D01*
X67027590Y-99110065D01*
X67027594Y-99110065D01*
X67075861Y-99083944D01*
X67125195Y-99059826D01*
X67125198Y-99059823D01*
X67131578Y-99055268D01*
X67137803Y-99050422D01*
X67137810Y-99050419D01*
X67174992Y-99010028D01*
X67281965Y-98903054D01*
X67343284Y-98869572D01*
X67412976Y-98874556D01*
X67468910Y-98916427D01*
X67484204Y-98943285D01*
X67511850Y-99010028D01*
X67519139Y-99027625D01*
X67607379Y-99142621D01*
X67722375Y-99230861D01*
X67722376Y-99230861D01*
X67722377Y-99230862D01*
X67734043Y-99235694D01*
X67856291Y-99286330D01*
X67983280Y-99303048D01*
X67999999Y-99305250D01*
X68000000Y-99305250D01*
X68000001Y-99305250D01*
X68014977Y-99303278D01*
X68143709Y-99286330D01*
X68277625Y-99230861D01*
X68392621Y-99142621D01*
X68480861Y-99027625D01*
X68521992Y-98928323D01*
X68565832Y-98873920D01*
X68632126Y-98851855D01*
X68699826Y-98869134D01*
X68747436Y-98920270D01*
X68753075Y-98933366D01*
X68809762Y-99089115D01*
X68809764Y-99089119D01*
X68906167Y-99235693D01*
X68906168Y-99235694D01*
X69033778Y-99356089D01*
X69033780Y-99356090D01*
X69033782Y-99356092D01*
X69185719Y-99443812D01*
X69353790Y-99494130D01*
X69528935Y-99504331D01*
X69701711Y-99473865D01*
X69777798Y-99441044D01*
X69847147Y-99432567D01*
X69910075Y-99462930D01*
X69946597Y-99522494D01*
X69949847Y-99538718D01*
X69963670Y-99643707D01*
X69963671Y-99643712D01*
X70019137Y-99777622D01*
X70019138Y-99777624D01*
X70019139Y-99777625D01*
X70107379Y-99892621D01*
X70222375Y-99980861D01*
X70222376Y-99980861D01*
X70222377Y-99980862D01*
X70267013Y-99999350D01*
X70356291Y-100036330D01*
X70483280Y-100053048D01*
X70499999Y-100055250D01*
X70500000Y-100055250D01*
X70500001Y-100055250D01*
X70514977Y-100053278D01*
X70643709Y-100036330D01*
X70777625Y-99980861D01*
X70892621Y-99892621D01*
X70980861Y-99777625D01*
X71036330Y-99643709D01*
X71055250Y-99500000D01*
X71036330Y-99356291D01*
X70986378Y-99235694D01*
X70980862Y-99222377D01*
X70980861Y-99222376D01*
X70980861Y-99222375D01*
X70892621Y-99107379D01*
X70777625Y-99019139D01*
X70777624Y-99019138D01*
X70777622Y-99019137D01*
X70643712Y-98963671D01*
X70643710Y-98963670D01*
X70643709Y-98963670D01*
X70571854Y-98954210D01*
X70500001Y-98944750D01*
X70499998Y-98944750D01*
X70375685Y-98961116D01*
X70306650Y-98950350D01*
X70254394Y-98903970D01*
X70235500Y-98838177D01*
X70235500Y-98450086D01*
X71315694Y-98450086D01*
X71334614Y-98593794D01*
X71334615Y-98593798D01*
X71390081Y-98727708D01*
X71390082Y-98727710D01*
X71390083Y-98727711D01*
X71478323Y-98842707D01*
X71593319Y-98930947D01*
X71727235Y-98986416D01*
X71854224Y-99003134D01*
X71870943Y-99005336D01*
X71870944Y-99005336D01*
X71870945Y-99005336D01*
X71885921Y-99003364D01*
X72014653Y-98986416D01*
X72127155Y-98939816D01*
X72196622Y-98932348D01*
X72259101Y-98963623D01*
X72293266Y-99018383D01*
X72325233Y-99123766D01*
X72422728Y-99306166D01*
X72422732Y-99306173D01*
X72553944Y-99466055D01*
X72713826Y-99597267D01*
X72713833Y-99597271D01*
X72896233Y-99694766D01*
X73094165Y-99754808D01*
X73248415Y-99770000D01*
X73575000Y-99770000D01*
X73575000Y-99105188D01*
X73668519Y-99120000D01*
X73731481Y-99120000D01*
X73825000Y-99105188D01*
X73825000Y-99770000D01*
X74151585Y-99770000D01*
X74305834Y-99754808D01*
X74503766Y-99694766D01*
X74686166Y-99597271D01*
X74686173Y-99597267D01*
X74846055Y-99466055D01*
X74977267Y-99306173D01*
X74977271Y-99306166D01*
X75074766Y-99123766D01*
X75134808Y-98925834D01*
X75142770Y-98845000D01*
X74085188Y-98845000D01*
X74104986Y-98720000D01*
X74085188Y-98595000D01*
X75142770Y-98595000D01*
X75134808Y-98514165D01*
X75074766Y-98316233D01*
X74977271Y-98133833D01*
X74977267Y-98133826D01*
X74846055Y-97973944D01*
X74686173Y-97842732D01*
X74686166Y-97842728D01*
X74503766Y-97745233D01*
X74305834Y-97685191D01*
X74151585Y-97670000D01*
X73825000Y-97670000D01*
X73825000Y-98334811D01*
X73731481Y-98320000D01*
X73668519Y-98320000D01*
X73575000Y-98334811D01*
X73575000Y-97670000D01*
X73248415Y-97670000D01*
X73094165Y-97685191D01*
X72896233Y-97745233D01*
X72713833Y-97842728D01*
X72713826Y-97842732D01*
X72553944Y-97973944D01*
X72469873Y-98076385D01*
X72412127Y-98115719D01*
X72342282Y-98117590D01*
X72282514Y-98081402D01*
X72275646Y-98073209D01*
X72263566Y-98057466D01*
X72196557Y-98006048D01*
X72148569Y-97969225D01*
X72148568Y-97969224D01*
X72148566Y-97969223D01*
X72014656Y-97913757D01*
X72014654Y-97913756D01*
X72014653Y-97913756D01*
X71942798Y-97904296D01*
X71870945Y-97894836D01*
X71870943Y-97894836D01*
X71727235Y-97913756D01*
X71727231Y-97913757D01*
X71593321Y-97969223D01*
X71478323Y-98057465D01*
X71390081Y-98172463D01*
X71334615Y-98306373D01*
X71334614Y-98306377D01*
X71315694Y-98450085D01*
X71315694Y-98450086D01*
X70235500Y-98450086D01*
X70235500Y-95800547D01*
X70255185Y-95733508D01*
X70307989Y-95687753D01*
X70377147Y-95677809D01*
X70434987Y-95702172D01*
X70472373Y-95730860D01*
X70472374Y-95730860D01*
X70472375Y-95730861D01*
X70606291Y-95786330D01*
X70733280Y-95803048D01*
X70749999Y-95805250D01*
X70750000Y-95805250D01*
X70750001Y-95805250D01*
X70764977Y-95803278D01*
X70893709Y-95786330D01*
X71027625Y-95730861D01*
X71142621Y-95642621D01*
X71178815Y-95595452D01*
X71235242Y-95554250D01*
X71304988Y-95550095D01*
X71365908Y-95584307D01*
X71391751Y-95623487D01*
X71407614Y-95661784D01*
X71407616Y-95661788D01*
X71495856Y-95776784D01*
X71610852Y-95865024D01*
X71744768Y-95920493D01*
X71871757Y-95937211D01*
X71888476Y-95939413D01*
X71888477Y-95939413D01*
X71888478Y-95939413D01*
X71924404Y-95934683D01*
X72032186Y-95920493D01*
X72089482Y-95896760D01*
X72158947Y-95889292D01*
X72221426Y-95920566D01*
X72257079Y-95980655D01*
X72260334Y-96023476D01*
X72257229Y-96054999D01*
X72257230Y-96055000D01*
X73314812Y-96055000D01*
X73295014Y-96180000D01*
X73314812Y-96305000D01*
X72257230Y-96305000D01*
X72265191Y-96385834D01*
X72325233Y-96583766D01*
X72422728Y-96766166D01*
X72422732Y-96766173D01*
X72553944Y-96926055D01*
X72713826Y-97057267D01*
X72713833Y-97057271D01*
X72896233Y-97154766D01*
X73094165Y-97214808D01*
X73248415Y-97230000D01*
X73575000Y-97230000D01*
X73575000Y-96565188D01*
X73668519Y-96580000D01*
X73731481Y-96580000D01*
X73825000Y-96565188D01*
X73825000Y-97230000D01*
X74151585Y-97230000D01*
X74305834Y-97214808D01*
X74503766Y-97154766D01*
X74686166Y-97057271D01*
X74686173Y-97057267D01*
X74846055Y-96926055D01*
X74977267Y-96766173D01*
X74977271Y-96766166D01*
X75074766Y-96583766D01*
X75134808Y-96385834D01*
X75142770Y-96305000D01*
X74085188Y-96305000D01*
X74104986Y-96180000D01*
X74085188Y-96055000D01*
X75142770Y-96055000D01*
X75134808Y-95974165D01*
X75074766Y-95776233D01*
X74977271Y-95593833D01*
X74977267Y-95593826D01*
X74846055Y-95433944D01*
X74686173Y-95302732D01*
X74686166Y-95302728D01*
X74503766Y-95205233D01*
X74305834Y-95145191D01*
X74151585Y-95130000D01*
X73825000Y-95130000D01*
X73825000Y-95794811D01*
X73731481Y-95780000D01*
X73668519Y-95780000D01*
X73575000Y-95794811D01*
X73575000Y-95130000D01*
X73248415Y-95130000D01*
X73094165Y-95145191D01*
X72896233Y-95205233D01*
X72713833Y-95302728D01*
X72713827Y-95302732D01*
X72632867Y-95369174D01*
X72568557Y-95396486D01*
X72499690Y-95384695D01*
X72448130Y-95337542D01*
X72431265Y-95289507D01*
X72424807Y-95240454D01*
X72378756Y-95129275D01*
X72369339Y-95106540D01*
X72369338Y-95106539D01*
X72369338Y-95106538D01*
X72281098Y-94991542D01*
X72166102Y-94903302D01*
X72166101Y-94903301D01*
X72166099Y-94903300D01*
X72032189Y-94847834D01*
X72032187Y-94847833D01*
X72032186Y-94847833D01*
X71960331Y-94838373D01*
X71888478Y-94828913D01*
X71888476Y-94828913D01*
X71744768Y-94847833D01*
X71744764Y-94847834D01*
X71610854Y-94903300D01*
X71564853Y-94938598D01*
X71495856Y-94991542D01*
X71495854Y-94991543D01*
X71495853Y-94991545D01*
X71459660Y-95038711D01*
X71403232Y-95079913D01*
X71333485Y-95084066D01*
X71272566Y-95049853D01*
X71246725Y-95010676D01*
X71230861Y-94972375D01*
X71142621Y-94857379D01*
X71027625Y-94769139D01*
X71027624Y-94769138D01*
X71027622Y-94769137D01*
X70893712Y-94713671D01*
X70893710Y-94713670D01*
X70893709Y-94713670D01*
X70785715Y-94699452D01*
X70750001Y-94694750D01*
X70749999Y-94694750D01*
X70606291Y-94713670D01*
X70606287Y-94713671D01*
X70472376Y-94769138D01*
X70472374Y-94769139D01*
X70434986Y-94797828D01*
X70369816Y-94823022D01*
X70301372Y-94808983D01*
X70251382Y-94760169D01*
X70235500Y-94699452D01*
X70235500Y-93757998D01*
X71350233Y-93757998D01*
X71368100Y-93893712D01*
X71369153Y-93901706D01*
X71369154Y-93901710D01*
X71424620Y-94035620D01*
X71424621Y-94035622D01*
X71424622Y-94035623D01*
X71512862Y-94150619D01*
X71627858Y-94238859D01*
X71761774Y-94294328D01*
X71888763Y-94311046D01*
X71905482Y-94313248D01*
X71905483Y-94313248D01*
X71905484Y-94313248D01*
X71920460Y-94311276D01*
X72049192Y-94294328D01*
X72183108Y-94238859D01*
X72242084Y-94193604D01*
X72307253Y-94168411D01*
X72375697Y-94182449D01*
X72420670Y-94223087D01*
X72422730Y-94226171D01*
X72553944Y-94386055D01*
X72713826Y-94517267D01*
X72713833Y-94517271D01*
X72896233Y-94614766D01*
X73094165Y-94674808D01*
X73248415Y-94690000D01*
X73575000Y-94690000D01*
X73575000Y-94025188D01*
X73668519Y-94040000D01*
X73731481Y-94040000D01*
X73825000Y-94025188D01*
X73825000Y-94690000D01*
X74151585Y-94690000D01*
X74305834Y-94674808D01*
X74503766Y-94614766D01*
X74686166Y-94517271D01*
X74686173Y-94517267D01*
X74846055Y-94386055D01*
X74977267Y-94226173D01*
X74977271Y-94226166D01*
X75074766Y-94043766D01*
X75134808Y-93845834D01*
X75142770Y-93765000D01*
X74085188Y-93765000D01*
X74104986Y-93640000D01*
X74085188Y-93515000D01*
X75142770Y-93515000D01*
X75134808Y-93434165D01*
X75074766Y-93236233D01*
X74977271Y-93053833D01*
X74977267Y-93053826D01*
X74846055Y-92893944D01*
X74686173Y-92762732D01*
X74686166Y-92762728D01*
X74503766Y-92665233D01*
X74305834Y-92605191D01*
X74151585Y-92590000D01*
X73825000Y-92590000D01*
X73825000Y-93254811D01*
X73731481Y-93240000D01*
X73668519Y-93240000D01*
X73575000Y-93254811D01*
X73575000Y-92590000D01*
X73248415Y-92590000D01*
X73094165Y-92605191D01*
X72896233Y-92665233D01*
X72713833Y-92762728D01*
X72713826Y-92762732D01*
X72553944Y-92893944D01*
X72422732Y-93053826D01*
X72422728Y-93053833D01*
X72334549Y-93218805D01*
X72285587Y-93268649D01*
X72217449Y-93284110D01*
X72177739Y-93274913D01*
X72049195Y-93221669D01*
X72049193Y-93221668D01*
X72049192Y-93221668D01*
X71977337Y-93212208D01*
X71905484Y-93202748D01*
X71905482Y-93202748D01*
X71761774Y-93221668D01*
X71761770Y-93221669D01*
X71627860Y-93277135D01*
X71512862Y-93365377D01*
X71424620Y-93480375D01*
X71369154Y-93614285D01*
X71369153Y-93614289D01*
X71350233Y-93757998D01*
X70235500Y-93757998D01*
X70235500Y-91293770D01*
X70255185Y-91226731D01*
X70271815Y-91206093D01*
X70791717Y-90686190D01*
X70791722Y-90686187D01*
X70801925Y-90675983D01*
X70801927Y-90675983D01*
X71049576Y-90428332D01*
X71110899Y-90394848D01*
X71180590Y-90399832D01*
X71236524Y-90441703D01*
X71251818Y-90468562D01*
X71297729Y-90579404D01*
X71297730Y-90579406D01*
X71297731Y-90579407D01*
X71385971Y-90694403D01*
X71500967Y-90782643D01*
X71634883Y-90838112D01*
X71761872Y-90854830D01*
X71778591Y-90857032D01*
X71778592Y-90857032D01*
X71778593Y-90857032D01*
X71795044Y-90854866D01*
X71922301Y-90838112D01*
X72056217Y-90782643D01*
X72056223Y-90782638D01*
X72063256Y-90778579D01*
X72064915Y-90781453D01*
X72115671Y-90761826D01*
X72184118Y-90775858D01*
X72234112Y-90824667D01*
X72250000Y-90885395D01*
X72250000Y-90975000D01*
X73314812Y-90975000D01*
X73295014Y-91100000D01*
X73314812Y-91225000D01*
X72250000Y-91225000D01*
X72250000Y-91924628D01*
X72264503Y-91997540D01*
X72264505Y-91997544D01*
X72319760Y-92080239D01*
X72402455Y-92135494D01*
X72402459Y-92135496D01*
X72475371Y-92149999D01*
X72475374Y-92150000D01*
X73575000Y-92150000D01*
X73575000Y-91485188D01*
X73668519Y-91500000D01*
X73731481Y-91500000D01*
X73825000Y-91485188D01*
X73825000Y-92150000D01*
X74924626Y-92150000D01*
X74924628Y-92149999D01*
X74997540Y-92135496D01*
X74997544Y-92135494D01*
X75080239Y-92080239D01*
X75135494Y-91997544D01*
X75135496Y-91997540D01*
X75149999Y-91924628D01*
X75150000Y-91924626D01*
X75150000Y-91225000D01*
X74085188Y-91225000D01*
X74104986Y-91100000D01*
X74085188Y-90975000D01*
X75150000Y-90975000D01*
X75150000Y-90275373D01*
X75149999Y-90275371D01*
X75135496Y-90202459D01*
X75135494Y-90202455D01*
X75080239Y-90119759D01*
X75074443Y-90113963D01*
X75040958Y-90052640D01*
X75045942Y-89982948D01*
X75087814Y-89927015D01*
X75153278Y-89902598D01*
X75162124Y-89902282D01*
X77376000Y-89902282D01*
X77443039Y-89921967D01*
X77488794Y-89974771D01*
X77500000Y-90026282D01*
X77500000Y-100336005D01*
X77480315Y-100403044D01*
X77427511Y-100448799D01*
X77392187Y-100458944D01*
X77356291Y-100463670D01*
X77356287Y-100463671D01*
X77222377Y-100519137D01*
X77107379Y-100607379D01*
X77019137Y-100722377D01*
X76963671Y-100856287D01*
X76963670Y-100856291D01*
X76944750Y-101000000D01*
X76962523Y-101135000D01*
X76963670Y-101143708D01*
X76963671Y-101143712D01*
X77019137Y-101277622D01*
X77019138Y-101277624D01*
X77019139Y-101277625D01*
X77107379Y-101392621D01*
X77222375Y-101480861D01*
X77222376Y-101480861D01*
X77222377Y-101480862D01*
X77252879Y-101493496D01*
X77356291Y-101536330D01*
X77392185Y-101541055D01*
X77456081Y-101569321D01*
X77494553Y-101627645D01*
X77500000Y-101663994D01*
X77500000Y-103493917D01*
X77490561Y-103541369D01*
X77463671Y-103606287D01*
X77463670Y-103606291D01*
X77450504Y-103706298D01*
X77444750Y-103750000D01*
X77463670Y-103893709D01*
X77490561Y-103958632D01*
X77500000Y-104006082D01*
X77500000Y-109564840D01*
X77480315Y-109631879D01*
X77427511Y-109677634D01*
X77376000Y-109688840D01*
X75056705Y-109688840D01*
X74989666Y-109669155D01*
X74943911Y-109616351D01*
X74933967Y-109547193D01*
X74960852Y-109486174D01*
X74977270Y-109466167D01*
X74977271Y-109466166D01*
X75074766Y-109283766D01*
X75134808Y-109085834D01*
X75142770Y-109005000D01*
X74085188Y-109005000D01*
X74104986Y-108880000D01*
X74085188Y-108755000D01*
X75142770Y-108755000D01*
X75134808Y-108674165D01*
X75074766Y-108476233D01*
X74977271Y-108293833D01*
X74977267Y-108293826D01*
X74846055Y-108133944D01*
X74686173Y-108002732D01*
X74686166Y-108002728D01*
X74503766Y-107905233D01*
X74305834Y-107845191D01*
X74151585Y-107830000D01*
X73825000Y-107830000D01*
X73825000Y-108494811D01*
X73731481Y-108480000D01*
X73668519Y-108480000D01*
X73575000Y-108494811D01*
X73575000Y-107830000D01*
X73248415Y-107830000D01*
X73094165Y-107845191D01*
X72896233Y-107905233D01*
X72713833Y-108002728D01*
X72713826Y-108002732D01*
X72553946Y-108133943D01*
X72543630Y-108146513D01*
X72485883Y-108185846D01*
X72416039Y-108187715D01*
X72356271Y-108151526D01*
X72349404Y-108143333D01*
X72327356Y-108114600D01*
X72301341Y-108080697D01*
X72186345Y-107992457D01*
X72186344Y-107992456D01*
X72186342Y-107992455D01*
X72052432Y-107936989D01*
X72052430Y-107936988D01*
X72052429Y-107936988D01*
X71980574Y-107927528D01*
X71908721Y-107918068D01*
X71908719Y-107918068D01*
X71765011Y-107936988D01*
X71765007Y-107936989D01*
X71631097Y-107992455D01*
X71516099Y-108080697D01*
X71427857Y-108195695D01*
X71372391Y-108329605D01*
X71372390Y-108329609D01*
X71353470Y-108473317D01*
X71353470Y-108473318D01*
X71372390Y-108617026D01*
X71372391Y-108617030D01*
X71427857Y-108750940D01*
X71427858Y-108750942D01*
X71427859Y-108750943D01*
X71516099Y-108865939D01*
X71631095Y-108954179D01*
X71765011Y-109009648D01*
X71892000Y-109026366D01*
X71908719Y-109028568D01*
X71908720Y-109028568D01*
X71908721Y-109028568D01*
X71923697Y-109026596D01*
X72052429Y-109009648D01*
X72095403Y-108991847D01*
X72164870Y-108984379D01*
X72227350Y-109015654D01*
X72263002Y-109075743D01*
X72264469Y-109082208D01*
X72265188Y-109085824D01*
X72325233Y-109283766D01*
X72422728Y-109466166D01*
X72422729Y-109466167D01*
X72439148Y-109486174D01*
X72466461Y-109550484D01*
X72454670Y-109619352D01*
X72407519Y-109670912D01*
X72343295Y-109688840D01*
X71536569Y-109688840D01*
X71469530Y-109669155D01*
X71448888Y-109652521D01*
X70271819Y-108475451D01*
X70238334Y-108414128D01*
X70235500Y-108387770D01*
X70235500Y-105216247D01*
X70255185Y-105149208D01*
X70307989Y-105103453D01*
X70377147Y-105093509D01*
X70440703Y-105122534D01*
X70474061Y-105168795D01*
X70519137Y-105277622D01*
X70519138Y-105277624D01*
X70519139Y-105277625D01*
X70607379Y-105392621D01*
X70722375Y-105480861D01*
X70722376Y-105480861D01*
X70722377Y-105480862D01*
X70767013Y-105499350D01*
X70856291Y-105536330D01*
X70983280Y-105553048D01*
X70999999Y-105555250D01*
X71000000Y-105555250D01*
X71000001Y-105555250D01*
X71014977Y-105553278D01*
X71143709Y-105536330D01*
X71277625Y-105480861D01*
X71317987Y-105449889D01*
X71383153Y-105424696D01*
X71451598Y-105438734D01*
X71501589Y-105487547D01*
X71508033Y-105500813D01*
X71519139Y-105527625D01*
X71607379Y-105642621D01*
X71722375Y-105730861D01*
X71856291Y-105786330D01*
X71982044Y-105802886D01*
X71999999Y-105805250D01*
X72000000Y-105805250D01*
X72000001Y-105805250D01*
X72017956Y-105802886D01*
X72143709Y-105786330D01*
X72161205Y-105779082D01*
X72230672Y-105771613D01*
X72293152Y-105802886D01*
X72328806Y-105862975D01*
X72326404Y-105930227D01*
X72327001Y-105930408D01*
X72326318Y-105932659D01*
X72326313Y-105932800D01*
X72326109Y-105933345D01*
X72265191Y-106134165D01*
X72257229Y-106215000D01*
X73314812Y-106215000D01*
X73295014Y-106340000D01*
X73314812Y-106465000D01*
X72257230Y-106465000D01*
X72265191Y-106545834D01*
X72325233Y-106743766D01*
X72422728Y-106926166D01*
X72422732Y-106926173D01*
X72553944Y-107086055D01*
X72713826Y-107217267D01*
X72713833Y-107217271D01*
X72896233Y-107314766D01*
X73094165Y-107374808D01*
X73248415Y-107390000D01*
X73575000Y-107390000D01*
X73575000Y-106725188D01*
X73668519Y-106740000D01*
X73731481Y-106740000D01*
X73825000Y-106725188D01*
X73825000Y-107390000D01*
X74151585Y-107390000D01*
X74305834Y-107374808D01*
X74503766Y-107314766D01*
X74686166Y-107217271D01*
X74686173Y-107217267D01*
X74846055Y-107086055D01*
X74977267Y-106926173D01*
X74977271Y-106926166D01*
X75074766Y-106743766D01*
X75134808Y-106545834D01*
X75142770Y-106465000D01*
X74085188Y-106465000D01*
X74104986Y-106340000D01*
X74085188Y-106215000D01*
X75142770Y-106215000D01*
X75134808Y-106134165D01*
X75074766Y-105936233D01*
X74977271Y-105753833D01*
X74977267Y-105753826D01*
X74846055Y-105593944D01*
X74686173Y-105462732D01*
X74686166Y-105462728D01*
X74503766Y-105365233D01*
X74305834Y-105305191D01*
X74151585Y-105290000D01*
X73825000Y-105290000D01*
X73825000Y-105954811D01*
X73731481Y-105940000D01*
X73668519Y-105940000D01*
X73575000Y-105954811D01*
X73575000Y-105290000D01*
X73248415Y-105290000D01*
X73094165Y-105305191D01*
X72896237Y-105365232D01*
X72726021Y-105456214D01*
X72657618Y-105470455D01*
X72592374Y-105445455D01*
X72551004Y-105389149D01*
X72544629Y-105330671D01*
X72555250Y-105250000D01*
X72536330Y-105106291D01*
X72499350Y-105017013D01*
X72480862Y-104972377D01*
X72480861Y-104972376D01*
X72480861Y-104972375D01*
X72392621Y-104857379D01*
X72277625Y-104769139D01*
X72277624Y-104769138D01*
X72277622Y-104769137D01*
X72143712Y-104713671D01*
X72143710Y-104713670D01*
X72143709Y-104713670D01*
X72071854Y-104704210D01*
X72000001Y-104694750D01*
X71999999Y-104694750D01*
X71856291Y-104713670D01*
X71856287Y-104713671D01*
X71722376Y-104769138D01*
X71722375Y-104769138D01*
X71682012Y-104800110D01*
X71616843Y-104825303D01*
X71548398Y-104811264D01*
X71498409Y-104762450D01*
X71491971Y-104749197D01*
X71480861Y-104722375D01*
X71392621Y-104607379D01*
X71277625Y-104519139D01*
X71277624Y-104519138D01*
X71277622Y-104519137D01*
X71143712Y-104463671D01*
X71143710Y-104463670D01*
X71143709Y-104463670D01*
X71049417Y-104451256D01*
X71000001Y-104444750D01*
X70999999Y-104444750D01*
X70856291Y-104463670D01*
X70856287Y-104463671D01*
X70722377Y-104519137D01*
X70607379Y-104607379D01*
X70519137Y-104722377D01*
X70474061Y-104831204D01*
X70430221Y-104885608D01*
X70363927Y-104907673D01*
X70296227Y-104890394D01*
X70248616Y-104839257D01*
X70235500Y-104783752D01*
X70235500Y-103706298D01*
X70235500Y-103706291D01*
X70231843Y-103675000D01*
X72257229Y-103675000D01*
X73314812Y-103675000D01*
X73295014Y-103800000D01*
X73314812Y-103925000D01*
X72257230Y-103925000D01*
X72265191Y-104005834D01*
X72325233Y-104203766D01*
X72422728Y-104386166D01*
X72422732Y-104386173D01*
X72553944Y-104546055D01*
X72713826Y-104677267D01*
X72713833Y-104677271D01*
X72896233Y-104774766D01*
X73094165Y-104834808D01*
X73248415Y-104850000D01*
X73575000Y-104850000D01*
X73575000Y-104185188D01*
X73668519Y-104200000D01*
X73731481Y-104200000D01*
X73825000Y-104185188D01*
X73825000Y-104850000D01*
X74151585Y-104850000D01*
X74305834Y-104834808D01*
X74503766Y-104774766D01*
X74686166Y-104677271D01*
X74686173Y-104677267D01*
X74846055Y-104546055D01*
X74977267Y-104386173D01*
X74977271Y-104386166D01*
X75074766Y-104203766D01*
X75134808Y-104005834D01*
X75142770Y-103925000D01*
X74085188Y-103925000D01*
X74104986Y-103800000D01*
X74085188Y-103675000D01*
X75142770Y-103675000D01*
X75134808Y-103594165D01*
X75074766Y-103396233D01*
X74977271Y-103213833D01*
X74977267Y-103213826D01*
X74846055Y-103053944D01*
X74686173Y-102922732D01*
X74686166Y-102922728D01*
X74503766Y-102825233D01*
X74305834Y-102765191D01*
X74151585Y-102750000D01*
X73825000Y-102750000D01*
X73825000Y-103414811D01*
X73731481Y-103400000D01*
X73668519Y-103400000D01*
X73575000Y-103414811D01*
X73575000Y-102750000D01*
X73248415Y-102750000D01*
X73094165Y-102765191D01*
X72896233Y-102825233D01*
X72713833Y-102922728D01*
X72713826Y-102922732D01*
X72553944Y-103053944D01*
X72422732Y-103213826D01*
X72422728Y-103213833D01*
X72325233Y-103396233D01*
X72265191Y-103594165D01*
X72257229Y-103675000D01*
X70231843Y-103675000D01*
X70220241Y-103575745D01*
X70160237Y-103410883D01*
X70153079Y-103400000D01*
X70063832Y-103264306D01*
X70063831Y-103264305D01*
X69936221Y-103143910D01*
X69892576Y-103118712D01*
X69784281Y-103056188D01*
X69784282Y-103056188D01*
X69616210Y-103005870D01*
X69616205Y-103005869D01*
X69441066Y-102995668D01*
X69441064Y-102995669D01*
X69352161Y-103011345D01*
X69282722Y-103003601D01*
X69242948Y-102976910D01*
X69012149Y-102746111D01*
X68996022Y-102726252D01*
X68990086Y-102717167D01*
X68990083Y-102717163D01*
X68962074Y-102695363D01*
X68956310Y-102690272D01*
X68953515Y-102687477D01*
X68934505Y-102673906D01*
X68891189Y-102640190D01*
X68884274Y-102636448D01*
X68877200Y-102632990D01*
X68824596Y-102617329D01*
X68772658Y-102599499D01*
X68764923Y-102598208D01*
X68757085Y-102597231D01*
X68702244Y-102599500D01*
X67730787Y-102599500D01*
X67705342Y-102596861D01*
X67694716Y-102594633D01*
X67694713Y-102594633D01*
X67659491Y-102599023D01*
X67651815Y-102599500D01*
X67647870Y-102599500D01*
X67636355Y-102601421D01*
X67624840Y-102603342D01*
X67606680Y-102605606D01*
X67570359Y-102610134D01*
X67570355Y-102610135D01*
X67562826Y-102612377D01*
X67555367Y-102614937D01*
X67507102Y-102641058D01*
X67457775Y-102665172D01*
X67451365Y-102669748D01*
X67445159Y-102674579D01*
X67407976Y-102714970D01*
X66784765Y-103338181D01*
X66723442Y-103371666D01*
X66697084Y-103374500D01*
X65365957Y-103374500D01*
X65298918Y-103354815D01*
X65253163Y-103302011D01*
X65243219Y-103232853D01*
X65251396Y-103203048D01*
X65265605Y-103168744D01*
X65286330Y-103118709D01*
X65305250Y-102975000D01*
X65286330Y-102831291D01*
X65230861Y-102697375D01*
X65227751Y-102689866D01*
X65228967Y-102689362D01*
X65214473Y-102629629D01*
X65237322Y-102563601D01*
X65292241Y-102520408D01*
X65361794Y-102513763D01*
X65413820Y-102537148D01*
X65470564Y-102580690D01*
X65470565Y-102580690D01*
X65470566Y-102580691D01*
X65604482Y-102636160D01*
X65731471Y-102652878D01*
X65748190Y-102655080D01*
X65748191Y-102655080D01*
X65748192Y-102655080D01*
X65763168Y-102653108D01*
X65891900Y-102636160D01*
X66025816Y-102580691D01*
X66140812Y-102492451D01*
X66229052Y-102377455D01*
X66284521Y-102243539D01*
X66303441Y-102099830D01*
X66284521Y-101956121D01*
X66229052Y-101822205D01*
X66140812Y-101707209D01*
X66106122Y-101680590D01*
X66064920Y-101624162D01*
X66060765Y-101554416D01*
X66094978Y-101493496D01*
X66106115Y-101483845D01*
X66159840Y-101442621D01*
X66248080Y-101327625D01*
X66303549Y-101193709D01*
X66311278Y-101135000D01*
X72257229Y-101135000D01*
X73314812Y-101135000D01*
X73295014Y-101260000D01*
X73314812Y-101385000D01*
X72257230Y-101385000D01*
X72265191Y-101465834D01*
X72325233Y-101663766D01*
X72422728Y-101846166D01*
X72422732Y-101846173D01*
X72553944Y-102006055D01*
X72713826Y-102137267D01*
X72713833Y-102137271D01*
X72896233Y-102234766D01*
X73094165Y-102294808D01*
X73248415Y-102310000D01*
X73575000Y-102310000D01*
X73575000Y-101645188D01*
X73668519Y-101660000D01*
X73731481Y-101660000D01*
X73825000Y-101645188D01*
X73825000Y-102310000D01*
X74151585Y-102310000D01*
X74305834Y-102294808D01*
X74503766Y-102234766D01*
X74686166Y-102137271D01*
X74686173Y-102137267D01*
X74846055Y-102006055D01*
X74977267Y-101846173D01*
X74977271Y-101846166D01*
X75074766Y-101663766D01*
X75134808Y-101465834D01*
X75142770Y-101385000D01*
X74085188Y-101385000D01*
X74104986Y-101260000D01*
X74085188Y-101135000D01*
X75142770Y-101135000D01*
X75134808Y-101054165D01*
X75074766Y-100856233D01*
X74977271Y-100673833D01*
X74977267Y-100673826D01*
X74846055Y-100513944D01*
X74686173Y-100382732D01*
X74686166Y-100382728D01*
X74503766Y-100285233D01*
X74305834Y-100225191D01*
X74151585Y-100210000D01*
X73825000Y-100210000D01*
X73825000Y-100874811D01*
X73731481Y-100860000D01*
X73668519Y-100860000D01*
X73575000Y-100874811D01*
X73575000Y-100210000D01*
X73248415Y-100210000D01*
X73094165Y-100225191D01*
X72896233Y-100285233D01*
X72713833Y-100382728D01*
X72713826Y-100382732D01*
X72553944Y-100513944D01*
X72422732Y-100673826D01*
X72422728Y-100673833D01*
X72325233Y-100856233D01*
X72265191Y-101054165D01*
X72257229Y-101135000D01*
X66311278Y-101135000D01*
X66322469Y-101050000D01*
X66303549Y-100906291D01*
X66253860Y-100786329D01*
X66248081Y-100772377D01*
X66248080Y-100772376D01*
X66248080Y-100772375D01*
X66159840Y-100657379D01*
X66044844Y-100569139D01*
X66044843Y-100569138D01*
X66044841Y-100569137D01*
X65910931Y-100513671D01*
X65910929Y-100513670D01*
X65910928Y-100513670D01*
X65839073Y-100504210D01*
X65767220Y-100494750D01*
X65767218Y-100494750D01*
X65623510Y-100513670D01*
X65623506Y-100513671D01*
X65489596Y-100569137D01*
X65374598Y-100657379D01*
X65286356Y-100772377D01*
X65230890Y-100906287D01*
X65230889Y-100906291D01*
X65211969Y-101049999D01*
X65211969Y-101050000D01*
X65230889Y-101193708D01*
X65230890Y-101193712D01*
X65286356Y-101327622D01*
X65286357Y-101327624D01*
X65286358Y-101327625D01*
X65374598Y-101442621D01*
X65409288Y-101469240D01*
X65450489Y-101525666D01*
X65454644Y-101595413D01*
X65420431Y-101656333D01*
X65409288Y-101665989D01*
X65355571Y-101707208D01*
X65267328Y-101822207D01*
X65211862Y-101956117D01*
X65211861Y-101956121D01*
X65192941Y-102099829D01*
X65192941Y-102099830D01*
X65211861Y-102243538D01*
X65211862Y-102243542D01*
X65270440Y-102384964D01*
X65269224Y-102385467D01*
X65283717Y-102445205D01*
X65260865Y-102511232D01*
X65205944Y-102554423D01*
X65136391Y-102561065D01*
X65084372Y-102537683D01*
X65027625Y-102494139D01*
X65027624Y-102494138D01*
X65027622Y-102494137D01*
X64893712Y-102438671D01*
X64893710Y-102438670D01*
X64893709Y-102438670D01*
X64821854Y-102429210D01*
X64750001Y-102419750D01*
X64749999Y-102419750D01*
X64606291Y-102438670D01*
X64606287Y-102438671D01*
X64472377Y-102494137D01*
X64357379Y-102582379D01*
X64269137Y-102697377D01*
X64213671Y-102831287D01*
X64213670Y-102831291D01*
X64194750Y-102974999D01*
X64194750Y-102975000D01*
X64213670Y-103118708D01*
X64213671Y-103118712D01*
X64248604Y-103203048D01*
X64256073Y-103272517D01*
X64224798Y-103334996D01*
X64164709Y-103370648D01*
X64134043Y-103374500D01*
X62942026Y-103374500D01*
X62874987Y-103354815D01*
X62866547Y-103348882D01*
X62762625Y-103269139D01*
X62762624Y-103269138D01*
X62762622Y-103269137D01*
X62628712Y-103213671D01*
X62628710Y-103213670D01*
X62628709Y-103213670D01*
X62556854Y-103204210D01*
X62485001Y-103194750D01*
X62484999Y-103194750D01*
X62341291Y-103213670D01*
X62341287Y-103213671D01*
X62207377Y-103269137D01*
X62092379Y-103357379D01*
X62004137Y-103472377D01*
X61948671Y-103606287D01*
X61948670Y-103606291D01*
X61935504Y-103706298D01*
X61929750Y-103750000D01*
X61946148Y-103874556D01*
X61948670Y-103893708D01*
X61948671Y-103893712D01*
X62004137Y-104027622D01*
X62004138Y-104027623D01*
X62004139Y-104027625D01*
X62092379Y-104142621D01*
X62207375Y-104230861D01*
X62341291Y-104286330D01*
X62468280Y-104303048D01*
X62484999Y-104305250D01*
X62485000Y-104305250D01*
X62485001Y-104305250D01*
X62499977Y-104303278D01*
X62628709Y-104286330D01*
X62762625Y-104230861D01*
X62866540Y-104151123D01*
X62931709Y-104125930D01*
X62942026Y-104125500D01*
X64294278Y-104125500D01*
X64361317Y-104145185D01*
X64407072Y-104197989D01*
X64417016Y-104267147D01*
X64387991Y-104330703D01*
X64369766Y-104347873D01*
X64366759Y-104350181D01*
X64357380Y-104357377D01*
X64269137Y-104472377D01*
X64213671Y-104606287D01*
X64213670Y-104606291D01*
X64194750Y-104750000D01*
X64212603Y-104885608D01*
X64213670Y-104893708D01*
X64213671Y-104893712D01*
X64269137Y-105027622D01*
X64269138Y-105027624D01*
X64269139Y-105027625D01*
X64357379Y-105142621D01*
X64472375Y-105230861D01*
X64606291Y-105286330D01*
X64733280Y-105303048D01*
X64749999Y-105305250D01*
X64750000Y-105305250D01*
X64750001Y-105305250D01*
X64764977Y-105303278D01*
X64893709Y-105286330D01*
X65027625Y-105230861D01*
X65142621Y-105142621D01*
X65230861Y-105027625D01*
X65286330Y-104893709D01*
X65305250Y-104750000D01*
X65286330Y-104606291D01*
X65230861Y-104472375D01*
X65142621Y-104357379D01*
X65142619Y-104357378D01*
X65142619Y-104357377D01*
X65135920Y-104352237D01*
X65130235Y-104347875D01*
X65089033Y-104291448D01*
X65084878Y-104221702D01*
X65119090Y-104160782D01*
X65180807Y-104128029D01*
X65205722Y-104125500D01*
X66852180Y-104125500D01*
X66877625Y-104128139D01*
X66881424Y-104128935D01*
X66888252Y-104130367D01*
X66910122Y-104127641D01*
X66923476Y-104125977D01*
X66931152Y-104125500D01*
X66935096Y-104125500D01*
X66935098Y-104125500D01*
X66935100Y-104125499D01*
X66935106Y-104125499D01*
X66950471Y-104122934D01*
X66958124Y-104121657D01*
X67012610Y-104114866D01*
X67012611Y-104114865D01*
X67012613Y-104114865D01*
X67020125Y-104112628D01*
X67027590Y-104110066D01*
X67027590Y-104110065D01*
X67027594Y-104110065D01*
X67075861Y-104083944D01*
X67125195Y-104059826D01*
X67125198Y-104059823D01*
X67131578Y-104055268D01*
X67137803Y-104050422D01*
X67137810Y-104050419D01*
X67174992Y-104010028D01*
X67281965Y-103903054D01*
X67343284Y-103869572D01*
X67412976Y-103874556D01*
X67468910Y-103916427D01*
X67484204Y-103943285D01*
X67511850Y-104010028D01*
X67519139Y-104027625D01*
X67607379Y-104142621D01*
X67722375Y-104230861D01*
X67856291Y-104286330D01*
X67983280Y-104303048D01*
X67999999Y-104305250D01*
X68000000Y-104305250D01*
X68000001Y-104305250D01*
X68014977Y-104303278D01*
X68143709Y-104286330D01*
X68277625Y-104230861D01*
X68392621Y-104142621D01*
X68480861Y-104027625D01*
X68495940Y-103991220D01*
X68539779Y-103936820D01*
X68606073Y-103914754D01*
X68673772Y-103932033D01*
X68721383Y-103983169D01*
X68734500Y-104038675D01*
X68734500Y-107475500D01*
X68714815Y-107542539D01*
X68662011Y-107588294D01*
X68610500Y-107599500D01*
X67730787Y-107599500D01*
X67705342Y-107596861D01*
X67694716Y-107594633D01*
X67694713Y-107594633D01*
X67659491Y-107599023D01*
X67651815Y-107599500D01*
X67647870Y-107599500D01*
X67636355Y-107601421D01*
X67624840Y-107603342D01*
X67606680Y-107605606D01*
X67570359Y-107610134D01*
X67570355Y-107610135D01*
X67562826Y-107612377D01*
X67555367Y-107614937D01*
X67507102Y-107641058D01*
X67457775Y-107665172D01*
X67451365Y-107669748D01*
X67445159Y-107674579D01*
X67407976Y-107714970D01*
X66784765Y-108338181D01*
X66723442Y-108371666D01*
X66697084Y-108374500D01*
X65365957Y-108374500D01*
X65298918Y-108354815D01*
X65253163Y-108302011D01*
X65243219Y-108232853D01*
X65251396Y-108203048D01*
X65254442Y-108195695D01*
X65286330Y-108118709D01*
X65305250Y-107975000D01*
X65289536Y-107855644D01*
X65300301Y-107786611D01*
X65346681Y-107734355D01*
X65413950Y-107715469D01*
X65464238Y-107729266D01*
X65464866Y-107727751D01*
X65472377Y-107730862D01*
X65606291Y-107786330D01*
X65733280Y-107803048D01*
X65749999Y-107805250D01*
X65750000Y-107805250D01*
X65750001Y-107805250D01*
X65764977Y-107803278D01*
X65893709Y-107786330D01*
X66027625Y-107730861D01*
X66142621Y-107642621D01*
X66230861Y-107527625D01*
X66286330Y-107393709D01*
X66305250Y-107250000D01*
X66286330Y-107106291D01*
X66249350Y-107017013D01*
X66230862Y-106972377D01*
X66230861Y-106972376D01*
X66230861Y-106972375D01*
X66142621Y-106857379D01*
X66027625Y-106769139D01*
X66016570Y-106764560D01*
X65962170Y-106720721D01*
X65940104Y-106654427D01*
X65957383Y-106586728D01*
X66008519Y-106539117D01*
X66016553Y-106535446D01*
X66027625Y-106530861D01*
X66142621Y-106442621D01*
X66230861Y-106327625D01*
X66286330Y-106193709D01*
X66305250Y-106050000D01*
X66286330Y-105906291D01*
X66236641Y-105786329D01*
X66230862Y-105772377D01*
X66230861Y-105772376D01*
X66230861Y-105772375D01*
X66142621Y-105657379D01*
X66027625Y-105569139D01*
X66027624Y-105569138D01*
X66027622Y-105569137D01*
X65893712Y-105513671D01*
X65893710Y-105513670D01*
X65893709Y-105513670D01*
X65821854Y-105504210D01*
X65750001Y-105494750D01*
X65749999Y-105494750D01*
X65606291Y-105513670D01*
X65606287Y-105513671D01*
X65472377Y-105569137D01*
X65357379Y-105657379D01*
X65269137Y-105772377D01*
X65213671Y-105906287D01*
X65213670Y-105906291D01*
X65210199Y-105932659D01*
X65194750Y-106050000D01*
X65206619Y-106140156D01*
X65213670Y-106193708D01*
X65213671Y-106193712D01*
X65269137Y-106327622D01*
X65269138Y-106327624D01*
X65269139Y-106327625D01*
X65357379Y-106442621D01*
X65472375Y-106530861D01*
X65483428Y-106535439D01*
X65537831Y-106579281D01*
X65559895Y-106645575D01*
X65542615Y-106713274D01*
X65491478Y-106760884D01*
X65483433Y-106764558D01*
X65472375Y-106769139D01*
X65357379Y-106857379D01*
X65269137Y-106972377D01*
X65213671Y-107106287D01*
X65213670Y-107106291D01*
X65194750Y-107249999D01*
X65194750Y-107250002D01*
X65210463Y-107369354D01*
X65199697Y-107438389D01*
X65153317Y-107490645D01*
X65086048Y-107509530D01*
X65035761Y-107495734D01*
X65035134Y-107497249D01*
X64893712Y-107438671D01*
X64893710Y-107438670D01*
X64893709Y-107438670D01*
X64821854Y-107429210D01*
X64750001Y-107419750D01*
X64749999Y-107419750D01*
X64606291Y-107438670D01*
X64606287Y-107438671D01*
X64472377Y-107494137D01*
X64357379Y-107582379D01*
X64269137Y-107697377D01*
X64213671Y-107831287D01*
X64213670Y-107831291D01*
X64194750Y-107974999D01*
X64194750Y-107975000D01*
X64213670Y-108118708D01*
X64213671Y-108118712D01*
X64248604Y-108203048D01*
X64256073Y-108272517D01*
X64224798Y-108334996D01*
X64164709Y-108370648D01*
X64134043Y-108374500D01*
X62942026Y-108374500D01*
X62874987Y-108354815D01*
X62866547Y-108348882D01*
X62762625Y-108269139D01*
X62762624Y-108269138D01*
X62762622Y-108269137D01*
X62628712Y-108213671D01*
X62628710Y-108213670D01*
X62628709Y-108213670D01*
X62556854Y-108204210D01*
X62485001Y-108194750D01*
X62484999Y-108194750D01*
X62341291Y-108213670D01*
X62341287Y-108213671D01*
X62207377Y-108269137D01*
X62092379Y-108357379D01*
X62004137Y-108472377D01*
X61948671Y-108606287D01*
X61948670Y-108606291D01*
X61929750Y-108750000D01*
X61946148Y-108874556D01*
X61948670Y-108893708D01*
X61948671Y-108893712D01*
X62004137Y-109027622D01*
X62004138Y-109027623D01*
X62004139Y-109027625D01*
X62092379Y-109142621D01*
X62207375Y-109230861D01*
X62207376Y-109230861D01*
X62207377Y-109230862D01*
X62247244Y-109247375D01*
X62341291Y-109286330D01*
X62468280Y-109303048D01*
X62484999Y-109305250D01*
X62485000Y-109305250D01*
X62485001Y-109305250D01*
X62499977Y-109303278D01*
X62628709Y-109286330D01*
X62762625Y-109230861D01*
X62866540Y-109151123D01*
X62931709Y-109125930D01*
X62942026Y-109125500D01*
X64634043Y-109125500D01*
X64701082Y-109145185D01*
X64746837Y-109197989D01*
X64756781Y-109267147D01*
X64748604Y-109296952D01*
X64713671Y-109381287D01*
X64713670Y-109381291D01*
X64694750Y-109524999D01*
X64694750Y-109525000D01*
X64713670Y-109668708D01*
X64713671Y-109668712D01*
X64769137Y-109802622D01*
X64769138Y-109802624D01*
X64769139Y-109802625D01*
X64857379Y-109917621D01*
X64972375Y-110005861D01*
X65106291Y-110061330D01*
X65233280Y-110078048D01*
X65249999Y-110080250D01*
X65250000Y-110080250D01*
X65250001Y-110080250D01*
X65264977Y-110078278D01*
X65393709Y-110061330D01*
X65527625Y-110005861D01*
X65642621Y-109917621D01*
X65730861Y-109802625D01*
X65786330Y-109668709D01*
X65805250Y-109525000D01*
X65786330Y-109381291D01*
X65751395Y-109296951D01*
X65743927Y-109227483D01*
X65775202Y-109165004D01*
X65835291Y-109129352D01*
X65865957Y-109125500D01*
X66852180Y-109125500D01*
X66877625Y-109128139D01*
X66881424Y-109128935D01*
X66888252Y-109130367D01*
X66909209Y-109127754D01*
X66923476Y-109125977D01*
X66931152Y-109125500D01*
X66935096Y-109125500D01*
X66935098Y-109125500D01*
X66935100Y-109125499D01*
X66935106Y-109125499D01*
X66950471Y-109122934D01*
X66958124Y-109121657D01*
X67012610Y-109114866D01*
X67012611Y-109114865D01*
X67012613Y-109114865D01*
X67020125Y-109112628D01*
X67027590Y-109110066D01*
X67027590Y-109110065D01*
X67027594Y-109110065D01*
X67075861Y-109083944D01*
X67125195Y-109059826D01*
X67125198Y-109059823D01*
X67131578Y-109055268D01*
X67137803Y-109050422D01*
X67137810Y-109050419D01*
X67174992Y-109010028D01*
X67281965Y-108903054D01*
X67343284Y-108869572D01*
X67412976Y-108874556D01*
X67468910Y-108916427D01*
X67484204Y-108943285D01*
X67519138Y-109027622D01*
X67519139Y-109027625D01*
X67607379Y-109142621D01*
X67722375Y-109230861D01*
X67722376Y-109230861D01*
X67722377Y-109230862D01*
X67762244Y-109247375D01*
X67856291Y-109286330D01*
X67983280Y-109303048D01*
X67999999Y-109305250D01*
X68000000Y-109305250D01*
X68000001Y-109305250D01*
X68014977Y-109303278D01*
X68143709Y-109286330D01*
X68277625Y-109230861D01*
X68392621Y-109142621D01*
X68480861Y-109027625D01*
X68521992Y-108928323D01*
X68565832Y-108873920D01*
X68632126Y-108851855D01*
X68699826Y-108869134D01*
X68747436Y-108920270D01*
X68753076Y-108933368D01*
X68776025Y-108996424D01*
X68800185Y-109069331D01*
X68803236Y-109075874D01*
X68803182Y-109075898D01*
X68806470Y-109082688D01*
X68806521Y-109082663D01*
X68809761Y-109089113D01*
X68809762Y-109089114D01*
X68809763Y-109089117D01*
X68844952Y-109142620D01*
X68851965Y-109153283D01*
X68892287Y-109218655D01*
X68896766Y-109224319D01*
X68896719Y-109224356D01*
X68901482Y-109230202D01*
X68901528Y-109230164D01*
X68906173Y-109235700D01*
X68937405Y-109265165D01*
X68962018Y-109288386D01*
X69779923Y-110106291D01*
X70400792Y-110727159D01*
X70434277Y-110788482D01*
X70429293Y-110858173D01*
X70387421Y-110914107D01*
X70321957Y-110938524D01*
X70313111Y-110938840D01*
X63621873Y-110938840D01*
X63554834Y-110919155D01*
X63509079Y-110866351D01*
X63499135Y-110797193D01*
X63528160Y-110733637D01*
X63546379Y-110716469D01*
X63642621Y-110642621D01*
X63730861Y-110527625D01*
X63786330Y-110393709D01*
X63805250Y-110250000D01*
X63786330Y-110106291D01*
X63730861Y-109972375D01*
X63642621Y-109857379D01*
X63527625Y-109769139D01*
X63527624Y-109769138D01*
X63527622Y-109769137D01*
X63393712Y-109713671D01*
X63393710Y-109713670D01*
X63393709Y-109713670D01*
X63321854Y-109704210D01*
X63250001Y-109694750D01*
X63249999Y-109694750D01*
X63106291Y-109713670D01*
X63106287Y-109713671D01*
X62972377Y-109769137D01*
X62857379Y-109857379D01*
X62769137Y-109972377D01*
X62713671Y-110106287D01*
X62713670Y-110106291D01*
X62694750Y-110249999D01*
X62694750Y-110250000D01*
X62713670Y-110393708D01*
X62713671Y-110393712D01*
X62769137Y-110527622D01*
X62769138Y-110527624D01*
X62769139Y-110527625D01*
X62857379Y-110642621D01*
X62953615Y-110716466D01*
X62994816Y-110772892D01*
X62998971Y-110842638D01*
X62964758Y-110903559D01*
X62903041Y-110936311D01*
X62878127Y-110938840D01*
X51752440Y-110938840D01*
X51747574Y-110938649D01*
X51564259Y-110924222D01*
X51545041Y-110921178D01*
X51373363Y-110879962D01*
X51354858Y-110873949D01*
X51191748Y-110806388D01*
X51174411Y-110797555D01*
X51023867Y-110705303D01*
X51008126Y-110693866D01*
X50873876Y-110579209D01*
X50860119Y-110565453D01*
X50745450Y-110431196D01*
X50734014Y-110415456D01*
X50641761Y-110264920D01*
X50632927Y-110247583D01*
X50611111Y-110194918D01*
X50565357Y-110084465D01*
X50559346Y-110065964D01*
X50558283Y-110061536D01*
X50518124Y-109894277D01*
X50515084Y-109875093D01*
X50500690Y-109692258D01*
X50500500Y-109687409D01*
X50500500Y-109000000D01*
X52444750Y-109000000D01*
X52461913Y-109130367D01*
X52463670Y-109143708D01*
X52463671Y-109143712D01*
X52519137Y-109277622D01*
X52519138Y-109277624D01*
X52519139Y-109277625D01*
X52607379Y-109392621D01*
X52722375Y-109480861D01*
X52856291Y-109536330D01*
X52983280Y-109553048D01*
X52999999Y-109555250D01*
X53000000Y-109555250D01*
X53000001Y-109555250D01*
X53014977Y-109553278D01*
X53143709Y-109536330D01*
X53277625Y-109480861D01*
X53392621Y-109392621D01*
X53480861Y-109277625D01*
X53536330Y-109143709D01*
X53555250Y-109000000D01*
X53536330Y-108856291D01*
X53492693Y-108750940D01*
X53492304Y-108750000D01*
X60444750Y-108750000D01*
X60461148Y-108874556D01*
X60463670Y-108893708D01*
X60463671Y-108893712D01*
X60519137Y-109027622D01*
X60519138Y-109027623D01*
X60519139Y-109027625D01*
X60607379Y-109142621D01*
X60722375Y-109230861D01*
X60722376Y-109230861D01*
X60722377Y-109230862D01*
X60762244Y-109247375D01*
X60856291Y-109286330D01*
X60983280Y-109303048D01*
X60999999Y-109305250D01*
X61000000Y-109305250D01*
X61000001Y-109305250D01*
X61014977Y-109303278D01*
X61143709Y-109286330D01*
X61277625Y-109230861D01*
X61392621Y-109142621D01*
X61480861Y-109027625D01*
X61536330Y-108893709D01*
X61555250Y-108750000D01*
X61536330Y-108606291D01*
X61480861Y-108472375D01*
X61392621Y-108357379D01*
X61277625Y-108269139D01*
X61277624Y-108269138D01*
X61277622Y-108269137D01*
X61143712Y-108213671D01*
X61143710Y-108213670D01*
X61143709Y-108213670D01*
X61071854Y-108204210D01*
X61000001Y-108194750D01*
X60999999Y-108194750D01*
X60856291Y-108213670D01*
X60856287Y-108213671D01*
X60722377Y-108269137D01*
X60607379Y-108357379D01*
X60519137Y-108472377D01*
X60463671Y-108606287D01*
X60463670Y-108606291D01*
X60444750Y-108750000D01*
X53492304Y-108750000D01*
X53480862Y-108722377D01*
X53480861Y-108722376D01*
X53480861Y-108722375D01*
X53392621Y-108607379D01*
X53277625Y-108519139D01*
X53277624Y-108519138D01*
X53277622Y-108519137D01*
X53143712Y-108463671D01*
X53143710Y-108463670D01*
X53143709Y-108463670D01*
X53071854Y-108454210D01*
X53000001Y-108444750D01*
X52999999Y-108444750D01*
X52856291Y-108463670D01*
X52856287Y-108463671D01*
X52722377Y-108519137D01*
X52607379Y-108607379D01*
X52519137Y-108722377D01*
X52463671Y-108856287D01*
X52463670Y-108856291D01*
X52446807Y-108984379D01*
X52444750Y-109000000D01*
X50500500Y-109000000D01*
X50500500Y-106475000D01*
X50814706Y-106475000D01*
X50816242Y-106507254D01*
X50865770Y-106711409D01*
X50953040Y-106902507D01*
X51074889Y-107073619D01*
X51074895Y-107073625D01*
X51226932Y-107218592D01*
X51403657Y-107332166D01*
X51598685Y-107410244D01*
X51804962Y-107450000D01*
X52205000Y-107450000D01*
X52205000Y-106475000D01*
X50814706Y-106475000D01*
X50500500Y-106475000D01*
X50500500Y-106421889D01*
X52230000Y-106421889D01*
X52270507Y-106559844D01*
X52348239Y-106680798D01*
X52455000Y-106773305D01*
X52455000Y-107450000D01*
X52802398Y-107450000D01*
X52959122Y-107435034D01*
X52959126Y-107435033D01*
X53160686Y-107375850D01*
X53347414Y-107279586D01*
X53512537Y-107149731D01*
X53512540Y-107149728D01*
X53650105Y-106990969D01*
X53650114Y-106990958D01*
X53755144Y-106809039D01*
X53755147Y-106809032D01*
X53823855Y-106610516D01*
X53843340Y-106475000D01*
X54154706Y-106475000D01*
X54156242Y-106507254D01*
X54205770Y-106711409D01*
X54293040Y-106902507D01*
X54414889Y-107073619D01*
X54414895Y-107073625D01*
X54566932Y-107218592D01*
X54743657Y-107332166D01*
X54938685Y-107410244D01*
X55144962Y-107450000D01*
X55545000Y-107450000D01*
X55545000Y-106773305D01*
X55651761Y-106680798D01*
X55729493Y-106559844D01*
X55754405Y-106475000D01*
X55795000Y-106475000D01*
X55795000Y-107450000D01*
X56142398Y-107450000D01*
X56299122Y-107435034D01*
X56299126Y-107435033D01*
X56500686Y-107375850D01*
X56687414Y-107279586D01*
X56852537Y-107149731D01*
X56852540Y-107149728D01*
X56982280Y-107000000D01*
X58194750Y-107000000D01*
X58213670Y-107143708D01*
X58213671Y-107143712D01*
X58269137Y-107277622D01*
X58269138Y-107277624D01*
X58269139Y-107277625D01*
X58357379Y-107392621D01*
X58472375Y-107480861D01*
X58472376Y-107480861D01*
X58472377Y-107480862D01*
X58504431Y-107494139D01*
X58606291Y-107536330D01*
X58733280Y-107553048D01*
X58749999Y-107555250D01*
X58750000Y-107555250D01*
X58750001Y-107555250D01*
X58764977Y-107553278D01*
X58893709Y-107536330D01*
X59027625Y-107480861D01*
X59142621Y-107392621D01*
X59230861Y-107277625D01*
X59286330Y-107143709D01*
X59305250Y-107000000D01*
X59286330Y-106856291D01*
X59239721Y-106743766D01*
X59230862Y-106722377D01*
X59230861Y-106722376D01*
X59230861Y-106722375D01*
X59142621Y-106607379D01*
X59027625Y-106519139D01*
X59027624Y-106519138D01*
X59027622Y-106519137D01*
X58893712Y-106463671D01*
X58893710Y-106463670D01*
X58893709Y-106463670D01*
X58821854Y-106454210D01*
X58750001Y-106444750D01*
X58749999Y-106444750D01*
X58606291Y-106463670D01*
X58606287Y-106463671D01*
X58472377Y-106519137D01*
X58357379Y-106607379D01*
X58269137Y-106722377D01*
X58213671Y-106856287D01*
X58213670Y-106856291D01*
X58194750Y-106999999D01*
X58194750Y-107000000D01*
X56982280Y-107000000D01*
X56990105Y-106990969D01*
X56990114Y-106990958D01*
X57095144Y-106809039D01*
X57095147Y-106809032D01*
X57163855Y-106610516D01*
X57183340Y-106475000D01*
X55795000Y-106475000D01*
X55754405Y-106475000D01*
X55770000Y-106421889D01*
X55770000Y-106278111D01*
X55729493Y-106140156D01*
X55651761Y-106019202D01*
X55545000Y-105926694D01*
X55545000Y-105250000D01*
X55795000Y-105250000D01*
X55795000Y-106225000D01*
X57185294Y-106225000D01*
X57185294Y-106224999D01*
X57183757Y-106192745D01*
X57134229Y-105988590D01*
X57046959Y-105797492D01*
X56925110Y-105626380D01*
X56925104Y-105626374D01*
X56773067Y-105481407D01*
X56596342Y-105367833D01*
X56401314Y-105289755D01*
X56195038Y-105250000D01*
X55795000Y-105250000D01*
X55545000Y-105250000D01*
X55197602Y-105250000D01*
X55040877Y-105264965D01*
X55040873Y-105264966D01*
X54839313Y-105324149D01*
X54652585Y-105420413D01*
X54487462Y-105550268D01*
X54487459Y-105550271D01*
X54349894Y-105709030D01*
X54349885Y-105709041D01*
X54244855Y-105890960D01*
X54244852Y-105890967D01*
X54176144Y-106089483D01*
X54156660Y-106225000D01*
X54785595Y-106225000D01*
X54770000Y-106278111D01*
X54770000Y-106421889D01*
X54785595Y-106475000D01*
X54154706Y-106475000D01*
X53843340Y-106475000D01*
X53214405Y-106475000D01*
X53230000Y-106421889D01*
X53230000Y-106278111D01*
X53214405Y-106225000D01*
X53845294Y-106225000D01*
X53845294Y-106224999D01*
X53843757Y-106192745D01*
X53794229Y-105988590D01*
X53706959Y-105797492D01*
X53585110Y-105626380D01*
X53585104Y-105626374D01*
X53433067Y-105481407D01*
X53256342Y-105367833D01*
X53061314Y-105289755D01*
X52855038Y-105250000D01*
X52455000Y-105250000D01*
X52455000Y-105926694D01*
X52348239Y-106019202D01*
X52270507Y-106140156D01*
X52230000Y-106278111D01*
X52230000Y-106421889D01*
X50500500Y-106421889D01*
X50500500Y-106225000D01*
X50816660Y-106225000D01*
X52205000Y-106225000D01*
X52205000Y-105250000D01*
X51857602Y-105250000D01*
X51700877Y-105264965D01*
X51700873Y-105264966D01*
X51499313Y-105324149D01*
X51312585Y-105420413D01*
X51147462Y-105550268D01*
X51147459Y-105550271D01*
X51009894Y-105709030D01*
X51009885Y-105709041D01*
X50904855Y-105890960D01*
X50904852Y-105890967D01*
X50836144Y-106089483D01*
X50816660Y-106225000D01*
X50500500Y-106225000D01*
X50500500Y-105175000D01*
X62597562Y-105175000D01*
X62609406Y-105264966D01*
X62616482Y-105318708D01*
X62616483Y-105318712D01*
X62671949Y-105452622D01*
X62671950Y-105452624D01*
X62671951Y-105452625D01*
X62760191Y-105567621D01*
X62875187Y-105655861D01*
X62875188Y-105655861D01*
X62875189Y-105655862D01*
X62919825Y-105674350D01*
X63009103Y-105711330D01*
X63136092Y-105728048D01*
X63152811Y-105730250D01*
X63152812Y-105730250D01*
X63152813Y-105730250D01*
X63167789Y-105728278D01*
X63296521Y-105711330D01*
X63430437Y-105655861D01*
X63545433Y-105567621D01*
X63633673Y-105452625D01*
X63689142Y-105318709D01*
X63708062Y-105175000D01*
X63689142Y-105031291D01*
X63649776Y-104936252D01*
X63633674Y-104897377D01*
X63633673Y-104897376D01*
X63633673Y-104897375D01*
X63545433Y-104782379D01*
X63430437Y-104694139D01*
X63430436Y-104694138D01*
X63430434Y-104694137D01*
X63296524Y-104638671D01*
X63296522Y-104638670D01*
X63296521Y-104638670D01*
X63224666Y-104629210D01*
X63152813Y-104619750D01*
X63152811Y-104619750D01*
X63009103Y-104638670D01*
X63009099Y-104638671D01*
X62875189Y-104694137D01*
X62760191Y-104782379D01*
X62671949Y-104897377D01*
X62616483Y-105031287D01*
X62616482Y-105031291D01*
X62606982Y-105103453D01*
X62597562Y-105175000D01*
X50500500Y-105175000D01*
X50500500Y-103757401D01*
X50805746Y-103757401D01*
X50815745Y-103967327D01*
X50865296Y-104171578D01*
X50865298Y-104171582D01*
X50952598Y-104362743D01*
X50952601Y-104362748D01*
X50952602Y-104362750D01*
X50952604Y-104362753D01*
X51063966Y-104519139D01*
X51074515Y-104533953D01*
X51074520Y-104533959D01*
X51226620Y-104678985D01*
X51321578Y-104740011D01*
X51403428Y-104792613D01*
X51598543Y-104870725D01*
X51675763Y-104885608D01*
X51804914Y-104910500D01*
X51804915Y-104910500D01*
X52802419Y-104910500D01*
X52802425Y-104910500D01*
X52959218Y-104895528D01*
X53160875Y-104836316D01*
X53347682Y-104740011D01*
X53512886Y-104610092D01*
X53650519Y-104451256D01*
X53654276Y-104444750D01*
X53745740Y-104286329D01*
X53755604Y-104269244D01*
X53824344Y-104070633D01*
X53854254Y-103862602D01*
X53849243Y-103757401D01*
X54145746Y-103757401D01*
X54155745Y-103967327D01*
X54205296Y-104171578D01*
X54205298Y-104171582D01*
X54292598Y-104362743D01*
X54292601Y-104362748D01*
X54292602Y-104362750D01*
X54292604Y-104362753D01*
X54403966Y-104519139D01*
X54414515Y-104533953D01*
X54414520Y-104533959D01*
X54566620Y-104678985D01*
X54661578Y-104740011D01*
X54743428Y-104792613D01*
X54938543Y-104870725D01*
X55015763Y-104885608D01*
X55144914Y-104910500D01*
X55144915Y-104910500D01*
X56142419Y-104910500D01*
X56142425Y-104910500D01*
X56299218Y-104895528D01*
X56500875Y-104836316D01*
X56687682Y-104740011D01*
X56852886Y-104610092D01*
X56990519Y-104451256D01*
X56994276Y-104444750D01*
X57085740Y-104286329D01*
X57095604Y-104269244D01*
X57164344Y-104070633D01*
X57194254Y-103862602D01*
X57188890Y-103750000D01*
X60444750Y-103750000D01*
X60461148Y-103874556D01*
X60463670Y-103893708D01*
X60463671Y-103893712D01*
X60519137Y-104027622D01*
X60519138Y-104027623D01*
X60519139Y-104027625D01*
X60607379Y-104142621D01*
X60722375Y-104230861D01*
X60856291Y-104286330D01*
X60983280Y-104303048D01*
X60999999Y-104305250D01*
X61000000Y-104305250D01*
X61000001Y-104305250D01*
X61014977Y-104303278D01*
X61143709Y-104286330D01*
X61277625Y-104230861D01*
X61392621Y-104142621D01*
X61480861Y-104027625D01*
X61536330Y-103893709D01*
X61555250Y-103750000D01*
X61536330Y-103606291D01*
X61480861Y-103472375D01*
X61392621Y-103357379D01*
X61277625Y-103269139D01*
X61277624Y-103269138D01*
X61277622Y-103269137D01*
X61143712Y-103213671D01*
X61143710Y-103213670D01*
X61143709Y-103213670D01*
X61071854Y-103204210D01*
X61000001Y-103194750D01*
X60999999Y-103194750D01*
X60856291Y-103213670D01*
X60856287Y-103213671D01*
X60722377Y-103269137D01*
X60607379Y-103357379D01*
X60519137Y-103472377D01*
X60463671Y-103606287D01*
X60463670Y-103606291D01*
X60450504Y-103706298D01*
X60444750Y-103750000D01*
X57188890Y-103750000D01*
X57184254Y-103652670D01*
X57134704Y-103448424D01*
X57134701Y-103448417D01*
X57047401Y-103257256D01*
X57047398Y-103257251D01*
X57047397Y-103257250D01*
X57047396Y-103257247D01*
X56925486Y-103086048D01*
X56925484Y-103086046D01*
X56925479Y-103086040D01*
X56773379Y-102941014D01*
X56596574Y-102827388D01*
X56591191Y-102825233D01*
X56487404Y-102783683D01*
X56401455Y-102749274D01*
X56195086Y-102709500D01*
X56195085Y-102709500D01*
X55197575Y-102709500D01*
X55040782Y-102724472D01*
X55040778Y-102724473D01*
X54839127Y-102783683D01*
X54652313Y-102879991D01*
X54487116Y-103009905D01*
X54487112Y-103009909D01*
X54349478Y-103168746D01*
X54244398Y-103350750D01*
X54175656Y-103549365D01*
X54175656Y-103549367D01*
X54157615Y-103674852D01*
X54145746Y-103757401D01*
X53849243Y-103757401D01*
X53844254Y-103652670D01*
X53794704Y-103448424D01*
X53794701Y-103448417D01*
X53707401Y-103257256D01*
X53707398Y-103257251D01*
X53707397Y-103257250D01*
X53707396Y-103257247D01*
X53585486Y-103086048D01*
X53585484Y-103086046D01*
X53585479Y-103086040D01*
X53433379Y-102941014D01*
X53256574Y-102827388D01*
X53251191Y-102825233D01*
X53147404Y-102783683D01*
X53061455Y-102749274D01*
X52855086Y-102709500D01*
X52855085Y-102709500D01*
X51857575Y-102709500D01*
X51700782Y-102724472D01*
X51700778Y-102724473D01*
X51499127Y-102783683D01*
X51312313Y-102879991D01*
X51147116Y-103009905D01*
X51147112Y-103009909D01*
X51009478Y-103168746D01*
X50904398Y-103350750D01*
X50835656Y-103549365D01*
X50835656Y-103549367D01*
X50817615Y-103674852D01*
X50805746Y-103757401D01*
X50500500Y-103757401D01*
X50500500Y-101217401D01*
X50805746Y-101217401D01*
X50815745Y-101427327D01*
X50865296Y-101631578D01*
X50865298Y-101631582D01*
X50952598Y-101822743D01*
X50952601Y-101822748D01*
X50952602Y-101822750D01*
X50952604Y-101822753D01*
X51015627Y-101911256D01*
X51074515Y-101993953D01*
X51074520Y-101993959D01*
X51226620Y-102138985D01*
X51321578Y-102200011D01*
X51403428Y-102252613D01*
X51598543Y-102330725D01*
X51701729Y-102350612D01*
X51804914Y-102370500D01*
X51804915Y-102370500D01*
X52802419Y-102370500D01*
X52802425Y-102370500D01*
X52959218Y-102355528D01*
X53160875Y-102296316D01*
X53347682Y-102200011D01*
X53512886Y-102070092D01*
X53650519Y-101911256D01*
X53682256Y-101856287D01*
X53755601Y-101729249D01*
X53755600Y-101729249D01*
X53755604Y-101729244D01*
X53824344Y-101530633D01*
X53854254Y-101322602D01*
X53849243Y-101217401D01*
X54145746Y-101217401D01*
X54155745Y-101427327D01*
X54205296Y-101631578D01*
X54205298Y-101631582D01*
X54292598Y-101822743D01*
X54292601Y-101822748D01*
X54292602Y-101822750D01*
X54292604Y-101822753D01*
X54355627Y-101911256D01*
X54414515Y-101993953D01*
X54414520Y-101993959D01*
X54566620Y-102138985D01*
X54661578Y-102200011D01*
X54743428Y-102252613D01*
X54938543Y-102330725D01*
X55041729Y-102350612D01*
X55144914Y-102370500D01*
X55144915Y-102370500D01*
X56142419Y-102370500D01*
X56142425Y-102370500D01*
X56299218Y-102355528D01*
X56500875Y-102296316D01*
X56687682Y-102200011D01*
X56852886Y-102070092D01*
X56913621Y-102000000D01*
X58194750Y-102000000D01*
X58212822Y-102137271D01*
X58213670Y-102143708D01*
X58213671Y-102143712D01*
X58269137Y-102277622D01*
X58269138Y-102277624D01*
X58269139Y-102277625D01*
X58357379Y-102392621D01*
X58472375Y-102480861D01*
X58472376Y-102480861D01*
X58472377Y-102480862D01*
X58504431Y-102494139D01*
X58606291Y-102536330D01*
X58733280Y-102553048D01*
X58749999Y-102555250D01*
X58750000Y-102555250D01*
X58750001Y-102555250D01*
X58764977Y-102553278D01*
X58893709Y-102536330D01*
X59027625Y-102480861D01*
X59142621Y-102392621D01*
X59230861Y-102277625D01*
X59286330Y-102143709D01*
X59305250Y-102000000D01*
X59286330Y-101856291D01*
X59230861Y-101722375D01*
X59142621Y-101607379D01*
X59027625Y-101519139D01*
X59027624Y-101519138D01*
X59027622Y-101519137D01*
X58893712Y-101463671D01*
X58893710Y-101463670D01*
X58893709Y-101463670D01*
X58821854Y-101454210D01*
X58750001Y-101444750D01*
X58749999Y-101444750D01*
X58606291Y-101463670D01*
X58606287Y-101463671D01*
X58472377Y-101519137D01*
X58357379Y-101607379D01*
X58269137Y-101722377D01*
X58213671Y-101856287D01*
X58213670Y-101856291D01*
X58194750Y-102000000D01*
X56913621Y-102000000D01*
X56990519Y-101911256D01*
X57022256Y-101856287D01*
X57095601Y-101729249D01*
X57095600Y-101729249D01*
X57095604Y-101729244D01*
X57164344Y-101530633D01*
X57194254Y-101322602D01*
X57184254Y-101112670D01*
X57134704Y-100908424D01*
X57133728Y-100906287D01*
X57047401Y-100717256D01*
X57047398Y-100717251D01*
X57047397Y-100717250D01*
X57047396Y-100717247D01*
X56925486Y-100546048D01*
X56925484Y-100546046D01*
X56925479Y-100546040D01*
X56773379Y-100401014D01*
X56596574Y-100287388D01*
X56591191Y-100285233D01*
X56487404Y-100243683D01*
X56401455Y-100209274D01*
X56195086Y-100169500D01*
X56195085Y-100169500D01*
X55197575Y-100169500D01*
X55040782Y-100184472D01*
X55040778Y-100184473D01*
X54839127Y-100243683D01*
X54652313Y-100339991D01*
X54487116Y-100469905D01*
X54487112Y-100469909D01*
X54349478Y-100628746D01*
X54244398Y-100810750D01*
X54175656Y-101009365D01*
X54175656Y-101009367D01*
X54149152Y-101193712D01*
X54145746Y-101217401D01*
X53849243Y-101217401D01*
X53844254Y-101112670D01*
X53794704Y-100908424D01*
X53793728Y-100906287D01*
X53707401Y-100717256D01*
X53707398Y-100717251D01*
X53707397Y-100717250D01*
X53707396Y-100717247D01*
X53585486Y-100546048D01*
X53585484Y-100546046D01*
X53585479Y-100546040D01*
X53433379Y-100401014D01*
X53256574Y-100287388D01*
X53251191Y-100285233D01*
X53147404Y-100243683D01*
X53061455Y-100209274D01*
X52855086Y-100169500D01*
X52855085Y-100169500D01*
X51857575Y-100169500D01*
X51700782Y-100184472D01*
X51700778Y-100184473D01*
X51499127Y-100243683D01*
X51312313Y-100339991D01*
X51147116Y-100469905D01*
X51147112Y-100469909D01*
X51009478Y-100628746D01*
X50904398Y-100810750D01*
X50835656Y-101009365D01*
X50835656Y-101009367D01*
X50809152Y-101193712D01*
X50805746Y-101217401D01*
X50500500Y-101217401D01*
X50500500Y-98677401D01*
X50805746Y-98677401D01*
X50815745Y-98887327D01*
X50865296Y-99091578D01*
X50865298Y-99091582D01*
X50952598Y-99282743D01*
X50952601Y-99282748D01*
X50952602Y-99282750D01*
X50952604Y-99282753D01*
X51074514Y-99453952D01*
X51074515Y-99453953D01*
X51074520Y-99453959D01*
X51226620Y-99598985D01*
X51321578Y-99660011D01*
X51403428Y-99712613D01*
X51598543Y-99790725D01*
X51663742Y-99803291D01*
X51804914Y-99830500D01*
X51804915Y-99830500D01*
X52802419Y-99830500D01*
X52802425Y-99830500D01*
X52959218Y-99815528D01*
X53160875Y-99756316D01*
X53347682Y-99660011D01*
X53368412Y-99643709D01*
X53427467Y-99597267D01*
X53512886Y-99530092D01*
X53650519Y-99371256D01*
X53659162Y-99356287D01*
X53755601Y-99189249D01*
X53755600Y-99189249D01*
X53755604Y-99189244D01*
X53824344Y-98990633D01*
X53854254Y-98782602D01*
X53849243Y-98677401D01*
X54145746Y-98677401D01*
X54155745Y-98887327D01*
X54205296Y-99091578D01*
X54205298Y-99091582D01*
X54292598Y-99282743D01*
X54292601Y-99282748D01*
X54292602Y-99282750D01*
X54292604Y-99282753D01*
X54414514Y-99453952D01*
X54414515Y-99453953D01*
X54414520Y-99453959D01*
X54566620Y-99598985D01*
X54661578Y-99660011D01*
X54743428Y-99712613D01*
X54938543Y-99790725D01*
X55003742Y-99803291D01*
X55144914Y-99830500D01*
X55144915Y-99830500D01*
X56142419Y-99830500D01*
X56142425Y-99830500D01*
X56299218Y-99815528D01*
X56500875Y-99756316D01*
X56687682Y-99660011D01*
X56708412Y-99643709D01*
X56767467Y-99597267D01*
X56852886Y-99530092D01*
X56990519Y-99371256D01*
X56999162Y-99356287D01*
X57095601Y-99189249D01*
X57095600Y-99189249D01*
X57095604Y-99189244D01*
X57164344Y-98990633D01*
X57194254Y-98782602D01*
X57192701Y-98750000D01*
X60444750Y-98750000D01*
X60461148Y-98874556D01*
X60463670Y-98893708D01*
X60463671Y-98893712D01*
X60519137Y-99027622D01*
X60519138Y-99027623D01*
X60519139Y-99027625D01*
X60607379Y-99142621D01*
X60722375Y-99230861D01*
X60722376Y-99230861D01*
X60722377Y-99230862D01*
X60734043Y-99235694D01*
X60856291Y-99286330D01*
X60983280Y-99303048D01*
X60999999Y-99305250D01*
X61000000Y-99305250D01*
X61000001Y-99305250D01*
X61014977Y-99303278D01*
X61143709Y-99286330D01*
X61277625Y-99230861D01*
X61392621Y-99142621D01*
X61480861Y-99027625D01*
X61536330Y-98893709D01*
X61555250Y-98750000D01*
X61536330Y-98606291D01*
X61480861Y-98472375D01*
X61392621Y-98357379D01*
X61277625Y-98269139D01*
X61277624Y-98269138D01*
X61277622Y-98269137D01*
X61143712Y-98213671D01*
X61143710Y-98213670D01*
X61143709Y-98213670D01*
X61071854Y-98204210D01*
X61000001Y-98194750D01*
X60999999Y-98194750D01*
X60856291Y-98213670D01*
X60856287Y-98213671D01*
X60722377Y-98269137D01*
X60607379Y-98357379D01*
X60519137Y-98472377D01*
X60463671Y-98606287D01*
X60463670Y-98606291D01*
X60444750Y-98750000D01*
X57192701Y-98750000D01*
X57184254Y-98572670D01*
X57134704Y-98368424D01*
X57128489Y-98354815D01*
X57047401Y-98177256D01*
X57047398Y-98177251D01*
X57047397Y-98177250D01*
X57047396Y-98177247D01*
X56925486Y-98006048D01*
X56925484Y-98006046D01*
X56925479Y-98006040D01*
X56773379Y-97861014D01*
X56596574Y-97747388D01*
X56591191Y-97745233D01*
X56471648Y-97697375D01*
X56401455Y-97669274D01*
X56195086Y-97629500D01*
X56195085Y-97629500D01*
X55197575Y-97629500D01*
X55040782Y-97644472D01*
X55040778Y-97644473D01*
X54839127Y-97703683D01*
X54652313Y-97799991D01*
X54487116Y-97929905D01*
X54487112Y-97929909D01*
X54349478Y-98088746D01*
X54244398Y-98270750D01*
X54175656Y-98469365D01*
X54175656Y-98469367D01*
X54157615Y-98594852D01*
X54145746Y-98677401D01*
X53849243Y-98677401D01*
X53844254Y-98572670D01*
X53794704Y-98368424D01*
X53788489Y-98354815D01*
X53707401Y-98177256D01*
X53707398Y-98177251D01*
X53707397Y-98177250D01*
X53707396Y-98177247D01*
X53585486Y-98006048D01*
X53585484Y-98006046D01*
X53585479Y-98006040D01*
X53433379Y-97861014D01*
X53256574Y-97747388D01*
X53251191Y-97745233D01*
X53131648Y-97697375D01*
X53061455Y-97669274D01*
X52855086Y-97629500D01*
X52855085Y-97629500D01*
X51857575Y-97629500D01*
X51700782Y-97644472D01*
X51700778Y-97644473D01*
X51499127Y-97703683D01*
X51312313Y-97799991D01*
X51147116Y-97929905D01*
X51147112Y-97929909D01*
X51009478Y-98088746D01*
X50904398Y-98270750D01*
X50835656Y-98469365D01*
X50835656Y-98469367D01*
X50817615Y-98594852D01*
X50805746Y-98677401D01*
X50500500Y-98677401D01*
X50500500Y-96137401D01*
X50805746Y-96137401D01*
X50815745Y-96347327D01*
X50865296Y-96551578D01*
X50865298Y-96551582D01*
X50952598Y-96742743D01*
X50952601Y-96742748D01*
X50952602Y-96742750D01*
X50952604Y-96742753D01*
X51015627Y-96831256D01*
X51074515Y-96913953D01*
X51074520Y-96913959D01*
X51226620Y-97058985D01*
X51321578Y-97120011D01*
X51403428Y-97172613D01*
X51598543Y-97250725D01*
X51701729Y-97270612D01*
X51804914Y-97290500D01*
X51804915Y-97290500D01*
X52802419Y-97290500D01*
X52802425Y-97290500D01*
X52959218Y-97275528D01*
X53160875Y-97216316D01*
X53347682Y-97120011D01*
X53512886Y-96990092D01*
X53650519Y-96831256D01*
X53755604Y-96649244D01*
X53824344Y-96450633D01*
X53854254Y-96242602D01*
X53849243Y-96137401D01*
X54145746Y-96137401D01*
X54155745Y-96347327D01*
X54205296Y-96551578D01*
X54205298Y-96551582D01*
X54292598Y-96742743D01*
X54292601Y-96742748D01*
X54292602Y-96742750D01*
X54292604Y-96742753D01*
X54355627Y-96831256D01*
X54414515Y-96913953D01*
X54414520Y-96913959D01*
X54566620Y-97058985D01*
X54661578Y-97120011D01*
X54743428Y-97172613D01*
X54938543Y-97250725D01*
X55041729Y-97270612D01*
X55144914Y-97290500D01*
X55144915Y-97290500D01*
X56142419Y-97290500D01*
X56142425Y-97290500D01*
X56299218Y-97275528D01*
X56500875Y-97216316D01*
X56687682Y-97120011D01*
X56840287Y-97000000D01*
X58194750Y-97000000D01*
X58202289Y-97057267D01*
X58213670Y-97143708D01*
X58213671Y-97143712D01*
X58269137Y-97277622D01*
X58269138Y-97277624D01*
X58269139Y-97277625D01*
X58357379Y-97392621D01*
X58472375Y-97480861D01*
X58472376Y-97480861D01*
X58472377Y-97480862D01*
X58504431Y-97494139D01*
X58606291Y-97536330D01*
X58733280Y-97553048D01*
X58749999Y-97555250D01*
X58750000Y-97555250D01*
X58750001Y-97555250D01*
X58764977Y-97553278D01*
X58893709Y-97536330D01*
X59027625Y-97480861D01*
X59142621Y-97392621D01*
X59230861Y-97277625D01*
X59286330Y-97143709D01*
X59305250Y-97000000D01*
X65194750Y-97000000D01*
X65202289Y-97057267D01*
X65213670Y-97143708D01*
X65213671Y-97143712D01*
X65269137Y-97277622D01*
X65269138Y-97277624D01*
X65269139Y-97277625D01*
X65357379Y-97392621D01*
X65472375Y-97480861D01*
X65472376Y-97480861D01*
X65472377Y-97480862D01*
X65504431Y-97494139D01*
X65606291Y-97536330D01*
X65733280Y-97553048D01*
X65749999Y-97555250D01*
X65750000Y-97555250D01*
X65750001Y-97555250D01*
X65764977Y-97553278D01*
X65893709Y-97536330D01*
X66027625Y-97480861D01*
X66142621Y-97392621D01*
X66230861Y-97277625D01*
X66286330Y-97143709D01*
X66305250Y-97000000D01*
X66286330Y-96856291D01*
X66230861Y-96722375D01*
X66142621Y-96607379D01*
X66129440Y-96597265D01*
X66088239Y-96540837D01*
X66084085Y-96471091D01*
X66118299Y-96410171D01*
X66129437Y-96400519D01*
X66159840Y-96377191D01*
X66248080Y-96262195D01*
X66303549Y-96128279D01*
X66322469Y-95984570D01*
X66303549Y-95840861D01*
X66248080Y-95706945D01*
X66159840Y-95591949D01*
X66044844Y-95503709D01*
X66044843Y-95503708D01*
X66044841Y-95503707D01*
X65910931Y-95448241D01*
X65910929Y-95448240D01*
X65910928Y-95448240D01*
X65839073Y-95438780D01*
X65767220Y-95429320D01*
X65767218Y-95429320D01*
X65623510Y-95448240D01*
X65623506Y-95448241D01*
X65489596Y-95503707D01*
X65374598Y-95591949D01*
X65286356Y-95706947D01*
X65230890Y-95840857D01*
X65230889Y-95840861D01*
X65224075Y-95892621D01*
X65211969Y-95984570D01*
X65221241Y-96055000D01*
X65230889Y-96128278D01*
X65230890Y-96128282D01*
X65286356Y-96262192D01*
X65286357Y-96262194D01*
X65286358Y-96262195D01*
X65374598Y-96377191D01*
X65385500Y-96385557D01*
X65387776Y-96387303D01*
X65428978Y-96443731D01*
X65433133Y-96513477D01*
X65398920Y-96574397D01*
X65387778Y-96584052D01*
X65357380Y-96607377D01*
X65269137Y-96722377D01*
X65213671Y-96856287D01*
X65213670Y-96856291D01*
X65206079Y-96913953D01*
X65194750Y-97000000D01*
X59305250Y-97000000D01*
X59286330Y-96856291D01*
X59230861Y-96722375D01*
X59142621Y-96607379D01*
X59027625Y-96519139D01*
X59027624Y-96519138D01*
X59027622Y-96519137D01*
X58893712Y-96463671D01*
X58893710Y-96463670D01*
X58893709Y-96463670D01*
X58794670Y-96450631D01*
X58750001Y-96444750D01*
X58749999Y-96444750D01*
X58606291Y-96463670D01*
X58606287Y-96463671D01*
X58472377Y-96519137D01*
X58357379Y-96607379D01*
X58269137Y-96722377D01*
X58213671Y-96856287D01*
X58213670Y-96856291D01*
X58206079Y-96913953D01*
X58194750Y-97000000D01*
X56840287Y-97000000D01*
X56852886Y-96990092D01*
X56990519Y-96831256D01*
X57095604Y-96649244D01*
X57164344Y-96450633D01*
X57194254Y-96242602D01*
X57184254Y-96032670D01*
X57134704Y-95828424D01*
X57121973Y-95800547D01*
X57047401Y-95637256D01*
X57047398Y-95637251D01*
X57047397Y-95637250D01*
X57047396Y-95637247D01*
X56925486Y-95466048D01*
X56925484Y-95466046D01*
X56925479Y-95466040D01*
X56773379Y-95321014D01*
X56596574Y-95207388D01*
X56591191Y-95205233D01*
X56483897Y-95162279D01*
X56401455Y-95129274D01*
X56195086Y-95089500D01*
X56195085Y-95089500D01*
X55197575Y-95089500D01*
X55040782Y-95104472D01*
X55040778Y-95104473D01*
X54839127Y-95163683D01*
X54652313Y-95259991D01*
X54487116Y-95389905D01*
X54487112Y-95389909D01*
X54349478Y-95548746D01*
X54244398Y-95730750D01*
X54175656Y-95929365D01*
X54175656Y-95929367D01*
X54147058Y-96128279D01*
X54145746Y-96137401D01*
X53849243Y-96137401D01*
X53844254Y-96032670D01*
X53794704Y-95828424D01*
X53781973Y-95800547D01*
X53707401Y-95637256D01*
X53707398Y-95637251D01*
X53707397Y-95637250D01*
X53707396Y-95637247D01*
X53585486Y-95466048D01*
X53585484Y-95466046D01*
X53585479Y-95466040D01*
X53433379Y-95321014D01*
X53256574Y-95207388D01*
X53251191Y-95205233D01*
X53143897Y-95162279D01*
X53061455Y-95129274D01*
X52855086Y-95089500D01*
X52855085Y-95089500D01*
X51857575Y-95089500D01*
X51700782Y-95104472D01*
X51700778Y-95104473D01*
X51499127Y-95163683D01*
X51312313Y-95259991D01*
X51147116Y-95389905D01*
X51147112Y-95389909D01*
X51009478Y-95548746D01*
X50904398Y-95730750D01*
X50835656Y-95929365D01*
X50835656Y-95929367D01*
X50807058Y-96128279D01*
X50805746Y-96137401D01*
X50500500Y-96137401D01*
X50500500Y-93597401D01*
X50805746Y-93597401D01*
X50815745Y-93807327D01*
X50865296Y-94011578D01*
X50865298Y-94011582D01*
X50952598Y-94202743D01*
X50952601Y-94202748D01*
X50952602Y-94202750D01*
X50952604Y-94202753D01*
X51019682Y-94296951D01*
X51074515Y-94373953D01*
X51074520Y-94373959D01*
X51226620Y-94518985D01*
X51321578Y-94580011D01*
X51403428Y-94632613D01*
X51598543Y-94710725D01*
X51701729Y-94730612D01*
X51804914Y-94750500D01*
X51804915Y-94750500D01*
X52802419Y-94750500D01*
X52802425Y-94750500D01*
X52959218Y-94735528D01*
X53160875Y-94676316D01*
X53347682Y-94580011D01*
X53512886Y-94450092D01*
X53650519Y-94291256D01*
X53664439Y-94267147D01*
X53745970Y-94125930D01*
X53755604Y-94109244D01*
X53824344Y-93910633D01*
X53854254Y-93702602D01*
X53849243Y-93597401D01*
X54145746Y-93597401D01*
X54155745Y-93807327D01*
X54205296Y-94011578D01*
X54205298Y-94011582D01*
X54292598Y-94202743D01*
X54292601Y-94202748D01*
X54292602Y-94202750D01*
X54292604Y-94202753D01*
X54359682Y-94296951D01*
X54414515Y-94373953D01*
X54414520Y-94373959D01*
X54566620Y-94518985D01*
X54661578Y-94580011D01*
X54743428Y-94632613D01*
X54938543Y-94710725D01*
X55041729Y-94730612D01*
X55144914Y-94750500D01*
X55144915Y-94750500D01*
X56142419Y-94750500D01*
X56142425Y-94750500D01*
X56299218Y-94735528D01*
X56500875Y-94676316D01*
X56687682Y-94580011D01*
X56852886Y-94450092D01*
X56990519Y-94291256D01*
X57004439Y-94267147D01*
X57085970Y-94125930D01*
X57095604Y-94109244D01*
X57164344Y-93910633D01*
X57187439Y-93750000D01*
X60444750Y-93750000D01*
X60461148Y-93874556D01*
X60463670Y-93893708D01*
X60463671Y-93893712D01*
X60519137Y-94027622D01*
X60519138Y-94027623D01*
X60519139Y-94027625D01*
X60607379Y-94142621D01*
X60722375Y-94230861D01*
X60722376Y-94230861D01*
X60722377Y-94230862D01*
X60767013Y-94249350D01*
X60856291Y-94286330D01*
X60983280Y-94303048D01*
X60999999Y-94305250D01*
X61000000Y-94305250D01*
X61000001Y-94305250D01*
X61014977Y-94303278D01*
X61143709Y-94286330D01*
X61277625Y-94230861D01*
X61392621Y-94142621D01*
X61480861Y-94027625D01*
X61536330Y-93893709D01*
X61555250Y-93750000D01*
X61536330Y-93606291D01*
X61480861Y-93472375D01*
X61392621Y-93357379D01*
X61277625Y-93269139D01*
X61277624Y-93269138D01*
X61277622Y-93269137D01*
X61143712Y-93213671D01*
X61143710Y-93213670D01*
X61143709Y-93213670D01*
X61071854Y-93204210D01*
X61000001Y-93194750D01*
X60999999Y-93194750D01*
X60856291Y-93213670D01*
X60856287Y-93213671D01*
X60722377Y-93269137D01*
X60607379Y-93357379D01*
X60519137Y-93472377D01*
X60463671Y-93606287D01*
X60463670Y-93606291D01*
X60450505Y-93706291D01*
X60444750Y-93750000D01*
X57187439Y-93750000D01*
X57194254Y-93702602D01*
X57184254Y-93492670D01*
X57134704Y-93288424D01*
X57132734Y-93284110D01*
X57047401Y-93097256D01*
X57047398Y-93097251D01*
X57047397Y-93097250D01*
X57047396Y-93097247D01*
X56925486Y-92926048D01*
X56925484Y-92926046D01*
X56925479Y-92926040D01*
X56773379Y-92781014D01*
X56596574Y-92667388D01*
X56591191Y-92665233D01*
X56459163Y-92612377D01*
X56401455Y-92589274D01*
X56195086Y-92549500D01*
X56195085Y-92549500D01*
X55197575Y-92549500D01*
X55040782Y-92564472D01*
X55040778Y-92564473D01*
X54839127Y-92623683D01*
X54652313Y-92719991D01*
X54487116Y-92849905D01*
X54487112Y-92849909D01*
X54349478Y-93008746D01*
X54244398Y-93190750D01*
X54175656Y-93389365D01*
X54175656Y-93389367D01*
X54157615Y-93514852D01*
X54145746Y-93597401D01*
X53849243Y-93597401D01*
X53844254Y-93492670D01*
X53794704Y-93288424D01*
X53792734Y-93284110D01*
X53707401Y-93097256D01*
X53707398Y-93097251D01*
X53707397Y-93097250D01*
X53707396Y-93097247D01*
X53585486Y-92926048D01*
X53585484Y-92926046D01*
X53585479Y-92926040D01*
X53433379Y-92781014D01*
X53256574Y-92667388D01*
X53251191Y-92665233D01*
X53119163Y-92612377D01*
X53061455Y-92589274D01*
X52855086Y-92549500D01*
X52855085Y-92549500D01*
X51857575Y-92549500D01*
X51700782Y-92564472D01*
X51700778Y-92564473D01*
X51499127Y-92623683D01*
X51312313Y-92719991D01*
X51147116Y-92849905D01*
X51147112Y-92849909D01*
X51009478Y-93008746D01*
X50904398Y-93190750D01*
X50835656Y-93389365D01*
X50835656Y-93389367D01*
X50817615Y-93514852D01*
X50805746Y-93597401D01*
X50500500Y-93597401D01*
X50500500Y-92000000D01*
X58194750Y-92000000D01*
X58212588Y-92135494D01*
X58213670Y-92143708D01*
X58213671Y-92143712D01*
X58269137Y-92277622D01*
X58269138Y-92277624D01*
X58269139Y-92277625D01*
X58357379Y-92392621D01*
X58472375Y-92480861D01*
X58472376Y-92480861D01*
X58472377Y-92480862D01*
X58504431Y-92494139D01*
X58606291Y-92536330D01*
X58733280Y-92553048D01*
X58749999Y-92555250D01*
X58750000Y-92555250D01*
X58750001Y-92555250D01*
X58764977Y-92553278D01*
X58893709Y-92536330D01*
X59027625Y-92480861D01*
X59142621Y-92392621D01*
X59230861Y-92277625D01*
X59286330Y-92143709D01*
X59305250Y-92000000D01*
X65194750Y-92000000D01*
X65212588Y-92135494D01*
X65213670Y-92143708D01*
X65213671Y-92143712D01*
X65269137Y-92277622D01*
X65269138Y-92277624D01*
X65269139Y-92277625D01*
X65357379Y-92392621D01*
X65472375Y-92480861D01*
X65472376Y-92480861D01*
X65472377Y-92480862D01*
X65504431Y-92494139D01*
X65606291Y-92536330D01*
X65733280Y-92553048D01*
X65749999Y-92555250D01*
X65750000Y-92555250D01*
X65750001Y-92555250D01*
X65764977Y-92553278D01*
X65893709Y-92536330D01*
X66027625Y-92480861D01*
X66142621Y-92392621D01*
X66230861Y-92277625D01*
X66286330Y-92143709D01*
X66305250Y-92000000D01*
X66286330Y-91856291D01*
X66230861Y-91722375D01*
X66142621Y-91607379D01*
X66129440Y-91597265D01*
X66088239Y-91540837D01*
X66084085Y-91471091D01*
X66118299Y-91410171D01*
X66129437Y-91400519D01*
X66159840Y-91377191D01*
X66248080Y-91262195D01*
X66303549Y-91128279D01*
X66322469Y-90984570D01*
X66303549Y-90840861D01*
X66248080Y-90706945D01*
X66159840Y-90591949D01*
X66044844Y-90503709D01*
X66044843Y-90503708D01*
X66044841Y-90503707D01*
X65910931Y-90448241D01*
X65910929Y-90448240D01*
X65910928Y-90448240D01*
X65839073Y-90438780D01*
X65767220Y-90429320D01*
X65767218Y-90429320D01*
X65623510Y-90448240D01*
X65623506Y-90448241D01*
X65489596Y-90503707D01*
X65374598Y-90591949D01*
X65286356Y-90706947D01*
X65230890Y-90840857D01*
X65230889Y-90840861D01*
X65211969Y-90984569D01*
X65211969Y-90984570D01*
X65230889Y-91128278D01*
X65230890Y-91128282D01*
X65286356Y-91262192D01*
X65286357Y-91262194D01*
X65286358Y-91262195D01*
X65374598Y-91377191D01*
X65385500Y-91385557D01*
X65387776Y-91387303D01*
X65428978Y-91443731D01*
X65433133Y-91513477D01*
X65398920Y-91574397D01*
X65387778Y-91584052D01*
X65357380Y-91607377D01*
X65269137Y-91722377D01*
X65213671Y-91856287D01*
X65213670Y-91856291D01*
X65194750Y-92000000D01*
X59305250Y-92000000D01*
X59286330Y-91856291D01*
X59230861Y-91722375D01*
X59142621Y-91607379D01*
X59027625Y-91519139D01*
X59027624Y-91519138D01*
X59027622Y-91519137D01*
X58893712Y-91463671D01*
X58893710Y-91463670D01*
X58893709Y-91463670D01*
X58821854Y-91454210D01*
X58750001Y-91444750D01*
X58749999Y-91444750D01*
X58606291Y-91463670D01*
X58606287Y-91463671D01*
X58472377Y-91519137D01*
X58357379Y-91607379D01*
X58269137Y-91722377D01*
X58213671Y-91856287D01*
X58213670Y-91856291D01*
X58194750Y-92000000D01*
X50500500Y-92000000D01*
X50500500Y-89752440D01*
X50500691Y-89747574D01*
X50515117Y-89564265D01*
X50518161Y-89545045D01*
X50531243Y-89490558D01*
X50559378Y-89373365D01*
X50565390Y-89354865D01*
X50632953Y-89191753D01*
X50641787Y-89174416D01*
X50664900Y-89136700D01*
X50734034Y-89023881D01*
X50745470Y-89008142D01*
X50860136Y-88873885D01*
X50873885Y-88860136D01*
X50968053Y-88779709D01*
X51031814Y-88751139D01*
X51048584Y-88750000D01*
X70305812Y-88750000D01*
X70372851Y-88769685D01*
G37*
G04 #@! TD.AperFunction*
G04 #@! TD*
G04 #@! TA.AperFunction,Conductor*
G04 #@! TO.N,VCC*
G36*
X132518455Y-88769685D02*
G01*
X132531943Y-88779706D01*
X132563854Y-88806961D01*
X132626109Y-88860132D01*
X132639867Y-88873890D01*
X132754529Y-89008142D01*
X132765966Y-89023884D01*
X132858212Y-89174416D01*
X132867046Y-89191753D01*
X132934609Y-89354865D01*
X132940622Y-89373370D01*
X132981838Y-89545045D01*
X132984882Y-89564264D01*
X132999309Y-89747573D01*
X132999500Y-89752440D01*
X132999500Y-109686889D01*
X132999309Y-109691757D01*
X132984876Y-109875069D01*
X132981832Y-109894287D01*
X132940615Y-110065952D01*
X132934602Y-110084457D01*
X132867036Y-110247565D01*
X132858202Y-110264902D01*
X132765953Y-110415433D01*
X132754516Y-110431174D01*
X132639856Y-110565420D01*
X132626098Y-110579178D01*
X132491845Y-110693839D01*
X132476102Y-110705276D01*
X132325572Y-110797518D01*
X132308236Y-110806351D01*
X132145128Y-110873911D01*
X132126623Y-110879924D01*
X131954952Y-110921138D01*
X131935734Y-110924182D01*
X131795042Y-110935255D01*
X131751916Y-110938649D01*
X131747054Y-110938840D01*
X77624000Y-110938840D01*
X77556961Y-110919155D01*
X77511206Y-110866351D01*
X77500000Y-110814840D01*
X77500000Y-109996811D01*
X77519685Y-109929772D01*
X77562642Y-109889056D01*
X77594821Y-109870732D01*
X77594821Y-109870731D01*
X77594828Y-109870728D01*
X77632568Y-109838026D01*
X77647629Y-109824976D01*
X77659758Y-109812406D01*
X77679257Y-109792199D01*
X77725465Y-109703864D01*
X77727470Y-109697038D01*
X77740484Y-109652715D01*
X77745150Y-109636825D01*
X77755500Y-109564840D01*
X77755500Y-108880000D01*
X79864417Y-108880000D01*
X79884699Y-109085932D01*
X79884700Y-109085934D01*
X79944768Y-109283954D01*
X80042315Y-109466450D01*
X80069848Y-109499999D01*
X80173589Y-109626410D01*
X80247284Y-109686889D01*
X80333550Y-109757685D01*
X80516046Y-109855232D01*
X80714066Y-109915300D01*
X80714065Y-109915300D01*
X80752647Y-109919100D01*
X80868392Y-109930500D01*
X80868395Y-109930500D01*
X81771605Y-109930500D01*
X81771608Y-109930500D01*
X81925934Y-109915300D01*
X82123954Y-109855232D01*
X82306450Y-109757685D01*
X82315814Y-109750000D01*
X106694750Y-109750000D01*
X106713057Y-109889056D01*
X106713670Y-109893708D01*
X106713671Y-109893712D01*
X106769137Y-110027622D01*
X106769138Y-110027624D01*
X106769139Y-110027625D01*
X106857379Y-110142621D01*
X106972375Y-110230861D01*
X107106291Y-110286330D01*
X107230122Y-110302633D01*
X107249999Y-110305250D01*
X107250000Y-110305250D01*
X107250001Y-110305250D01*
X107264977Y-110303278D01*
X107393709Y-110286330D01*
X107527625Y-110230861D01*
X107642621Y-110142621D01*
X107730861Y-110027625D01*
X107786330Y-109893709D01*
X107794394Y-109832455D01*
X107822660Y-109768559D01*
X107880985Y-109730088D01*
X107950850Y-109729257D01*
X108010073Y-109766329D01*
X108015709Y-109773154D01*
X108019138Y-109777622D01*
X108019139Y-109777625D01*
X108107379Y-109892621D01*
X108222375Y-109980861D01*
X108356291Y-110036330D01*
X108483280Y-110053048D01*
X108499999Y-110055250D01*
X108500000Y-110055250D01*
X108500001Y-110055250D01*
X108514977Y-110053278D01*
X108643709Y-110036330D01*
X108777625Y-109980861D01*
X108892621Y-109892621D01*
X108980861Y-109777625D01*
X109036330Y-109643709D01*
X109055250Y-109500000D01*
X128444750Y-109500000D01*
X128463670Y-109643708D01*
X128463671Y-109643712D01*
X128519137Y-109777622D01*
X128519138Y-109777624D01*
X128519139Y-109777625D01*
X128607379Y-109892621D01*
X128722375Y-109980861D01*
X128856291Y-110036330D01*
X128983280Y-110053048D01*
X128999999Y-110055250D01*
X129000000Y-110055250D01*
X129000001Y-110055250D01*
X129014977Y-110053278D01*
X129143709Y-110036330D01*
X129277625Y-109980861D01*
X129392621Y-109892621D01*
X129480861Y-109777625D01*
X129536330Y-109643709D01*
X129555250Y-109500000D01*
X129536330Y-109356291D01*
X129480861Y-109222375D01*
X129392621Y-109107379D01*
X129277625Y-109019139D01*
X129277624Y-109019138D01*
X129277622Y-109019137D01*
X129143712Y-108963671D01*
X129143710Y-108963670D01*
X129143709Y-108963670D01*
X129071854Y-108954210D01*
X129000001Y-108944750D01*
X128999999Y-108944750D01*
X128856291Y-108963670D01*
X128856287Y-108963671D01*
X128722377Y-109019137D01*
X128607379Y-109107379D01*
X128519137Y-109222377D01*
X128463671Y-109356287D01*
X128463670Y-109356291D01*
X128444750Y-109499999D01*
X128444750Y-109500000D01*
X109055250Y-109500000D01*
X109036330Y-109356291D01*
X108980861Y-109222375D01*
X108892621Y-109107379D01*
X108777625Y-109019139D01*
X108777624Y-109019138D01*
X108777622Y-109019137D01*
X108643712Y-108963671D01*
X108643710Y-108963670D01*
X108643709Y-108963670D01*
X108571854Y-108954210D01*
X108500001Y-108944750D01*
X108499999Y-108944750D01*
X108356291Y-108963670D01*
X108356287Y-108963671D01*
X108222377Y-109019137D01*
X108107379Y-109107379D01*
X108019137Y-109222377D01*
X107963671Y-109356287D01*
X107963670Y-109356291D01*
X107955605Y-109417545D01*
X107927337Y-109481441D01*
X107869012Y-109519912D01*
X107799147Y-109520742D01*
X107739925Y-109483669D01*
X107734290Y-109476845D01*
X107730862Y-109472377D01*
X107730861Y-109472375D01*
X107642621Y-109357379D01*
X107527625Y-109269139D01*
X107527624Y-109269138D01*
X107527622Y-109269137D01*
X107393712Y-109213671D01*
X107393710Y-109213670D01*
X107393709Y-109213670D01*
X107321854Y-109204210D01*
X107250001Y-109194750D01*
X107249999Y-109194750D01*
X107106291Y-109213670D01*
X107106287Y-109213671D01*
X106972377Y-109269137D01*
X106857379Y-109357379D01*
X106769137Y-109472377D01*
X106713671Y-109606287D01*
X106713670Y-109606291D01*
X106697372Y-109730088D01*
X106694750Y-109750000D01*
X82315814Y-109750000D01*
X82466410Y-109626410D01*
X82597685Y-109466450D01*
X82695232Y-109283954D01*
X82755300Y-109085934D01*
X82775583Y-108880000D01*
X82755300Y-108674066D01*
X82695232Y-108476046D01*
X82597685Y-108293550D01*
X82534206Y-108216200D01*
X82466410Y-108133589D01*
X82306452Y-108002317D01*
X82306453Y-108002317D01*
X82306450Y-108002315D01*
X82123954Y-107904768D01*
X81925934Y-107844700D01*
X81925932Y-107844699D01*
X81925934Y-107844699D01*
X81806805Y-107832966D01*
X81771608Y-107829500D01*
X80868392Y-107829500D01*
X80830298Y-107833251D01*
X80714067Y-107844699D01*
X80516043Y-107904769D01*
X80405898Y-107963643D01*
X80333550Y-108002315D01*
X80333548Y-108002316D01*
X80333547Y-108002317D01*
X80173589Y-108133589D01*
X80042317Y-108293547D01*
X79944769Y-108476043D01*
X79884699Y-108674067D01*
X79864417Y-108880000D01*
X77755500Y-108880000D01*
X77755500Y-106340000D01*
X79864417Y-106340000D01*
X79884699Y-106545932D01*
X79914359Y-106643707D01*
X79944768Y-106743954D01*
X80042315Y-106926450D01*
X80042317Y-106926452D01*
X80173589Y-107086410D01*
X80250747Y-107149731D01*
X80333550Y-107217685D01*
X80516046Y-107315232D01*
X80714066Y-107375300D01*
X80714065Y-107375300D01*
X80752647Y-107379100D01*
X80868392Y-107390500D01*
X80868395Y-107390500D01*
X81771605Y-107390500D01*
X81771608Y-107390500D01*
X81925934Y-107375300D01*
X82123954Y-107315232D01*
X82306450Y-107217685D01*
X82466410Y-107086410D01*
X82537324Y-107000000D01*
X88444750Y-107000000D01*
X88458077Y-107101230D01*
X88463670Y-107143708D01*
X88463671Y-107143712D01*
X88519137Y-107277622D01*
X88519138Y-107277624D01*
X88519139Y-107277625D01*
X88607379Y-107392621D01*
X88722375Y-107480861D01*
X88722376Y-107480861D01*
X88722377Y-107480862D01*
X88767013Y-107499350D01*
X88856291Y-107536330D01*
X88983280Y-107553048D01*
X88999999Y-107555250D01*
X89000000Y-107555250D01*
X89000001Y-107555250D01*
X89014977Y-107553278D01*
X89143709Y-107536330D01*
X89277625Y-107480861D01*
X89392621Y-107392621D01*
X89480861Y-107277625D01*
X89536330Y-107143709D01*
X89555250Y-107000000D01*
X89536330Y-106856291D01*
X89489120Y-106742315D01*
X89480862Y-106722377D01*
X89480861Y-106722376D01*
X89480861Y-106722375D01*
X89392621Y-106607379D01*
X89277625Y-106519139D01*
X89277624Y-106519138D01*
X89277622Y-106519137D01*
X89143712Y-106463671D01*
X89143710Y-106463670D01*
X89143709Y-106463670D01*
X89059732Y-106452614D01*
X89000001Y-106444750D01*
X88999999Y-106444750D01*
X88856291Y-106463670D01*
X88856287Y-106463671D01*
X88722377Y-106519137D01*
X88607379Y-106607379D01*
X88519137Y-106722377D01*
X88463671Y-106856287D01*
X88463670Y-106856291D01*
X88447270Y-106980862D01*
X88444750Y-107000000D01*
X82537324Y-107000000D01*
X82597685Y-106926450D01*
X82695232Y-106743954D01*
X82755300Y-106545934D01*
X82775583Y-106340000D01*
X82755300Y-106134066D01*
X82695232Y-105936046D01*
X82597685Y-105753550D01*
X82594772Y-105750000D01*
X82944750Y-105750000D01*
X82960824Y-105872095D01*
X82963670Y-105893708D01*
X82963671Y-105893712D01*
X83019137Y-106027622D01*
X83019138Y-106027624D01*
X83019139Y-106027625D01*
X83107379Y-106142621D01*
X83222375Y-106230861D01*
X83356291Y-106286330D01*
X83483280Y-106303048D01*
X83499999Y-106305250D01*
X83500000Y-106305250D01*
X83500001Y-106305250D01*
X83514977Y-106303278D01*
X83643709Y-106286330D01*
X83777625Y-106230861D01*
X83892621Y-106142621D01*
X83980861Y-106027625D01*
X83992303Y-106000000D01*
X97444750Y-106000000D01*
X97462400Y-106134066D01*
X97463670Y-106143708D01*
X97463671Y-106143712D01*
X97519137Y-106277622D01*
X97519138Y-106277624D01*
X97519139Y-106277625D01*
X97607379Y-106392621D01*
X97722375Y-106480861D01*
X97856291Y-106536330D01*
X97983280Y-106553048D01*
X97999999Y-106555250D01*
X98000000Y-106555250D01*
X98000001Y-106555250D01*
X98014977Y-106553278D01*
X98143709Y-106536330D01*
X98277625Y-106480861D01*
X98277627Y-106480859D01*
X98284419Y-106478046D01*
X98353889Y-106470577D01*
X98416368Y-106501852D01*
X98452020Y-106561941D01*
X98454811Y-106576421D01*
X98463670Y-106643707D01*
X98463671Y-106643712D01*
X98519137Y-106777622D01*
X98519138Y-106777624D01*
X98519139Y-106777625D01*
X98607379Y-106892621D01*
X98722375Y-106980861D01*
X98722376Y-106980861D01*
X98722377Y-106980862D01*
X98746778Y-106990969D01*
X98856291Y-107036330D01*
X98983280Y-107053048D01*
X98999999Y-107055250D01*
X99000000Y-107055250D01*
X99000001Y-107055250D01*
X99014977Y-107053278D01*
X99143709Y-107036330D01*
X99277625Y-106980861D01*
X99392621Y-106892621D01*
X99480861Y-106777625D01*
X99536330Y-106643709D01*
X99555250Y-106500000D01*
X99536330Y-106356291D01*
X99491220Y-106247385D01*
X99480862Y-106222377D01*
X99480861Y-106222376D01*
X99480861Y-106222375D01*
X99392621Y-106107379D01*
X99277625Y-106019139D01*
X99277624Y-106019138D01*
X99277622Y-106019137D01*
X99231420Y-106000000D01*
X106694750Y-106000000D01*
X106712400Y-106134066D01*
X106713670Y-106143708D01*
X106713671Y-106143712D01*
X106769137Y-106277622D01*
X106769138Y-106277624D01*
X106769139Y-106277625D01*
X106857379Y-106392621D01*
X106972375Y-106480861D01*
X107106291Y-106536330D01*
X107233280Y-106553048D01*
X107249999Y-106555250D01*
X107250000Y-106555250D01*
X107250001Y-106555250D01*
X107264977Y-106553278D01*
X107393709Y-106536330D01*
X107527625Y-106480861D01*
X107642621Y-106392621D01*
X107730861Y-106277625D01*
X107786330Y-106143709D01*
X107805250Y-106000000D01*
X108194750Y-106000000D01*
X108212400Y-106134066D01*
X108213670Y-106143708D01*
X108213671Y-106143712D01*
X108269137Y-106277622D01*
X108269138Y-106277624D01*
X108269139Y-106277625D01*
X108357379Y-106392621D01*
X108472375Y-106480861D01*
X108606291Y-106536330D01*
X108733280Y-106553048D01*
X108749999Y-106555250D01*
X108750000Y-106555250D01*
X108750001Y-106555250D01*
X108764977Y-106553278D01*
X108893709Y-106536330D01*
X109027625Y-106480861D01*
X109035263Y-106475000D01*
X125814706Y-106475000D01*
X125816242Y-106507254D01*
X125865770Y-106711409D01*
X125953040Y-106902507D01*
X126074889Y-107073619D01*
X126074895Y-107073625D01*
X126226932Y-107218592D01*
X126403657Y-107332166D01*
X126598685Y-107410244D01*
X126804962Y-107450000D01*
X127205000Y-107450000D01*
X127205000Y-106475000D01*
X125814706Y-106475000D01*
X109035263Y-106475000D01*
X109104478Y-106421889D01*
X127230000Y-106421889D01*
X127270507Y-106559844D01*
X127348239Y-106680798D01*
X127455000Y-106773305D01*
X127455000Y-107450000D01*
X127802398Y-107450000D01*
X127959122Y-107435034D01*
X127959126Y-107435033D01*
X128160686Y-107375850D01*
X128347414Y-107279586D01*
X128512537Y-107149731D01*
X128512540Y-107149728D01*
X128650105Y-106990969D01*
X128650114Y-106990958D01*
X128755144Y-106809039D01*
X128755147Y-106809032D01*
X128823855Y-106610516D01*
X128843340Y-106475000D01*
X129154706Y-106475000D01*
X129156242Y-106507254D01*
X129205770Y-106711409D01*
X129293040Y-106902507D01*
X129414889Y-107073619D01*
X129414895Y-107073625D01*
X129566932Y-107218592D01*
X129743657Y-107332166D01*
X129938685Y-107410244D01*
X130144962Y-107450000D01*
X130545000Y-107450000D01*
X130545000Y-106773305D01*
X130651761Y-106680798D01*
X130729493Y-106559844D01*
X130754405Y-106475000D01*
X130795000Y-106475000D01*
X130795000Y-107450000D01*
X131142398Y-107450000D01*
X131299122Y-107435034D01*
X131299126Y-107435033D01*
X131500686Y-107375850D01*
X131687414Y-107279586D01*
X131852537Y-107149731D01*
X131852540Y-107149728D01*
X131990105Y-106990969D01*
X131990114Y-106990958D01*
X132095144Y-106809039D01*
X132095147Y-106809032D01*
X132163855Y-106610516D01*
X132183340Y-106475000D01*
X130795000Y-106475000D01*
X130754405Y-106475000D01*
X130770000Y-106421889D01*
X130770000Y-106278111D01*
X130729493Y-106140156D01*
X130651761Y-106019202D01*
X130545000Y-105926694D01*
X130545000Y-105250000D01*
X130795000Y-105250000D01*
X130795000Y-106225000D01*
X132185294Y-106225000D01*
X132185294Y-106224999D01*
X132183757Y-106192745D01*
X132134229Y-105988590D01*
X132046959Y-105797492D01*
X131925110Y-105626380D01*
X131925104Y-105626374D01*
X131773067Y-105481407D01*
X131596342Y-105367833D01*
X131401314Y-105289755D01*
X131195038Y-105250000D01*
X130795000Y-105250000D01*
X130545000Y-105250000D01*
X130197602Y-105250000D01*
X130040877Y-105264965D01*
X130040873Y-105264966D01*
X129839313Y-105324149D01*
X129652585Y-105420413D01*
X129487462Y-105550268D01*
X129487459Y-105550271D01*
X129349894Y-105709030D01*
X129349885Y-105709041D01*
X129244855Y-105890960D01*
X129244852Y-105890967D01*
X129176144Y-106089483D01*
X129156660Y-106225000D01*
X129785595Y-106225000D01*
X129770000Y-106278111D01*
X129770000Y-106421889D01*
X129785595Y-106475000D01*
X129154706Y-106475000D01*
X128843340Y-106475000D01*
X128214405Y-106475000D01*
X128230000Y-106421889D01*
X128230000Y-106278111D01*
X128214405Y-106225000D01*
X128845294Y-106225000D01*
X128845294Y-106224999D01*
X128843757Y-106192745D01*
X128794229Y-105988590D01*
X128706959Y-105797492D01*
X128585110Y-105626380D01*
X128585104Y-105626374D01*
X128433067Y-105481407D01*
X128256342Y-105367833D01*
X128061314Y-105289755D01*
X127855038Y-105250000D01*
X127455000Y-105250000D01*
X127455000Y-105926694D01*
X127348239Y-106019202D01*
X127270507Y-106140156D01*
X127230000Y-106278111D01*
X127230000Y-106421889D01*
X109104478Y-106421889D01*
X109142621Y-106392621D01*
X109230861Y-106277625D01*
X109252659Y-106225000D01*
X125816660Y-106225000D01*
X127205000Y-106225000D01*
X127205000Y-105250000D01*
X126857602Y-105250000D01*
X126700877Y-105264965D01*
X126700873Y-105264966D01*
X126499313Y-105324149D01*
X126312585Y-105420413D01*
X126147462Y-105550268D01*
X126147459Y-105550271D01*
X126009894Y-105709030D01*
X126009885Y-105709041D01*
X125904855Y-105890960D01*
X125904852Y-105890967D01*
X125836144Y-106089483D01*
X125816660Y-106225000D01*
X109252659Y-106225000D01*
X109286330Y-106143709D01*
X109305250Y-106000000D01*
X109286330Y-105856291D01*
X109243320Y-105752454D01*
X109230862Y-105722377D01*
X109230861Y-105722376D01*
X109230861Y-105722375D01*
X109142621Y-105607379D01*
X109027625Y-105519139D01*
X109027624Y-105519138D01*
X109027622Y-105519137D01*
X108893712Y-105463671D01*
X108893710Y-105463670D01*
X108893709Y-105463670D01*
X108821854Y-105454210D01*
X108750001Y-105444750D01*
X108749999Y-105444750D01*
X108606291Y-105463670D01*
X108606287Y-105463671D01*
X108472377Y-105519137D01*
X108357379Y-105607379D01*
X108269137Y-105722377D01*
X108213671Y-105856287D01*
X108213670Y-105856291D01*
X108197270Y-105980862D01*
X108194750Y-106000000D01*
X107805250Y-106000000D01*
X107786330Y-105856291D01*
X107743320Y-105752454D01*
X107730862Y-105722377D01*
X107730861Y-105722376D01*
X107730861Y-105722375D01*
X107642621Y-105607379D01*
X107527625Y-105519139D01*
X107527624Y-105519138D01*
X107527622Y-105519137D01*
X107393712Y-105463671D01*
X107393710Y-105463670D01*
X107393709Y-105463670D01*
X107321854Y-105454210D01*
X107250001Y-105444750D01*
X107249999Y-105444750D01*
X107106291Y-105463670D01*
X107106287Y-105463671D01*
X106972377Y-105519137D01*
X106857379Y-105607379D01*
X106769137Y-105722377D01*
X106713671Y-105856287D01*
X106713670Y-105856291D01*
X106697270Y-105980862D01*
X106694750Y-106000000D01*
X99231420Y-106000000D01*
X99143712Y-105963671D01*
X99143710Y-105963670D01*
X99143709Y-105963670D01*
X99071854Y-105954210D01*
X99000001Y-105944750D01*
X98999999Y-105944750D01*
X98856293Y-105963669D01*
X98715579Y-106021954D01*
X98646109Y-106029422D01*
X98583630Y-105998146D01*
X98547978Y-105938057D01*
X98545189Y-105923585D01*
X98536330Y-105856291D01*
X98493320Y-105752454D01*
X98480862Y-105722377D01*
X98480861Y-105722376D01*
X98480861Y-105722375D01*
X98392621Y-105607379D01*
X98277625Y-105519139D01*
X98277624Y-105519138D01*
X98277622Y-105519137D01*
X98143712Y-105463671D01*
X98143710Y-105463670D01*
X98143709Y-105463670D01*
X98071854Y-105454210D01*
X98000001Y-105444750D01*
X97999999Y-105444750D01*
X97856291Y-105463670D01*
X97856287Y-105463671D01*
X97722377Y-105519137D01*
X97607379Y-105607379D01*
X97519137Y-105722377D01*
X97463671Y-105856287D01*
X97463670Y-105856291D01*
X97447270Y-105980862D01*
X97444750Y-106000000D01*
X83992303Y-106000000D01*
X84036330Y-105893709D01*
X84055250Y-105750000D01*
X84036330Y-105606291D01*
X83994582Y-105505500D01*
X83980862Y-105472377D01*
X83980861Y-105472376D01*
X83980861Y-105472375D01*
X83892621Y-105357379D01*
X83777625Y-105269139D01*
X83777624Y-105269138D01*
X83777622Y-105269137D01*
X83643712Y-105213671D01*
X83643710Y-105213670D01*
X83643709Y-105213670D01*
X83571854Y-105204210D01*
X83500001Y-105194750D01*
X83499999Y-105194750D01*
X83356291Y-105213670D01*
X83356287Y-105213671D01*
X83222377Y-105269137D01*
X83107379Y-105357379D01*
X83019137Y-105472377D01*
X82963671Y-105606287D01*
X82963670Y-105606291D01*
X82950143Y-105709040D01*
X82944750Y-105750000D01*
X82594772Y-105750000D01*
X82538592Y-105681545D01*
X82466410Y-105593589D01*
X82318915Y-105472545D01*
X82306450Y-105462315D01*
X82123954Y-105364768D01*
X81925934Y-105304700D01*
X81925932Y-105304699D01*
X81925934Y-105304699D01*
X81806805Y-105292966D01*
X81771608Y-105289500D01*
X80868392Y-105289500D01*
X80830298Y-105293251D01*
X80714067Y-105304699D01*
X80516043Y-105364769D01*
X80418631Y-105416838D01*
X80333550Y-105462315D01*
X80333548Y-105462316D01*
X80333547Y-105462317D01*
X80173589Y-105593589D01*
X80056696Y-105736026D01*
X80042315Y-105753550D01*
X80021594Y-105792316D01*
X79944769Y-105936043D01*
X79884699Y-106134067D01*
X79864417Y-106340000D01*
X77755500Y-106340000D01*
X77755500Y-105764532D01*
X77775185Y-105697493D01*
X77827989Y-105651738D01*
X77897147Y-105641794D01*
X77960703Y-105670819D01*
X77994060Y-105717078D01*
X78019139Y-105777625D01*
X78107379Y-105892621D01*
X78222375Y-105980861D01*
X78222376Y-105980861D01*
X78222377Y-105980862D01*
X78241901Y-105988949D01*
X78356291Y-106036330D01*
X78483280Y-106053048D01*
X78499999Y-106055250D01*
X78500000Y-106055250D01*
X78500001Y-106055250D01*
X78514977Y-106053278D01*
X78643709Y-106036330D01*
X78777625Y-105980861D01*
X78892621Y-105892621D01*
X78980861Y-105777625D01*
X79036330Y-105643709D01*
X79055250Y-105500000D01*
X79036330Y-105356291D01*
X78995485Y-105257682D01*
X78980862Y-105222377D01*
X78980861Y-105222376D01*
X78980861Y-105222375D01*
X78892621Y-105107379D01*
X78777625Y-105019139D01*
X78777624Y-105019138D01*
X78777622Y-105019137D01*
X78643712Y-104963671D01*
X78643710Y-104963670D01*
X78643709Y-104963670D01*
X78558517Y-104952454D01*
X78500001Y-104944750D01*
X78499999Y-104944750D01*
X78356291Y-104963670D01*
X78356287Y-104963671D01*
X78222377Y-105019137D01*
X78107379Y-105107379D01*
X78019137Y-105222377D01*
X77994061Y-105282919D01*
X77950221Y-105337323D01*
X77883927Y-105359388D01*
X77816227Y-105342109D01*
X77768616Y-105290972D01*
X77755500Y-105235467D01*
X77755500Y-104414455D01*
X77775185Y-104347416D01*
X77827989Y-104301661D01*
X77895684Y-104291516D01*
X77978155Y-104302374D01*
X77999999Y-104305250D01*
X78000000Y-104305250D01*
X78000001Y-104305250D01*
X78021845Y-104302374D01*
X78143709Y-104286330D01*
X78277625Y-104230861D01*
X78392621Y-104142621D01*
X78480861Y-104027625D01*
X78536330Y-103893709D01*
X78548667Y-103800000D01*
X79864417Y-103800000D01*
X79884699Y-104005932D01*
X79897322Y-104047545D01*
X79944768Y-104203954D01*
X80042315Y-104386450D01*
X80042317Y-104386452D01*
X80173589Y-104546410D01*
X80268692Y-104624458D01*
X80333550Y-104677685D01*
X80516046Y-104775232D01*
X80714066Y-104835300D01*
X80714065Y-104835300D01*
X80724381Y-104836316D01*
X80868392Y-104850500D01*
X80868395Y-104850500D01*
X81771605Y-104850500D01*
X81771608Y-104850500D01*
X81925934Y-104835300D01*
X82123954Y-104775232D01*
X82306450Y-104677685D01*
X82466410Y-104546410D01*
X82597685Y-104386450D01*
X82695232Y-104203954D01*
X82755300Y-104005934D01*
X82775583Y-103800000D01*
X82771387Y-103757401D01*
X125805746Y-103757401D01*
X125815745Y-103967327D01*
X125865296Y-104171578D01*
X125865298Y-104171582D01*
X125952598Y-104362743D01*
X125952601Y-104362748D01*
X125952602Y-104362750D01*
X125952604Y-104362753D01*
X126067493Y-104524092D01*
X126074515Y-104533953D01*
X126074520Y-104533959D01*
X126226620Y-104678985D01*
X126321578Y-104740011D01*
X126403428Y-104792613D01*
X126598543Y-104870725D01*
X126686068Y-104887594D01*
X126804914Y-104910500D01*
X126804915Y-104910500D01*
X127802419Y-104910500D01*
X127802425Y-104910500D01*
X127959218Y-104895528D01*
X128160875Y-104836316D01*
X128347682Y-104740011D01*
X128512886Y-104610092D01*
X128650519Y-104451256D01*
X128755604Y-104269244D01*
X128824344Y-104070633D01*
X128854254Y-103862602D01*
X128849243Y-103757401D01*
X129145746Y-103757401D01*
X129155745Y-103967327D01*
X129205296Y-104171578D01*
X129205298Y-104171582D01*
X129292598Y-104362743D01*
X129292601Y-104362748D01*
X129292602Y-104362750D01*
X129292604Y-104362753D01*
X129407493Y-104524092D01*
X129414515Y-104533953D01*
X129414520Y-104533959D01*
X129566620Y-104678985D01*
X129661578Y-104740011D01*
X129743428Y-104792613D01*
X129938543Y-104870725D01*
X130026068Y-104887594D01*
X130144914Y-104910500D01*
X130144915Y-104910500D01*
X131142419Y-104910500D01*
X131142425Y-104910500D01*
X131299218Y-104895528D01*
X131500875Y-104836316D01*
X131687682Y-104740011D01*
X131852886Y-104610092D01*
X131990519Y-104451256D01*
X132095604Y-104269244D01*
X132164344Y-104070633D01*
X132194254Y-103862602D01*
X132184254Y-103652670D01*
X132134704Y-103448424D01*
X132121495Y-103419500D01*
X132047401Y-103257256D01*
X132047398Y-103257251D01*
X132047397Y-103257250D01*
X132047396Y-103257247D01*
X131925486Y-103086048D01*
X131925484Y-103086046D01*
X131925479Y-103086040D01*
X131773379Y-102941014D01*
X131596574Y-102827388D01*
X131593681Y-102826230D01*
X131439987Y-102764700D01*
X131401455Y-102749274D01*
X131195086Y-102709500D01*
X131195085Y-102709500D01*
X130197575Y-102709500D01*
X130040782Y-102724472D01*
X130040778Y-102724473D01*
X129839127Y-102783683D01*
X129652313Y-102879991D01*
X129487116Y-103009905D01*
X129487112Y-103009909D01*
X129349478Y-103168746D01*
X129244398Y-103350750D01*
X129175656Y-103549365D01*
X129175656Y-103549367D01*
X129150046Y-103727494D01*
X129145746Y-103757401D01*
X128849243Y-103757401D01*
X128844254Y-103652670D01*
X128794704Y-103448424D01*
X128781495Y-103419500D01*
X128707401Y-103257256D01*
X128707398Y-103257251D01*
X128707397Y-103257250D01*
X128707396Y-103257247D01*
X128585486Y-103086048D01*
X128585484Y-103086046D01*
X128585479Y-103086040D01*
X128433379Y-102941014D01*
X128256574Y-102827388D01*
X128253681Y-102826230D01*
X128099987Y-102764700D01*
X128061455Y-102749274D01*
X127855086Y-102709500D01*
X127855085Y-102709500D01*
X126857575Y-102709500D01*
X126700782Y-102724472D01*
X126700778Y-102724473D01*
X126499127Y-102783683D01*
X126312313Y-102879991D01*
X126147116Y-103009905D01*
X126147112Y-103009909D01*
X126009478Y-103168746D01*
X125904398Y-103350750D01*
X125835656Y-103549365D01*
X125835656Y-103549367D01*
X125810046Y-103727494D01*
X125805746Y-103757401D01*
X82771387Y-103757401D01*
X82755300Y-103594066D01*
X82695232Y-103396046D01*
X82597685Y-103213550D01*
X82534206Y-103136200D01*
X82466410Y-103053589D01*
X82306452Y-102922317D01*
X82306453Y-102922317D01*
X82306450Y-102922315D01*
X82123954Y-102824768D01*
X81925934Y-102764700D01*
X81925932Y-102764699D01*
X81925934Y-102764699D01*
X81806805Y-102752966D01*
X81771608Y-102749500D01*
X80868392Y-102749500D01*
X80830298Y-102753251D01*
X80714067Y-102764699D01*
X80516043Y-102824769D01*
X80434647Y-102868277D01*
X80333550Y-102922315D01*
X80333548Y-102922316D01*
X80333547Y-102922317D01*
X80173589Y-103053589D01*
X80046473Y-103208483D01*
X80042315Y-103213550D01*
X80018809Y-103257527D01*
X79944769Y-103396043D01*
X79884699Y-103594067D01*
X79864417Y-103800000D01*
X78548667Y-103800000D01*
X78555250Y-103750000D01*
X78536330Y-103606291D01*
X78480861Y-103472375D01*
X78392621Y-103357379D01*
X78277625Y-103269139D01*
X78277624Y-103269138D01*
X78277622Y-103269137D01*
X78143712Y-103213671D01*
X78143710Y-103213670D01*
X78143709Y-103213670D01*
X78071854Y-103204210D01*
X78000001Y-103194750D01*
X77999998Y-103194750D01*
X77895685Y-103208483D01*
X77826650Y-103197717D01*
X77774394Y-103151337D01*
X77755500Y-103085544D01*
X77755500Y-102500000D01*
X85194750Y-102500000D01*
X85213670Y-102643708D01*
X85213671Y-102643712D01*
X85269137Y-102777622D01*
X85269138Y-102777624D01*
X85269139Y-102777625D01*
X85357379Y-102892621D01*
X85472375Y-102980861D01*
X85606291Y-103036330D01*
X85725383Y-103052009D01*
X85749999Y-103055250D01*
X85750000Y-103055250D01*
X85750001Y-103055250D01*
X85774617Y-103052009D01*
X85893709Y-103036330D01*
X86027625Y-102980861D01*
X86142621Y-102892621D01*
X86230861Y-102777625D01*
X86286330Y-102643709D01*
X86305250Y-102500000D01*
X86286330Y-102356291D01*
X86241725Y-102248604D01*
X86230862Y-102222377D01*
X86230861Y-102222376D01*
X86230861Y-102222375D01*
X86142621Y-102107379D01*
X86027625Y-102019139D01*
X86027624Y-102019138D01*
X86027622Y-102019137D01*
X85981420Y-102000000D01*
X89944750Y-102000000D01*
X89963670Y-102143708D01*
X89963671Y-102143712D01*
X90019137Y-102277622D01*
X90019138Y-102277624D01*
X90019139Y-102277625D01*
X90107379Y-102392621D01*
X90222375Y-102480861D01*
X90356291Y-102536330D01*
X90483280Y-102553048D01*
X90499999Y-102555250D01*
X90500000Y-102555250D01*
X90500001Y-102555250D01*
X90514977Y-102553278D01*
X90643709Y-102536330D01*
X90777625Y-102480861D01*
X90892621Y-102392621D01*
X90980861Y-102277625D01*
X91036330Y-102143709D01*
X91055250Y-102000000D01*
X91054930Y-101997573D01*
X91047976Y-101944750D01*
X91036330Y-101856291D01*
X90980861Y-101722375D01*
X90892621Y-101607379D01*
X90777625Y-101519139D01*
X90777624Y-101519138D01*
X90777622Y-101519137D01*
X90731420Y-101500000D01*
X92944750Y-101500000D01*
X92962073Y-101631582D01*
X92963670Y-101643708D01*
X92963671Y-101643712D01*
X93019137Y-101777622D01*
X93019138Y-101777624D01*
X93019139Y-101777625D01*
X93107379Y-101892621D01*
X93222375Y-101980861D01*
X93356291Y-102036330D01*
X93483280Y-102053048D01*
X93499999Y-102055250D01*
X93500000Y-102055250D01*
X93500001Y-102055250D01*
X93514977Y-102053278D01*
X93643709Y-102036330D01*
X93731419Y-102000000D01*
X98944750Y-102000000D01*
X98963670Y-102143708D01*
X98963671Y-102143712D01*
X99019137Y-102277622D01*
X99019138Y-102277624D01*
X99019139Y-102277625D01*
X99107379Y-102392621D01*
X99222375Y-102480861D01*
X99356291Y-102536330D01*
X99483280Y-102553048D01*
X99499999Y-102555250D01*
X99500000Y-102555250D01*
X99500001Y-102555250D01*
X99514977Y-102553278D01*
X99643709Y-102536330D01*
X99777625Y-102480861D01*
X99892621Y-102392621D01*
X99980861Y-102277625D01*
X100036330Y-102143709D01*
X100055250Y-102000000D01*
X100054930Y-101997573D01*
X100047976Y-101944750D01*
X100036330Y-101856291D01*
X99980861Y-101722375D01*
X99892621Y-101607379D01*
X99777625Y-101519139D01*
X99777624Y-101519138D01*
X99777622Y-101519137D01*
X99731420Y-101500000D01*
X102444750Y-101500000D01*
X102462073Y-101631582D01*
X102463670Y-101643708D01*
X102463671Y-101643712D01*
X102519137Y-101777622D01*
X102519138Y-101777624D01*
X102519139Y-101777625D01*
X102607379Y-101892621D01*
X102722375Y-101980861D01*
X102856291Y-102036330D01*
X102983280Y-102053048D01*
X102999999Y-102055250D01*
X103000000Y-102055250D01*
X103000001Y-102055250D01*
X103014977Y-102053278D01*
X103143709Y-102036330D01*
X103231419Y-102000000D01*
X109694750Y-102000000D01*
X109713670Y-102143708D01*
X109713671Y-102143712D01*
X109769137Y-102277622D01*
X109769138Y-102277624D01*
X109769139Y-102277625D01*
X109857379Y-102392621D01*
X109972375Y-102480861D01*
X110106291Y-102536330D01*
X110233280Y-102553048D01*
X110249999Y-102555250D01*
X110250000Y-102555250D01*
X110250001Y-102555250D01*
X110264977Y-102553278D01*
X110393709Y-102536330D01*
X110527625Y-102480861D01*
X110642621Y-102392621D01*
X110730861Y-102277625D01*
X110786330Y-102143709D01*
X110805250Y-102000000D01*
X110804930Y-101997573D01*
X110797976Y-101944750D01*
X110786330Y-101856291D01*
X110730861Y-101722375D01*
X110642621Y-101607379D01*
X110527625Y-101519139D01*
X110527624Y-101519138D01*
X110527622Y-101519137D01*
X110393712Y-101463671D01*
X110393710Y-101463670D01*
X110393709Y-101463670D01*
X110321854Y-101454210D01*
X110250001Y-101444750D01*
X110249999Y-101444750D01*
X110106291Y-101463670D01*
X110106287Y-101463671D01*
X109972377Y-101519137D01*
X109857379Y-101607379D01*
X109769137Y-101722377D01*
X109713671Y-101856287D01*
X109713670Y-101856291D01*
X109694750Y-101999999D01*
X109694750Y-102000000D01*
X103231419Y-102000000D01*
X103277625Y-101980861D01*
X103392621Y-101892621D01*
X103480861Y-101777625D01*
X103536330Y-101643709D01*
X103555250Y-101500000D01*
X103536330Y-101356291D01*
X103496446Y-101260000D01*
X103480862Y-101222377D01*
X103480861Y-101222376D01*
X103480861Y-101222375D01*
X103477044Y-101217401D01*
X125805746Y-101217401D01*
X125815745Y-101427327D01*
X125865296Y-101631578D01*
X125865298Y-101631582D01*
X125952598Y-101822743D01*
X125952601Y-101822748D01*
X125952602Y-101822750D01*
X125952604Y-101822753D01*
X126052951Y-101963671D01*
X126074515Y-101993953D01*
X126074520Y-101993959D01*
X126226620Y-102138985D01*
X126321578Y-102200011D01*
X126403428Y-102252613D01*
X126598543Y-102330725D01*
X126617855Y-102334447D01*
X126804914Y-102370500D01*
X126804915Y-102370500D01*
X127802419Y-102370500D01*
X127802425Y-102370500D01*
X127959218Y-102355528D01*
X128160875Y-102296316D01*
X128347682Y-102200011D01*
X128512886Y-102070092D01*
X128650519Y-101911256D01*
X128679207Y-101861568D01*
X128755601Y-101729249D01*
X128755600Y-101729249D01*
X128755604Y-101729244D01*
X128824344Y-101530633D01*
X128854254Y-101322602D01*
X128849243Y-101217401D01*
X129145746Y-101217401D01*
X129155745Y-101427327D01*
X129205296Y-101631578D01*
X129205298Y-101631582D01*
X129292598Y-101822743D01*
X129292601Y-101822748D01*
X129292602Y-101822750D01*
X129292604Y-101822753D01*
X129392951Y-101963671D01*
X129414515Y-101993953D01*
X129414520Y-101993959D01*
X129566620Y-102138985D01*
X129661578Y-102200011D01*
X129743428Y-102252613D01*
X129938543Y-102330725D01*
X129957855Y-102334447D01*
X130144914Y-102370500D01*
X130144915Y-102370500D01*
X131142419Y-102370500D01*
X131142425Y-102370500D01*
X131299218Y-102355528D01*
X131500875Y-102296316D01*
X131687682Y-102200011D01*
X131852886Y-102070092D01*
X131990519Y-101911256D01*
X132019207Y-101861568D01*
X132095601Y-101729249D01*
X132095600Y-101729249D01*
X132095604Y-101729244D01*
X132164344Y-101530633D01*
X132194254Y-101322602D01*
X132184254Y-101112670D01*
X132134704Y-100908424D01*
X132131419Y-100901230D01*
X132047401Y-100717256D01*
X132047398Y-100717251D01*
X132047397Y-100717250D01*
X132047396Y-100717247D01*
X131925486Y-100546048D01*
X131925484Y-100546046D01*
X131925479Y-100546040D01*
X131773379Y-100401014D01*
X131596574Y-100287388D01*
X131593931Y-100286330D01*
X131455379Y-100230862D01*
X131401455Y-100209274D01*
X131195086Y-100169500D01*
X131195085Y-100169500D01*
X130197575Y-100169500D01*
X130040782Y-100184472D01*
X130040778Y-100184473D01*
X129839127Y-100243683D01*
X129652313Y-100339991D01*
X129487116Y-100469905D01*
X129487112Y-100469909D01*
X129349478Y-100628746D01*
X129244398Y-100810750D01*
X129175656Y-101009365D01*
X129175656Y-101009367D01*
X129151847Y-101174969D01*
X129145746Y-101217401D01*
X128849243Y-101217401D01*
X128844254Y-101112670D01*
X128794704Y-100908424D01*
X128791419Y-100901230D01*
X128707401Y-100717256D01*
X128707398Y-100717251D01*
X128707397Y-100717250D01*
X128707396Y-100717247D01*
X128585486Y-100546048D01*
X128585484Y-100546046D01*
X128585479Y-100546040D01*
X128433379Y-100401014D01*
X128256574Y-100287388D01*
X128253931Y-100286330D01*
X128115379Y-100230862D01*
X128061455Y-100209274D01*
X127855086Y-100169500D01*
X127855085Y-100169500D01*
X126857575Y-100169500D01*
X126700782Y-100184472D01*
X126700778Y-100184473D01*
X126499127Y-100243683D01*
X126312313Y-100339991D01*
X126147116Y-100469905D01*
X126147112Y-100469909D01*
X126009478Y-100628746D01*
X125904398Y-100810750D01*
X125835656Y-101009365D01*
X125835656Y-101009367D01*
X125811847Y-101174969D01*
X125805746Y-101217401D01*
X103477044Y-101217401D01*
X103392621Y-101107379D01*
X103277625Y-101019139D01*
X103277624Y-101019138D01*
X103277622Y-101019137D01*
X103143712Y-100963671D01*
X103143710Y-100963670D01*
X103143709Y-100963670D01*
X103071854Y-100954210D01*
X103000001Y-100944750D01*
X102999999Y-100944750D01*
X102856291Y-100963670D01*
X102856287Y-100963671D01*
X102722377Y-101019137D01*
X102607379Y-101107379D01*
X102519137Y-101222377D01*
X102463671Y-101356287D01*
X102463670Y-101356291D01*
X102444750Y-101500000D01*
X99731420Y-101500000D01*
X99643712Y-101463671D01*
X99643710Y-101463670D01*
X99643709Y-101463670D01*
X99571854Y-101454210D01*
X99500001Y-101444750D01*
X99499999Y-101444750D01*
X99356291Y-101463670D01*
X99356287Y-101463671D01*
X99222377Y-101519137D01*
X99107379Y-101607379D01*
X99019137Y-101722377D01*
X98963671Y-101856287D01*
X98963670Y-101856291D01*
X98944750Y-101999999D01*
X98944750Y-102000000D01*
X93731419Y-102000000D01*
X93777625Y-101980861D01*
X93892621Y-101892621D01*
X93980861Y-101777625D01*
X94036330Y-101643709D01*
X94055250Y-101500000D01*
X94036330Y-101356291D01*
X93996446Y-101260000D01*
X93980862Y-101222377D01*
X93980861Y-101222376D01*
X93980861Y-101222375D01*
X93892621Y-101107379D01*
X93777625Y-101019139D01*
X93777624Y-101019138D01*
X93777622Y-101019137D01*
X93643712Y-100963671D01*
X93643710Y-100963670D01*
X93643709Y-100963670D01*
X93571854Y-100954210D01*
X93500001Y-100944750D01*
X93499999Y-100944750D01*
X93356291Y-100963670D01*
X93356287Y-100963671D01*
X93222377Y-101019137D01*
X93107379Y-101107379D01*
X93019137Y-101222377D01*
X92963671Y-101356287D01*
X92963670Y-101356291D01*
X92944750Y-101500000D01*
X90731420Y-101500000D01*
X90643712Y-101463671D01*
X90643710Y-101463670D01*
X90643709Y-101463670D01*
X90571854Y-101454210D01*
X90500001Y-101444750D01*
X90499999Y-101444750D01*
X90356291Y-101463670D01*
X90356287Y-101463671D01*
X90222377Y-101519137D01*
X90107379Y-101607379D01*
X90019137Y-101722377D01*
X89963671Y-101856287D01*
X89963670Y-101856291D01*
X89944750Y-101999999D01*
X89944750Y-102000000D01*
X85981420Y-102000000D01*
X85893712Y-101963671D01*
X85893710Y-101963670D01*
X85893709Y-101963670D01*
X85821854Y-101954210D01*
X85750001Y-101944750D01*
X85749999Y-101944750D01*
X85606291Y-101963670D01*
X85606287Y-101963671D01*
X85472377Y-102019137D01*
X85357379Y-102107379D01*
X85269137Y-102222377D01*
X85213671Y-102356287D01*
X85213670Y-102356291D01*
X85194750Y-102499999D01*
X85194750Y-102500000D01*
X77755500Y-102500000D01*
X77755500Y-101663990D01*
X77752679Y-101626123D01*
X77747232Y-101589781D01*
X77746907Y-101587881D01*
X77754991Y-101518481D01*
X77793637Y-101468573D01*
X77892621Y-101392621D01*
X77980861Y-101277625D01*
X77988161Y-101260000D01*
X79864417Y-101260000D01*
X79884699Y-101465932D01*
X79896998Y-101506477D01*
X79944768Y-101663954D01*
X80042315Y-101846450D01*
X80054722Y-101861568D01*
X80173589Y-102006410D01*
X80259616Y-102077009D01*
X80333550Y-102137685D01*
X80516046Y-102235232D01*
X80714066Y-102295300D01*
X80714065Y-102295300D01*
X80752647Y-102299100D01*
X80868392Y-102310500D01*
X80868395Y-102310500D01*
X81771605Y-102310500D01*
X81771608Y-102310500D01*
X81925934Y-102295300D01*
X82123954Y-102235232D01*
X82306450Y-102137685D01*
X82466410Y-102006410D01*
X82597685Y-101846450D01*
X82695232Y-101663954D01*
X82755300Y-101465934D01*
X82775583Y-101260000D01*
X82755300Y-101054066D01*
X82695232Y-100856046D01*
X82597685Y-100673550D01*
X82534206Y-100596200D01*
X82500623Y-100555278D01*
X82473311Y-100490968D01*
X82485102Y-100422101D01*
X82532255Y-100370541D01*
X82599797Y-100352658D01*
X82643923Y-100362051D01*
X82687664Y-100380169D01*
X82783470Y-100392782D01*
X82831372Y-100399089D01*
X82831373Y-100399089D01*
X82831374Y-100399089D01*
X82846350Y-100397117D01*
X82975082Y-100380169D01*
X83108998Y-100324700D01*
X83223994Y-100236460D01*
X83312234Y-100121464D01*
X83367703Y-99987548D01*
X83386623Y-99843839D01*
X83374269Y-99750000D01*
X91694750Y-99750000D01*
X91713670Y-99893708D01*
X91713671Y-99893712D01*
X91769137Y-100027622D01*
X91769138Y-100027624D01*
X91769139Y-100027625D01*
X91857379Y-100142621D01*
X91972375Y-100230861D01*
X91972376Y-100230861D01*
X91972377Y-100230862D01*
X92003333Y-100243684D01*
X92106291Y-100286330D01*
X92233280Y-100303048D01*
X92249999Y-100305250D01*
X92250000Y-100305250D01*
X92250001Y-100305250D01*
X92264977Y-100303278D01*
X92393709Y-100286330D01*
X92527625Y-100230861D01*
X92642621Y-100142621D01*
X92730861Y-100027625D01*
X92786330Y-99893709D01*
X92805250Y-99750000D01*
X100694750Y-99750000D01*
X100713670Y-99893708D01*
X100713671Y-99893712D01*
X100769137Y-100027622D01*
X100769138Y-100027624D01*
X100769139Y-100027625D01*
X100857379Y-100142621D01*
X100972375Y-100230861D01*
X100972376Y-100230861D01*
X100972377Y-100230862D01*
X101003333Y-100243684D01*
X101106291Y-100286330D01*
X101233280Y-100303048D01*
X101249999Y-100305250D01*
X101250000Y-100305250D01*
X101250001Y-100305250D01*
X101264977Y-100303278D01*
X101393709Y-100286330D01*
X101481419Y-100250000D01*
X117694750Y-100250000D01*
X117711887Y-100380169D01*
X117713670Y-100393708D01*
X117713671Y-100393712D01*
X117769137Y-100527622D01*
X117769138Y-100527624D01*
X117769139Y-100527625D01*
X117857379Y-100642621D01*
X117972375Y-100730861D01*
X118106291Y-100786330D01*
X118233280Y-100803048D01*
X118249999Y-100805250D01*
X118250000Y-100805250D01*
X118250001Y-100805250D01*
X118264977Y-100803278D01*
X118393709Y-100786330D01*
X118527625Y-100730861D01*
X118642621Y-100642621D01*
X118730861Y-100527625D01*
X118786330Y-100393709D01*
X118805250Y-100250000D01*
X118804418Y-100243684D01*
X118795111Y-100172990D01*
X118786330Y-100106291D01*
X118730861Y-99972375D01*
X118642621Y-99857379D01*
X118527625Y-99769139D01*
X118527624Y-99769138D01*
X118527622Y-99769137D01*
X118393712Y-99713671D01*
X118393710Y-99713670D01*
X118393709Y-99713670D01*
X118321854Y-99704210D01*
X118250001Y-99694750D01*
X118249999Y-99694750D01*
X118106291Y-99713670D01*
X118106287Y-99713671D01*
X117972377Y-99769137D01*
X117857379Y-99857379D01*
X117769137Y-99972377D01*
X117713671Y-100106287D01*
X117713670Y-100106291D01*
X117695582Y-100243684D01*
X117694750Y-100250000D01*
X101481419Y-100250000D01*
X101527625Y-100230861D01*
X101642621Y-100142621D01*
X101730861Y-100027625D01*
X101786330Y-99893709D01*
X101805250Y-99750000D01*
X101786330Y-99606291D01*
X101742774Y-99501135D01*
X101730862Y-99472377D01*
X101730861Y-99472376D01*
X101730861Y-99472375D01*
X101642621Y-99357379D01*
X101527625Y-99269139D01*
X101527624Y-99269138D01*
X101527622Y-99269137D01*
X101393712Y-99213671D01*
X101393710Y-99213670D01*
X101393709Y-99213670D01*
X101308509Y-99202453D01*
X101250001Y-99194750D01*
X101249999Y-99194750D01*
X101106291Y-99213670D01*
X101106287Y-99213671D01*
X100972377Y-99269137D01*
X100857379Y-99357379D01*
X100769137Y-99472377D01*
X100713671Y-99606287D01*
X100713670Y-99606291D01*
X100694750Y-99749999D01*
X100694750Y-99750000D01*
X92805250Y-99750000D01*
X92786330Y-99606291D01*
X92742774Y-99501135D01*
X92730862Y-99472377D01*
X92730861Y-99472376D01*
X92730861Y-99472375D01*
X92642621Y-99357379D01*
X92527625Y-99269139D01*
X92527624Y-99269138D01*
X92527622Y-99269137D01*
X92393712Y-99213671D01*
X92393710Y-99213670D01*
X92393709Y-99213670D01*
X92308509Y-99202453D01*
X92250001Y-99194750D01*
X92249999Y-99194750D01*
X92106291Y-99213670D01*
X92106287Y-99213671D01*
X91972377Y-99269137D01*
X91857379Y-99357379D01*
X91769137Y-99472377D01*
X91713671Y-99606287D01*
X91713670Y-99606291D01*
X91694750Y-99749999D01*
X91694750Y-99750000D01*
X83374269Y-99750000D01*
X83367703Y-99700130D01*
X83312234Y-99566214D01*
X83223994Y-99451218D01*
X83108998Y-99362978D01*
X83108997Y-99362977D01*
X83108995Y-99362976D01*
X82975085Y-99307510D01*
X82975083Y-99307509D01*
X82975082Y-99307509D01*
X82903227Y-99298049D01*
X82831374Y-99288589D01*
X82831369Y-99288589D01*
X82828177Y-99289009D01*
X82825485Y-99288589D01*
X82823245Y-99288589D01*
X82823245Y-99288239D01*
X82759143Y-99278237D01*
X82706891Y-99231852D01*
X82688012Y-99164581D01*
X82695116Y-99130285D01*
X82693463Y-99129784D01*
X82695230Y-99123956D01*
X82695232Y-99123954D01*
X82755300Y-98925934D01*
X82775583Y-98720000D01*
X82755300Y-98514066D01*
X82751033Y-98500000D01*
X88444750Y-98500000D01*
X88458480Y-98604291D01*
X88463670Y-98643708D01*
X88463671Y-98643712D01*
X88519137Y-98777622D01*
X88519138Y-98777624D01*
X88519139Y-98777625D01*
X88607379Y-98892621D01*
X88722375Y-98980861D01*
X88856291Y-99036330D01*
X88983280Y-99053048D01*
X88999999Y-99055250D01*
X89000000Y-99055250D01*
X89000001Y-99055250D01*
X89014977Y-99053278D01*
X89143709Y-99036330D01*
X89277625Y-98980861D01*
X89392621Y-98892621D01*
X89480861Y-98777625D01*
X89536330Y-98643709D01*
X89555250Y-98500000D01*
X89536330Y-98356291D01*
X89488033Y-98239689D01*
X89480862Y-98222377D01*
X89480861Y-98222376D01*
X89480861Y-98222375D01*
X89392621Y-98107379D01*
X89277625Y-98019139D01*
X89277624Y-98019138D01*
X89277622Y-98019137D01*
X89231420Y-98000000D01*
X95944750Y-98000000D01*
X95959977Y-98115662D01*
X95963670Y-98143708D01*
X95963671Y-98143712D01*
X96019137Y-98277622D01*
X96019138Y-98277624D01*
X96019139Y-98277625D01*
X96107379Y-98392621D01*
X96222375Y-98480861D01*
X96356291Y-98536330D01*
X96483280Y-98553048D01*
X96499999Y-98555250D01*
X96500000Y-98555250D01*
X96500001Y-98555250D01*
X96514977Y-98553278D01*
X96643709Y-98536330D01*
X96731419Y-98500000D01*
X112444750Y-98500000D01*
X112458480Y-98604291D01*
X112463670Y-98643708D01*
X112463671Y-98643712D01*
X112519137Y-98777622D01*
X112519138Y-98777624D01*
X112519139Y-98777625D01*
X112607379Y-98892621D01*
X112722375Y-98980861D01*
X112856291Y-99036330D01*
X112983280Y-99053048D01*
X112999999Y-99055250D01*
X113000000Y-99055250D01*
X113000001Y-99055250D01*
X113014977Y-99053278D01*
X113143709Y-99036330D01*
X113277625Y-98980861D01*
X113392621Y-98892621D01*
X113480861Y-98777625D01*
X113522375Y-98677401D01*
X125805746Y-98677401D01*
X125815745Y-98887327D01*
X125865296Y-99091578D01*
X125865298Y-99091582D01*
X125952598Y-99282743D01*
X125952601Y-99282748D01*
X125952602Y-99282750D01*
X125952604Y-99282753D01*
X126067493Y-99444092D01*
X126074515Y-99453953D01*
X126074520Y-99453959D01*
X126226620Y-99598985D01*
X126321578Y-99660011D01*
X126403428Y-99712613D01*
X126598543Y-99790725D01*
X126701729Y-99810612D01*
X126804914Y-99830500D01*
X126804915Y-99830500D01*
X127802419Y-99830500D01*
X127802425Y-99830500D01*
X127959218Y-99815528D01*
X128160875Y-99756316D01*
X128347682Y-99660011D01*
X128512886Y-99530092D01*
X128650519Y-99371256D01*
X128652363Y-99368063D01*
X128731004Y-99231852D01*
X128755604Y-99189244D01*
X128824344Y-98990633D01*
X128854254Y-98782602D01*
X128849243Y-98677401D01*
X129145746Y-98677401D01*
X129155745Y-98887327D01*
X129205296Y-99091578D01*
X129205298Y-99091582D01*
X129292598Y-99282743D01*
X129292601Y-99282748D01*
X129292602Y-99282750D01*
X129292604Y-99282753D01*
X129407493Y-99444092D01*
X129414515Y-99453953D01*
X129414520Y-99453959D01*
X129566620Y-99598985D01*
X129661578Y-99660011D01*
X129743428Y-99712613D01*
X129938543Y-99790725D01*
X130041729Y-99810612D01*
X130144914Y-99830500D01*
X130144915Y-99830500D01*
X131142419Y-99830500D01*
X131142425Y-99830500D01*
X131299218Y-99815528D01*
X131500875Y-99756316D01*
X131687682Y-99660011D01*
X131852886Y-99530092D01*
X131990519Y-99371256D01*
X131992363Y-99368063D01*
X132071004Y-99231852D01*
X132095604Y-99189244D01*
X132164344Y-98990633D01*
X132194254Y-98782602D01*
X132184254Y-98572670D01*
X132134704Y-98368424D01*
X132119965Y-98336150D01*
X132047401Y-98177256D01*
X132047398Y-98177251D01*
X132047397Y-98177250D01*
X132047396Y-98177247D01*
X131925486Y-98006048D01*
X131925484Y-98006046D01*
X131925479Y-98006040D01*
X131773379Y-97861014D01*
X131596574Y-97747388D01*
X131590032Y-97744769D01*
X131447216Y-97687594D01*
X131401455Y-97669274D01*
X131195086Y-97629500D01*
X131195085Y-97629500D01*
X130197575Y-97629500D01*
X130048741Y-97643712D01*
X130040782Y-97644472D01*
X130040778Y-97644473D01*
X129839127Y-97703683D01*
X129652313Y-97799991D01*
X129487116Y-97929905D01*
X129487112Y-97929909D01*
X129349478Y-98088746D01*
X129244398Y-98270750D01*
X129175656Y-98469365D01*
X129175656Y-98469367D01*
X129146381Y-98672987D01*
X129145746Y-98677401D01*
X128849243Y-98677401D01*
X128844254Y-98572670D01*
X128794704Y-98368424D01*
X128779965Y-98336150D01*
X128707401Y-98177256D01*
X128707398Y-98177251D01*
X128707397Y-98177250D01*
X128707396Y-98177247D01*
X128585486Y-98006048D01*
X128585484Y-98006046D01*
X128585479Y-98006040D01*
X128433379Y-97861014D01*
X128256574Y-97747388D01*
X128250032Y-97744769D01*
X128107216Y-97687594D01*
X128061455Y-97669274D01*
X127855086Y-97629500D01*
X127855085Y-97629500D01*
X126857575Y-97629500D01*
X126708741Y-97643712D01*
X126700782Y-97644472D01*
X126700778Y-97644473D01*
X126499127Y-97703683D01*
X126312313Y-97799991D01*
X126147116Y-97929905D01*
X126147112Y-97929909D01*
X126009478Y-98088746D01*
X125904398Y-98270750D01*
X125835656Y-98469365D01*
X125835656Y-98469367D01*
X125806381Y-98672987D01*
X125805746Y-98677401D01*
X113522375Y-98677401D01*
X113536330Y-98643709D01*
X113555250Y-98500000D01*
X113536330Y-98356291D01*
X113488033Y-98239689D01*
X113480862Y-98222377D01*
X113480861Y-98222376D01*
X113480861Y-98222375D01*
X113392621Y-98107379D01*
X113277625Y-98019139D01*
X113277624Y-98019138D01*
X113277622Y-98019137D01*
X113143712Y-97963671D01*
X113143710Y-97963670D01*
X113143709Y-97963670D01*
X113071854Y-97954210D01*
X113000001Y-97944750D01*
X112999999Y-97944750D01*
X112856291Y-97963670D01*
X112856287Y-97963671D01*
X112722377Y-98019137D01*
X112607379Y-98107379D01*
X112519137Y-98222377D01*
X112463671Y-98356287D01*
X112463670Y-98356291D01*
X112447270Y-98480862D01*
X112444750Y-98500000D01*
X96731419Y-98500000D01*
X96777625Y-98480861D01*
X96892621Y-98392621D01*
X96980861Y-98277625D01*
X97036330Y-98143709D01*
X97055250Y-98000000D01*
X97036330Y-97856291D01*
X96998352Y-97764603D01*
X96980862Y-97722377D01*
X96980861Y-97722376D01*
X96980861Y-97722375D01*
X96892621Y-97607379D01*
X96777625Y-97519139D01*
X96777624Y-97519138D01*
X96777622Y-97519137D01*
X96731420Y-97500000D01*
X114694750Y-97500000D01*
X114713670Y-97643708D01*
X114713671Y-97643712D01*
X114769137Y-97777622D01*
X114769138Y-97777624D01*
X114769139Y-97777625D01*
X114857379Y-97892621D01*
X114972375Y-97980861D01*
X115106291Y-98036330D01*
X115225383Y-98052009D01*
X115249999Y-98055250D01*
X115250000Y-98055250D01*
X115250001Y-98055250D01*
X115274617Y-98052009D01*
X115393709Y-98036330D01*
X115527625Y-97980861D01*
X115642621Y-97892621D01*
X115730861Y-97777625D01*
X115786330Y-97643709D01*
X115805250Y-97500000D01*
X121444750Y-97500000D01*
X121463670Y-97643708D01*
X121463671Y-97643712D01*
X121519137Y-97777622D01*
X121519138Y-97777624D01*
X121519139Y-97777625D01*
X121607379Y-97892621D01*
X121722375Y-97980861D01*
X121856291Y-98036330D01*
X121975383Y-98052009D01*
X121999999Y-98055250D01*
X122000000Y-98055250D01*
X122000001Y-98055250D01*
X122024617Y-98052009D01*
X122143709Y-98036330D01*
X122277625Y-97980861D01*
X122392621Y-97892621D01*
X122480861Y-97777625D01*
X122536330Y-97643709D01*
X122555250Y-97500000D01*
X122536330Y-97356291D01*
X122492604Y-97250725D01*
X122480862Y-97222377D01*
X122480861Y-97222376D01*
X122480861Y-97222375D01*
X122392621Y-97107379D01*
X122277625Y-97019139D01*
X122277624Y-97019138D01*
X122277622Y-97019137D01*
X122143712Y-96963671D01*
X122143710Y-96963670D01*
X122143709Y-96963670D01*
X122071854Y-96954210D01*
X122000001Y-96944750D01*
X121999999Y-96944750D01*
X121856291Y-96963670D01*
X121856287Y-96963671D01*
X121722377Y-97019137D01*
X121607379Y-97107379D01*
X121519137Y-97222377D01*
X121463671Y-97356287D01*
X121463670Y-97356291D01*
X121444750Y-97499999D01*
X121444750Y-97500000D01*
X115805250Y-97500000D01*
X115786330Y-97356291D01*
X115742604Y-97250725D01*
X115730862Y-97222377D01*
X115730861Y-97222376D01*
X115730861Y-97222375D01*
X115642621Y-97107379D01*
X115527625Y-97019139D01*
X115527624Y-97019138D01*
X115527622Y-97019137D01*
X115393712Y-96963671D01*
X115393710Y-96963670D01*
X115393709Y-96963670D01*
X115321854Y-96954210D01*
X115250001Y-96944750D01*
X115249999Y-96944750D01*
X115106291Y-96963670D01*
X115106287Y-96963671D01*
X114972377Y-97019137D01*
X114857379Y-97107379D01*
X114769137Y-97222377D01*
X114713671Y-97356287D01*
X114713670Y-97356291D01*
X114694750Y-97499999D01*
X114694750Y-97500000D01*
X96731420Y-97500000D01*
X96643712Y-97463671D01*
X96643710Y-97463670D01*
X96643709Y-97463670D01*
X96571854Y-97454210D01*
X96500001Y-97444750D01*
X96499999Y-97444750D01*
X96356291Y-97463670D01*
X96356287Y-97463671D01*
X96222377Y-97519137D01*
X96107379Y-97607379D01*
X96019137Y-97722377D01*
X95963671Y-97856287D01*
X95963670Y-97856291D01*
X95947270Y-97980862D01*
X95944750Y-98000000D01*
X89231420Y-98000000D01*
X89143712Y-97963671D01*
X89143710Y-97963670D01*
X89143709Y-97963670D01*
X89071854Y-97954210D01*
X89000001Y-97944750D01*
X88999999Y-97944750D01*
X88856291Y-97963670D01*
X88856287Y-97963671D01*
X88722377Y-98019137D01*
X88607379Y-98107379D01*
X88519137Y-98222377D01*
X88463671Y-98356287D01*
X88463670Y-98356291D01*
X88447270Y-98480862D01*
X88444750Y-98500000D01*
X82751033Y-98500000D01*
X82695232Y-98316046D01*
X82597685Y-98133550D01*
X82534206Y-98056200D01*
X82466410Y-97973589D01*
X82321907Y-97855000D01*
X82306450Y-97842315D01*
X82133742Y-97750000D01*
X86944750Y-97750000D01*
X86962523Y-97885000D01*
X86963670Y-97893708D01*
X86963671Y-97893712D01*
X87019137Y-98027622D01*
X87019138Y-98027624D01*
X87019139Y-98027625D01*
X87107379Y-98142621D01*
X87222375Y-98230861D01*
X87222376Y-98230861D01*
X87222377Y-98230862D01*
X87257814Y-98245540D01*
X87356291Y-98286330D01*
X87483280Y-98303048D01*
X87499999Y-98305250D01*
X87500000Y-98305250D01*
X87500001Y-98305250D01*
X87514977Y-98303278D01*
X87643709Y-98286330D01*
X87777625Y-98230861D01*
X87892621Y-98142621D01*
X87980861Y-98027625D01*
X88036330Y-97893709D01*
X88055250Y-97750000D01*
X88036330Y-97606291D01*
X87999350Y-97517013D01*
X87980862Y-97472377D01*
X87980861Y-97472376D01*
X87980861Y-97472375D01*
X87892621Y-97357379D01*
X87777625Y-97269139D01*
X87777624Y-97269138D01*
X87777622Y-97269137D01*
X87643712Y-97213671D01*
X87643710Y-97213670D01*
X87643709Y-97213670D01*
X87571854Y-97204210D01*
X87500001Y-97194750D01*
X87499999Y-97194750D01*
X87356291Y-97213670D01*
X87356287Y-97213671D01*
X87222377Y-97269137D01*
X87107379Y-97357379D01*
X87019137Y-97472377D01*
X86963671Y-97606287D01*
X86963670Y-97606291D01*
X86944750Y-97750000D01*
X82133742Y-97750000D01*
X82123954Y-97744768D01*
X81925934Y-97684700D01*
X81925932Y-97684699D01*
X81925934Y-97684699D01*
X81806805Y-97672966D01*
X81771608Y-97669500D01*
X80868392Y-97669500D01*
X80830298Y-97673251D01*
X80714067Y-97684699D01*
X80516043Y-97744769D01*
X80454581Y-97777622D01*
X80333550Y-97842315D01*
X80333548Y-97842316D01*
X80333547Y-97842317D01*
X80173589Y-97973589D01*
X80056995Y-98115662D01*
X80042315Y-98133550D01*
X80010858Y-98192402D01*
X79944769Y-98316043D01*
X79884699Y-98514067D01*
X79864417Y-98720000D01*
X79884699Y-98925932D01*
X79899430Y-98974492D01*
X79944768Y-99123954D01*
X80042315Y-99306450D01*
X80042317Y-99306452D01*
X80173589Y-99466410D01*
X80259066Y-99536558D01*
X80333550Y-99597685D01*
X80516046Y-99695232D01*
X80714066Y-99755300D01*
X80714065Y-99755300D01*
X80752647Y-99759100D01*
X80868392Y-99770500D01*
X80868395Y-99770500D01*
X81771605Y-99770500D01*
X81771608Y-99770500D01*
X81925934Y-99755300D01*
X82118798Y-99696795D01*
X82188660Y-99696173D01*
X82247773Y-99733421D01*
X82277364Y-99796715D01*
X82277729Y-99831639D01*
X82276123Y-99843839D01*
X82293045Y-99972375D01*
X82295043Y-99987547D01*
X82295044Y-99987551D01*
X82350510Y-100121461D01*
X82350511Y-100121463D01*
X82350512Y-100121464D01*
X82370976Y-100148134D01*
X82396170Y-100213301D01*
X82382132Y-100281746D01*
X82333318Y-100331736D01*
X82265227Y-100347400D01*
X82214146Y-100332977D01*
X82123956Y-100284769D01*
X82123955Y-100284768D01*
X82123954Y-100284768D01*
X81925934Y-100224700D01*
X81925932Y-100224699D01*
X81925934Y-100224699D01*
X81806805Y-100212966D01*
X81771608Y-100209500D01*
X80868392Y-100209500D01*
X80830298Y-100213251D01*
X80714067Y-100224699D01*
X80516043Y-100284769D01*
X80428176Y-100331736D01*
X80333550Y-100382315D01*
X80333548Y-100382316D01*
X80333547Y-100382317D01*
X80173589Y-100513589D01*
X80056995Y-100655662D01*
X80042315Y-100673550D01*
X80016217Y-100722375D01*
X79944769Y-100856043D01*
X79884699Y-101054067D01*
X79864417Y-101260000D01*
X77988161Y-101260000D01*
X78036330Y-101143709D01*
X78055250Y-101000000D01*
X78054245Y-100992370D01*
X78047976Y-100944750D01*
X78036330Y-100856291D01*
X77993320Y-100752454D01*
X77980862Y-100722377D01*
X77980861Y-100722376D01*
X77980861Y-100722375D01*
X77892621Y-100607379D01*
X77825546Y-100555910D01*
X77791473Y-100529764D01*
X77750270Y-100473336D01*
X77746300Y-100412630D01*
X77744520Y-100412375D01*
X77750534Y-100370541D01*
X77755500Y-100336005D01*
X77755500Y-96180000D01*
X79864417Y-96180000D01*
X79884699Y-96385932D01*
X79885969Y-96390118D01*
X79944768Y-96583954D01*
X80042315Y-96766450D01*
X80053134Y-96779633D01*
X80173589Y-96926410D01*
X80263258Y-96999998D01*
X80333550Y-97057685D01*
X80516046Y-97155232D01*
X80714066Y-97215300D01*
X80714065Y-97215300D01*
X80724381Y-97216316D01*
X80868392Y-97230500D01*
X80868395Y-97230500D01*
X81771605Y-97230500D01*
X81771608Y-97230500D01*
X81925934Y-97215300D01*
X82123954Y-97155232D01*
X82306450Y-97057685D01*
X82466410Y-96926410D01*
X82597685Y-96766450D01*
X82695232Y-96583954D01*
X82755300Y-96385934D01*
X82775583Y-96180000D01*
X82755300Y-95974066D01*
X82748720Y-95952374D01*
X113479500Y-95952374D01*
X113494859Y-96078868D01*
X113494860Y-96078874D01*
X113555182Y-96237931D01*
X113587712Y-96285058D01*
X113651817Y-96377929D01*
X113753078Y-96467638D01*
X113779150Y-96490736D01*
X113921007Y-96565188D01*
X113929775Y-96569790D01*
X114094944Y-96610500D01*
X114265056Y-96610500D01*
X114430225Y-96569790D01*
X114566469Y-96498283D01*
X114580849Y-96490736D01*
X114580850Y-96490734D01*
X114580852Y-96490734D01*
X114708183Y-96377929D01*
X114804818Y-96237930D01*
X114865140Y-96078872D01*
X114880500Y-95952372D01*
X114880500Y-95169950D01*
X114900185Y-95102911D01*
X114952989Y-95057156D01*
X115022147Y-95047212D01*
X115085703Y-95076237D01*
X115102876Y-95094464D01*
X115107300Y-95100229D01*
X115107302Y-95100233D01*
X115141422Y-95144699D01*
X115189524Y-95207387D01*
X115199549Y-95220451D01*
X115319767Y-95312698D01*
X115459764Y-95370687D01*
X115572280Y-95385500D01*
X115572287Y-95385500D01*
X115647713Y-95385500D01*
X115647720Y-95385500D01*
X115760236Y-95370687D01*
X115900233Y-95312698D01*
X116020451Y-95220451D01*
X116112698Y-95100233D01*
X116170687Y-94960236D01*
X116190466Y-94810000D01*
X120809534Y-94810000D01*
X120829312Y-94960234D01*
X120829313Y-94960236D01*
X120885861Y-95096756D01*
X120887302Y-95100233D01*
X120979549Y-95220451D01*
X121099767Y-95312698D01*
X121239764Y-95370687D01*
X121352280Y-95385500D01*
X121352287Y-95385500D01*
X121427713Y-95385500D01*
X121427720Y-95385500D01*
X121540236Y-95370687D01*
X121680233Y-95312698D01*
X121800451Y-95220451D01*
X121892698Y-95100233D01*
X121892700Y-95100229D01*
X121897124Y-95094464D01*
X121953552Y-95053261D01*
X122023298Y-95049106D01*
X122084218Y-95083318D01*
X122116971Y-95145036D01*
X122119500Y-95169950D01*
X122119500Y-95952374D01*
X122134859Y-96078868D01*
X122134860Y-96078874D01*
X122195182Y-96237931D01*
X122227712Y-96285058D01*
X122291817Y-96377929D01*
X122393078Y-96467638D01*
X122419150Y-96490736D01*
X122561007Y-96565188D01*
X122569775Y-96569790D01*
X122734944Y-96610500D01*
X122905056Y-96610500D01*
X123070225Y-96569790D01*
X123206469Y-96498283D01*
X123220849Y-96490736D01*
X123220850Y-96490734D01*
X123220852Y-96490734D01*
X123348183Y-96377929D01*
X123444818Y-96237930D01*
X123482943Y-96137401D01*
X125805746Y-96137401D01*
X125815745Y-96347327D01*
X125865296Y-96551578D01*
X125865298Y-96551582D01*
X125952598Y-96742743D01*
X125952601Y-96742748D01*
X125952602Y-96742750D01*
X125952604Y-96742753D01*
X126074514Y-96913952D01*
X126074515Y-96913953D01*
X126074520Y-96913959D01*
X126226620Y-97058985D01*
X126321578Y-97120011D01*
X126403428Y-97172613D01*
X126598543Y-97250725D01*
X126694073Y-97269137D01*
X126804914Y-97290500D01*
X126804915Y-97290500D01*
X127802419Y-97290500D01*
X127802425Y-97290500D01*
X127959218Y-97275528D01*
X128160875Y-97216316D01*
X128347682Y-97120011D01*
X128512886Y-96990092D01*
X128650519Y-96831256D01*
X128674568Y-96789603D01*
X128755601Y-96649249D01*
X128755600Y-96649249D01*
X128755604Y-96649244D01*
X128824344Y-96450633D01*
X128854254Y-96242602D01*
X128849243Y-96137401D01*
X129145746Y-96137401D01*
X129155745Y-96347327D01*
X129205296Y-96551578D01*
X129205298Y-96551582D01*
X129292598Y-96742743D01*
X129292601Y-96742748D01*
X129292602Y-96742750D01*
X129292604Y-96742753D01*
X129414514Y-96913952D01*
X129414515Y-96913953D01*
X129414520Y-96913959D01*
X129566620Y-97058985D01*
X129661578Y-97120011D01*
X129743428Y-97172613D01*
X129938543Y-97250725D01*
X130034073Y-97269137D01*
X130144914Y-97290500D01*
X130144915Y-97290500D01*
X131142419Y-97290500D01*
X131142425Y-97290500D01*
X131299218Y-97275528D01*
X131500875Y-97216316D01*
X131687682Y-97120011D01*
X131852886Y-96990092D01*
X131990519Y-96831256D01*
X132014568Y-96789603D01*
X132095601Y-96649249D01*
X132095600Y-96649249D01*
X132095604Y-96649244D01*
X132164344Y-96450633D01*
X132194254Y-96242602D01*
X132184254Y-96032670D01*
X132134704Y-95828424D01*
X132120602Y-95797545D01*
X132047401Y-95637256D01*
X132047398Y-95637251D01*
X132047397Y-95637250D01*
X132047396Y-95637247D01*
X131925486Y-95466048D01*
X131925484Y-95466046D01*
X131925479Y-95466040D01*
X131773379Y-95321014D01*
X131596574Y-95207388D01*
X131590032Y-95204769D01*
X131441783Y-95145419D01*
X131401455Y-95129274D01*
X131195086Y-95089500D01*
X131195085Y-95089500D01*
X130197575Y-95089500D01*
X130040782Y-95104472D01*
X130040778Y-95104473D01*
X129839127Y-95163683D01*
X129652313Y-95259991D01*
X129487116Y-95389905D01*
X129487112Y-95389909D01*
X129349478Y-95548746D01*
X129244398Y-95730750D01*
X129175656Y-95929365D01*
X129175656Y-95929367D01*
X129151847Y-96094969D01*
X129145746Y-96137401D01*
X128849243Y-96137401D01*
X128844254Y-96032670D01*
X128794704Y-95828424D01*
X128780602Y-95797545D01*
X128707401Y-95637256D01*
X128707398Y-95637251D01*
X128707397Y-95637250D01*
X128707396Y-95637247D01*
X128585486Y-95466048D01*
X128585484Y-95466046D01*
X128585479Y-95466040D01*
X128433379Y-95321014D01*
X128256574Y-95207388D01*
X128250032Y-95204769D01*
X128101783Y-95145419D01*
X128061455Y-95129274D01*
X127855086Y-95089500D01*
X127855085Y-95089500D01*
X126857575Y-95089500D01*
X126700782Y-95104472D01*
X126700778Y-95104473D01*
X126499127Y-95163683D01*
X126312313Y-95259991D01*
X126147116Y-95389905D01*
X126147112Y-95389909D01*
X126009478Y-95548746D01*
X125904398Y-95730750D01*
X125835656Y-95929365D01*
X125835656Y-95929367D01*
X125811847Y-96094969D01*
X125805746Y-96137401D01*
X123482943Y-96137401D01*
X123505140Y-96078872D01*
X123520500Y-95952372D01*
X123520500Y-94667628D01*
X123519545Y-94659765D01*
X123507153Y-94557709D01*
X123505140Y-94541128D01*
X123444818Y-94382070D01*
X123439219Y-94373959D01*
X123393209Y-94307302D01*
X123348183Y-94242071D01*
X123220852Y-94129266D01*
X123220849Y-94129263D01*
X123070226Y-94050210D01*
X122905056Y-94009500D01*
X122734944Y-94009500D01*
X122569773Y-94050210D01*
X122419150Y-94129263D01*
X122291816Y-94242072D01*
X122195182Y-94382068D01*
X122195182Y-94382069D01*
X122134205Y-94542852D01*
X122092027Y-94598555D01*
X122026429Y-94622612D01*
X121958239Y-94607385D01*
X121909106Y-94557709D01*
X121903702Y-94546334D01*
X121892698Y-94519767D01*
X121800451Y-94399549D01*
X121680233Y-94307302D01*
X121680229Y-94307300D01*
X121616801Y-94281027D01*
X121540236Y-94249313D01*
X121526171Y-94247461D01*
X121427727Y-94234500D01*
X121427720Y-94234500D01*
X121352280Y-94234500D01*
X121352272Y-94234500D01*
X121239764Y-94249313D01*
X121239763Y-94249313D01*
X121099770Y-94307300D01*
X121099767Y-94307301D01*
X121099767Y-94307302D01*
X120979549Y-94399549D01*
X120887902Y-94518986D01*
X120887300Y-94519770D01*
X120829313Y-94659763D01*
X120829312Y-94659765D01*
X120809534Y-94809999D01*
X120809534Y-94810000D01*
X116190466Y-94810000D01*
X116187491Y-94787406D01*
X116170687Y-94659765D01*
X116170687Y-94659764D01*
X116112698Y-94519767D01*
X116020451Y-94399549D01*
X115900233Y-94307302D01*
X115900229Y-94307300D01*
X115836801Y-94281027D01*
X115760236Y-94249313D01*
X115746171Y-94247461D01*
X115647727Y-94234500D01*
X115647720Y-94234500D01*
X115572280Y-94234500D01*
X115572272Y-94234500D01*
X115459764Y-94249313D01*
X115459763Y-94249313D01*
X115319770Y-94307300D01*
X115319767Y-94307301D01*
X115319767Y-94307302D01*
X115199549Y-94399549D01*
X115107902Y-94518986D01*
X115107300Y-94519770D01*
X115096297Y-94546334D01*
X115052455Y-94600738D01*
X114986161Y-94622802D01*
X114918462Y-94605522D01*
X114870852Y-94554385D01*
X114865794Y-94542852D01*
X114827905Y-94442946D01*
X114804818Y-94382070D01*
X114799219Y-94373959D01*
X114753209Y-94307302D01*
X114708183Y-94242071D01*
X114580852Y-94129266D01*
X114580849Y-94129263D01*
X114430226Y-94050210D01*
X114265056Y-94009500D01*
X114094944Y-94009500D01*
X113929773Y-94050210D01*
X113779150Y-94129263D01*
X113651816Y-94242072D01*
X113555182Y-94382068D01*
X113494860Y-94541125D01*
X113494859Y-94541131D01*
X113479500Y-94667625D01*
X113479500Y-95952374D01*
X82748720Y-95952374D01*
X82695232Y-95776046D01*
X82597685Y-95593550D01*
X82542319Y-95526086D01*
X82466410Y-95433589D01*
X82342585Y-95331970D01*
X82306450Y-95302315D01*
X82136554Y-95211502D01*
X82123956Y-95204769D01*
X82123955Y-95204768D01*
X82123954Y-95204768D01*
X81925934Y-95144700D01*
X81925932Y-95144699D01*
X81925934Y-95144699D01*
X81806805Y-95132966D01*
X81771608Y-95129500D01*
X80868392Y-95129500D01*
X80830298Y-95133251D01*
X80714067Y-95144699D01*
X80516043Y-95204769D01*
X80440669Y-95245058D01*
X80333550Y-95302315D01*
X80333548Y-95302316D01*
X80333547Y-95302317D01*
X80173589Y-95433589D01*
X80055888Y-95577011D01*
X80042315Y-95593550D01*
X80016501Y-95641844D01*
X79944769Y-95776043D01*
X79884699Y-95974067D01*
X79864417Y-96180000D01*
X77755500Y-96180000D01*
X77755500Y-94979275D01*
X83719433Y-94979275D01*
X83737296Y-95114959D01*
X83738353Y-95122983D01*
X83738354Y-95122987D01*
X83793820Y-95256897D01*
X83793821Y-95256899D01*
X83793822Y-95256900D01*
X83882062Y-95371896D01*
X83997058Y-95460136D01*
X83997059Y-95460136D01*
X83997060Y-95460137D01*
X84011326Y-95466046D01*
X84130974Y-95515605D01*
X84257963Y-95532323D01*
X84274682Y-95534525D01*
X84274683Y-95534525D01*
X84274684Y-95534525D01*
X84289660Y-95532553D01*
X84418392Y-95515605D01*
X84552308Y-95460136D01*
X84667304Y-95371896D01*
X84755544Y-95256900D01*
X84811013Y-95122984D01*
X84829933Y-94979275D01*
X84811013Y-94835566D01*
X84755544Y-94701650D01*
X84667304Y-94586654D01*
X84552308Y-94498414D01*
X84552307Y-94498413D01*
X84552305Y-94498412D01*
X84418395Y-94442946D01*
X84418393Y-94442945D01*
X84418392Y-94442945D01*
X84346537Y-94433485D01*
X84274684Y-94424025D01*
X84274682Y-94424025D01*
X84130974Y-94442945D01*
X84130970Y-94442946D01*
X83997060Y-94498412D01*
X83882062Y-94586654D01*
X83793820Y-94701652D01*
X83738354Y-94835562D01*
X83738353Y-94835566D01*
X83721940Y-94960236D01*
X83719433Y-94979275D01*
X77755500Y-94979275D01*
X77755500Y-93640000D01*
X79864417Y-93640000D01*
X79884699Y-93845932D01*
X79900729Y-93898775D01*
X79942455Y-94036330D01*
X79944769Y-94043956D01*
X79951502Y-94056554D01*
X80042315Y-94226450D01*
X80055135Y-94242071D01*
X80173589Y-94386410D01*
X80268692Y-94464458D01*
X80333550Y-94517685D01*
X80516046Y-94615232D01*
X80714066Y-94675300D01*
X80714065Y-94675300D01*
X80724381Y-94676316D01*
X80868392Y-94690500D01*
X80868395Y-94690500D01*
X81771605Y-94690500D01*
X81771608Y-94690500D01*
X81925934Y-94675300D01*
X82123954Y-94615232D01*
X82306450Y-94517685D01*
X82466410Y-94386410D01*
X82597685Y-94226450D01*
X82695232Y-94043954D01*
X82755300Y-93845934D01*
X82775583Y-93640000D01*
X82761794Y-93500000D01*
X97444750Y-93500000D01*
X97459130Y-93609228D01*
X97463670Y-93643708D01*
X97463671Y-93643712D01*
X97519137Y-93777622D01*
X97519138Y-93777624D01*
X97519139Y-93777625D01*
X97607379Y-93892621D01*
X97722375Y-93980861D01*
X97722376Y-93980861D01*
X97722377Y-93980862D01*
X97746621Y-93990904D01*
X97856291Y-94036330D01*
X97983280Y-94053048D01*
X97999999Y-94055250D01*
X98000000Y-94055250D01*
X98000001Y-94055250D01*
X98014977Y-94053278D01*
X98143709Y-94036330D01*
X98277625Y-93980861D01*
X98392621Y-93892621D01*
X98480861Y-93777625D01*
X98492303Y-93750000D01*
X105194750Y-93750000D01*
X105210708Y-93871214D01*
X105213670Y-93893708D01*
X105213671Y-93893712D01*
X105269137Y-94027622D01*
X105269138Y-94027624D01*
X105269139Y-94027625D01*
X105357379Y-94142621D01*
X105472375Y-94230861D01*
X105606291Y-94286330D01*
X105733280Y-94303048D01*
X105749999Y-94305250D01*
X105750000Y-94305250D01*
X105750001Y-94305250D01*
X105764977Y-94303278D01*
X105893709Y-94286330D01*
X106027625Y-94230861D01*
X106142621Y-94142621D01*
X106230861Y-94027625D01*
X106286330Y-93893709D01*
X106305250Y-93750000D01*
X108194750Y-93750000D01*
X108210708Y-93871214D01*
X108213670Y-93893708D01*
X108213671Y-93893712D01*
X108269137Y-94027622D01*
X108269138Y-94027624D01*
X108269139Y-94027625D01*
X108357379Y-94142621D01*
X108472375Y-94230861D01*
X108606291Y-94286330D01*
X108733280Y-94303048D01*
X108749999Y-94305250D01*
X108750000Y-94305250D01*
X108750001Y-94305250D01*
X108764977Y-94303278D01*
X108893709Y-94286330D01*
X109027625Y-94230861D01*
X109142621Y-94142621D01*
X109230861Y-94027625D01*
X109286330Y-93893709D01*
X109305250Y-93750000D01*
X109286330Y-93606291D01*
X109282648Y-93597401D01*
X125805746Y-93597401D01*
X125815745Y-93807327D01*
X125865296Y-94011578D01*
X125865298Y-94011582D01*
X125952598Y-94202743D01*
X125952601Y-94202748D01*
X125952602Y-94202750D01*
X125952604Y-94202753D01*
X126046597Y-94334748D01*
X126074515Y-94373953D01*
X126074520Y-94373959D01*
X126226620Y-94518985D01*
X126321578Y-94580011D01*
X126403428Y-94632613D01*
X126598543Y-94710725D01*
X126701729Y-94730612D01*
X126804914Y-94750500D01*
X126804915Y-94750500D01*
X127802419Y-94750500D01*
X127802425Y-94750500D01*
X127959218Y-94735528D01*
X128160875Y-94676316D01*
X128347682Y-94580011D01*
X128512886Y-94450092D01*
X128650519Y-94291256D01*
X128678916Y-94242072D01*
X128755601Y-94109249D01*
X128755600Y-94109249D01*
X128755604Y-94109244D01*
X128824344Y-93910633D01*
X128854254Y-93702602D01*
X128849243Y-93597401D01*
X129145746Y-93597401D01*
X129155745Y-93807327D01*
X129205296Y-94011578D01*
X129205298Y-94011582D01*
X129292598Y-94202743D01*
X129292601Y-94202748D01*
X129292602Y-94202750D01*
X129292604Y-94202753D01*
X129386597Y-94334748D01*
X129414515Y-94373953D01*
X129414520Y-94373959D01*
X129566620Y-94518985D01*
X129661578Y-94580011D01*
X129743428Y-94632613D01*
X129938543Y-94710725D01*
X130041729Y-94730612D01*
X130144914Y-94750500D01*
X130144915Y-94750500D01*
X131142419Y-94750500D01*
X131142425Y-94750500D01*
X131299218Y-94735528D01*
X131500875Y-94676316D01*
X131687682Y-94580011D01*
X131852886Y-94450092D01*
X131990519Y-94291256D01*
X132018916Y-94242072D01*
X132095601Y-94109249D01*
X132095600Y-94109249D01*
X132095604Y-94109244D01*
X132164344Y-93910633D01*
X132194254Y-93702602D01*
X132184254Y-93492670D01*
X132134704Y-93288424D01*
X132134701Y-93288417D01*
X132047401Y-93097256D01*
X132047398Y-93097251D01*
X132047397Y-93097250D01*
X132047396Y-93097247D01*
X131925486Y-92926048D01*
X131925484Y-92926046D01*
X131925479Y-92926040D01*
X131773379Y-92781014D01*
X131596574Y-92667388D01*
X131590032Y-92664769D01*
X131439987Y-92604700D01*
X131401455Y-92589274D01*
X131195086Y-92549500D01*
X131195085Y-92549500D01*
X130197575Y-92549500D01*
X130040782Y-92564472D01*
X130040778Y-92564473D01*
X129839127Y-92623683D01*
X129652313Y-92719991D01*
X129487116Y-92849905D01*
X129487112Y-92849909D01*
X129349478Y-93008746D01*
X129244398Y-93190750D01*
X129175656Y-93389365D01*
X129175656Y-93389367D01*
X129150572Y-93563837D01*
X129145746Y-93597401D01*
X128849243Y-93597401D01*
X128844254Y-93492670D01*
X128794704Y-93288424D01*
X128794701Y-93288417D01*
X128707401Y-93097256D01*
X128707398Y-93097251D01*
X128707397Y-93097250D01*
X128707396Y-93097247D01*
X128585486Y-92926048D01*
X128585484Y-92926046D01*
X128585479Y-92926040D01*
X128433379Y-92781014D01*
X128256574Y-92667388D01*
X128250032Y-92664769D01*
X128099987Y-92604700D01*
X128061455Y-92589274D01*
X127855086Y-92549500D01*
X127855085Y-92549500D01*
X126857575Y-92549500D01*
X126700782Y-92564472D01*
X126700778Y-92564473D01*
X126499127Y-92623683D01*
X126312313Y-92719991D01*
X126147116Y-92849905D01*
X126147112Y-92849909D01*
X126009478Y-93008746D01*
X125904398Y-93190750D01*
X125835656Y-93389365D01*
X125835656Y-93389367D01*
X125810572Y-93563837D01*
X125805746Y-93597401D01*
X109282648Y-93597401D01*
X109242434Y-93500314D01*
X109230862Y-93472377D01*
X109230861Y-93472376D01*
X109230861Y-93472375D01*
X109142621Y-93357379D01*
X109027625Y-93269139D01*
X109027624Y-93269138D01*
X109027622Y-93269137D01*
X108893712Y-93213671D01*
X108893710Y-93213670D01*
X108893709Y-93213670D01*
X108763042Y-93196467D01*
X108750001Y-93194750D01*
X108749999Y-93194750D01*
X108606291Y-93213670D01*
X108606287Y-93213671D01*
X108472377Y-93269137D01*
X108357379Y-93357379D01*
X108269137Y-93472377D01*
X108213671Y-93606287D01*
X108213670Y-93606291D01*
X108199678Y-93712572D01*
X108194750Y-93750000D01*
X106305250Y-93750000D01*
X106286330Y-93606291D01*
X106242434Y-93500314D01*
X106230862Y-93472377D01*
X106230861Y-93472376D01*
X106230861Y-93472375D01*
X106142621Y-93357379D01*
X106027625Y-93269139D01*
X106027624Y-93269138D01*
X106027622Y-93269137D01*
X105893712Y-93213671D01*
X105893710Y-93213670D01*
X105893709Y-93213670D01*
X105763042Y-93196467D01*
X105750001Y-93194750D01*
X105749999Y-93194750D01*
X105606291Y-93213670D01*
X105606287Y-93213671D01*
X105472377Y-93269137D01*
X105357379Y-93357379D01*
X105269137Y-93472377D01*
X105213671Y-93606287D01*
X105213670Y-93606291D01*
X105199678Y-93712572D01*
X105194750Y-93750000D01*
X98492303Y-93750000D01*
X98536330Y-93643709D01*
X98555250Y-93500000D01*
X98536330Y-93356291D01*
X98486524Y-93236046D01*
X98480862Y-93222377D01*
X98480861Y-93222376D01*
X98480861Y-93222375D01*
X98392621Y-93107379D01*
X98277625Y-93019139D01*
X98277624Y-93019138D01*
X98277622Y-93019137D01*
X98143712Y-92963671D01*
X98143710Y-92963670D01*
X98143709Y-92963670D01*
X98071854Y-92954210D01*
X98000001Y-92944750D01*
X97999999Y-92944750D01*
X97856291Y-92963670D01*
X97856287Y-92963671D01*
X97722377Y-93019137D01*
X97607379Y-93107379D01*
X97519137Y-93222377D01*
X97463671Y-93356287D01*
X97463670Y-93356291D01*
X97453431Y-93434066D01*
X97444750Y-93500000D01*
X82761794Y-93500000D01*
X82755300Y-93434066D01*
X82695232Y-93236046D01*
X82597685Y-93053550D01*
X82534206Y-92976200D01*
X82466410Y-92893589D01*
X82348677Y-92796969D01*
X82306450Y-92762315D01*
X82123954Y-92664768D01*
X81925934Y-92604700D01*
X81925932Y-92604699D01*
X81925934Y-92604699D01*
X81806805Y-92592966D01*
X81771608Y-92589500D01*
X80868392Y-92589500D01*
X80830298Y-92593251D01*
X80714067Y-92604699D01*
X80516043Y-92664769D01*
X80444783Y-92702859D01*
X80333550Y-92762315D01*
X80333548Y-92762316D01*
X80333547Y-92762317D01*
X80173589Y-92893589D01*
X80042317Y-93053547D01*
X80042315Y-93053550D01*
X80014668Y-93105273D01*
X79944769Y-93236043D01*
X79884699Y-93434067D01*
X79864417Y-93640000D01*
X77755500Y-93640000D01*
X77755500Y-92250000D01*
X88194750Y-92250000D01*
X88211050Y-92373812D01*
X88213670Y-92393708D01*
X88213671Y-92393712D01*
X88269137Y-92527622D01*
X88269138Y-92527624D01*
X88269139Y-92527625D01*
X88357379Y-92642621D01*
X88472375Y-92730861D01*
X88472376Y-92730861D01*
X88472377Y-92730862D01*
X88517013Y-92749350D01*
X88606291Y-92786330D01*
X88733280Y-92803048D01*
X88749999Y-92805250D01*
X88750000Y-92805250D01*
X88750001Y-92805250D01*
X88764977Y-92803278D01*
X88893709Y-92786330D01*
X89027625Y-92730861D01*
X89142621Y-92642621D01*
X89230861Y-92527625D01*
X89286330Y-92393709D01*
X89305250Y-92250000D01*
X89286330Y-92106291D01*
X89249350Y-92017013D01*
X89230862Y-91972377D01*
X89230861Y-91972376D01*
X89230861Y-91972375D01*
X89142621Y-91857379D01*
X89027625Y-91769139D01*
X89027624Y-91769138D01*
X89027622Y-91769137D01*
X88981420Y-91750000D01*
X89944750Y-91750000D01*
X89958077Y-91851230D01*
X89963670Y-91893708D01*
X89963671Y-91893712D01*
X90019137Y-92027622D01*
X90019138Y-92027624D01*
X90019139Y-92027625D01*
X90107379Y-92142621D01*
X90222375Y-92230861D01*
X90356291Y-92286330D01*
X90483280Y-92303048D01*
X90499999Y-92305250D01*
X90500000Y-92305250D01*
X90500001Y-92305250D01*
X90514977Y-92303278D01*
X90643709Y-92286330D01*
X90777625Y-92230861D01*
X90892621Y-92142621D01*
X90980861Y-92027625D01*
X91036330Y-91893709D01*
X91055250Y-91750000D01*
X91051789Y-91723709D01*
X113429500Y-91723709D01*
X113443063Y-91839749D01*
X113444759Y-91854256D01*
X113444760Y-91854259D01*
X113504762Y-92019115D01*
X113504764Y-92019119D01*
X113601167Y-92165693D01*
X113601168Y-92165694D01*
X113728778Y-92286089D01*
X113728780Y-92286090D01*
X113728782Y-92286092D01*
X113880719Y-92373812D01*
X114048790Y-92424130D01*
X114223935Y-92434331D01*
X114396711Y-92403865D01*
X114557804Y-92334377D01*
X114698530Y-92229610D01*
X114811302Y-92095214D01*
X114890040Y-91938433D01*
X114930500Y-91767721D01*
X114930500Y-91723709D01*
X122069500Y-91723709D01*
X122083063Y-91839749D01*
X122084759Y-91854256D01*
X122084760Y-91854259D01*
X122144762Y-92019115D01*
X122144764Y-92019119D01*
X122241167Y-92165693D01*
X122241168Y-92165694D01*
X122368778Y-92286089D01*
X122368780Y-92286090D01*
X122368782Y-92286092D01*
X122520719Y-92373812D01*
X122688790Y-92424130D01*
X122863935Y-92434331D01*
X123036711Y-92403865D01*
X123197804Y-92334377D01*
X123338530Y-92229610D01*
X123451302Y-92095214D01*
X123530040Y-91938433D01*
X123570500Y-91767721D01*
X123570500Y-90536291D01*
X123555241Y-90405745D01*
X123495237Y-90240883D01*
X123445187Y-90164786D01*
X123398832Y-90094306D01*
X123398831Y-90094305D01*
X123298875Y-90000000D01*
X128444750Y-90000000D01*
X128461176Y-90124769D01*
X128463670Y-90143708D01*
X128463671Y-90143712D01*
X128519137Y-90277622D01*
X128519138Y-90277624D01*
X128519139Y-90277625D01*
X128607379Y-90392621D01*
X128722375Y-90480861D01*
X128856291Y-90536330D01*
X128983280Y-90553048D01*
X128999999Y-90555250D01*
X129000000Y-90555250D01*
X129000001Y-90555250D01*
X129014977Y-90553278D01*
X129143709Y-90536330D01*
X129277625Y-90480861D01*
X129392621Y-90392621D01*
X129480861Y-90277625D01*
X129536330Y-90143709D01*
X129555250Y-90000000D01*
X129536330Y-89856291D01*
X129493314Y-89752440D01*
X129480862Y-89722377D01*
X129480861Y-89722376D01*
X129480861Y-89722375D01*
X129392621Y-89607379D01*
X129277625Y-89519139D01*
X129277624Y-89519138D01*
X129277622Y-89519137D01*
X129143712Y-89463671D01*
X129143710Y-89463670D01*
X129143709Y-89463670D01*
X129071854Y-89454210D01*
X129000001Y-89444750D01*
X128999999Y-89444750D01*
X128856291Y-89463670D01*
X128856287Y-89463671D01*
X128722377Y-89519137D01*
X128607379Y-89607379D01*
X128519137Y-89722377D01*
X128463671Y-89856287D01*
X128463670Y-89856291D01*
X128444750Y-90000000D01*
X123298875Y-90000000D01*
X123271221Y-89973910D01*
X123267859Y-89971969D01*
X123119281Y-89886188D01*
X123119282Y-89886188D01*
X122951210Y-89835870D01*
X122951205Y-89835869D01*
X122776066Y-89825669D01*
X122776065Y-89825669D01*
X122752468Y-89829830D01*
X122603293Y-89856134D01*
X122603291Y-89856134D01*
X122603289Y-89856135D01*
X122574431Y-89868583D01*
X122442198Y-89925622D01*
X122442190Y-89925626D01*
X122301469Y-90030390D01*
X122188698Y-90164785D01*
X122188697Y-90164787D01*
X122109961Y-90321562D01*
X122102370Y-90353590D01*
X122069500Y-90492279D01*
X122069500Y-91723709D01*
X114930500Y-91723709D01*
X114930500Y-90536291D01*
X114915241Y-90405745D01*
X114855237Y-90240883D01*
X114805187Y-90164786D01*
X114758832Y-90094306D01*
X114758831Y-90094305D01*
X114631221Y-89973910D01*
X114627859Y-89971969D01*
X114479281Y-89886188D01*
X114479282Y-89886188D01*
X114311210Y-89835870D01*
X114311205Y-89835869D01*
X114136066Y-89825669D01*
X114136065Y-89825669D01*
X114112468Y-89829830D01*
X113963293Y-89856134D01*
X113963291Y-89856134D01*
X113963289Y-89856135D01*
X113934431Y-89868583D01*
X113802198Y-89925622D01*
X113802190Y-89925626D01*
X113661469Y-90030390D01*
X113548698Y-90164785D01*
X113548697Y-90164787D01*
X113469961Y-90321562D01*
X113462370Y-90353590D01*
X113429500Y-90492279D01*
X113429500Y-91723709D01*
X91051789Y-91723709D01*
X91036330Y-91606291D01*
X90986168Y-91485188D01*
X90980862Y-91472377D01*
X90980861Y-91472376D01*
X90980861Y-91472375D01*
X90892621Y-91357379D01*
X90777625Y-91269139D01*
X90777624Y-91269138D01*
X90777622Y-91269137D01*
X90643712Y-91213671D01*
X90643710Y-91213670D01*
X90643709Y-91213670D01*
X90571854Y-91204210D01*
X90500001Y-91194750D01*
X90499999Y-91194750D01*
X90356291Y-91213670D01*
X90356287Y-91213671D01*
X90222377Y-91269137D01*
X90107379Y-91357379D01*
X90019137Y-91472377D01*
X89963671Y-91606287D01*
X89963670Y-91606291D01*
X89944750Y-91750000D01*
X88981420Y-91750000D01*
X88893712Y-91713671D01*
X88893710Y-91713670D01*
X88893709Y-91713670D01*
X88808517Y-91702454D01*
X88750001Y-91694750D01*
X88749999Y-91694750D01*
X88606291Y-91713670D01*
X88606287Y-91713671D01*
X88472377Y-91769137D01*
X88357379Y-91857379D01*
X88269137Y-91972377D01*
X88213671Y-92106287D01*
X88213670Y-92106291D01*
X88197270Y-92230862D01*
X88194750Y-92250000D01*
X77755500Y-92250000D01*
X77755500Y-91100000D01*
X79864417Y-91100000D01*
X79884699Y-91305932D01*
X79884700Y-91305934D01*
X79944768Y-91503954D01*
X80042315Y-91686450D01*
X80076969Y-91728677D01*
X80173589Y-91846410D01*
X80231223Y-91893708D01*
X80333550Y-91977685D01*
X80516046Y-92075232D01*
X80714066Y-92135300D01*
X80714065Y-92135300D01*
X80752647Y-92139100D01*
X80868392Y-92150500D01*
X80868395Y-92150500D01*
X81771605Y-92150500D01*
X81771608Y-92150500D01*
X81925934Y-92135300D01*
X82123954Y-92075232D01*
X82306450Y-91977685D01*
X82466410Y-91846410D01*
X82597685Y-91686450D01*
X82695232Y-91503954D01*
X82755300Y-91305934D01*
X82775583Y-91100000D01*
X82755300Y-90894066D01*
X82711599Y-90750000D01*
X106694750Y-90750000D01*
X106697932Y-90774173D01*
X106713670Y-90893708D01*
X106713671Y-90893712D01*
X106769137Y-91027622D01*
X106769138Y-91027624D01*
X106769139Y-91027625D01*
X106857379Y-91142621D01*
X106972375Y-91230861D01*
X107106291Y-91286330D01*
X107233280Y-91303048D01*
X107249999Y-91305250D01*
X107250000Y-91305250D01*
X107250001Y-91305250D01*
X107264977Y-91303278D01*
X107393709Y-91286330D01*
X107527625Y-91230861D01*
X107642621Y-91142621D01*
X107730861Y-91027625D01*
X107786330Y-90893709D01*
X107805250Y-90750000D01*
X107786330Y-90606291D01*
X107739105Y-90492279D01*
X107730862Y-90472377D01*
X107730861Y-90472376D01*
X107730861Y-90472375D01*
X107642621Y-90357379D01*
X107527625Y-90269139D01*
X107527624Y-90269138D01*
X107527622Y-90269137D01*
X107393712Y-90213671D01*
X107393710Y-90213670D01*
X107393709Y-90213670D01*
X107320897Y-90204084D01*
X107250001Y-90194750D01*
X107249999Y-90194750D01*
X107106291Y-90213670D01*
X107106287Y-90213671D01*
X106972377Y-90269137D01*
X106857379Y-90357379D01*
X106769137Y-90472377D01*
X106713671Y-90606287D01*
X106713670Y-90606291D01*
X106694750Y-90750000D01*
X82711599Y-90750000D01*
X82695232Y-90696046D01*
X82597685Y-90513550D01*
X82545702Y-90450209D01*
X82466410Y-90353589D01*
X82337340Y-90247666D01*
X82306450Y-90222315D01*
X82123954Y-90124768D01*
X81925934Y-90064700D01*
X81925932Y-90064699D01*
X81925934Y-90064699D01*
X81806805Y-90052966D01*
X81771608Y-90049500D01*
X80868392Y-90049500D01*
X80830298Y-90053251D01*
X80714067Y-90064699D01*
X80516043Y-90124769D01*
X80441180Y-90164785D01*
X80333550Y-90222315D01*
X80333548Y-90222316D01*
X80333547Y-90222317D01*
X80173589Y-90353589D01*
X80042317Y-90513547D01*
X80042315Y-90513550D01*
X80024654Y-90546591D01*
X79944769Y-90696043D01*
X79884699Y-90894067D01*
X79864417Y-91100000D01*
X77755500Y-91100000D01*
X77755500Y-90026282D01*
X77752675Y-90000000D01*
X88194750Y-90000000D01*
X88211176Y-90124769D01*
X88213670Y-90143708D01*
X88213671Y-90143712D01*
X88269137Y-90277622D01*
X88269138Y-90277624D01*
X88269139Y-90277625D01*
X88357379Y-90392621D01*
X88472375Y-90480861D01*
X88606291Y-90536330D01*
X88733280Y-90553048D01*
X88749999Y-90555250D01*
X88750000Y-90555250D01*
X88750001Y-90555250D01*
X88764977Y-90553278D01*
X88893709Y-90536330D01*
X89027625Y-90480861D01*
X89142621Y-90392621D01*
X89230861Y-90277625D01*
X89286330Y-90143709D01*
X89305250Y-90000000D01*
X89286330Y-89856291D01*
X89243314Y-89752440D01*
X89230862Y-89722377D01*
X89230861Y-89722376D01*
X89230861Y-89722375D01*
X89142621Y-89607379D01*
X89027625Y-89519139D01*
X89027624Y-89519138D01*
X89027622Y-89519137D01*
X88893712Y-89463671D01*
X88893710Y-89463670D01*
X88893709Y-89463670D01*
X88821854Y-89454210D01*
X88750001Y-89444750D01*
X88749999Y-89444750D01*
X88606291Y-89463670D01*
X88606287Y-89463671D01*
X88472377Y-89519137D01*
X88357379Y-89607379D01*
X88269137Y-89722377D01*
X88213671Y-89856287D01*
X88213670Y-89856291D01*
X88194750Y-90000000D01*
X77752675Y-90000000D01*
X77749661Y-89971969D01*
X77748085Y-89964723D01*
X77738457Y-89920465D01*
X77738456Y-89920464D01*
X77738455Y-89920458D01*
X77731219Y-89894084D01*
X77716698Y-89868583D01*
X77681894Y-89807463D01*
X77681888Y-89807454D01*
X77636136Y-89754653D01*
X77628647Y-89747427D01*
X77603359Y-89723025D01*
X77573260Y-89707280D01*
X77566522Y-89703755D01*
X77516244Y-89655238D01*
X77500000Y-89593881D01*
X77500000Y-88874000D01*
X77519685Y-88806961D01*
X77572489Y-88761206D01*
X77624000Y-88750000D01*
X132451416Y-88750000D01*
X132518455Y-88769685D01*
G37*
G04 #@! TD.AperFunction*
G04 #@! TD*
M02*
