G04 #@! TF.GenerationSoftware,KiCad,Pcbnew,7.0.9-7.0.9~ubuntu22.04.1*
G04 #@! TF.CreationDate,2023-11-24T17:50:00-08:00*
G04 #@! TF.ProjectId,pmod-level-conv-2,706d6f64-2d6c-4657-9665-6c2d636f6e76,rev?*
G04 #@! TF.SameCoordinates,Original*
G04 #@! TF.FileFunction,Copper,L4,Bot*
G04 #@! TF.FilePolarity,Positive*
%FSLAX46Y46*%
G04 Gerber Fmt 4.6, Leading zero omitted, Abs format (unit mm)*
G04 Created by KiCad (PCBNEW 7.0.9-7.0.9~ubuntu22.04.1) date 2023-11-24 17:50:00*
%MOMM*%
%LPD*%
G01*
G04 APERTURE LIST*
G04 Aperture macros list*
%AMRoundRect*
0 Rectangle with rounded corners*
0 $1 Rounding radius*
0 $2 $3 $4 $5 $6 $7 $8 $9 X,Y pos of 4 corners*
0 Add a 4 corners polygon primitive as box body*
4,1,4,$2,$3,$4,$5,$6,$7,$8,$9,$2,$3,0*
0 Add four circle primitives for the rounded corners*
1,1,$1+$1,$2,$3*
1,1,$1+$1,$4,$5*
1,1,$1+$1,$6,$7*
1,1,$1+$1,$8,$9*
0 Add four rect primitives between the rounded corners*
20,1,$1+$1,$2,$3,$4,$5,0*
20,1,$1+$1,$4,$5,$6,$7,0*
20,1,$1+$1,$6,$7,$8,$9,0*
20,1,$1+$1,$8,$9,$2,$3,0*%
G04 Aperture macros list end*
G04 #@! TA.AperFunction,ComponentPad*
%ADD10O,2.540000X1.700000*%
G04 #@! TD*
G04 #@! TA.AperFunction,ComponentPad*
%ADD11R,2.400000X1.600000*%
G04 #@! TD*
G04 #@! TA.AperFunction,ComponentPad*
%ADD12O,2.400000X1.600000*%
G04 #@! TD*
G04 #@! TA.AperFunction,SMDPad,CuDef*
%ADD13RoundRect,0.147500X-0.172500X0.147500X-0.172500X-0.147500X0.172500X-0.147500X0.172500X0.147500X0*%
G04 #@! TD*
G04 #@! TA.AperFunction,SMDPad,CuDef*
%ADD14RoundRect,0.150000X-0.512500X-0.150000X0.512500X-0.150000X0.512500X0.150000X-0.512500X0.150000X0*%
G04 #@! TD*
G04 #@! TA.AperFunction,SMDPad,CuDef*
%ADD15RoundRect,0.218750X-0.218750X-0.256250X0.218750X-0.256250X0.218750X0.256250X-0.218750X0.256250X0*%
G04 #@! TD*
G04 #@! TA.AperFunction,SMDPad,CuDef*
%ADD16RoundRect,0.218750X0.218750X0.256250X-0.218750X0.256250X-0.218750X-0.256250X0.218750X-0.256250X0*%
G04 #@! TD*
G04 #@! TA.AperFunction,SMDPad,CuDef*
%ADD17R,0.950000X3.000000*%
G04 #@! TD*
G04 #@! TA.AperFunction,SMDPad,CuDef*
%ADD18R,1.500000X2.500000*%
G04 #@! TD*
G04 #@! TA.AperFunction,SMDPad,CuDef*
%ADD19RoundRect,0.147500X0.147500X0.172500X-0.147500X0.172500X-0.147500X-0.172500X0.147500X-0.172500X0*%
G04 #@! TD*
G04 #@! TA.AperFunction,SMDPad,CuDef*
%ADD20RoundRect,0.147500X-0.147500X-0.172500X0.147500X-0.172500X0.147500X0.172500X-0.147500X0.172500X0*%
G04 #@! TD*
G04 #@! TA.AperFunction,SMDPad,CuDef*
%ADD21R,0.300000X1.750000*%
G04 #@! TD*
G04 #@! TA.AperFunction,ComponentPad*
%ADD22O,1.000000X2.100000*%
G04 #@! TD*
G04 #@! TA.AperFunction,ComponentPad*
%ADD23O,0.900000X2.100000*%
G04 #@! TD*
G04 #@! TA.AperFunction,ViaPad*
%ADD24C,0.600000*%
G04 #@! TD*
G04 #@! TA.AperFunction,Conductor*
%ADD25C,0.250000*%
G04 #@! TD*
G04 #@! TA.AperFunction,Conductor*
%ADD26C,0.200000*%
G04 #@! TD*
G04 APERTURE END LIST*
D10*
G04 #@! TO.P,J2,1,D0*
G04 #@! TO.N,/B1*
X127330000Y-93650000D03*
G04 #@! TO.P,J2,2,D1*
G04 #@! TO.N,/B2*
X127330000Y-96190000D03*
G04 #@! TO.P,J2,3,D2*
G04 #@! TO.N,/B3*
X127330000Y-98730000D03*
G04 #@! TO.P,J2,4,D3*
G04 #@! TO.N,/B4*
X127330000Y-101270000D03*
G04 #@! TO.P,J2,5,GND1*
G04 #@! TO.N,GND*
X127330000Y-103810000D03*
G04 #@! TO.P,J2,6,VCC1*
G04 #@! TO.N,VCC*
X127330000Y-106350000D03*
G04 #@! TO.P,J2,7,D4*
G04 #@! TO.N,/B5*
X130670000Y-93650000D03*
G04 #@! TO.P,J2,8,D5*
G04 #@! TO.N,/B6*
X130670000Y-96190000D03*
G04 #@! TO.P,J2,9,D6*
G04 #@! TO.N,/B7*
X130670000Y-98730000D03*
G04 #@! TO.P,J2,10,D7*
G04 #@! TO.N,/B8*
X130670000Y-101270000D03*
G04 #@! TO.P,J2,11,GND2*
G04 #@! TO.N,GND*
X130670000Y-103810000D03*
G04 #@! TO.P,J2,12,VCC2*
G04 #@! TO.N,VCC*
X130670000Y-106350000D03*
G04 #@! TD*
G04 #@! TO.P,J1,1,D0*
G04 #@! TO.N,/A1*
X55670000Y-93650000D03*
G04 #@! TO.P,J1,2,D1*
G04 #@! TO.N,/A2*
X55670000Y-96190000D03*
G04 #@! TO.P,J1,3,D2*
G04 #@! TO.N,/A3*
X55670000Y-98730000D03*
G04 #@! TO.P,J1,4,D3*
G04 #@! TO.N,/A4*
X55670000Y-101270000D03*
G04 #@! TO.P,J1,5,GND1*
G04 #@! TO.N,GND*
X55670000Y-103810000D03*
G04 #@! TO.P,J1,6,VCC1*
G04 #@! TO.N,+3.3V*
X55670000Y-106350000D03*
G04 #@! TO.P,J1,7,D4*
G04 #@! TO.N,/A5*
X52330000Y-93650000D03*
G04 #@! TO.P,J1,8,D5*
G04 #@! TO.N,/A6*
X52330000Y-96190000D03*
G04 #@! TO.P,J1,9,D6*
G04 #@! TO.N,/A7*
X52330000Y-98730000D03*
G04 #@! TO.P,J1,10,D7*
G04 #@! TO.N,/A8*
X52330000Y-101270000D03*
G04 #@! TO.P,J1,11,GND2*
G04 #@! TO.N,GND*
X52330000Y-103810000D03*
G04 #@! TO.P,J1,12,VCC2*
G04 #@! TO.N,+3.3V*
X52330000Y-106350000D03*
G04 #@! TD*
D11*
G04 #@! TO.P,SW1,1*
G04 #@! TO.N,+3.3V*
X73700000Y-91100000D03*
D12*
G04 #@! TO.P,SW1,2*
X73700000Y-93640000D03*
G04 #@! TO.P,SW1,3*
X73700000Y-96180000D03*
G04 #@! TO.P,SW1,4*
X73700000Y-98720000D03*
G04 #@! TO.P,SW1,5*
X73700000Y-101260000D03*
G04 #@! TO.P,SW1,6*
X73700000Y-103800000D03*
G04 #@! TO.P,SW1,7*
X73700000Y-106340000D03*
G04 #@! TO.P,SW1,8*
X73700000Y-108880000D03*
G04 #@! TO.P,SW1,9*
G04 #@! TO.N,/DIR8*
X81320000Y-108880000D03*
G04 #@! TO.P,SW1,10*
G04 #@! TO.N,/DIR7*
X81320000Y-106340000D03*
G04 #@! TO.P,SW1,11*
G04 #@! TO.N,/DIR6*
X81320000Y-103800000D03*
G04 #@! TO.P,SW1,12*
G04 #@! TO.N,/DIR5*
X81320000Y-101260000D03*
G04 #@! TO.P,SW1,13*
G04 #@! TO.N,/DIR4*
X81320000Y-98720000D03*
G04 #@! TO.P,SW1,14*
G04 #@! TO.N,/DIR3*
X81320000Y-96180000D03*
G04 #@! TO.P,SW1,15*
G04 #@! TO.N,/DIR2*
X81320000Y-93640000D03*
G04 #@! TO.P,SW1,16*
G04 #@! TO.N,/DIR1*
X81320000Y-91100000D03*
G04 #@! TD*
D13*
G04 #@! TO.P,R7,1*
G04 #@! TO.N,VCC*
X64000000Y-101015000D03*
G04 #@! TO.P,R7,2*
G04 #@! TO.N,/B3*
X64000000Y-101985000D03*
G04 #@! TD*
D14*
G04 #@! TO.P,U6,1,VCCA*
G04 #@! TO.N,+3.3V*
X66862500Y-97950000D03*
G04 #@! TO.P,U6,2,GND*
G04 #@! TO.N,GND*
X66862500Y-97000000D03*
G04 #@! TO.P,U6,3,A*
G04 #@! TO.N,/A6*
X66862500Y-96050000D03*
G04 #@! TO.P,U6,4,B*
G04 #@! TO.N,/B6*
X69137500Y-96050000D03*
G04 #@! TO.P,U6,5,DIR*
G04 #@! TO.N,/DIR6*
X69137500Y-97000000D03*
G04 #@! TO.P,U6,6,VCCB*
G04 #@! TO.N,VCC*
X69137500Y-97950000D03*
G04 #@! TD*
G04 #@! TO.P,U2,1,VCCA*
G04 #@! TO.N,+3.3V*
X59862500Y-97950000D03*
G04 #@! TO.P,U2,2,GND*
G04 #@! TO.N,GND*
X59862500Y-97000000D03*
G04 #@! TO.P,U2,3,A*
G04 #@! TO.N,/A2*
X59862500Y-96050000D03*
G04 #@! TO.P,U2,4,B*
G04 #@! TO.N,/B2*
X62137500Y-96050000D03*
G04 #@! TO.P,U2,5,DIR*
G04 #@! TO.N,/DIR2*
X62137500Y-97000000D03*
G04 #@! TO.P,U2,6,VCCB*
G04 #@! TO.N,VCC*
X62137500Y-97950000D03*
G04 #@! TD*
D15*
G04 #@! TO.P,C20,1*
G04 #@! TO.N,GND*
X94712500Y-101500000D03*
G04 #@! TO.P,C20,2*
G04 #@! TO.N,VCC*
X96287500Y-101500000D03*
G04 #@! TD*
D13*
G04 #@! TO.P,R19,1*
G04 #@! TO.N,VCC*
X71000000Y-101015000D03*
G04 #@! TO.P,R19,2*
G04 #@! TO.N,/B7*
X71000000Y-101985000D03*
G04 #@! TD*
D16*
G04 #@! TO.P,C23,1*
G04 #@! TO.N,GND*
X111787500Y-98500000D03*
G04 #@! TO.P,C23,2*
G04 #@! TO.N,VCC*
X110212500Y-98500000D03*
G04 #@! TD*
D15*
G04 #@! TO.P,C26,1*
G04 #@! TO.N,VCC*
X128212500Y-108500000D03*
G04 #@! TO.P,C26,2*
G04 #@! TO.N,GND*
X129787500Y-108500000D03*
G04 #@! TD*
D13*
G04 #@! TO.P,R16,1*
G04 #@! TO.N,VCC*
X71000000Y-96015000D03*
G04 #@! TO.P,R16,2*
G04 #@! TO.N,/B6*
X71000000Y-96985000D03*
G04 #@! TD*
D14*
G04 #@! TO.P,U1,1,VCCA*
G04 #@! TO.N,+3.3V*
X59862500Y-92950000D03*
G04 #@! TO.P,U1,2,GND*
G04 #@! TO.N,GND*
X59862500Y-92000000D03*
G04 #@! TO.P,U1,3,A*
G04 #@! TO.N,/A1*
X59862500Y-91050000D03*
G04 #@! TO.P,U1,4,B*
G04 #@! TO.N,/B1*
X62137500Y-91050000D03*
G04 #@! TO.P,U1,5,DIR*
G04 #@! TO.N,/DIR1*
X62137500Y-92000000D03*
G04 #@! TO.P,U1,6,VCCB*
G04 #@! TO.N,VCC*
X62137500Y-92950000D03*
G04 #@! TD*
D17*
G04 #@! TO.P,J3,1,Pin_1*
G04 #@! TO.N,GND*
X90500000Y-104133300D03*
G04 #@! TO.P,J3,2,Pin_2*
G04 #@! TO.N,/B1*
X89000000Y-104133300D03*
G04 #@! TO.P,J3,3,Pin_3*
G04 #@! TO.N,VCC*
X87500001Y-104133300D03*
D18*
G04 #@! TO.P,J3,NC*
G04 #@! TO.N,N/C*
X92500000Y-108033300D03*
X85500000Y-108033300D03*
G04 #@! TD*
D19*
G04 #@! TO.P,C16,1*
G04 #@! TO.N,VCC*
X69485000Y-109500000D03*
G04 #@! TO.P,C16,2*
G04 #@! TO.N,GND*
X68515000Y-109500000D03*
G04 #@! TD*
G04 #@! TO.P,C4,1*
G04 #@! TO.N,VCC*
X62485000Y-99500000D03*
G04 #@! TO.P,C4,2*
G04 #@! TO.N,GND*
X61515000Y-99500000D03*
G04 #@! TD*
D13*
G04 #@! TO.P,R23,1*
G04 #@! TO.N,/A8*
X65000000Y-106015000D03*
G04 #@! TO.P,R23,2*
G04 #@! TO.N,GND*
X65000000Y-106985000D03*
G04 #@! TD*
D19*
G04 #@! TO.P,C8,1*
G04 #@! TO.N,VCC*
X62485000Y-109500000D03*
G04 #@! TO.P,C8,2*
G04 #@! TO.N,GND*
X61515000Y-109500000D03*
G04 #@! TD*
D20*
G04 #@! TO.P,C7,1*
G04 #@! TO.N,+3.3V*
X59515000Y-109500000D03*
G04 #@! TO.P,C7,2*
G04 #@! TO.N,GND*
X60485000Y-109500000D03*
G04 #@! TD*
D13*
G04 #@! TO.P,R17,1*
G04 #@! TO.N,/A6*
X65000000Y-96015000D03*
G04 #@! TO.P,R17,2*
G04 #@! TO.N,GND*
X65000000Y-96985000D03*
G04 #@! TD*
D20*
G04 #@! TO.P,C5,1*
G04 #@! TO.N,+3.3V*
X59515000Y-104500000D03*
G04 #@! TO.P,C5,2*
G04 #@! TO.N,GND*
X60485000Y-104500000D03*
G04 #@! TD*
D13*
G04 #@! TO.P,R2,1*
G04 #@! TO.N,VCC*
X64000000Y-91015000D03*
G04 #@! TO.P,R2,2*
G04 #@! TO.N,/B1*
X64000000Y-91985000D03*
G04 #@! TD*
G04 #@! TO.P,R20,1*
G04 #@! TO.N,/A7*
X65000000Y-101015000D03*
G04 #@! TO.P,R20,2*
G04 #@! TO.N,GND*
X65000000Y-101985000D03*
G04 #@! TD*
G04 #@! TO.P,R1,1*
G04 #@! TO.N,/A1*
X58000000Y-91015000D03*
G04 #@! TO.P,R1,2*
G04 #@! TO.N,GND*
X58000000Y-91985000D03*
G04 #@! TD*
G04 #@! TO.P,R15,1*
G04 #@! TO.N,/DIR5*
X71000000Y-93015000D03*
G04 #@! TO.P,R15,2*
G04 #@! TO.N,GND*
X71000000Y-93985000D03*
G04 #@! TD*
G04 #@! TO.P,R22,1*
G04 #@! TO.N,VCC*
X71000000Y-106015000D03*
G04 #@! TO.P,R22,2*
G04 #@! TO.N,/B8*
X71000000Y-106985000D03*
G04 #@! TD*
D14*
G04 #@! TO.P,U8,1,VCCA*
G04 #@! TO.N,+3.3V*
X66916190Y-107950000D03*
G04 #@! TO.P,U8,2,GND*
G04 #@! TO.N,GND*
X66916190Y-107000000D03*
G04 #@! TO.P,U8,3,A*
G04 #@! TO.N,/A8*
X66916190Y-106050000D03*
G04 #@! TO.P,U8,4,B*
G04 #@! TO.N,/B8*
X69191190Y-106050000D03*
G04 #@! TO.P,U8,5,DIR*
G04 #@! TO.N,/DIR8*
X69191190Y-107000000D03*
G04 #@! TO.P,U8,6,VCCB*
G04 #@! TO.N,VCC*
X69191190Y-107950000D03*
G04 #@! TD*
D13*
G04 #@! TO.P,R21,1*
G04 #@! TO.N,/DIR7*
X71000000Y-103015000D03*
G04 #@! TO.P,R21,2*
G04 #@! TO.N,GND*
X71000000Y-103985000D03*
G04 #@! TD*
D20*
G04 #@! TO.P,C9,1*
G04 #@! TO.N,+3.3V*
X66515000Y-94500000D03*
G04 #@! TO.P,C9,2*
G04 #@! TO.N,GND*
X67485000Y-94500000D03*
G04 #@! TD*
D19*
G04 #@! TO.P,C2,1*
G04 #@! TO.N,VCC*
X62485000Y-94500000D03*
G04 #@! TO.P,C2,2*
G04 #@! TO.N,GND*
X61515000Y-94500000D03*
G04 #@! TD*
G04 #@! TO.P,C14,1*
G04 #@! TO.N,VCC*
X69485000Y-104500000D03*
G04 #@! TO.P,C14,2*
G04 #@! TO.N,GND*
X68515000Y-104500000D03*
G04 #@! TD*
D20*
G04 #@! TO.P,R26,1*
G04 #@! TO.N,Net-(J9-CC2)*
X127015000Y-90000000D03*
G04 #@! TO.P,R26,2*
G04 #@! TO.N,GND*
X127985000Y-90000000D03*
G04 #@! TD*
D13*
G04 #@! TO.P,R14,1*
G04 #@! TO.N,/A5*
X65000000Y-91015000D03*
G04 #@! TO.P,R14,2*
G04 #@! TO.N,GND*
X65000000Y-91985000D03*
G04 #@! TD*
D14*
G04 #@! TO.P,U3,1,VCCA*
G04 #@! TO.N,+3.3V*
X59862500Y-102950000D03*
G04 #@! TO.P,U3,2,GND*
G04 #@! TO.N,GND*
X59862500Y-102000000D03*
G04 #@! TO.P,U3,3,A*
G04 #@! TO.N,/A3*
X59862500Y-101050000D03*
G04 #@! TO.P,U3,4,B*
G04 #@! TO.N,/B3*
X62137500Y-101050000D03*
G04 #@! TO.P,U3,5,DIR*
G04 #@! TO.N,/DIR3*
X62137500Y-102000000D03*
G04 #@! TO.P,U3,6,VCCB*
G04 #@! TO.N,VCC*
X62137500Y-102950000D03*
G04 #@! TD*
D20*
G04 #@! TO.P,C3,1*
G04 #@! TO.N,+3.3V*
X59515000Y-99500000D03*
G04 #@! TO.P,C3,2*
G04 #@! TO.N,GND*
X60485000Y-99500000D03*
G04 #@! TD*
D21*
G04 #@! TO.P,J9,A1,GND*
G04 #@! TO.N,GND*
X115150000Y-96150000D03*
G04 #@! TO.P,J9,A4,VBUS*
G04 #@! TO.N,VCC*
X115950000Y-96150000D03*
G04 #@! TO.P,J9,A5,CC1*
G04 #@! TO.N,Net-(J9-CC1)*
X117250000Y-96150000D03*
G04 #@! TO.P,J9,A6,D+*
G04 #@! TO.N,unconnected-(J9-D+-PadA6)*
X118250000Y-96150000D03*
G04 #@! TO.P,J9,A7,D-*
G04 #@! TO.N,unconnected-(J9-D--PadA7)*
X118750000Y-96150000D03*
G04 #@! TO.P,J9,A8,SBU1*
G04 #@! TO.N,unconnected-(J9-SBU1-PadA8)*
X119750000Y-96150000D03*
G04 #@! TO.P,J9,A9,VBUS*
G04 #@! TO.N,VCC*
X121050000Y-96150000D03*
G04 #@! TO.P,J9,A12,GND*
G04 #@! TO.N,GND*
X121850000Y-96150000D03*
G04 #@! TO.P,J9,B1,GND*
X121550000Y-96150000D03*
G04 #@! TO.P,J9,B4,VBUS*
G04 #@! TO.N,VCC*
X120750000Y-96150000D03*
G04 #@! TO.P,J9,B5,CC2*
G04 #@! TO.N,Net-(J9-CC2)*
X120250000Y-96150000D03*
G04 #@! TO.P,J9,B6,D+*
G04 #@! TO.N,unconnected-(J9-D+-PadB6)*
X119250000Y-96150000D03*
G04 #@! TO.P,J9,B7,D-*
G04 #@! TO.N,unconnected-(J9-D--PadB7)*
X117750000Y-96150000D03*
G04 #@! TO.P,J9,B8,SBU2*
G04 #@! TO.N,unconnected-(J9-SBU2-PadB8)*
X116750000Y-96150000D03*
G04 #@! TO.P,J9,B9,VBUS*
G04 #@! TO.N,VCC*
X116250000Y-96150000D03*
G04 #@! TO.P,J9,B12,GND*
G04 #@! TO.N,GND*
X115450000Y-96150000D03*
D22*
G04 #@! TO.P,J9,S1,SHIELD*
X114180000Y-91130000D03*
D23*
X114180000Y-95310000D03*
D22*
X122820000Y-91130000D03*
D23*
X122820000Y-95310000D03*
G04 #@! TD*
D13*
G04 #@! TO.P,R12,1*
G04 #@! TO.N,/DIR4*
X64000000Y-108015000D03*
G04 #@! TO.P,R12,2*
G04 #@! TO.N,GND*
X64000000Y-108985000D03*
G04 #@! TD*
D19*
G04 #@! TO.P,C12,1*
G04 #@! TO.N,VCC*
X69485000Y-99500000D03*
G04 #@! TO.P,C12,2*
G04 #@! TO.N,GND*
X68515000Y-99500000D03*
G04 #@! TD*
D17*
G04 #@! TO.P,J7,1,Pin_1*
G04 #@! TO.N,GND*
X110250000Y-104133300D03*
G04 #@! TO.P,J7,2,Pin_2*
G04 #@! TO.N,/B5*
X108750000Y-104133300D03*
G04 #@! TO.P,J7,3,Pin_3*
G04 #@! TO.N,/B6*
X107250001Y-104133300D03*
G04 #@! TO.P,J7,4,Pin_4*
G04 #@! TO.N,VCC*
X105750001Y-104133300D03*
D18*
G04 #@! TO.P,J7,NC*
G04 #@! TO.N,N/C*
X112250000Y-108033300D03*
X103750000Y-108033300D03*
G04 #@! TD*
D19*
G04 #@! TO.P,C6,1*
G04 #@! TO.N,VCC*
X62485000Y-104500000D03*
G04 #@! TO.P,C6,2*
G04 #@! TO.N,GND*
X61515000Y-104500000D03*
G04 #@! TD*
D20*
G04 #@! TO.P,C13,1*
G04 #@! TO.N,+3.3V*
X66515000Y-104500000D03*
G04 #@! TO.P,C13,2*
G04 #@! TO.N,GND*
X67485000Y-104500000D03*
G04 #@! TD*
D15*
G04 #@! TO.P,C22,1*
G04 #@! TO.N,GND*
X104212500Y-101500000D03*
G04 #@! TO.P,C22,2*
G04 #@! TO.N,VCC*
X105787500Y-101500000D03*
G04 #@! TD*
D16*
G04 #@! TO.P,C21,1*
G04 #@! TO.N,GND*
X101287500Y-98500000D03*
G04 #@! TO.P,C21,2*
G04 #@! TO.N,VCC*
X99712500Y-98500000D03*
G04 #@! TD*
D19*
G04 #@! TO.P,C10,1*
G04 #@! TO.N,VCC*
X69485000Y-94500000D03*
G04 #@! TO.P,C10,2*
G04 #@! TO.N,GND*
X68515000Y-94500000D03*
G04 #@! TD*
D17*
G04 #@! TO.P,J10,1*
G04 #@! TO.N,GND*
X118250000Y-104133300D03*
G04 #@! TO.P,J10,2*
G04 #@! TO.N,VCC*
X116750000Y-104133300D03*
D18*
G04 #@! TO.P,J10,NC*
G04 #@! TO.N,N/C*
X120250000Y-108033300D03*
X114750000Y-108033300D03*
G04 #@! TD*
D14*
G04 #@! TO.P,U4,1,VCCA*
G04 #@! TO.N,+3.3V*
X59862500Y-107950000D03*
G04 #@! TO.P,U4,2,GND*
G04 #@! TO.N,GND*
X59862500Y-107000000D03*
G04 #@! TO.P,U4,3,A*
G04 #@! TO.N,/A4*
X59862500Y-106050000D03*
G04 #@! TO.P,U4,4,B*
G04 #@! TO.N,/B4*
X62137500Y-106050000D03*
G04 #@! TO.P,U4,5,DIR*
G04 #@! TO.N,/DIR4*
X62137500Y-107000000D03*
G04 #@! TO.P,U4,6,VCCB*
G04 #@! TO.N,VCC*
X62137500Y-107950000D03*
G04 #@! TD*
D13*
G04 #@! TO.P,R8,1*
G04 #@! TO.N,/A3*
X58000000Y-101015000D03*
G04 #@! TO.P,R8,2*
G04 #@! TO.N,GND*
X58000000Y-101985000D03*
G04 #@! TD*
D20*
G04 #@! TO.P,C1,1*
G04 #@! TO.N,+3.3V*
X59515000Y-94500000D03*
G04 #@! TO.P,C1,2*
G04 #@! TO.N,GND*
X60485000Y-94500000D03*
G04 #@! TD*
G04 #@! TO.P,C15,1*
G04 #@! TO.N,+3.3V*
X66515000Y-109500000D03*
G04 #@! TO.P,C15,2*
G04 #@! TO.N,GND*
X67485000Y-109500000D03*
G04 #@! TD*
D17*
G04 #@! TO.P,J6,1,Pin_1*
G04 #@! TO.N,GND*
X96500000Y-95866700D03*
G04 #@! TO.P,J6,2,Pin_2*
G04 #@! TO.N,/B4*
X98000000Y-95866700D03*
G04 #@! TO.P,J6,3,Pin_3*
G04 #@! TO.N,VCC*
X99499999Y-95866700D03*
D18*
G04 #@! TO.P,J6,NC*
G04 #@! TO.N,N/C*
X94500000Y-91966700D03*
X101500000Y-91966700D03*
G04 #@! TD*
D13*
G04 #@! TO.P,R10,1*
G04 #@! TO.N,VCC*
X64000000Y-106015000D03*
G04 #@! TO.P,R10,2*
G04 #@! TO.N,/B4*
X64000000Y-106985000D03*
G04 #@! TD*
D14*
G04 #@! TO.P,U7,1,VCCA*
G04 #@! TO.N,+3.3V*
X66862500Y-102950000D03*
G04 #@! TO.P,U7,2,GND*
G04 #@! TO.N,GND*
X66862500Y-102000000D03*
G04 #@! TO.P,U7,3,A*
G04 #@! TO.N,/A7*
X66862500Y-101050000D03*
G04 #@! TO.P,U7,4,B*
G04 #@! TO.N,/B7*
X69137500Y-101050000D03*
G04 #@! TO.P,U7,5,DIR*
G04 #@! TO.N,/DIR7*
X69137500Y-102000000D03*
G04 #@! TO.P,U7,6,VCCB*
G04 #@! TO.N,VCC*
X69137500Y-102950000D03*
G04 #@! TD*
D13*
G04 #@! TO.P,R4,1*
G04 #@! TO.N,VCC*
X64000000Y-96015000D03*
G04 #@! TO.P,R4,2*
G04 #@! TO.N,/B2*
X64000000Y-96985000D03*
G04 #@! TD*
G04 #@! TO.P,R18,1*
G04 #@! TO.N,/DIR6*
X71000000Y-98015000D03*
G04 #@! TO.P,R18,2*
G04 #@! TO.N,GND*
X71000000Y-98985000D03*
G04 #@! TD*
G04 #@! TO.P,R11,1*
G04 #@! TO.N,/A4*
X58000000Y-106015000D03*
G04 #@! TO.P,R11,2*
G04 #@! TO.N,GND*
X58000000Y-106985000D03*
G04 #@! TD*
G04 #@! TO.P,R3,1*
G04 #@! TO.N,/DIR1*
X64000000Y-93015000D03*
G04 #@! TO.P,R3,2*
G04 #@! TO.N,GND*
X64000000Y-93985000D03*
G04 #@! TD*
D17*
G04 #@! TO.P,J4,1,Pin_1*
G04 #@! TO.N,GND*
X87500000Y-95866700D03*
G04 #@! TO.P,J4,2,Pin_2*
G04 #@! TO.N,/B2*
X89000000Y-95866700D03*
G04 #@! TO.P,J4,3,Pin_3*
G04 #@! TO.N,VCC*
X90499999Y-95866700D03*
D18*
G04 #@! TO.P,J4,NC*
G04 #@! TO.N,N/C*
X85500000Y-91966700D03*
X92500000Y-91966700D03*
G04 #@! TD*
D13*
G04 #@! TO.P,R6,1*
G04 #@! TO.N,/DIR2*
X64000000Y-98015000D03*
G04 #@! TO.P,R6,2*
G04 #@! TO.N,GND*
X64000000Y-98985000D03*
G04 #@! TD*
G04 #@! TO.P,R13,1*
G04 #@! TO.N,VCC*
X71000000Y-91015000D03*
G04 #@! TO.P,R13,2*
G04 #@! TO.N,/B5*
X71000000Y-91985000D03*
G04 #@! TD*
D17*
G04 #@! TO.P,J5,1,Pin_1*
G04 #@! TO.N,GND*
X99500000Y-104133300D03*
G04 #@! TO.P,J5,2,Pin_2*
G04 #@! TO.N,/B3*
X98000000Y-104133300D03*
G04 #@! TO.P,J5,3,Pin_3*
G04 #@! TO.N,VCC*
X96500001Y-104133300D03*
D18*
G04 #@! TO.P,J5,NC*
G04 #@! TO.N,N/C*
X101500000Y-108033300D03*
X94500000Y-108033300D03*
G04 #@! TD*
D16*
G04 #@! TO.P,C19,1*
G04 #@! TO.N,GND*
X92287500Y-98500000D03*
G04 #@! TO.P,C19,2*
G04 #@! TO.N,VCC*
X90712500Y-98500000D03*
G04 #@! TD*
D15*
G04 #@! TO.P,C18,1*
G04 #@! TO.N,GND*
X85712500Y-101500000D03*
G04 #@! TO.P,C18,2*
G04 #@! TO.N,VCC*
X87287500Y-101500000D03*
G04 #@! TD*
G04 #@! TO.P,C17,1*
G04 #@! TO.N,VCC*
X121212500Y-98500000D03*
G04 #@! TO.P,C17,2*
G04 #@! TO.N,GND*
X122787500Y-98500000D03*
G04 #@! TD*
D20*
G04 #@! TO.P,C11,1*
G04 #@! TO.N,+3.3V*
X66515000Y-99500000D03*
G04 #@! TO.P,C11,2*
G04 #@! TO.N,GND*
X67485000Y-99500000D03*
G04 #@! TD*
D14*
G04 #@! TO.P,U5,1,VCCA*
G04 #@! TO.N,+3.3V*
X66862500Y-92950000D03*
G04 #@! TO.P,U5,2,GND*
G04 #@! TO.N,GND*
X66862500Y-92000000D03*
G04 #@! TO.P,U5,3,A*
G04 #@! TO.N,/A5*
X66862500Y-91050000D03*
G04 #@! TO.P,U5,4,B*
G04 #@! TO.N,/B5*
X69137500Y-91050000D03*
G04 #@! TO.P,U5,5,DIR*
G04 #@! TO.N,/DIR5*
X69137500Y-92000000D03*
G04 #@! TO.P,U5,6,VCCB*
G04 #@! TO.N,VCC*
X69137500Y-92950000D03*
G04 #@! TD*
D13*
G04 #@! TO.P,R5,1*
G04 #@! TO.N,/A2*
X58000000Y-96015000D03*
G04 #@! TO.P,R5,2*
G04 #@! TO.N,GND*
X58000000Y-96985000D03*
G04 #@! TD*
D20*
G04 #@! TO.P,R25,1*
G04 #@! TO.N,Net-(J9-CC1)*
X125015000Y-90010000D03*
G04 #@! TO.P,R25,2*
G04 #@! TO.N,GND*
X125985000Y-90010000D03*
G04 #@! TD*
D13*
G04 #@! TO.P,R24,1*
G04 #@! TO.N,/DIR8*
X71000000Y-108015000D03*
G04 #@! TO.P,R24,2*
G04 #@! TO.N,GND*
X71000000Y-108985000D03*
G04 #@! TD*
D17*
G04 #@! TO.P,J8,1,Pin_1*
G04 #@! TO.N,GND*
X105750000Y-95866700D03*
G04 #@! TO.P,J8,2,Pin_2*
G04 #@! TO.N,/B7*
X107250000Y-95866700D03*
G04 #@! TO.P,J8,3,Pin_3*
G04 #@! TO.N,/B8*
X108749999Y-95866700D03*
G04 #@! TO.P,J8,4,Pin_4*
G04 #@! TO.N,VCC*
X110249999Y-95866700D03*
D18*
G04 #@! TO.P,J8,NC*
G04 #@! TO.N,N/C*
X103750000Y-91966700D03*
X112250000Y-91966700D03*
G04 #@! TD*
D16*
G04 #@! TO.P,C25,1*
G04 #@! TO.N,+3.3V*
X55787500Y-109000000D03*
G04 #@! TO.P,C25,2*
G04 #@! TO.N,GND*
X54212500Y-109000000D03*
G04 #@! TD*
D13*
G04 #@! TO.P,R9,1*
G04 #@! TO.N,/DIR3*
X64000000Y-103015000D03*
G04 #@! TO.P,R9,2*
G04 #@! TO.N,GND*
X64000000Y-103985000D03*
G04 #@! TD*
D15*
G04 #@! TO.P,C24,1*
G04 #@! TO.N,VCC*
X116712500Y-101500000D03*
G04 #@! TO.P,C24,2*
G04 #@! TO.N,GND*
X118287500Y-101500000D03*
G04 #@! TD*
D24*
G04 #@! TO.N,+3.3V*
X58500000Y-109500000D03*
X67000000Y-105250000D03*
X58750000Y-94500000D03*
X66750000Y-110000000D03*
X65750000Y-94500000D03*
X58750000Y-104750000D03*
X57000000Y-109000000D03*
X65750000Y-99500000D03*
X58750000Y-98000000D03*
G04 #@! TO.N,GND*
X71905483Y-93757998D03*
X85750000Y-102500000D03*
X68000000Y-93750000D03*
X90500000Y-102000000D03*
X99500000Y-102000000D03*
X101250000Y-99750000D03*
X70500000Y-99500000D03*
X58750000Y-92000000D03*
X61000000Y-93750000D03*
X63250000Y-110250000D03*
X58750000Y-107000000D03*
X64842724Y-99433533D03*
X129000000Y-90000000D03*
X65750000Y-97000000D03*
X110250000Y-102000000D03*
X103000000Y-101500000D03*
X65750000Y-92000000D03*
X68000000Y-103750000D03*
X61000000Y-103750000D03*
X61000000Y-108750000D03*
X105750000Y-93750000D03*
X122000000Y-97500000D03*
X64750000Y-104750000D03*
X113000000Y-98500000D03*
X64750000Y-94500000D03*
X71000000Y-105000000D03*
X68000000Y-98750000D03*
X68000000Y-108750000D03*
X53000000Y-109000000D03*
X65750000Y-107250000D03*
X93500000Y-101500000D03*
X92250000Y-99750000D03*
X65748191Y-102099830D03*
X58750000Y-97000000D03*
X129000000Y-109500000D03*
X58750000Y-102000000D03*
X115250000Y-97500000D03*
X118250000Y-100250000D03*
X61000000Y-98750000D03*
X96500000Y-98000000D03*
X87500000Y-97750000D03*
G04 #@! TO.N,VCC*
X69485000Y-93750000D03*
X121000000Y-97500000D03*
X126750000Y-108500000D03*
X116750000Y-100250000D03*
X70750000Y-95250000D03*
X110250000Y-93750000D03*
X69485000Y-98750000D03*
X70333271Y-90083271D03*
X116250000Y-97500000D03*
X62485000Y-108750000D03*
X62485000Y-93750000D03*
X87500000Y-106750000D03*
X96250000Y-100250000D03*
X78551870Y-102325000D03*
X63500000Y-95500000D03*
X62485000Y-98750000D03*
X106000000Y-100500000D03*
X62485000Y-103750000D03*
X63750000Y-100250000D03*
X99500000Y-93750000D03*
X90500000Y-93750000D03*
X87750000Y-100500000D03*
X69485000Y-103750000D03*
X69485000Y-108750000D03*
G04 #@! TO.N,/A5*
X65767219Y-90984570D03*
G04 #@! TO.N,/A6*
X65767219Y-95984570D03*
G04 #@! TO.N,/A7*
X65767219Y-101050000D03*
G04 #@! TO.N,/A8*
X65750000Y-106050000D03*
G04 #@! TO.N,/B1*
X88750000Y-90000000D03*
X88750000Y-92250000D03*
X99000000Y-106500000D03*
X89000000Y-107000000D03*
G04 #@! TO.N,/B2*
X90500000Y-91750000D03*
X82831373Y-99843839D03*
X89000000Y-98500000D03*
G04 #@! TO.N,/B3*
X78000000Y-103750000D03*
X98000000Y-106000000D03*
X83500000Y-105750000D03*
X77500000Y-101000000D03*
G04 #@! TO.N,/B4*
X65250000Y-109525000D03*
X63152812Y-105175000D03*
X98000000Y-93500000D03*
G04 #@! TO.N,/B5*
X71778592Y-90301782D03*
X108750000Y-106000000D03*
X108500000Y-109500000D03*
G04 #@! TO.N,/B6*
X71888477Y-95384163D03*
X107250000Y-106000000D03*
X107250000Y-109750000D03*
G04 #@! TO.N,/B7*
X107250000Y-90750000D03*
G04 #@! TO.N,/B8*
X108750000Y-93750000D03*
G04 #@! TO.N,/DIR1*
X64750000Y-92975000D03*
G04 #@! TO.N,/DIR2*
X64750000Y-97975000D03*
G04 #@! TO.N,/DIR3*
X64750000Y-102975000D03*
G04 #@! TO.N,/DIR4*
X64750000Y-107975000D03*
G04 #@! TO.N,/DIR6*
X71870944Y-98450086D03*
X84274683Y-94979275D03*
G04 #@! TO.N,/DIR7*
X72000000Y-105250000D03*
X78500000Y-105500000D03*
G04 #@! TO.N,/DIR8*
X71908720Y-108473318D03*
G04 #@! TD*
D25*
G04 #@! TO.N,+3.3V*
X59862500Y-97950000D02*
X59515000Y-98297500D01*
X59862500Y-92950000D02*
X59515000Y-93297500D01*
X59515000Y-93297500D02*
X59515000Y-94500000D01*
X66515000Y-98297500D02*
X66515000Y-99500000D01*
X66515000Y-109500000D02*
X66515000Y-109765000D01*
X66862500Y-92950000D02*
X66515000Y-93297500D01*
X59515000Y-109500000D02*
X58500000Y-109500000D01*
X66862500Y-102950000D02*
X66515000Y-103297500D01*
X59000000Y-104500000D02*
X58750000Y-104750000D01*
X66916190Y-107950000D02*
X66515000Y-108351190D01*
X59862500Y-97950000D02*
X58800000Y-97950000D01*
X59862500Y-107950000D02*
X59515000Y-108297500D01*
X66515000Y-94500000D02*
X65750000Y-94500000D01*
X66862500Y-97950000D02*
X66515000Y-98297500D01*
X66515000Y-103297500D02*
X66515000Y-104500000D01*
X66515000Y-104765000D02*
X67000000Y-105250000D01*
X66515000Y-109765000D02*
X66750000Y-110000000D01*
X66515000Y-104500000D02*
X66515000Y-104765000D01*
X59515000Y-98297500D02*
X59515000Y-99500000D01*
X59515000Y-94500000D02*
X58750000Y-94500000D01*
X59862500Y-102950000D02*
X59515000Y-103297500D01*
X58800000Y-97950000D02*
X58750000Y-98000000D01*
X59515000Y-108297500D02*
X59515000Y-109500000D01*
X66515000Y-108351190D02*
X66515000Y-109500000D01*
X59515000Y-104500000D02*
X59000000Y-104500000D01*
X59515000Y-103297500D02*
X59515000Y-104500000D01*
X66515000Y-93297500D02*
X66515000Y-94500000D01*
X55787500Y-109000000D02*
X57000000Y-109000000D01*
X66515000Y-99500000D02*
X65750000Y-99500000D01*
D26*
G04 #@! TO.N,GND*
X121850000Y-97350000D02*
X122000000Y-97500000D01*
D25*
X67485000Y-94500000D02*
X67485000Y-94265000D01*
X68840001Y-110145000D02*
X68515000Y-109819999D01*
X65735000Y-96985000D02*
X65750000Y-97000000D01*
X58750000Y-102000000D02*
X59862500Y-102000000D01*
X65000000Y-106985000D02*
X65485000Y-106985000D01*
X111787500Y-98500000D02*
X113000000Y-98500000D01*
X90500000Y-104133300D02*
X90500000Y-102000000D01*
X61515000Y-99265000D02*
X61000000Y-98750000D01*
X105750000Y-95866700D02*
X105750000Y-93750000D01*
X71000000Y-99000000D02*
X70500000Y-99500000D01*
X58750000Y-92000000D02*
X59862500Y-92000000D01*
X68515000Y-94265000D02*
X68000000Y-93750000D01*
X66862500Y-102000000D02*
X65848021Y-102000000D01*
X61515000Y-99500000D02*
X61515000Y-99265000D01*
X85712500Y-102462500D02*
X85750000Y-102500000D01*
X87500000Y-95866700D02*
X87500000Y-97750000D01*
X65000000Y-96985000D02*
X65735000Y-96985000D01*
X60485000Y-94265000D02*
X61000000Y-93750000D01*
X71000000Y-103985000D02*
X71000000Y-105000000D01*
X58735000Y-101985000D02*
X58750000Y-102000000D01*
X92287500Y-98500000D02*
X92287500Y-99712500D01*
X64235000Y-93985000D02*
X64750000Y-94500000D01*
X61515000Y-104500000D02*
X61515000Y-104265000D01*
X58000000Y-96985000D02*
X58735000Y-96985000D01*
X127985000Y-90000000D02*
X129000000Y-90000000D01*
X65485000Y-106985000D02*
X65750000Y-107250000D01*
X60485000Y-109265000D02*
X61000000Y-108750000D01*
X69840000Y-110145000D02*
X68840001Y-110145000D01*
X65750000Y-97000000D02*
X66862500Y-97000000D01*
X64000000Y-109500000D02*
X63250000Y-110250000D01*
X60485000Y-99500000D02*
X60485000Y-99265000D01*
X101287500Y-98500000D02*
X101287500Y-99712500D01*
X129787500Y-108712500D02*
X129000000Y-109500000D01*
X125985000Y-90010000D02*
X126640000Y-89355000D01*
X60485000Y-94500000D02*
X60485000Y-94265000D01*
X60485000Y-99265000D02*
X61000000Y-98750000D01*
X58735000Y-96985000D02*
X58750000Y-97000000D01*
X68515000Y-94500000D02*
X68515000Y-94265000D01*
D26*
X115450000Y-97300000D02*
X115250000Y-97500000D01*
D25*
X127985000Y-89680001D02*
X127985000Y-90000000D01*
X68515000Y-99265000D02*
X68000000Y-98750000D01*
X64000000Y-108985000D02*
X64000000Y-109500000D01*
X71000000Y-93985000D02*
X71678481Y-93985000D01*
X61515000Y-109500000D02*
X61515000Y-109265000D01*
X58000000Y-106985000D02*
X58735000Y-106985000D01*
X110250000Y-104133300D02*
X110250000Y-102000000D01*
X64000000Y-93985000D02*
X64235000Y-93985000D01*
X61515000Y-94265000D02*
X61000000Y-93750000D01*
X68515000Y-104265000D02*
X68000000Y-103750000D01*
D26*
X101287500Y-99712500D02*
X101250000Y-99750000D01*
D25*
X67485000Y-99500000D02*
X67485000Y-99265000D01*
X67485000Y-109500000D02*
X67485000Y-109265000D01*
X71000000Y-108985000D02*
X69840000Y-110145000D01*
X60485000Y-109500000D02*
X60485000Y-109265000D01*
X58750000Y-97000000D02*
X59862500Y-97000000D01*
X61515000Y-109265000D02*
X61000000Y-108750000D01*
X65000000Y-101985000D02*
X65633361Y-101985000D01*
D26*
X115450000Y-96150000D02*
X115450000Y-97300000D01*
D25*
X65750000Y-107250000D02*
X66000000Y-107000000D01*
X54212500Y-109000000D02*
X53000000Y-109000000D01*
X58750000Y-107000000D02*
X59862500Y-107000000D01*
X64000000Y-98985000D02*
X64394191Y-98985000D01*
X64394191Y-98985000D02*
X64842724Y-99433533D01*
X68515000Y-109500000D02*
X68515000Y-109265000D01*
X71678481Y-93985000D02*
X71905483Y-93757998D01*
X122787500Y-98500000D02*
X122787500Y-98287500D01*
D26*
X121550000Y-96150000D02*
X121550000Y-97050000D01*
D25*
X58000000Y-91985000D02*
X58735000Y-91985000D01*
X58000000Y-101985000D02*
X58735000Y-101985000D01*
X66000000Y-107000000D02*
X66916190Y-107000000D01*
X85712500Y-101500000D02*
X85712500Y-102462500D01*
X118287500Y-101500000D02*
X118287500Y-100287500D01*
X60485000Y-104500000D02*
X60485000Y-104265000D01*
X67485000Y-109265000D02*
X68000000Y-108750000D01*
X68515000Y-109265000D02*
X68000000Y-108750000D01*
X68515000Y-99500000D02*
X68515000Y-99265000D01*
X65000000Y-91985000D02*
X65735000Y-91985000D01*
D26*
X121550000Y-97050000D02*
X122000000Y-97500000D01*
D25*
X68515000Y-109819999D02*
X68515000Y-109500000D01*
X65633361Y-101985000D02*
X65748191Y-102099830D01*
X67485000Y-104265000D02*
X68000000Y-103750000D01*
X94712500Y-101500000D02*
X93500000Y-101500000D01*
X118250000Y-104133300D02*
X118250000Y-101537500D01*
X126640000Y-89355000D02*
X127659999Y-89355000D01*
X65848021Y-102000000D02*
X65748191Y-102099830D01*
X127659999Y-89355000D02*
X127985000Y-89680001D01*
X122787500Y-98287500D02*
X122000000Y-97500000D01*
X99500000Y-104133300D02*
X99500000Y-102000000D01*
X65750000Y-92000000D02*
X66862500Y-92000000D01*
X68515000Y-104500000D02*
X68515000Y-104265000D01*
D26*
X121850000Y-96150000D02*
X121850000Y-97350000D01*
D25*
X67485000Y-94265000D02*
X68000000Y-93750000D01*
D26*
X118287500Y-100287500D02*
X118250000Y-100250000D01*
X115150000Y-97400000D02*
X115250000Y-97500000D01*
D25*
X67485000Y-99265000D02*
X68000000Y-98750000D01*
X58735000Y-106985000D02*
X58750000Y-107000000D01*
X58735000Y-91985000D02*
X58750000Y-92000000D01*
X61515000Y-94500000D02*
X61515000Y-94265000D01*
X104212500Y-101500000D02*
X103000000Y-101500000D01*
X61515000Y-104265000D02*
X61000000Y-103750000D01*
X60485000Y-104265000D02*
X61000000Y-103750000D01*
X64000000Y-104000000D02*
X64750000Y-104750000D01*
X96500000Y-95866700D02*
X96500000Y-98000000D01*
X67485000Y-104500000D02*
X67485000Y-104265000D01*
X65735000Y-91985000D02*
X65750000Y-92000000D01*
X92287500Y-99712500D02*
X92250000Y-99750000D01*
D26*
X115150000Y-96150000D02*
X115150000Y-97400000D01*
D25*
G04 #@! TO.N,VCC*
X87500001Y-104133300D02*
X87500000Y-106750000D01*
X62137500Y-107950000D02*
X62485000Y-108297500D01*
X71000000Y-90750000D02*
X70333271Y-90083271D01*
X69137500Y-97950000D02*
X69485000Y-98297500D01*
X69485000Y-109500000D02*
X69485000Y-108750000D01*
X69191190Y-107950000D02*
X69485000Y-108243810D01*
D26*
X96287500Y-100287500D02*
X96250000Y-100250000D01*
D25*
X62485000Y-109500000D02*
X62485000Y-108750000D01*
X62485000Y-103297500D02*
X62137500Y-102950000D01*
D26*
X121050000Y-96150000D02*
X121050000Y-97450000D01*
D25*
X116712500Y-101500000D02*
X116712500Y-100287500D01*
X65015000Y-90000000D02*
X70250000Y-90000000D01*
X63500000Y-104500000D02*
X62485000Y-104500000D01*
X62485000Y-98297500D02*
X62485000Y-98750000D01*
D26*
X115950000Y-96150000D02*
X115950000Y-97200000D01*
D25*
X70250000Y-90000000D02*
X70333271Y-90083271D01*
X96287500Y-101500000D02*
X96287500Y-100287500D01*
X71000000Y-106015000D02*
X69485000Y-104500000D01*
X99499999Y-95866700D02*
X99500000Y-93750000D01*
X62485000Y-104500000D02*
X62485000Y-103750000D01*
D26*
X116712500Y-100287500D02*
X116750000Y-100250000D01*
D25*
X62485000Y-93297500D02*
X62485000Y-93750000D01*
X71000000Y-95500000D02*
X70750000Y-95250000D01*
X121000000Y-97500000D02*
X121000000Y-98287500D01*
X90499999Y-95866700D02*
X90500000Y-93750000D01*
X69485000Y-103297500D02*
X69485000Y-103750000D01*
X105750001Y-104133300D02*
X105750001Y-101537499D01*
X69485000Y-108243810D02*
X69485000Y-108750000D01*
X71000000Y-91015000D02*
X71000000Y-90750000D01*
D26*
X120750000Y-97250000D02*
X121000000Y-97500000D01*
D25*
X90499999Y-95866700D02*
X90499999Y-98287499D01*
D26*
X116250000Y-96150000D02*
X116250000Y-97500000D01*
D25*
X62485000Y-99500000D02*
X62485000Y-98750000D01*
X64000000Y-100500000D02*
X63750000Y-100250000D01*
X62137500Y-92950000D02*
X62485000Y-93297500D01*
X69485000Y-104500000D02*
X69485000Y-103750000D01*
X110249999Y-95866700D02*
X110250000Y-93750000D01*
X64000000Y-91015000D02*
X65015000Y-90000000D01*
X69485000Y-93297500D02*
X69485000Y-94500000D01*
X71319999Y-101015000D02*
X72804999Y-102500000D01*
X71000000Y-101015000D02*
X71319999Y-101015000D01*
X116750000Y-104133300D02*
X116750000Y-101537500D01*
X71000000Y-96015000D02*
X71000000Y-95500000D01*
D26*
X121050000Y-97450000D02*
X121000000Y-97500000D01*
D25*
X62485000Y-93750000D02*
X62485000Y-94500000D01*
X69137500Y-102950000D02*
X69485000Y-103297500D01*
X64000000Y-101015000D02*
X64000000Y-100500000D01*
X62485000Y-108297500D02*
X62485000Y-108750000D01*
X64000000Y-105000000D02*
X63500000Y-104500000D01*
X87287500Y-101500000D02*
X87287500Y-100962500D01*
X64000000Y-96000000D02*
X63500000Y-95500000D01*
X128212500Y-108500000D02*
X126750000Y-108500000D01*
D26*
X120750000Y-96150000D02*
X120750000Y-97250000D01*
D25*
X105787500Y-100712500D02*
X106000000Y-100500000D01*
X72804999Y-102500000D02*
X78376870Y-102500000D01*
D26*
X115950000Y-97200000D02*
X116250000Y-97500000D01*
D25*
X64000000Y-106015000D02*
X64000000Y-105000000D01*
X99499999Y-95866700D02*
X99499999Y-98287499D01*
X121000000Y-98287500D02*
X121212500Y-98500000D01*
X96500001Y-104133300D02*
X96500001Y-101712501D01*
X69485000Y-98297500D02*
X69485000Y-98750000D01*
X110249999Y-95866700D02*
X110249999Y-98462501D01*
X87287500Y-100962500D02*
X87750000Y-100500000D01*
X78376870Y-102500000D02*
X78551870Y-102325000D01*
X62485000Y-103750000D02*
X62485000Y-103297500D01*
X69137500Y-92950000D02*
X69485000Y-93297500D01*
X105787500Y-101500000D02*
X105787500Y-100712500D01*
X62137500Y-97950000D02*
X62485000Y-98297500D01*
X69485000Y-99500000D02*
X69485000Y-98750000D01*
G04 #@! TO.N,/A1*
X58000000Y-91015000D02*
X59827500Y-91015000D01*
X55271986Y-93650000D02*
X57906986Y-91015000D01*
G04 #@! TO.N,/A2*
X55445000Y-96015000D02*
X58000000Y-96015000D01*
X59862500Y-96050000D02*
X58035000Y-96050000D01*
G04 #@! TO.N,/A3*
X58000000Y-101015000D02*
X59827500Y-101015000D01*
X55715000Y-98730000D02*
X58000000Y-101015000D01*
G04 #@! TO.N,/A4*
X55282412Y-101270000D02*
X58000000Y-103987588D01*
X58000000Y-103987588D02*
X58000000Y-106015000D01*
X59862500Y-106050000D02*
X58035000Y-106050000D01*
G04 #@! TO.N,/A5*
X66862500Y-91050000D02*
X65832649Y-91050000D01*
X65035000Y-91050000D02*
X65701789Y-91050000D01*
X65832649Y-91050000D02*
X65767219Y-90984570D01*
X65701789Y-91050000D02*
X65767219Y-90984570D01*
G04 #@! TO.N,/A6*
X66862500Y-96050000D02*
X65832649Y-96050000D01*
X65701789Y-96050000D02*
X65767219Y-95984570D01*
X65035000Y-96050000D02*
X65701789Y-96050000D01*
X65832649Y-96050000D02*
X65767219Y-95984570D01*
G04 #@! TO.N,/A7*
X66862500Y-101050000D02*
X65767219Y-101050000D01*
X65035000Y-101050000D02*
X65767219Y-101050000D01*
G04 #@! TO.N,/A8*
X66916190Y-106050000D02*
X65035000Y-106050000D01*
G04 #@! TO.N,/B1*
X89000000Y-104133300D02*
X89000000Y-107000000D01*
X127730000Y-93650000D02*
X125850000Y-93650000D01*
X89000000Y-100795405D02*
X89000000Y-104133300D01*
X86650000Y-93991700D02*
X86650000Y-98445405D01*
X125000000Y-104500000D02*
X123250000Y-106250000D01*
X106000000Y-106250000D02*
X99250000Y-106250000D01*
X125000000Y-94500000D02*
X125000000Y-104500000D01*
X62137500Y-91050000D02*
X63845800Y-89341700D01*
X88750000Y-92250000D02*
X88391700Y-92250000D01*
X109000000Y-107000000D02*
X109750000Y-106250000D01*
X123250000Y-106250000D02*
X109750000Y-106250000D01*
X88091700Y-89341700D02*
X88750000Y-90000000D01*
X106750000Y-107000000D02*
X106000000Y-106250000D01*
X125850000Y-93650000D02*
X125000000Y-94500000D01*
X62137500Y-91050000D02*
X62971986Y-91050000D01*
X62971986Y-91050000D02*
X63906986Y-91985000D01*
X88391700Y-92250000D02*
X86650000Y-93991700D01*
X109000000Y-107000000D02*
X106750000Y-107000000D01*
X99250000Y-106250000D02*
X99000000Y-106500000D01*
X63845800Y-89341700D02*
X88091700Y-89341700D01*
X86650000Y-98445405D02*
X89000000Y-100795405D01*
G04 #@! TO.N,/B2*
X63779595Y-94825000D02*
X63220405Y-94825000D01*
X69825000Y-95220405D02*
X64175000Y-95220405D01*
X62596618Y-96050000D02*
X63531618Y-96985000D01*
X90500000Y-91750000D02*
X89000000Y-93250000D01*
X82220299Y-97500000D02*
X80578299Y-97500000D01*
X73003299Y-95005000D02*
X72603299Y-94605000D01*
X63531618Y-96985000D02*
X64000000Y-96985000D01*
X80578299Y-97500000D02*
X78083299Y-95005000D01*
X63220405Y-94825000D02*
X62137500Y-95907905D01*
X72603299Y-94605000D02*
X70627696Y-94605000D01*
X64175000Y-95220405D02*
X63779595Y-94825000D01*
X89000000Y-93250000D02*
X89000000Y-95866700D01*
X82895000Y-98174701D02*
X82220299Y-97500000D01*
X70470405Y-94575000D02*
X69825000Y-95220405D01*
X89000000Y-95866700D02*
X89000000Y-98500000D01*
X82895000Y-99780216D02*
X82895000Y-98174701D01*
X82831373Y-99843839D02*
X82895000Y-99780216D01*
X70627696Y-94605000D02*
X70597696Y-94575000D01*
X78083299Y-95005000D02*
X73003299Y-95005000D01*
X70597696Y-94575000D02*
X70470405Y-94575000D01*
G04 #@! TO.N,/B3*
X125500000Y-100947588D02*
X127717588Y-98730000D01*
X63531618Y-101985000D02*
X64000000Y-101985000D01*
X71615000Y-100275000D02*
X71995000Y-99895000D01*
X110640713Y-109658300D02*
X124341700Y-109658300D01*
X77145000Y-99895000D02*
X77500000Y-100250000D01*
X106245684Y-109658300D02*
X107628984Y-108275000D01*
X78000000Y-103750000D02*
X79415000Y-105165000D01*
X77500000Y-100250000D02*
X77500000Y-101000000D01*
X64675000Y-100275000D02*
X71615000Y-100275000D01*
X98000000Y-107283300D02*
X100375000Y-109658300D01*
X107628984Y-108275000D02*
X109257413Y-108275000D01*
X62596618Y-101050000D02*
X63531618Y-101985000D01*
X124341700Y-109658300D02*
X125500000Y-108500000D01*
X62137500Y-100907905D02*
X63440405Y-99605000D01*
X79415000Y-105165000D02*
X82915000Y-105165000D01*
X71995000Y-99895000D02*
X77145000Y-99895000D01*
X100375000Y-109658300D02*
X106245684Y-109658300D01*
X64005000Y-99605000D02*
X64675000Y-100275000D01*
X98000000Y-106000000D02*
X98000000Y-107283300D01*
X82915000Y-105165000D02*
X83500000Y-105750000D01*
X109257413Y-108275000D02*
X110640713Y-109658300D01*
X63440405Y-99605000D02*
X64005000Y-99605000D01*
X98000000Y-106000000D02*
X98000000Y-104133300D01*
X125500000Y-108500000D02*
X125500000Y-100947588D01*
G04 #@! TO.N,/B4*
X98000000Y-96891700D02*
X98000000Y-97454595D01*
X62450000Y-106050000D02*
X63152812Y-105347188D01*
X62596618Y-106050000D02*
X63531618Y-106985000D01*
X98000000Y-97454595D02*
X96454595Y-99000000D01*
X92750000Y-104500000D02*
X86575000Y-110675000D01*
X94750000Y-99000000D02*
X92750000Y-101000000D01*
X66400000Y-110675000D02*
X65250000Y-109525000D01*
X92750000Y-101000000D02*
X92750000Y-104500000D01*
X86575000Y-110675000D02*
X66400000Y-110675000D01*
X98000000Y-93500000D02*
X98000000Y-95866700D01*
X96454595Y-99000000D02*
X94750000Y-99000000D01*
X63531618Y-106985000D02*
X64000000Y-106985000D01*
X63152812Y-105347188D02*
X63152812Y-105175000D01*
G04 #@! TO.N,/B5*
X70734999Y-91985000D02*
X71000000Y-91985000D01*
X71000000Y-91985000D02*
X71319999Y-91985000D01*
X71319999Y-91985000D02*
X71778592Y-91526407D01*
X69137500Y-91050000D02*
X69799999Y-91050000D01*
X108750000Y-106000000D02*
X108750000Y-104133300D01*
X109750000Y-110750000D02*
X108500000Y-109500000D01*
X71778592Y-91526407D02*
X71778592Y-90301782D01*
X69799999Y-91050000D02*
X70734999Y-91985000D01*
X130270000Y-93650000D02*
X132740000Y-96120000D01*
X132740000Y-96120000D02*
X132740000Y-107469292D01*
X109750000Y-110750000D02*
X129459292Y-110750000D01*
X132740000Y-107469292D02*
X129459292Y-110750000D01*
G04 #@! TO.N,/B6*
X110443961Y-110133300D02*
X109060661Y-108750000D01*
X107250000Y-109689339D02*
X107250000Y-109750000D01*
X69137500Y-96050000D02*
X69971986Y-96050000D01*
X130270000Y-96190000D02*
X132290000Y-98210000D01*
X108189339Y-108750000D02*
X107250000Y-109689339D01*
X71319999Y-96985000D02*
X71888477Y-96416522D01*
X107250000Y-106000000D02*
X107250001Y-104133300D01*
X69971986Y-96050000D02*
X70906986Y-96985000D01*
X132290000Y-107282896D02*
X129439596Y-110133300D01*
X129439596Y-110133300D02*
X110443961Y-110133300D01*
X71888477Y-96416522D02*
X71888477Y-95384163D01*
X109060661Y-108750000D02*
X108189339Y-108750000D01*
X71000000Y-96985000D02*
X71319999Y-96985000D01*
X132290000Y-98210000D02*
X132290000Y-107282896D01*
G04 #@! TO.N,/B7*
X87495684Y-89841700D02*
X88428984Y-90775000D01*
X69799999Y-101050000D02*
X70734999Y-101985000D01*
X82368123Y-102435000D02*
X83950000Y-100853123D01*
X107250000Y-90750000D02*
X107250000Y-95866700D01*
X84275000Y-98891720D02*
X84275000Y-96721877D01*
X83950000Y-99216720D02*
X84275000Y-98891720D01*
X83500000Y-90509593D02*
X84167893Y-89841700D01*
X89071016Y-90775000D02*
X90096016Y-89750000D01*
X69137500Y-101050000D02*
X69799999Y-101050000D01*
X80694010Y-102435000D02*
X82368123Y-102435000D01*
X72175000Y-104265990D02*
X72909010Y-105000000D01*
X72175000Y-103160000D02*
X72175000Y-104265990D01*
X80129010Y-103000000D02*
X80694010Y-102435000D01*
X71000000Y-101985000D02*
X72175000Y-103160000D01*
X88428984Y-90775000D02*
X89071016Y-90775000D01*
X106250000Y-89750000D02*
X107250000Y-90750000D01*
X83950000Y-100853123D02*
X83950000Y-99216720D01*
X83500000Y-95946877D02*
X83500000Y-90509593D01*
X84275000Y-96721877D02*
X83500000Y-95946877D01*
X84167893Y-89841700D02*
X87495684Y-89841700D01*
X76750000Y-103000000D02*
X80129010Y-103000000D01*
X90096016Y-89750000D02*
X106250000Y-89750000D01*
X74750000Y-105000000D02*
X76750000Y-103000000D01*
X70734999Y-101985000D02*
X71000000Y-101985000D01*
X72909010Y-105000000D02*
X74750000Y-105000000D01*
G04 #@! TO.N,/B8*
X108000000Y-99500000D02*
X105250000Y-99500000D01*
X108749999Y-95866700D02*
X108750000Y-98750000D01*
X104250000Y-98500000D02*
X104250000Y-94250000D01*
X105250000Y-90716700D02*
X104783300Y-90250000D01*
X89278122Y-91275000D02*
X88221878Y-91275000D01*
X104783300Y-90250000D02*
X90303122Y-90250000D01*
X108749999Y-95866700D02*
X108750000Y-93750000D01*
X84900000Y-101327106D02*
X84375000Y-101852107D01*
X88221878Y-91275000D02*
X87288578Y-90341700D01*
X69650308Y-106050000D02*
X70585308Y-106985000D01*
X84375000Y-107250000D02*
X83920000Y-107705000D01*
X108750000Y-98750000D02*
X108000000Y-99500000D01*
X84375000Y-90341700D02*
X84000000Y-90716700D01*
X84000000Y-90716700D02*
X84000000Y-93608576D01*
X104250000Y-94250000D02*
X105250000Y-93250000D01*
X73003299Y-107705000D02*
X72283299Y-106985000D01*
X85525000Y-100366748D02*
X84900000Y-100991748D01*
X84900000Y-100991748D02*
X84900000Y-101327106D01*
X83920000Y-107705000D02*
X73003299Y-107705000D01*
X84000000Y-93608576D02*
X85525000Y-95133576D01*
X84375000Y-101852107D02*
X84375000Y-107250000D01*
X87288578Y-90341700D02*
X84375000Y-90341700D01*
X105250000Y-99500000D02*
X104250000Y-98500000D01*
X85525000Y-95133576D02*
X85525000Y-100366748D01*
X105250000Y-93250000D02*
X105250000Y-90716700D01*
X70585308Y-106985000D02*
X71000000Y-106985000D01*
X90303122Y-90250000D02*
X89278122Y-91275000D01*
X72283299Y-106985000D02*
X71000000Y-106985000D01*
G04 #@! TO.N,Net-(J9-CC1)*
X118495000Y-89755000D02*
X117250000Y-91000000D01*
X124760000Y-89755000D02*
X118495000Y-89755000D01*
X125015000Y-90010000D02*
X124760000Y-89755000D01*
X117250000Y-91000000D02*
X117250000Y-96150000D01*
G04 #@! TO.N,Net-(J9-CC2)*
X124265000Y-92750000D02*
X120750000Y-92750000D01*
X127015000Y-90000000D02*
X124265000Y-92750000D01*
X120250000Y-93250000D02*
X120250000Y-96150000D01*
X120750000Y-92750000D02*
X120250000Y-93250000D01*
G04 #@! TO.N,/DIR1*
X64000000Y-93015000D02*
X64710000Y-93015000D01*
X62137500Y-92000000D02*
X62951986Y-92000000D01*
X62951986Y-92000000D02*
X63966986Y-93015000D01*
X64710000Y-93015000D02*
X64750000Y-92975000D01*
G04 #@! TO.N,/DIR2*
X64710000Y-98015000D02*
X64750000Y-97975000D01*
X62839512Y-97000000D02*
X63854512Y-98015000D01*
X64000000Y-98015000D02*
X64710000Y-98015000D01*
X62137500Y-97000000D02*
X62839512Y-97000000D01*
G04 #@! TO.N,/DIR3*
X62874866Y-102000000D02*
X63889866Y-103015000D01*
X64710000Y-103015000D02*
X64750000Y-102975000D01*
X64000000Y-103015000D02*
X64710000Y-103015000D01*
X62137500Y-102000000D02*
X62874866Y-102000000D01*
G04 #@! TO.N,/DIR4*
X63611618Y-108015000D02*
X62596618Y-107000000D01*
X64000000Y-108015000D02*
X63611618Y-108015000D01*
X64000000Y-108015000D02*
X64710000Y-108015000D01*
X64710000Y-108015000D02*
X64750000Y-107975000D01*
G04 #@! TO.N,/DIR5*
X83000000Y-93258299D02*
X83000000Y-96725000D01*
X72235000Y-93015000D02*
X72785000Y-92465000D01*
X82770000Y-101260000D02*
X81320000Y-101260000D01*
X72785000Y-92465000D02*
X82206701Y-92465000D01*
X71000000Y-93015000D02*
X72235000Y-93015000D01*
X82206701Y-92465000D02*
X83000000Y-93258299D01*
X83000000Y-96725000D02*
X83500000Y-97225000D01*
X83500000Y-100530000D02*
X82770000Y-101260000D01*
X83500000Y-97225000D02*
X83500000Y-100530000D01*
X69137500Y-92000000D02*
X69951986Y-92000000D01*
X69951986Y-92000000D02*
X70966986Y-93015000D01*
G04 #@! TO.N,/DIR6*
X69799999Y-97000000D02*
X70814999Y-98015000D01*
X71870944Y-98450086D02*
X71435858Y-98015000D01*
X71435858Y-98015000D02*
X71000000Y-98015000D01*
X84400000Y-101120000D02*
X81720000Y-103800000D01*
X84274683Y-96014454D02*
X85025000Y-96764771D01*
X84274683Y-94979275D02*
X84274683Y-96014454D01*
X85025000Y-96764771D02*
X85025000Y-98778116D01*
X69137500Y-97000000D02*
X69799999Y-97000000D01*
X84400000Y-99403116D02*
X84400000Y-101120000D01*
X85025000Y-98778116D02*
X84400000Y-99403116D01*
G04 #@! TO.N,/DIR7*
X79340000Y-106340000D02*
X81320000Y-106340000D01*
X71000000Y-103015000D02*
X71319999Y-103015000D01*
X69137500Y-102000000D02*
X69951986Y-102000000D01*
X69951986Y-102000000D02*
X70966986Y-103015000D01*
X71645000Y-104895000D02*
X72000000Y-105250000D01*
X71319999Y-103015000D02*
X71645000Y-103340001D01*
X71645000Y-103340001D02*
X71645000Y-104895000D01*
X78500000Y-105500000D02*
X79340000Y-106340000D01*
G04 #@! TO.N,/DIR8*
X69893202Y-107000000D02*
X70908202Y-108015000D01*
X71450402Y-108015000D02*
X71000000Y-108015000D01*
X71908720Y-108473318D02*
X71450402Y-108015000D01*
X69191190Y-107000000D02*
X69893202Y-107000000D01*
G04 #@! TD*
M02*
