G04 #@! TF.GenerationSoftware,KiCad,Pcbnew,7.0.9-7.0.9~ubuntu22.04.1*
G04 #@! TF.CreationDate,2023-11-24T17:50:00-08:00*
G04 #@! TF.ProjectId,pmod-level-conv-2,706d6f64-2d6c-4657-9665-6c2d636f6e76,rev?*
G04 #@! TF.SameCoordinates,Original*
G04 #@! TF.FileFunction,Legend,Bot*
G04 #@! TF.FilePolarity,Positive*
%FSLAX46Y46*%
G04 Gerber Fmt 4.6, Leading zero omitted, Abs format (unit mm)*
G04 Created by KiCad (PCBNEW 7.0.9-7.0.9~ubuntu22.04.1) date 2023-11-24 17:50:00*
%MOMM*%
%LPD*%
G01*
G04 APERTURE LIST*
%ADD10C,0.120000*%
%ADD11C,0.152400*%
%ADD12C,0.150000*%
G04 APERTURE END LIST*
D10*
G04 #@! TO.C,U6*
X68000000Y-95440000D02*
X67200000Y-95440000D01*
X68000000Y-95440000D02*
X68800000Y-95440000D01*
X68000000Y-98560000D02*
X66200000Y-98560000D01*
X68000000Y-98560000D02*
X68800000Y-98560000D01*
G04 #@! TO.C,U2*
X61000000Y-95440000D02*
X60200000Y-95440000D01*
X61000000Y-95440000D02*
X61800000Y-95440000D01*
X61000000Y-98560000D02*
X59200000Y-98560000D01*
X61000000Y-98560000D02*
X61800000Y-98560000D01*
G04 #@! TO.C,C20*
X95337221Y-100990000D02*
X95662779Y-100990000D01*
X95337221Y-102010000D02*
X95662779Y-102010000D01*
G04 #@! TO.C,C23*
X111162779Y-99010000D02*
X110837221Y-99010000D01*
X111162779Y-97990000D02*
X110837221Y-97990000D01*
G04 #@! TO.C,C26*
X128837221Y-107990000D02*
X129162779Y-107990000D01*
X128837221Y-109010000D02*
X129162779Y-109010000D01*
G04 #@! TO.C,U1*
X61000000Y-90440000D02*
X60200000Y-90440000D01*
X61000000Y-90440000D02*
X61800000Y-90440000D01*
X61000000Y-93560000D02*
X59200000Y-93560000D01*
X61000000Y-93560000D02*
X61800000Y-93560000D01*
D11*
G04 #@! TO.C,J3*
X92872101Y-104006300D02*
X92872101Y-110254700D01*
X91188340Y-104006300D02*
X92872101Y-104006300D01*
X85127901Y-110254700D02*
X92872101Y-110254700D01*
X85127901Y-110254700D02*
X85127901Y-104006300D01*
X85127901Y-104006300D02*
X86811662Y-104006300D01*
D10*
G04 #@! TO.C,U8*
X68053690Y-105440000D02*
X67253690Y-105440000D01*
X68053690Y-105440000D02*
X68853690Y-105440000D01*
X68053690Y-108560000D02*
X66253690Y-108560000D01*
X68053690Y-108560000D02*
X68853690Y-108560000D01*
G04 #@! TO.C,U3*
X61000000Y-100440000D02*
X60200000Y-100440000D01*
X61000000Y-100440000D02*
X61800000Y-100440000D01*
X61000000Y-103560000D02*
X59200000Y-103560000D01*
X61000000Y-103560000D02*
X61800000Y-103560000D01*
D12*
G04 #@! TO.C,J9*
X113900000Y-88350000D02*
X113900000Y-89825000D01*
X113900000Y-92365000D02*
X113900000Y-94250000D01*
X123100000Y-88350000D02*
X113900000Y-88350000D01*
X123100000Y-88350000D02*
X123100000Y-89825000D01*
X123100000Y-92365000D02*
X123100000Y-94250000D01*
D11*
G04 #@! TO.C,J7*
X112622101Y-110254700D02*
X103377901Y-110254700D01*
X112622101Y-104006300D02*
X112622101Y-110254700D01*
X110938340Y-104006300D02*
X112622101Y-104006300D01*
X103377901Y-110254700D02*
X103377901Y-104006300D01*
X103377901Y-104006300D02*
X105061662Y-104006300D01*
D10*
G04 #@! TO.C,C22*
X104837221Y-100990000D02*
X105162779Y-100990000D01*
X104837221Y-102010000D02*
X105162779Y-102010000D01*
G04 #@! TO.C,C21*
X100662779Y-99010000D02*
X100337221Y-99010000D01*
X100662779Y-97990000D02*
X100337221Y-97990000D01*
D11*
G04 #@! TO.C,J10*
X120622101Y-104006300D02*
X120622101Y-110254700D01*
X118938340Y-104006300D02*
X120622101Y-104006300D01*
X114377901Y-110254700D02*
X120622101Y-110254700D01*
X114377901Y-110254700D02*
X114377901Y-104006300D01*
X114377901Y-104006300D02*
X116061662Y-104006300D01*
D10*
G04 #@! TO.C,U4*
X61000000Y-105440000D02*
X60200000Y-105440000D01*
X61000000Y-105440000D02*
X61800000Y-105440000D01*
X61000000Y-108560000D02*
X59200000Y-108560000D01*
X61000000Y-108560000D02*
X61800000Y-108560000D01*
D11*
G04 #@! TO.C,J6*
X94127899Y-95993700D02*
X94127899Y-89745300D01*
X95811660Y-95993700D02*
X94127899Y-95993700D01*
X101872099Y-89745300D02*
X94127899Y-89745300D01*
X101872099Y-89745300D02*
X101872099Y-95993700D01*
X101872099Y-95993700D02*
X100188338Y-95993700D01*
D10*
G04 #@! TO.C,U7*
X68000000Y-100440000D02*
X67200000Y-100440000D01*
X68000000Y-100440000D02*
X68800000Y-100440000D01*
X68000000Y-103560000D02*
X66200000Y-103560000D01*
X68000000Y-103560000D02*
X68800000Y-103560000D01*
D11*
G04 #@! TO.C,J4*
X85127899Y-95993700D02*
X85127899Y-89745300D01*
X86811660Y-95993700D02*
X85127899Y-95993700D01*
X92872099Y-89745300D02*
X85127899Y-89745300D01*
X92872099Y-89745300D02*
X92872099Y-95993700D01*
X92872099Y-95993700D02*
X91188338Y-95993700D01*
G04 #@! TO.C,J5*
X101872101Y-104006300D02*
X101872101Y-110254700D01*
X100188340Y-104006300D02*
X101872101Y-104006300D01*
X94127901Y-110254700D02*
X101872101Y-110254700D01*
X94127901Y-110254700D02*
X94127901Y-104006300D01*
X94127901Y-104006300D02*
X95811662Y-104006300D01*
D10*
G04 #@! TO.C,C19*
X91662779Y-99010000D02*
X91337221Y-99010000D01*
X91662779Y-97990000D02*
X91337221Y-97990000D01*
G04 #@! TO.C,C18*
X86337221Y-100990000D02*
X86662779Y-100990000D01*
X86337221Y-102010000D02*
X86662779Y-102010000D01*
G04 #@! TO.C,C17*
X121837221Y-97990000D02*
X122162779Y-97990000D01*
X121837221Y-99010000D02*
X122162779Y-99010000D01*
G04 #@! TO.C,U5*
X68000000Y-90440000D02*
X67200000Y-90440000D01*
X68000000Y-90440000D02*
X68800000Y-90440000D01*
X68000000Y-93560000D02*
X66200000Y-93560000D01*
X68000000Y-93560000D02*
X68800000Y-93560000D01*
D11*
G04 #@! TO.C,J8*
X103377899Y-89745300D02*
X112622099Y-89745300D01*
X103377899Y-95993700D02*
X103377899Y-89745300D01*
X105061660Y-95993700D02*
X103377899Y-95993700D01*
X112622099Y-89745300D02*
X112622099Y-95993700D01*
X112622099Y-95993700D02*
X110938338Y-95993700D01*
D10*
G04 #@! TO.C,C25*
X55162779Y-109510000D02*
X54837221Y-109510000D01*
X55162779Y-108490000D02*
X54837221Y-108490000D01*
G04 #@! TO.C,C24*
X117337221Y-100990000D02*
X117662779Y-100990000D01*
X117337221Y-102010000D02*
X117662779Y-102010000D01*
G04 #@! TD*
M02*
