G04 #@! TF.GenerationSoftware,KiCad,Pcbnew,7.0.9-7.0.9~ubuntu22.04.1*
G04 #@! TF.CreationDate,2023-11-24T17:50:00-08:00*
G04 #@! TF.ProjectId,pmod-level-conv-2,706d6f64-2d6c-4657-9665-6c2d636f6e76,rev?*
G04 #@! TF.SameCoordinates,Original*
G04 #@! TF.FileFunction,Copper,L2,Inr*
G04 #@! TF.FilePolarity,Positive*
%FSLAX46Y46*%
G04 Gerber Fmt 4.6, Leading zero omitted, Abs format (unit mm)*
G04 Created by KiCad (PCBNEW 7.0.9-7.0.9~ubuntu22.04.1) date 2023-11-24 17:50:00*
%MOMM*%
%LPD*%
G01*
G04 APERTURE LIST*
G04 #@! TA.AperFunction,ComponentPad*
%ADD10O,2.540000X1.700000*%
G04 #@! TD*
G04 #@! TA.AperFunction,ComponentPad*
%ADD11R,2.400000X1.600000*%
G04 #@! TD*
G04 #@! TA.AperFunction,ComponentPad*
%ADD12O,2.400000X1.600000*%
G04 #@! TD*
G04 #@! TA.AperFunction,ComponentPad*
%ADD13O,1.000000X2.100000*%
G04 #@! TD*
G04 #@! TA.AperFunction,ComponentPad*
%ADD14O,0.900000X2.100000*%
G04 #@! TD*
G04 #@! TA.AperFunction,ViaPad*
%ADD15C,0.600000*%
G04 #@! TD*
G04 APERTURE END LIST*
D10*
G04 #@! TO.N,/B1*
G04 #@! TO.C,J2*
X127330000Y-93650000D03*
G04 #@! TO.N,/B2*
X127330000Y-96190000D03*
G04 #@! TO.N,/B3*
X127330000Y-98730000D03*
G04 #@! TO.N,/B4*
X127330000Y-101270000D03*
G04 #@! TO.N,GND*
X127330000Y-103810000D03*
G04 #@! TO.N,VCC*
X127330000Y-106350000D03*
G04 #@! TO.N,/B5*
X130670000Y-93650000D03*
G04 #@! TO.N,/B6*
X130670000Y-96190000D03*
G04 #@! TO.N,/B7*
X130670000Y-98730000D03*
G04 #@! TO.N,/B8*
X130670000Y-101270000D03*
G04 #@! TO.N,GND*
X130670000Y-103810000D03*
G04 #@! TO.N,VCC*
X130670000Y-106350000D03*
G04 #@! TD*
G04 #@! TO.N,/A1*
G04 #@! TO.C,J1*
X55670000Y-93650000D03*
G04 #@! TO.N,/A2*
X55670000Y-96190000D03*
G04 #@! TO.N,/A3*
X55670000Y-98730000D03*
G04 #@! TO.N,/A4*
X55670000Y-101270000D03*
G04 #@! TO.N,GND*
X55670000Y-103810000D03*
G04 #@! TO.N,+3.3V*
X55670000Y-106350000D03*
G04 #@! TO.N,/A5*
X52330000Y-93650000D03*
G04 #@! TO.N,/A6*
X52330000Y-96190000D03*
G04 #@! TO.N,/A7*
X52330000Y-98730000D03*
G04 #@! TO.N,/A8*
X52330000Y-101270000D03*
G04 #@! TO.N,GND*
X52330000Y-103810000D03*
G04 #@! TO.N,+3.3V*
X52330000Y-106350000D03*
G04 #@! TD*
D11*
G04 #@! TO.N,+3.3V*
G04 #@! TO.C,SW1*
X73700000Y-91100000D03*
D12*
X73700000Y-93640000D03*
X73700000Y-96180000D03*
X73700000Y-98720000D03*
X73700000Y-101260000D03*
X73700000Y-103800000D03*
X73700000Y-106340000D03*
X73700000Y-108880000D03*
G04 #@! TO.N,/DIR8*
X81320000Y-108880000D03*
G04 #@! TO.N,/DIR7*
X81320000Y-106340000D03*
G04 #@! TO.N,/DIR6*
X81320000Y-103800000D03*
G04 #@! TO.N,/DIR5*
X81320000Y-101260000D03*
G04 #@! TO.N,/DIR4*
X81320000Y-98720000D03*
G04 #@! TO.N,/DIR3*
X81320000Y-96180000D03*
G04 #@! TO.N,/DIR2*
X81320000Y-93640000D03*
G04 #@! TO.N,/DIR1*
X81320000Y-91100000D03*
G04 #@! TD*
D13*
G04 #@! TO.N,GND*
G04 #@! TO.C,J9*
X114180000Y-91130000D03*
D14*
X114180000Y-95310000D03*
D13*
X122820000Y-91130000D03*
D14*
X122820000Y-95310000D03*
G04 #@! TD*
D15*
G04 #@! TO.N,+3.3V*
X58500000Y-109500000D03*
X67000000Y-105250000D03*
X58750000Y-94500000D03*
X66750000Y-110000000D03*
X65750000Y-94500000D03*
X58750000Y-104750000D03*
X57000000Y-109000000D03*
X65750000Y-99500000D03*
X58750000Y-98000000D03*
G04 #@! TO.N,GND*
X71905483Y-93757998D03*
X85750000Y-102500000D03*
X68000000Y-93750000D03*
X90500000Y-102000000D03*
X99500000Y-102000000D03*
X101250000Y-99750000D03*
X70500000Y-99500000D03*
X58750000Y-92000000D03*
X61000000Y-93750000D03*
X63250000Y-110250000D03*
X58750000Y-107000000D03*
X64842724Y-99433533D03*
X129000000Y-90000000D03*
X65750000Y-97000000D03*
X110250000Y-102000000D03*
X103000000Y-101500000D03*
X65750000Y-92000000D03*
X68000000Y-103750000D03*
X61000000Y-103750000D03*
X61000000Y-108750000D03*
X105750000Y-93750000D03*
X122000000Y-97500000D03*
X64750000Y-104750000D03*
X113000000Y-98500000D03*
X64750000Y-94500000D03*
X71000000Y-105000000D03*
X68000000Y-98750000D03*
X68000000Y-108750000D03*
X53000000Y-109000000D03*
X65750000Y-107250000D03*
X93500000Y-101500000D03*
X92250000Y-99750000D03*
X65748191Y-102099830D03*
X58750000Y-97000000D03*
X129000000Y-109500000D03*
X58750000Y-102000000D03*
X115250000Y-97500000D03*
X118250000Y-100250000D03*
X61000000Y-98750000D03*
X96500000Y-98000000D03*
X87500000Y-97750000D03*
G04 #@! TO.N,VCC*
X69485000Y-93750000D03*
X121000000Y-97500000D03*
X126750000Y-108500000D03*
X116750000Y-100250000D03*
X70750000Y-95250000D03*
X110250000Y-93750000D03*
X69485000Y-98750000D03*
X70333271Y-90083271D03*
X116250000Y-97500000D03*
X62485000Y-108750000D03*
X62485000Y-93750000D03*
X87500000Y-106750000D03*
X96250000Y-100250000D03*
X78551870Y-102325000D03*
X63500000Y-95500000D03*
X62485000Y-98750000D03*
X106000000Y-100500000D03*
X62485000Y-103750000D03*
X63750000Y-100250000D03*
X99500000Y-93750000D03*
X90500000Y-93750000D03*
X87750000Y-100500000D03*
X69485000Y-103750000D03*
X69485000Y-108750000D03*
G04 #@! TO.N,/A5*
X65767219Y-90984570D03*
G04 #@! TO.N,/A6*
X65767219Y-95984570D03*
G04 #@! TO.N,/A7*
X65767219Y-101050000D03*
G04 #@! TO.N,/A8*
X65750000Y-106050000D03*
G04 #@! TO.N,/B1*
X88750000Y-90000000D03*
X88750000Y-92250000D03*
X99000000Y-106500000D03*
X89000000Y-107000000D03*
G04 #@! TO.N,/B2*
X90500000Y-91750000D03*
X82831373Y-99843839D03*
X89000000Y-98500000D03*
G04 #@! TO.N,/B3*
X78000000Y-103750000D03*
X98000000Y-106000000D03*
X83500000Y-105750000D03*
X77500000Y-101000000D03*
G04 #@! TO.N,/B4*
X65250000Y-109525000D03*
X63152812Y-105175000D03*
X98000000Y-93500000D03*
G04 #@! TO.N,/B5*
X71778592Y-90301782D03*
X108750000Y-106000000D03*
X108500000Y-109500000D03*
G04 #@! TO.N,/B6*
X71888477Y-95384163D03*
X107250000Y-106000000D03*
X107250000Y-109750000D03*
G04 #@! TO.N,/B7*
X107250000Y-90750000D03*
G04 #@! TO.N,/B8*
X108750000Y-93750000D03*
G04 #@! TO.N,/DIR1*
X64750000Y-92975000D03*
G04 #@! TO.N,/DIR2*
X64750000Y-97975000D03*
G04 #@! TO.N,/DIR3*
X64750000Y-102975000D03*
G04 #@! TO.N,/DIR4*
X64750000Y-107975000D03*
G04 #@! TO.N,/DIR6*
X71870944Y-98450086D03*
X84274683Y-94979275D03*
G04 #@! TO.N,/DIR7*
X72000000Y-105250000D03*
X78500000Y-105500000D03*
G04 #@! TO.N,/DIR8*
X71908720Y-108473318D03*
G04 #@! TD*
G04 #@! TA.AperFunction,Conductor*
G04 #@! TO.N,GND*
G36*
X132518455Y-88769685D02*
G01*
X132531943Y-88779706D01*
X132604123Y-88841354D01*
X132626109Y-88860132D01*
X132639867Y-88873890D01*
X132754529Y-89008142D01*
X132765966Y-89023884D01*
X132858212Y-89174416D01*
X132867046Y-89191753D01*
X132934609Y-89354865D01*
X132940622Y-89373370D01*
X132981838Y-89545045D01*
X132984882Y-89564264D01*
X132999309Y-89747573D01*
X132999500Y-89752440D01*
X132999500Y-109686889D01*
X132999309Y-109691757D01*
X132984876Y-109875069D01*
X132981832Y-109894287D01*
X132940615Y-110065952D01*
X132934602Y-110084457D01*
X132867036Y-110247565D01*
X132858202Y-110264902D01*
X132765953Y-110415433D01*
X132754516Y-110431174D01*
X132639856Y-110565420D01*
X132626098Y-110579178D01*
X132491845Y-110693839D01*
X132476102Y-110705276D01*
X132325572Y-110797518D01*
X132308236Y-110806351D01*
X132145128Y-110873911D01*
X132126623Y-110879924D01*
X131954952Y-110921138D01*
X131935734Y-110924182D01*
X131795042Y-110935255D01*
X131751916Y-110938649D01*
X131747054Y-110938840D01*
X51752440Y-110938840D01*
X51747574Y-110938649D01*
X51564259Y-110924222D01*
X51545041Y-110921178D01*
X51373363Y-110879962D01*
X51354858Y-110873949D01*
X51191748Y-110806388D01*
X51174411Y-110797555D01*
X51023867Y-110705303D01*
X51008126Y-110693866D01*
X50873876Y-110579209D01*
X50860119Y-110565453D01*
X50745450Y-110431196D01*
X50734014Y-110415456D01*
X50641761Y-110264920D01*
X50632927Y-110247583D01*
X50589900Y-110143712D01*
X50565357Y-110084465D01*
X50559346Y-110065964D01*
X50518124Y-109894277D01*
X50515084Y-109875093D01*
X50500690Y-109692258D01*
X50500500Y-109687409D01*
X50500500Y-109000000D01*
X56444750Y-109000000D01*
X56454747Y-109075937D01*
X56463670Y-109143708D01*
X56463671Y-109143712D01*
X56519137Y-109277622D01*
X56519138Y-109277624D01*
X56519139Y-109277625D01*
X56607379Y-109392621D01*
X56722375Y-109480861D01*
X56856291Y-109536330D01*
X56983280Y-109553048D01*
X56999999Y-109555250D01*
X57000000Y-109555250D01*
X57000001Y-109555250D01*
X57014977Y-109553278D01*
X57143709Y-109536330D01*
X57231419Y-109500000D01*
X57944750Y-109500000D01*
X57963670Y-109643708D01*
X57963671Y-109643712D01*
X58019137Y-109777622D01*
X58019138Y-109777624D01*
X58019139Y-109777625D01*
X58107379Y-109892621D01*
X58222375Y-109980861D01*
X58356291Y-110036330D01*
X58483280Y-110053048D01*
X58499999Y-110055250D01*
X58500000Y-110055250D01*
X58500001Y-110055250D01*
X58514977Y-110053278D01*
X58643709Y-110036330D01*
X58777625Y-109980861D01*
X58892621Y-109892621D01*
X58980861Y-109777625D01*
X59036330Y-109643709D01*
X59051959Y-109525000D01*
X64694750Y-109525000D01*
X64710378Y-109643708D01*
X64713670Y-109668708D01*
X64713671Y-109668712D01*
X64769137Y-109802622D01*
X64769138Y-109802624D01*
X64769139Y-109802625D01*
X64857379Y-109917621D01*
X64972375Y-110005861D01*
X65106291Y-110061330D01*
X65233280Y-110078048D01*
X65249999Y-110080250D01*
X65250000Y-110080250D01*
X65250001Y-110080250D01*
X65264977Y-110078278D01*
X65393709Y-110061330D01*
X65527625Y-110005861D01*
X65535263Y-110000000D01*
X66194750Y-110000000D01*
X66203434Y-110065964D01*
X66213670Y-110143708D01*
X66213671Y-110143712D01*
X66269137Y-110277622D01*
X66269138Y-110277624D01*
X66269139Y-110277625D01*
X66357379Y-110392621D01*
X66472375Y-110480861D01*
X66606291Y-110536330D01*
X66733280Y-110553048D01*
X66749999Y-110555250D01*
X66750000Y-110555250D01*
X66750001Y-110555250D01*
X66764977Y-110553278D01*
X66893709Y-110536330D01*
X67027625Y-110480861D01*
X67142621Y-110392621D01*
X67230861Y-110277625D01*
X67286330Y-110143709D01*
X67305250Y-110000000D01*
X67286330Y-109856291D01*
X67245485Y-109757682D01*
X67230862Y-109722377D01*
X67230861Y-109722376D01*
X67230861Y-109722375D01*
X67142621Y-109607379D01*
X67027625Y-109519139D01*
X67027624Y-109519138D01*
X67027622Y-109519137D01*
X66893712Y-109463671D01*
X66893710Y-109463670D01*
X66893709Y-109463670D01*
X66821854Y-109454210D01*
X66750001Y-109444750D01*
X66749999Y-109444750D01*
X66606291Y-109463670D01*
X66606287Y-109463671D01*
X66472377Y-109519137D01*
X66357379Y-109607379D01*
X66269137Y-109722377D01*
X66213671Y-109856287D01*
X66213670Y-109856291D01*
X66197270Y-109980862D01*
X66194750Y-110000000D01*
X65535263Y-110000000D01*
X65642621Y-109917621D01*
X65730861Y-109802625D01*
X65786330Y-109668709D01*
X65805250Y-109525000D01*
X65804689Y-109520742D01*
X65801958Y-109499999D01*
X65786330Y-109381291D01*
X65730861Y-109247375D01*
X65642621Y-109132379D01*
X65527625Y-109044139D01*
X65527624Y-109044138D01*
X65527622Y-109044137D01*
X65393712Y-108988671D01*
X65393710Y-108988670D01*
X65393709Y-108988670D01*
X65321854Y-108979210D01*
X65250001Y-108969750D01*
X65249999Y-108969750D01*
X65106291Y-108988670D01*
X65106287Y-108988671D01*
X64972377Y-109044137D01*
X64857379Y-109132379D01*
X64769137Y-109247377D01*
X64713671Y-109381287D01*
X64713670Y-109381291D01*
X64695311Y-109520742D01*
X64694750Y-109525000D01*
X59051959Y-109525000D01*
X59055250Y-109500000D01*
X59036330Y-109356291D01*
X58991216Y-109247375D01*
X58980862Y-109222377D01*
X58980861Y-109222376D01*
X58980861Y-109222375D01*
X58892621Y-109107379D01*
X58777625Y-109019139D01*
X58777624Y-109019138D01*
X58777622Y-109019137D01*
X58643712Y-108963671D01*
X58643710Y-108963670D01*
X58643709Y-108963670D01*
X58571619Y-108954179D01*
X58500001Y-108944750D01*
X58499999Y-108944750D01*
X58356291Y-108963670D01*
X58356287Y-108963671D01*
X58222377Y-109019137D01*
X58107379Y-109107379D01*
X58019137Y-109222377D01*
X57963671Y-109356287D01*
X57963670Y-109356291D01*
X57944750Y-109499999D01*
X57944750Y-109500000D01*
X57231419Y-109500000D01*
X57277625Y-109480861D01*
X57392621Y-109392621D01*
X57480861Y-109277625D01*
X57536330Y-109143709D01*
X57555250Y-109000000D01*
X57553758Y-108988671D01*
X57550467Y-108963670D01*
X57536330Y-108856291D01*
X57492693Y-108750940D01*
X57492304Y-108750000D01*
X61929750Y-108750000D01*
X61948670Y-108893708D01*
X61948671Y-108893712D01*
X62004137Y-109027622D01*
X62004138Y-109027624D01*
X62004139Y-109027625D01*
X62092379Y-109142621D01*
X62207375Y-109230861D01*
X62341291Y-109286330D01*
X62468280Y-109303048D01*
X62484999Y-109305250D01*
X62485000Y-109305250D01*
X62485001Y-109305250D01*
X62499977Y-109303278D01*
X62628709Y-109286330D01*
X62762625Y-109230861D01*
X62877621Y-109142621D01*
X62965861Y-109027625D01*
X63021330Y-108893709D01*
X63040250Y-108750000D01*
X68929750Y-108750000D01*
X68948670Y-108893708D01*
X68948671Y-108893712D01*
X69004137Y-109027622D01*
X69004138Y-109027624D01*
X69004139Y-109027625D01*
X69092379Y-109142621D01*
X69207375Y-109230861D01*
X69341291Y-109286330D01*
X69468280Y-109303048D01*
X69484999Y-109305250D01*
X69485000Y-109305250D01*
X69485001Y-109305250D01*
X69499977Y-109303278D01*
X69628709Y-109286330D01*
X69762625Y-109230861D01*
X69877621Y-109142621D01*
X69965861Y-109027625D01*
X70021330Y-108893709D01*
X70040250Y-108750000D01*
X70021330Y-108606291D01*
X69981996Y-108511328D01*
X69966252Y-108473318D01*
X71353470Y-108473318D01*
X71358474Y-108511330D01*
X71372390Y-108617026D01*
X71372391Y-108617030D01*
X71427857Y-108750940D01*
X71427858Y-108750942D01*
X71427859Y-108750943D01*
X71516099Y-108865939D01*
X71631095Y-108954179D01*
X71631096Y-108954179D01*
X71631097Y-108954180D01*
X71654011Y-108963671D01*
X71765011Y-109009648D01*
X71892000Y-109026366D01*
X71908719Y-109028568D01*
X71908720Y-109028568D01*
X71908721Y-109028568D01*
X71944647Y-109023838D01*
X72052429Y-109009648D01*
X72094933Y-108992042D01*
X72164397Y-108984574D01*
X72226877Y-109015848D01*
X72262530Y-109075937D01*
X72263999Y-109082411D01*
X72264699Y-109085930D01*
X72264699Y-109085932D01*
X72264700Y-109085934D01*
X72324768Y-109283954D01*
X72422315Y-109466450D01*
X72427179Y-109472377D01*
X72553589Y-109626410D01*
X72605135Y-109668712D01*
X72713550Y-109757685D01*
X72896046Y-109855232D01*
X73094066Y-109915300D01*
X73094065Y-109915300D01*
X73117621Y-109917620D01*
X73248392Y-109930500D01*
X73248395Y-109930500D01*
X74151605Y-109930500D01*
X74151608Y-109930500D01*
X74305934Y-109915300D01*
X74503954Y-109855232D01*
X74686450Y-109757685D01*
X74846410Y-109626410D01*
X74977685Y-109466450D01*
X75075232Y-109283954D01*
X75135300Y-109085934D01*
X75155583Y-108880000D01*
X79864417Y-108880000D01*
X79884699Y-109085932D01*
X79914734Y-109184944D01*
X79944768Y-109283954D01*
X80042315Y-109466450D01*
X80047179Y-109472377D01*
X80173589Y-109626410D01*
X80225135Y-109668712D01*
X80333550Y-109757685D01*
X80516046Y-109855232D01*
X80714066Y-109915300D01*
X80714065Y-109915300D01*
X80737621Y-109917620D01*
X80868392Y-109930500D01*
X80868395Y-109930500D01*
X81771605Y-109930500D01*
X81771608Y-109930500D01*
X81925934Y-109915300D01*
X82123954Y-109855232D01*
X82306450Y-109757685D01*
X82315814Y-109750000D01*
X106694750Y-109750000D01*
X106713670Y-109893708D01*
X106713671Y-109893712D01*
X106769137Y-110027622D01*
X106769138Y-110027624D01*
X106769139Y-110027625D01*
X106857379Y-110142621D01*
X106972375Y-110230861D01*
X107106291Y-110286330D01*
X107230122Y-110302633D01*
X107249999Y-110305250D01*
X107250000Y-110305250D01*
X107250001Y-110305250D01*
X107264977Y-110303278D01*
X107393709Y-110286330D01*
X107527625Y-110230861D01*
X107642621Y-110142621D01*
X107730861Y-110027625D01*
X107786330Y-109893709D01*
X107794394Y-109832455D01*
X107822660Y-109768559D01*
X107880985Y-109730088D01*
X107950850Y-109729257D01*
X108010073Y-109766329D01*
X108015709Y-109773154D01*
X108019138Y-109777622D01*
X108019139Y-109777625D01*
X108107379Y-109892621D01*
X108222375Y-109980861D01*
X108356291Y-110036330D01*
X108483280Y-110053048D01*
X108499999Y-110055250D01*
X108500000Y-110055250D01*
X108500001Y-110055250D01*
X108514977Y-110053278D01*
X108643709Y-110036330D01*
X108777625Y-109980861D01*
X108892621Y-109892621D01*
X108980861Y-109777625D01*
X109036330Y-109643709D01*
X109055250Y-109500000D01*
X109036330Y-109356291D01*
X108991216Y-109247375D01*
X108980862Y-109222377D01*
X108980861Y-109222376D01*
X108980861Y-109222375D01*
X108892621Y-109107379D01*
X108777625Y-109019139D01*
X108777624Y-109019138D01*
X108777622Y-109019137D01*
X108643712Y-108963671D01*
X108643710Y-108963670D01*
X108643709Y-108963670D01*
X108571619Y-108954179D01*
X108500001Y-108944750D01*
X108499999Y-108944750D01*
X108356291Y-108963670D01*
X108356287Y-108963671D01*
X108222377Y-109019137D01*
X108107379Y-109107379D01*
X108019137Y-109222377D01*
X107963671Y-109356287D01*
X107963670Y-109356291D01*
X107955605Y-109417545D01*
X107927337Y-109481441D01*
X107869012Y-109519912D01*
X107799147Y-109520742D01*
X107739925Y-109483669D01*
X107734290Y-109476845D01*
X107730862Y-109472377D01*
X107730861Y-109472375D01*
X107642621Y-109357379D01*
X107527625Y-109269139D01*
X107527624Y-109269138D01*
X107527622Y-109269137D01*
X107393712Y-109213671D01*
X107393710Y-109213670D01*
X107393709Y-109213670D01*
X107321854Y-109204210D01*
X107250001Y-109194750D01*
X107249999Y-109194750D01*
X107106291Y-109213670D01*
X107106287Y-109213671D01*
X106972377Y-109269137D01*
X106857379Y-109357379D01*
X106769137Y-109472377D01*
X106713671Y-109606287D01*
X106713670Y-109606291D01*
X106694750Y-109749999D01*
X106694750Y-109750000D01*
X82315814Y-109750000D01*
X82466410Y-109626410D01*
X82597685Y-109466450D01*
X82695232Y-109283954D01*
X82755300Y-109085934D01*
X82775583Y-108880000D01*
X82755300Y-108674066D01*
X82702498Y-108500000D01*
X126194750Y-108500000D01*
X126213670Y-108643708D01*
X126213671Y-108643712D01*
X126269137Y-108777622D01*
X126269138Y-108777624D01*
X126269139Y-108777625D01*
X126357379Y-108892621D01*
X126472375Y-108980861D01*
X126606291Y-109036330D01*
X126733280Y-109053048D01*
X126749999Y-109055250D01*
X126750000Y-109055250D01*
X126750001Y-109055250D01*
X126764977Y-109053278D01*
X126893709Y-109036330D01*
X127027625Y-108980861D01*
X127142621Y-108892621D01*
X127230861Y-108777625D01*
X127286330Y-108643709D01*
X127305250Y-108500000D01*
X127286330Y-108356291D01*
X127230861Y-108222375D01*
X127142621Y-108107379D01*
X127027625Y-108019139D01*
X127027624Y-108019138D01*
X127027622Y-108019137D01*
X126893712Y-107963671D01*
X126893710Y-107963670D01*
X126893709Y-107963670D01*
X126821854Y-107954210D01*
X126750001Y-107944750D01*
X126749999Y-107944750D01*
X126606291Y-107963670D01*
X126606287Y-107963671D01*
X126472377Y-108019137D01*
X126357379Y-108107379D01*
X126269137Y-108222377D01*
X126213671Y-108356287D01*
X126213670Y-108356291D01*
X126194750Y-108499999D01*
X126194750Y-108500000D01*
X82702498Y-108500000D01*
X82695232Y-108476046D01*
X82597685Y-108293550D01*
X82539274Y-108222375D01*
X82466410Y-108133589D01*
X82306452Y-108002317D01*
X82306453Y-108002317D01*
X82306450Y-108002315D01*
X82123954Y-107904768D01*
X81925934Y-107844700D01*
X81925932Y-107844699D01*
X81925934Y-107844699D01*
X81806805Y-107832966D01*
X81771608Y-107829500D01*
X80868392Y-107829500D01*
X80830298Y-107833251D01*
X80714067Y-107844699D01*
X80516043Y-107904769D01*
X80405898Y-107963643D01*
X80333550Y-108002315D01*
X80333548Y-108002316D01*
X80333547Y-108002317D01*
X80173589Y-108133589D01*
X80042317Y-108293547D01*
X79944769Y-108476043D01*
X79884699Y-108674067D01*
X79864417Y-108880000D01*
X75155583Y-108880000D01*
X75135300Y-108674066D01*
X75075232Y-108476046D01*
X74977685Y-108293550D01*
X74919274Y-108222375D01*
X74846410Y-108133589D01*
X74686452Y-108002317D01*
X74686453Y-108002317D01*
X74686450Y-108002315D01*
X74503954Y-107904768D01*
X74305934Y-107844700D01*
X74305932Y-107844699D01*
X74305934Y-107844699D01*
X74186805Y-107832966D01*
X74151608Y-107829500D01*
X73248392Y-107829500D01*
X73210298Y-107833251D01*
X73094067Y-107844699D01*
X72896043Y-107904769D01*
X72785898Y-107963643D01*
X72713550Y-108002315D01*
X72713548Y-108002316D01*
X72713547Y-108002317D01*
X72553588Y-108133591D01*
X72543318Y-108146105D01*
X72485572Y-108185439D01*
X72415727Y-108187308D01*
X72355959Y-108151120D01*
X72349090Y-108142925D01*
X72341926Y-108133589D01*
X72301341Y-108080697D01*
X72186345Y-107992457D01*
X72186344Y-107992456D01*
X72186342Y-107992455D01*
X72052432Y-107936989D01*
X72052430Y-107936988D01*
X72052429Y-107936988D01*
X71980574Y-107927528D01*
X71908721Y-107918068D01*
X71908719Y-107918068D01*
X71765011Y-107936988D01*
X71765007Y-107936989D01*
X71631097Y-107992455D01*
X71516099Y-108080697D01*
X71427857Y-108195695D01*
X71372391Y-108329605D01*
X71372390Y-108329609D01*
X71367386Y-108367621D01*
X71353470Y-108473318D01*
X69966252Y-108473318D01*
X69965862Y-108472377D01*
X69965861Y-108472376D01*
X69965861Y-108472375D01*
X69877621Y-108357379D01*
X69762625Y-108269139D01*
X69762624Y-108269138D01*
X69762622Y-108269137D01*
X69628712Y-108213671D01*
X69628710Y-108213670D01*
X69628709Y-108213670D01*
X69556854Y-108204210D01*
X69485001Y-108194750D01*
X69484999Y-108194750D01*
X69341291Y-108213670D01*
X69341287Y-108213671D01*
X69207377Y-108269137D01*
X69092379Y-108357379D01*
X69004137Y-108472377D01*
X68948671Y-108606287D01*
X68948670Y-108606291D01*
X68929750Y-108749999D01*
X68929750Y-108750000D01*
X63040250Y-108750000D01*
X63021330Y-108606291D01*
X62981996Y-108511328D01*
X62965862Y-108472377D01*
X62965861Y-108472376D01*
X62965861Y-108472375D01*
X62877621Y-108357379D01*
X62762625Y-108269139D01*
X62762624Y-108269138D01*
X62762622Y-108269137D01*
X62628712Y-108213671D01*
X62628710Y-108213670D01*
X62628709Y-108213670D01*
X62556854Y-108204210D01*
X62485001Y-108194750D01*
X62484999Y-108194750D01*
X62341291Y-108213670D01*
X62341287Y-108213671D01*
X62207377Y-108269137D01*
X62092379Y-108357379D01*
X62004137Y-108472377D01*
X61948671Y-108606287D01*
X61948670Y-108606291D01*
X61929750Y-108749999D01*
X61929750Y-108750000D01*
X57492304Y-108750000D01*
X57480862Y-108722377D01*
X57480861Y-108722376D01*
X57480861Y-108722375D01*
X57392621Y-108607379D01*
X57277625Y-108519139D01*
X57277624Y-108519138D01*
X57277622Y-108519137D01*
X57143712Y-108463671D01*
X57143710Y-108463670D01*
X57143709Y-108463670D01*
X57071854Y-108454210D01*
X57000001Y-108444750D01*
X56999999Y-108444750D01*
X56856291Y-108463670D01*
X56856287Y-108463671D01*
X56722377Y-108519137D01*
X56607379Y-108607379D01*
X56519137Y-108722377D01*
X56463671Y-108856287D01*
X56463670Y-108856291D01*
X56445798Y-108992043D01*
X56444750Y-109000000D01*
X50500500Y-109000000D01*
X50500500Y-107975000D01*
X64194750Y-107975000D01*
X64213670Y-108118708D01*
X64213671Y-108118712D01*
X64269137Y-108252622D01*
X64269138Y-108252624D01*
X64269139Y-108252625D01*
X64357379Y-108367621D01*
X64472375Y-108455861D01*
X64606291Y-108511330D01*
X64733280Y-108528048D01*
X64749999Y-108530250D01*
X64750000Y-108530250D01*
X64750001Y-108530250D01*
X64764977Y-108528278D01*
X64893709Y-108511330D01*
X65027625Y-108455861D01*
X65142621Y-108367621D01*
X65230861Y-108252625D01*
X65286330Y-108118709D01*
X65305250Y-107975000D01*
X65303758Y-107963671D01*
X65301267Y-107944750D01*
X65286330Y-107831291D01*
X65230861Y-107697375D01*
X65142621Y-107582379D01*
X65027625Y-107494139D01*
X65027624Y-107494138D01*
X65027622Y-107494137D01*
X64893712Y-107438671D01*
X64893710Y-107438670D01*
X64893709Y-107438670D01*
X64821854Y-107429210D01*
X64750001Y-107419750D01*
X64749999Y-107419750D01*
X64606291Y-107438670D01*
X64606287Y-107438671D01*
X64472377Y-107494137D01*
X64357379Y-107582379D01*
X64269137Y-107697377D01*
X64213671Y-107831287D01*
X64213670Y-107831291D01*
X64194750Y-107974999D01*
X64194750Y-107975000D01*
X50500500Y-107975000D01*
X50500500Y-106297401D01*
X50805746Y-106297401D01*
X50815745Y-106507327D01*
X50865296Y-106711578D01*
X50865298Y-106711582D01*
X50952598Y-106902743D01*
X50952601Y-106902748D01*
X50952602Y-106902750D01*
X50952604Y-106902753D01*
X51074514Y-107073952D01*
X51074515Y-107073953D01*
X51074520Y-107073959D01*
X51226620Y-107218985D01*
X51331409Y-107286329D01*
X51403428Y-107332613D01*
X51598543Y-107410725D01*
X51701729Y-107430612D01*
X51804914Y-107450500D01*
X51804915Y-107450500D01*
X52802419Y-107450500D01*
X52802425Y-107450500D01*
X52959218Y-107435528D01*
X53160875Y-107376316D01*
X53347682Y-107280011D01*
X53512886Y-107150092D01*
X53650519Y-106991256D01*
X53755604Y-106809244D01*
X53824344Y-106610633D01*
X53854254Y-106402602D01*
X53849243Y-106297401D01*
X54145746Y-106297401D01*
X54155745Y-106507327D01*
X54205296Y-106711578D01*
X54205298Y-106711582D01*
X54292598Y-106902743D01*
X54292601Y-106902748D01*
X54292602Y-106902750D01*
X54292604Y-106902753D01*
X54414514Y-107073952D01*
X54414515Y-107073953D01*
X54414520Y-107073959D01*
X54566620Y-107218985D01*
X54671409Y-107286329D01*
X54743428Y-107332613D01*
X54938543Y-107410725D01*
X55041729Y-107430612D01*
X55144914Y-107450500D01*
X55144915Y-107450500D01*
X56142419Y-107450500D01*
X56142425Y-107450500D01*
X56299218Y-107435528D01*
X56500875Y-107376316D01*
X56687682Y-107280011D01*
X56852886Y-107150092D01*
X56990519Y-106991256D01*
X57095604Y-106809244D01*
X57164344Y-106610633D01*
X57194254Y-106402602D01*
X57184254Y-106192670D01*
X57149642Y-106050000D01*
X65194750Y-106050000D01*
X65213533Y-106192672D01*
X65213670Y-106193708D01*
X65213671Y-106193712D01*
X65269137Y-106327622D01*
X65269138Y-106327624D01*
X65269139Y-106327625D01*
X65357379Y-106442621D01*
X65472375Y-106530861D01*
X65472376Y-106530861D01*
X65472377Y-106530862D01*
X65508760Y-106545932D01*
X65606291Y-106586330D01*
X65733280Y-106603048D01*
X65749999Y-106605250D01*
X65750000Y-106605250D01*
X65750001Y-106605250D01*
X65764977Y-106603278D01*
X65893709Y-106586330D01*
X66027625Y-106530861D01*
X66142621Y-106442621D01*
X66230861Y-106327625D01*
X66286330Y-106193709D01*
X66305250Y-106050000D01*
X66286330Y-105906291D01*
X66236641Y-105786329D01*
X66230862Y-105772377D01*
X66230861Y-105772376D01*
X66230861Y-105772375D01*
X66142621Y-105657379D01*
X66027625Y-105569139D01*
X66027624Y-105569138D01*
X66027622Y-105569137D01*
X65893712Y-105513671D01*
X65893710Y-105513670D01*
X65893709Y-105513670D01*
X65789877Y-105500000D01*
X65750001Y-105494750D01*
X65749999Y-105494750D01*
X65606291Y-105513670D01*
X65606287Y-105513671D01*
X65472377Y-105569137D01*
X65357379Y-105657379D01*
X65269137Y-105772377D01*
X65213671Y-105906287D01*
X65213670Y-105906291D01*
X65194750Y-106050000D01*
X57149642Y-106050000D01*
X57134704Y-105988424D01*
X57110784Y-105936046D01*
X57047401Y-105797256D01*
X57047398Y-105797251D01*
X57047397Y-105797250D01*
X57047396Y-105797247D01*
X56925486Y-105626048D01*
X56925484Y-105626046D01*
X56925479Y-105626040D01*
X56773379Y-105481014D01*
X56596574Y-105367388D01*
X56590032Y-105364769D01*
X56439987Y-105304700D01*
X56401455Y-105289274D01*
X56195086Y-105249500D01*
X56195085Y-105249500D01*
X55197575Y-105249500D01*
X55040782Y-105264472D01*
X55040778Y-105264473D01*
X54839127Y-105323683D01*
X54652313Y-105419991D01*
X54487116Y-105549905D01*
X54487112Y-105549909D01*
X54349478Y-105708746D01*
X54244398Y-105890750D01*
X54175656Y-106089365D01*
X54175656Y-106089367D01*
X54147338Y-106286330D01*
X54145746Y-106297401D01*
X53849243Y-106297401D01*
X53844254Y-106192670D01*
X53794704Y-105988424D01*
X53770784Y-105936046D01*
X53707401Y-105797256D01*
X53707398Y-105797251D01*
X53707397Y-105797250D01*
X53707396Y-105797247D01*
X53585486Y-105626048D01*
X53585484Y-105626046D01*
X53585479Y-105626040D01*
X53433379Y-105481014D01*
X53256574Y-105367388D01*
X53250032Y-105364769D01*
X53099987Y-105304700D01*
X53061455Y-105289274D01*
X52855086Y-105249500D01*
X52855085Y-105249500D01*
X51857575Y-105249500D01*
X51700782Y-105264472D01*
X51700778Y-105264473D01*
X51499127Y-105323683D01*
X51312313Y-105419991D01*
X51147116Y-105549905D01*
X51147112Y-105549909D01*
X51009478Y-105708746D01*
X50904398Y-105890750D01*
X50835656Y-106089365D01*
X50835656Y-106089367D01*
X50807338Y-106286330D01*
X50805746Y-106297401D01*
X50500500Y-106297401D01*
X50500500Y-103935000D01*
X50814706Y-103935000D01*
X50816242Y-103967254D01*
X50865770Y-104171409D01*
X50953040Y-104362507D01*
X51074889Y-104533619D01*
X51074895Y-104533625D01*
X51226932Y-104678592D01*
X51403657Y-104792166D01*
X51598685Y-104870244D01*
X51804962Y-104910000D01*
X52205000Y-104910000D01*
X52205000Y-103935000D01*
X50814706Y-103935000D01*
X50500500Y-103935000D01*
X50500500Y-103881889D01*
X52230000Y-103881889D01*
X52270507Y-104019844D01*
X52348239Y-104140798D01*
X52455000Y-104233305D01*
X52455000Y-104910000D01*
X52802398Y-104910000D01*
X52959122Y-104895034D01*
X52959126Y-104895033D01*
X53160686Y-104835850D01*
X53347414Y-104739586D01*
X53512537Y-104609731D01*
X53512540Y-104609728D01*
X53650105Y-104450969D01*
X53650114Y-104450958D01*
X53755144Y-104269039D01*
X53755147Y-104269032D01*
X53823855Y-104070516D01*
X53843340Y-103935000D01*
X54154706Y-103935000D01*
X54156242Y-103967254D01*
X54205770Y-104171409D01*
X54293040Y-104362507D01*
X54414889Y-104533619D01*
X54414895Y-104533625D01*
X54566932Y-104678592D01*
X54743657Y-104792166D01*
X54938685Y-104870244D01*
X55144962Y-104910000D01*
X55545000Y-104910000D01*
X55545000Y-104233305D01*
X55651761Y-104140798D01*
X55729493Y-104019844D01*
X55754405Y-103935000D01*
X55795000Y-103935000D01*
X55795000Y-104910000D01*
X56142398Y-104910000D01*
X56299122Y-104895034D01*
X56299126Y-104895033D01*
X56500686Y-104835850D01*
X56667213Y-104750000D01*
X58194750Y-104750000D01*
X58213670Y-104893708D01*
X58213671Y-104893712D01*
X58269137Y-105027622D01*
X58269138Y-105027624D01*
X58269139Y-105027625D01*
X58357379Y-105142621D01*
X58472375Y-105230861D01*
X58606291Y-105286330D01*
X58733280Y-105303048D01*
X58749999Y-105305250D01*
X58750000Y-105305250D01*
X58750001Y-105305250D01*
X58764977Y-105303278D01*
X58893709Y-105286330D01*
X59027625Y-105230861D01*
X59100424Y-105175000D01*
X62597562Y-105175000D01*
X62612636Y-105289500D01*
X62616482Y-105318708D01*
X62616483Y-105318712D01*
X62671949Y-105452622D01*
X62671950Y-105452624D01*
X62671951Y-105452625D01*
X62760191Y-105567621D01*
X62875187Y-105655861D01*
X62875188Y-105655861D01*
X62875189Y-105655862D01*
X62919825Y-105674350D01*
X63009103Y-105711330D01*
X63136092Y-105728048D01*
X63152811Y-105730250D01*
X63152812Y-105730250D01*
X63152813Y-105730250D01*
X63167789Y-105728278D01*
X63296521Y-105711330D01*
X63430437Y-105655861D01*
X63545433Y-105567621D01*
X63633673Y-105452625D01*
X63689142Y-105318709D01*
X63698188Y-105250000D01*
X66444750Y-105250000D01*
X66463670Y-105393708D01*
X66463671Y-105393712D01*
X66519137Y-105527622D01*
X66519138Y-105527624D01*
X66519139Y-105527625D01*
X66607379Y-105642621D01*
X66722375Y-105730861D01*
X66856291Y-105786330D01*
X66983280Y-105803048D01*
X66999999Y-105805250D01*
X67000000Y-105805250D01*
X67000001Y-105805250D01*
X67015882Y-105803159D01*
X67143709Y-105786330D01*
X67277625Y-105730861D01*
X67392621Y-105642621D01*
X67480861Y-105527625D01*
X67536330Y-105393709D01*
X67555250Y-105250000D01*
X71444750Y-105250000D01*
X71463670Y-105393708D01*
X71463671Y-105393712D01*
X71519137Y-105527622D01*
X71519138Y-105527624D01*
X71519139Y-105527625D01*
X71607379Y-105642621D01*
X71722375Y-105730861D01*
X71856291Y-105786330D01*
X71983280Y-105803048D01*
X71999999Y-105805250D01*
X72000000Y-105805250D01*
X72000001Y-105805250D01*
X72060757Y-105797251D01*
X72143709Y-105786330D01*
X72160551Y-105779353D01*
X72230017Y-105771885D01*
X72292497Y-105803159D01*
X72328150Y-105863248D01*
X72325767Y-105929982D01*
X72326537Y-105930216D01*
X72324769Y-105936043D01*
X72324768Y-105936046D01*
X72305368Y-105999999D01*
X72264699Y-106134067D01*
X72244417Y-106340000D01*
X72264699Y-106545932D01*
X72276954Y-106586330D01*
X72324768Y-106743954D01*
X72422315Y-106926450D01*
X72422317Y-106926452D01*
X72553589Y-107086410D01*
X72650209Y-107165702D01*
X72713550Y-107217685D01*
X72896046Y-107315232D01*
X73094066Y-107375300D01*
X73094065Y-107375300D01*
X73104381Y-107376316D01*
X73248392Y-107390500D01*
X73248395Y-107390500D01*
X74151605Y-107390500D01*
X74151608Y-107390500D01*
X74305934Y-107375300D01*
X74503954Y-107315232D01*
X74686450Y-107217685D01*
X74846410Y-107086410D01*
X74977685Y-106926450D01*
X75075232Y-106743954D01*
X75135300Y-106545934D01*
X75155583Y-106340000D01*
X79864417Y-106340000D01*
X79884699Y-106545932D01*
X79896954Y-106586330D01*
X79944768Y-106743954D01*
X80042315Y-106926450D01*
X80042317Y-106926452D01*
X80173589Y-107086410D01*
X80270209Y-107165702D01*
X80333550Y-107217685D01*
X80516046Y-107315232D01*
X80714066Y-107375300D01*
X80714065Y-107375300D01*
X80724381Y-107376316D01*
X80868392Y-107390500D01*
X80868395Y-107390500D01*
X81771605Y-107390500D01*
X81771608Y-107390500D01*
X81925934Y-107375300D01*
X82123954Y-107315232D01*
X82306450Y-107217685D01*
X82466410Y-107086410D01*
X82597685Y-106926450D01*
X82692000Y-106750000D01*
X86944750Y-106750000D01*
X86963670Y-106893708D01*
X86963671Y-106893712D01*
X87019137Y-107027622D01*
X87019138Y-107027624D01*
X87019139Y-107027625D01*
X87107379Y-107142621D01*
X87222375Y-107230861D01*
X87356291Y-107286330D01*
X87483280Y-107303048D01*
X87499999Y-107305250D01*
X87500000Y-107305250D01*
X87500001Y-107305250D01*
X87514977Y-107303278D01*
X87643709Y-107286330D01*
X87777625Y-107230861D01*
X87892621Y-107142621D01*
X87980861Y-107027625D01*
X87992303Y-107000000D01*
X88444750Y-107000000D01*
X88463670Y-107143708D01*
X88463671Y-107143712D01*
X88519137Y-107277622D01*
X88519138Y-107277624D01*
X88519139Y-107277625D01*
X88607379Y-107392621D01*
X88722375Y-107480861D01*
X88722376Y-107480861D01*
X88722377Y-107480862D01*
X88754431Y-107494139D01*
X88856291Y-107536330D01*
X88983280Y-107553048D01*
X88999999Y-107555250D01*
X89000000Y-107555250D01*
X89000001Y-107555250D01*
X89014977Y-107553278D01*
X89143709Y-107536330D01*
X89277625Y-107480861D01*
X89392621Y-107392621D01*
X89480861Y-107277625D01*
X89536330Y-107143709D01*
X89555250Y-107000000D01*
X89536330Y-106856291D01*
X89499350Y-106767013D01*
X89480862Y-106722377D01*
X89480861Y-106722376D01*
X89480861Y-106722375D01*
X89392621Y-106607379D01*
X89277625Y-106519139D01*
X89277624Y-106519138D01*
X89277622Y-106519137D01*
X89143712Y-106463671D01*
X89143710Y-106463670D01*
X89143709Y-106463670D01*
X89071854Y-106454210D01*
X89000001Y-106444750D01*
X88999999Y-106444750D01*
X88856291Y-106463670D01*
X88856287Y-106463671D01*
X88722377Y-106519137D01*
X88607379Y-106607379D01*
X88519137Y-106722377D01*
X88463671Y-106856287D01*
X88463670Y-106856291D01*
X88444750Y-106999999D01*
X88444750Y-107000000D01*
X87992303Y-107000000D01*
X88036330Y-106893709D01*
X88055250Y-106750000D01*
X88036330Y-106606291D01*
X87993071Y-106501852D01*
X87980862Y-106472377D01*
X87980861Y-106472376D01*
X87980861Y-106472375D01*
X87892621Y-106357379D01*
X87777625Y-106269139D01*
X87777624Y-106269138D01*
X87777622Y-106269137D01*
X87643712Y-106213671D01*
X87643710Y-106213670D01*
X87643709Y-106213670D01*
X87571854Y-106204210D01*
X87500001Y-106194750D01*
X87499999Y-106194750D01*
X87356291Y-106213670D01*
X87356287Y-106213671D01*
X87222377Y-106269137D01*
X87107379Y-106357379D01*
X87019137Y-106472377D01*
X86963671Y-106606287D01*
X86963670Y-106606291D01*
X86944750Y-106749999D01*
X86944750Y-106750000D01*
X82692000Y-106750000D01*
X82695232Y-106743954D01*
X82755300Y-106545934D01*
X82775583Y-106340000D01*
X82755300Y-106134066D01*
X82695232Y-105936046D01*
X82597685Y-105753550D01*
X82594772Y-105750000D01*
X82944750Y-105750000D01*
X82963280Y-105890750D01*
X82963670Y-105893708D01*
X82963671Y-105893712D01*
X83019137Y-106027622D01*
X83019138Y-106027624D01*
X83019139Y-106027625D01*
X83107379Y-106142621D01*
X83222375Y-106230861D01*
X83356291Y-106286330D01*
X83483280Y-106303048D01*
X83499999Y-106305250D01*
X83500000Y-106305250D01*
X83500001Y-106305250D01*
X83514977Y-106303278D01*
X83643709Y-106286330D01*
X83777625Y-106230861D01*
X83892621Y-106142621D01*
X83980861Y-106027625D01*
X83992303Y-106000000D01*
X97444750Y-106000000D01*
X97462400Y-106134066D01*
X97463670Y-106143708D01*
X97463671Y-106143712D01*
X97519137Y-106277622D01*
X97519138Y-106277624D01*
X97519139Y-106277625D01*
X97607379Y-106392621D01*
X97722375Y-106480861D01*
X97856291Y-106536330D01*
X97983280Y-106553048D01*
X97999999Y-106555250D01*
X98000000Y-106555250D01*
X98000001Y-106555250D01*
X98014977Y-106553278D01*
X98143709Y-106536330D01*
X98277625Y-106480861D01*
X98277627Y-106480859D01*
X98284419Y-106478046D01*
X98353889Y-106470577D01*
X98416368Y-106501852D01*
X98452020Y-106561941D01*
X98454811Y-106576421D01*
X98463670Y-106643707D01*
X98463671Y-106643712D01*
X98519137Y-106777622D01*
X98519138Y-106777624D01*
X98519139Y-106777625D01*
X98607379Y-106892621D01*
X98722375Y-106980861D01*
X98856291Y-107036330D01*
X98983280Y-107053048D01*
X98999999Y-107055250D01*
X99000000Y-107055250D01*
X99000001Y-107055250D01*
X99014977Y-107053278D01*
X99143709Y-107036330D01*
X99277625Y-106980861D01*
X99392621Y-106892621D01*
X99480861Y-106777625D01*
X99536330Y-106643709D01*
X99555250Y-106500000D01*
X99536330Y-106356291D01*
X99499350Y-106267013D01*
X99480862Y-106222377D01*
X99480861Y-106222376D01*
X99480861Y-106222375D01*
X99392621Y-106107379D01*
X99277625Y-106019139D01*
X99277624Y-106019138D01*
X99277622Y-106019137D01*
X99231420Y-106000000D01*
X106694750Y-106000000D01*
X106712400Y-106134066D01*
X106713670Y-106143708D01*
X106713671Y-106143712D01*
X106769137Y-106277622D01*
X106769138Y-106277624D01*
X106769139Y-106277625D01*
X106857379Y-106392621D01*
X106972375Y-106480861D01*
X107106291Y-106536330D01*
X107233280Y-106553048D01*
X107249999Y-106555250D01*
X107250000Y-106555250D01*
X107250001Y-106555250D01*
X107264977Y-106553278D01*
X107393709Y-106536330D01*
X107527625Y-106480861D01*
X107642621Y-106392621D01*
X107730861Y-106277625D01*
X107786330Y-106143709D01*
X107805250Y-106000000D01*
X108194750Y-106000000D01*
X108212400Y-106134066D01*
X108213670Y-106143708D01*
X108213671Y-106143712D01*
X108269137Y-106277622D01*
X108269138Y-106277624D01*
X108269139Y-106277625D01*
X108357379Y-106392621D01*
X108472375Y-106480861D01*
X108606291Y-106536330D01*
X108733280Y-106553048D01*
X108749999Y-106555250D01*
X108750000Y-106555250D01*
X108750001Y-106555250D01*
X108764977Y-106553278D01*
X108893709Y-106536330D01*
X109027625Y-106480861D01*
X109142621Y-106392621D01*
X109215686Y-106297401D01*
X125805746Y-106297401D01*
X125815745Y-106507327D01*
X125865296Y-106711578D01*
X125865298Y-106711582D01*
X125952598Y-106902743D01*
X125952601Y-106902748D01*
X125952602Y-106902750D01*
X125952604Y-106902753D01*
X126074514Y-107073952D01*
X126074515Y-107073953D01*
X126074520Y-107073959D01*
X126226620Y-107218985D01*
X126331409Y-107286329D01*
X126403428Y-107332613D01*
X126598543Y-107410725D01*
X126701729Y-107430612D01*
X126804914Y-107450500D01*
X126804915Y-107450500D01*
X127802419Y-107450500D01*
X127802425Y-107450500D01*
X127959218Y-107435528D01*
X128160875Y-107376316D01*
X128347682Y-107280011D01*
X128512886Y-107150092D01*
X128650519Y-106991256D01*
X128755604Y-106809244D01*
X128824344Y-106610633D01*
X128854254Y-106402602D01*
X128849243Y-106297401D01*
X129145746Y-106297401D01*
X129155745Y-106507327D01*
X129205296Y-106711578D01*
X129205298Y-106711582D01*
X129292598Y-106902743D01*
X129292601Y-106902748D01*
X129292602Y-106902750D01*
X129292604Y-106902753D01*
X129414514Y-107073952D01*
X129414515Y-107073953D01*
X129414520Y-107073959D01*
X129566620Y-107218985D01*
X129671409Y-107286329D01*
X129743428Y-107332613D01*
X129938543Y-107410725D01*
X130041729Y-107430612D01*
X130144914Y-107450500D01*
X130144915Y-107450500D01*
X131142419Y-107450500D01*
X131142425Y-107450500D01*
X131299218Y-107435528D01*
X131500875Y-107376316D01*
X131687682Y-107280011D01*
X131852886Y-107150092D01*
X131990519Y-106991256D01*
X132095604Y-106809244D01*
X132164344Y-106610633D01*
X132194254Y-106402602D01*
X132184254Y-106192670D01*
X132134704Y-105988424D01*
X132110784Y-105936046D01*
X132047401Y-105797256D01*
X132047398Y-105797251D01*
X132047397Y-105797250D01*
X132047396Y-105797247D01*
X131925486Y-105626048D01*
X131925484Y-105626046D01*
X131925479Y-105626040D01*
X131773379Y-105481014D01*
X131596574Y-105367388D01*
X131590032Y-105364769D01*
X131439987Y-105304700D01*
X131401455Y-105289274D01*
X131195086Y-105249500D01*
X131195085Y-105249500D01*
X130197575Y-105249500D01*
X130040782Y-105264472D01*
X130040778Y-105264473D01*
X129839127Y-105323683D01*
X129652313Y-105419991D01*
X129487116Y-105549905D01*
X129487112Y-105549909D01*
X129349478Y-105708746D01*
X129244398Y-105890750D01*
X129175656Y-106089365D01*
X129175656Y-106089367D01*
X129147338Y-106286330D01*
X129145746Y-106297401D01*
X128849243Y-106297401D01*
X128844254Y-106192670D01*
X128794704Y-105988424D01*
X128770784Y-105936046D01*
X128707401Y-105797256D01*
X128707398Y-105797251D01*
X128707397Y-105797250D01*
X128707396Y-105797247D01*
X128585486Y-105626048D01*
X128585484Y-105626046D01*
X128585479Y-105626040D01*
X128433379Y-105481014D01*
X128256574Y-105367388D01*
X128250032Y-105364769D01*
X128099987Y-105304700D01*
X128061455Y-105289274D01*
X127855086Y-105249500D01*
X127855085Y-105249500D01*
X126857575Y-105249500D01*
X126700782Y-105264472D01*
X126700778Y-105264473D01*
X126499127Y-105323683D01*
X126312313Y-105419991D01*
X126147116Y-105549905D01*
X126147112Y-105549909D01*
X126009478Y-105708746D01*
X125904398Y-105890750D01*
X125835656Y-106089365D01*
X125835656Y-106089367D01*
X125807338Y-106286330D01*
X125805746Y-106297401D01*
X109215686Y-106297401D01*
X109230861Y-106277625D01*
X109286330Y-106143709D01*
X109305250Y-106000000D01*
X109286330Y-105856291D01*
X109243773Y-105753547D01*
X109230862Y-105722377D01*
X109230861Y-105722376D01*
X109230861Y-105722375D01*
X109142621Y-105607379D01*
X109027625Y-105519139D01*
X109027624Y-105519138D01*
X109027622Y-105519137D01*
X108893712Y-105463671D01*
X108893710Y-105463670D01*
X108893709Y-105463670D01*
X108821854Y-105454210D01*
X108750001Y-105444750D01*
X108749999Y-105444750D01*
X108606291Y-105463670D01*
X108606287Y-105463671D01*
X108472377Y-105519137D01*
X108357379Y-105607379D01*
X108269137Y-105722377D01*
X108213671Y-105856287D01*
X108213670Y-105856291D01*
X108197270Y-105980862D01*
X108194750Y-106000000D01*
X107805250Y-106000000D01*
X107786330Y-105856291D01*
X107743773Y-105753547D01*
X107730862Y-105722377D01*
X107730861Y-105722376D01*
X107730861Y-105722375D01*
X107642621Y-105607379D01*
X107527625Y-105519139D01*
X107527624Y-105519138D01*
X107527622Y-105519137D01*
X107393712Y-105463671D01*
X107393710Y-105463670D01*
X107393709Y-105463670D01*
X107321854Y-105454210D01*
X107250001Y-105444750D01*
X107249999Y-105444750D01*
X107106291Y-105463670D01*
X107106287Y-105463671D01*
X106972377Y-105519137D01*
X106857379Y-105607379D01*
X106769137Y-105722377D01*
X106713671Y-105856287D01*
X106713670Y-105856291D01*
X106697270Y-105980862D01*
X106694750Y-106000000D01*
X99231420Y-106000000D01*
X99143712Y-105963671D01*
X99143710Y-105963670D01*
X99143709Y-105963670D01*
X99071854Y-105954210D01*
X99000001Y-105944750D01*
X98999999Y-105944750D01*
X98856293Y-105963669D01*
X98715579Y-106021954D01*
X98646109Y-106029422D01*
X98583630Y-105998146D01*
X98547978Y-105938057D01*
X98545189Y-105923585D01*
X98536330Y-105856291D01*
X98493773Y-105753547D01*
X98480862Y-105722377D01*
X98480861Y-105722376D01*
X98480861Y-105722375D01*
X98392621Y-105607379D01*
X98277625Y-105519139D01*
X98277624Y-105519138D01*
X98277622Y-105519137D01*
X98143712Y-105463671D01*
X98143710Y-105463670D01*
X98143709Y-105463670D01*
X98071854Y-105454210D01*
X98000001Y-105444750D01*
X97999999Y-105444750D01*
X97856291Y-105463670D01*
X97856287Y-105463671D01*
X97722377Y-105519137D01*
X97607379Y-105607379D01*
X97519137Y-105722377D01*
X97463671Y-105856287D01*
X97463670Y-105856291D01*
X97447270Y-105980862D01*
X97444750Y-106000000D01*
X83992303Y-106000000D01*
X84036330Y-105893709D01*
X84055250Y-105750000D01*
X84036330Y-105606291D01*
X83997966Y-105513670D01*
X83980862Y-105472377D01*
X83980861Y-105472376D01*
X83980861Y-105472375D01*
X83892621Y-105357379D01*
X83777625Y-105269139D01*
X83777624Y-105269138D01*
X83777622Y-105269137D01*
X83643712Y-105213671D01*
X83643710Y-105213670D01*
X83643709Y-105213670D01*
X83571854Y-105204210D01*
X83500001Y-105194750D01*
X83499999Y-105194750D01*
X83356291Y-105213670D01*
X83356287Y-105213671D01*
X83222377Y-105269137D01*
X83107379Y-105357379D01*
X83019137Y-105472377D01*
X82963671Y-105606287D01*
X82963670Y-105606291D01*
X82947270Y-105730862D01*
X82944750Y-105750000D01*
X82594772Y-105750000D01*
X82507544Y-105643712D01*
X82466410Y-105593589D01*
X82329235Y-105481014D01*
X82306450Y-105462315D01*
X82123954Y-105364768D01*
X81925934Y-105304700D01*
X81925932Y-105304699D01*
X81925934Y-105304699D01*
X81806805Y-105292966D01*
X81771608Y-105289500D01*
X80868392Y-105289500D01*
X80830298Y-105293251D01*
X80714067Y-105304699D01*
X80516043Y-105364769D01*
X80412736Y-105419989D01*
X80333550Y-105462315D01*
X80333548Y-105462316D01*
X80333547Y-105462317D01*
X80173589Y-105593589D01*
X80060935Y-105730861D01*
X80042315Y-105753550D01*
X80015798Y-105803159D01*
X79944769Y-105936043D01*
X79884699Y-106134067D01*
X79864417Y-106340000D01*
X75155583Y-106340000D01*
X75135300Y-106134066D01*
X75075232Y-105936046D01*
X74977685Y-105753550D01*
X74887544Y-105643712D01*
X74846410Y-105593589D01*
X74732370Y-105500000D01*
X77944750Y-105500000D01*
X77957071Y-105593589D01*
X77963670Y-105643708D01*
X77963671Y-105643712D01*
X78019137Y-105777622D01*
X78019138Y-105777624D01*
X78019139Y-105777625D01*
X78107379Y-105892621D01*
X78222375Y-105980861D01*
X78222376Y-105980861D01*
X78222377Y-105980862D01*
X78240634Y-105988424D01*
X78356291Y-106036330D01*
X78483280Y-106053048D01*
X78499999Y-106055250D01*
X78500000Y-106055250D01*
X78500001Y-106055250D01*
X78514977Y-106053278D01*
X78643709Y-106036330D01*
X78777625Y-105980861D01*
X78892621Y-105892621D01*
X78980861Y-105777625D01*
X79036330Y-105643709D01*
X79055250Y-105500000D01*
X79036330Y-105356291D01*
X78998298Y-105264472D01*
X78980862Y-105222377D01*
X78980861Y-105222376D01*
X78980861Y-105222375D01*
X78892621Y-105107379D01*
X78777625Y-105019139D01*
X78777624Y-105019138D01*
X78777622Y-105019137D01*
X78643712Y-104963671D01*
X78643710Y-104963670D01*
X78643709Y-104963670D01*
X78571854Y-104954210D01*
X78500001Y-104944750D01*
X78499999Y-104944750D01*
X78356291Y-104963670D01*
X78356287Y-104963671D01*
X78222377Y-105019137D01*
X78107379Y-105107379D01*
X78019137Y-105222377D01*
X77963671Y-105356287D01*
X77963670Y-105356291D01*
X77947250Y-105481014D01*
X77944750Y-105500000D01*
X74732370Y-105500000D01*
X74709235Y-105481014D01*
X74686450Y-105462315D01*
X74503954Y-105364768D01*
X74305934Y-105304700D01*
X74305932Y-105304699D01*
X74305934Y-105304699D01*
X74186805Y-105292966D01*
X74151608Y-105289500D01*
X73248392Y-105289500D01*
X73210298Y-105293251D01*
X73094067Y-105304699D01*
X72896043Y-105364769D01*
X72792736Y-105419989D01*
X72731685Y-105452622D01*
X72726102Y-105455606D01*
X72657699Y-105469848D01*
X72592455Y-105444848D01*
X72551084Y-105388544D01*
X72544709Y-105330062D01*
X72546204Y-105318712D01*
X72555250Y-105250000D01*
X72536330Y-105106291D01*
X72480861Y-104972375D01*
X72392621Y-104857379D01*
X72277625Y-104769139D01*
X72277624Y-104769138D01*
X72277622Y-104769137D01*
X72143712Y-104713671D01*
X72143710Y-104713670D01*
X72143709Y-104713670D01*
X72071854Y-104704210D01*
X72000001Y-104694750D01*
X71999999Y-104694750D01*
X71856291Y-104713670D01*
X71856287Y-104713671D01*
X71722377Y-104769137D01*
X71607379Y-104857379D01*
X71519137Y-104972377D01*
X71463671Y-105106287D01*
X71463670Y-105106291D01*
X71444750Y-105249999D01*
X71444750Y-105250000D01*
X67555250Y-105250000D01*
X67536330Y-105106291D01*
X67480861Y-104972375D01*
X67392621Y-104857379D01*
X67277625Y-104769139D01*
X67277624Y-104769138D01*
X67277622Y-104769137D01*
X67143712Y-104713671D01*
X67143710Y-104713670D01*
X67143709Y-104713670D01*
X67071854Y-104704210D01*
X67000001Y-104694750D01*
X66999999Y-104694750D01*
X66856291Y-104713670D01*
X66856287Y-104713671D01*
X66722377Y-104769137D01*
X66607379Y-104857379D01*
X66519137Y-104972377D01*
X66463671Y-105106287D01*
X66463670Y-105106291D01*
X66444750Y-105249999D01*
X66444750Y-105250000D01*
X63698188Y-105250000D01*
X63708062Y-105175000D01*
X63689142Y-105031291D01*
X63633673Y-104897375D01*
X63545433Y-104782379D01*
X63430437Y-104694139D01*
X63430436Y-104694138D01*
X63430434Y-104694137D01*
X63296524Y-104638671D01*
X63296522Y-104638670D01*
X63296521Y-104638670D01*
X63224666Y-104629210D01*
X63152813Y-104619750D01*
X63152811Y-104619750D01*
X63009103Y-104638670D01*
X63009099Y-104638671D01*
X62875189Y-104694137D01*
X62760191Y-104782379D01*
X62671949Y-104897377D01*
X62616483Y-105031287D01*
X62616482Y-105031291D01*
X62597562Y-105175000D01*
X59100424Y-105175000D01*
X59142621Y-105142621D01*
X59230861Y-105027625D01*
X59286330Y-104893709D01*
X59305250Y-104750000D01*
X59286330Y-104606291D01*
X59230861Y-104472375D01*
X59142621Y-104357379D01*
X59027625Y-104269139D01*
X59027624Y-104269138D01*
X59027622Y-104269137D01*
X58893712Y-104213671D01*
X58893710Y-104213670D01*
X58893709Y-104213670D01*
X58819910Y-104203954D01*
X58750001Y-104194750D01*
X58749999Y-104194750D01*
X58606291Y-104213670D01*
X58606287Y-104213671D01*
X58472377Y-104269137D01*
X58357379Y-104357379D01*
X58269137Y-104472377D01*
X58213671Y-104606287D01*
X58213670Y-104606291D01*
X58194750Y-104749999D01*
X58194750Y-104750000D01*
X56667213Y-104750000D01*
X56687414Y-104739586D01*
X56852537Y-104609731D01*
X56852540Y-104609728D01*
X56990105Y-104450969D01*
X56990114Y-104450958D01*
X57095144Y-104269039D01*
X57095147Y-104269032D01*
X57163855Y-104070516D01*
X57183340Y-103935000D01*
X55795000Y-103935000D01*
X55754405Y-103935000D01*
X55770000Y-103881889D01*
X55770000Y-103750000D01*
X61929750Y-103750000D01*
X61948670Y-103893708D01*
X61948671Y-103893712D01*
X62004137Y-104027622D01*
X62004138Y-104027624D01*
X62004139Y-104027625D01*
X62092379Y-104142621D01*
X62207375Y-104230861D01*
X62207376Y-104230861D01*
X62207377Y-104230862D01*
X62252013Y-104249350D01*
X62341291Y-104286330D01*
X62468280Y-104303048D01*
X62484999Y-104305250D01*
X62485000Y-104305250D01*
X62485001Y-104305250D01*
X62499977Y-104303278D01*
X62628709Y-104286330D01*
X62762625Y-104230861D01*
X62877621Y-104142621D01*
X62965861Y-104027625D01*
X63021330Y-103893709D01*
X63040250Y-103750000D01*
X68929750Y-103750000D01*
X68948670Y-103893708D01*
X68948671Y-103893712D01*
X69004137Y-104027622D01*
X69004138Y-104027624D01*
X69004139Y-104027625D01*
X69092379Y-104142621D01*
X69207375Y-104230861D01*
X69207376Y-104230861D01*
X69207377Y-104230862D01*
X69252013Y-104249350D01*
X69341291Y-104286330D01*
X69468280Y-104303048D01*
X69484999Y-104305250D01*
X69485000Y-104305250D01*
X69485001Y-104305250D01*
X69499977Y-104303278D01*
X69628709Y-104286330D01*
X69762625Y-104230861D01*
X69877621Y-104142621D01*
X69965861Y-104027625D01*
X70021330Y-103893709D01*
X70033667Y-103800000D01*
X72244417Y-103800000D01*
X72264699Y-104005932D01*
X72294734Y-104104944D01*
X72324768Y-104203954D01*
X72422315Y-104386450D01*
X72422317Y-104386452D01*
X72553589Y-104546410D01*
X72630747Y-104609731D01*
X72713550Y-104677685D01*
X72896046Y-104775232D01*
X73094066Y-104835300D01*
X73094065Y-104835300D01*
X73132647Y-104839100D01*
X73248392Y-104850500D01*
X73248395Y-104850500D01*
X74151605Y-104850500D01*
X74151608Y-104850500D01*
X74305934Y-104835300D01*
X74503954Y-104775232D01*
X74686450Y-104677685D01*
X74846410Y-104546410D01*
X74977685Y-104386450D01*
X75075232Y-104203954D01*
X75135300Y-104005934D01*
X75155583Y-103800000D01*
X75150658Y-103750000D01*
X77444750Y-103750000D01*
X77463670Y-103893708D01*
X77463671Y-103893712D01*
X77519137Y-104027622D01*
X77519138Y-104027624D01*
X77519139Y-104027625D01*
X77607379Y-104142621D01*
X77722375Y-104230861D01*
X77722376Y-104230861D01*
X77722377Y-104230862D01*
X77767013Y-104249350D01*
X77856291Y-104286330D01*
X77983280Y-104303048D01*
X77999999Y-104305250D01*
X78000000Y-104305250D01*
X78000001Y-104305250D01*
X78014977Y-104303278D01*
X78143709Y-104286330D01*
X78277625Y-104230861D01*
X78392621Y-104142621D01*
X78480861Y-104027625D01*
X78536330Y-103893709D01*
X78548667Y-103800000D01*
X79864417Y-103800000D01*
X79884699Y-104005932D01*
X79914734Y-104104944D01*
X79944768Y-104203954D01*
X80042315Y-104386450D01*
X80042317Y-104386452D01*
X80173589Y-104546410D01*
X80250747Y-104609731D01*
X80333550Y-104677685D01*
X80516046Y-104775232D01*
X80714066Y-104835300D01*
X80714065Y-104835300D01*
X80752647Y-104839100D01*
X80868392Y-104850500D01*
X80868395Y-104850500D01*
X81771605Y-104850500D01*
X81771608Y-104850500D01*
X81925934Y-104835300D01*
X82123954Y-104775232D01*
X82306450Y-104677685D01*
X82466410Y-104546410D01*
X82597685Y-104386450D01*
X82695232Y-104203954D01*
X82755300Y-104005934D01*
X82762286Y-103935000D01*
X125814706Y-103935000D01*
X125816242Y-103967254D01*
X125865770Y-104171409D01*
X125953040Y-104362507D01*
X126074889Y-104533619D01*
X126074895Y-104533625D01*
X126226932Y-104678592D01*
X126403657Y-104792166D01*
X126598685Y-104870244D01*
X126804962Y-104910000D01*
X127205000Y-104910000D01*
X127205000Y-103935000D01*
X125814706Y-103935000D01*
X82762286Y-103935000D01*
X82767517Y-103881889D01*
X127230000Y-103881889D01*
X127270507Y-104019844D01*
X127348239Y-104140798D01*
X127455000Y-104233305D01*
X127455000Y-104910000D01*
X127802398Y-104910000D01*
X127959122Y-104895034D01*
X127959126Y-104895033D01*
X128160686Y-104835850D01*
X128347414Y-104739586D01*
X128512537Y-104609731D01*
X128512540Y-104609728D01*
X128650105Y-104450969D01*
X128650114Y-104450958D01*
X128755144Y-104269039D01*
X128755147Y-104269032D01*
X128823855Y-104070516D01*
X128843340Y-103935000D01*
X129154706Y-103935000D01*
X129156242Y-103967254D01*
X129205770Y-104171409D01*
X129293040Y-104362507D01*
X129414889Y-104533619D01*
X129414895Y-104533625D01*
X129566932Y-104678592D01*
X129743657Y-104792166D01*
X129938685Y-104870244D01*
X130144962Y-104910000D01*
X130545000Y-104910000D01*
X130545000Y-104233305D01*
X130651761Y-104140798D01*
X130729493Y-104019844D01*
X130754405Y-103935000D01*
X130795000Y-103935000D01*
X130795000Y-104910000D01*
X131142398Y-104910000D01*
X131299122Y-104895034D01*
X131299126Y-104895033D01*
X131500686Y-104835850D01*
X131687414Y-104739586D01*
X131852537Y-104609731D01*
X131852540Y-104609728D01*
X131990105Y-104450969D01*
X131990114Y-104450958D01*
X132095144Y-104269039D01*
X132095147Y-104269032D01*
X132163855Y-104070516D01*
X132183340Y-103935000D01*
X130795000Y-103935000D01*
X130754405Y-103935000D01*
X130770000Y-103881889D01*
X130770000Y-103738111D01*
X130729493Y-103600156D01*
X130651761Y-103479202D01*
X130545000Y-103386694D01*
X130545000Y-102710000D01*
X130795000Y-102710000D01*
X130795000Y-103685000D01*
X132185294Y-103685000D01*
X132185294Y-103684999D01*
X132183757Y-103652745D01*
X132134229Y-103448590D01*
X132046959Y-103257492D01*
X131925110Y-103086380D01*
X131925104Y-103086374D01*
X131773067Y-102941407D01*
X131596342Y-102827833D01*
X131401314Y-102749755D01*
X131195038Y-102710000D01*
X130795000Y-102710000D01*
X130545000Y-102710000D01*
X130197602Y-102710000D01*
X130040877Y-102724965D01*
X130040873Y-102724966D01*
X129839313Y-102784149D01*
X129652585Y-102880413D01*
X129487462Y-103010268D01*
X129487459Y-103010271D01*
X129349894Y-103169030D01*
X129349885Y-103169041D01*
X129244855Y-103350960D01*
X129244852Y-103350967D01*
X129176144Y-103549483D01*
X129156660Y-103685000D01*
X129785595Y-103685000D01*
X129770000Y-103738111D01*
X129770000Y-103881889D01*
X129785595Y-103935000D01*
X129154706Y-103935000D01*
X128843340Y-103935000D01*
X128214405Y-103935000D01*
X128230000Y-103881889D01*
X128230000Y-103738111D01*
X128214405Y-103685000D01*
X128845294Y-103685000D01*
X128845294Y-103684999D01*
X128843757Y-103652745D01*
X128794229Y-103448590D01*
X128706959Y-103257492D01*
X128585110Y-103086380D01*
X128585104Y-103086374D01*
X128433067Y-102941407D01*
X128256342Y-102827833D01*
X128061314Y-102749755D01*
X127855038Y-102710000D01*
X127455000Y-102710000D01*
X127455000Y-103386694D01*
X127348239Y-103479202D01*
X127270507Y-103600156D01*
X127230000Y-103738111D01*
X127230000Y-103881889D01*
X82767517Y-103881889D01*
X82775583Y-103800000D01*
X82764256Y-103685000D01*
X125816660Y-103685000D01*
X127205000Y-103685000D01*
X127205000Y-102710000D01*
X126857602Y-102710000D01*
X126700877Y-102724965D01*
X126700873Y-102724966D01*
X126499313Y-102784149D01*
X126312585Y-102880413D01*
X126147462Y-103010268D01*
X126147459Y-103010271D01*
X126009894Y-103169030D01*
X126009885Y-103169041D01*
X125904855Y-103350960D01*
X125904852Y-103350967D01*
X125836144Y-103549483D01*
X125816660Y-103685000D01*
X82764256Y-103685000D01*
X82755300Y-103594066D01*
X82695232Y-103396046D01*
X82597685Y-103213550D01*
X82519854Y-103118712D01*
X82466410Y-103053589D01*
X82306452Y-102922317D01*
X82306453Y-102922317D01*
X82306450Y-102922315D01*
X82123954Y-102824768D01*
X81925934Y-102764700D01*
X81925932Y-102764699D01*
X81925934Y-102764699D01*
X81806805Y-102752966D01*
X81771608Y-102749500D01*
X80868392Y-102749500D01*
X80830298Y-102753251D01*
X80714067Y-102764699D01*
X80516043Y-102824769D01*
X80412247Y-102880250D01*
X80333550Y-102922315D01*
X80333548Y-102922316D01*
X80333547Y-102922317D01*
X80173589Y-103053589D01*
X80042317Y-103213547D01*
X80042315Y-103213550D01*
X80021429Y-103252625D01*
X79944769Y-103396043D01*
X79884699Y-103594067D01*
X79864417Y-103800000D01*
X78548667Y-103800000D01*
X78555250Y-103750000D01*
X78536330Y-103606291D01*
X78480861Y-103472375D01*
X78392621Y-103357379D01*
X78277625Y-103269139D01*
X78277624Y-103269138D01*
X78277622Y-103269137D01*
X78143712Y-103213671D01*
X78143710Y-103213670D01*
X78143709Y-103213670D01*
X78071854Y-103204210D01*
X78000001Y-103194750D01*
X77999999Y-103194750D01*
X77856291Y-103213670D01*
X77856287Y-103213671D01*
X77722377Y-103269137D01*
X77607379Y-103357379D01*
X77519137Y-103472377D01*
X77463671Y-103606287D01*
X77463670Y-103606291D01*
X77444750Y-103749999D01*
X77444750Y-103750000D01*
X75150658Y-103750000D01*
X75135300Y-103594066D01*
X75075232Y-103396046D01*
X74977685Y-103213550D01*
X74899854Y-103118712D01*
X74846410Y-103053589D01*
X74686452Y-102922317D01*
X74686453Y-102922317D01*
X74686450Y-102922315D01*
X74503954Y-102824768D01*
X74305934Y-102764700D01*
X74305932Y-102764699D01*
X74305934Y-102764699D01*
X74186805Y-102752966D01*
X74151608Y-102749500D01*
X73248392Y-102749500D01*
X73210298Y-102753251D01*
X73094067Y-102764699D01*
X72896043Y-102824769D01*
X72792247Y-102880250D01*
X72713550Y-102922315D01*
X72713548Y-102922316D01*
X72713547Y-102922317D01*
X72553589Y-103053589D01*
X72422317Y-103213547D01*
X72422315Y-103213550D01*
X72401429Y-103252625D01*
X72324769Y-103396043D01*
X72264699Y-103594067D01*
X72244417Y-103800000D01*
X70033667Y-103800000D01*
X70040250Y-103750000D01*
X70021330Y-103606291D01*
X69965861Y-103472375D01*
X69877621Y-103357379D01*
X69762625Y-103269139D01*
X69762624Y-103269138D01*
X69762622Y-103269137D01*
X69628712Y-103213671D01*
X69628710Y-103213670D01*
X69628709Y-103213670D01*
X69556854Y-103204210D01*
X69485001Y-103194750D01*
X69484999Y-103194750D01*
X69341291Y-103213670D01*
X69341287Y-103213671D01*
X69207377Y-103269137D01*
X69092379Y-103357379D01*
X69004137Y-103472377D01*
X68948671Y-103606287D01*
X68948670Y-103606291D01*
X68929750Y-103749999D01*
X68929750Y-103750000D01*
X63040250Y-103750000D01*
X63021330Y-103606291D01*
X62965861Y-103472375D01*
X62877621Y-103357379D01*
X62762625Y-103269139D01*
X62762624Y-103269138D01*
X62762622Y-103269137D01*
X62628712Y-103213671D01*
X62628710Y-103213670D01*
X62628709Y-103213670D01*
X62556854Y-103204210D01*
X62485001Y-103194750D01*
X62484999Y-103194750D01*
X62341291Y-103213670D01*
X62341287Y-103213671D01*
X62207377Y-103269137D01*
X62092379Y-103357379D01*
X62004137Y-103472377D01*
X61948671Y-103606287D01*
X61948670Y-103606291D01*
X61929750Y-103749999D01*
X61929750Y-103750000D01*
X55770000Y-103750000D01*
X55770000Y-103738111D01*
X55729493Y-103600156D01*
X55651761Y-103479202D01*
X55545000Y-103386694D01*
X55545000Y-102710000D01*
X55795000Y-102710000D01*
X55795000Y-103685000D01*
X57185294Y-103685000D01*
X57185294Y-103684999D01*
X57183757Y-103652745D01*
X57134229Y-103448590D01*
X57046959Y-103257492D01*
X56925110Y-103086380D01*
X56925104Y-103086374D01*
X56808298Y-102975000D01*
X64194750Y-102975000D01*
X64213670Y-103118708D01*
X64213671Y-103118712D01*
X64269137Y-103252622D01*
X64269138Y-103252624D01*
X64269139Y-103252625D01*
X64357379Y-103367621D01*
X64472375Y-103455861D01*
X64606291Y-103511330D01*
X64733280Y-103528048D01*
X64749999Y-103530250D01*
X64750000Y-103530250D01*
X64750001Y-103530250D01*
X64764977Y-103528278D01*
X64893709Y-103511330D01*
X65027625Y-103455861D01*
X65142621Y-103367621D01*
X65230861Y-103252625D01*
X65286330Y-103118709D01*
X65305250Y-102975000D01*
X65286330Y-102831291D01*
X65230861Y-102697375D01*
X65142621Y-102582379D01*
X65027625Y-102494139D01*
X65027624Y-102494138D01*
X65027622Y-102494137D01*
X64893712Y-102438671D01*
X64893710Y-102438670D01*
X64893709Y-102438670D01*
X64821854Y-102429210D01*
X64750001Y-102419750D01*
X64749999Y-102419750D01*
X64606291Y-102438670D01*
X64606287Y-102438671D01*
X64472377Y-102494137D01*
X64357379Y-102582379D01*
X64269137Y-102697377D01*
X64213671Y-102831287D01*
X64213670Y-102831291D01*
X64194750Y-102974999D01*
X64194750Y-102975000D01*
X56808298Y-102975000D01*
X56773067Y-102941407D01*
X56596342Y-102827833D01*
X56401314Y-102749755D01*
X56195038Y-102710000D01*
X55795000Y-102710000D01*
X55545000Y-102710000D01*
X55197602Y-102710000D01*
X55040877Y-102724965D01*
X55040873Y-102724966D01*
X54839313Y-102784149D01*
X54652585Y-102880413D01*
X54487462Y-103010268D01*
X54487459Y-103010271D01*
X54349894Y-103169030D01*
X54349885Y-103169041D01*
X54244855Y-103350960D01*
X54244852Y-103350967D01*
X54176144Y-103549483D01*
X54156660Y-103685000D01*
X54785595Y-103685000D01*
X54770000Y-103738111D01*
X54770000Y-103881889D01*
X54785595Y-103935000D01*
X54154706Y-103935000D01*
X53843340Y-103935000D01*
X53214405Y-103935000D01*
X53230000Y-103881889D01*
X53230000Y-103738111D01*
X53214405Y-103685000D01*
X53845294Y-103685000D01*
X53845294Y-103684999D01*
X53843757Y-103652745D01*
X53794229Y-103448590D01*
X53706959Y-103257492D01*
X53585110Y-103086380D01*
X53585104Y-103086374D01*
X53433067Y-102941407D01*
X53256342Y-102827833D01*
X53061314Y-102749755D01*
X52855038Y-102710000D01*
X52455000Y-102710000D01*
X52455000Y-103386694D01*
X52348239Y-103479202D01*
X52270507Y-103600156D01*
X52230000Y-103738111D01*
X52230000Y-103881889D01*
X50500500Y-103881889D01*
X50500500Y-103685000D01*
X50816660Y-103685000D01*
X52205000Y-103685000D01*
X52205000Y-102710000D01*
X51857602Y-102710000D01*
X51700877Y-102724965D01*
X51700873Y-102724966D01*
X51499313Y-102784149D01*
X51312585Y-102880413D01*
X51147462Y-103010268D01*
X51147459Y-103010271D01*
X51009894Y-103169030D01*
X51009885Y-103169041D01*
X50904855Y-103350960D01*
X50904852Y-103350967D01*
X50836144Y-103549483D01*
X50816660Y-103685000D01*
X50500500Y-103685000D01*
X50500500Y-101217401D01*
X50805746Y-101217401D01*
X50815745Y-101427327D01*
X50865296Y-101631578D01*
X50865298Y-101631582D01*
X50952598Y-101822743D01*
X50952601Y-101822748D01*
X50952602Y-101822750D01*
X50952604Y-101822753D01*
X51074514Y-101993952D01*
X51074515Y-101993953D01*
X51074520Y-101993959D01*
X51226620Y-102138985D01*
X51321578Y-102200011D01*
X51403428Y-102252613D01*
X51598543Y-102330725D01*
X51701729Y-102350612D01*
X51804914Y-102370500D01*
X51804915Y-102370500D01*
X52802419Y-102370500D01*
X52802425Y-102370500D01*
X52959218Y-102355528D01*
X53160875Y-102296316D01*
X53347682Y-102200011D01*
X53512886Y-102070092D01*
X53650519Y-101911256D01*
X53755604Y-101729244D01*
X53824344Y-101530633D01*
X53854254Y-101322602D01*
X53849243Y-101217401D01*
X54145746Y-101217401D01*
X54155745Y-101427327D01*
X54205296Y-101631578D01*
X54205298Y-101631582D01*
X54292598Y-101822743D01*
X54292601Y-101822748D01*
X54292602Y-101822750D01*
X54292604Y-101822753D01*
X54414514Y-101993952D01*
X54414515Y-101993953D01*
X54414520Y-101993959D01*
X54566620Y-102138985D01*
X54661578Y-102200011D01*
X54743428Y-102252613D01*
X54938543Y-102330725D01*
X55041729Y-102350612D01*
X55144914Y-102370500D01*
X55144915Y-102370500D01*
X56142419Y-102370500D01*
X56142425Y-102370500D01*
X56299218Y-102355528D01*
X56403187Y-102325000D01*
X77996620Y-102325000D01*
X78015540Y-102468708D01*
X78015541Y-102468712D01*
X78071007Y-102602622D01*
X78071008Y-102602624D01*
X78071009Y-102602625D01*
X78159249Y-102717621D01*
X78274245Y-102805861D01*
X78408161Y-102861330D01*
X78535150Y-102878048D01*
X78551869Y-102880250D01*
X78551870Y-102880250D01*
X78551871Y-102880250D01*
X78566847Y-102878278D01*
X78695579Y-102861330D01*
X78829495Y-102805861D01*
X78944491Y-102717621D01*
X79032731Y-102602625D01*
X79088200Y-102468709D01*
X79107120Y-102325000D01*
X79088200Y-102181291D01*
X79032731Y-102047375D01*
X78944491Y-101932379D01*
X78829495Y-101844139D01*
X78829494Y-101844138D01*
X78829492Y-101844137D01*
X78695582Y-101788671D01*
X78695580Y-101788670D01*
X78695579Y-101788670D01*
X78623724Y-101779210D01*
X78551871Y-101769750D01*
X78551869Y-101769750D01*
X78408161Y-101788670D01*
X78408157Y-101788671D01*
X78274247Y-101844137D01*
X78159249Y-101932379D01*
X78071007Y-102047377D01*
X78015541Y-102181287D01*
X78015540Y-102181291D01*
X77996620Y-102324999D01*
X77996620Y-102325000D01*
X56403187Y-102325000D01*
X56500875Y-102296316D01*
X56687682Y-102200011D01*
X56852886Y-102070092D01*
X56990519Y-101911256D01*
X57095604Y-101729244D01*
X57164344Y-101530633D01*
X57194254Y-101322602D01*
X57184254Y-101112670D01*
X57169050Y-101050000D01*
X65211969Y-101050000D01*
X65230889Y-101193708D01*
X65230890Y-101193712D01*
X65286356Y-101327622D01*
X65286357Y-101327624D01*
X65286358Y-101327625D01*
X65374598Y-101442621D01*
X65489594Y-101530861D01*
X65489595Y-101530861D01*
X65489596Y-101530862D01*
X65534232Y-101549350D01*
X65623510Y-101586330D01*
X65750499Y-101603048D01*
X65767218Y-101605250D01*
X65767219Y-101605250D01*
X65767220Y-101605250D01*
X65782196Y-101603278D01*
X65910928Y-101586330D01*
X66044844Y-101530861D01*
X66159840Y-101442621D01*
X66248080Y-101327625D01*
X66276091Y-101260000D01*
X72244417Y-101260000D01*
X72264699Y-101465932D01*
X72286054Y-101536329D01*
X72324768Y-101663954D01*
X72422315Y-101846450D01*
X72422317Y-101846452D01*
X72553589Y-102006410D01*
X72650209Y-102085702D01*
X72713550Y-102137685D01*
X72896046Y-102235232D01*
X73094066Y-102295300D01*
X73094065Y-102295300D01*
X73104381Y-102296316D01*
X73248392Y-102310500D01*
X73248395Y-102310500D01*
X74151605Y-102310500D01*
X74151608Y-102310500D01*
X74305934Y-102295300D01*
X74503954Y-102235232D01*
X74686450Y-102137685D01*
X74846410Y-102006410D01*
X74977685Y-101846450D01*
X75075232Y-101663954D01*
X75135300Y-101465934D01*
X75155583Y-101260000D01*
X75135300Y-101054066D01*
X75118899Y-101000000D01*
X76944750Y-101000000D01*
X76963670Y-101143708D01*
X76963671Y-101143712D01*
X77019137Y-101277622D01*
X77019138Y-101277624D01*
X77019139Y-101277625D01*
X77107379Y-101392621D01*
X77222375Y-101480861D01*
X77356291Y-101536330D01*
X77483280Y-101553048D01*
X77499999Y-101555250D01*
X77500000Y-101555250D01*
X77500001Y-101555250D01*
X77514977Y-101553278D01*
X77643709Y-101536330D01*
X77777625Y-101480861D01*
X77892621Y-101392621D01*
X77980861Y-101277625D01*
X77988161Y-101260000D01*
X79864417Y-101260000D01*
X79884699Y-101465932D01*
X79906054Y-101536329D01*
X79944768Y-101663954D01*
X80042315Y-101846450D01*
X80042317Y-101846452D01*
X80173589Y-102006410D01*
X80270209Y-102085702D01*
X80333550Y-102137685D01*
X80516046Y-102235232D01*
X80714066Y-102295300D01*
X80714065Y-102295300D01*
X80724381Y-102296316D01*
X80868392Y-102310500D01*
X80868395Y-102310500D01*
X81771605Y-102310500D01*
X81771608Y-102310500D01*
X81925934Y-102295300D01*
X82123954Y-102235232D01*
X82306450Y-102137685D01*
X82466410Y-102006410D01*
X82597685Y-101846450D01*
X82695232Y-101663954D01*
X82755300Y-101465934D01*
X82775583Y-101260000D01*
X82771387Y-101217401D01*
X125805746Y-101217401D01*
X125815745Y-101427327D01*
X125865296Y-101631578D01*
X125865298Y-101631582D01*
X125952598Y-101822743D01*
X125952601Y-101822748D01*
X125952602Y-101822750D01*
X125952604Y-101822753D01*
X126074514Y-101993952D01*
X126074515Y-101993953D01*
X126074520Y-101993959D01*
X126226620Y-102138985D01*
X126321578Y-102200011D01*
X126403428Y-102252613D01*
X126598543Y-102330725D01*
X126701729Y-102350612D01*
X126804914Y-102370500D01*
X126804915Y-102370500D01*
X127802419Y-102370500D01*
X127802425Y-102370500D01*
X127959218Y-102355528D01*
X128160875Y-102296316D01*
X128347682Y-102200011D01*
X128512886Y-102070092D01*
X128650519Y-101911256D01*
X128755604Y-101729244D01*
X128824344Y-101530633D01*
X128854254Y-101322602D01*
X128849243Y-101217401D01*
X129145746Y-101217401D01*
X129155745Y-101427327D01*
X129205296Y-101631578D01*
X129205298Y-101631582D01*
X129292598Y-101822743D01*
X129292601Y-101822748D01*
X129292602Y-101822750D01*
X129292604Y-101822753D01*
X129414514Y-101993952D01*
X129414515Y-101993953D01*
X129414520Y-101993959D01*
X129566620Y-102138985D01*
X129661578Y-102200011D01*
X129743428Y-102252613D01*
X129938543Y-102330725D01*
X130041729Y-102350612D01*
X130144914Y-102370500D01*
X130144915Y-102370500D01*
X131142419Y-102370500D01*
X131142425Y-102370500D01*
X131299218Y-102355528D01*
X131500875Y-102296316D01*
X131687682Y-102200011D01*
X131852886Y-102070092D01*
X131990519Y-101911256D01*
X132095604Y-101729244D01*
X132164344Y-101530633D01*
X132194254Y-101322602D01*
X132184254Y-101112670D01*
X132134704Y-100908424D01*
X132110784Y-100856046D01*
X132047401Y-100717256D01*
X132047398Y-100717251D01*
X132047397Y-100717250D01*
X132047396Y-100717247D01*
X131925486Y-100546048D01*
X131925484Y-100546046D01*
X131925479Y-100546040D01*
X131773379Y-100401014D01*
X131596574Y-100287388D01*
X131590032Y-100284769D01*
X131439987Y-100224700D01*
X131401455Y-100209274D01*
X131195086Y-100169500D01*
X131195085Y-100169500D01*
X130197575Y-100169500D01*
X130040782Y-100184472D01*
X130040778Y-100184473D01*
X129839127Y-100243683D01*
X129652313Y-100339991D01*
X129487116Y-100469905D01*
X129487112Y-100469909D01*
X129349478Y-100628746D01*
X129244398Y-100810750D01*
X129175656Y-101009365D01*
X129175656Y-101009367D01*
X129149152Y-101193712D01*
X129145746Y-101217401D01*
X128849243Y-101217401D01*
X128844254Y-101112670D01*
X128794704Y-100908424D01*
X128770784Y-100856046D01*
X128707401Y-100717256D01*
X128707398Y-100717251D01*
X128707397Y-100717250D01*
X128707396Y-100717247D01*
X128585486Y-100546048D01*
X128585484Y-100546046D01*
X128585479Y-100546040D01*
X128433379Y-100401014D01*
X128256574Y-100287388D01*
X128250032Y-100284769D01*
X128099987Y-100224700D01*
X128061455Y-100209274D01*
X127855086Y-100169500D01*
X127855085Y-100169500D01*
X126857575Y-100169500D01*
X126700782Y-100184472D01*
X126700778Y-100184473D01*
X126499127Y-100243683D01*
X126312313Y-100339991D01*
X126147116Y-100469905D01*
X126147112Y-100469909D01*
X126009478Y-100628746D01*
X125904398Y-100810750D01*
X125835656Y-101009365D01*
X125835656Y-101009367D01*
X125809152Y-101193712D01*
X125805746Y-101217401D01*
X82771387Y-101217401D01*
X82755300Y-101054066D01*
X82695232Y-100856046D01*
X82597685Y-100673550D01*
X82511998Y-100569139D01*
X82500623Y-100555278D01*
X82477147Y-100500000D01*
X87194750Y-100500000D01*
X87203852Y-100569139D01*
X87213670Y-100643708D01*
X87213671Y-100643712D01*
X87269137Y-100777622D01*
X87269138Y-100777624D01*
X87269139Y-100777625D01*
X87357379Y-100892621D01*
X87472375Y-100980861D01*
X87606291Y-101036330D01*
X87733280Y-101053048D01*
X87749999Y-101055250D01*
X87750000Y-101055250D01*
X87750001Y-101055250D01*
X87764977Y-101053278D01*
X87893709Y-101036330D01*
X88027625Y-100980861D01*
X88142621Y-100892621D01*
X88230861Y-100777625D01*
X88286330Y-100643709D01*
X88305250Y-100500000D01*
X88286330Y-100356291D01*
X88249350Y-100267013D01*
X88242303Y-100250000D01*
X95694750Y-100250000D01*
X95711887Y-100380169D01*
X95713670Y-100393708D01*
X95713671Y-100393712D01*
X95769137Y-100527622D01*
X95769138Y-100527624D01*
X95769139Y-100527625D01*
X95857379Y-100642621D01*
X95972375Y-100730861D01*
X96106291Y-100786330D01*
X96233280Y-100803048D01*
X96249999Y-100805250D01*
X96250000Y-100805250D01*
X96250001Y-100805250D01*
X96264977Y-100803278D01*
X96393709Y-100786330D01*
X96527625Y-100730861D01*
X96642621Y-100642621D01*
X96730861Y-100527625D01*
X96742303Y-100500000D01*
X105444750Y-100500000D01*
X105453852Y-100569139D01*
X105463670Y-100643708D01*
X105463671Y-100643712D01*
X105519137Y-100777622D01*
X105519138Y-100777624D01*
X105519139Y-100777625D01*
X105607379Y-100892621D01*
X105722375Y-100980861D01*
X105856291Y-101036330D01*
X105983280Y-101053048D01*
X105999999Y-101055250D01*
X106000000Y-101055250D01*
X106000001Y-101055250D01*
X106014977Y-101053278D01*
X106143709Y-101036330D01*
X106277625Y-100980861D01*
X106392621Y-100892621D01*
X106480861Y-100777625D01*
X106536330Y-100643709D01*
X106555250Y-100500000D01*
X106536330Y-100356291D01*
X106499350Y-100267013D01*
X106492303Y-100250000D01*
X116194750Y-100250000D01*
X116211887Y-100380169D01*
X116213670Y-100393708D01*
X116213671Y-100393712D01*
X116269137Y-100527622D01*
X116269138Y-100527624D01*
X116269139Y-100527625D01*
X116357379Y-100642621D01*
X116472375Y-100730861D01*
X116606291Y-100786330D01*
X116733280Y-100803048D01*
X116749999Y-100805250D01*
X116750000Y-100805250D01*
X116750001Y-100805250D01*
X116764977Y-100803278D01*
X116893709Y-100786330D01*
X117027625Y-100730861D01*
X117142621Y-100642621D01*
X117230861Y-100527625D01*
X117286330Y-100393709D01*
X117305250Y-100250000D01*
X117304418Y-100243684D01*
X117296623Y-100184472D01*
X117286330Y-100106291D01*
X117237145Y-99987547D01*
X117230862Y-99972377D01*
X117230861Y-99972376D01*
X117230861Y-99972375D01*
X117142621Y-99857379D01*
X117027625Y-99769139D01*
X117027624Y-99769138D01*
X117027622Y-99769137D01*
X116893712Y-99713671D01*
X116893710Y-99713670D01*
X116893709Y-99713670D01*
X116821854Y-99704210D01*
X116750001Y-99694750D01*
X116749999Y-99694750D01*
X116606291Y-99713670D01*
X116606287Y-99713671D01*
X116472377Y-99769137D01*
X116357379Y-99857379D01*
X116269137Y-99972377D01*
X116213671Y-100106287D01*
X116213670Y-100106291D01*
X116195582Y-100243684D01*
X116194750Y-100250000D01*
X106492303Y-100250000D01*
X106480862Y-100222377D01*
X106480861Y-100222376D01*
X106480861Y-100222375D01*
X106392621Y-100107379D01*
X106277625Y-100019139D01*
X106277624Y-100019138D01*
X106277622Y-100019137D01*
X106143712Y-99963671D01*
X106143710Y-99963670D01*
X106143709Y-99963670D01*
X106071854Y-99954210D01*
X106000001Y-99944750D01*
X105999999Y-99944750D01*
X105856291Y-99963670D01*
X105856287Y-99963671D01*
X105722377Y-100019137D01*
X105607379Y-100107379D01*
X105519137Y-100222377D01*
X105463671Y-100356287D01*
X105463670Y-100356291D01*
X105444750Y-100500000D01*
X96742303Y-100500000D01*
X96786330Y-100393709D01*
X96805250Y-100250000D01*
X96804418Y-100243684D01*
X96796623Y-100184472D01*
X96786330Y-100106291D01*
X96737145Y-99987547D01*
X96730862Y-99972377D01*
X96730861Y-99972376D01*
X96730861Y-99972375D01*
X96642621Y-99857379D01*
X96527625Y-99769139D01*
X96527624Y-99769138D01*
X96527622Y-99769137D01*
X96393712Y-99713671D01*
X96393710Y-99713670D01*
X96393709Y-99713670D01*
X96321854Y-99704210D01*
X96250001Y-99694750D01*
X96249999Y-99694750D01*
X96106291Y-99713670D01*
X96106287Y-99713671D01*
X95972377Y-99769137D01*
X95857379Y-99857379D01*
X95769137Y-99972377D01*
X95713671Y-100106287D01*
X95713670Y-100106291D01*
X95695582Y-100243684D01*
X95694750Y-100250000D01*
X88242303Y-100250000D01*
X88230862Y-100222377D01*
X88230861Y-100222376D01*
X88230861Y-100222375D01*
X88142621Y-100107379D01*
X88027625Y-100019139D01*
X88027624Y-100019138D01*
X88027622Y-100019137D01*
X87893712Y-99963671D01*
X87893710Y-99963670D01*
X87893709Y-99963670D01*
X87821854Y-99954210D01*
X87750001Y-99944750D01*
X87749999Y-99944750D01*
X87606291Y-99963670D01*
X87606287Y-99963671D01*
X87472377Y-100019137D01*
X87357379Y-100107379D01*
X87269137Y-100222377D01*
X87213671Y-100356287D01*
X87213670Y-100356291D01*
X87194750Y-100500000D01*
X82477147Y-100500000D01*
X82473311Y-100490968D01*
X82485102Y-100422101D01*
X82532255Y-100370541D01*
X82599797Y-100352658D01*
X82643923Y-100362051D01*
X82687664Y-100380169D01*
X82783470Y-100392782D01*
X82831372Y-100399089D01*
X82831373Y-100399089D01*
X82831374Y-100399089D01*
X82846350Y-100397117D01*
X82975082Y-100380169D01*
X83108998Y-100324700D01*
X83223994Y-100236460D01*
X83312234Y-100121464D01*
X83367703Y-99987548D01*
X83386623Y-99843839D01*
X83367703Y-99700130D01*
X83312234Y-99566214D01*
X83223994Y-99451218D01*
X83108998Y-99362978D01*
X83108997Y-99362977D01*
X83108995Y-99362976D01*
X82975085Y-99307510D01*
X82975083Y-99307509D01*
X82975082Y-99307509D01*
X82903227Y-99298049D01*
X82831374Y-99288589D01*
X82831369Y-99288589D01*
X82828177Y-99289009D01*
X82825485Y-99288589D01*
X82823245Y-99288589D01*
X82823245Y-99288239D01*
X82759143Y-99278237D01*
X82706891Y-99231852D01*
X82688012Y-99164581D01*
X82695116Y-99130285D01*
X82693463Y-99129784D01*
X82695230Y-99123956D01*
X82695232Y-99123954D01*
X82755300Y-98925934D01*
X82775583Y-98720000D01*
X82755300Y-98514066D01*
X82751033Y-98500000D01*
X88444750Y-98500000D01*
X88457098Y-98593794D01*
X88463670Y-98643708D01*
X88463671Y-98643712D01*
X88519137Y-98777622D01*
X88519138Y-98777624D01*
X88519139Y-98777625D01*
X88607379Y-98892621D01*
X88722375Y-98980861D01*
X88722376Y-98980861D01*
X88722377Y-98980862D01*
X88735786Y-98986416D01*
X88856291Y-99036330D01*
X88983280Y-99053048D01*
X88999999Y-99055250D01*
X89000000Y-99055250D01*
X89000001Y-99055250D01*
X89014977Y-99053278D01*
X89143709Y-99036330D01*
X89277625Y-98980861D01*
X89392621Y-98892621D01*
X89480861Y-98777625D01*
X89522375Y-98677401D01*
X125805746Y-98677401D01*
X125815745Y-98887327D01*
X125865296Y-99091578D01*
X125865298Y-99091582D01*
X125952598Y-99282743D01*
X125952601Y-99282748D01*
X125952602Y-99282750D01*
X125952604Y-99282753D01*
X126015627Y-99371256D01*
X126074515Y-99453953D01*
X126074520Y-99453959D01*
X126226620Y-99598985D01*
X126321578Y-99660011D01*
X126403428Y-99712613D01*
X126598543Y-99790725D01*
X126701729Y-99810612D01*
X126804914Y-99830500D01*
X126804915Y-99830500D01*
X127802419Y-99830500D01*
X127802425Y-99830500D01*
X127959218Y-99815528D01*
X128160875Y-99756316D01*
X128347682Y-99660011D01*
X128368412Y-99643709D01*
X128466951Y-99566216D01*
X128512886Y-99530092D01*
X128650519Y-99371256D01*
X128652363Y-99368063D01*
X128755601Y-99189249D01*
X128755600Y-99189249D01*
X128755604Y-99189244D01*
X128824344Y-98990633D01*
X128854254Y-98782602D01*
X128849243Y-98677401D01*
X129145746Y-98677401D01*
X129155745Y-98887327D01*
X129205296Y-99091578D01*
X129205298Y-99091582D01*
X129292598Y-99282743D01*
X129292601Y-99282748D01*
X129292602Y-99282750D01*
X129292604Y-99282753D01*
X129355627Y-99371256D01*
X129414515Y-99453953D01*
X129414520Y-99453959D01*
X129566620Y-99598985D01*
X129661578Y-99660011D01*
X129743428Y-99712613D01*
X129938543Y-99790725D01*
X130041729Y-99810612D01*
X130144914Y-99830500D01*
X130144915Y-99830500D01*
X131142419Y-99830500D01*
X131142425Y-99830500D01*
X131299218Y-99815528D01*
X131500875Y-99756316D01*
X131687682Y-99660011D01*
X131708412Y-99643709D01*
X131806951Y-99566216D01*
X131852886Y-99530092D01*
X131990519Y-99371256D01*
X131992363Y-99368063D01*
X132095601Y-99189249D01*
X132095600Y-99189249D01*
X132095604Y-99189244D01*
X132164344Y-98990633D01*
X132194254Y-98782602D01*
X132184254Y-98572670D01*
X132134704Y-98368424D01*
X132110784Y-98316046D01*
X132047401Y-98177256D01*
X132047398Y-98177251D01*
X132047397Y-98177250D01*
X132047396Y-98177247D01*
X131925486Y-98006048D01*
X131925484Y-98006046D01*
X131925479Y-98006040D01*
X131773379Y-97861014D01*
X131596574Y-97747388D01*
X131590032Y-97744769D01*
X131439987Y-97684700D01*
X131401455Y-97669274D01*
X131195086Y-97629500D01*
X131195085Y-97629500D01*
X130197575Y-97629500D01*
X130048741Y-97643712D01*
X130040782Y-97644472D01*
X130040778Y-97644473D01*
X129839127Y-97703683D01*
X129652313Y-97799991D01*
X129487116Y-97929905D01*
X129487112Y-97929909D01*
X129349478Y-98088746D01*
X129244398Y-98270750D01*
X129175656Y-98469365D01*
X129175656Y-98469367D01*
X129150590Y-98643712D01*
X129145746Y-98677401D01*
X128849243Y-98677401D01*
X128844254Y-98572670D01*
X128794704Y-98368424D01*
X128770784Y-98316046D01*
X128707401Y-98177256D01*
X128707398Y-98177251D01*
X128707397Y-98177250D01*
X128707396Y-98177247D01*
X128585486Y-98006048D01*
X128585484Y-98006046D01*
X128585479Y-98006040D01*
X128433379Y-97861014D01*
X128256574Y-97747388D01*
X128250032Y-97744769D01*
X128099987Y-97684700D01*
X128061455Y-97669274D01*
X127855086Y-97629500D01*
X127855085Y-97629500D01*
X126857575Y-97629500D01*
X126708741Y-97643712D01*
X126700782Y-97644472D01*
X126700778Y-97644473D01*
X126499127Y-97703683D01*
X126312313Y-97799991D01*
X126147116Y-97929905D01*
X126147112Y-97929909D01*
X126009478Y-98088746D01*
X125904398Y-98270750D01*
X125835656Y-98469365D01*
X125835656Y-98469367D01*
X125810590Y-98643712D01*
X125805746Y-98677401D01*
X89522375Y-98677401D01*
X89536330Y-98643709D01*
X89555250Y-98500000D01*
X89536330Y-98356291D01*
X89480861Y-98222375D01*
X89392621Y-98107379D01*
X89277625Y-98019139D01*
X89277624Y-98019138D01*
X89277622Y-98019137D01*
X89143712Y-97963671D01*
X89143710Y-97963670D01*
X89143709Y-97963670D01*
X89071854Y-97954210D01*
X89000001Y-97944750D01*
X88999999Y-97944750D01*
X88856291Y-97963670D01*
X88856287Y-97963671D01*
X88722377Y-98019137D01*
X88607379Y-98107379D01*
X88519137Y-98222377D01*
X88463671Y-98356287D01*
X88463670Y-98356291D01*
X88447270Y-98480862D01*
X88444750Y-98500000D01*
X82751033Y-98500000D01*
X82695232Y-98316046D01*
X82597685Y-98133550D01*
X82517899Y-98036330D01*
X82466410Y-97973589D01*
X82306452Y-97842317D01*
X82306453Y-97842317D01*
X82306450Y-97842315D01*
X82123954Y-97744768D01*
X81925934Y-97684700D01*
X81925932Y-97684699D01*
X81925934Y-97684699D01*
X81806805Y-97672966D01*
X81771608Y-97669500D01*
X80868392Y-97669500D01*
X80830298Y-97673251D01*
X80714067Y-97684699D01*
X80516043Y-97744769D01*
X80454581Y-97777622D01*
X80333550Y-97842315D01*
X80333548Y-97842316D01*
X80333547Y-97842317D01*
X80173589Y-97973589D01*
X80054492Y-98118712D01*
X80042315Y-98133550D01*
X80009603Y-98194750D01*
X79944769Y-98316043D01*
X79884699Y-98514067D01*
X79864417Y-98720000D01*
X79884699Y-98925932D01*
X79896147Y-98963670D01*
X79944768Y-99123954D01*
X80042315Y-99306450D01*
X80042317Y-99306452D01*
X80173589Y-99466410D01*
X80270209Y-99545702D01*
X80333550Y-99597685D01*
X80516046Y-99695232D01*
X80714066Y-99755300D01*
X80714065Y-99755300D01*
X80724381Y-99756316D01*
X80868392Y-99770500D01*
X80868395Y-99770500D01*
X81771605Y-99770500D01*
X81771608Y-99770500D01*
X81925934Y-99755300D01*
X82118798Y-99696795D01*
X82188660Y-99696173D01*
X82247773Y-99733421D01*
X82277364Y-99796715D01*
X82277729Y-99831639D01*
X82276123Y-99843839D01*
X82293045Y-99972375D01*
X82295043Y-99987547D01*
X82295044Y-99987551D01*
X82350510Y-100121461D01*
X82350511Y-100121463D01*
X82350512Y-100121464D01*
X82370976Y-100148134D01*
X82396170Y-100213301D01*
X82382132Y-100281746D01*
X82333318Y-100331736D01*
X82265227Y-100347400D01*
X82214146Y-100332977D01*
X82123956Y-100284769D01*
X82123955Y-100284768D01*
X82123954Y-100284768D01*
X81925934Y-100224700D01*
X81925932Y-100224699D01*
X81925934Y-100224699D01*
X81806805Y-100212966D01*
X81771608Y-100209500D01*
X80868392Y-100209500D01*
X80830298Y-100213251D01*
X80714067Y-100224699D01*
X80516043Y-100284769D01*
X80441339Y-100324700D01*
X80333550Y-100382315D01*
X80333548Y-100382316D01*
X80333547Y-100382317D01*
X80173589Y-100513589D01*
X80066802Y-100643712D01*
X80042315Y-100673550D01*
X80016217Y-100722375D01*
X79944769Y-100856043D01*
X79884699Y-101054067D01*
X79864417Y-101260000D01*
X77988161Y-101260000D01*
X78036330Y-101143709D01*
X78055250Y-101000000D01*
X78036330Y-100856291D01*
X77999350Y-100767013D01*
X77980862Y-100722377D01*
X77980861Y-100722376D01*
X77980861Y-100722375D01*
X77892621Y-100607379D01*
X77777625Y-100519139D01*
X77777624Y-100519138D01*
X77777622Y-100519137D01*
X77643712Y-100463671D01*
X77643710Y-100463670D01*
X77643709Y-100463670D01*
X77571854Y-100454210D01*
X77500001Y-100444750D01*
X77499999Y-100444750D01*
X77356291Y-100463670D01*
X77356287Y-100463671D01*
X77222377Y-100519137D01*
X77107379Y-100607379D01*
X77019137Y-100722377D01*
X76963671Y-100856287D01*
X76963670Y-100856291D01*
X76944750Y-100999999D01*
X76944750Y-101000000D01*
X75118899Y-101000000D01*
X75075232Y-100856046D01*
X74977685Y-100673550D01*
X74891996Y-100569137D01*
X74846410Y-100513589D01*
X74700337Y-100393712D01*
X74686450Y-100382315D01*
X74503954Y-100284768D01*
X74305934Y-100224700D01*
X74305932Y-100224699D01*
X74305934Y-100224699D01*
X74186805Y-100212966D01*
X74151608Y-100209500D01*
X73248392Y-100209500D01*
X73210298Y-100213251D01*
X73094067Y-100224699D01*
X72896043Y-100284769D01*
X72821339Y-100324700D01*
X72713550Y-100382315D01*
X72713548Y-100382316D01*
X72713547Y-100382317D01*
X72553589Y-100513589D01*
X72446802Y-100643712D01*
X72422315Y-100673550D01*
X72396217Y-100722375D01*
X72324769Y-100856043D01*
X72264699Y-101054067D01*
X72244417Y-101260000D01*
X66276091Y-101260000D01*
X66303549Y-101193709D01*
X66322469Y-101050000D01*
X66303549Y-100906291D01*
X66253860Y-100786329D01*
X66248081Y-100772377D01*
X66248080Y-100772376D01*
X66248080Y-100772375D01*
X66159840Y-100657379D01*
X66044844Y-100569139D01*
X66044843Y-100569138D01*
X66044841Y-100569137D01*
X65910931Y-100513671D01*
X65910929Y-100513670D01*
X65910928Y-100513670D01*
X65807096Y-100500000D01*
X65767220Y-100494750D01*
X65767218Y-100494750D01*
X65623510Y-100513670D01*
X65623506Y-100513671D01*
X65489596Y-100569137D01*
X65374598Y-100657379D01*
X65286356Y-100772377D01*
X65230890Y-100906287D01*
X65230889Y-100906291D01*
X65211969Y-101049999D01*
X65211969Y-101050000D01*
X57169050Y-101050000D01*
X57134704Y-100908424D01*
X57110784Y-100856046D01*
X57047401Y-100717256D01*
X57047398Y-100717251D01*
X57047397Y-100717250D01*
X57047396Y-100717247D01*
X56925486Y-100546048D01*
X56925484Y-100546046D01*
X56925479Y-100546040D01*
X56773379Y-100401014D01*
X56596574Y-100287388D01*
X56590032Y-100284769D01*
X56503183Y-100250000D01*
X63194750Y-100250000D01*
X63211887Y-100380169D01*
X63213670Y-100393708D01*
X63213671Y-100393712D01*
X63269137Y-100527622D01*
X63269138Y-100527624D01*
X63269139Y-100527625D01*
X63357379Y-100642621D01*
X63472375Y-100730861D01*
X63606291Y-100786330D01*
X63733280Y-100803048D01*
X63749999Y-100805250D01*
X63750000Y-100805250D01*
X63750001Y-100805250D01*
X63764977Y-100803278D01*
X63893709Y-100786330D01*
X64027625Y-100730861D01*
X64142621Y-100642621D01*
X64230861Y-100527625D01*
X64286330Y-100393709D01*
X64305250Y-100250000D01*
X64304418Y-100243684D01*
X64296623Y-100184472D01*
X64286330Y-100106291D01*
X64237145Y-99987547D01*
X64230862Y-99972377D01*
X64230861Y-99972376D01*
X64230861Y-99972375D01*
X64142621Y-99857379D01*
X64027625Y-99769139D01*
X64027624Y-99769138D01*
X64027622Y-99769137D01*
X63893712Y-99713671D01*
X63893710Y-99713670D01*
X63893709Y-99713670D01*
X63821854Y-99704210D01*
X63750001Y-99694750D01*
X63749999Y-99694750D01*
X63606291Y-99713670D01*
X63606287Y-99713671D01*
X63472377Y-99769137D01*
X63357379Y-99857379D01*
X63269137Y-99972377D01*
X63213671Y-100106287D01*
X63213670Y-100106291D01*
X63195582Y-100243684D01*
X63194750Y-100250000D01*
X56503183Y-100250000D01*
X56439987Y-100224700D01*
X56401455Y-100209274D01*
X56195086Y-100169500D01*
X56195085Y-100169500D01*
X55197575Y-100169500D01*
X55040782Y-100184472D01*
X55040778Y-100184473D01*
X54839127Y-100243683D01*
X54652313Y-100339991D01*
X54487116Y-100469905D01*
X54487112Y-100469909D01*
X54349478Y-100628746D01*
X54244398Y-100810750D01*
X54175656Y-101009365D01*
X54175656Y-101009367D01*
X54149152Y-101193712D01*
X54145746Y-101217401D01*
X53849243Y-101217401D01*
X53844254Y-101112670D01*
X53794704Y-100908424D01*
X53770784Y-100856046D01*
X53707401Y-100717256D01*
X53707398Y-100717251D01*
X53707397Y-100717250D01*
X53707396Y-100717247D01*
X53585486Y-100546048D01*
X53585484Y-100546046D01*
X53585479Y-100546040D01*
X53433379Y-100401014D01*
X53256574Y-100287388D01*
X53250032Y-100284769D01*
X53099987Y-100224700D01*
X53061455Y-100209274D01*
X52855086Y-100169500D01*
X52855085Y-100169500D01*
X51857575Y-100169500D01*
X51700782Y-100184472D01*
X51700778Y-100184473D01*
X51499127Y-100243683D01*
X51312313Y-100339991D01*
X51147116Y-100469905D01*
X51147112Y-100469909D01*
X51009478Y-100628746D01*
X50904398Y-100810750D01*
X50835656Y-101009365D01*
X50835656Y-101009367D01*
X50809152Y-101193712D01*
X50805746Y-101217401D01*
X50500500Y-101217401D01*
X50500500Y-98677401D01*
X50805746Y-98677401D01*
X50815745Y-98887327D01*
X50865296Y-99091578D01*
X50865298Y-99091582D01*
X50952598Y-99282743D01*
X50952601Y-99282748D01*
X50952602Y-99282750D01*
X50952604Y-99282753D01*
X51015627Y-99371256D01*
X51074515Y-99453953D01*
X51074520Y-99453959D01*
X51226620Y-99598985D01*
X51321578Y-99660011D01*
X51403428Y-99712613D01*
X51598543Y-99790725D01*
X51701729Y-99810612D01*
X51804914Y-99830500D01*
X51804915Y-99830500D01*
X52802419Y-99830500D01*
X52802425Y-99830500D01*
X52959218Y-99815528D01*
X53160875Y-99756316D01*
X53347682Y-99660011D01*
X53368412Y-99643709D01*
X53466951Y-99566216D01*
X53512886Y-99530092D01*
X53650519Y-99371256D01*
X53652363Y-99368063D01*
X53755601Y-99189249D01*
X53755600Y-99189249D01*
X53755604Y-99189244D01*
X53824344Y-98990633D01*
X53854254Y-98782602D01*
X53849243Y-98677401D01*
X54145746Y-98677401D01*
X54155745Y-98887327D01*
X54205296Y-99091578D01*
X54205298Y-99091582D01*
X54292598Y-99282743D01*
X54292601Y-99282748D01*
X54292602Y-99282750D01*
X54292604Y-99282753D01*
X54355627Y-99371256D01*
X54414515Y-99453953D01*
X54414520Y-99453959D01*
X54566620Y-99598985D01*
X54661578Y-99660011D01*
X54743428Y-99712613D01*
X54938543Y-99790725D01*
X55041729Y-99810612D01*
X55144914Y-99830500D01*
X55144915Y-99830500D01*
X56142419Y-99830500D01*
X56142425Y-99830500D01*
X56299218Y-99815528D01*
X56500875Y-99756316D01*
X56687682Y-99660011D01*
X56708412Y-99643709D01*
X56806951Y-99566216D01*
X56852886Y-99530092D01*
X56878961Y-99500000D01*
X65194750Y-99500000D01*
X65198711Y-99530090D01*
X65213670Y-99643708D01*
X65213671Y-99643712D01*
X65269137Y-99777622D01*
X65269138Y-99777624D01*
X65269139Y-99777625D01*
X65357379Y-99892621D01*
X65472375Y-99980861D01*
X65472376Y-99980861D01*
X65472377Y-99980862D01*
X65488519Y-99987548D01*
X65606291Y-100036330D01*
X65733280Y-100053048D01*
X65749999Y-100055250D01*
X65750000Y-100055250D01*
X65750001Y-100055250D01*
X65764977Y-100053278D01*
X65893709Y-100036330D01*
X66027625Y-99980861D01*
X66142621Y-99892621D01*
X66230861Y-99777625D01*
X66286330Y-99643709D01*
X66305250Y-99500000D01*
X66286330Y-99356291D01*
X66249350Y-99267013D01*
X66230862Y-99222377D01*
X66230861Y-99222376D01*
X66230861Y-99222375D01*
X66142621Y-99107379D01*
X66027625Y-99019139D01*
X66027624Y-99019138D01*
X66027622Y-99019137D01*
X65893712Y-98963671D01*
X65893710Y-98963670D01*
X65893709Y-98963670D01*
X65821854Y-98954210D01*
X65750001Y-98944750D01*
X65749999Y-98944750D01*
X65606291Y-98963670D01*
X65606287Y-98963671D01*
X65472377Y-99019137D01*
X65357379Y-99107379D01*
X65269137Y-99222377D01*
X65213671Y-99356287D01*
X65213670Y-99356291D01*
X65200812Y-99453959D01*
X65194750Y-99500000D01*
X56878961Y-99500000D01*
X56990519Y-99371256D01*
X56992363Y-99368063D01*
X57095601Y-99189249D01*
X57095600Y-99189249D01*
X57095604Y-99189244D01*
X57164344Y-98990633D01*
X57194254Y-98782602D01*
X57192701Y-98750000D01*
X61929750Y-98750000D01*
X61948670Y-98893708D01*
X61948671Y-98893712D01*
X62004137Y-99027622D01*
X62004138Y-99027624D01*
X62004139Y-99027625D01*
X62092379Y-99142621D01*
X62207375Y-99230861D01*
X62207376Y-99230861D01*
X62207377Y-99230862D01*
X62252013Y-99249350D01*
X62341291Y-99286330D01*
X62468280Y-99303048D01*
X62484999Y-99305250D01*
X62485000Y-99305250D01*
X62485001Y-99305250D01*
X62499977Y-99303278D01*
X62628709Y-99286330D01*
X62762625Y-99230861D01*
X62877621Y-99142621D01*
X62965861Y-99027625D01*
X63021330Y-98893709D01*
X63040250Y-98750000D01*
X68929750Y-98750000D01*
X68948670Y-98893708D01*
X68948671Y-98893712D01*
X69004137Y-99027622D01*
X69004138Y-99027624D01*
X69004139Y-99027625D01*
X69092379Y-99142621D01*
X69207375Y-99230861D01*
X69207376Y-99230861D01*
X69207377Y-99230862D01*
X69252013Y-99249350D01*
X69341291Y-99286330D01*
X69468280Y-99303048D01*
X69484999Y-99305250D01*
X69485000Y-99305250D01*
X69485001Y-99305250D01*
X69499977Y-99303278D01*
X69628709Y-99286330D01*
X69762625Y-99230861D01*
X69877621Y-99142621D01*
X69965861Y-99027625D01*
X70021330Y-98893709D01*
X70040250Y-98750000D01*
X70021330Y-98606291D01*
X69981996Y-98511328D01*
X69965862Y-98472377D01*
X69965861Y-98472376D01*
X69965861Y-98472375D01*
X69948758Y-98450086D01*
X71315694Y-98450086D01*
X71327048Y-98536330D01*
X71334614Y-98593794D01*
X71334615Y-98593798D01*
X71390081Y-98727708D01*
X71390082Y-98727710D01*
X71390083Y-98727711D01*
X71478323Y-98842707D01*
X71593319Y-98930947D01*
X71727235Y-98986416D01*
X71854224Y-99003134D01*
X71870943Y-99005336D01*
X71870944Y-99005336D01*
X71870945Y-99005336D01*
X71885921Y-99003364D01*
X72014653Y-98986416D01*
X72126692Y-98940008D01*
X72196157Y-98932540D01*
X72258637Y-98963815D01*
X72292802Y-99018575D01*
X72324768Y-99123954D01*
X72422315Y-99306450D01*
X72422317Y-99306452D01*
X72553589Y-99466410D01*
X72650209Y-99545702D01*
X72713550Y-99597685D01*
X72896046Y-99695232D01*
X73094066Y-99755300D01*
X73094065Y-99755300D01*
X73104381Y-99756316D01*
X73248392Y-99770500D01*
X73248395Y-99770500D01*
X74151605Y-99770500D01*
X74151608Y-99770500D01*
X74305934Y-99755300D01*
X74503954Y-99695232D01*
X74686450Y-99597685D01*
X74846410Y-99466410D01*
X74977685Y-99306450D01*
X75075232Y-99123954D01*
X75135300Y-98925934D01*
X75155583Y-98720000D01*
X75135300Y-98514066D01*
X75075232Y-98316046D01*
X74977685Y-98133550D01*
X74897899Y-98036330D01*
X74846410Y-97973589D01*
X74686452Y-97842317D01*
X74686453Y-97842317D01*
X74686450Y-97842315D01*
X74503954Y-97744768D01*
X74305934Y-97684700D01*
X74305932Y-97684699D01*
X74305934Y-97684699D01*
X74186805Y-97672966D01*
X74151608Y-97669500D01*
X73248392Y-97669500D01*
X73210298Y-97673251D01*
X73094067Y-97684699D01*
X72896043Y-97744769D01*
X72834581Y-97777622D01*
X72713550Y-97842315D01*
X72713548Y-97842316D01*
X72713547Y-97842317D01*
X72553589Y-97973590D01*
X72469561Y-98075979D01*
X72411816Y-98115313D01*
X72341971Y-98117184D01*
X72282203Y-98080997D01*
X72275333Y-98072801D01*
X72272000Y-98068458D01*
X72263565Y-98057465D01*
X72148569Y-97969225D01*
X72148568Y-97969224D01*
X72148566Y-97969223D01*
X72014656Y-97913757D01*
X72014654Y-97913756D01*
X72014653Y-97913756D01*
X71942798Y-97904296D01*
X71870945Y-97894836D01*
X71870943Y-97894836D01*
X71727235Y-97913756D01*
X71727231Y-97913757D01*
X71593321Y-97969223D01*
X71478323Y-98057465D01*
X71390081Y-98172463D01*
X71334615Y-98306373D01*
X71334614Y-98306377D01*
X71323260Y-98392621D01*
X71315694Y-98450086D01*
X69948758Y-98450086D01*
X69877621Y-98357379D01*
X69762625Y-98269139D01*
X69762624Y-98269138D01*
X69762622Y-98269137D01*
X69628712Y-98213671D01*
X69628710Y-98213670D01*
X69628709Y-98213670D01*
X69556854Y-98204210D01*
X69485001Y-98194750D01*
X69484999Y-98194750D01*
X69341291Y-98213670D01*
X69341287Y-98213671D01*
X69207377Y-98269137D01*
X69092379Y-98357379D01*
X69004137Y-98472377D01*
X68948671Y-98606287D01*
X68948670Y-98606291D01*
X68929750Y-98749999D01*
X68929750Y-98750000D01*
X63040250Y-98750000D01*
X63021330Y-98606291D01*
X62981996Y-98511328D01*
X62965862Y-98472377D01*
X62965861Y-98472376D01*
X62965861Y-98472375D01*
X62877621Y-98357379D01*
X62762625Y-98269139D01*
X62762624Y-98269138D01*
X62762622Y-98269137D01*
X62628712Y-98213671D01*
X62628710Y-98213670D01*
X62628709Y-98213670D01*
X62556854Y-98204210D01*
X62485001Y-98194750D01*
X62484999Y-98194750D01*
X62341291Y-98213670D01*
X62341287Y-98213671D01*
X62207377Y-98269137D01*
X62092379Y-98357379D01*
X62004137Y-98472377D01*
X61948671Y-98606287D01*
X61948670Y-98606291D01*
X61929750Y-98749999D01*
X61929750Y-98750000D01*
X57192701Y-98750000D01*
X57184254Y-98572670D01*
X57134704Y-98368424D01*
X57110784Y-98316046D01*
X57047401Y-98177256D01*
X57047398Y-98177251D01*
X57047397Y-98177250D01*
X57047396Y-98177247D01*
X56925486Y-98006048D01*
X56925484Y-98006046D01*
X56925479Y-98006040D01*
X56919144Y-98000000D01*
X58194750Y-98000000D01*
X58210378Y-98118708D01*
X58213670Y-98143708D01*
X58213671Y-98143712D01*
X58269137Y-98277622D01*
X58269138Y-98277624D01*
X58269139Y-98277625D01*
X58357379Y-98392621D01*
X58472375Y-98480861D01*
X58606291Y-98536330D01*
X58733280Y-98553048D01*
X58749999Y-98555250D01*
X58750000Y-98555250D01*
X58750001Y-98555250D01*
X58764977Y-98553278D01*
X58893709Y-98536330D01*
X59027625Y-98480861D01*
X59142621Y-98392621D01*
X59230861Y-98277625D01*
X59286330Y-98143709D01*
X59305250Y-98000000D01*
X59301959Y-97975000D01*
X64194750Y-97975000D01*
X64213670Y-98118708D01*
X64213671Y-98118712D01*
X64269137Y-98252622D01*
X64269138Y-98252624D01*
X64269139Y-98252625D01*
X64357379Y-98367621D01*
X64472375Y-98455861D01*
X64606291Y-98511330D01*
X64733280Y-98528048D01*
X64749999Y-98530250D01*
X64750000Y-98530250D01*
X64750001Y-98530250D01*
X64764977Y-98528278D01*
X64893709Y-98511330D01*
X65027625Y-98455861D01*
X65142621Y-98367621D01*
X65230861Y-98252625D01*
X65286330Y-98118709D01*
X65305250Y-97975000D01*
X65304489Y-97969223D01*
X65301267Y-97944750D01*
X65286330Y-97831291D01*
X65230861Y-97697375D01*
X65142621Y-97582379D01*
X65035263Y-97500000D01*
X115694750Y-97500000D01*
X115713670Y-97643708D01*
X115713671Y-97643712D01*
X115769137Y-97777622D01*
X115769138Y-97777624D01*
X115769139Y-97777625D01*
X115857379Y-97892621D01*
X115972375Y-97980861D01*
X116106291Y-98036330D01*
X116233280Y-98053048D01*
X116249999Y-98055250D01*
X116250000Y-98055250D01*
X116250001Y-98055250D01*
X116264977Y-98053278D01*
X116393709Y-98036330D01*
X116527625Y-97980861D01*
X116642621Y-97892621D01*
X116730861Y-97777625D01*
X116786330Y-97643709D01*
X116805250Y-97500000D01*
X120444750Y-97500000D01*
X120463670Y-97643708D01*
X120463671Y-97643712D01*
X120519137Y-97777622D01*
X120519138Y-97777624D01*
X120519139Y-97777625D01*
X120607379Y-97892621D01*
X120722375Y-97980861D01*
X120856291Y-98036330D01*
X120983280Y-98053048D01*
X120999999Y-98055250D01*
X121000000Y-98055250D01*
X121000001Y-98055250D01*
X121014977Y-98053278D01*
X121143709Y-98036330D01*
X121277625Y-97980861D01*
X121392621Y-97892621D01*
X121480861Y-97777625D01*
X121536330Y-97643709D01*
X121555250Y-97500000D01*
X121536330Y-97356291D01*
X121492604Y-97250725D01*
X121480862Y-97222377D01*
X121480861Y-97222376D01*
X121480861Y-97222375D01*
X121392621Y-97107379D01*
X121277625Y-97019139D01*
X121277624Y-97019138D01*
X121277622Y-97019137D01*
X121143712Y-96963671D01*
X121143710Y-96963670D01*
X121143709Y-96963670D01*
X121071854Y-96954210D01*
X121000001Y-96944750D01*
X120999999Y-96944750D01*
X120856291Y-96963670D01*
X120856287Y-96963671D01*
X120722377Y-97019137D01*
X120607379Y-97107379D01*
X120519137Y-97222377D01*
X120463671Y-97356287D01*
X120463670Y-97356291D01*
X120444750Y-97499999D01*
X120444750Y-97500000D01*
X116805250Y-97500000D01*
X116786330Y-97356291D01*
X116742604Y-97250725D01*
X116730862Y-97222377D01*
X116730861Y-97222376D01*
X116730861Y-97222375D01*
X116642621Y-97107379D01*
X116527625Y-97019139D01*
X116527624Y-97019138D01*
X116527622Y-97019137D01*
X116393712Y-96963671D01*
X116393710Y-96963670D01*
X116393709Y-96963670D01*
X116321854Y-96954210D01*
X116250001Y-96944750D01*
X116249999Y-96944750D01*
X116106291Y-96963670D01*
X116106287Y-96963671D01*
X115972377Y-97019137D01*
X115857379Y-97107379D01*
X115769137Y-97222377D01*
X115713671Y-97356287D01*
X115713670Y-97356291D01*
X115694750Y-97499999D01*
X115694750Y-97500000D01*
X65035263Y-97500000D01*
X65027625Y-97494139D01*
X65027624Y-97494138D01*
X65027622Y-97494137D01*
X64893712Y-97438671D01*
X64893710Y-97438670D01*
X64893709Y-97438670D01*
X64821854Y-97429210D01*
X64750001Y-97419750D01*
X64749999Y-97419750D01*
X64606291Y-97438670D01*
X64606287Y-97438671D01*
X64472377Y-97494137D01*
X64357379Y-97582379D01*
X64269137Y-97697377D01*
X64213671Y-97831287D01*
X64213670Y-97831291D01*
X64194750Y-97974999D01*
X64194750Y-97975000D01*
X59301959Y-97975000D01*
X59286330Y-97856291D01*
X59230861Y-97722375D01*
X59142621Y-97607379D01*
X59027625Y-97519139D01*
X59027624Y-97519138D01*
X59027622Y-97519137D01*
X58893712Y-97463671D01*
X58893710Y-97463670D01*
X58893709Y-97463670D01*
X58821854Y-97454210D01*
X58750001Y-97444750D01*
X58749999Y-97444750D01*
X58606291Y-97463670D01*
X58606287Y-97463671D01*
X58472377Y-97519137D01*
X58357379Y-97607379D01*
X58269137Y-97722377D01*
X58213671Y-97856287D01*
X58213670Y-97856291D01*
X58197270Y-97980862D01*
X58194750Y-98000000D01*
X56919144Y-98000000D01*
X56773379Y-97861014D01*
X56596574Y-97747388D01*
X56590032Y-97744769D01*
X56439987Y-97684700D01*
X56401455Y-97669274D01*
X56195086Y-97629500D01*
X56195085Y-97629500D01*
X55197575Y-97629500D01*
X55048741Y-97643712D01*
X55040782Y-97644472D01*
X55040778Y-97644473D01*
X54839127Y-97703683D01*
X54652313Y-97799991D01*
X54487116Y-97929905D01*
X54487112Y-97929909D01*
X54349478Y-98088746D01*
X54244398Y-98270750D01*
X54175656Y-98469365D01*
X54175656Y-98469367D01*
X54150590Y-98643712D01*
X54145746Y-98677401D01*
X53849243Y-98677401D01*
X53844254Y-98572670D01*
X53794704Y-98368424D01*
X53770784Y-98316046D01*
X53707401Y-98177256D01*
X53707398Y-98177251D01*
X53707397Y-98177250D01*
X53707396Y-98177247D01*
X53585486Y-98006048D01*
X53585484Y-98006046D01*
X53585479Y-98006040D01*
X53433379Y-97861014D01*
X53256574Y-97747388D01*
X53250032Y-97744769D01*
X53099987Y-97684700D01*
X53061455Y-97669274D01*
X52855086Y-97629500D01*
X52855085Y-97629500D01*
X51857575Y-97629500D01*
X51708741Y-97643712D01*
X51700782Y-97644472D01*
X51700778Y-97644473D01*
X51499127Y-97703683D01*
X51312313Y-97799991D01*
X51147116Y-97929905D01*
X51147112Y-97929909D01*
X51009478Y-98088746D01*
X50904398Y-98270750D01*
X50835656Y-98469365D01*
X50835656Y-98469367D01*
X50810590Y-98643712D01*
X50805746Y-98677401D01*
X50500500Y-98677401D01*
X50500500Y-96137401D01*
X50805746Y-96137401D01*
X50815745Y-96347327D01*
X50865296Y-96551578D01*
X50865298Y-96551582D01*
X50952598Y-96742743D01*
X50952601Y-96742748D01*
X50952602Y-96742750D01*
X50952604Y-96742753D01*
X51015627Y-96831256D01*
X51074515Y-96913953D01*
X51074520Y-96913959D01*
X51226620Y-97058985D01*
X51321578Y-97120011D01*
X51403428Y-97172613D01*
X51598543Y-97250725D01*
X51701729Y-97270612D01*
X51804914Y-97290500D01*
X51804915Y-97290500D01*
X52802419Y-97290500D01*
X52802425Y-97290500D01*
X52959218Y-97275528D01*
X53160875Y-97216316D01*
X53347682Y-97120011D01*
X53512886Y-96990092D01*
X53650519Y-96831256D01*
X53755604Y-96649244D01*
X53824344Y-96450633D01*
X53854254Y-96242602D01*
X53849243Y-96137401D01*
X54145746Y-96137401D01*
X54155745Y-96347327D01*
X54205296Y-96551578D01*
X54205298Y-96551582D01*
X54292598Y-96742743D01*
X54292601Y-96742748D01*
X54292602Y-96742750D01*
X54292604Y-96742753D01*
X54355627Y-96831256D01*
X54414515Y-96913953D01*
X54414520Y-96913959D01*
X54566620Y-97058985D01*
X54661578Y-97120011D01*
X54743428Y-97172613D01*
X54938543Y-97250725D01*
X55041729Y-97270612D01*
X55144914Y-97290500D01*
X55144915Y-97290500D01*
X56142419Y-97290500D01*
X56142425Y-97290500D01*
X56299218Y-97275528D01*
X56500875Y-97216316D01*
X56687682Y-97120011D01*
X56852886Y-96990092D01*
X56990519Y-96831256D01*
X57095604Y-96649244D01*
X57164344Y-96450633D01*
X57194254Y-96242602D01*
X57184254Y-96032670D01*
X57134704Y-95828424D01*
X57124121Y-95805250D01*
X57047401Y-95637256D01*
X57047398Y-95637251D01*
X57047397Y-95637250D01*
X57047396Y-95637247D01*
X56949663Y-95500000D01*
X62944750Y-95500000D01*
X62963526Y-95642619D01*
X62963670Y-95643708D01*
X62963671Y-95643712D01*
X63019137Y-95777622D01*
X63019138Y-95777624D01*
X63019139Y-95777625D01*
X63107379Y-95892621D01*
X63222375Y-95980861D01*
X63356291Y-96036330D01*
X63483280Y-96053048D01*
X63499999Y-96055250D01*
X63500000Y-96055250D01*
X63500001Y-96055250D01*
X63514977Y-96053278D01*
X63643709Y-96036330D01*
X63768671Y-95984570D01*
X65211969Y-95984570D01*
X65218783Y-96036330D01*
X65230889Y-96128278D01*
X65230890Y-96128282D01*
X65286356Y-96262192D01*
X65286357Y-96262194D01*
X65286358Y-96262195D01*
X65374598Y-96377191D01*
X65489594Y-96465431D01*
X65623510Y-96520900D01*
X65750499Y-96537618D01*
X65767218Y-96539820D01*
X65767219Y-96539820D01*
X65767220Y-96539820D01*
X65782196Y-96537848D01*
X65910928Y-96520900D01*
X66044844Y-96465431D01*
X66159840Y-96377191D01*
X66248080Y-96262195D01*
X66303549Y-96128279D01*
X66322469Y-95984570D01*
X66303549Y-95840861D01*
X66248080Y-95706945D01*
X66159840Y-95591949D01*
X66044844Y-95503709D01*
X66044843Y-95503708D01*
X66044841Y-95503707D01*
X65910931Y-95448241D01*
X65910929Y-95448240D01*
X65910928Y-95448240D01*
X65810362Y-95435000D01*
X65767220Y-95429320D01*
X65767218Y-95429320D01*
X65623510Y-95448240D01*
X65623506Y-95448241D01*
X65489596Y-95503707D01*
X65374598Y-95591949D01*
X65286356Y-95706947D01*
X65230890Y-95840857D01*
X65230889Y-95840861D01*
X65224075Y-95892621D01*
X65211969Y-95984570D01*
X63768671Y-95984570D01*
X63777625Y-95980861D01*
X63892621Y-95892621D01*
X63980861Y-95777625D01*
X64036330Y-95643709D01*
X64055250Y-95500000D01*
X64036330Y-95356291D01*
X63995160Y-95256897D01*
X63992303Y-95250000D01*
X70194750Y-95250000D01*
X70213670Y-95393708D01*
X70213671Y-95393712D01*
X70269137Y-95527622D01*
X70269138Y-95527624D01*
X70269139Y-95527625D01*
X70357379Y-95642621D01*
X70472375Y-95730861D01*
X70606291Y-95786330D01*
X70733280Y-95803048D01*
X70749999Y-95805250D01*
X70750000Y-95805250D01*
X70750001Y-95805250D01*
X70764977Y-95803278D01*
X70893709Y-95786330D01*
X71027625Y-95730861D01*
X71142621Y-95642621D01*
X71178815Y-95595452D01*
X71235242Y-95554250D01*
X71304988Y-95550095D01*
X71365908Y-95584307D01*
X71391751Y-95623487D01*
X71407614Y-95661784D01*
X71407616Y-95661788D01*
X71495856Y-95776784D01*
X71610852Y-95865024D01*
X71744768Y-95920493D01*
X71871757Y-95937211D01*
X71888476Y-95939413D01*
X71888477Y-95939413D01*
X71888478Y-95939413D01*
X71903454Y-95937441D01*
X72032186Y-95920493D01*
X72088957Y-95896977D01*
X72158424Y-95889509D01*
X72220904Y-95920784D01*
X72256556Y-95980873D01*
X72259811Y-96023692D01*
X72244417Y-96179999D01*
X72264699Y-96385932D01*
X72264700Y-96385934D01*
X72324768Y-96583954D01*
X72422315Y-96766450D01*
X72422317Y-96766452D01*
X72553589Y-96926410D01*
X72650209Y-97005702D01*
X72713550Y-97057685D01*
X72896046Y-97155232D01*
X73094066Y-97215300D01*
X73094065Y-97215300D01*
X73104381Y-97216316D01*
X73248392Y-97230500D01*
X73248395Y-97230500D01*
X74151605Y-97230500D01*
X74151608Y-97230500D01*
X74305934Y-97215300D01*
X74503954Y-97155232D01*
X74686450Y-97057685D01*
X74846410Y-96926410D01*
X74977685Y-96766450D01*
X75075232Y-96583954D01*
X75135300Y-96385934D01*
X75155583Y-96180000D01*
X79864417Y-96180000D01*
X79884699Y-96385932D01*
X79884700Y-96385934D01*
X79944768Y-96583954D01*
X80042315Y-96766450D01*
X80042317Y-96766452D01*
X80173589Y-96926410D01*
X80270209Y-97005702D01*
X80333550Y-97057685D01*
X80516046Y-97155232D01*
X80714066Y-97215300D01*
X80714065Y-97215300D01*
X80724381Y-97216316D01*
X80868392Y-97230500D01*
X80868395Y-97230500D01*
X81771605Y-97230500D01*
X81771608Y-97230500D01*
X81925934Y-97215300D01*
X82123954Y-97155232D01*
X82306450Y-97057685D01*
X82466410Y-96926410D01*
X82597685Y-96766450D01*
X82695232Y-96583954D01*
X82755300Y-96385934D01*
X82775583Y-96180000D01*
X82755300Y-95974066D01*
X82748710Y-95952342D01*
X113480000Y-95952342D01*
X113495348Y-96078749D01*
X113495349Y-96078751D01*
X113555630Y-96237697D01*
X113652192Y-96377593D01*
X113652198Y-96377599D01*
X113779432Y-96490319D01*
X113929955Y-96569318D01*
X114054999Y-96600139D01*
X114055000Y-96600139D01*
X114055000Y-96127150D01*
X114082455Y-96145495D01*
X114180000Y-96164898D01*
X114277545Y-96145495D01*
X114305000Y-96127150D01*
X114305000Y-96600139D01*
X114430044Y-96569318D01*
X114580567Y-96490319D01*
X114707801Y-96377599D01*
X114707807Y-96377593D01*
X114804369Y-96237697D01*
X114864650Y-96078751D01*
X114864651Y-96078749D01*
X114880000Y-95952342D01*
X114880000Y-95435000D01*
X114430000Y-95435000D01*
X114430000Y-95185000D01*
X114880000Y-95185000D01*
X114880000Y-95169299D01*
X114899685Y-95102260D01*
X114952489Y-95056505D01*
X115021647Y-95046561D01*
X115085203Y-95075586D01*
X115102376Y-95093812D01*
X115107300Y-95100229D01*
X115107302Y-95100233D01*
X115199549Y-95220451D01*
X115319767Y-95312698D01*
X115459764Y-95370687D01*
X115572280Y-95385500D01*
X115572287Y-95385500D01*
X115647713Y-95385500D01*
X115647720Y-95385500D01*
X115760236Y-95370687D01*
X115900233Y-95312698D01*
X116020451Y-95220451D01*
X116112698Y-95100233D01*
X116170687Y-94960236D01*
X116190466Y-94810000D01*
X120809534Y-94810000D01*
X120829312Y-94960234D01*
X120829313Y-94960236D01*
X120861818Y-95038711D01*
X120887302Y-95100233D01*
X120979549Y-95220451D01*
X121099767Y-95312698D01*
X121239764Y-95370687D01*
X121352280Y-95385500D01*
X121352287Y-95385500D01*
X121427713Y-95385500D01*
X121427720Y-95385500D01*
X121540236Y-95370687D01*
X121680233Y-95312698D01*
X121800451Y-95220451D01*
X121892698Y-95100233D01*
X121892699Y-95100229D01*
X121897624Y-95093812D01*
X121954052Y-95052610D01*
X122023798Y-95048455D01*
X122084719Y-95082668D01*
X122117471Y-95144385D01*
X122120000Y-95169299D01*
X122120000Y-95185000D01*
X122570000Y-95185000D01*
X122570000Y-95435000D01*
X122120000Y-95435000D01*
X122120000Y-95952342D01*
X122135348Y-96078749D01*
X122135349Y-96078751D01*
X122195630Y-96237697D01*
X122292192Y-96377593D01*
X122292198Y-96377599D01*
X122419432Y-96490319D01*
X122569955Y-96569318D01*
X122694999Y-96600139D01*
X122695000Y-96600139D01*
X122695000Y-96127150D01*
X122722455Y-96145495D01*
X122820000Y-96164898D01*
X122917545Y-96145495D01*
X122945000Y-96127150D01*
X122945000Y-96600139D01*
X123070044Y-96569318D01*
X123220567Y-96490319D01*
X123347801Y-96377599D01*
X123347807Y-96377593D01*
X123444369Y-96237697D01*
X123482407Y-96137401D01*
X125805746Y-96137401D01*
X125815745Y-96347327D01*
X125865296Y-96551578D01*
X125865298Y-96551582D01*
X125952598Y-96742743D01*
X125952601Y-96742748D01*
X125952602Y-96742750D01*
X125952604Y-96742753D01*
X126015627Y-96831256D01*
X126074515Y-96913953D01*
X126074520Y-96913959D01*
X126226620Y-97058985D01*
X126321578Y-97120011D01*
X126403428Y-97172613D01*
X126598543Y-97250725D01*
X126701729Y-97270612D01*
X126804914Y-97290500D01*
X126804915Y-97290500D01*
X127802419Y-97290500D01*
X127802425Y-97290500D01*
X127959218Y-97275528D01*
X128160875Y-97216316D01*
X128347682Y-97120011D01*
X128512886Y-96990092D01*
X128650519Y-96831256D01*
X128755604Y-96649244D01*
X128824344Y-96450633D01*
X128854254Y-96242602D01*
X128849243Y-96137401D01*
X129145746Y-96137401D01*
X129155745Y-96347327D01*
X129205296Y-96551578D01*
X129205298Y-96551582D01*
X129292598Y-96742743D01*
X129292601Y-96742748D01*
X129292602Y-96742750D01*
X129292604Y-96742753D01*
X129355627Y-96831256D01*
X129414515Y-96913953D01*
X129414520Y-96913959D01*
X129566620Y-97058985D01*
X129661578Y-97120011D01*
X129743428Y-97172613D01*
X129938543Y-97250725D01*
X130041729Y-97270612D01*
X130144914Y-97290500D01*
X130144915Y-97290500D01*
X131142419Y-97290500D01*
X131142425Y-97290500D01*
X131299218Y-97275528D01*
X131500875Y-97216316D01*
X131687682Y-97120011D01*
X131852886Y-96990092D01*
X131990519Y-96831256D01*
X132095604Y-96649244D01*
X132164344Y-96450633D01*
X132194254Y-96242602D01*
X132184254Y-96032670D01*
X132134704Y-95828424D01*
X132124121Y-95805250D01*
X132047401Y-95637256D01*
X132047398Y-95637251D01*
X132047397Y-95637250D01*
X132047396Y-95637247D01*
X131925486Y-95466048D01*
X131925484Y-95466046D01*
X131925479Y-95466040D01*
X131773379Y-95321014D01*
X131596574Y-95207388D01*
X131590032Y-95204769D01*
X131439987Y-95144700D01*
X131401455Y-95129274D01*
X131195086Y-95089500D01*
X131195085Y-95089500D01*
X130197575Y-95089500D01*
X130040782Y-95104472D01*
X130040778Y-95104473D01*
X129839127Y-95163683D01*
X129652313Y-95259991D01*
X129487116Y-95389905D01*
X129487112Y-95389909D01*
X129349478Y-95548746D01*
X129244398Y-95730750D01*
X129175656Y-95929365D01*
X129175656Y-95929367D01*
X129147058Y-96128279D01*
X129145746Y-96137401D01*
X128849243Y-96137401D01*
X128844254Y-96032670D01*
X128794704Y-95828424D01*
X128784121Y-95805250D01*
X128707401Y-95637256D01*
X128707398Y-95637251D01*
X128707397Y-95637250D01*
X128707396Y-95637247D01*
X128585486Y-95466048D01*
X128585484Y-95466046D01*
X128585479Y-95466040D01*
X128433379Y-95321014D01*
X128256574Y-95207388D01*
X128250032Y-95204769D01*
X128099987Y-95144700D01*
X128061455Y-95129274D01*
X127855086Y-95089500D01*
X127855085Y-95089500D01*
X126857575Y-95089500D01*
X126700782Y-95104472D01*
X126700778Y-95104473D01*
X126499127Y-95163683D01*
X126312313Y-95259991D01*
X126147116Y-95389905D01*
X126147112Y-95389909D01*
X126009478Y-95548746D01*
X125904398Y-95730750D01*
X125835656Y-95929365D01*
X125835656Y-95929367D01*
X125807058Y-96128279D01*
X125805746Y-96137401D01*
X123482407Y-96137401D01*
X123504650Y-96078751D01*
X123504651Y-96078749D01*
X123520000Y-95952342D01*
X123520000Y-95435000D01*
X123070000Y-95435000D01*
X123070000Y-95185000D01*
X123520000Y-95185000D01*
X123520000Y-94667657D01*
X123504651Y-94541250D01*
X123504650Y-94541248D01*
X123444369Y-94382302D01*
X123347807Y-94242406D01*
X123347801Y-94242400D01*
X123220567Y-94129680D01*
X123070044Y-94050681D01*
X122945000Y-94019860D01*
X122945000Y-94492849D01*
X122917545Y-94474505D01*
X122820000Y-94455102D01*
X122722455Y-94474505D01*
X122695000Y-94492849D01*
X122695000Y-94019860D01*
X122569955Y-94050681D01*
X122419432Y-94129680D01*
X122292198Y-94242400D01*
X122292192Y-94242406D01*
X122195630Y-94382302D01*
X122134485Y-94543527D01*
X122092306Y-94599229D01*
X122026709Y-94623286D01*
X121958519Y-94608059D01*
X121909386Y-94558383D01*
X121903982Y-94547008D01*
X121892699Y-94519770D01*
X121892698Y-94519767D01*
X121800451Y-94399549D01*
X121680233Y-94307302D01*
X121680229Y-94307300D01*
X121616801Y-94281027D01*
X121540236Y-94249313D01*
X121526171Y-94247461D01*
X121427727Y-94234500D01*
X121427720Y-94234500D01*
X121352280Y-94234500D01*
X121352272Y-94234500D01*
X121239764Y-94249313D01*
X121239763Y-94249313D01*
X121099770Y-94307300D01*
X121099767Y-94307301D01*
X121099767Y-94307302D01*
X120979549Y-94399549D01*
X120887902Y-94518986D01*
X120887300Y-94519770D01*
X120829313Y-94659763D01*
X120829312Y-94659765D01*
X120809534Y-94809999D01*
X120809534Y-94810000D01*
X116190466Y-94810000D01*
X116170687Y-94659764D01*
X116112698Y-94519767D01*
X116020451Y-94399549D01*
X115900233Y-94307302D01*
X115900229Y-94307300D01*
X115836801Y-94281027D01*
X115760236Y-94249313D01*
X115746171Y-94247461D01*
X115647727Y-94234500D01*
X115647720Y-94234500D01*
X115572280Y-94234500D01*
X115572272Y-94234500D01*
X115459764Y-94249313D01*
X115459763Y-94249313D01*
X115319770Y-94307300D01*
X115319767Y-94307301D01*
X115319767Y-94307302D01*
X115199549Y-94399549D01*
X115107902Y-94518986D01*
X115107300Y-94519770D01*
X115096016Y-94547011D01*
X115052173Y-94601413D01*
X114985879Y-94623476D01*
X114918180Y-94606195D01*
X114870571Y-94555057D01*
X114865514Y-94543526D01*
X114804370Y-94382304D01*
X114804369Y-94382303D01*
X114707807Y-94242406D01*
X114707801Y-94242400D01*
X114580567Y-94129680D01*
X114430044Y-94050681D01*
X114305000Y-94019860D01*
X114305000Y-94492849D01*
X114277545Y-94474505D01*
X114180000Y-94455102D01*
X114082455Y-94474505D01*
X114055000Y-94492849D01*
X114055000Y-94019860D01*
X113929955Y-94050681D01*
X113779432Y-94129680D01*
X113652198Y-94242400D01*
X113652192Y-94242406D01*
X113555630Y-94382302D01*
X113495349Y-94541248D01*
X113495348Y-94541250D01*
X113480000Y-94667657D01*
X113480000Y-95185000D01*
X113930000Y-95185000D01*
X113930000Y-95435000D01*
X113480000Y-95435000D01*
X113480000Y-95952342D01*
X82748710Y-95952342D01*
X82695232Y-95776046D01*
X82597685Y-95593550D01*
X82520910Y-95499999D01*
X82466410Y-95433589D01*
X82319103Y-95312699D01*
X82306450Y-95302315D01*
X82123954Y-95204768D01*
X81925934Y-95144700D01*
X81925932Y-95144699D01*
X81925934Y-95144699D01*
X81806805Y-95132966D01*
X81771608Y-95129500D01*
X80868392Y-95129500D01*
X80830298Y-95133251D01*
X80714067Y-95144699D01*
X80516043Y-95204769D01*
X80418520Y-95256897D01*
X80333550Y-95302315D01*
X80333548Y-95302316D01*
X80333547Y-95302317D01*
X80173589Y-95433589D01*
X80042317Y-95593547D01*
X80042315Y-95593550D01*
X80016087Y-95642619D01*
X79944769Y-95776043D01*
X79944768Y-95776045D01*
X79944768Y-95776046D01*
X79944544Y-95776784D01*
X79884699Y-95974067D01*
X79864417Y-96180000D01*
X75155583Y-96180000D01*
X75135300Y-95974066D01*
X75075232Y-95776046D01*
X74977685Y-95593550D01*
X74900910Y-95499999D01*
X74846410Y-95433589D01*
X74699103Y-95312699D01*
X74686450Y-95302315D01*
X74503954Y-95204768D01*
X74305934Y-95144700D01*
X74305932Y-95144699D01*
X74305934Y-95144699D01*
X74186805Y-95132966D01*
X74151608Y-95129500D01*
X73248392Y-95129500D01*
X73210298Y-95133251D01*
X73094067Y-95144699D01*
X72896043Y-95204769D01*
X72713546Y-95302317D01*
X72632791Y-95368591D01*
X72568481Y-95395903D01*
X72499614Y-95384112D01*
X72448054Y-95336959D01*
X72431188Y-95288923D01*
X72424807Y-95240454D01*
X72378756Y-95129275D01*
X72369339Y-95106540D01*
X72369338Y-95106539D01*
X72369338Y-95106538D01*
X72281098Y-94991542D01*
X72265111Y-94979275D01*
X83719433Y-94979275D01*
X83732682Y-95079913D01*
X83738353Y-95122983D01*
X83738354Y-95122987D01*
X83793820Y-95256897D01*
X83793821Y-95256899D01*
X83793822Y-95256900D01*
X83882062Y-95371896D01*
X83997058Y-95460136D01*
X83997059Y-95460136D01*
X83997060Y-95460137D01*
X84011326Y-95466046D01*
X84130974Y-95515605D01*
X84257963Y-95532323D01*
X84274682Y-95534525D01*
X84274683Y-95534525D01*
X84274684Y-95534525D01*
X84289660Y-95532553D01*
X84418392Y-95515605D01*
X84552308Y-95460136D01*
X84667304Y-95371896D01*
X84755544Y-95256900D01*
X84811013Y-95122984D01*
X84829933Y-94979275D01*
X84811013Y-94835566D01*
X84755544Y-94701650D01*
X84667304Y-94586654D01*
X84552308Y-94498414D01*
X84552307Y-94498413D01*
X84552305Y-94498412D01*
X84418395Y-94442946D01*
X84418393Y-94442945D01*
X84418392Y-94442945D01*
X84346537Y-94433485D01*
X84274684Y-94424025D01*
X84274682Y-94424025D01*
X84130974Y-94442945D01*
X84130970Y-94442946D01*
X83997060Y-94498412D01*
X83882062Y-94586654D01*
X83793820Y-94701652D01*
X83738354Y-94835562D01*
X83738353Y-94835566D01*
X83721940Y-94960236D01*
X83719433Y-94979275D01*
X72265111Y-94979275D01*
X72166102Y-94903302D01*
X72166101Y-94903301D01*
X72166099Y-94903300D01*
X72032189Y-94847834D01*
X72032187Y-94847833D01*
X72032186Y-94847833D01*
X71939011Y-94835566D01*
X71888478Y-94828913D01*
X71888476Y-94828913D01*
X71744768Y-94847833D01*
X71744764Y-94847834D01*
X71610854Y-94903300D01*
X71564853Y-94938598D01*
X71495856Y-94991542D01*
X71495854Y-94991543D01*
X71495853Y-94991545D01*
X71459660Y-95038711D01*
X71403232Y-95079913D01*
X71333485Y-95084066D01*
X71272566Y-95049853D01*
X71246725Y-95010676D01*
X71230861Y-94972375D01*
X71142621Y-94857379D01*
X71027625Y-94769139D01*
X71027624Y-94769138D01*
X71027622Y-94769137D01*
X70893712Y-94713671D01*
X70893710Y-94713670D01*
X70893709Y-94713670D01*
X70802410Y-94701650D01*
X70750001Y-94694750D01*
X70749999Y-94694750D01*
X70606291Y-94713670D01*
X70606287Y-94713671D01*
X70472377Y-94769137D01*
X70357379Y-94857379D01*
X70269137Y-94972377D01*
X70213671Y-95106287D01*
X70213670Y-95106291D01*
X70194750Y-95249999D01*
X70194750Y-95250000D01*
X63992303Y-95250000D01*
X63980862Y-95222377D01*
X63980861Y-95222376D01*
X63980861Y-95222375D01*
X63892621Y-95107379D01*
X63777625Y-95019139D01*
X63777624Y-95019138D01*
X63777622Y-95019137D01*
X63643712Y-94963671D01*
X63643710Y-94963670D01*
X63643709Y-94963670D01*
X63571854Y-94954210D01*
X63500001Y-94944750D01*
X63499999Y-94944750D01*
X63356291Y-94963670D01*
X63356287Y-94963671D01*
X63222377Y-95019137D01*
X63107379Y-95107379D01*
X63019137Y-95222377D01*
X62963671Y-95356287D01*
X62963670Y-95356291D01*
X62953308Y-95435000D01*
X62944750Y-95500000D01*
X56949663Y-95500000D01*
X56925486Y-95466048D01*
X56925484Y-95466046D01*
X56925479Y-95466040D01*
X56773379Y-95321014D01*
X56596574Y-95207388D01*
X56590032Y-95204769D01*
X56439987Y-95144700D01*
X56401455Y-95129274D01*
X56195086Y-95089500D01*
X56195085Y-95089500D01*
X55197575Y-95089500D01*
X55040782Y-95104472D01*
X55040778Y-95104473D01*
X54839127Y-95163683D01*
X54652313Y-95259991D01*
X54487116Y-95389905D01*
X54487112Y-95389909D01*
X54349478Y-95548746D01*
X54244398Y-95730750D01*
X54175656Y-95929365D01*
X54175656Y-95929367D01*
X54147058Y-96128279D01*
X54145746Y-96137401D01*
X53849243Y-96137401D01*
X53844254Y-96032670D01*
X53794704Y-95828424D01*
X53784121Y-95805250D01*
X53707401Y-95637256D01*
X53707398Y-95637251D01*
X53707397Y-95637250D01*
X53707396Y-95637247D01*
X53585486Y-95466048D01*
X53585484Y-95466046D01*
X53585479Y-95466040D01*
X53433379Y-95321014D01*
X53256574Y-95207388D01*
X53250032Y-95204769D01*
X53099987Y-95144700D01*
X53061455Y-95129274D01*
X52855086Y-95089500D01*
X52855085Y-95089500D01*
X51857575Y-95089500D01*
X51700782Y-95104472D01*
X51700778Y-95104473D01*
X51499127Y-95163683D01*
X51312313Y-95259991D01*
X51147116Y-95389905D01*
X51147112Y-95389909D01*
X51009478Y-95548746D01*
X50904398Y-95730750D01*
X50835656Y-95929365D01*
X50835656Y-95929367D01*
X50807058Y-96128279D01*
X50805746Y-96137401D01*
X50500500Y-96137401D01*
X50500500Y-93597401D01*
X50805746Y-93597401D01*
X50815745Y-93807327D01*
X50865296Y-94011578D01*
X50865298Y-94011582D01*
X50952598Y-94202743D01*
X50952601Y-94202748D01*
X50952602Y-94202750D01*
X50952604Y-94202753D01*
X51027053Y-94307302D01*
X51074515Y-94373953D01*
X51074520Y-94373959D01*
X51226620Y-94518985D01*
X51321578Y-94580011D01*
X51403428Y-94632613D01*
X51598543Y-94710725D01*
X51701729Y-94730612D01*
X51804914Y-94750500D01*
X51804915Y-94750500D01*
X52802419Y-94750500D01*
X52802425Y-94750500D01*
X52959218Y-94735528D01*
X53160875Y-94676316D01*
X53347682Y-94580011D01*
X53512886Y-94450092D01*
X53650519Y-94291256D01*
X53690287Y-94222377D01*
X53755601Y-94109249D01*
X53755600Y-94109249D01*
X53755604Y-94109244D01*
X53824344Y-93910633D01*
X53854254Y-93702602D01*
X53849243Y-93597401D01*
X54145746Y-93597401D01*
X54155745Y-93807327D01*
X54205296Y-94011578D01*
X54205298Y-94011582D01*
X54292598Y-94202743D01*
X54292601Y-94202748D01*
X54292602Y-94202750D01*
X54292604Y-94202753D01*
X54367053Y-94307302D01*
X54414515Y-94373953D01*
X54414520Y-94373959D01*
X54566620Y-94518985D01*
X54661578Y-94580011D01*
X54743428Y-94632613D01*
X54938543Y-94710725D01*
X55041729Y-94730612D01*
X55144914Y-94750500D01*
X55144915Y-94750500D01*
X56142419Y-94750500D01*
X56142425Y-94750500D01*
X56299218Y-94735528D01*
X56500875Y-94676316D01*
X56687682Y-94580011D01*
X56789423Y-94500000D01*
X58194750Y-94500000D01*
X58206158Y-94586654D01*
X58213670Y-94643708D01*
X58213671Y-94643712D01*
X58269137Y-94777622D01*
X58269138Y-94777624D01*
X58269139Y-94777625D01*
X58357379Y-94892621D01*
X58472375Y-94980861D01*
X58472376Y-94980861D01*
X58472377Y-94980862D01*
X58498169Y-94991545D01*
X58606291Y-95036330D01*
X58729948Y-95052610D01*
X58749999Y-95055250D01*
X58750000Y-95055250D01*
X58750001Y-95055250D01*
X58770052Y-95052610D01*
X58893709Y-95036330D01*
X59027625Y-94980861D01*
X59142621Y-94892621D01*
X59230861Y-94777625D01*
X59286330Y-94643709D01*
X59305250Y-94500000D01*
X65194750Y-94500000D01*
X65206158Y-94586654D01*
X65213670Y-94643708D01*
X65213671Y-94643712D01*
X65269137Y-94777622D01*
X65269138Y-94777624D01*
X65269139Y-94777625D01*
X65357379Y-94892621D01*
X65472375Y-94980861D01*
X65472376Y-94980861D01*
X65472377Y-94980862D01*
X65498169Y-94991545D01*
X65606291Y-95036330D01*
X65729948Y-95052610D01*
X65749999Y-95055250D01*
X65750000Y-95055250D01*
X65750001Y-95055250D01*
X65770052Y-95052610D01*
X65893709Y-95036330D01*
X66027625Y-94980861D01*
X66142621Y-94892621D01*
X66230861Y-94777625D01*
X66286330Y-94643709D01*
X66305250Y-94500000D01*
X66286330Y-94356291D01*
X66235883Y-94234500D01*
X66230862Y-94222377D01*
X66230861Y-94222376D01*
X66230861Y-94222375D01*
X66142621Y-94107379D01*
X66027625Y-94019139D01*
X66027624Y-94019138D01*
X66027622Y-94019137D01*
X65893712Y-93963671D01*
X65893710Y-93963670D01*
X65893709Y-93963670D01*
X65821854Y-93954210D01*
X65750001Y-93944750D01*
X65749999Y-93944750D01*
X65606291Y-93963670D01*
X65606287Y-93963671D01*
X65472377Y-94019137D01*
X65357379Y-94107379D01*
X65269137Y-94222377D01*
X65213671Y-94356287D01*
X65213670Y-94356291D01*
X65198107Y-94474505D01*
X65194750Y-94500000D01*
X59305250Y-94500000D01*
X59286330Y-94356291D01*
X59235883Y-94234500D01*
X59230862Y-94222377D01*
X59230861Y-94222376D01*
X59230861Y-94222375D01*
X59142621Y-94107379D01*
X59027625Y-94019139D01*
X59027624Y-94019138D01*
X59027622Y-94019137D01*
X58893712Y-93963671D01*
X58893710Y-93963670D01*
X58893709Y-93963670D01*
X58821854Y-93954210D01*
X58750001Y-93944750D01*
X58749999Y-93944750D01*
X58606291Y-93963670D01*
X58606287Y-93963671D01*
X58472377Y-94019137D01*
X58357379Y-94107379D01*
X58269137Y-94222377D01*
X58213671Y-94356287D01*
X58213670Y-94356291D01*
X58198107Y-94474505D01*
X58194750Y-94500000D01*
X56789423Y-94500000D01*
X56852886Y-94450092D01*
X56990519Y-94291256D01*
X57030287Y-94222377D01*
X57095601Y-94109249D01*
X57095600Y-94109249D01*
X57095604Y-94109244D01*
X57164344Y-93910633D01*
X57187439Y-93750000D01*
X61929750Y-93750000D01*
X61948670Y-93893708D01*
X61948671Y-93893712D01*
X62004137Y-94027622D01*
X62004138Y-94027624D01*
X62004139Y-94027625D01*
X62092379Y-94142621D01*
X62207375Y-94230861D01*
X62207376Y-94230861D01*
X62207377Y-94230862D01*
X62251923Y-94249313D01*
X62341291Y-94286330D01*
X62468280Y-94303048D01*
X62484999Y-94305250D01*
X62485000Y-94305250D01*
X62485001Y-94305250D01*
X62499977Y-94303278D01*
X62628709Y-94286330D01*
X62762625Y-94230861D01*
X62877621Y-94142621D01*
X62965861Y-94027625D01*
X63021330Y-93893709D01*
X63040250Y-93750000D01*
X68929750Y-93750000D01*
X68948670Y-93893708D01*
X68948671Y-93893712D01*
X69004137Y-94027622D01*
X69004138Y-94027624D01*
X69004139Y-94027625D01*
X69092379Y-94142621D01*
X69207375Y-94230861D01*
X69207376Y-94230861D01*
X69207377Y-94230862D01*
X69251923Y-94249313D01*
X69341291Y-94286330D01*
X69468280Y-94303048D01*
X69484999Y-94305250D01*
X69485000Y-94305250D01*
X69485001Y-94305250D01*
X69499977Y-94303278D01*
X69628709Y-94286330D01*
X69762625Y-94230861D01*
X69877621Y-94142621D01*
X69965861Y-94027625D01*
X70021330Y-93893709D01*
X70040250Y-93750000D01*
X70025768Y-93640000D01*
X72244417Y-93640000D01*
X72264699Y-93845932D01*
X72264700Y-93845934D01*
X72324768Y-94043954D01*
X72422315Y-94226450D01*
X72435405Y-94242400D01*
X72553589Y-94386410D01*
X72637292Y-94455102D01*
X72713550Y-94517685D01*
X72896046Y-94615232D01*
X73094066Y-94675300D01*
X73094065Y-94675300D01*
X73104381Y-94676316D01*
X73248392Y-94690500D01*
X73248395Y-94690500D01*
X74151605Y-94690500D01*
X74151608Y-94690500D01*
X74305934Y-94675300D01*
X74503954Y-94615232D01*
X74686450Y-94517685D01*
X74846410Y-94386410D01*
X74977685Y-94226450D01*
X75075232Y-94043954D01*
X75135300Y-93845934D01*
X75155583Y-93640000D01*
X79864417Y-93640000D01*
X79884699Y-93845932D01*
X79884700Y-93845934D01*
X79944768Y-94043954D01*
X80042315Y-94226450D01*
X80055405Y-94242400D01*
X80173589Y-94386410D01*
X80257292Y-94455102D01*
X80333550Y-94517685D01*
X80516046Y-94615232D01*
X80714066Y-94675300D01*
X80714065Y-94675300D01*
X80724381Y-94676316D01*
X80868392Y-94690500D01*
X80868395Y-94690500D01*
X81771605Y-94690500D01*
X81771608Y-94690500D01*
X81925934Y-94675300D01*
X82123954Y-94615232D01*
X82306450Y-94517685D01*
X82466410Y-94386410D01*
X82597685Y-94226450D01*
X82695232Y-94043954D01*
X82755300Y-93845934D01*
X82764749Y-93750000D01*
X89944750Y-93750000D01*
X89963670Y-93893708D01*
X89963671Y-93893712D01*
X90019137Y-94027622D01*
X90019138Y-94027624D01*
X90019139Y-94027625D01*
X90107379Y-94142621D01*
X90222375Y-94230861D01*
X90222376Y-94230861D01*
X90222377Y-94230862D01*
X90266923Y-94249313D01*
X90356291Y-94286330D01*
X90483280Y-94303048D01*
X90499999Y-94305250D01*
X90500000Y-94305250D01*
X90500001Y-94305250D01*
X90514977Y-94303278D01*
X90643709Y-94286330D01*
X90777625Y-94230861D01*
X90892621Y-94142621D01*
X90980861Y-94027625D01*
X91036330Y-93893709D01*
X91055250Y-93750000D01*
X91036330Y-93606291D01*
X90996996Y-93511328D01*
X90992304Y-93500000D01*
X97444750Y-93500000D01*
X97463670Y-93643708D01*
X97463671Y-93643712D01*
X97519137Y-93777622D01*
X97519138Y-93777624D01*
X97519139Y-93777625D01*
X97607379Y-93892621D01*
X97722375Y-93980861D01*
X97856291Y-94036330D01*
X97983280Y-94053048D01*
X97999999Y-94055250D01*
X98000000Y-94055250D01*
X98000001Y-94055250D01*
X98014977Y-94053278D01*
X98143709Y-94036330D01*
X98277625Y-93980861D01*
X98392621Y-93892621D01*
X98480861Y-93777625D01*
X98492303Y-93750000D01*
X98944750Y-93750000D01*
X98963670Y-93893708D01*
X98963671Y-93893712D01*
X99019137Y-94027622D01*
X99019138Y-94027624D01*
X99019139Y-94027625D01*
X99107379Y-94142621D01*
X99222375Y-94230861D01*
X99222376Y-94230861D01*
X99222377Y-94230862D01*
X99266923Y-94249313D01*
X99356291Y-94286330D01*
X99483280Y-94303048D01*
X99499999Y-94305250D01*
X99500000Y-94305250D01*
X99500001Y-94305250D01*
X99514977Y-94303278D01*
X99643709Y-94286330D01*
X99777625Y-94230861D01*
X99892621Y-94142621D01*
X99980861Y-94027625D01*
X100036330Y-93893709D01*
X100055250Y-93750000D01*
X108194750Y-93750000D01*
X108213670Y-93893708D01*
X108213671Y-93893712D01*
X108269137Y-94027622D01*
X108269138Y-94027624D01*
X108269139Y-94027625D01*
X108357379Y-94142621D01*
X108472375Y-94230861D01*
X108472376Y-94230861D01*
X108472377Y-94230862D01*
X108516923Y-94249313D01*
X108606291Y-94286330D01*
X108733280Y-94303048D01*
X108749999Y-94305250D01*
X108750000Y-94305250D01*
X108750001Y-94305250D01*
X108764977Y-94303278D01*
X108893709Y-94286330D01*
X109027625Y-94230861D01*
X109142621Y-94142621D01*
X109230861Y-94027625D01*
X109286330Y-93893709D01*
X109305250Y-93750000D01*
X109694750Y-93750000D01*
X109713670Y-93893708D01*
X109713671Y-93893712D01*
X109769137Y-94027622D01*
X109769138Y-94027624D01*
X109769139Y-94027625D01*
X109857379Y-94142621D01*
X109972375Y-94230861D01*
X109972376Y-94230861D01*
X109972377Y-94230862D01*
X110016923Y-94249313D01*
X110106291Y-94286330D01*
X110233280Y-94303048D01*
X110249999Y-94305250D01*
X110250000Y-94305250D01*
X110250001Y-94305250D01*
X110264977Y-94303278D01*
X110393709Y-94286330D01*
X110527625Y-94230861D01*
X110642621Y-94142621D01*
X110730861Y-94027625D01*
X110786330Y-93893709D01*
X110805250Y-93750000D01*
X110786330Y-93606291D01*
X110782648Y-93597401D01*
X125805746Y-93597401D01*
X125815745Y-93807327D01*
X125865296Y-94011578D01*
X125865298Y-94011582D01*
X125952598Y-94202743D01*
X125952601Y-94202748D01*
X125952602Y-94202750D01*
X125952604Y-94202753D01*
X126027053Y-94307302D01*
X126074515Y-94373953D01*
X126074520Y-94373959D01*
X126226620Y-94518985D01*
X126321578Y-94580011D01*
X126403428Y-94632613D01*
X126598543Y-94710725D01*
X126701729Y-94730612D01*
X126804914Y-94750500D01*
X126804915Y-94750500D01*
X127802419Y-94750500D01*
X127802425Y-94750500D01*
X127959218Y-94735528D01*
X128160875Y-94676316D01*
X128347682Y-94580011D01*
X128512886Y-94450092D01*
X128650519Y-94291256D01*
X128690287Y-94222377D01*
X128755601Y-94109249D01*
X128755600Y-94109249D01*
X128755604Y-94109244D01*
X128824344Y-93910633D01*
X128854254Y-93702602D01*
X128849243Y-93597401D01*
X129145746Y-93597401D01*
X129155745Y-93807327D01*
X129205296Y-94011578D01*
X129205298Y-94011582D01*
X129292598Y-94202743D01*
X129292601Y-94202748D01*
X129292602Y-94202750D01*
X129292604Y-94202753D01*
X129367053Y-94307302D01*
X129414515Y-94373953D01*
X129414520Y-94373959D01*
X129566620Y-94518985D01*
X129661578Y-94580011D01*
X129743428Y-94632613D01*
X129938543Y-94710725D01*
X130041729Y-94730612D01*
X130144914Y-94750500D01*
X130144915Y-94750500D01*
X131142419Y-94750500D01*
X131142425Y-94750500D01*
X131299218Y-94735528D01*
X131500875Y-94676316D01*
X131687682Y-94580011D01*
X131852886Y-94450092D01*
X131990519Y-94291256D01*
X132030287Y-94222377D01*
X132095601Y-94109249D01*
X132095600Y-94109249D01*
X132095604Y-94109244D01*
X132164344Y-93910633D01*
X132194254Y-93702602D01*
X132184254Y-93492670D01*
X132134704Y-93288424D01*
X132110784Y-93236046D01*
X132047401Y-93097256D01*
X132047398Y-93097251D01*
X132047397Y-93097250D01*
X132047396Y-93097247D01*
X131925486Y-92926048D01*
X131925484Y-92926046D01*
X131925479Y-92926040D01*
X131773379Y-92781014D01*
X131596574Y-92667388D01*
X131590032Y-92664769D01*
X131439987Y-92604700D01*
X131401455Y-92589274D01*
X131195086Y-92549500D01*
X131195085Y-92549500D01*
X130197575Y-92549500D01*
X130040782Y-92564472D01*
X130040778Y-92564473D01*
X129839127Y-92623683D01*
X129652313Y-92719991D01*
X129487116Y-92849905D01*
X129487112Y-92849909D01*
X129349478Y-93008746D01*
X129244398Y-93190750D01*
X129175656Y-93389365D01*
X129175656Y-93389367D01*
X129155401Y-93530250D01*
X129145746Y-93597401D01*
X128849243Y-93597401D01*
X128844254Y-93492670D01*
X128794704Y-93288424D01*
X128770784Y-93236046D01*
X128707401Y-93097256D01*
X128707398Y-93097251D01*
X128707397Y-93097250D01*
X128707396Y-93097247D01*
X128585486Y-92926048D01*
X128585484Y-92926046D01*
X128585479Y-92926040D01*
X128433379Y-92781014D01*
X128256574Y-92667388D01*
X128250032Y-92664769D01*
X128099987Y-92604700D01*
X128061455Y-92589274D01*
X127855086Y-92549500D01*
X127855085Y-92549500D01*
X126857575Y-92549500D01*
X126700782Y-92564472D01*
X126700778Y-92564473D01*
X126499127Y-92623683D01*
X126312313Y-92719991D01*
X126147116Y-92849905D01*
X126147112Y-92849909D01*
X126009478Y-93008746D01*
X125904398Y-93190750D01*
X125835656Y-93389365D01*
X125835656Y-93389367D01*
X125815401Y-93530250D01*
X125805746Y-93597401D01*
X110782648Y-93597401D01*
X110746996Y-93511328D01*
X110730862Y-93472377D01*
X110730861Y-93472376D01*
X110730861Y-93472375D01*
X110642621Y-93357379D01*
X110527625Y-93269139D01*
X110527624Y-93269138D01*
X110527622Y-93269137D01*
X110393712Y-93213671D01*
X110393710Y-93213670D01*
X110393709Y-93213670D01*
X110321854Y-93204210D01*
X110250001Y-93194750D01*
X110249999Y-93194750D01*
X110106291Y-93213670D01*
X110106287Y-93213671D01*
X109972377Y-93269137D01*
X109857379Y-93357379D01*
X109769137Y-93472377D01*
X109713671Y-93606287D01*
X109713670Y-93606291D01*
X109694750Y-93749999D01*
X109694750Y-93750000D01*
X109305250Y-93750000D01*
X109286330Y-93606291D01*
X109246996Y-93511328D01*
X109230862Y-93472377D01*
X109230861Y-93472376D01*
X109230861Y-93472375D01*
X109142621Y-93357379D01*
X109027625Y-93269139D01*
X109027624Y-93269138D01*
X109027622Y-93269137D01*
X108893712Y-93213671D01*
X108893710Y-93213670D01*
X108893709Y-93213670D01*
X108821854Y-93204210D01*
X108750001Y-93194750D01*
X108749999Y-93194750D01*
X108606291Y-93213670D01*
X108606287Y-93213671D01*
X108472377Y-93269137D01*
X108357379Y-93357379D01*
X108269137Y-93472377D01*
X108213671Y-93606287D01*
X108213670Y-93606291D01*
X108194750Y-93749999D01*
X108194750Y-93750000D01*
X100055250Y-93750000D01*
X100036330Y-93606291D01*
X99996996Y-93511328D01*
X99980862Y-93472377D01*
X99980861Y-93472376D01*
X99980861Y-93472375D01*
X99892621Y-93357379D01*
X99777625Y-93269139D01*
X99777624Y-93269138D01*
X99777622Y-93269137D01*
X99643712Y-93213671D01*
X99643710Y-93213670D01*
X99643709Y-93213670D01*
X99571854Y-93204210D01*
X99500001Y-93194750D01*
X99499999Y-93194750D01*
X99356291Y-93213670D01*
X99356287Y-93213671D01*
X99222377Y-93269137D01*
X99107379Y-93357379D01*
X99019137Y-93472377D01*
X98963671Y-93606287D01*
X98963670Y-93606291D01*
X98944750Y-93749999D01*
X98944750Y-93750000D01*
X98492303Y-93750000D01*
X98536330Y-93643709D01*
X98555250Y-93500000D01*
X98536330Y-93356291D01*
X98486524Y-93236046D01*
X98480862Y-93222377D01*
X98480861Y-93222376D01*
X98480861Y-93222375D01*
X98392621Y-93107379D01*
X98277625Y-93019139D01*
X98277624Y-93019138D01*
X98277622Y-93019137D01*
X98143712Y-92963671D01*
X98143710Y-92963670D01*
X98143709Y-92963670D01*
X98071854Y-92954210D01*
X98000001Y-92944750D01*
X97999999Y-92944750D01*
X97856291Y-92963670D01*
X97856287Y-92963671D01*
X97722377Y-93019137D01*
X97607379Y-93107379D01*
X97519137Y-93222377D01*
X97463671Y-93356287D01*
X97463670Y-93356291D01*
X97444750Y-93499999D01*
X97444750Y-93500000D01*
X90992304Y-93500000D01*
X90980862Y-93472377D01*
X90980861Y-93472376D01*
X90980861Y-93472375D01*
X90892621Y-93357379D01*
X90777625Y-93269139D01*
X90777624Y-93269138D01*
X90777622Y-93269137D01*
X90643712Y-93213671D01*
X90643710Y-93213670D01*
X90643709Y-93213670D01*
X90571854Y-93204210D01*
X90500001Y-93194750D01*
X90499999Y-93194750D01*
X90356291Y-93213670D01*
X90356287Y-93213671D01*
X90222377Y-93269137D01*
X90107379Y-93357379D01*
X90019137Y-93472377D01*
X89963671Y-93606287D01*
X89963670Y-93606291D01*
X89944750Y-93749999D01*
X89944750Y-93750000D01*
X82764749Y-93750000D01*
X82775583Y-93640000D01*
X82755300Y-93434066D01*
X82695232Y-93236046D01*
X82597685Y-93053550D01*
X82508396Y-92944750D01*
X82466410Y-92893589D01*
X82348677Y-92796969D01*
X82306450Y-92762315D01*
X82123954Y-92664768D01*
X81925934Y-92604700D01*
X81925932Y-92604699D01*
X81925934Y-92604699D01*
X81806805Y-92592966D01*
X81771608Y-92589500D01*
X80868392Y-92589500D01*
X80830298Y-92593251D01*
X80714067Y-92604699D01*
X80516043Y-92664769D01*
X80455043Y-92697375D01*
X80333550Y-92762315D01*
X80333548Y-92762316D01*
X80333547Y-92762317D01*
X80173589Y-92893589D01*
X80042317Y-93053547D01*
X80042315Y-93053550D01*
X80007485Y-93118712D01*
X79944769Y-93236043D01*
X79884699Y-93434067D01*
X79864417Y-93640000D01*
X75155583Y-93640000D01*
X75135300Y-93434066D01*
X75075232Y-93236046D01*
X74977685Y-93053550D01*
X74888396Y-92944750D01*
X74846410Y-92893589D01*
X74728677Y-92796969D01*
X74686450Y-92762315D01*
X74503954Y-92664768D01*
X74305934Y-92604700D01*
X74305932Y-92604699D01*
X74305934Y-92604699D01*
X74186805Y-92592966D01*
X74151608Y-92589500D01*
X73248392Y-92589500D01*
X73210298Y-92593251D01*
X73094067Y-92604699D01*
X72896043Y-92664769D01*
X72835043Y-92697375D01*
X72713550Y-92762315D01*
X72713548Y-92762316D01*
X72713547Y-92762317D01*
X72553589Y-92893589D01*
X72422317Y-93053547D01*
X72422315Y-93053550D01*
X72387485Y-93118712D01*
X72324769Y-93236043D01*
X72264699Y-93434067D01*
X72244417Y-93640000D01*
X70025768Y-93640000D01*
X70021330Y-93606291D01*
X69981996Y-93511328D01*
X69965862Y-93472377D01*
X69965861Y-93472376D01*
X69965861Y-93472375D01*
X69877621Y-93357379D01*
X69762625Y-93269139D01*
X69762624Y-93269138D01*
X69762622Y-93269137D01*
X69628712Y-93213671D01*
X69628710Y-93213670D01*
X69628709Y-93213670D01*
X69556854Y-93204210D01*
X69485001Y-93194750D01*
X69484999Y-93194750D01*
X69341291Y-93213670D01*
X69341287Y-93213671D01*
X69207377Y-93269137D01*
X69092379Y-93357379D01*
X69004137Y-93472377D01*
X68948671Y-93606287D01*
X68948670Y-93606291D01*
X68929750Y-93749999D01*
X68929750Y-93750000D01*
X63040250Y-93750000D01*
X63021330Y-93606291D01*
X62981996Y-93511328D01*
X62965862Y-93472377D01*
X62965861Y-93472376D01*
X62965861Y-93472375D01*
X62877621Y-93357379D01*
X62762625Y-93269139D01*
X62762624Y-93269138D01*
X62762622Y-93269137D01*
X62628712Y-93213671D01*
X62628710Y-93213670D01*
X62628709Y-93213670D01*
X62556854Y-93204210D01*
X62485001Y-93194750D01*
X62484999Y-93194750D01*
X62341291Y-93213670D01*
X62341287Y-93213671D01*
X62207377Y-93269137D01*
X62092379Y-93357379D01*
X62004137Y-93472377D01*
X61948671Y-93606287D01*
X61948670Y-93606291D01*
X61929750Y-93749999D01*
X61929750Y-93750000D01*
X57187439Y-93750000D01*
X57194254Y-93702602D01*
X57184254Y-93492670D01*
X57134704Y-93288424D01*
X57110784Y-93236046D01*
X57047401Y-93097256D01*
X57047398Y-93097251D01*
X57047397Y-93097250D01*
X57047396Y-93097247D01*
X56960344Y-92975000D01*
X64194750Y-92975000D01*
X64210844Y-93097247D01*
X64213670Y-93118708D01*
X64213671Y-93118712D01*
X64269137Y-93252622D01*
X64269138Y-93252624D01*
X64269139Y-93252625D01*
X64357379Y-93367621D01*
X64472375Y-93455861D01*
X64606291Y-93511330D01*
X64733280Y-93528048D01*
X64749999Y-93530250D01*
X64750000Y-93530250D01*
X64750001Y-93530250D01*
X64764977Y-93528278D01*
X64893709Y-93511330D01*
X65027625Y-93455861D01*
X65142621Y-93367621D01*
X65230861Y-93252625D01*
X65286330Y-93118709D01*
X65305250Y-92975000D01*
X65303758Y-92963671D01*
X65298804Y-92926040D01*
X65286330Y-92831291D01*
X65230861Y-92697375D01*
X65142621Y-92582379D01*
X65027625Y-92494139D01*
X65027624Y-92494138D01*
X65027622Y-92494137D01*
X64893712Y-92438671D01*
X64893710Y-92438670D01*
X64893709Y-92438670D01*
X64821854Y-92429210D01*
X64750001Y-92419750D01*
X64749999Y-92419750D01*
X64606291Y-92438670D01*
X64606287Y-92438671D01*
X64472377Y-92494137D01*
X64357379Y-92582379D01*
X64269137Y-92697377D01*
X64213671Y-92831287D01*
X64213670Y-92831291D01*
X64196242Y-92963671D01*
X64194750Y-92975000D01*
X56960344Y-92975000D01*
X56925486Y-92926048D01*
X56925484Y-92926046D01*
X56925479Y-92926040D01*
X56773379Y-92781014D01*
X56596574Y-92667388D01*
X56590032Y-92664769D01*
X56439987Y-92604700D01*
X56401455Y-92589274D01*
X56195086Y-92549500D01*
X56195085Y-92549500D01*
X55197575Y-92549500D01*
X55040782Y-92564472D01*
X55040778Y-92564473D01*
X54839127Y-92623683D01*
X54652313Y-92719991D01*
X54487116Y-92849905D01*
X54487112Y-92849909D01*
X54349478Y-93008746D01*
X54244398Y-93190750D01*
X54175656Y-93389365D01*
X54175656Y-93389367D01*
X54155401Y-93530250D01*
X54145746Y-93597401D01*
X53849243Y-93597401D01*
X53844254Y-93492670D01*
X53794704Y-93288424D01*
X53770784Y-93236046D01*
X53707401Y-93097256D01*
X53707398Y-93097251D01*
X53707397Y-93097250D01*
X53707396Y-93097247D01*
X53585486Y-92926048D01*
X53585484Y-92926046D01*
X53585479Y-92926040D01*
X53433379Y-92781014D01*
X53256574Y-92667388D01*
X53250032Y-92664769D01*
X53099987Y-92604700D01*
X53061455Y-92589274D01*
X52855086Y-92549500D01*
X52855085Y-92549500D01*
X51857575Y-92549500D01*
X51700782Y-92564472D01*
X51700778Y-92564473D01*
X51499127Y-92623683D01*
X51312313Y-92719991D01*
X51147116Y-92849905D01*
X51147112Y-92849909D01*
X51009478Y-93008746D01*
X50904398Y-93190750D01*
X50835656Y-93389365D01*
X50835656Y-93389367D01*
X50815401Y-93530250D01*
X50805746Y-93597401D01*
X50500500Y-93597401D01*
X50500500Y-92250000D01*
X88194750Y-92250000D01*
X88213670Y-92393708D01*
X88213671Y-92393712D01*
X88269137Y-92527622D01*
X88269138Y-92527624D01*
X88269139Y-92527625D01*
X88357379Y-92642621D01*
X88472375Y-92730861D01*
X88606291Y-92786330D01*
X88733280Y-92803048D01*
X88749999Y-92805250D01*
X88750000Y-92805250D01*
X88750001Y-92805250D01*
X88764977Y-92803278D01*
X88893709Y-92786330D01*
X89027625Y-92730861D01*
X89142621Y-92642621D01*
X89230861Y-92527625D01*
X89286330Y-92393709D01*
X89305250Y-92250000D01*
X89286330Y-92106291D01*
X89235633Y-91983895D01*
X89230862Y-91972377D01*
X89230861Y-91972376D01*
X89230861Y-91972375D01*
X89142621Y-91857379D01*
X89027625Y-91769139D01*
X89027624Y-91769138D01*
X89027622Y-91769137D01*
X88981420Y-91750000D01*
X89944750Y-91750000D01*
X89958460Y-91854139D01*
X89963670Y-91893708D01*
X89963671Y-91893712D01*
X90019137Y-92027622D01*
X90019138Y-92027624D01*
X90019139Y-92027625D01*
X90107379Y-92142621D01*
X90222375Y-92230861D01*
X90356291Y-92286330D01*
X90483280Y-92303048D01*
X90499999Y-92305250D01*
X90500000Y-92305250D01*
X90500001Y-92305250D01*
X90514977Y-92303278D01*
X90643709Y-92286330D01*
X90777625Y-92230861D01*
X90892621Y-92142621D01*
X90980861Y-92027625D01*
X91036330Y-91893709D01*
X91055250Y-91750000D01*
X91051784Y-91723677D01*
X113430000Y-91723677D01*
X113445248Y-91854139D01*
X113505212Y-92018889D01*
X113601556Y-92165373D01*
X113729078Y-92285685D01*
X113880916Y-92373348D01*
X114048880Y-92423634D01*
X114055000Y-92423990D01*
X114055000Y-91956341D01*
X114151840Y-91983895D01*
X114263521Y-91973546D01*
X114305000Y-91952891D01*
X114305000Y-92419528D01*
X114396563Y-92403384D01*
X114557554Y-92333940D01*
X114698185Y-92229243D01*
X114810881Y-92094938D01*
X114810882Y-92094936D01*
X114889566Y-91938264D01*
X114930000Y-91767660D01*
X114930000Y-91723677D01*
X122070000Y-91723677D01*
X122085248Y-91854139D01*
X122145212Y-92018889D01*
X122241556Y-92165373D01*
X122369078Y-92285685D01*
X122520916Y-92373348D01*
X122688880Y-92423634D01*
X122695000Y-92423990D01*
X122695000Y-91956341D01*
X122791840Y-91983895D01*
X122903521Y-91973546D01*
X122945000Y-91952891D01*
X122945000Y-92419528D01*
X123036563Y-92403384D01*
X123197554Y-92333940D01*
X123338185Y-92229243D01*
X123450881Y-92094938D01*
X123450882Y-92094936D01*
X123529566Y-91938264D01*
X123570000Y-91767660D01*
X123570000Y-91255000D01*
X123120000Y-91255000D01*
X123120000Y-91005000D01*
X123570000Y-91005000D01*
X123570000Y-90536323D01*
X123569999Y-90536322D01*
X123554751Y-90405860D01*
X123494787Y-90241110D01*
X123398443Y-90094626D01*
X123270921Y-89974314D01*
X123119084Y-89886651D01*
X122951118Y-89836365D01*
X122945001Y-89836008D01*
X122945000Y-89836010D01*
X122945000Y-90303658D01*
X122848160Y-90276105D01*
X122736479Y-90286454D01*
X122695000Y-90307108D01*
X122695000Y-89840470D01*
X122694999Y-89840470D01*
X122603434Y-89856615D01*
X122442445Y-89926059D01*
X122301814Y-90030756D01*
X122189118Y-90165061D01*
X122189117Y-90165063D01*
X122110433Y-90321735D01*
X122070000Y-90492339D01*
X122070000Y-91005000D01*
X122520000Y-91005000D01*
X122520000Y-91255000D01*
X122070000Y-91255000D01*
X122070000Y-91723677D01*
X114930000Y-91723677D01*
X114930000Y-91255000D01*
X114480000Y-91255000D01*
X114480000Y-91005000D01*
X114930000Y-91005000D01*
X114930000Y-90536323D01*
X114929999Y-90536322D01*
X114914751Y-90405860D01*
X114854787Y-90241110D01*
X114758443Y-90094626D01*
X114630921Y-89974314D01*
X114479084Y-89886651D01*
X114311118Y-89836365D01*
X114305001Y-89836008D01*
X114305000Y-89836010D01*
X114305000Y-90303658D01*
X114208160Y-90276105D01*
X114096479Y-90286454D01*
X114055000Y-90307108D01*
X114055000Y-89840470D01*
X114054999Y-89840470D01*
X113963434Y-89856615D01*
X113802445Y-89926059D01*
X113661814Y-90030756D01*
X113549118Y-90165061D01*
X113549117Y-90165063D01*
X113470433Y-90321735D01*
X113430000Y-90492339D01*
X113430000Y-91005000D01*
X113880000Y-91005000D01*
X113880000Y-91255000D01*
X113430000Y-91255000D01*
X113430000Y-91723677D01*
X91051784Y-91723677D01*
X91036330Y-91606291D01*
X90980861Y-91472375D01*
X90892621Y-91357379D01*
X90777625Y-91269139D01*
X90777624Y-91269138D01*
X90777622Y-91269137D01*
X90643712Y-91213671D01*
X90643710Y-91213670D01*
X90643709Y-91213670D01*
X90571854Y-91204210D01*
X90500001Y-91194750D01*
X90499999Y-91194750D01*
X90356291Y-91213670D01*
X90356287Y-91213671D01*
X90222377Y-91269137D01*
X90107379Y-91357379D01*
X90019137Y-91472377D01*
X89963671Y-91606287D01*
X89963670Y-91606291D01*
X89948216Y-91723677D01*
X89944750Y-91750000D01*
X88981420Y-91750000D01*
X88893712Y-91713671D01*
X88893710Y-91713670D01*
X88893709Y-91713670D01*
X88821854Y-91704210D01*
X88750001Y-91694750D01*
X88749999Y-91694750D01*
X88606291Y-91713670D01*
X88606287Y-91713671D01*
X88472377Y-91769137D01*
X88357379Y-91857379D01*
X88269137Y-91972377D01*
X88213671Y-92106287D01*
X88213670Y-92106291D01*
X88194750Y-92249999D01*
X88194750Y-92250000D01*
X50500500Y-92250000D01*
X50500500Y-90984570D01*
X65211969Y-90984570D01*
X65230889Y-91128278D01*
X65230890Y-91128282D01*
X65286356Y-91262192D01*
X65286357Y-91262194D01*
X65286358Y-91262195D01*
X65374598Y-91377191D01*
X65489594Y-91465431D01*
X65489595Y-91465431D01*
X65489596Y-91465432D01*
X65506363Y-91472377D01*
X65623510Y-91520900D01*
X65750499Y-91537618D01*
X65767218Y-91539820D01*
X65767219Y-91539820D01*
X65767220Y-91539820D01*
X65782196Y-91537848D01*
X65910928Y-91520900D01*
X66044844Y-91465431D01*
X66159840Y-91377191D01*
X66248080Y-91262195D01*
X66303549Y-91128279D01*
X66322469Y-90984570D01*
X66303549Y-90840861D01*
X66248080Y-90706945D01*
X66159840Y-90591949D01*
X66044844Y-90503709D01*
X66044843Y-90503708D01*
X66044841Y-90503707D01*
X65910931Y-90448241D01*
X65910929Y-90448240D01*
X65910928Y-90448240D01*
X65839073Y-90438780D01*
X65767220Y-90429320D01*
X65767218Y-90429320D01*
X65623510Y-90448240D01*
X65623506Y-90448241D01*
X65489596Y-90503707D01*
X65374598Y-90591949D01*
X65286356Y-90706947D01*
X65230890Y-90840857D01*
X65230889Y-90840861D01*
X65211969Y-90984569D01*
X65211969Y-90984570D01*
X50500500Y-90984570D01*
X50500500Y-90083271D01*
X69778021Y-90083271D01*
X69793686Y-90202260D01*
X69796941Y-90226979D01*
X69796942Y-90226983D01*
X69852408Y-90360893D01*
X69852409Y-90360895D01*
X69852410Y-90360896D01*
X69940650Y-90475892D01*
X70055646Y-90564132D01*
X70189562Y-90619601D01*
X70316551Y-90636319D01*
X70333270Y-90638521D01*
X70333271Y-90638521D01*
X70333272Y-90638521D01*
X70348248Y-90636549D01*
X70476980Y-90619601D01*
X70610896Y-90564132D01*
X70725892Y-90475892D01*
X70814132Y-90360896D01*
X70838617Y-90301782D01*
X71223342Y-90301782D01*
X71242262Y-90445490D01*
X71242263Y-90445494D01*
X71297729Y-90579404D01*
X71297730Y-90579406D01*
X71297731Y-90579407D01*
X71385971Y-90694403D01*
X71500967Y-90782643D01*
X71634883Y-90838112D01*
X71761872Y-90854830D01*
X71778591Y-90857032D01*
X71778592Y-90857032D01*
X71778593Y-90857032D01*
X71793569Y-90855060D01*
X71922301Y-90838112D01*
X72056217Y-90782643D01*
X72056223Y-90782638D01*
X72063256Y-90778579D01*
X72065023Y-90781639D01*
X72114937Y-90762229D01*
X72183410Y-90776131D01*
X72233496Y-90824845D01*
X72249500Y-90885778D01*
X72249500Y-91924678D01*
X72264032Y-91997735D01*
X72264033Y-91997739D01*
X72264034Y-91997740D01*
X72319399Y-92080601D01*
X72401263Y-92135300D01*
X72402260Y-92135966D01*
X72402264Y-92135967D01*
X72475321Y-92150499D01*
X72475324Y-92150500D01*
X72475326Y-92150500D01*
X74924676Y-92150500D01*
X74924677Y-92150499D01*
X74997740Y-92135966D01*
X75080601Y-92080601D01*
X75135966Y-91997740D01*
X75150500Y-91924674D01*
X75150500Y-91100000D01*
X79864417Y-91100000D01*
X79884699Y-91305932D01*
X79884700Y-91305934D01*
X79944768Y-91503954D01*
X80042315Y-91686450D01*
X80042317Y-91686452D01*
X80173589Y-91846410D01*
X80231223Y-91893708D01*
X80333550Y-91977685D01*
X80516046Y-92075232D01*
X80714066Y-92135300D01*
X80714065Y-92135300D01*
X80752647Y-92139100D01*
X80868392Y-92150500D01*
X80868395Y-92150500D01*
X81771605Y-92150500D01*
X81771608Y-92150500D01*
X81925934Y-92135300D01*
X82123954Y-92075232D01*
X82306450Y-91977685D01*
X82466410Y-91846410D01*
X82597685Y-91686450D01*
X82695232Y-91503954D01*
X82755300Y-91305934D01*
X82775583Y-91100000D01*
X82755300Y-90894066D01*
X82711599Y-90750000D01*
X106694750Y-90750000D01*
X106713670Y-90893708D01*
X106713671Y-90893712D01*
X106769137Y-91027622D01*
X106769138Y-91027624D01*
X106769139Y-91027625D01*
X106857379Y-91142621D01*
X106972375Y-91230861D01*
X107106291Y-91286330D01*
X107233280Y-91303048D01*
X107249999Y-91305250D01*
X107250000Y-91305250D01*
X107250001Y-91305250D01*
X107264977Y-91303278D01*
X107393709Y-91286330D01*
X107527625Y-91230861D01*
X107642621Y-91142621D01*
X107730861Y-91027625D01*
X107786330Y-90893709D01*
X107805250Y-90750000D01*
X107786330Y-90606291D01*
X107739130Y-90492339D01*
X107730862Y-90472377D01*
X107730861Y-90472376D01*
X107730861Y-90472375D01*
X107642621Y-90357379D01*
X107527625Y-90269139D01*
X107527624Y-90269138D01*
X107527622Y-90269137D01*
X107393712Y-90213671D01*
X107393710Y-90213670D01*
X107393709Y-90213670D01*
X107321854Y-90204210D01*
X107250001Y-90194750D01*
X107249999Y-90194750D01*
X107106291Y-90213670D01*
X107106287Y-90213671D01*
X106972377Y-90269137D01*
X106857379Y-90357379D01*
X106769137Y-90472377D01*
X106713671Y-90606287D01*
X106713670Y-90606291D01*
X106694750Y-90749999D01*
X106694750Y-90750000D01*
X82711599Y-90750000D01*
X82695232Y-90696046D01*
X82597685Y-90513550D01*
X82528560Y-90429320D01*
X82466410Y-90353589D01*
X82306452Y-90222317D01*
X82306453Y-90222317D01*
X82306450Y-90222315D01*
X82123954Y-90124768D01*
X81925934Y-90064700D01*
X81925932Y-90064699D01*
X81925934Y-90064699D01*
X81806805Y-90052966D01*
X81771608Y-90049500D01*
X80868392Y-90049500D01*
X80830298Y-90053251D01*
X80714067Y-90064699D01*
X80516043Y-90124769D01*
X80440660Y-90165063D01*
X80333550Y-90222315D01*
X80333548Y-90222316D01*
X80333547Y-90222317D01*
X80173589Y-90353589D01*
X80050391Y-90503709D01*
X80042315Y-90513550D01*
X80030139Y-90536330D01*
X79944769Y-90696043D01*
X79884699Y-90894067D01*
X79864417Y-91100000D01*
X75150500Y-91100000D01*
X75150500Y-90275326D01*
X75150500Y-90275323D01*
X75150499Y-90275321D01*
X75135967Y-90202264D01*
X75135966Y-90202260D01*
X75111112Y-90165063D01*
X75080601Y-90119399D01*
X75025235Y-90082405D01*
X74997739Y-90064033D01*
X74997735Y-90064032D01*
X74924677Y-90049500D01*
X74924674Y-90049500D01*
X72475326Y-90049500D01*
X72475323Y-90049500D01*
X72390281Y-90066416D01*
X72389903Y-90064516D01*
X72335540Y-90070357D01*
X72273063Y-90039078D01*
X72259198Y-90023825D01*
X72240916Y-90000000D01*
X88194750Y-90000000D01*
X88212962Y-90138335D01*
X88213670Y-90143708D01*
X88213671Y-90143712D01*
X88269137Y-90277622D01*
X88269138Y-90277624D01*
X88269139Y-90277625D01*
X88357379Y-90392621D01*
X88472375Y-90480861D01*
X88606291Y-90536330D01*
X88733280Y-90553048D01*
X88749999Y-90555250D01*
X88750000Y-90555250D01*
X88750001Y-90555250D01*
X88764977Y-90553278D01*
X88893709Y-90536330D01*
X89027625Y-90480861D01*
X89142621Y-90392621D01*
X89230861Y-90277625D01*
X89286330Y-90143709D01*
X89305250Y-90000000D01*
X89286330Y-89856291D01*
X89243314Y-89752440D01*
X89230862Y-89722377D01*
X89230861Y-89722376D01*
X89230861Y-89722375D01*
X89142621Y-89607379D01*
X89027625Y-89519139D01*
X89027624Y-89519138D01*
X89027622Y-89519137D01*
X88893712Y-89463671D01*
X88893710Y-89463670D01*
X88893709Y-89463670D01*
X88821854Y-89454210D01*
X88750001Y-89444750D01*
X88749999Y-89444750D01*
X88606291Y-89463670D01*
X88606287Y-89463671D01*
X88472377Y-89519137D01*
X88357379Y-89607379D01*
X88269137Y-89722377D01*
X88213671Y-89856287D01*
X88213670Y-89856291D01*
X88194750Y-90000000D01*
X72240916Y-90000000D01*
X72171213Y-89909161D01*
X72056217Y-89820921D01*
X72056216Y-89820920D01*
X72056214Y-89820919D01*
X71922304Y-89765453D01*
X71922302Y-89765452D01*
X71922301Y-89765452D01*
X71804934Y-89750000D01*
X71778593Y-89746532D01*
X71778591Y-89746532D01*
X71634883Y-89765452D01*
X71634879Y-89765453D01*
X71500969Y-89820919D01*
X71385971Y-89909161D01*
X71297729Y-90024159D01*
X71242263Y-90158069D01*
X71242262Y-90158073D01*
X71223342Y-90301781D01*
X71223342Y-90301782D01*
X70838617Y-90301782D01*
X70869601Y-90226980D01*
X70888521Y-90083271D01*
X70869601Y-89939562D01*
X70814132Y-89805646D01*
X70725892Y-89690650D01*
X70610896Y-89602410D01*
X70610895Y-89602409D01*
X70610893Y-89602408D01*
X70476983Y-89546942D01*
X70476981Y-89546941D01*
X70476980Y-89546941D01*
X70405125Y-89537481D01*
X70333272Y-89528021D01*
X70333270Y-89528021D01*
X70189562Y-89546941D01*
X70189558Y-89546942D01*
X70055648Y-89602408D01*
X69940650Y-89690650D01*
X69852408Y-89805648D01*
X69796942Y-89939558D01*
X69796941Y-89939562D01*
X69785849Y-90023816D01*
X69778021Y-90083271D01*
X50500500Y-90083271D01*
X50500500Y-89752440D01*
X50500691Y-89747574D01*
X50515117Y-89564265D01*
X50518161Y-89545045D01*
X50522249Y-89528021D01*
X50559378Y-89373365D01*
X50565390Y-89354865D01*
X50632953Y-89191753D01*
X50641787Y-89174416D01*
X50664900Y-89136700D01*
X50734034Y-89023881D01*
X50745470Y-89008142D01*
X50860136Y-88873885D01*
X50873885Y-88860136D01*
X50968053Y-88779709D01*
X51031814Y-88751139D01*
X51048584Y-88750000D01*
X132451416Y-88750000D01*
X132518455Y-88769685D01*
G37*
G04 #@! TD.AperFunction*
G04 #@! TD*
M02*
