G04 #@! TF.GenerationSoftware,KiCad,Pcbnew,7.0.9-7.0.9~ubuntu22.04.1*
G04 #@! TF.CreationDate,2023-11-24T17:50:00-08:00*
G04 #@! TF.ProjectId,pmod-level-conv-2,706d6f64-2d6c-4657-9665-6c2d636f6e76,rev?*
G04 #@! TF.SameCoordinates,Original*
G04 #@! TF.FileFunction,Copper,L1,Top*
G04 #@! TF.FilePolarity,Positive*
%FSLAX46Y46*%
G04 Gerber Fmt 4.6, Leading zero omitted, Abs format (unit mm)*
G04 Created by KiCad (PCBNEW 7.0.9-7.0.9~ubuntu22.04.1) date 2023-11-24 17:50:00*
%MOMM*%
%LPD*%
G01*
G04 APERTURE LIST*
G04 #@! TA.AperFunction,ComponentPad*
%ADD10O,2.540000X1.700000*%
G04 #@! TD*
G04 #@! TA.AperFunction,ComponentPad*
%ADD11R,2.400000X1.600000*%
G04 #@! TD*
G04 #@! TA.AperFunction,ComponentPad*
%ADD12O,2.400000X1.600000*%
G04 #@! TD*
G04 #@! TA.AperFunction,ComponentPad*
%ADD13O,1.000000X2.100000*%
G04 #@! TD*
G04 #@! TA.AperFunction,ComponentPad*
%ADD14O,0.900000X2.100000*%
G04 #@! TD*
G04 #@! TA.AperFunction,ViaPad*
%ADD15C,0.600000*%
G04 #@! TD*
G04 #@! TA.AperFunction,Conductor*
%ADD16C,0.250000*%
G04 #@! TD*
G04 APERTURE END LIST*
D10*
G04 #@! TO.P,J2,1,D0*
G04 #@! TO.N,/B1*
X127330000Y-93650000D03*
G04 #@! TO.P,J2,2,D1*
G04 #@! TO.N,/B2*
X127330000Y-96190000D03*
G04 #@! TO.P,J2,3,D2*
G04 #@! TO.N,/B3*
X127330000Y-98730000D03*
G04 #@! TO.P,J2,4,D3*
G04 #@! TO.N,/B4*
X127330000Y-101270000D03*
G04 #@! TO.P,J2,5,GND1*
G04 #@! TO.N,GND*
X127330000Y-103810000D03*
G04 #@! TO.P,J2,6,VCC1*
G04 #@! TO.N,VCC*
X127330000Y-106350000D03*
G04 #@! TO.P,J2,7,D4*
G04 #@! TO.N,/B5*
X130670000Y-93650000D03*
G04 #@! TO.P,J2,8,D5*
G04 #@! TO.N,/B6*
X130670000Y-96190000D03*
G04 #@! TO.P,J2,9,D6*
G04 #@! TO.N,/B7*
X130670000Y-98730000D03*
G04 #@! TO.P,J2,10,D7*
G04 #@! TO.N,/B8*
X130670000Y-101270000D03*
G04 #@! TO.P,J2,11,GND2*
G04 #@! TO.N,GND*
X130670000Y-103810000D03*
G04 #@! TO.P,J2,12,VCC2*
G04 #@! TO.N,VCC*
X130670000Y-106350000D03*
G04 #@! TD*
G04 #@! TO.P,J1,1,D0*
G04 #@! TO.N,/A1*
X55670000Y-93650000D03*
G04 #@! TO.P,J1,2,D1*
G04 #@! TO.N,/A2*
X55670000Y-96190000D03*
G04 #@! TO.P,J1,3,D2*
G04 #@! TO.N,/A3*
X55670000Y-98730000D03*
G04 #@! TO.P,J1,4,D3*
G04 #@! TO.N,/A4*
X55670000Y-101270000D03*
G04 #@! TO.P,J1,5,GND1*
G04 #@! TO.N,GND*
X55670000Y-103810000D03*
G04 #@! TO.P,J1,6,VCC1*
G04 #@! TO.N,+3.3V*
X55670000Y-106350000D03*
G04 #@! TO.P,J1,7,D4*
G04 #@! TO.N,/A5*
X52330000Y-93650000D03*
G04 #@! TO.P,J1,8,D5*
G04 #@! TO.N,/A6*
X52330000Y-96190000D03*
G04 #@! TO.P,J1,9,D6*
G04 #@! TO.N,/A7*
X52330000Y-98730000D03*
G04 #@! TO.P,J1,10,D7*
G04 #@! TO.N,/A8*
X52330000Y-101270000D03*
G04 #@! TO.P,J1,11,GND2*
G04 #@! TO.N,GND*
X52330000Y-103810000D03*
G04 #@! TO.P,J1,12,VCC2*
G04 #@! TO.N,+3.3V*
X52330000Y-106350000D03*
G04 #@! TD*
D11*
G04 #@! TO.P,SW1,1*
G04 #@! TO.N,+3.3V*
X73700000Y-91100000D03*
D12*
G04 #@! TO.P,SW1,2*
X73700000Y-93640000D03*
G04 #@! TO.P,SW1,3*
X73700000Y-96180000D03*
G04 #@! TO.P,SW1,4*
X73700000Y-98720000D03*
G04 #@! TO.P,SW1,5*
X73700000Y-101260000D03*
G04 #@! TO.P,SW1,6*
X73700000Y-103800000D03*
G04 #@! TO.P,SW1,7*
X73700000Y-106340000D03*
G04 #@! TO.P,SW1,8*
X73700000Y-108880000D03*
G04 #@! TO.P,SW1,9*
G04 #@! TO.N,/DIR8*
X81320000Y-108880000D03*
G04 #@! TO.P,SW1,10*
G04 #@! TO.N,/DIR7*
X81320000Y-106340000D03*
G04 #@! TO.P,SW1,11*
G04 #@! TO.N,/DIR6*
X81320000Y-103800000D03*
G04 #@! TO.P,SW1,12*
G04 #@! TO.N,/DIR5*
X81320000Y-101260000D03*
G04 #@! TO.P,SW1,13*
G04 #@! TO.N,/DIR4*
X81320000Y-98720000D03*
G04 #@! TO.P,SW1,14*
G04 #@! TO.N,/DIR3*
X81320000Y-96180000D03*
G04 #@! TO.P,SW1,15*
G04 #@! TO.N,/DIR2*
X81320000Y-93640000D03*
G04 #@! TO.P,SW1,16*
G04 #@! TO.N,/DIR1*
X81320000Y-91100000D03*
G04 #@! TD*
D13*
G04 #@! TO.P,J9,S1,SHIELD*
G04 #@! TO.N,GND*
X114180000Y-91130000D03*
D14*
X114180000Y-95310000D03*
D13*
X122820000Y-91130000D03*
D14*
X122820000Y-95310000D03*
G04 #@! TD*
D15*
G04 #@! TO.N,+3.3V*
X58500000Y-109500000D03*
X67000000Y-105250000D03*
X58750000Y-94500000D03*
X66750000Y-110000000D03*
X65750000Y-94500000D03*
X58750000Y-104750000D03*
X57000000Y-109000000D03*
X65750000Y-99500000D03*
X58750000Y-98000000D03*
G04 #@! TO.N,GND*
X71905483Y-93757998D03*
X85750000Y-102500000D03*
X68000000Y-93750000D03*
X90500000Y-102000000D03*
X99500000Y-102000000D03*
X101250000Y-99750000D03*
X70500000Y-99500000D03*
X58750000Y-92000000D03*
X61000000Y-93750000D03*
X63250000Y-110250000D03*
X58750000Y-107000000D03*
X64842724Y-99433533D03*
X129000000Y-90000000D03*
X65750000Y-97000000D03*
X110250000Y-102000000D03*
X103000000Y-101500000D03*
X65750000Y-92000000D03*
X68000000Y-103750000D03*
X61000000Y-103750000D03*
X61000000Y-108750000D03*
X105750000Y-93750000D03*
X122000000Y-97500000D03*
X64750000Y-104750000D03*
X113000000Y-98500000D03*
X64750000Y-94500000D03*
X71000000Y-105000000D03*
X68000000Y-98750000D03*
X68000000Y-108750000D03*
X53000000Y-109000000D03*
X65750000Y-107250000D03*
X93500000Y-101500000D03*
X92250000Y-99750000D03*
X65748191Y-102099830D03*
X58750000Y-97000000D03*
X129000000Y-109500000D03*
X58750000Y-102000000D03*
X115250000Y-97500000D03*
X118250000Y-100250000D03*
X61000000Y-98750000D03*
X96500000Y-98000000D03*
X87500000Y-97750000D03*
G04 #@! TO.N,VCC*
X69485000Y-93750000D03*
X121000000Y-97500000D03*
X126750000Y-108500000D03*
X116750000Y-100250000D03*
X70750000Y-95250000D03*
X110250000Y-93750000D03*
X69485000Y-98750000D03*
X70333271Y-90083271D03*
X116250000Y-97500000D03*
X62485000Y-108750000D03*
X62485000Y-93750000D03*
X87500000Y-106750000D03*
X96250000Y-100250000D03*
X78551870Y-102325000D03*
X63500000Y-95500000D03*
X62485000Y-98750000D03*
X106000000Y-100500000D03*
X62485000Y-103750000D03*
X63750000Y-100250000D03*
X99500000Y-93750000D03*
X90500000Y-93750000D03*
X87750000Y-100500000D03*
X69485000Y-103750000D03*
X69485000Y-108750000D03*
G04 #@! TO.N,/A5*
X65767219Y-90984570D03*
G04 #@! TO.N,/A6*
X65767219Y-95984570D03*
G04 #@! TO.N,/A7*
X65767219Y-101050000D03*
G04 #@! TO.N,/A8*
X65750000Y-106050000D03*
G04 #@! TO.N,/B1*
X88750000Y-90000000D03*
X88750000Y-92250000D03*
X99000000Y-106500000D03*
X89000000Y-107000000D03*
G04 #@! TO.N,/B2*
X90500000Y-91750000D03*
X82831373Y-99843839D03*
X89000000Y-98500000D03*
G04 #@! TO.N,/B3*
X78000000Y-103750000D03*
X98000000Y-106000000D03*
X83500000Y-105750000D03*
X77500000Y-101000000D03*
G04 #@! TO.N,/B4*
X65250000Y-109525000D03*
X63152812Y-105175000D03*
X98000000Y-93500000D03*
G04 #@! TO.N,/B5*
X71778592Y-90301782D03*
X108750000Y-106000000D03*
X108500000Y-109500000D03*
G04 #@! TO.N,/B6*
X71888477Y-95384163D03*
X107250000Y-106000000D03*
X107250000Y-109750000D03*
G04 #@! TO.N,/B7*
X107250000Y-90750000D03*
G04 #@! TO.N,/B8*
X108750000Y-93750000D03*
G04 #@! TO.N,/DIR1*
X64750000Y-92975000D03*
G04 #@! TO.N,/DIR2*
X64750000Y-97975000D03*
G04 #@! TO.N,/DIR3*
X64750000Y-102975000D03*
G04 #@! TO.N,/DIR4*
X64750000Y-107975000D03*
G04 #@! TO.N,/DIR6*
X71870944Y-98450086D03*
X84274683Y-94979275D03*
G04 #@! TO.N,/DIR7*
X72000000Y-105250000D03*
X78500000Y-105500000D03*
G04 #@! TO.N,/DIR8*
X71908720Y-108473318D03*
G04 #@! TD*
D16*
G04 #@! TO.N,/A5*
X52730000Y-93650000D02*
X55330000Y-91050000D01*
X65701789Y-91050000D02*
X65767219Y-90984570D01*
X55330000Y-91050000D02*
X65701789Y-91050000D01*
G04 #@! TO.N,/A6*
X65576789Y-96175000D02*
X65767219Y-95984570D01*
X59470405Y-96175000D02*
X65576789Y-96175000D01*
X52730000Y-96190000D02*
X53955000Y-94965000D01*
X53955000Y-94965000D02*
X58260405Y-94965000D01*
X58260405Y-94965000D02*
X59470405Y-96175000D01*
G04 #@! TO.N,/A7*
X64029595Y-99575000D02*
X65504595Y-101050000D01*
X52730000Y-98730000D02*
X53970405Y-99970405D01*
X65504595Y-101050000D02*
X65767219Y-101050000D01*
X63470405Y-99575000D02*
X64029595Y-99575000D01*
X53970405Y-99970405D02*
X63075000Y-99970405D01*
X63075000Y-99970405D02*
X63470405Y-99575000D01*
G04 #@! TO.N,/A8*
X58428984Y-102775000D02*
X63428984Y-102775000D01*
X54045000Y-102585000D02*
X58238984Y-102585000D01*
X63428984Y-102775000D02*
X64628984Y-103975000D01*
X65071016Y-103975000D02*
X65750000Y-104653984D01*
X58238984Y-102585000D02*
X58428984Y-102775000D01*
X52730000Y-101270000D02*
X54045000Y-102585000D01*
X65750000Y-104653984D02*
X65750000Y-106050000D01*
X64628984Y-103975000D02*
X65071016Y-103975000D01*
G04 #@! TO.N,/B1*
X89000000Y-107000000D02*
X98500000Y-107000000D01*
X88750000Y-90000000D02*
X88750000Y-92250000D01*
X98500000Y-107000000D02*
X99000000Y-106500000D01*
G04 #@! TO.N,/B2*
X90500000Y-90250000D02*
X90500000Y-91750000D01*
X82831373Y-99843839D02*
X87656161Y-99843839D01*
X125250000Y-95112082D02*
X125250000Y-90500000D01*
X87656161Y-99843839D02*
X89000000Y-98500000D01*
X91500000Y-89250000D02*
X90500000Y-90250000D01*
X125250000Y-90500000D02*
X124000000Y-89250000D01*
X126327918Y-96190000D02*
X125250000Y-95112082D01*
X124000000Y-89250000D02*
X91500000Y-89250000D01*
G04 #@! TO.N,/B3*
X77500000Y-103250000D02*
X78000000Y-103750000D01*
X83750000Y-106000000D02*
X98000000Y-106000000D01*
X77500000Y-101000000D02*
X77500000Y-103250000D01*
X83500000Y-105750000D02*
X83750000Y-106000000D01*
G04 #@! TO.N,/B4*
X63152812Y-108902812D02*
X63152812Y-105175000D01*
X65250000Y-109525000D02*
X65025000Y-109750000D01*
X64000000Y-109750000D02*
X63152812Y-108902812D01*
X127730000Y-101270000D02*
X105770000Y-101270000D01*
X65025000Y-109750000D02*
X64000000Y-109750000D01*
X105770000Y-101270000D02*
X98000000Y-93500000D01*
G04 #@! TO.N,/B5*
X88428984Y-93025000D02*
X87975000Y-92571016D01*
X87975000Y-91932107D02*
X85967893Y-89925000D01*
X87975000Y-92571016D02*
X87975000Y-91932107D01*
X72155374Y-89925000D02*
X71778592Y-90301782D01*
X95775000Y-93025000D02*
X88428984Y-93025000D01*
X108750000Y-106000000D02*
X108750000Y-109250000D01*
X85967893Y-89925000D02*
X72155374Y-89925000D01*
X108750000Y-106000000D02*
X95775000Y-93025000D01*
X108750000Y-109250000D02*
X108500000Y-109500000D01*
G04 #@! TO.N,/B6*
X100696878Y-106000000D02*
X87111091Y-92414213D01*
X76495000Y-95005000D02*
X72267640Y-95005000D01*
X87111091Y-92414213D02*
X79085787Y-92414213D01*
X107250000Y-106000000D02*
X100696878Y-106000000D01*
X79085787Y-92414213D02*
X76495000Y-95005000D01*
X72267640Y-95005000D02*
X71888477Y-95384163D01*
X107250000Y-106000000D02*
X107250000Y-109750000D01*
G04 #@! TO.N,/B7*
X130270000Y-98730000D02*
X128905000Y-97365000D01*
X123505000Y-89755000D02*
X108245000Y-89755000D01*
X128905000Y-97365000D02*
X126115000Y-97365000D01*
X124500000Y-95750000D02*
X124500000Y-90750000D01*
X124500000Y-90750000D02*
X123505000Y-89755000D01*
X126115000Y-97365000D02*
X124500000Y-95750000D01*
X108245000Y-89755000D02*
X107250000Y-90750000D01*
G04 #@! TO.N,/B8*
X124000000Y-94793984D02*
X121956016Y-92750000D01*
X124000000Y-97500000D02*
X124000000Y-94793984D01*
X126405000Y-99905000D02*
X124000000Y-97500000D01*
X121956016Y-92750000D02*
X109000000Y-92750000D01*
X109000000Y-92750000D02*
X108750000Y-93000000D01*
X128905000Y-99905000D02*
X126405000Y-99905000D01*
X108750000Y-93000000D02*
X108750000Y-93750000D01*
X130270000Y-101270000D02*
X128905000Y-99905000D01*
G04 #@! TO.N,/DIR1*
X78517894Y-92275000D02*
X66525000Y-92275000D01*
X65825000Y-92975000D02*
X64750000Y-92975000D01*
X79692893Y-91100000D02*
X78517894Y-92275000D01*
X81320000Y-91100000D02*
X79692893Y-91100000D01*
X66525000Y-92275000D02*
X65825000Y-92975000D01*
G04 #@! TO.N,/DIR2*
X80920000Y-93640000D02*
X77205000Y-97355000D01*
X65871016Y-97975000D02*
X64750000Y-97975000D01*
X66491016Y-97355000D02*
X65871016Y-97975000D01*
X77205000Y-97355000D02*
X66491016Y-97355000D01*
G04 #@! TO.N,/DIR3*
X65969037Y-102975000D02*
X64750000Y-102975000D01*
X75065000Y-102435000D02*
X66509037Y-102435000D01*
X66509037Y-102435000D02*
X65969037Y-102975000D01*
X81320000Y-96180000D02*
X75065000Y-102435000D01*
G04 #@! TO.N,/DIR4*
X80920000Y-98720000D02*
X79226870Y-100413130D01*
X66121016Y-107975000D02*
X64750000Y-107975000D01*
X66397698Y-107698318D02*
X66121016Y-107975000D01*
X77256277Y-107698318D02*
X66397698Y-107698318D01*
X79226870Y-105727725D02*
X77256277Y-107698318D01*
X79226870Y-100413130D02*
X79226870Y-105727725D01*
G04 #@! TO.N,/DIR6*
X80573086Y-94865213D02*
X84160621Y-94865213D01*
X72645000Y-99895000D02*
X75543299Y-99895000D01*
X75543299Y-99895000D02*
X80573086Y-94865213D01*
X71870944Y-99120944D02*
X72645000Y-99895000D01*
X84160621Y-94865213D02*
X84274683Y-94979275D01*
X71870944Y-98450086D02*
X71870944Y-99120944D01*
G04 #@! TO.N,/DIR7*
X72035000Y-105215000D02*
X78215000Y-105215000D01*
X78215000Y-105215000D02*
X78500000Y-105500000D01*
X72000000Y-105250000D02*
X72035000Y-105215000D01*
G04 #@! TO.N,/DIR8*
X71908720Y-109158720D02*
X71908720Y-108473318D01*
X80145000Y-110055000D02*
X72805000Y-110055000D01*
X72805000Y-110055000D02*
X71908720Y-109158720D01*
X81320000Y-108880000D02*
X80145000Y-110055000D01*
G04 #@! TD*
M02*
